<?xml version="1.0" encoding="UTF-8" standalone="no"?>
<svg
   xmlns:dc="http://purl.org/dc/elements/1.1/"
   xmlns:cc="http://creativecommons.org/ns#"
   xmlns:rdf="http://www.w3.org/1999/02/22-rdf-syntax-ns#"
   xmlns:svg="http://www.w3.org/2000/svg"
   xmlns="http://www.w3.org/2000/svg"
   viewBox="0 0 5333.3335 5333.3335"
   height="5333.3335"
   width="5333.3335"
   xml:space="preserve"
   id="svg2"
   version="1.1"><metadata
     id="metadata8"><rdf:RDF><cc:Work
         rdf:about=""><dc:format>image/svg+xml</dc:format><dc:type
           rdf:resource="http://purl.org/dc/dcmitype/StillImage" /></cc:Work></rdf:RDF></metadata><defs
     id="defs6"><clipPath
       id="clipPath3012"
       clipPathUnits="userSpaceOnUse"><path
         id="path3010"
         d="m 34188.9,28106.1 c -1794.9,0 -3250,447.7 -3250,1000 0,349.2 581.7,656.6 1463.2,835.5 16.6,-44.2 34.7,-86.8 54.2,-127.5 -89,-92 -187,-212 -185.4,-339.1 2.7,-223.3 238.2,-367.5 599.7,-367.5 5.8,0 11.5,0 17.3,0.1 152.8,1.9 283,30.8 376.7,83.8 118.2,66.7 179.8,169.6 178.2,297.4 -0.5,34 -5.4,69.1 -14.9,104.5 83.6,131.3 141.6,303.2 170.5,496.4 191.5,10.8 388.8,16.4 590.5,16.4 215.9,0 427.1,-6.5 631.2,-18.8 29,-192.2 86.9,-363.2 170.2,-494 -9.5,-35.4 -14.5,-70.5 -14.9,-104.5 -1.6,-127.8 60,-230.7 178.1,-297.4 93.7,-53 224,-81.9 376.8,-83.8 5.8,-0.1 11.5,-0.1 17.2,-0.1 361.6,0 597,144.2 599.8,367.5 1.5,127.1 -96.4,247.1 -185.4,339.1 18.3,38.3 35.4,78.3 51.3,119.7 860.5,-179.9 1425.7,-483.4 1425.7,-827.7 0,-552.3 -1455.1,-1000 -3250,-1000" /></clipPath></defs><g
     transform="matrix(1.3333333,0,0,-1.3333333,0,5333.3333)"
     id="g10"><g
       transform="scale(0.1)"
       id="g12"><g
         transform="scale(2.45399)"
         id="g14"></g><g
         transform="scale(1.19725)"
         id="g1586"></g><g
         transform="scale(1.25093)"
         id="g2562"></g><g
         transform="scale(1.10389)"
         id="g2618"></g><g
         transform="scale(1.10817)"
         id="g2718"></g><g
         transform="scale(1.53305)"
         id="g2914"></g><g
         transform="scale(1.32623)"
         id="g2970"></g><g
         id="g3006"><g
           clip-path="url(#clipPath3012)"
           id="g3008"><g
             transform="scale(2.29686)"
             id="g3014"><path
               id="path3016"
               style="fill:#e6e6e7;fill-opacity:1;fill-rule:nonzero;stroke:none"
               d="M 13470.1,13107.5 H 16300 v -870.8 h -2829.9" /></g></g></g><g
         transform="scale(2.13397)"
         id="g3018"><path
           id="path3020"
           style="fill:#a64b2a;fill-opacity:1;fill-rule:nonzero;stroke:none"
           d="m 15365.4,14439 c 20.1,12.4 40.3,25.5 60.5,39.4 261.7,179 540.1,480.8 827.6,897 46.5,67.4 29.6,159.8 -37.9,206.4 -67.4,46.6 -159.8,29.6 -206.3,-37.8 -472.3,-683.9 -898.3,-1019.6 -1231.7,-970.9 -387.4,56.6 -575.2,621.2 -577,626.9 -25.3,77.8 -108.9,120.6 -186.8,95.5 -77.8,-25.2 -120.7,-108.5 -95.7,-186.4 9.7,-30.4 245.3,-745.1 815.2,-829.4 200.9,-29.8 413.3,23.8 632.1,159.3" /></g><g
         transform="scale(1.99971)"
         id="g3022"><path
           id="path3024"
           style="fill:#d3a595;fill-opacity:1;fill-rule:nonzero;stroke:none"
           d="m 15803.7,15496.6 c -23.4,0 -46.4,1.6 -69,4.9 -413.3,60.4 -613.7,662.9 -615.7,669 -21.8,66.9 -83.9,109.6 -150.7,109.6 -13.9,0 -28,-1.9 -41.9,-5.7 11,8.3 23.6,14.9 37.5,19.4 13,4.2 26.2,6.2 39.3,6.2 54.1,0 104.6,-34.6 122.2,-88.8 2.1,-6.3 208.4,-626.3 640,-689.4 24,-3.5 48.5,-5.3 73.3,-5.3 68.1,0 139.2,13.2 213.1,39.5 -3.7,-2.9 -7.2,-5.7 -10.6,-8.6 -82.9,-33.8 -162.2,-50.8 -237.5,-50.8" /></g><g
         transform="scale(1.98294)"
         id="g3026"><path
           id="path3028"
           style="fill:#813d23;fill-opacity:1;fill-rule:nonzero;stroke:none"
           d="m 15972.3,15389 c -37.9,0 -75.3,2.7 -112.4,8.2 -189.8,28.1 -344.3,123.8 -467,242.2 116.6,-97.9 257,-174.2 421.6,-198.6 17.2,-2.6 32.9,-3.8 47.5,-3.8 145.8,0 169.9,122.1 314.9,241.9 24.3,9.9 48.8,21.2 73.6,34 9.8,4.3 19.6,8.9 29.5,13.6 6.3,0.5 12.8,1.7 19.6,3.8 0.1,0 0.3,0 0.4,0.1 -18.7,-85.1 -27.1,-186.9 -24.4,-285.7 -103.3,-37.1 -204.6,-55.7 -303.3,-55.7" /></g><g
         transform="scale(1.97692)"
         id="g3030"><path
           id="path3032"
           style="fill:#9e7868;fill-opacity:1;fill-rule:nonzero;stroke:none"
           d="m 16226.1,15726.7 c 3.5,2.9 7.1,5.8 10.8,8.7 20.8,7.4 41.9,15.8 63.1,25.3 -24.9,-12.8 -49.5,-24.1 -73.9,-34" /></g><g
         transform="scale(2.13573)"
         id="g3034"><path
           id="path3036"
           style="fill:#231f20;fill-opacity:1;fill-rule:nonzero;stroke:none"
           d="m 15352.7,14427 h 0.1 -0.1 m -1305,834.9 c -12.2,0 -24.6,-1.8 -36.8,-5.8 -62.9,-20.3 -97.7,-88 -77.5,-150.9 9.5,-29.7 239.6,-727.8 791.9,-809.5 193.8,-28.7 399.9,23.5 612.6,155.2 19.7,12.2 39.7,25.2 59.4,38.7 258.6,176.9 534.4,476 819.6,889.1 18.3,26.4 25.1,58.3 19.4,89.9 -5.8,31.6 -23.5,59 -50,77.2 -26.4,18.3 -58.3,25.1 -89.9,19.4 -31.5,-5.8 -59,-23.6 -77.2,-50 -236.4,-342.3 -462.9,-599.9 -673.1,-765.6 -186.5,-147 -359.7,-221.2 -516.1,-221.2 -23.3,0 -46.2,1.6 -68.6,4.9 -404.2,59 -597.3,639.6 -599.3,645.5 -16.4,50.7 -63.7,83.1 -114.4,83.1 m 782.1,-1030.1 c -37.9,0 -75.5,2.8 -112.7,8.3 -586.5,86.8 -827.2,816.9 -837.2,847.9 -29.6,92.4 21.4,191.8 113.7,221.6 92.4,29.8 191.9,-21.1 222,-113.4 1.8,-5.6 185.1,-553.5 553.9,-607.3 157.9,-23.1 340.2,45.8 541.8,204.8 205.8,162.2 428.4,415.7 661.6,753.5 26.8,38.7 67,64.7 113.4,73.2 46.4,8.5 93.2,-1.6 131.9,-28.3 38.8,-26.8 64.9,-67.1 73.3,-113.4 8.5,-46.3 -1.6,-93.2 -28.3,-132 -289.2,-418.7 -569.8,-722.7 -834.2,-903.5 -20.4,-13.9 -41.1,-27.4 -61.5,-40 v 0 c -184.1,-114 -364.4,-171.4 -537.7,-171.4" /></g><g
         transform="scale(2.21622)"
         id="g3038"><path
           id="path3040"
           style="fill:#a64b2a;fill-opacity:1;fill-rule:nonzero;stroke:none"
           d="m 16070.4,14276.3 c -1.8,-39.1 -12.7,-193.5 -125.4,-317 -75.9,-83.2 -161,-111.9 -201.1,-122.3 -25.9,-193.6 8.9,-374.8 81.5,-477.2 -6.5,-17.8 -10.1,-35.9 -10.2,-53.3 -1.2,-94 95.4,-134.3 215.1,-135.8 119.6,-1.4 241,36.4 242.1,130.5 0.7,49.3 -49.2,104.3 -91.4,145.6 38.8,73.3 68.1,165.9 82,269.6 37,276 -49.3,526.6 -192.6,559.9" /></g><g
         transform="scale(2.05976)"
         id="g3042"><path
           id="path3044"
           style="fill:#a64b2a;fill-opacity:1;fill-rule:nonzero;stroke:none"
           d="m 15920.9,15360.7 c 1.8,-42.1 13.7,-208.2 134.8,-341 81.7,-89.5 173.2,-120.4 216.4,-131.6 27.9,-208.4 -9.5,-403.3 -87.6,-513.5 6.9,-19.1 10.7,-38.6 11,-57.3 1.2,-101.2 -102.7,-144.5 -231.5,-146.1 -128.8,-1.6 -259.3,39.1 -260.6,140.4 -0.6,53 53,112.2 98.4,156.6 -41.8,78.9 -73.3,178.5 -88.3,290.1 -39.7,296.9 53.1,566.6 207.4,602.4" /></g><g
         transform="scale(2.22912)"
         id="g3046"><path
           id="path3048"
           style="fill:#a64b2a;fill-opacity:1;fill-rule:nonzero;stroke:none"
           d="m 16083.6,13372.6 c 38.6,72.9 67.8,164.9 81.6,268.1 20.3,151.7 3.1,295.6 -40.4,399.7 110.4,139 175.2,339.7 175.2,624.4 0,734.3 -430.9,1163.5 -962.6,1163.5 -531.6,0 -962.6,-429.2 -962.6,-1163.5 0,-288.2 66.5,-490.4 179.4,-629.6 -42,-103.6 -58.3,-245.4 -38.3,-394.5 13.8,-103.2 43,-195.2 81.6,-268.1 -41.9,-41.1 359.9,-104.2 353.6,-86.5 72.2,101.8 106.7,281.9 81,474.4 -22.7,5.9 -59.6,17.6 -101.1,41.7 123.5,-34 261.2,-47.2 406.4,-47.2 149.9,0 291.8,14 418.3,50.5 -43.8,-26.3 -83,-38.8 -106.7,-45 -25.7,-192.5 8.8,-372.6 81,-474.4 -6.4,-17.7 395.5,45.4 353.6,86.5" /></g><g
         transform="scale(2.19587)"
         id="g3050"><path
           id="path3052"
           style="fill:#7e3e27;fill-opacity:1;fill-rule:nonzero;stroke:none"
           d="m 16188.4,13311.7 c -2.4,0 -4.8,0 -7.2,0 -60.1,0.8 -110.2,11.5 -144.6,31 -35.4,20 -53.1,48.8 -52.6,85.8 0.1,11.7 2,23.9 5.6,36.4 1.8,6.4 2.2,13.1 1.4,19.5 5,0.2 10.6,0.6 16.9,1.2 -2,-9.6 -3.1,-19.2 -3.2,-28.5 -1.2,-95 96.3,-135.6 217.1,-137.1 2.3,-0.1 4.7,-0.1 7,-0.1 24.1,0 48.2,1.6 71.2,5 -31.5,-8.6 -69.2,-13.2 -111.6,-13.2" /></g><g
         transform="scale(2.1635)"
         id="g3054"><path
           id="path3056"
           style="fill:#7e3e27;fill-opacity:1;fill-rule:nonzero;stroke:none"
           d="m 16230.2,13686.1 c -1,7.2 -3.5,14.1 -7.5,20.3 -65.2,100.2 -94.2,268.7 -75.7,439.8 0.2,1.7 0.3,3.4 0.3,5.1 1.2,0.5 2.4,1 3.6,1.5 10.1,4.1 20,8.4 29.4,12.6 20.9,9.4 39.6,18.7 57.3,28.4 22.1,12.4 39.4,23.6 54.3,35.4 2.8,2.3 5.5,4.5 8.1,6.7 -73.9,-196.4 -118.5,-410.5 -53.5,-511.1 4.9,-7.6 6.1,-16.8 3.7,-25.4 -1.1,-4 -2.1,-8.1 -2.9,-12.1 -6.3,-0.6 -12.1,-1 -17.1,-1.2" /></g><g
         transform="scale(2.0442)"
         id="g3058"><path
           id="path3060"
           style="fill:#7e3e27;fill-opacity:1;fill-rule:nonzero;stroke:none"
           d="m 16079.9,14299.3 c -45.3,0 -85.5,5 -119.3,14 24.5,-3.5 49.9,-5.1 75.4,-5.1 2.6,0 5.1,0 7.6,0 129.7,1.6 234.4,45.3 233.2,147.3 -0.1,9.7 -1.3,19.6 -3.2,29.7 5.8,-0.4 10.9,-0.6 15.1,-0.6 1.2,0 2.2,0 3.2,0 -0.9,-6.8 -0.3,-13.9 1.6,-20.7 3.9,-13.4 5.9,-26.6 6,-39.1 0.5,-39.7 -18.5,-70.7 -56.5,-92.2 -37,-21 -90.7,-32.5 -155.4,-33.2 -2.5,0 -5.1,-0.1 -7.7,-0.1" /></g><g
         transform="scale(2.05667)"
         id="g3062"><path
           id="path3064"
           style="fill:#7e3e27;fill-opacity:1;fill-rule:nonzero;stroke:none"
           d="m 16190,14396.7 c -4.3,0 -9.3,0.2 -15.1,0.6 -0.9,4.6 -2,9.2 -3.3,13.7 -2.5,9.1 -1.2,18.7 3.9,26.7 69.3,107.1 20.3,336.6 -59.1,545.2 5,-4.9 10.6,-9.7 16.7,-14.6 15.7,-12.4 33.8,-24.2 57.2,-37.2 18.5,-10.3 38.2,-20 60.2,-29.9 9.6,-4.4 19.8,-8.7 30.1,-13 -0.1,-2.7 -0.1,-5.5 0.2,-8.2 19.2,-179.6 -11.4,-356.5 -79.7,-461.7 -4.3,-6.5 -7,-13.9 -8,-21.5 -0.9,0 -2,-0.1 -3.1,-0.1" /></g><g
         transform="scale(2.01626)"
         id="g3066"><path
           id="path3068"
           style="fill:#231f20;fill-opacity:1;fill-rule:nonzero;stroke:none"
           d="m 16142.1,14794.8 c 51.8,2.5 107.9,-2.4 154.1,-27.1 3.8,-2.1 1.6,-7.9 -2.6,-6.9 -46.7,11.3 -97,3.2 -142.2,-10.8 -32.8,-12.2 -44.3,42.9 -9.3,44.8" /></g><g
         transform="scale(2.20491)"
         id="g3070"><path
           id="path3072"
           style="fill:#231f20;fill-opacity:1;fill-rule:nonzero;stroke:none"
           d="m 16268,13529 c -47.3,2.3 -98.7,-2.2 -140.9,-24.8 -3.5,-2 -1.5,-7.3 2.4,-6.3 42.6,10.3 88.6,2.9 130,-9.9 30,-11.2 40.5,39.2 8.5,41" /></g><g
         transform="scale(2.1849)"
         id="g3074"><path
           id="path3076"
           style="fill:#bc785f;fill-opacity:1;fill-rule:nonzero;stroke:none"
           d="m 15647.8,14420 c -360.2,0 -652.2,216.5 -652.2,666.7 0,218.9 69,452.7 181.2,635.2 58.2,-9.6 120.3,-18.6 186.9,-27.5 93.3,-12.6 187.3,-18.8 281.4,-18.8 94.1,0 188.3,6.2 281.8,18.8 68.3,9.2 131.9,18.4 191.3,28.3 112.6,-182.6 181.8,-416.8 181.8,-636 0,-450.2 -292,-666.7 -652.2,-666.7" /></g><g
         transform="scale(2.23425)"
         id="g3078"><path
           id="path3080"
           style="fill:#231f20;fill-opacity:1;fill-rule:nonzero;stroke:none"
           d="m 16099.1,14030.3 v 0 c -8.7,-11.8 -11.3,-27.2 -7.3,-41.3 30.3,-103.2 39.3,-256.7 22.6,-381.7 -12,-89.6 -36.4,-173.9 -70.7,-244 -8.8,-17.9 -5.2,-39.6 8.7,-53.8 30.8,-31.4 71.6,-77.6 71.1,-116.5 -0.8,-66.8 -84.5,-110 -213.2,-110 -2.4,0 -4.7,0 -7.1,0 -59.1,0.8 -108.3,11.3 -142.1,30.4 -34.8,19.7 -52.2,48.1 -51.8,84.4 0.2,11.5 2,23.5 5.5,35.8 3.8,13.1 1.7,27.3 -5.8,38.8 -63.1,97 -91.2,260.2 -73.3,425.8 0.2,1.7 0.3,3.4 0.3,5 1.1,0.5 2.3,1 3.5,1.4 9.8,4 19.3,8.1 28.4,12.2 20.3,9.1 38.4,18.1 55.5,27.6 21.5,12 38.2,22.8 52.6,34.2 9.3,7.4 17.1,14.6 23.6,22.1 8.6,10 14.3,19.6 17.3,29.2 1.4,4.4 -0.8,9.1 -5.1,10.8 -4.2,1.8 -9.1,-0.1 -11.2,-4.1 -3.5,-6.7 -8.8,-12.9 -16.9,-19.5 -6.5,-5.3 -14.1,-10.3 -23.2,-15.2 -14.6,-8 -31.3,-15.1 -52.7,-22.7 -17.3,-6 -35.6,-11.4 -55.9,-16.6 -9.1,-2.3 -18.7,-4.6 -28.5,-6.8 -11.5,-2.5 -20.4,-4.3 -28.1,-5.6 l -0.3,-0.1 c -2.1,0.3 -4.2,0.5 -6.3,0.5 -2.5,0 -4.9,-0.2 -7.3,-0.6 -82.2,-12.9 -174.2,-19.4 -273.3,-19.4 -96.7,0 -186.6,6.2 -267.1,18.5 -2.2,0.3 -4.5,0.5 -6.7,0.5 -0.9,0.2 -1.8,0.4 -2.7,0.6 -7.7,1.3 -16.7,3.1 -28.2,5.6 -9.8,2.2 -19.3,4.5 -28.4,6.8 -20.3,5.2 -38.6,10.6 -55.9,16.6 -21.4,7.6 -38.1,14.7 -52.8,22.7 -9.1,4.9 -16.7,9.9 -23.2,15.2 -8,6.6 -13.4,12.8 -16.8,19.5 -2.1,4 -7.1,5.9 -11.3,4.1 -4.2,-1.7 -6.4,-6.4 -5.1,-10.8 3.1,-9.6 8.7,-19.2 17.4,-29.2 6.5,-7.5 14.2,-14.7 23.6,-22.1 14.4,-11.4 31.1,-22.2 52.6,-34.2 17,-9.5 35.1,-18.5 55.4,-27.6 8.9,-4 18.2,-8 27.8,-11.9 -0.2,-2.5 -0.2,-5.1 0.1,-7.6 17.7,-165.3 -10.5,-328.1 -73.4,-424.9 -7.5,-11.5 -9.6,-25.6 -5.8,-38.8 3.5,-12.3 5.3,-24.3 5.4,-35.8 0.5,-36.3 -16.9,-64.7 -51.6,-84.4 -33.9,-19.1 -83.1,-29.6 -142.2,-30.4 -2.4,0 -4.7,0 -7.1,0 -128.7,0 -212.4,43.2 -213.2,110 -0.5,38.9 40.3,85.1 71.1,116.5 13.9,14.2 17.4,35.9 8.7,53.8 -34.3,70.1 -58.7,154.4 -70.7,244 -16.6,124 -8.4,271.6 20.9,376.2 4,14 1.2,29.4 -7.6,41.1 -34.7,46.3 -64.1,98.6 -87.2,155.5 -49.5,121.6 -74.6,271.8 -74.6,446.4 0,346.2 96.3,639.2 278.4,847.3 170.2,194.5 408.2,301.7 670.2,301.7 258,0 485.7,-104.3 658.4,-301.7 182.1,-208.1 278.3,-501.1 278.3,-847.3 0,-202 -19.3,-339.7 -62.7,-446.4 -22.2,-54.6 -50.2,-105 -83,-149.8 m 200.9,596.2 c 0,359.8 -101,665.3 -292,883.6 -183.5,209.7 -425.5,320.5 -699.9,320.5 -278.1,0 -530.9,-113.8 -711.8,-320.5 -191,-218.3 -292,-523.8 -292,-883.6 0,-181.7 26.5,-338.9 78.7,-467.2 24.4,-60 55.3,-115.4 91.8,-164.7 -30.3,-110.9 -38.8,-265.3 -21.5,-394.6 12.5,-93.3 37.9,-181.6 73.4,-255.9 -39.8,-41.2 -83.7,-94.9 -83,-151.8 1.2,-99.9 106.6,-164.4 268.4,-164.4 2.6,0 5.2,0 7.8,0 68.4,0.8 126.6,13.8 168.6,37.5 52.9,29.9 80.4,75.9 79.7,133.1 -0.2,15.2 -2.4,30.9 -6.6,46.8 67.9,106.6 98,273.1 81.1,447.7 80.6,-11.7 169.9,-17.6 265.4,-17.6 98,0 189.3,6.3 271.7,18.6 -17.1,-175.1 13,-341.8 81.1,-448.7 -4.3,-15.9 -6.5,-31.6 -6.7,-46.8 -0.7,-57.2 26.8,-103.2 79.7,-133.1 41.9,-23.7 100.3,-36.7 168.7,-37.5 2.5,0 5.1,0 7.7,0 161.8,0 267.2,64.5 268.4,164.4 0.7,56.9 -43.1,110.6 -83,151.8 35.6,74.3 60.9,162.6 73.4,255.9 17.7,132.5 8.6,289.3 -23.2,400.8 34.5,47.7 63.9,101 87.2,158.5 46.3,113.6 66.9,257.7 66.9,467.2" /></g><g
         transform="scale(2.12053)"
         id="g3082"><path
           id="path3084"
           style="fill:#a64b2a;fill-opacity:1;fill-rule:nonzero;stroke:none"
           d="m 14939.5,15868.2 c -96.1,-224.8 -102.3,-889.3 127.3,-988.9 109.7,-32.7 250.1,28.1 240.2,155.1 -11.6,223.8 -30.8,459.1 29.6,690 l 188.9,503.9 c 2.2,8.2 -12.6,62.4 -33.2,65.6 -262.6,6.1 -457.8,-179.8 -552.8,-425.7" /></g><g
         transform="scale(2.10762)"
         id="g3086"><path
           id="path3088"
           style="fill:#d3a595;fill-opacity:1;fill-rule:nonzero;stroke:none"
           d="m 15051.1,15167.9 c -23.2,69 -39.3,155.2 -46.5,254.5 -14.5,197.5 9.4,421.3 56.7,532 l 0.3,0.9 c 61.2,158.3 157.5,276.8 274.6,344.7 -109.2,-77.4 -193,-195.9 -246,-333 -67.7,-158.4 -91.1,-533.9 -19.6,-779.1 -7.2,-5.3 -13.7,-12.1 -19.5,-20" /></g><g
         transform="scale(2.04143)"
         id="g3090"><path
           id="path3092"
           style="fill:#7e3e27;fill-opacity:1;fill-rule:nonzero;stroke:none"
           d="m 15953.7,15705 c -8.3,5.9 -16.9,11.3 -25.9,16.1 -11.8,190.7 -30.4,386.9 13.7,578.9 9.4,-20 30.6,-69.5 25.9,-98 -27.6,-166.5 -22.1,-334 -13.7,-497" /></g><g
         transform="scale(2.12416)"
         id="g3094"><path
           id="path3096"
           style="fill:#231f20;fill-opacity:1;fill-rule:nonzero;stroke:none"
           d="m 15091.2,14817.1 c 55.9,-2.9 112.6,12.8 154.5,44.5 47.9,36.2 71.7,89 67.2,148.5 -0.9,18.2 -1.9,36.4 -2.9,54.7 -10.9,201.7 -36.4,410.9 14,614.9 1.7,6.6 -1.8,13.5 -8.3,16.4 -8.6,3.9 -18.8,-0.7 -21,-9.6 -52.3,-210 -54.9,-420.2 -43.8,-624.3 1,-18.4 2,-36.7 2.9,-55 v -0.7 c 4.1,-51.8 -22.2,-83.3 -45,-100.5 -40.3,-30.6 -102.2,-40.8 -154.7,-25.9 -87.8,39.7 -150,197.3 -166.4,422.2 -14.3,196 9.3,418 56.3,527.9 l 0.3,0.8 c 100.5,259.9 296.2,411.9 523.5,406.6 l 1.2,56.5 c -253.6,5.9 -470.4,-159.6 -580.1,-442.8 -50.6,-119 -75.4,-346.1 -60.3,-552.7 10.8,-147.6 51.5,-404.9 202.8,-470.6 l 3.5,-1.3 c 18.2,-5.4 37.3,-8.6 56.3,-9.6" /></g><g
         transform="scale(2.00786)"
         id="g3098"><path
           id="path3100"
           style="fill:#a64b2a;fill-opacity:1;fill-rule:nonzero;stroke:none"
           d="m 15897.6,15975.2 83.7,25.4 c 37.9,11.5 76.7,9.4 110.7,-3.4 8.5,-3.2 17.9,-3.1 26.9,-0.4 h 0.1 c 39.4,12 143.1,-83.3 165.4,-152.9 15.6,-48.8 -56.3,-75.8 -56.3,-75.8 15.6,-48.5 -14,-100.6 -65.9,-116.4 l -226.6,-68.7 c -34.6,-10.5 -71.1,7.2 -81.5,39.5 l -56.4,176.2 c -23.5,73.3 21.5,152.7 99.9,176.5" /></g><g
         transform="scale(2.00978)"
         id="g3102"><path
           id="path3104"
           style="fill:#231f20;fill-opacity:1;fill-rule:nonzero;stroke:none"
           d="m 16295.3,15824.2 c -16.5,73.7 -79.7,133.3 -148.6,159.1 -11.9,4 -36.9,11.2 -46.9,2.7 -3.1,-2.7 -2.6,-7.8 1.1,-9.6 2.2,-1.1 4.8,-1.9 7.3,-2.5 8.9,-2.2 17.4,-6.2 24.7,-12 42.1,-33.2 85.6,-94.3 106.8,-139.7 7.9,-16.7 -17,-32.7 -31.9,-40.2 -53.8,-18.7 8.7,-68.9 -49.3,-108 -4.4,-9.6 -230.7,-72.9 -245.2,-78.7 -18.7,-7.2 -48.6,0 -55.4,20 -10.6,40.6 -53.1,172.8 -62.6,210.8 -2.7,17 -0.8,35.7 4.2,52.7 2.1,7.1 5.2,13.9 9.2,20.1 2.7,4.2 8.2,16.6 10.7,26.2 1.3,5.1 -4.2,9.1 -8.7,6.5 -49.7,-29.5 -72,-124.1 -50.2,-176.5 14.5,-30.1 44.1,-168.7 70.5,-189.7 22.5,-23.6 59.4,-33.2 91,-24.5 l 226.3,68.5 c 3.4,0.9 7.9,2.6 12.2,4.1 50.8,18.5 86.3,70.2 80.4,124.2 31.9,18.2 59.1,46.3 54.4,86.5" /></g><g
         transform="scale(2.01046)"
         id="g3106"><path
           id="path3108"
           style="fill:#a64b2a;fill-opacity:1;fill-rule:nonzero;stroke:none"
           d="m 16048,15756.8 c 38.2,-119.4 86.5,-217.8 155.1,-197 96.9,29.4 30.7,169.7 -7.6,289.1 l -147.5,-92.1" /></g><g
         transform="scale(2.00209)"
         id="g3110"><path
           id="path3112"
           style="fill:#7e3e27;fill-opacity:1;fill-rule:nonzero;stroke:none"
           d="m 16245.9,15635 c -14.3,0 -27,5.8 -38.5,16.4 3.4,20.9 1.8,47.5 -7.9,81.4 -0.3,1 -12.7,32.2 -26.1,65.7 5.3,-4.8 11.3,-10.9 12,-12.5 33.5,-75.6 25.6,-127 61.4,-127 5,0 10.9,1 18,3.1 18.8,5.7 29.7,16.2 35.2,30.1 -1,-12.4 -3.6,-23.2 -8.5,-31.9 -6.3,-11.4 -13.4,-18.1 -28.3,-22.6 -6,-1.8 -11.8,-2.7 -17.3,-2.7" /></g><g
         transform="scale(2.00824)"
         id="g3114"><path
           id="path3116"
           style="fill:#231f20;fill-opacity:1;fill-rule:nonzero;stroke:none"
           d="m 16211.6,15861.5 c -8.8,-2.7 -3.1,-30.6 2,-45.7 25.5,-75.3 50.8,-162.5 28,-203.5 -6.2,-11.3 -13.4,-18 -28.2,-22.5 -57.6,-17.5 -91.4,52.1 -122.4,148.9 -2.6,8.1 -9.9,6.7 -18.7,4.1 -8.7,-2.7 -14.6,-8.5 -12,-16.7 23.6,-73.8 33.7,-89.2 56,-122.8 31.1,-47 67.2,-54.9 106.6,-43 23.4,7.1 37.4,19.3 47.9,38.2 29.2,52.5 -0.5,140.4 -29.3,225.4 -5.1,15 -21.2,40.2 -29.9,37.6" /></g><g
         transform="scale(1.99093)"
         id="g3118"><path
           id="path3120"
           style="fill:#a64b2a;fill-opacity:1;fill-rule:nonzero;stroke:none"
           d="m 16250.4,15907 c 0.8,-2.6 25.5,-84.5 26.2,-87 23.4,-79.4 0.8,-120 -45.1,-133.9 -66.7,-20.3 -103.8,67.6 -130.8,151.9 l 149.7,69" /></g><g
         transform="scale(1.98855)"
         id="g3122"><path
           id="path3124"
           style="fill:#7e3e27;fill-opacity:1;fill-rule:nonzero;stroke:none"
           d="m 16229.3,15718.5 c -24.3,0 -43.9,21.1 -59,47.5 12.7,-11.7 27.1,-18.6 43.4,-18.6 6,0 12.3,0.9 18.9,2.9 29.3,8.9 49,28.7 53.5,62.4 13.9,-74 -29.3,-87.9 -43.6,-92.2 -4.5,-1.4 -9,-2 -13.2,-2" /></g><g
         transform="scale(1.99358)"
         id="g3126"><path
           id="path3128"
           style="fill:#231f20;fill-opacity:1;fill-rule:nonzero;stroke:none"
           d="m 16078.9,15816.1 -6.8,-2.1 c -6.5,-2 -10.1,-8.5 -8.1,-14.6 38.8,-116.2 83.6,-172.9 148.6,-153.1 34.8,10.5 87.4,44.6 56,153.6 -0.4,1.3 -18.8,47.6 -35,88.3 -2.8,6.9 -13.2,3.8 -11.8,-3.5 8.3,-41.9 17.6,-89 17.8,-90 27.4,-93.2 -22.6,-109.2 -38.1,-113.9 -57.2,-17.4 -90.8,80.9 -105.4,126.9 -2.1,6.8 -9.8,10.6 -17.2,8.4" /></g><g
         transform="scale(1.97098)"
         id="g3130"><path
           id="path3132"
           style="fill:#a64b2a;fill-opacity:1;fill-rule:nonzero;stroke:none"
           d="m 16271.7,16022.4 c 7.2,-21.5 23.6,-74.7 25.1,-95.6 3.2,-44.3 -11.2,-83.8 -39.7,-91.9 -31.8,-9 -77.9,6 -100.5,73.2 l 115.1,114.3" /></g><g
         transform="scale(1.97044)"
         id="g3134"><path
           id="path3136"
           style="fill:#bdbbbc;fill-opacity:1;fill-rule:nonzero;stroke:none"
           d="m 16236.3,15833.4 c -10.9,2.1 -22.4,7.2 -33.5,15.4 1,-0.1 2,-0.3 3.1,-0.4 12.6,-8.1 25.9,-11.6 38.2,-11.6 1.3,0 2.5,0.1 3.7,0.1 -3.8,-1.2 -7.7,-2.4 -11.5,-3.5 m 39,13 c 6.4,4.9 11.6,11.9 15.7,20.2 l 9,2.8 c -2.3,-6.6 -5.5,-12.4 -9.6,-17.4 -5,-1.9 -10,-3.8 -15.1,-5.6" /></g><g
         transform="scale(1.96928)"
         id="g3138"><path
           id="path3140"
           style="fill:#231f20;fill-opacity:1;fill-rule:nonzero;stroke:none"
           d="m 16257.9,15841.4 c -3.9,0 -7.9,0.5 -12,1.3 3.8,1.1 7.6,2.3 11.4,3.6 4.8,0.2 9.4,1 13.8,2.2 5,1.5 9.7,3.9 13.8,7.2 5,1.8 10.1,3.7 15.1,5.7 -7.1,-8.6 -16.8,-14.7 -29,-18.2 -4.1,-1.2 -8.5,-1.8 -13.1,-1.8" /></g><g
         transform="scale(1.97068)"
         id="g3142"><path
           id="path3144"
           style="fill:#231f20;fill-opacity:1;fill-rule:nonzero;stroke:none"
           d="m 16203.9,15846.5 c -1.1,0.1 -2.1,0.2 -3.1,0.4 -19,13.9 -36.7,36.7 -47.7,69.1 l 7.6,2 c 0.8,-1.1 1.7,-2.2 2.6,-3.3 l -4.3,-4.3 c 10.9,-32.3 27.3,-52.6 44.9,-63.9 m 85.1,18.2 c 2.6,5.1 4.7,10.8 6.3,16.9 1.6,-2.5 3.1,-5 4.7,-7.3 -0.6,-2.4 -1.2,-4.7 -2,-6.9 l -9,-2.7" /></g><g
         transform="scale(1.97106)"
         id="g3146"><path
           id="path3148"
           style="fill:#231f20;fill-opacity:1;fill-rule:nonzero;stroke:none"
           d="m 16296.9,15871.2 c -1.6,2.4 -3.2,4.8 -4.8,7.3 3.3,12.2 4.8,26 4.3,40.5 3.5,-18.5 3.6,-34.5 0.5,-47.8" /></g><g
         transform="scale(1.97069)"
         id="g3150"><path
           id="path3152"
           style="fill:#7e3e27;fill-opacity:1;fill-rule:nonzero;stroke:none"
           d="m 16242.1,15834.9 c -12.3,0 -25.6,3.4 -38.3,11.6 -17.6,11.2 -33.9,31.5 -44.8,63.9 l 4.2,4.3 c 20.6,-25 46,-36.9 66.8,-36.9 4.6,0 9,0.6 13.1,1.8 30.5,8.6 45.3,33.8 42.4,72.8 l 5.6,1.6 c 3.8,-11.4 6.6,-22 8.4,-32 0.5,-14.5 -1,-28.3 -4.3,-40.5 -1.6,-6 -3.7,-11.7 -6.2,-16.8 -4.1,-8.4 -9.3,-15.3 -15.7,-20.3 -4.2,-3.3 -8.8,-5.7 -13.8,-7.2 -4.4,-1.2 -9,-2 -13.7,-2.2 -1.3,-0.1 -2.4,-0.1 -3.7,-0.1" /></g><g
         transform="scale(1.97391)"
         id="g3154"><path
           id="path3156"
           style="fill:#231f20;fill-opacity:1;fill-rule:nonzero;stroke:none"
           d="m 16283.5,15934.3 -1.3,4.2 c -25.4,78.3 -32.4,82.9 -39.5,80.9 -1.3,-0.3 -3.1,-1.3 -4.4,-3.8 -6.8,-12.9 3.4,-85.5 5.9,-93 6.7,-19.8 16.1,-56.3 4.4,-78.6 -4.6,-8.9 -12.1,-14.6 -22.7,-17.7 -21,-5.9 -59.9,15 -78.4,69.8 -3.5,10.5 -16.8,17.3 -27.8,14.1 -5.2,-1.5 -9.5,-4.9 -12,-9.7 -2.6,-4.9 -3,-10.5 -1.2,-15.9 22.1,-65.4 71.5,-99.7 112.5,-100.3 6.9,-0.1 13.5,0.7 19.7,2.5 12.1,3.4 34.4,12.9 47.3,37.3 14,26.7 13.2,63.7 -2.5,110.2" /></g><g
         transform="scale(2.30368)"
         id="g3158"><path
           id="path3160"
           style="fill:#a64b2a;fill-opacity:1;fill-rule:nonzero;stroke:none"
           d="m 14031.1,15876.9 c 0,-233.7 -189.4,-423.1 -423.1,-423.1 -233.6,0 -423.1,189.4 -423.1,423.1 0,233.7 189.5,423.1 423.1,423.1 233.7,0 423.1,-189.4 423.1,-423.1" /></g><g
         transform="scale(2.29937)"
         id="g3162"><path
           id="path3164"
           style="fill:#d7ae9f;fill-opacity:1;fill-rule:nonzero;stroke:none"
           d="m 13244.3,15963.1 c 27.4,190.2 191.6,336.9 389.3,336.9 83.6,0 161.2,-26.2 225,-70.9 -3,-4.8 -6,-9.6 -9,-14.4 -59.8,31.9 -127.7,49.8 -198.9,49.8 -16.1,0 -32.3,-0.9 -48.7,-2.8 -173.3,-19.8 -310.2,-141.6 -357.7,-298.6" /></g><g
         transform="scale(2.308)"
         id="g3166"><path
           id="path3168"
           style="fill:#000000;fill-opacity:1;fill-rule:nonzero;stroke:none"
           d="m 13582.6,16239 c -216.1,0 -391.8,-175.8 -391.8,-391.8 0,-216.1 175.7,-391.8 391.8,-391.8 216.1,0 391.8,175.7 391.8,391.8 0,216 -175.7,391.8 -391.8,391.8 m 0,-844.6 c -249.7,0 -452.8,203.1 -452.8,452.8 0,249.7 203.1,452.8 452.8,452.8 249.7,0 452.8,-203.1 452.8,-452.8 0,-249.7 -203.1,-452.8 -452.8,-452.8" /></g><g
         transform="scale(2.27828)"
         id="g3170"><path
           id="path3172"
           style="fill:#d7a86e;fill-opacity:1;fill-rule:nonzero;stroke:none"
           d="m 14135.1,15990.9 c 0,-170.8 -138.4,-309.2 -309.1,-309.2 -170.8,0 -309.2,138.4 -309.2,309.2 0,170.7 138.4,309.1 309.2,309.1 170.7,0 309.1,-138.4 309.1,-309.1" /></g><g
         transform="scale(2.27612)"
         id="g3174"><path
           id="path3176"
           style="fill:#987853;fill-opacity:1;fill-rule:nonzero;stroke:none"
           d="m 13628.9,15800.6 c -51.8,53 -83.8,125.6 -83.8,205.4 0,162.1 131.9,294 294,294 34.4,0 67.5,-6 98.3,-16.9 -4,-8.1 -8,-16.2 -11.8,-24.4 -8.5,0.7 -17.2,1.1 -25.9,1.1 -170.9,0 -309.4,-138.5 -309.4,-309.4 0,-54.4 14,-105.4 38.6,-149.8" /></g><g
         transform="scale(2.28044)"
         id="g3178"><path
           id="path3180"
           style="fill:#000000;fill-opacity:1;fill-rule:nonzero;stroke:none"
           d="m 13812.9,16269.1 c -161.8,0 -293.4,-131.6 -293.4,-293.4 0,-161.8 131.6,-293.4 293.4,-293.4 161.8,0 293.4,131.6 293.4,293.4 0,161.8 -131.6,293.4 -293.4,293.4 m 0,-617.7 c -178.9,0 -324.3,145.5 -324.3,324.3 0,178.8 145.4,324.3 324.3,324.3 178.8,0 324.3,-145.5 324.3,-324.3 0,-178.8 -145.5,-324.3 -324.3,-324.3" /></g><g
         transform="scale(2.33152)"
         id="g3182"><path
           id="path3184"
           style="fill:#a64b2a;fill-opacity:1;fill-rule:nonzero;stroke:none"
           d="m 15463.9,15687.3 c 0,-230.9 187.2,-418 418,-418 231,0 418.1,187.1 418.1,418 0,230.9 -187.1,418.1 -418.1,418.1 -230.8,0 -418,-187.2 -418,-418.1" /></g><g
         transform="scale(2.32664)"
         id="g3186"><path
           id="path3188"
           style="fill:#d7ae9f;fill-opacity:1;fill-rule:nonzero;stroke:none"
           d="m 16300,15776 c -46.9,155.2 -182.2,275.5 -353.5,295.1 -16.1,1.9 -32.2,2.8 -48.1,2.8 -71.8,0 -140.3,-18.5 -200.2,-51.3 -2.8,4.7 -5.7,9.3 -8.6,13.9 63.6,45.6 141.6,72.4 225.7,72.4 195.4,0 357.6,-144.9 384.7,-332.9" /></g><g
         transform="scale(2.33584)"
         id="g3190"><path
           id="path3192"
           style="fill:#000000;fill-opacity:1;fill-rule:nonzero;stroke:none"
           d="m 15852.6,16045.5 c 213.5,0 387.2,-173.7 387.2,-387.2 0,-213.5 -173.7,-387.1 -387.2,-387.1 -213.5,0 -387.2,173.6 -387.2,387.1 0,213.5 173.7,387.2 387.2,387.2 m 0,-834.6 c 246.7,0 447.4,200.7 447.4,447.4 0,246.7 -200.7,447.4 -447.4,447.4 -246.7,0 -447.4,-200.7 -447.4,-447.4 0,-246.7 200.7,-447.4 447.4,-447.4" /></g><g
         transform="scale(2.30569)"
         id="g3194"><path
           id="path3196"
           style="fill:#d7a86e;fill-opacity:1;fill-rule:nonzero;stroke:none"
           d="m 15689.1,15800.8 c 0,-168.7 136.7,-305.5 305.4,-305.5 168.8,0 305.5,136.8 305.5,305.5 0,168.7 -136.7,305.4 -305.5,305.4 -168.7,0 -305.4,-136.7 -305.4,-305.4" /></g><g
         transform="scale(2.30353)"
         id="g3198"><path
           id="path3200"
           style="fill:#987853;fill-opacity:1;fill-rule:nonzero;stroke:none"
           d="m 16274.3,15696 c 0,0.7 0,1.3 0,1.8 3.3,65.5 -2.3,123 -17.2,175.8 -6.1,21.3 -21.2,59.6 -54.7,75.4 -5.2,2.5 -10.7,4.3 -16.3,5.4 -56.1,68.3 -141.2,112 -236.5,112 -10.2,0 -20.3,-0.5 -30.2,-1.5 -3.6,7.7 -7.3,15.3 -11.1,23 31.6,11.7 65.7,18.2 101.2,18.2 160.2,0 290.5,-130.3 290.5,-290.5 0,-42.6 -9.2,-83.1 -25.7,-119.6" /></g><g
         transform="scale(2.30785)"
         id="g3202"><path
           id="path3204"
           style="fill:#000000;fill-opacity:1;fill-rule:nonzero;stroke:none"
           d="m 15979.6,16075.9 c 159.9,0 289.9,-130 289.9,-289.9 0,-159.9 -130,-290 -289.9,-290 -159.9,0 -290,130.1 -290,290 0,159.9 130.1,289.9 290,289.9 m 0,-610.3 c 176.7,0 320.4,143.7 320.4,320.4 0,176.7 -143.7,320.4 -320.4,320.4 -176.7,0 -320.5,-143.7 -320.5,-320.4 0,-176.7 143.8,-320.4 320.5,-320.4" /></g><g
         transform="scale(2.39194)"
         id="g3206"><path
           id="path3208"
           style="fill:#a64b2a;fill-opacity:1;fill-rule:nonzero;stroke:none"
           d="m 15400.1,15054.3 c 0,376.9 -260.2,772.9 -636.2,962.9 -36.4,18.4 -57.7,56.5 -57.4,97.2 -0.3,59.7 50.7,185.5 -17.7,185.6 -60,0 -191.7,-96.8 -222.6,-160.7 -6,-12.5 -19.8,-19.1 -33.4,-17 -61,8.3 6.1,117.1 -53.1,114.3 -36,0 -104.9,-44.4 -146.1,-87.8 -11.7,-12.3 -27.4,-20.1 -44.4,-21.8 -564.7,-57.2 -1007,-581.3 -1007,-1072.7 34.4,-517.3 254.9,-609.6 855.4,-690.1 168.2,-22.6 338.7,-22.6 506.9,0 600.7,80.7 821,172.6 855.6,690.1" /></g><g
         transform="scale(2.25153)"
         id="g3210"><path
           id="path3212"
           style="fill:#783c27;fill-opacity:1;fill-rule:nonzero;stroke:none"
           d="m 15182.1,15272.3 c -88.6,0 -177.1,5.9 -265.1,17.7 -548.4,73.6 -773.9,158.1 -852.4,487.6 107.3,-278.3 359.1,-351.3 848.4,-416.9 89.3,-12 179.2,-18 269.1,-18 90.1,0 180.1,6 269.5,18 489.4,65.8 741.1,138.5 848.4,416.8 -78.7,-329.3 -304.2,-413.8 -852.5,-487.5 -88.1,-11.8 -176.7,-17.7 -265.4,-17.7" /></g><g
         transform="scale(2.3521)"
         id="g3214"><path
           id="path3216"
           style="fill:#d7ae9f;fill-opacity:1;fill-rule:nonzero;stroke:none"
           d="m 15588.2,15581.7 c -103.8,256.7 -311.1,488.9 -574.2,621.8 -36.3,18.3 -57.8,55.9 -58.3,96.5 11.9,-15.4 27.2,-28.2 45.2,-37.3 281.3,-142.1 498.4,-401.3 587.3,-681" /></g><g
         transform="scale(2.38776)"
         id="g3218"><path
           id="path3220"
           style="fill:#d7ae9f;fill-opacity:1;fill-rule:nonzero;stroke:none"
           d="m 13273.3,15339.6 c 121.9,401.9 510.8,743.4 943.7,787.3 23.6,2.4 45.8,13.2 62.3,30.5 40.5,42.6 99.5,77.2 123.7,79 0.3,-6.1 -0.3,-15.5 -0.7,-21.8 -0.5,-8.9 -1.3,-21 -0.1,-33.4 -36.7,-2.1 -103.3,-45.5 -143.7,-87.9 -11.7,-12.3 -27.4,-20.1 -44.4,-21.8 -434,-44 -795.9,-363.3 -940.8,-731.9 m 1189.8,726.7 c -1.5,0 -3,0.1 -4.5,0.3 l -0.5,0.1 c -19,2.7 -32.1,20.5 -28.9,39.5 1.2,7.7 2.4,15.4 3,22.7 6.1,-3.2 13.2,-5.5 21.8,-6.6 3,-0.5 6,-0.7 9,-0.7 22.9,0 44.3,12.9 54.3,33.5 12.3,25.5 48.3,62.4 91.6,93.9 48.5,35.2 88,51 105.6,51 2.4,0 3.7,-0.3 4,-0.3 0,0 0,0 0,0 5.6,-6.3 3.3,-31.7 -0.2,-55.1 -1.2,0.1 -2.4,0.2 -3.7,0.2 -60.1,0 -192.1,-97 -223.1,-161.1 -5.2,-10.9 -16.5,-17.4 -28.4,-17.4" /></g><g
         transform="scale(2.39613)"
         id="g3222"><path
           id="path3224"
           style="fill:#231f20;fill-opacity:1;fill-rule:nonzero;stroke:none"
           d="m 13187.6,15028.9 c 32.3,-482.4 215.8,-579.3 829.2,-661.6 165.4,-22.2 333.1,-22.2 498.5,0 613.4,82.4 796.9,179.3 829.4,661.6 -0.4,366.5 -255,750.8 -619.5,934.9 -45.3,22.9 -73.2,69.9 -72.8,122.7 -0.2,19.5 4.2,43.3 8.9,68.5 4.3,23.3 14.4,78 5.8,87.7 0,-0.1 -1.4,0.3 -4,0.3 -17.5,0 -56.9,-15.7 -105.2,-50.8 -43.2,-31.4 -79.1,-68.1 -91.4,-93.5 -11.2,-23.3 -37.1,-36.7 -63,-32.8 -56.8,7.9 -53.2,64.7 -51.5,92.1 0.4,6.2 1,15.6 0.6,21.7 -24.1,-1.9 -82.8,-36.3 -123.2,-78.7 -16.5,-17.3 -38.5,-28.1 -62.1,-30.5 -521.6,-52.9 -979.1,-539.5 -979.7,-1041.6 m 1078.3,-735.2 c -85.8,0 -171.5,5.7 -256.6,17.1 -307.4,41.3 -512.6,85 -651.9,186.2 -141.1,102.6 -208.9,260.8 -226.7,529.1 v 1.9 c 0,246.6 108.8,508 298.6,717.1 198.5,218.6 458.5,354.3 732.3,382.1 10,1 19.4,5.7 26.5,13.1 38,39.8 114.3,95.9 165.8,96.4 20.7,0.8 33.3,-7.4 40.3,-14.4 17.8,-18.1 16.2,-44.6 14.7,-67.9 -0.6,-9.3 -1.7,-26.3 0.6,-31.7 0.4,-0.1 1,-0.3 1.9,-0.4 l 0.5,-0.1 c 1.5,-0.2 3,0.5 3.3,1.2 33.8,69.8 172.6,176.6 247.9,176.6 25.2,0 39.9,-11.4 47.8,-20.8 25.5,-30.8 15.8,-83.5 6.4,-134.5 -4,-21.5 -8,-43.8 -8,-58.3 -0.2,-31.3 15.8,-58.6 41.6,-71.7 383.2,-193.6 650.8,-599.4 650.8,-986.7 v -1.9 c -18,-268.4 -85.8,-426.6 -226.9,-529.1 -139.1,-101.1 -344.4,-144.8 -651.9,-186.1 -85.3,-11.5 -171.1,-17.2 -257,-17.2" /></g><g
         transform="scale(2.30643)"
         id="g3226"><path
           id="path3228"
           style="fill:#d7a86e;fill-opacity:1;fill-rule:nonzero;stroke:none"
           d="m 15675.4,15885.8 c 0,228.8 -266.8,414.2 -595.8,414.2 -81.4,0 -158.9,-11.3 -229.5,-31.9 -19,-5.5 -39.2,-5.5 -58.1,0 -70.7,20.6 -148.2,31.9 -229.6,31.9 -329,0 -595.7,-185.4 -595.7,-414.2 0,-128 83.6,-242.5 214.9,-318.5 27.5,-15.9 43.7,-43.5 43.6,-73.1 v -0.5 c 0,-228.8 266.8,-414.2 595.8,-414.2 329.1,0 595.8,185.4 595.8,414.2 v 0.5 c -0.1,29.6 16.1,57.2 43.6,73.1 131.4,76 215,190.5 215,318.5" /></g><g
         transform="scale(2.30859)"
         id="g3230"><path
           id="path3232"
           style="fill:#231f20;fill-opacity:1;fill-rule:nonzero;stroke:none"
           d="m 14548.8,16269.5 c -319.8,0 -580,-178.8 -580,-398.5 0,-117.7 75.5,-228.9 207.2,-305.1 32.1,-18.5 51.3,-50.8 51.2,-86.3 0,-220.2 260.2,-399 579.9,-399 319.8,0 580.1,178.8 580.1,398.6 -0.1,35.9 19,68.1 51.1,86.7 131.7,76.2 207.2,187.4 207.2,305.1 0,219.7 -260.2,398.5 -580,398.5 -78,0 -153.7,-10.5 -225,-31.2 -21.8,-6.3 -44.8,-6.3 -66.6,0 -71.3,20.7 -147.1,31.2 -225.1,31.2 m 258.3,-1219.4 c -336.6,0 -610.4,192.5 -610.4,429.1 0,24.9 -13.4,47.3 -36,60.3 -141.3,81.8 -222.4,202.6 -222.4,331.5 0,236.5 273.9,429 610.5,429 80.9,0 159.5,-10.9 233.6,-32.4 16.2,-4.7 33.3,-4.7 49.5,0 74.1,21.5 152.7,32.4 233.6,32.4 336.6,0 610.4,-192.5 610.4,-429 0,-128.9 -81,-249.7 -222.3,-331.5 -22.6,-13 -36,-35.4 -36,-59.8 0,-237.1 -273.8,-429.6 -610.5,-429.6" /></g><g
         transform="scale(2.26618)"
         id="g3234"><path
           id="path3236"
           style="fill:#f1f2f2;fill-opacity:1;fill-rule:nonzero;stroke:none"
           d="m 15773.4,16071.9 c 0,-125.9 -102.1,-228 -228,-228 -126,0 -228.1,102.1 -228.1,228 0,126 102.1,228.1 228.1,228.1 125.9,0 228,-102.1 228,-228.1" /></g><g
         transform="scale(2.26489)"
         id="g3238"><path
           id="path3240"
           style="fill:#231f20;fill-opacity:1;fill-rule:nonzero;stroke:none"
           d="m 15554.2,15862.2 c -120.8,0 -219,98.2 -219,218.9 0,120.7 98.2,218.9 219,218.9 120.7,0 218.9,-98.2 218.9,-218.9 0,-120.7 -98.2,-218.9 -218.9,-218.9" /></g><g
         transform="scale(2.25563)"
         id="g3242"><path
           id="path3244"
           style="fill:#f1f2f2;fill-opacity:1;fill-rule:nonzero;stroke:none"
           d="m 15583.7,16233.2 c 0,-36.9 -29.9,-66.8 -66.8,-66.8 -36.9,0 -66.8,29.9 -66.8,66.8 0,36.9 29.9,66.8 66.8,66.8 36.9,0 66.8,-29.9 66.8,-66.8" /></g><g
         transform="scale(2.28076)"
         id="g3246"><path
           id="path3248"
           style="fill:#231f20;fill-opacity:1;fill-rule:nonzero;stroke:none"
           d="m 15629.5,16223.2 c 0,-25.4 -82.2,0 -183.5,0 -101.4,0 -183.5,-25.4 -183.5,0 0,25.5 82.1,76.8 183.5,76.8 101.3,0 183.5,-51.3 183.5,-76.8" /></g><g
         transform="scale(2.26529)"
         id="g3250"><path
           id="path3252"
           style="fill:#f1f2f2;fill-opacity:1;fill-rule:nonzero;stroke:none"
           d="m 14857.1,16078.3 c 0,-122.5 -102.2,-221.8 -228.2,-221.8 -126,0 -228.1,99.3 -228.1,221.8 0,122.4 102.1,221.7 228.1,221.7 126,0 228.2,-99.3 228.2,-221.7" /></g><g
         transform="scale(2.264)"
         id="g3254"><path
           id="path3256"
           style="fill:#231f20;fill-opacity:1;fill-rule:nonzero;stroke:none"
           d="m 14637.2,15874.8 c -120.7,0 -219,95.4 -219,212.6 0,117.2 98.3,212.6 219,212.6 120.8,0 219.1,-95.4 219.1,-212.6 0,-117.2 -98.3,-212.6 -219.1,-212.6" /></g><g
         transform="scale(2.25563)"
         id="g3258"><path
           id="path3260"
           style="fill:#f1f2f2;fill-opacity:1;fill-rule:nonzero;stroke:none"
           d="m 14657.2,16233.2 c 0,-36.9 -29.9,-66.8 -66.8,-66.8 -36.9,0 -66.8,29.9 -66.8,66.8 0,36.9 29.9,66.8 66.8,66.8 36.9,0 66.8,-29.9 66.8,-66.8" /></g><g
         transform="scale(2.28076)"
         id="g3262"><path
           id="path3264"
           style="fill:#231f20;fill-opacity:1;fill-rule:nonzero;stroke:none"
           d="m 14714.3,16223.2 c 0,-25.4 -82.2,0 -183.5,0 -101.4,0 -183.6,-25.4 -183.6,0 0,25.5 82.2,76.8 183.6,76.8 101.3,0 183.5,-51.3 183.5,-76.8" /></g><g
         transform="scale(2.1839)"
         id="g3266"><path
           id="path3268"
           style="fill:#231f20;fill-opacity:1;fill-rule:nonzero;stroke:none"
           d="m 15917.8,16244.3 c 0,11.2 -9,20.4 -20.3,20.5 h -0.1 c -11.2,0 -20.3,-9.1 -20.3,-20.3 -0.1,-8.3 -1.5,-19.1 -10.7,-29.1 -4.6,-5.1 -11.2,-10 -20.6,-14.3 -24.5,-11.2 -55,-12.7 -71.3,-12.6 -27.1,0.1 -52.9,10.4 -72.6,28.9 -18.6,17.4 -29.1,40.1 -29,62.1 v 0.1 0.2 c 0,0.6 -0.1,1.1 -0.2,1.6 0,0.8 -0.1,1.6 -0.2,2.4 -0.2,0.6 -0.4,1.1 -0.6,1.7 v 0.2 c -0.2,0.6 -0.3,1.3 -0.6,1.9 -0.3,0.5 -0.6,1.1 -0.9,1.6 -0.3,0.6 -0.6,1.3 -1,1.8 -0.3,0.5 -0.8,1 -1.2,1.5 -0.4,0.5 -0.8,1.1 -1.2,1.5 -0.5,0.5 -1,0.8 -1.5,1.2 -0.5,0.5 -1,1 -1.6,1.3 -0.5,0.4 -1.1,0.7 -1.6,0.9 -0.6,0.3 -1.2,0.7 -1.8,1 -0.7,0.2 -1.3,0.4 -1.9,0.6 -0.7,0.2 -1.3,0.5 -1.9,0.6 -0.7,0.1 -1.4,0.1 -2.2,0.2 -0.6,0.1 -1.2,0.2 -1.8,0.2 h -0.2 -0.1 c -0.6,0 -1.2,-0.1 -1.8,-0.2 -0.8,-0.1 -1.5,-0.1 -2.2,-0.2 -0.6,-0.1 -1.3,-0.4 -1.9,-0.6 -0.7,-0.2 -1.3,-0.4 -1.9,-0.6 -0.6,-0.3 -1.2,-0.7 -1.9,-1 -0.5,-0.3 -1.1,-0.6 -1.6,-0.9 -0.6,-0.4 -1,-0.9 -1.6,-1.3 -0.4,-0.4 -0.9,-0.8 -1.4,-1.2 -0.5,-0.5 -0.9,-1.1 -1.3,-1.6 -0.4,-0.5 -0.8,-0.9 -1.1,-1.4 -0.4,-0.5 -0.7,-1.2 -1,-1.8 -0.3,-0.6 -0.7,-1.1 -0.9,-1.6 -0.3,-0.6 -0.4,-1.3 -0.6,-1.9 l -0.1,-0.2 c -0.1,-0.6 -0.4,-1.2 -0.5,-1.7 -0.1,-0.8 -0.1,-1.6 -0.2,-2.4 -0.1,-0.5 -0.2,-1 -0.2,-1.6 v -0.2 -0.1 c 0.1,-22 -10.5,-44.7 -29,-62.1 -19.8,-18.5 -45.5,-28.8 -72.6,-28.9 -16.1,-0.2 -46.9,1.4 -71.3,12.6 -9.3,4.3 -15.9,9.2 -20.6,14.3 -9.1,10 -10.6,20.8 -10.7,29.1 0,11.2 -9.1,20.2 -20.4,20.3 -11.2,-0.1 -20.3,-9.3 -20.3,-20.5 0.2,-27.5 11.3,-50.1 32.4,-66.6 -1.9,-7.6 -2.9,-15.6 -2.9,-24 0,-86.8 105.6,-182 235.7,-182 130.2,0 235.8,95.2 235.8,182 0,8.4 -1,16.4 -2.9,24 21.2,16.5 32.2,39.1 32.4,66.6" /></g><g
         transform="scale(2.15799)"
         id="g3270"><path
           id="path3272"
           style="fill:#ed1c24;fill-opacity:1;fill-rule:nonzero;stroke:none"
           d="m 15924.4,16245.3 c 0,33.7 -37.6,54.7 -83.9,54.7 -46.4,0 -84,-17.6 -84,-51.3 0,-33.7 37.6,-52.4 84,-52.4 46.3,0 83.9,15.3 83.9,49" /></g><g
         transform="scale(2.15658)"
         id="g3274"><path
           id="path3276"
           style="fill:#f68e92;fill-opacity:1;fill-rule:nonzero;stroke:none"
           d="m 15850.9,16262.2 c -17.4,0 -31.5,7.8 -31.5,18.3 0,10.4 14.1,19.5 31.5,19.5 17.4,0 31.5,-10.1 31.5,-20.6 0,-10.5 -14.1,-17.2 -31.5,-17.2" /></g><g
         transform="scale(2.21023)"
         id="g3278"><path
           id="path3280"
           style="fill:#3c2415;fill-opacity:1;fill-rule:nonzero;stroke:none"
           d="m 15614.2,16249.9 c 0,-50.1 -66.3,-135.3 -148.1,-135.3 -81.8,0 -148.1,85.2 -148.1,135.3 0,50.1 66.3,46.1 148.1,46.1 81.8,0 148.1,4 148.1,-46.1" /></g><g
         transform="scale(2.21191)"
         id="g3282"><path
           id="path3284"
           style="fill:#231f20;fill-opacity:1;fill-rule:nonzero;stroke:none"
           d="m 15422.5,16267.8 c -42.9,0 -81.3,-1.2 -94.7,-14.6 -2.4,-2.3 -5.5,-6.5 -5.5,-15.6 0,-39.8 57.1,-119.4 132,-119.4 75,0 132.1,79.6 132.1,119.4 0,9.1 -3.1,13.3 -5.5,15.6 -14.9,14.9 -61,14.8 -109.8,14.6 h -16.8 -16.7 c -5.1,0 -10.1,0 -15.1,0 z m 31.8,-181.4 c -90.4,0 -163.8,91.5 -163.8,151.2 0,15.5 5,28.4 14.8,38.2 24.3,24.2 72,24 132.4,23.8 h 16.6 16.7 c 60.4,0.2 108.1,0.4 132.4,-23.8 9.8,-9.8 14.8,-22.7 14.8,-38.2 0,-59.7 -73.4,-151.2 -163.9,-151.2" /></g><g
         transform="scale(2.32302)"
         id="g3286"><path
           id="path3288"
           style="fill:#a64b2a;fill-opacity:1;fill-rule:nonzero;stroke:none"
           d="m 15254.3,14830.2 c 0,0 278.2,-427.9 301.7,-418.5 119.9,48.1 356.4,123.8 519.6,221.4 104.3,62.4 174.7,168.2 191.6,288.6 32.8,232.2 12.1,589.2 -228.2,523.9 -55.6,-15.8 -100.7,-58.9 -102.9,-127.1 -6,-75.8 -6.5,-219.2 -31,-328.7 l -650.8,-159.6" /></g><g
         transform="scale(2.31389)"
         id="g3290"><path
           id="path3292"
           style="fill:#7e3e27;fill-opacity:1;fill-rule:nonzero;stroke:none"
           d="m 15665.1,14487.7 -47.8,131.1 c 3.1,1.2 6.2,1.8 9.3,1.8 13.6,0 27.7,-10.3 42.9,-20.7 15.2,-10.3 31.5,-20.6 49.4,-20.6 5.2,0 10.6,0.9 16.2,3 123.2,45.6 279.8,104.9 398,175.6 76.2,45.5 134.3,114.2 166.9,194.9 -22.8,-100.2 -85.1,-186.4 -174.3,-239.7 -122.4,-73.2 -290.5,-135.4 -413.2,-180.7 -17,-6.3 -33.3,-12.4 -48.7,-18.1 l 8.9,-23.7 c -2.5,-1 -5.1,-2 -7.6,-2.9" /></g><g
         transform="scale(2.26642)"
         id="g3294"><path
           id="path3296"
           style="fill:#7e3e27;fill-opacity:1;fill-rule:nonzero;stroke:none"
           d="m 16300,15260.7 -23.4,27.4 c -6.3,10 -17,16.5 -28.8,17.5 l -47.7,4.3 c 42.8,10.5 77,19.3 96.5,24.9 l 3.4,-74.1" /></g><g
         transform="scale(2.27173)"
         id="g3298"><path
           id="path3300"
           style="fill:#231f20;fill-opacity:1;fill-rule:nonzero;stroke:none"
           d="m 16259.4,15226.8 -12.9,94.8 c -0.6,12.6 8.6,24 21.1,24.9 l 32.4,31 -8.8,-61 -19.8,-91.3 c -2.1,-6.5 -11.7,-5.2 -12,1.6" /></g><g
         transform="scale(2.31609)"
         id="g3302"><path
           id="path3304"
           style="fill:#ce9c8a;fill-opacity:1;fill-rule:nonzero;stroke:none"
           d="m 16300,15204.3 c -0.1,0.7 -0.2,1.5 -0.3,2.2 0,0.1 0.1,0.1 0.1,0.1 0.1,-0.8 0.2,-1.5 0.2,-2.3" /></g><g
         transform="scale(2.3289)"
         id="g3306"><path
           id="path3308"
           style="fill:#231f20;fill-opacity:1;fill-rule:nonzero;stroke:none"
           d="m 15580.9,14372.5 c 15.2,5.6 31.3,11.6 48.2,17.9 123.8,45.7 293.4,108.4 419.1,183.6 111.3,66.6 185.5,178.2 203.5,306.5 9.2,65.4 48.3,397.9 -88.9,518.9 -45.2,39.8 -102.7,50.6 -171,32.1 -72.6,-20.6 -119.1,-78.1 -121.7,-150.2 -1.5,-19.7 -2.7,-43.1 -4,-70.2 -3.6,-73.5 -8.1,-164 -23.5,-240.4 -55.8,-20.1 -624.7,-148.1 -640,-153.8 l 17.8,-48.3 c 14.2,5.2 627.7,146.5 655.8,160.1 7.1,3.5 12.2,9.9 13.9,17.6 18.6,83.3 23.5,182.5 27.5,262.2 1.3,27 2.4,50.2 4,69.3 0,0.4 0,0.8 0,1.2 2.3,72 59.5,95.9 84,102.8 50.9,13.9 91.3,7 123.2,-21.1 85.1,-75.1 97.5,-291.7 71.9,-473 -15.9,-112.8 -81.1,-211 -178.9,-269.4 -121.7,-72.8 -288.6,-134.5 -410.5,-179.6 -17,-6.3 -33.2,-12.3 -48.4,-18 l 18,-48.2" /></g><g
         transform="scale(2.22893)"
         id="g3310"><path
           id="path3312"
           style="fill:#231f20;fill-opacity:1;fill-rule:nonzero;stroke:none"
           d="m 16243.1,15030.1 -44,132.1 c -3.5,10.6 3.9,21.6 15,22.4 6.6,0.5 13,-2.9 16.2,-8.7 l 69.7,-126.8 -56.9,-19" /></g><g
         transform="scale(2.35887)"
         id="g3314"><path
           id="path3316"
           style="fill:#231f20;fill-opacity:1;fill-rule:nonzero;stroke:none"
           d="m 15515.6,15342 c -4.7,-0.8 -8.7,-2.5 -12,-4.8 -14.2,-10.3 -15.9,-34.8 -13,-52.6 5.9,-37.1 26.6,-74.5 63.2,-114.4 15.8,-17.2 33.4,-33.8 50.5,-49.9 18,-17 36.6,-34.6 53.9,-53.5 11.8,-12.9 23.1,-26.5 34,-39.7 31.2,-37.7 60.7,-73.4 100.6,-92.4 27.8,-13.3 60.8,-17.6 92.8,-11.9 12,2.1 23.7,5.6 34.8,10.3 40.2,17.2 73.5,51.1 91.5,93.1 1.3,3.1 2.6,6.3 3.9,9.5 6.4,16 13.5,34 28.5,48.2 17.6,16.6 40.1,22.3 57.8,25.5 5.7,1 11.2,1.8 16.6,2.5 4.9,0.7 9.4,1.4 13.8,2.1 l 0.9,0.2 c 28.8,5.1 56.6,16.6 80.5,33.4 15.8,11.1 30.9,29 26.7,42.1 -0.4,1 -0.9,2.1 -1.5,3.2 -2.7,4.4 -8,8.3 -14.2,10.6 -0.8,0.3 -1.6,0.5 -2.4,0.8 -9.1,2.5 -20.3,2.5 -35.4,-0.2 l -1.3,-0.2 c -26.9,-4.9 -52.4,-14.7 -75.7,-29 l -2.1,-1.3 c -8.3,-5.2 -18.7,-11.6 -31.5,-13.9 -3.6,-0.6 -7.3,-0.9 -11,-0.8 -33.7,1.2 -51.1,33 -58.5,46.5 -3.8,6.9 -10.9,19.9 -8.7,35.3 1.7,12.1 8.3,20.9 14.5,28 17.3,19.6 34.9,36.1 53.6,53.7 l 8.4,8 c 21.4,20.1 37.9,44.4 44.4,65 5.9,18.7 0.8,42.6 -11.5,54.3 -6.1,5.8 -13.3,7.8 -22,6.2 -2.5,-0.4 -5.3,-1.2 -8,-2.2 -14.7,-5.5 -27.4,-19.1 -38.9,-33 -25.3,-30.6 -47.5,-64 -65.9,-99.3 l -1.6,-3.2 c -8.2,-15.7 -17.4,-33.6 -34.4,-46.5 -8.1,-6.2 -18.3,-10.6 -28.7,-12.4 -20.3,-3.6 -38.8,2.3 -51,16.1 -15.6,17.8 -14.5,41.1 -13.7,56.6 3,58.5 -2,109.5 -15.1,155.8 -6,21.5 -16.2,37.5 -27.1,42.6 -4,1.9 -8.7,2.4 -14,1.5 -8.9,-1.6 -18.2,-7.1 -24.3,-14.3 -15.2,-18 -20.6,-40.4 -22.5,-56.1 -5.1,-42.6 0.3,-91.2 15.8,-140.6 0.8,-2.7 1.7,-5.5 2.6,-8.3 7,-21.6 14.9,-46 9.7,-72.4 -4.2,-21 -19.6,-40.4 -39.2,-49.4 -4.7,-2.2 -9.6,-3.7 -14.3,-4.5 -11.9,-2.1 -23.6,-0.1 -34,5.7 -13.8,7.7 -21.5,20.4 -27.3,29.7 l -0.5,0.9 c -19.9,32.3 -44,61.9 -71.6,87.9 -11.7,11.1 -25.8,23.2 -41.5,28.9 l 2.2,7.3 -2.6,-7.2 c -8.1,2.9 -16.7,3.8 -24.2,2.5 m 378.7,-467.5 c -36,-6.3 -72.6,-3.3 -105.8,8.8 -5.8,2.1 -11.5,4.5 -16.9,7.1 -49.6,23.7 -84,65.2 -117.2,105.4 -10.6,12.8 -21.5,25.9 -32.4,37.9 -16.1,17.6 -34,34.5 -51.4,50.9 -17.7,16.6 -36,33.9 -53,52.4 -43.3,47.2 -68,93 -75.5,139.8 -6.8,43 5.5,80.4 32.8,100.2 9.4,6.7 20.2,11.3 32.3,13.4 15.8,2.8 32.8,1.2 49.1,-4.7 24.8,-8.9 44.6,-25.8 59.1,-39.4 30.8,-29 57.6,-62 79.7,-98 l 0.6,-0.9 c 3.2,-5.2 6.8,-11.1 9.5,-12.7 0.2,0 0.5,-0.2 1.4,-0.1 0.7,0.2 1.4,0.4 2.3,0.8 5.3,2.5 10.4,8.8 11.5,14.5 2.8,13.8 -2.5,30.2 -8.2,47.6 -0.9,2.9 -1.9,5.8 -2.8,8.8 -17.5,55.9 -23.6,111.6 -17.6,161.1 3.8,32 15.5,60.3 33.7,81.9 13.4,15.9 33.4,27.5 53.4,31 15.1,2.7 30.1,0.8 43.4,-5.5 32.7,-15.4 47.5,-52.8 53.4,-73.7 14.5,-51.5 20,-107.6 16.8,-171.6 -0.3,-6.6 -0.9,-18.9 1.5,-21.7 0.4,-0.3 2.5,-0.8 5.7,-0.3 2.7,0.5 5.4,1.7 7.5,3.3 8.2,6.2 14.2,17.7 20.5,30 l 1.7,3.2 c 19.9,38.4 44,74.7 71.6,108 15.9,19.1 34,38.1 59.4,47.6 5.7,2.2 11.4,3.7 16.9,4.7 24.3,4.3 46.5,-2.2 64.1,-18.9 25.7,-24.3 36,-68.4 24.6,-104.7 -8.8,-28.2 -30.3,-60.4 -57.4,-86 l -8.6,-8 c -17.9,-16.8 -34.6,-32.6 -50.3,-50.4 -1,-1.1 -1.6,-1.9 -2.1,-2.5 0.5,-1 1.2,-2.6 2.4,-4.8 10.9,-19.8 16.3,-21 17.2,-21 0.1,0 0.4,0 0.8,0 3.5,0.7 9.1,4.2 14.1,7.3 l 2.2,1.4 c 28.6,17.5 59.8,29.5 92.7,35.5 l 1.8,0.3 c 14.1,2.5 35.5,5.1 57.1,-1 19.1,-5.4 35.4,-17.4 45,-32.9 2.7,-4.4 4.9,-9 6.4,-13.9 12.7,-39.3 -15,-76 -45.2,-97.2 -29.7,-20.9 -64.4,-35.3 -100.2,-41.7 l -1.1,-0.2 c -5.1,-0.8 -10.2,-1.6 -15.1,-2.3 -5.2,-0.7 -10.3,-1.4 -15.2,-2.3 -11.5,-2 -24.4,-5.1 -32.4,-12.8 -7.2,-6.8 -11.8,-18.3 -16.7,-30.5 -1.4,-3.6 -2.9,-7.3 -4.4,-10.8 -22.8,-53.5 -65.6,-96.8 -117.3,-118.9 -14.5,-6.2 -29.8,-10.7 -45.4,-13.5 v 0" /></g><g
         transform="scale(2.3549)"
         id="g3318"><path
           id="path3320"
           style="fill:#c49a6c;fill-opacity:1;fill-rule:nonzero;stroke:none"
           d="m 16287.4,15231.4 c -6.7,10.8 -18.4,18.6 -30.8,22.1 -15.5,4.4 -32.1,3.1 -47.9,0.2 -29.8,-5.4 -58.6,-16.5 -84.3,-32.3 -9.6,-5.9 -19.7,-12.8 -30.9,-12.4 -17.8,0.7 -29.4,18.3 -38,33.8 -3.4,6.3 -6.9,13.1 -5.9,20.1 0.9,5.9 4.7,10.8 8.7,15.3 19.1,21.7 39.5,40.3 60.5,60.2 21,19.8 42.3,48 51,75.5 14.5,46.2 -16,110.5 -73.7,88.8 -20.1,-7.5 -35.5,-23.8 -49.1,-40.3 -26.6,-32.1 -49.8,-66.9 -69,-103.9 -7.8,-15.1 -15.5,-31.2 -29.1,-41.5 -13.6,-10.3 -35.2,-12.4 -46.5,0.4 -9,10.2 -8.3,25.5 -7.6,39.2 2.8,55.5 -0.9,110.5 -16,164 -6.5,22.7 -19,48.2 -40.4,58.2 -22.8,10.8 -51.3,0.1 -67.6,-19.2 -16.3,-19.2 -25.1,-44 -28.1,-69.1 -6.1,-50.3 1.5,-102.7 16.6,-151.1 7,-22.4 16.3,-45.6 11.7,-68.6 -4.6,-23.1 -30.9,-43.3 -51.4,-31.8 -8.5,4.8 -13.8,13.8 -19,22.2 -21,34.1 -46.5,65.5 -75.7,93 -15,14.1 -31.3,27.4 -50.6,34.3 -19.3,6.9 -42.3,6.5 -58.9,-5.5 -22.8,-16.5 -27.4,-48.8 -23,-76.5 7.7,-48.5 36.3,-91.2 69.5,-127.3 33.1,-36.2 71.4,-67.3 104.5,-103.5 45,-49.2 82.3,-109.3 142.4,-138 45.9,-22 101.3,-22 148.1,-2 46.8,20 84.5,59.4 104.6,106.1 7.4,17.5 13,36.6 26.8,49.6 19.5,18.5 49.1,19.3 75.5,23.9 32.8,5.6 64.3,18.6 91.6,37.7 22.9,16.2 44.6,43.1 36,69.8 -1,3 -2.4,5.9 -4,8.6" /></g><g
         transform="scale(2.24149)"
         id="g3322"><path
           id="path3324"
           style="fill:#231f20;fill-opacity:1;fill-rule:nonzero;stroke:none"
           d="m 16300,16014 c -5.7,9.7 -10.8,19.7 -15.1,30 -0.2,1.7 -0.4,3.4 -0.6,5.2 4.2,-12.1 9.5,-23.8 15.7,-35.2" /></g><g
         transform="scale(2.35331)"
         id="g3326"><path
           id="path3328"
           style="fill:#8c6f51;fill-opacity:1;fill-rule:nonzero;stroke:none"
           d="m 15891.3,14937.8 c -26.1,0 -52.1,5.5 -75.6,16.7 -60.2,28.8 -97.5,88.9 -142.5,138.1 -33.1,36.2 -71.4,67.4 -104.6,103.6 -16.1,17.5 -31,36.5 -43.1,56.9 -5.9,10.8 -10.9,22 -14.9,33.5 -0.7,6.1 -0.9,12.4 -0.5,18.6 13.2,-29.8 33.3,-56.9 55.5,-81 33.2,-36.2 71.5,-67.4 104.6,-103.6 45,-49.2 82.3,-109.3 142.4,-138.1 23.6,-11.2 49.6,-16.8 75.7,-16.8 24.8,0 49.7,5 72.6,14.8 46.8,20.1 84.6,59.4 104.6,106.3 7.5,17.4 13.1,36.5 26.8,49.6 19.5,18.5 49.2,19.3 75.6,23.8 32.8,5.6 64.4,18.7 91.6,37.8 11.4,8 22.4,18.6 29.7,30.5 3.9,-2 7.5,-4.5 10.8,-7.3 -3,-20.1 -19.8,-38.8 -37.4,-51.1 -27.3,-19.2 -58.8,-32.2 -91.7,-37.9 -26.5,-4.5 -56,-5.3 -75.5,-23.8 -13.8,-13 -19.4,-32.2 -26.9,-49.6 -20,-46.8 -57.8,-86.2 -104.6,-106.3 -22.8,-9.7 -47.7,-14.7 -72.6,-14.7" /></g><g
         transform="scale(2.35288)"
         id="g3330"><path
           id="path3332"
           style="fill:#231f20;fill-opacity:1;fill-rule:nonzero;stroke:none"
           d="m 16300,15246.5 c -0.3,0.4 -0.6,0.8 -0.9,1.2 0.1,0.2 0.1,0.3 0.1,0.5 0.3,-0.6 0.5,-1.1 0.8,-1.7" /></g><g
         transform="scale(2.35309)"
         id="g3334"><path
           id="path3336"
           style="fill:#8c6f51;fill-opacity:1;fill-rule:nonzero;stroke:none"
           d="m 16300,15241.6 c -0.9,1 -1.8,2.1 -2.8,3.1 0.2,0.6 0.4,1.1 0.5,1.7 0.3,-0.4 0.6,-0.8 0.9,-1.2 0.5,-1.2 1,-2.4 1.4,-3.6" /></g><g
         transform="scale(2.2386)"
         id="g3338"><path
           id="path3340"
           style="fill:#231f20;fill-opacity:1;fill-rule:nonzero;stroke:none"
           d="m 16300,16081.1 c -2.9,9 -5.2,18.2 -6.7,27.7 -1.1,6.8 -1.7,13.8 -1.6,20.8 1.2,-5.7 2.7,-11.2 4.4,-16.7 0.1,-3 0.5,-6.1 0.9,-9 0.2,-5 0.7,-9.9 1.5,-14.6 0.4,-2.8 0.9,-5.5 1.5,-8.2" /></g><g
         transform="scale(2.23818)"
         id="g3342"><path
           id="path3344"
           style="fill:#8c6f51;fill-opacity:1;fill-rule:nonzero;stroke:none"
           d="m 16300,16106.8 c -0.4,3 -0.8,6 -0.9,9.1 0.2,-0.9 0.5,-1.8 0.8,-2.7 0,-2.1 0,-4.3 0.1,-6.4" /></g><g
         transform="scale(2.33547)"
         id="g3346"><path
           id="path3348"
           style="fill:#a7a5a6;fill-opacity:1;fill-rule:nonzero;stroke:none"
           d="m 16290,15506 c 0.1,1.9 0.2,3.8 0.2,5.7 3.7,6.2 7.1,12.5 9.8,18.8 -2.5,-7.7 -5.8,-15.9 -10,-24.5" /></g><g
         transform="scale(2.33823)"
         id="g3350"><path
           id="path3352"
           style="fill:#e7d7c4;fill-opacity:1;fill-rule:nonzero;stroke:none"
           d="m 16093.3,15461.9 c -0.3,0 0,0.7 0.8,2.3 20.7,36.5 45.2,70.7 73,102.1 14.4,16.1 30.5,32 51,38.9 5.5,1.8 11.1,2.7 16.6,2.7 34.4,0 65.3,-35.3 46.1,-95.7 -2.8,-6.3 -6.1,-12.6 -9.8,-18.8 1.9,67.3 -17.1,93.4 -42.8,93.4 -4.9,0 -10.1,-0.9 -15.3,-2.7 -20.5,-6.9 -33.6,-23.8 -48,-40 -25,-28.1 -68.9,-82.2 -71.6,-82.2" /></g><g
         transform="scale(2.35269)"
         id="g3354"><path
           id="path3356"
           style="fill:#e7d7c4;fill-opacity:1;fill-rule:nonzero;stroke:none"
           d="m 16122.3,15198.2 c -0.3,0 -0.6,0 -0.9,0 -17.8,0.6 -31.6,12.4 -40.1,28 -3.4,6.2 -7,13 -6,20.1 0.1,0.5 0.2,1.1 0.4,1.6 8.3,-14.7 19.6,-30 36.1,-30.6 0.3,0 0.7,0 1,0 10.8,0 20.6,6.6 29.9,12.4 25.9,15.9 54.7,26.9 84.4,32.4 8.6,1.5 17.3,2.6 25.9,2.6 7.5,0 14.9,-0.8 22.1,-2.9 9.3,-2.6 18.2,-7.6 24.9,-14.5 -1.4,-5.1 -3.7,-10 -6.5,-14.7 -3.5,1.8 -7.2,3.2 -11,4.3 -7.2,2 -14.6,2.9 -22.1,2.9 -8.6,0 -17.3,-1.1 -25.8,-2.7 -29.9,-5.5 -56.5,-10.7 -82.3,-26.6 -9.4,-5.7 -19.1,-12.3 -30,-12.3" /></g><g
         transform="scale(2.35442)"
         id="g3358"><path
           id="path3360"
           style="fill:#a7a5a6;fill-opacity:1;fill-rule:nonzero;stroke:none"
           d="m 16299.8,15205.8 c -1,1.4 -2.1,2.8 -3.3,4.1 0.4,5.3 -0.1,10.7 -1.8,16 -0.3,1.1 -0.7,2.2 -1.2,3.3 0.1,-0.2 0.3,-0.5 0.5,-0.7 1.6,-2.7 2.9,-5.6 3.9,-8.6 1.5,-4.7 2.1,-9.4 1.9,-14.1" /></g><g
         transform="scale(2.35398)"
         id="g3362"><path
           id="path3364"
           style="fill:#e7d7c4;fill-opacity:1;fill-rule:nonzero;stroke:none"
           d="m 16299.5,15212.8 c -1.2,1.4 -2.6,2.8 -4.1,4 0.9,6.2 0.6,12.5 -1.5,18.7 0,0.1 0,0.2 -0.1,0.3 1,-1.2 1.9,-2.5 2.8,-3.7 0.4,-1.1 0.8,-2.2 1.2,-3.3 1.7,-5.4 2.2,-10.7 1.7,-16" /></g><g
         transform="scale(2.35344)"
         id="g3366"><path
           id="path3368"
           style="fill:#d1c5b9;fill-opacity:1;fill-rule:nonzero;stroke:none"
           d="m 16299.1,15220.3 c -3.3,2.9 -7,5.3 -10.9,7.4 2.9,4.7 5.1,9.6 6.6,14.7 1,-1 1.9,-2.1 2.7,-3.2 0.1,0 0.1,-0.1 0.1,-0.2 2.1,-6.3 2.4,-12.6 1.5,-18.7" /></g><g
         transform="scale(2.26854)"
         id="g3370"><path
           id="path3372"
           style="fill:#e7d7c4;fill-opacity:1;fill-rule:nonzero;stroke:none"
           d="m 16299.8,15828.8 c -2,0 -43.4,45.4 -71.3,71.8 -15.5,14.6 -32.4,28.4 -52.5,35.6 -8.4,3 -17.5,4.6 -26.4,4.6 -12.5,0 -24.7,-3.1 -34.7,-10.4 -16.7,-12 -24,-32.3 -25.3,-53.4 -2.9,6.8 -5.6,13.6 -7.8,20.6 0.2,22.8 7.3,45.6 25.4,58.7 10,7.2 22.2,10.4 34.7,10.4 8.9,0 18,-1.6 26.4,-4.6 20.1,-7.2 37,-21 52.5,-35.6 30.3,-28.6 56.9,-61.2 78.7,-96.7 0.4,-0.6 0.5,-1 0.3,-1" /></g><g
         transform="scale(2.23973)"
         id="g3374"><path
           id="path3376"
           style="fill:#a7a5a6;fill-opacity:1;fill-rule:nonzero;stroke:none"
           d="m 16300,16044.5 c -3.5,9.2 -6.3,18.7 -8.3,28.4 1.8,-5.5 3.8,-10.9 6,-16.3 0.1,-0.6 0.2,-1.1 0.3,-1.7 0.6,-3.5 1.2,-7 2,-10.4" /></g><g
         transform="scale(2.23942)"
         id="g3378"><path
           id="path3380"
           style="fill:#a7a5a6;fill-opacity:1;fill-rule:nonzero;stroke:none"
           d="m 16300,16058.9 c -2.2,5.3 -4.2,10.7 -6,16.3 -0.6,2.7 -1.1,5.4 -1.5,8.1 -0.8,4.8 -1.3,9.7 -1.5,14.7 0.1,-0.8 0.2,-1.5 0.3,-2.2 1.8,-10.9 4.5,-21.5 8.1,-31.8 0.2,-1.7 0.4,-3.4 0.6,-5.1" /></g><g
         transform="scale(2.23933)"
         id="g3382"><path
           id="path3384"
           style="fill:#d1c5b9;fill-opacity:1;fill-rule:nonzero;stroke:none"
           d="m 16300,16064.6 c -3.6,10.4 -6.3,21 -8,31.8 -0.1,0.7 -0.3,1.4 -0.4,2.2 0,2.1 -0.1,4.2 0,6.3 2.2,-7 4.9,-14 7.9,-20.8 -0.4,-6.5 -0.2,-13 0.5,-19.5" /></g><g
         transform="scale(2.27724)"
         id="g3386"><path
           id="path3388"
           style="fill:#a7a5a6;fill-opacity:1;fill-rule:nonzero;stroke:none"
           d="m 16300,15843.8 c -0.7,2.2 -1.4,4.3 -2.1,6.5 -9.4,30.1 -16,61.9 -18.4,93.7 2.5,-22.6 7,-45.1 13,-66.9 2.1,-11.2 4.6,-22.3 7.5,-33.3" /></g><g
         transform="scale(2.29467)"
         id="g3390"><path
           id="path3392"
           style="fill:#e7d7c4;fill-opacity:1;fill-rule:nonzero;stroke:none"
           d="m 16168.7,15756.5 c -6,21.6 -10.5,43.9 -12.9,66.3 -1.6,20.8 -1.3,41.7 1.1,62.2 3.1,25.6 12.3,51.1 29,70.8 12.1,14.4 30.9,24.2 49.3,24.2 6.8,0 13.7,-1.4 20,-4.4 22,-10.4 34.9,-36.5 41.4,-59.8 1.3,-4.3 2.4,-8.5 3.4,-12.8 -7.3,19.5 -19.2,38.5 -37.2,47 -6.3,3 -13.2,4.4 -20.1,4.4 -18.3,0 -37.1,-9.8 -49.2,-24.1 -16.7,-19.8 -25.9,-45.2 -28.9,-70.9 -4.1,-34 -2.1,-68.9 4.1,-102.9" /></g><g
         transform="scale(2.35764)"
         id="g3394"><path
           id="path3396"
           style="fill:#231f20;fill-opacity:1;fill-rule:nonzero;stroke:none"
           d="m 16236,15218.6 c 7.8,-2.8 14.4,-7.8 18.1,-13.8 v 0 c 0.9,-1.6 1.7,-3.2 2.3,-4.9 5.8,-17.9 -12.4,-38.5 -29.7,-50.6 -25,-17.7 -54.3,-29.7 -84.5,-34.9 -4.5,-0.8 -9.1,-1.4 -14,-2.1 -23.6,-3.4 -50.4,-7.2 -70.3,-26.1 -13.7,-13 -20.5,-30.2 -26.6,-45.3 -1.3,-3.3 -2.6,-6.6 -4,-9.9 -18.7,-43.7 -53.6,-79.1 -95.6,-97.1 -43.1,-18.5 -93.2,-17.8 -134,1.7 -41.4,19.8 -71.4,56.1 -103.1,94.5 -10.9,13.1 -22.2,26.7 -33.8,39.5 -17.1,18.7 -35.7,36.2 -53.6,53.1 -17.1,16.1 -34.9,32.9 -50.9,50.3 -37.7,41 -59,79.8 -65.2,118.4 -3.3,20.9 -0.8,47.7 16.2,60 10.7,7.7 27.3,9 43.2,3.3 l 0.4,-0.1 c 17,-6.2 31.9,-18.9 44.2,-30.5 28.1,-26.5 52.6,-56.6 72.9,-89.5 l 0.6,-0.9 c 5.5,-9.1 12.4,-20.4 24.5,-27.1 12.5,-7.1 27.2,-7.4 41.3,-0.9 17.5,8 31.2,25.3 34.9,44 4.9,24.4 -2.7,47.9 -9.4,68.5 -0.9,2.9 -1.8,5.7 -2.7,8.4 -15.8,50.5 -21.3,100.2 -16,143.9 2,16.7 7.8,40.7 24.2,60.1 11.1,13.1 31.8,22.2 47.4,14.9 13.1,-6.2 24.5,-23.5 31.3,-47.5 13.3,-47.2 18.3,-99 15.3,-158.4 -0.7,-15.1 -1.8,-35.7 11.9,-51.2 18,-20.5 50,-17.3 69.3,-2.6 15.7,11.9 24.5,28.9 32.3,43.9 l 1.6,3.2 c 18.6,35.8 41.1,69.7 66.9,100.7 12.1,14.7 25.7,29.2 42,35.3 15.2,5.7 28,3.9 37.9,-5.5 14.6,-13.8 20.4,-40.6 13.6,-62.3 -6.8,-21.7 -24.2,-47.2 -46.4,-68.2 l -8.5,-8 c -18.5,-17.5 -36.1,-34 -53.1,-53.3 -5.7,-6.5 -11.2,-13.9 -12.7,-24 -1.8,-12.9 4.2,-24 7.9,-30.6 6.8,-12.4 22.7,-41.5 52.1,-42.5 15.5,-0.6 28.1,7.2 38.2,13.5 l 2.1,1.3 c 24.2,14.9 50.5,25 78.4,30.1 16.9,3.1 29.7,3.1 40.2,0.2 1,-0.3 1.9,-0.6 2.9,-1 z m -436.7,-320.3 c 46.1,-16.8 99.4,-15.4 145.7,4.5 49.9,21.4 91.3,63.3 113.4,114.9 1.5,3.5 2.9,7.1 4.3,10.7 5.2,13 10.2,25.3 18.5,33.3 12.1,11.4 31.4,14.1 51.8,17.1 4.9,0.7 9.9,1.4 14.9,2.2 35.2,6.1 69.2,20.1 98.3,40.6 28,19.7 53.8,53.3 42.3,88.7 -1.3,4.3 -3.2,8.4 -5.6,12.3 -8.6,13.8 -23.3,24.6 -40.5,29.5 -20.6,5.9 -41.6,3.1 -55.6,0.6 -32,-5.9 -62.3,-17.5 -90,-34.6 l -2.2,-1.3 c -6.8,-4.3 -13.9,-8.7 -19.2,-8.5 -9.1,0.3 -17.8,14.4 -23.7,25 -1,1.9 -4.2,7.7 -3.9,9.5 0,0.5 0.8,2.2 4.5,6.5 16,18.1 33,34 50.9,50.9 l 8.6,8.1 c 26.2,24.7 46.9,55.7 55.4,82.7 10.6,33.8 1.1,74.5 -22.6,96.9 -19.6,18.6 -45.5,23 -73.1,12.7 -23.7,-8.9 -41,-27.1 -56.2,-45.4 -27.3,-32.9 -51.1,-68.8 -70.8,-106.7 l -1.7,-3.2 c -6.7,-13 -13.1,-25.3 -22.6,-32.6 -7.7,-5.8 -19.3,-6.8 -23.6,-1.9 -4.5,5.1 -3.9,16.8 -3.4,27.1 3.2,63.1 -2.2,118.5 -16.6,169.3 -5.5,19.6 -19.3,54.7 -49.3,68.9 -31.8,15 -68.2,-0.5 -87.7,-23.6 -17.3,-20.5 -28.4,-47.4 -32,-77.9 -5.9,-48.4 0.1,-103.1 17.3,-158.1 0.9,-2.9 1.9,-5.8 2.8,-8.7 6,-18.4 11.6,-35.7 8.4,-51.4 -1.6,-8.1 -8.2,-16.5 -15.8,-20 -4.1,-1.9 -7.7,-2 -10.6,-0.3 -4.4,2.4 -8.3,8.7 -12.3,15.3 l -0.6,0.9 c -21.8,35.4 -48.2,67.9 -78.5,96.4 -14.9,14.1 -33.5,29.6 -56.4,37.9 -26.7,9.5 -54.5,6.6 -74.5,-7.8 -24.9,-18 -36,-52.7 -29.7,-92.8 7.3,-45.3 31.3,-89.8 73.6,-135.9 16.9,-18.3 35.1,-35.5 52.7,-52.1 17.5,-16.4 35.5,-33.5 51.8,-51.2 11.1,-12.2 22.1,-25.5 32.7,-38.3 32.7,-39.5 66.5,-80.4 114.6,-103.4 5.3,-2.5 10.7,-4.8 16.2,-6.8" /></g><g
         transform="scale(2.29626)"
         id="g3398"></g></g></g></svg>