<?xml version="1.0" encoding="UTF-8" standalone="no"?>
<svg
   xmlns:dc="http://purl.org/dc/elements/1.1/"
   xmlns:cc="http://creativecommons.org/ns#"
   xmlns:rdf="http://www.w3.org/1999/02/22-rdf-syntax-ns#"
   xmlns:svg="http://www.w3.org/2000/svg"
   xmlns="http://www.w3.org/2000/svg"
   viewBox="0 0 5333.3335 4000"
   height="4000"
   width="5333.3335"
   xml:space="preserve"
   id="svg2"
   version="1.1"><metadata
     id="metadata8"><rdf:RDF><cc:Work
         rdf:about=""><dc:format>image/svg+xml</dc:format><dc:type
           rdf:resource="http://purl.org/dc/dcmitype/StillImage" /></cc:Work></rdf:RDF></metadata><defs
     id="defs6" /><g
     transform="matrix(1.3333333,0,0,-1.3333333,0,4000)"
     id="g10"><g
       transform="scale(0.1)"
       id="g12"><g
         transform="scale(2.45399)"
         id="g14"></g><g
         transform="scale(1.16267)"
         id="g796"></g><g
         transform="scale(1.13423)"
         id="g800"></g><g
         transform="scale(1.20667)"
         id="g804"></g><g
         transform="scale(2.38175)"
         id="g1494"><path
           id="path1496"
           style="fill:#231f20;fill-opacity:1;fill-rule:nonzero;stroke:none"
           d="m 16300,7594.15 h -126.9 l -114.1,558.87 h -1005.1 l -114.2,-558.87 h -126.8 l 277.3,1357.88 118.4,-41.65 -125.3,-613.26 h 946.2 l -125.2,613.26 118.4,41.65 277.3,-1357.88" /></g><g
         transform="scale(2.378)"
         id="g1498"><path
           id="path1500"
           style="fill:#807e7f;fill-opacity:1;fill-rule:nonzero;stroke:none"
           d="m 16300,7627.21 h -16.4 l -214.3,1049.35 h 16.4 L 16300,7627.21" /></g><g
         transform="scale(2.20161)"
         id="g1502"><path
           id="path1504"
           style="fill:#807e7f;fill-opacity:1;fill-rule:nonzero;stroke:none"
           d="m 16068.5,8238.3 h -15.7 l 231.4,1133.42 h 15.8 L 16068.5,8238.3" /></g><g
         transform="scale(2.33227)"
         id="g1506"><path
           id="path1508"
           style="fill:#807e7f;fill-opacity:1;fill-rule:nonzero;stroke:none"
           d="m 16286.9,8439.72 h -788.5 c -7.2,0 -13.1,4.33 -13.1,9.73 0,0.77 0.1,1.54 0.4,2.27 h 813.9 c 0.3,-0.73 0.4,-1.5 0.4,-2.27 0,-5.4 -5.9,-9.73 -13.1,-9.73" /></g><g
         transform="scale(2.38494)"
         id="g1510"><path
           id="path1512"
           style="fill:#231f20;fill-opacity:1;fill-rule:nonzero;stroke:none"
           d="m 16168.6,7605 h 83.9 l -267,1307.3 -78.3,-27.55 121.4,-594.54 c 1.3,-6.16 -0.3,-12.53 -4.2,-17.44 -4,-4.86 -10,-7.72 -16.3,-7.72 h -944.9 c -6.3,0 -12.3,2.86 -16.3,7.72 -4,4.91 -5.5,11.28 -4.2,17.44 l 121.3,594.54 -78.2,27.55 -267.1,-1307.3 h 84 l 110.6,541.35 c 1.9,9.73 10.5,16.73 20.5,16.73 h 1003.7 c 10,0 18.6,-7 20.5,-16.73 L 16168.6,7605 m 109.6,-41.97 h -126.7 c -10,0 -18.6,7.04 -20.6,16.77 l -110.5,541.35 h -969.5 l -110.6,-541.35 c -2,-9.73 -10.6,-16.77 -20.5,-16.77 H 14793 c -6.2,0 -12.2,2.85 -16.2,7.71 -4,4.91 -5.6,11.28 -4.3,17.44 l 277,1356.07 c 1.2,5.94 4.9,11.06 10.2,14.05 5.3,2.99 11.5,3.55 17.3,1.53 l 118.2,-41.59 c 9.9,-3.48 15.7,-13.71 13.6,-23.97 l -119.9,-587.29 h 893.5 l -119.9,587.29 c -2.1,10.26 3.7,20.49 13.6,23.97 l 118.2,41.59 c 5.7,2.02 12,1.46 17.3,-1.53 5.3,-2.99 9,-8.11 10.2,-14.05 l 276.9,-1356.07 c 1.3,-6.16 -0.3,-12.53 -4.2,-17.44 -4,-4.86 -10,-7.71 -16.3,-7.71" /></g><g
         transform="scale(2.42648)"
         id="g1514"><path
           id="path1516"
           style="fill:#f1f2f2;fill-opacity:1;fill-rule:nonzero;stroke:none"
           d="M 16300,8575.32 H 14239.4 V 11048 H 16300 V 8575.32" /></g><g
         transform="scale(2.43047)"
         id="g1518"><path
           id="path1520"
           style="fill:#231f20;fill-opacity:1;fill-rule:nonzero;stroke:none"
           d="m 14242.8,8588 h 2003.7 v 2415.2 H 14242.8 V 8588 m 2030.5,-53.49 H 14216 c -14.7,0 -26.7,11.97 -26.7,26.74 v 2468.65 c 0,14.8 12,26.8 26.7,26.8 h 2057.3 c 14.7,0 26.7,-12 26.7,-26.8 V 8561.25 c 0,-14.77 -12,-26.74 -26.7,-26.74" /></g><g
         transform="scale(2.43568)"
         id="g1522"><path
           id="path1524"
           style="fill:#231f20;fill-opacity:1;fill-rule:nonzero;stroke:none"
           d="m 16228.2,11078.2 h -2032.3 c -39.7,0 -71.9,-32.2 -71.9,-71.9 0,-39.7 32.2,-71.8 71.9,-71.8 h 2032.3 c 39.7,0 71.8,32.1 71.8,71.8 0,39.7 -32.1,71.9 -71.8,71.9" /></g><g
         transform="scale(2.42648)"
         id="g1526"><path
           id="path1528"
           style="fill:#7b7979;fill-opacity:1;fill-rule:nonzero;stroke:none"
           d="m 16289.7,11068.6 h -1986.8 c -5.6,7.1 -11.4,14 -17.4,20.7 h 2004.2 c 5.7,0 10.3,-4.7 10.3,-10.3 0,-5.7 -4.6,-10.4 -10.3,-10.4" /></g><g
         transform="scale(2.43568)"
         id="g1530"><path
           id="path1532"
           style="fill:#231f20;fill-opacity:1;fill-rule:nonzero;stroke:none"
           d="m 16228.2,8614.77 h -2032.3 c -39.7,0 -71.9,-32.16 -71.9,-71.84 0,-39.68 32.2,-71.85 71.9,-71.85 h 2032.3 c 39.7,0 71.8,32.17 71.8,71.85 0,39.68 -32.1,71.84 -71.8,71.84" /></g><g
         transform="scale(2.42648)"
         id="g1534"><path
           id="path1536"
           style="fill:#7b7979;fill-opacity:1;fill-rule:nonzero;stroke:none"
           d="m 16289.7,8595.93 h -2040 c -5.7,0 -10.3,4.62 -10.3,10.3 0,5.69 4.6,10.31 10.3,10.31 h 2040 c 5.7,0 10.3,-4.62 10.3,-10.31 0,-5.68 -4.6,-10.3 -10.3,-10.3" /></g><g
         transform="scale(2.23536)"
         id="g1538"><path
           id="path1540"
           style="fill:#f9ed32;fill-opacity:1;fill-rule:nonzero;stroke:none"
           d="m 16300,9716.49 h -315.3 V 10839.2 H 16300 V 9716.49" /></g><g
         transform="scale(2.23842)"
         id="g1542"><path
           id="path1544"
           style="fill:#231f20;fill-opacity:1;fill-rule:nonzero;stroke:none"
           d="m 15985.1,9725.51 h 270.2 V 10802 h -270.2 V 9725.51 m 292.6,-44.68 h -314.9 c -12.3,0 -22.3,10 -22.3,22.34 v 1121.23 c 0,12.3 10,22.3 22.3,22.3 h 314.9 c 12.3,0 22.3,-10 22.3,-22.3 V 9703.17 c 0,-12.34 -10,-22.34 -22.3,-22.34" /></g><g
         transform="scale(2.29473)"
         id="g1546"><path
           id="path1548"
           style="fill:#f9ed32;fill-opacity:1;fill-rule:nonzero;stroke:none"
           d="m 16300,9465.08 h -307.2 V 10920.4 H 16300 V 9465.08" /></g><g
         transform="scale(2.2978)"
         id="g1550"><path
           id="path1552"
           style="fill:#231f20;fill-opacity:1;fill-rule:nonzero;stroke:none"
           d="m 15993.2,9474.2 h 263.3 v 1409.9 h -263.3 V 9474.2 m 285,-43.52 h -306.7 c -12,0 -21.8,9.74 -21.8,21.76 v 1453.36 c 0,12 9.8,21.8 21.8,21.8 h 306.7 c 12.1,0 21.8,-9.8 21.8,-21.8 V 9452.44 c 0,-12.02 -9.7,-21.76 -21.8,-21.76" /></g><g
         transform="scale(2.3541)"
         id="g1554"><path
           id="path1556"
           style="fill:#f9ed32;fill-opacity:1;fill-rule:nonzero;stroke:none"
           d="m 16300,9226.38 h -299.4 V 10983 H 16300 V 9226.38" /></g><g
         transform="scale(2.35717)"
         id="g1558"><path
           id="path1560"
           style="fill:#231f20;fill-opacity:1;fill-rule:nonzero;stroke:none"
           d="m 16001,9235.58 h 256.6 V 10947.5 H 16001 V 9235.58 m 277.8,-42.42 h -299.1 c -11.7,0 -21.1,9.49 -21.1,21.21 v 1754.43 c 0,11.7 9.4,21.2 21.1,21.2 h 299.1 c 11.7,0 21.2,-9.5 21.2,-21.2 V 9214.37 c 0,-11.72 -9.5,-21.21 -21.2,-21.21" /></g><g
         transform="scale(2.39528)"
         id="g1562"><path
           id="path1564"
           style="fill:#231f20;fill-opacity:1;fill-rule:nonzero;stroke:none"
           d="m 16300,9064.59 -131.9,76.15 v -59.42 H 14734.3 V 10851 h 55.3 l -76.2,131.9 -76.1,-131.9 h 55.2 V 9060.45 c 0,-11.53 9.4,-20.87 20.9,-20.87 h 1454.7 v -51.14 l 131.9,76.15" /></g><g
         transform="scale(2.38577)"
         id="g1566"><path
           id="path1568"
           style="fill:#8dc63f;fill-opacity:1;fill-rule:nonzero;stroke:none"
           d="m 16300,10176.8 -329.6,-152.1 61.1,-43.16 c -5.8,-5.63 -11.3,-12.16 -16.5,-19.67 -79,-121.69 -174.6,-233.94 -286.1,-327.88 -238.3,-201.04 -551.8,-311.09 -863.7,-307.01 -11.1,0.14 -12.5,-16.02 -1.5,-17.68 497.6,-75.07 994.6,139.13 1318.8,526.57 7.3,8.91 13,17.93 17.2,26.94 l 67.3,-47.5 33,361.49" /></g><g
         transform="scale(2.38577)"
         id="g1570"><path
           id="path1572"
           style="fill:#f7f8f8;fill-opacity:1;fill-rule:nonzero;stroke:none"
           d="m 16104.6,10086.6 v 1.9 l 195.4,90.2 -0.2,-2 -195.2,-90.1" /></g><g
         transform="scale(2.35103)"
         id="g1574"><path
           id="path1576"
           style="fill:#fcf58e;fill-opacity:1;fill-rule:nonzero;stroke:none"
           d="m 16208,10173.5 -1.6,1.2 93.6,43.2 v -1.9 l -92,-42.5" /></g><g
         transform="scale(2.35717)"
         id="g1578"><path
           id="path1580"
           style="fill:#868485;fill-opacity:1;fill-rule:nonzero;stroke:none"
           d="m 16257.6,10189.4 v 1.9 l 42.4,19.6 v -1.9 l -42.4,-19.6" /></g><g
         transform="scale(2.38574)"
         id="g1582"><path
           id="path1584"
           style="fill:#c0e096;fill-opacity:1;fill-rule:nonzero;stroke:none"
           d="m 16017.8,9993.37 -45.6,32.13 90.7,41.9 41.9,19.3 195.2,90.2 -5.1,-55.6 -277.1,-127.93" /></g><g
         transform="scale(2.24842)"
         id="g1586"><path
           id="path1588"
           style="fill:#f7f8f8;fill-opacity:1;fill-rule:nonzero;stroke:none"
           d="m 15763.7,9888.19 c -0.5,5.05 2.8,10.53 9.4,10.53 0.1,0 0.1,0 0.2,0 5.9,-0.08 11.8,-0.12 17.7,-0.12 26.3,0 52.5,0.76 78.6,2.25 v -1.97 c -26.1,-1.5 -52.3,-2.26 -78.6,-2.26 -5.9,0 -11.8,0.04 -17.7,0.12 -0.1,0 -0.1,0 -0.2,0 -5.7,0 -8.9,-4.15 -9.4,-8.55 m 463.8,78.51 v 1.98 c 24.4,7.97 48.6,16.59 72.5,25.86 v -1.98 c -23.9,-9.27 -48.1,-17.89 -72.5,-25.86" /></g><g
         transform="scale(2.23229)"
         id="g1590"><path
           id="path1592"
           style="fill:#fcf58e;fill-opacity:1;fill-rule:nonzero;stroke:none"
           d="m 16029.1,9973.69 v 1.99 c 91.6,8.22 182.5,25.42 270.9,51.22 v -2 c -88.4,-25.76 -179.3,-42.99 -270.9,-51.21" /></g><g
         transform="scale(2.23842)"
         id="g1594"><path
           id="path1596"
           style="fill:#868485;fill-opacity:1;fill-rule:nonzero;stroke:none"
           d="m 15940.5,9943.07 v 1.99 c 14.9,0.86 29.8,1.95 44.6,3.28 v -1.98 c -14.8,-1.34 -29.7,-2.43 -44.6,-3.29 m 314.8,54.33 v 1.99 c 15,4.31 29.9,8.91 44.7,13.81 v -2 c -14.8,-4.8 -29.7,-9.4 -44.7,-13.8" /></g><g
         transform="scale(2.30779)"
         id="g1598"><path
           id="path1600"
           style="fill:#f7f8f8;fill-opacity:1;fill-rule:nonzero;stroke:none"
           d="m 16229.4,9934.25 v 1.93 c 10.4,8.25 20.7,16.68 30.9,25.25 13.1,11 26.3,22.78 39.7,35.21 v -2.37 c -13,-11.84 -26.3,-23.43 -39.7,-34.77 -10.2,-8.57 -20.5,-17 -30.9,-25.25" /></g><g
         transform="scale(2.29166)"
         id="g1602"><path
           id="path1604"
           style="fill:#fcf58e;fill-opacity:1;fill-rule:nonzero;stroke:none"
           d="m 16036,9821.77 v 1.94 c 93.3,39.83 182.1,89.84 264,149.31 v -1.94 c -81.9,-59.47 -170.7,-109.48 -264,-149.31" /></g><g
         transform="scale(2.2978)"
         id="g1606"><path
           id="path1608"
           style="fill:#868485;fill-opacity:1;fill-rule:nonzero;stroke:none"
           d="m 15949.7,9777.82 v 1.93 c 14.6,5.67 29.1,11.58 43.5,17.73 v -1.93 c -14.4,-6.16 -28.9,-12.07 -43.5,-17.73 m 306.8,166.63 v 1.94 c 14.7,10.7 29.2,21.7 43.5,33.01 v -1.94 c -14.3,-11.31 -28.8,-22.31 -43.5,-33.01" /></g><g
         transform="scale(2.33815)"
         id="g1610"><path
           id="path1612"
           style="fill:#fcf58e;fill-opacity:1;fill-rule:nonzero;stroke:none"
           d="m 16131.1,9905.09 v 3.28 c 59.2,59.83 118.4,129.23 168.9,195.93 -50.6,-70.8 -106.9,-137.85 -168.9,-199.21" /></g><g
         transform="scale(2.31393)"
         id="g1614"><path
           id="path1616"
           style="fill:#868485;fill-opacity:1;fill-rule:nonzero;stroke:none"
           d="m 16256.8,9967.77 v 2.37 c 14.3,13.31 28.7,27.35 43.2,41.96 v -3.3 c -14.1,-13.98 -28.5,-27.65 -43.2,-41.03" /></g><g
         transform="scale(2.34647)"
         id="g1618"><path
           id="path1620"
           style="fill:#fcf58e;fill-opacity:1;fill-rule:nonzero;stroke:none"
           d="m 16299.1,10147.8 c 0.2,0.4 0.4,0.7 0.7,1.1 l 0.2,-0.2 c -0.3,-0.3 -0.6,-0.6 -0.9,-0.9" /></g><g
         transform="scale(2.35015)"
         id="g1622"><path
           id="path1624"
           style="fill:#c0e096;fill-opacity:1;fill-rule:nonzero;stroke:none"
           d="m 15290.3,9437.23 c -66.8,0 -134.1,4.91 -201.3,15.06 -4.8,0.72 -7.3,4.18 -7.6,7.88 0.4,4.21 3.5,8.17 9,8.17 0,0 0.1,0 0.1,0 5.7,-0.07 11.3,-0.11 17,-0.11 25.1,0 50.1,0.72 75.2,2.16 14.2,0.81 28.3,1.86 42.5,3.12 87.1,7.81 173.4,24.18 257.4,48.62 14.2,4.15 28.4,8.53 42.5,13.15 23.3,7.62 46.5,15.87 69.3,24.73 14.3,5.54 28.5,11.32 42.6,17.34 90.9,38.84 177.5,87.61 257.4,145.59 14.3,10.46 28.6,21.21 42.5,32.27 10.2,8.1 20.4,16.38 30.4,24.79 13.1,11.14 26.1,22.52 38.9,34.14 14.5,13.18 28.7,26.64 42.6,40.4 61.6,61.05 117.7,127.72 168,198.16 20.6,27.2 39.7,53.8 56.7,79.2 0.3,0.3 0.7,0.6 1,0.9 l -0.2,0.2 c 0.8,1.2 1.6,2.4 2.4,3.6 l 4.8,-2.9 c 14.3,-8.8 18.5,-27.7 9.2,-41.7 -10.2,-15.5 -21.5,-33.1 -24.4,-37.4 -80.3,-123.54 -185.9,-233.24 -299,-328.6 -172.2,-145.22 -383,-243.62 -604.3,-286.84 -24.2,-1.29 -48.4,-1.93 -72.7,-1.93" /></g><g
         transform="scale(2.38892)"
         id="g1626"><path
           id="path1628"
           style="fill:#231f20;fill-opacity:1;fill-rule:nonzero;stroke:none"
           d="m 15022.4,9303.48 c 417.7,-5.48 835.5,189.62 1122.7,532.84 5.8,7.12 10.7,14.67 14.2,22.29 2.6,5.63 7.6,9.81 13.6,11.41 6,1.59 12.4,0.45 17.5,-3.13 l 37.5,-26.52 26.4,288.83 -263.3,-121.6 31.4,-22.13 c 5.1,-3.59 8.3,-9.26 8.8,-15.47 0.5,-6.2 -1.8,-12.3 -6.3,-16.64 -4.8,-4.71 -9.4,-10.19 -13.6,-16.27 -83.6,-128.65 -181.1,-240.28 -289.7,-331.82 -194.9,-164.46 -442.7,-270.29 -699.2,-301.79 z m 19.1,-42.13 c -67.2,-0.01 -134.2,4.96 -200.5,14.97 -15.7,2.37 -26.6,16.07 -25.3,31.88 1.3,15.68 14.1,27.4 29.8,27.4 l 0.4,-0.01 c 5.4,-0.07 10.8,-0.11 16.3,-0.11 302,0 604.5,109.51 832.4,301.79 105.6,88.95 200.4,197.56 281.7,322.85 l 0.3,0.42 c 1,1.36 1.9,2.69 2.9,4 l -42.3,29.8 c -6.1,4.31 -9.4,11.56 -8.7,18.96 0.7,7.5 5.3,14 12,17.1 l 329.2,152 c 6.8,3.1 14.7,2.4 20.8,-1.9 6.2,-4.3 9.5,-11.6 8.8,-19 l -33,-361.05 c -0.7,-7.44 -5.3,-13.96 -12.1,-17.09 -6.7,-3.14 -14.7,-2.41 -20.8,1.9 l -48.6,34.27 c -2.3,-3.36 -4.8,-6.67 -7.5,-9.93 -163.5,-195.43 -371.6,-348.31 -601.9,-442.24 -172.1,-70.23 -353.6,-106.01 -533.9,-106.01" /></g><g
         transform="scale(1.8882)"
         id="g1630"><path
           id="path1632"
           style="fill:#865439;fill-opacity:1;fill-rule:nonzero;stroke:none"
           d="m 15232.7,10179.8 c 22.9,14.2 45.9,29.1 68.9,44.8 298.2,203.8 616.2,546.4 945.1,1018.4 53.3,76.4 34.7,180.7 -41.7,232.9 -76.3,52.2 -181.3,32.6 -234.6,-43.9 -540.4,-775.4 -1026,-1157.2 -1404.4,-1104.1 -439.6,61.6 -649.6,698.4 -651.7,704.8 -28.2,87.8 -122.9,135.6 -211.4,106.7 -88.6,-28.8 -137.8,-123.2 -109.9,-211.1 10.9,-34.3 274.2,-840.3 920.9,-932.18 228,-32.41 469.5,29.38 718.8,183.68" /></g><g
         transform="scale(1.78453)"
         id="g1634"><path
           id="path1636"
           style="fill:#6c432c;fill-opacity:1;fill-rule:nonzero;stroke:none"
           d="m 15483.1,10612.3 c -40.1,0 -79.9,2.8 -119.2,8.4 -154.6,22 -287.8,84.6 -401.2,168 102.9,-64.5 219.1,-112 349.1,-130.5 18.6,-2.6 35.6,-3.8 51.4,-3.8 160.3,0 190.2,129.7 343.2,260.9 130.1,42.1 267.7,119.9 411.9,233.3 12.4,9.7 24.7,19.6 37.1,29.8 44,25.6 90.5,53.4 138.7,83.1 5.1,-53.7 5.9,-108.1 2.1,-162.5 -3.3,-48.6 -3.6,-97.9 -1,-147.8 -43.6,-34.8 -86.8,-66.8 -129.6,-96.1 -23.7,-16.2 -47.6,-31.7 -71.2,-46.3 -211,-130.6 -416.1,-196.4 -611.3,-196.5" /></g><g
         transform="scale(1.71002)"
         id="g1638"><path
           id="path1640"
           style="fill:#c8b2a6;fill-opacity:1;fill-rule:nonzero;stroke:none"
           d="m 16091.4,11332.7 c -26.4,0 -52.3,1.8 -77.9,5.4 -485.4,68 -717.2,771.2 -719.5,778.3 -20,62.3 -70.4,106.3 -129.8,121.3 -10.7,2.7 -18.5,9.2 -23,17.3 1.2,0.4 2.3,0.8 3.5,1.2 14.5,4.7 29.1,6.9 43.5,6.9 58.6,0 113,-37 131.8,-95.4 2.3,-7.3 243.1,-737.5 756.8,-809.5 27.6,-3.9 55.8,-5.8 84.4,-5.8 45.2,0 91.4,4.8 138.8,14.5 -72.2,-22.7 -141.8,-34.2 -208.6,-34.2" /></g><g
         transform="scale(1.89119)"
         id="g1642"><path
           id="path1644"
           style="fill:#231f20;fill-opacity:1;fill-rule:nonzero;stroke:none"
           d="m 16017.2,11426 c 13.3,8.2 28.1,14 43.9,16.9 33.2,6.2 66.6,-0.7 94.2,-19.7 27.7,-18.9 46.1,-47.4 52.1,-80.4 5.8,-32.9 -1.5,-66.3 -20.8,-94 -325.4,-466.9 -639.2,-805.4 -932.7,-1005.9 -22.4,-15.3 -45,-30 -67.2,-43.7 -240.2,-148.7 -472,-208.35 -689.3,-177.5 -620.1,88.2 -875.2,869.1 -885.7,902.3 -20.8,65.6 16,136.5 82.2,158.1 66.2,21.5 137.3,-14.3 158.4,-80 2.2,-6.7 219.9,-666.9 684.4,-732 199.8,-28 426.2,56 672.6,249.7 240.2,188.9 499.4,481.8 770.4,870.6 10.1,14.5 22.9,26.6 37.5,35.6 m -786.6,-1297.8 c 23.3,14.5 47,29.9 70.4,45.9 302,206.4 623.2,552.1 954.5,1027.5 32.2,46.1 44.5,101.8 34.7,156.7 -9.9,54.9 -40.6,102.5 -86.7,134 -46.1,31.6 -101.8,43.2 -157.1,32.9 -55.4,-10.4 -103.5,-41.5 -135.7,-87.6 -266.1,-381.9 -519.5,-668.6 -753.2,-852.3 -227.4,-178.9 -432.1,-257 -608.2,-232.3 -411.5,57.6 -614.8,669.3 -616.9,675.4 -35.2,109.4 -153.6,169.1 -263.9,133.2 -110.3,-36 -171.8,-154.2 -137,-263.6 11.1,-35.2 281.9,-863.7 953.1,-959.13 237.5,-33.73 488.4,29.99 746,189.33" /></g><g
         transform="scale(2.03926)"
         id="g1646"><path
           id="path1648"
           style="fill:#ffffff;fill-opacity:1;fill-rule:nonzero;stroke:none"
           d="m 14393.2,9199.28 c -43.1,81.75 -75.7,184.97 -91.2,300.65 -9.7,72.57 -11.7,143.63 -7.1,210.27 9.1,132.72 -10.6,265.88 -61.1,389 -55.4,134.8 -86,302.6 -86,510.2 0,823.6 481.8,1305 1076.1,1305 594.3,0 1076.1,-481.4 1076.1,-1305 0,-207.6 -30.6,-375.4 -86,-510.2 -50.5,-123.12 -70.2,-256.28 -61.1,-389 4.6,-66.64 2.6,-137.7 -7.1,-210.27 -15.5,-115.68 -48.1,-218.9 -91.2,-300.65 46.8,-46.14 102.3,-107.39 101.6,-162.41 -1.3,-104.89 -136.2,-147.11 -269.2,-145.5 -133,1.67 -240.3,46.59 -239.1,151.43 0.3,19.47 4.3,39.57 11.4,59.48 -78.5,110.97 -117.2,305.07 -92.8,514.21 -107.6,-19.52 -222.8,-27.51 -342.6,-27.51 -119.8,0 -235,7.99 -342.7,27.51 24.5,-209.14 -14.2,-403.24 -92.7,-514.21 7.1,-19.91 11.1,-40.01 11.3,-59.48 1.3,-104.84 -106,-149.76 -239,-151.43 -133,-1.61 -267.9,40.61 -269.2,145.5 -0.7,55.02 54.8,116.27 101.6,162.41" /></g><g
         transform="scale(2.03052)"
         id="g1650"><path
           id="path1652"
           style="fill:#f5b553;fill-opacity:1;fill-rule:nonzero;stroke:none"
           d="m 16300,10185.1 h -2021 c 5.2,-14.5 10.5,-28.7 16.1,-42.5 50.8,-123.6 70.6,-257.3 61.4,-390.59 -4.6,-66.93 -2.6,-138.29 7.1,-211.18 15.6,-116.18 48.3,-219.84 91.6,-301.94 -47,-46.35 -102.7,-107.86 -102,-163.11 1.3,-105.35 136.7,-147.75 270.3,-146.12 133.6,1.67 241.4,46.78 240.1,152.08 -0.2,19.55 -4.2,39.74 -11.4,59.73 78.8,111.45 117.7,306.38 93.2,516.42 108.1,-19.6 223.8,-27.63 344.1,-27.63 120.3,0 236,8.03 344.1,27.63 -24.5,-210.04 14.4,-404.97 93.1,-516.42 -7.1,-19.99 -11.1,-40.18 -11.3,-59.73 -1.3,-105.3 106.4,-150.41 240.1,-152.08 133.6,-1.63 269.1,40.77 270.3,146.12 0.7,55.25 -55,116.76 -102,163.11 43.3,82.1 76,185.76 91.5,301.94 9.8,72.89 11.9,144.25 7.2,211.18 -9.2,133.29 10.6,266.99 61.3,390.59 5.7,13.8 11,28 16.2,42.5" /></g><g
         transform="scale(1.85082)"
         id="g1654"><path
           id="path1656"
           style="fill:#865439;fill-opacity:1;fill-rule:nonzero;stroke:none"
           d="m 15987.4,10133.8 c -48.3,2.9 -94.9,0.3 -138.3,-7.2 -51.4,-50.6 -111.3,-117.4 -110.5,-177.51 1.4,-115.51 150,-162.09 296.5,-160.25 146.6,1.78 264.9,51.27 263.4,166.84 -0.2,21.4 -4.6,43.6 -12.4,65.52 0.4,0.5 0.8,1.1 1.1,1.7 -68.8,60.7 -176.6,103.3 -299.8,110.9" /></g><g
         transform="scale(1.85235)"
         id="g1658"><path
           id="path1660"
           style="fill:#231f20;fill-opacity:1;fill-rule:nonzero;stroke:none"
           d="m 16259.7,10008.9 0.2,-0.5 c 7.5,-21.03 11.5,-41.54 11.7,-61.09 1.7,-135.34 -174.2,-152.13 -249.8,-153.05 -76.4,-0.97 -146.3,11.39 -196.8,34.82 -56.4,26.24 -85.3,63.92 -85.9,111.97 -0.7,54.25 57.8,119.35 103.4,164.65 42.2,6.9 86.2,9 130.8,6.3 113,-7 216.9,-44.5 286.4,-103.1 m -246,-241.68 c 2.8,0 5.6,0 8.4,0.05 174.5,2.16 277.9,69.59 276.5,180.37 -0.2,20.46 -3.9,41.67 -11,63.26 l 4.1,5.9 -9,7.9 c -73.9,65.1 -186,106.8 -307.7,114.2 -48.2,3 -95.7,0.5 -141.3,-7.3 l -4.2,-0.8 -3,-3 c -53.7,-52.9 -115.2,-122.1 -114.4,-187.08 0.7,-58.46 35.8,-105.54 101.6,-136.09 52.1,-24.24 122.9,-37.41 200,-37.41" /></g><g
         transform="scale(1.80561)"
         id="g1662"><path
           id="path1664"
           style="fill:#231f20;fill-opacity:1;fill-rule:nonzero;stroke:none"
           d="m 16256.7,10090.6 c 2.3,10.5 5.3,21.6 8.3,32.3 3,10.8 6.4,21.5 10.1,32 3.9,10.6 8,21 13,30.9 2.6,5 5.4,9.9 8.6,14.4 3.3,4.5 0.5,7.5 -4.6,4.1 -5.1,-3.6 -9.7,-7.5 -14.2,-11.6 -8.9,-8.3 -16.9,-17.2 -24.6,-26.3 -7.7,-9.2 -15.1,-18.6 -22.1,-28.2 -7.1,-9.6 -13.9,-19.1 -20.6,-29.4 l -0.2,-0.2 c -6.9,-10.6 -2.8,-24.9 9.2,-31.8 11.9,-6.9 27.3,-3.8 34.3,6.9 1.4,2.1 2.3,4.5 2.8,6.9" /></g><g
         transform="scale(1.82616)"
         id="g1666"><path
           id="path1668"
           style="fill:#231f20;fill-opacity:1;fill-rule:nonzero;stroke:none"
           d="m 16257.2,9938.23 c 2.3,10.41 5.1,21.36 8.1,31.93 3.1,10.68 6.4,21.25 10.1,31.74 3.7,10.4 7.8,20.7 12.8,30.5 2.5,5 5.3,9.8 8.5,14.3 3.3,4.4 0.5,7.4 -4.5,4 -5,-3.5 -9.6,-7.4 -14,-11.5 -8.9,-8.2 -16.9,-17 -24.5,-26.1 -7.6,-9 -14.8,-18.3 -21.8,-27.72 -7,-9.53 -13.7,-18.94 -20.3,-29.13 l -0.1,-0.22 c -6.9,-10.51 -2.9,-24.58 9,-31.43 11.8,-6.79 27,-3.78 33.8,6.79 1.4,2.13 2.4,4.55 2.9,6.84" /></g><g
         transform="scale(2.02227)"
         id="g1670"><path
           id="path1672"
           style="fill:#865439;fill-opacity:1;fill-rule:nonzero;stroke:none"
           d="m 16071.6,9274.63 c 44.3,2.72 86.9,0.3 126.6,-6.58 47,-46.33 101.8,-107.45 101.1,-162.44 -1.3,-105.72 -137.3,-148.35 -271.4,-146.67 -134.2,1.63 -242.4,46.93 -241.1,152.7 0.3,19.58 4.3,39.91 11.4,59.94 -0.3,0.49 -0.7,1.03 -1.1,1.58 63.1,55.53 161.7,94.54 274.5,101.47" /></g><g
         transform="scale(2.02381)"
         id="g1674"><path
           id="path1676"
           style="fill:#231f20;fill-opacity:1;fill-rule:nonzero;stroke:none"
           d="m 16180,9249.48 c 41.7,-41.45 95.2,-100.99 94.6,-150.65 -0.6,-43.98 -27,-78.47 -78.7,-102.48 -46.2,-21.45 -110.1,-32.81 -180.1,-31.87 -69.2,0.84 -230.2,16.2 -228.6,140.08 0.2,17.89 3.8,36.66 10.6,55.89 l 0.2,0.49 c 63.6,53.66 158.7,87.95 262.2,94.33 40.8,2.52 81.1,0.54 119.8,-5.79 m -156.8,-309.76 c 70.7,0 135.4,12.06 183.1,34.25 60.1,27.96 92.3,71.05 93,124.56 0.7,59.49 -55.6,122.79 -104.7,171.26 l -2.8,2.72 -3.8,0.69 c -41.8,7.17 -85.3,9.44 -129.4,6.72 -111.4,-6.82 -214,-44.91 -281.6,-104.5 l -8.3,-7.27 3.8,-5.43 c -6.4,-19.72 -9.9,-39.14 -10.1,-57.86 -1.2,-101.4 93.4,-163.11 253.1,-165.09 2.6,-0.05 5.2,-0.05 7.7,-0.05" /></g><g
         transform="scale(2.01433)"
         id="g1678"><path
           id="path1680"
           style="fill:#231f20;fill-opacity:1;fill-rule:nonzero;stroke:none"
           d="m 16252.3,9045.04 c -2,9.43 -4.7,19.36 -7.4,28.94 -2.7,9.68 -5.7,19.26 -9.1,28.74 -3.4,9.44 -7.1,18.77 -11.7,27.7 -2.2,4.47 -4.7,8.84 -7.6,12.91 -3,4.02 -0.5,6.7 4.1,3.63 4.5,-3.18 8.7,-6.71 12.7,-10.43 8,-7.4 15.2,-15.39 22.1,-23.58 7,-8.19 13.5,-16.63 19.9,-25.22 6.3,-8.64 12.4,-17.13 18.4,-26.41 l 0.1,-0.15 c 6.2,-9.53 2.5,-22.34 -8.2,-28.49 -10.7,-6.16 -24.5,-3.43 -30.7,6.15 -1.3,1.94 -2.1,4.07 -2.6,6.21" /></g><g
         transform="scale(1.99379)"
         id="g1682"><path
           id="path1684"
           style="fill:#231f20;fill-opacity:1;fill-rule:nonzero;stroke:none"
           d="m 16251.8,9102.66 c -2.1,9.53 -4.7,19.56 -7.5,29.24 -2.7,9.78 -5.8,19.46 -9.2,29.04 -3.4,9.53 -7.2,18.96 -11.7,27.99 -2.3,4.51 -4.9,8.92 -7.8,13.04 -3,4.06 -0.5,6.77 4.1,3.66 4.6,-3.21 8.9,-6.77 12.9,-10.49 8.1,-7.52 15.4,-15.59 22.4,-23.87 6.9,-8.27 13.6,-16.8 20,-25.43 6.4,-8.73 12.5,-17.35 18.6,-26.68 l 0.1,-0.2 c 6.3,-9.63 2.6,-22.52 -8.2,-28.79 -10.9,-6.22 -24.8,-3.46 -31.1,6.22 -1.2,1.95 -2.1,4.16 -2.6,6.27" /></g><g
         transform="scale(1.96618)"
         id="g1686"><path
           id="path1688"
           style="fill:#b68844;fill-opacity:1;fill-rule:nonzero;stroke:none"
           d="m 16260.8,9475.36 c -70.6,110.98 -101.5,292.19 -81.8,481.03 7,2.34 13.9,4.78 20.9,7.33 14.9,5.44 29.8,11.24 44.4,17.54 14.6,6.36 29,13.17 42.9,21.14 4.4,2.6 8.6,5.2 12.8,8.1 -22.9,-37.63 -102.1,-198.8 -0.1,-499.95 -15,-10.58 -28.1,-22.37 -39.1,-35.19" /></g><g
         transform="scale(1.86004)"
         id="g1690"><path
           id="path1692"
           style="fill:#b68844;fill-opacity:1;fill-rule:nonzero;stroke:none"
           d="m 16192.7,10016.1 c -11.6,13.5 -25.5,26 -41.3,37.2 107.8,318.3 24.1,488.7 -0.1,528.4 4.4,-3 8.9,-5.8 13.5,-8.5 14.7,-8.4 30,-15.6 45.4,-22.4 15.4,-6.6 31.1,-12.8 46.9,-18.5 7.4,-2.7 14.7,-5.3 22.1,-7.8 20.8,-199.6 -11.9,-391.1 -86.5,-508.4" /></g><g
         transform="scale(2.04355)"
         id="g1694"><path
           id="path1696"
           style="fill:#231f20;fill-opacity:1;fill-rule:nonzero;stroke:none"
           d="m 14235.6,10090.9 c 51.1,-124.5 73,-264.03 63.4,-403.45 -4.6,-66.12 -2.2,-134.38 6.9,-202.98 14.4,-107.76 44.6,-207.53 87.4,-288.57 7,-13.36 4.5,-29.8 -6.3,-40.37 -22.7,-22.36 -91.7,-90.29 -91.2,-137.21 0.2,-12.82 0.6,-51.83 65.2,-81.82 42.8,-19.87 102.5,-30.34 168.7,-29.56 62,0.78 206.1,13.65 204.8,116.47 -0.2,15.26 -3.3,31.46 -9.3,48.2 -3.8,10.47 -2.2,22.16 4.3,31.31 74.3,105.16 107.6,286.81 87.8,476.53 -6.7,2.25 -13.3,4.6 -20,7.04 -14.4,5.24 -28.7,10.82 -42.7,16.89 -14.1,6.11 -28,12.67 -41.4,20.35 -6.7,3.92 -13.2,8.08 -19.3,12.87 -5.9,4.75 -3.2,8.81 3.6,6.36 6.8,-2.34 13.9,-4.06 21,-5.48 14.2,-2.83 28.7,-4.45 43.2,-5.62 14.6,-1.18 29.2,-1.81 43.8,-2.11 12.5,-0.24 25.2,-0.29 37.4,0.05 2.3,0.49 4.7,0.73 7.1,0.73 2,0 4,-0.14 6.1,-0.53 99.9,-18.11 209.7,-26.92 335.8,-26.92 126.1,0 235.9,8.81 335.8,26.92 4.4,0.78 8.8,0.68 13,-0.2 12.3,-0.34 25.1,-0.29 37.6,-0.05 14.6,0.3 29.2,0.93 43.8,2.11 14.5,1.17 29,2.79 43.2,5.62 7.1,1.42 14.2,3.14 21,5.48 6.8,2.45 9.6,-1.61 3.6,-6.36 -6.1,-4.79 -12.6,-8.95 -19.3,-12.87 -13.4,-7.68 -27.3,-14.24 -41.3,-20.35 -14.1,-6.07 -28.4,-11.65 -42.8,-16.89 -6.7,-2.44 -13.3,-4.79 -20,-7.04 -19.8,-189.72 13.5,-371.37 87.9,-476.53 6.4,-9.15 8,-20.84 4.2,-31.31 -6,-16.74 -9.1,-32.94 -9.3,-48.2 -1.3,-102.82 142.8,-115.69 204.8,-116.47 66.1,-0.78 126,9.69 168.7,29.56 64.6,29.99 65.1,69 65.2,81.82 0.6,46.92 -68.5,114.85 -91.2,137.21 -10.8,10.57 -13.3,27.01 -6.3,40.37 42.8,81.04 73,180.86 87.4,288.57 9.1,68.55 11.5,136.86 6.9,202.93 -9.6,139.48 12.3,279.02 63.5,403.5 55.2,134.6 83.2,301.6 83.2,496.2 0,746.6 -427.5,1268 -1039.6,1268 -612.1,0 -1039.6,-521.4 -1039.6,-1268 0,-194.6 28,-361.6 83.3,-496.2 m -151.8,496.2 c 0,400.1 111.7,739.6 323,981.9 199.4,228.7 478.3,354.6 785.1,354.6 306.8,0 585.7,-125.9 785.1,-354.6 211.3,-242.3 323,-581.8 323,-981.9 0,-203.6 -29.7,-379.3 -88.4,-522.2 -47.1,-114.82 -67.4,-243.74 -58.5,-372.76 4.9,-70.71 2.4,-143.62 -7.3,-216.73 -14.1,-105.94 -42.8,-205.23 -83.2,-288.86 49.3,-50.79 94.7,-109.12 93.9,-169.11 -0.5,-43.31 -19.2,-103.26 -104.8,-143.09 -51.9,-24.07 -122.4,-36.89 -198.5,-35.92 -172,2.16 -273.8,71.6 -272.4,185.81 0.3,17.47 2.9,35.38 7.9,53.48 -72.6,113.19 -107.2,291.21 -93.2,477.51 -91.9,-13.9 -191.7,-20.66 -303.6,-20.66 -111.9,0 -211.7,6.76 -303.6,20.66 14,-186.3 -20.6,-364.32 -93.2,-477.51 5,-18.1 7.7,-36.01 7.9,-53.48 1.4,-114.21 -100.4,-183.65 -272.4,-185.81 -2.6,0 -5.3,-0.05 -7.8,-0.05 -73.2,0 -140.6,12.73 -190.6,35.97 -85.7,39.83 -104.4,99.78 -104.9,143.09 -0.7,59.99 44.6,118.32 93.9,169.11 -40.4,83.63 -69.1,182.92 -83.2,288.86 -9.7,73.16 -12.2,146.02 -7.3,216.73 8.9,129.01 -11.3,257.92 -58.5,372.76 -58.6,142.9 -88.4,318.6 -88.4,522.2" /></g><g
         transform="scale(1.85533)"
         id="g1698"><path
           id="path1700"
           style="fill:#3c2415;fill-opacity:1;fill-rule:nonzero;stroke:none"
           d="m 15662.6,9891.28 c 0.7,-112.7 143.4,-141.05 319.2,-139.92 175.8,1.08 318.2,31.15 317.6,143.86 -0.6,112.68 -143.9,240.48 -319.7,239.38 -175.8,-1.1 -317.6,-130.6 -317.1,-243.32" /></g><g
         transform="scale(1.78431)"
         id="g1702"><path
           id="path1704"
           style="fill:#e5e1db;fill-opacity:1;fill-rule:nonzero;stroke:none"
           d="m 16295.2,10202 c -6.2,10.9 -11.6,33.7 -14,47.9 -5.6,33 -0.1,67.5 14.8,100.6 -0.8,-4.9 -1.3,-9.8 -1.5,-14.7 -5.6,-17 -8.6,-34.1 -8.5,-50.8 0.2,-21 5,-39.2 14,-54.9 -2.1,-9.5 -3.7,-18.9 -4.8,-28.1" /></g><g
         transform="scale(1.79419)"
         id="g1706"><path
           id="path1708"
           style="fill:#868485;fill-opacity:1;fill-rule:nonzero;stroke:none"
           d="m 16204.8,10278.9 c 0.2,4.9 0.7,9.8 1.5,14.7 18.2,40.3 50.4,78.7 93.7,110.2 -46.5,-35.6 -80.3,-79.9 -95.2,-124.9" /></g><g
         transform="scale(1.84309)"
         id="g1710"><path
           id="path1712"
           style="fill:#fad6a1;fill-opacity:1;fill-rule:nonzero;stroke:none"
           d="m 16296.8,10136.4 c -56,39.3 -129,65.5 -208.7,65.5 -0.8,0 -1.5,0 -2.3,0 -6.7,0 -13.4,-0.3 -20,-0.7 13.2,1.3 26.2,2 39,2 76.3,0 145.2,-22.2 195.2,-57.4 -1.1,-3.2 -2.1,-6.3 -3.2,-9.4" /></g><g
         transform="scale(1.8478)"
         id="g1714"><path
           id="path1716"
           style="fill:#d7be98;fill-opacity:1;fill-rule:nonzero;stroke:none"
           d="m 16296.2,10076.6 c -12.3,12 -26.1,23.4 -41,33.9 1.1,3.1 2.1,6.2 3.2,9.4 15.9,-11.3 29.9,-23.9 41.6,-37.5 -1.2,-2 -2.5,-3.9 -3.8,-5.8" /></g><g
         transform="scale(1.85077)"
         id="g1718"><path
           id="path1720"
           style="fill:#868485;fill-opacity:1;fill-rule:nonzero;stroke:none"
           d="m 16300,10026 c -8.7,11.9 -18.7,23.4 -29.9,34.4 1.3,1.9 2.5,3.8 3.7,5.8 10.9,-12.6 19.7,-26 26.2,-40.2" /></g><g
         transform="scale(1.85394)"
         id="g1722"><path
           id="path1724"
           style="fill:#94877f;fill-opacity:1;fill-rule:nonzero;stroke:none"
           d="m 15687.8,9845.87 c -8.6,15.1 -13.3,32.58 -13.4,52.81 -0.1,16.12 2.7,32.58 8.1,48.92 14.4,43.53 47.1,86.5 92.1,120.9 43.3,31.5 98,55.9 160.8,67.8 12.2,2.3 24.4,4 36.3,5.2 6.6,0.4 13.2,0.6 19.9,0.7 0.8,0 1.5,0 2.2,0 79.3,0 151.8,-26.1 207.5,-65.2 14.9,-10.4 28.6,-21.8 40.9,-33.8 11.2,-11 21.2,-22.5 29.9,-34.3 5.5,-11.73 9.3,-23.87 11.4,-36.33 2.4,-13.64 16.5,-25.13 14.4,-37.16 -39.1,79.59 -170,146.29 -302,146.29 -22.7,0 -45.4,-1.9 -67.6,-6.2 -138.9,-26.3 -218.7,-132 -240.5,-229.63" /></g><g
         transform="scale(1.85838)"
         id="g1726"><path
           id="path1728"
           style="fill:#231f20;fill-opacity:1;fill-rule:nonzero;stroke:none"
           d="m 15953.6,10088.6 c -161,-0.9 -290.1,-117.55 -289.5,-213.39 0.4,-75.6 95.7,-111.76 291.3,-110.58 195.7,1.24 290.5,38.58 290.1,114.19 -0.5,95.83 -130.8,210.78 -291.9,209.78 z m 2.1,-382.57 c -102.3,-0.64 -178.8,8.77 -233.7,28.79 -92.3,33.63 -111.9,94.71 -112.2,140.07 -0.3,65.22 37.2,133.31 103,186.81 67.3,54.6 152.7,85 240.5,85.5 87.8,0.6 173.5,-28.8 241.4,-82.5 66.4,-52.7 104.7,-120.34 105,-185.56 0.3,-45.36 -18.7,-106.65 -110.5,-141.41 -54.8,-20.72 -131.1,-31.05 -233.5,-31.7" /></g><g
         transform="scale(2.02655)"
         id="g1730"><path
           id="path1732"
           style="fill:#3c2415;fill-opacity:1;fill-rule:nonzero;stroke:none"
           d="m 16299.4,9055.61 c -0.6,-103.19 -131.2,-129.14 -292.2,-128.1 -160.9,0.98 -291.3,28.52 -290.7,131.7 0.6,103.18 131.7,220.13 292.7,219.14 160.9,-0.99 290.8,-119.56 290.2,-222.74" /></g><g
         transform="scale(2.02761)"
         id="g1734"><path
           id="path1736"
           style="fill:#e5e1db;fill-opacity:1;fill-rule:nonzero;stroke:none"
           d="m 16282.8,8977.8 c -1,8.13 -2.4,16.42 -4.3,24.75 7.9,13.81 12.2,29.79 12.3,48.29 0.1,14.74 -2.5,29.74 -7.4,44.73 -0.2,4.34 -0.7,8.63 -1.3,12.92 13.1,-29.1 17.9,-59.43 13,-88.48 -2.2,-12.53 -6.8,-32.6 -12.3,-42.21" /></g><g
         transform="scale(2.02555)"
         id="g1738"><path
           id="path1740"
           style="fill:#868485;fill-opacity:1;fill-rule:nonzero;stroke:none"
           d="m 16300,9104.85 c -13.2,39.85 -43.1,79.14 -84.3,110.64 38.3,-27.89 66.9,-61.91 83,-97.7 0.7,-4.3 1.1,-8.59 1.3,-12.94" /></g><g
         transform="scale(1.99266)"
         id="g1742"><path
           id="path1744"
           style="fill:#fad6a1;fill-opacity:1;fill-rule:nonzero;stroke:none"
           d="m 16086.3,9375.52 c -1,2.92 -1.9,5.78 -2.9,8.69 46.2,32.62 110,53.09 180.5,53.09 11.9,0 23.9,-0.6 36.1,-1.81 -6.1,0.41 -12.3,0.61 -18.6,0.66 -0.6,0 -1.3,0 -2,0 -73.7,0 -141.2,-24.29 -193.1,-60.63" /></g><g
         transform="scale(1.96653)"
         id="g1746"><path
           id="path1748"
           style="fill:#d7be98;fill-opacity:1;fill-rule:nonzero;stroke:none"
           d="m 16261.5,9468.18 c -1.2,1.78 -2.4,3.61 -3.6,5.49 11,12.82 24.1,24.62 39.1,35.19 1,-2.95 2,-5.85 3,-8.79 -14,-9.87 -27,-20.55 -38.5,-31.89" /></g><g
         transform="scale(1.96188)"
         id="g1750"><path
           id="path1752"
           style="fill:#868485;fill-opacity:1;fill-rule:nonzero;stroke:none"
           d="m 16271.8,9458.21 c 6.1,13.35 14.4,26.04 24.6,37.92 1.2,-1.89 2.4,-3.72 3.6,-5.51 -10.6,-10.34 -20,-21.2 -28.2,-32.41" /></g><g
         transform="scale(2.02648)"
         id="g1754"><path
           id="path1756"
           style="fill:#94877f;fill-opacity:1;fill-rule:nonzero;stroke:none"
           d="m 16287.6,9007.57 c -19.9,89.32 -92.9,186.03 -219.9,210.12 -20.5,3.9 -41.2,5.67 -62,5.67 -120.7,0 -240.5,-61.04 -276.2,-133.88 -2,11.01 11,21.52 13.1,34 2,11.4 5.5,22.51 10.4,33.21 8,10.86 17.2,21.37 27.4,31.39 11.2,11 23.8,21.37 37.4,30.94 51,35.73 117.3,59.61 189.8,59.61 0.7,0 1.4,0 2,0 6.2,-0.05 12.3,-0.25 18.3,-0.64 11,-1.04 22,-2.62 33.2,-4.74 57.4,-10.91 107.4,-33.21 147.1,-62.03 41.2,-31.48 71.1,-70.76 84.2,-110.58 5,-15.01 7.6,-30.01 7.5,-44.76 -0.1,-18.51 -4.4,-34.49 -12.3,-48.31" /></g><g
         transform="scale(2.02961)"
         id="g1758"><path
           id="path1760"
           style="fill:#231f20;fill-opacity:1;fill-rule:nonzero;stroke:none"
           d="m 15984.9,9237.5 c 147.4,-0.89 265.6,-107.66 265.1,-195.41 -0.4,-69.22 -87.7,-102.33 -266.8,-101.25 -179.1,1.13 -266,35.33 -265.6,104.55 0.5,87.75 119.8,193.05 267.3,192.11 z m -2,-350.31 c 93.8,-0.59 163.8,8.03 214,26.36 84.5,30.79 102.5,86.71 102.8,128.25 0.3,59.71 -34.1,122.09 -94.4,171.06 -61.5,50.01 -139.7,77.8 -220.1,78.3 -80.4,0.49 -158.9,-26.36 -221.1,-75.59 -60.8,-48.23 -95.8,-110.16 -96.1,-169.88 -0.3,-41.53 17.1,-97.65 101.3,-129.48 50,-18.97 119.9,-28.43 213.6,-29.02" /></g><g
         transform="scale(2.03381)"
         id="g1762"><path
           id="path1764"
           style="fill:#754c29;fill-opacity:1;fill-rule:nonzero;stroke:none"
           d="m 16230.4,10263.9 h -1931.5 c -38.4,0 -69.5,-29.3 -69.5,-65.3 v -41.9 c 0,-37.1 32,-67.2 71.6,-67.2 h 1927.4 c 39.5,0 71.6,30.1 71.6,67.2 v 41.9 c 0,36 -31.1,65.3 -69.6,65.3" /></g><g
         transform="scale(1.93539)"
         id="g1766"><path
           id="path1768"
           style="fill:#b39d8a;fill-opacity:1;fill-rule:nonzero;stroke:none"
           d="m 16300,10742.8 h -47.4 c -0.1,7.4 -1,14.6 -2.6,21.5 h 49.8 c 0.1,-7.1 0.1,-14.3 0.2,-21.5 m -467.3,0 h -50.8 c 0.1,7.2 0.1,14.4 0.2,21.5 h 53.2 c -1.6,-6.9 -2.5,-14.1 -2.6,-21.5" /></g><g
         transform="scale(1.93552)"
         id="g1770"><path
           id="path1772"
           style="fill:#503825;fill-opacity:1;fill-rule:nonzero;stroke:none"
           d="m 16300,10623.3 h -51.1 c 1.7,7.3 2.6,14.9 2.6,22.8 v 0.2 h 48.2 c 0.1,-7.6 0.2,-15.3 0.3,-23 m -465.8,0 h -54.5 c 0.1,7.7 0.2,15.4 0.2,23 h 51.6 v -0.2 c 0,-7.9 1,-15.5 2.7,-22.8" /></g><g
         transform="scale(2.03653)"
         id="g1774"><path
           id="path1776"
           style="fill:#231f20;fill-opacity:1;fill-rule:nonzero;stroke:none"
           d="m 14279.8,10229.7 c -26.3,0 -47.7,-20.1 -47.7,-44.8 v -41.8 c 0,-25.7 22.3,-46.7 49.8,-46.7 h 1924.8 c 27.4,0 49.7,21 49.7,46.7 v 41.8 c 0,24.7 -21.4,44.8 -47.7,44.8 h -1928.9 m 1926.9,-174.1 h -1924.8 c -51.5,0 -93.3,39.2 -93.3,87.5 v 41.8 c 0,47.2 40.9,85.7 91.2,85.7 h 1928.9 c 50.3,0 91.3,-38.5 91.3,-85.7 v -41.8 c 0,-48.3 -41.9,-87.5 -93.3,-87.5" /></g><g
         transform="scale(1.92749)"
         id="g1778"><path
           id="path1780"
           style="fill:#fff200;fill-opacity:1;fill-rule:nonzero;stroke:none"
           d="m 16229.3,10862.7 h -241.9 c -39,0 -70.7,-34.6 -70.7,-77.1 v -95.2 c 0,-42.6 31.7,-77.1 70.7,-77.1 h 241.9 c 39.1,0 70.7,34.5 70.7,77.1 v 95.2 c 0,42.5 -31.6,77.1 -70.7,77.1" /></g><g
         transform="scale(1.92976)"
         id="g1782"><path
           id="path1784"
           style="fill:#231f20;fill-opacity:1;fill-rule:nonzero;stroke:none"
           d="m 15968.6,10831.9 c -28.4,0 -51.5,-26.5 -51.5,-59 v -95 c 0,-32.6 23.1,-59.1 51.5,-59.1 h 241.6 c 28.4,0 51.5,26.5 51.5,59.1 v 95 c 0,32.5 -23.1,59 -51.5,59 h -241.6 m 241.6,-249 h -241.6 c -49.5,0 -89.8,42.6 -89.8,95 v 95 c 0,52.3 40.3,95 89.8,95 h 241.6 c 49.5,0 89.8,-42.7 89.8,-95 v -95 c 0,-52.4 -40.3,-95 -89.8,-95" /></g><g
         transform="scale(1.92183)"
         id="g1786"><path
           id="path1788"
           style="fill:#754c29;fill-opacity:1;fill-rule:nonzero;stroke:none"
           d="m 16246.8,10850.3 h -182.1 c -29.3,0 -53.2,-22.4 -53.2,-49.9 v -61.6 c 0,-27.5 23.9,-49.9 53.2,-49.9 h 182.1 c 29.4,0 53.2,22.4 53.2,49.9 v 61.6 c 0,27.5 -23.8,49.9 -53.2,49.9" /></g><g
         transform="scale(1.92296)"
         id="g1790"><path
           id="path1792"
           style="fill:#231f20;fill-opacity:1;fill-rule:nonzero;stroke:none"
           d="m 16055.3,10834.9 c -24,0 -43.6,-18.4 -43.6,-40.9 v -61.5 c 0,-22.5 19.6,-40.8 43.6,-40.8 h 182 c 24,0 43.5,18.3 43.5,40.8 v 61.5 c 0,22.5 -19.5,40.9 -43.5,40.9 h -182 m 182,-161.2 h -182 c -34.6,0 -62.8,26.4 -62.8,58.8 v 61.5 c 0,32.5 28.2,58.9 62.8,58.9 h 182 c 34.6,0 62.7,-26.4 62.7,-58.9 v -61.5 c 0,-32.4 -28.1,-58.8 -62.7,-58.8" /></g><g
         transform="scale(1.93822)"
         id="g1794"><path
           id="path1796"
           style="fill:#865439;fill-opacity:1;fill-rule:nonzero;stroke:none"
           d="m 15732.5,12362.9 v -319.4 l 283.7,-102 283.8,102 v 319.4 h -567.5" /></g><g
         transform="scale(1.95639)"
         id="g1798"><path
           id="path1800"
           style="fill:#ffffff;fill-opacity:1;fill-rule:nonzero;stroke:none"
           d="m 16257.7,12209.4 c 0,0 -381.5,-346.3 -389,-356.5 -7.3,10.2 -388.9,356.5 -388.9,356.5 -19,17.2 -42.3,-18 -28.8,-41.9 l 281.7,-514.4 c 0,0 131.3,139.6 136,142.3 4.8,-2.7 131.9,-142.3 131.9,-142.3 l 285.9,514.4 c 13.5,23.9 -9.8,59.1 -28.8,41.9" /></g><g
         transform="scale(1.90683)"
         id="g1802"><path
           id="path1804"
           style="fill:#231f20;fill-opacity:1;fill-rule:nonzero;stroke:none"
           d="m 16300,12077 h -31.7 v 99.8 h 31.7 v -99.8" /></g><g
         transform="scale(1.95924)"
         id="g1806"><path
           id="path1808"
           style="fill:#231f20;fill-opacity:1;fill-rule:nonzero;stroke:none"
           d="m 15825.3,11820.9 c 0.1,-0.3 0.4,-0.7 0.8,-1.2 l -0.8,1.2 m 40.9,0 -0.9,-1.2 c 0.3,0.5 0.7,0.9 0.9,1.2 m -416.3,343.4 c 0.1,-0.7 0.3,-1.4 0.6,-2.1 l 264.8,-483.4 c 110.3,117 114.1,119.2 117.8,121.3 7.8,4.6 17.4,4.6 25.2,0 3.9,-2.2 7.7,-4.4 114,-121 l 268.4,482.9 c 0.4,0.7 0.7,1.5 0.8,2.3 -147.2,-133.6 -361.6,-329 -376.4,-344.8 -4.8,-5.7 -11.9,-9.1 -19.4,-9.1 -7.5,0 -14.7,3.4 -19.4,9.1 -14.9,15.8 -229.2,211.2 -376.4,344.8 m 260,-553.3 c -1.1,0 -2.2,0 -3.2,0.2 -8.1,1 -15,5.8 -19,12.9 l -281.2,513.6 c -15.1,26.6 -4.6,59.3 14,74.2 16.4,13.2 38.1,12.6 53.7,-1.5 200.7,-182.1 325.1,-295.9 371.5,-339.8 46.4,43.9 170.8,157.7 371.4,339.7 l 0.1,0.1 c 15.7,14.1 37.3,14.7 53.8,1.5 18.5,-14.9 29,-47.6 13.7,-74.6 l -285.3,-513.4 c -4,-7.1 -11.1,-11.8 -19.2,-12.8 -8,-0.9 -16.1,2.1 -21.6,8.1 -34.7,38.2 -86.7,95 -113.2,123.2 -27.1,-28.1 -81.1,-85.2 -117.2,-123.5 -4.8,-5.1 -11.4,-7.9 -18.3,-7.9" /></g><g
         transform="scale(1.87245)"
         id="g1810"><path
           id="path1812"
           style="fill:#f5b553;fill-opacity:1;fill-rule:nonzero;stroke:none"
           d="m 16277,13093 c 0,0 -20.4,142.2 -106.9,118.3 -671.1,-100.6 -1085.1,-1310.7 -786.9,-2092.7 22.8,-60.6 29.2,-123.7 36.6,-188.2 56.9,-159.1 637.9,-210 854.9,-222.3 25.3,-1 2.3,2384.9 2.3,2384.9" /></g><g
         transform="scale(1.86727)"
         id="g1814"><path
           id="path1816"
           style="fill:#b68844;fill-opacity:1;fill-rule:nonzero;stroke:none"
           d="m 16297.9,10767.7 c -268.3,20.5 -683.3,58.5 -802.7,189.2 3.1,2.2 6,4.8 8.4,7.7 221.6,-98.6 495.8,-138.8 791.8,-152.8 1.5,-0.1 3,-0.4 4.6,-1 -0.6,-17.9 -1.3,-32.4 -2.1,-43.1" /></g><g
         transform="scale(1.77714)"
         id="g1818"><path
           id="path1820"
           style="fill:#fad6a1;fill-opacity:1;fill-rule:nonzero;stroke:none"
           d="m 16290,11520.7 c -5.5,2.4 -10.9,4.9 -16.4,7.4 -1.1,10.4 -2.4,21 -3.6,31.8 8.8,6.8 17.1,14.2 24.8,22 1.4,-12.4 2.8,-24.8 4.2,-37.2 1,-8.6 -2.9,-17.1 -9,-24" /></g><g
         transform="scale(1.77604)"
         id="g1822"><path
           id="path1824"
           style="fill:#d7be98;fill-opacity:1;fill-rule:nonzero;stroke:none"
           d="m 16291.2,11519.7 c -2.4,2.6 -4.6,5.2 -6.7,7.8 -0.3,2.6 -0.6,5.1 -0.9,7.7 5.5,-2.5 10.9,-5 16.4,-7.4 -2.6,-3 -5.6,-5.8 -8.8,-8.1" /></g><g
         transform="scale(1.8742)"
         id="g1826"><path
           id="path1828"
           style="fill:#231f20;fill-opacity:1;fill-rule:nonzero;stroke:none"
           d="m 16174,13172.9 c -707.1,-121.5 -1057,-1291.4 -780.7,-2053.7 22.4,-57.5 31.4,-131.9 38.3,-195.4 109.8,-136.2 533.8,-175.1 806.1,-195.9 13.1,185.3 6.1,1480.4 -2.3,2350.3 -4.2,24.5 -21.9,94.6 -61.4,94.7 m 85.6,-2503.6 c -253.2,14.3 -847.2,70.4 -880.4,247.4 -6.8,60.2 -14.1,127.1 -34.8,180.7 -62.5,166.4 -94.2,371.3 -94.2,609 -3.4,697.7 287.7,1346.1 898.4,1520.4 26.9,7.5 52.7,3.2 74.5,-12.5 51.2,-37.9 63.2,-119.2 65.1,-131.1 0.5,-8.8 5.4,-595.8 8.3,-1183.8 1.3,-467.5 3.5,-746.3 -3,-1092 -6.8,-130.3 2.6,-125.1 -33.9,-138.1" /></g><g
         transform="scale(1.86787)"
         id="g1830"><path
           id="path1832"
           style="fill:#b68844;fill-opacity:1;fill-rule:nonzero;stroke:none"
           d="m 16299.9,11310.9 -324.5,718.6 c -9.7,21.3 -6.1,46.8 8.7,63.9 L 16300,11394 c 0,-28.4 -0.1,-56 -0.1,-83.1" /></g><g
         transform="scale(1.8686)"
         id="g1834"><path
           id="path1836"
           style="fill:#231f20;fill-opacity:1;fill-rule:nonzero;stroke:none"
           d="m 16300,11292.4 -6.4,14.1 c 0,27.1 0.1,54.7 0.1,83.1 l 5.7,-12.6 0.6,-84.6" /></g><g
         transform="scale(1.84771)"
         id="g1838"><path
           id="path1840"
           style="fill:#b68844;fill-opacity:1;fill-rule:nonzero;stroke:none"
           d="m 16269.3,12425.1 c -85.3,71.6 -118.6,99.5 -101.7,128.8 0.5,-0.5 1.2,-1 1.8,-1.5 l 130.6,-98.9 -30.7,-28.4" /></g><g
         transform="scale(1.87091)"
         id="g1842"><path
           id="path1844"
           style="fill:#f5b553;fill-opacity:1;fill-rule:nonzero;stroke:none"
           d="m 16300,11367.1 -347.2,768.8 178.4,164.9 -150.8,114.2 309.7,283.4 9.9,-1331.3" /></g><g
         transform="scale(1.86751)"
         id="g1846"><path
           id="path1848"
           style="fill:#fad6a1;fill-opacity:1;fill-rule:nonzero;stroke:none"
           d="m 16062.9,12424.4 c -6.3,4.7 -13,9.6 -19.8,14.8 l 256.6,235 0.3,-32.8 -237.1,-217" /></g><g
         transform="scale(1.86849)"
         id="g1850"><path
           id="path1852"
           style="fill:#fad6a1;fill-opacity:1;fill-rule:nonzero;stroke:none"
           d="m 16300,11478.8 -301.3,667 c 96.3,99.1 157.3,132.1 169.9,158.5 7.4,-12.2 5.9,-29.2 -5.1,-39.3 l -151.5,-140.1 287.9,-637.5 0.1,-8.6" /></g><g
         transform="scale(1.87457)"
         id="g1854"><path
           id="path1856"
           style="fill:#231f20;fill-opacity:1;fill-rule:nonzero;stroke:none"
           d="m 15946.9,12106.4 300.2,-664.8 -8.8,1184.8 -255.7,-234 c 209.7,-157.4 160.5,-83.9 -35.7,-286 m 321.3,-783.6 c -7.7,0 -14.8,4.7 -18.3,12.4 l -346.5,767.2 c -4.1,9.1 -2,20.1 5.1,26.7 l 157.9,145.9 -128.8,97.5 c -10.8,7.8 -11.6,26.4 -1.4,35.2 l 309.1,282.9 c 5.9,5.5 14.4,6.7 21.5,3.1 33.2,-6.8 10.5,-1329.7 21.7,-1348.6 0.2,-12.1 -9.3,-22.4 -20.3,-22.3" /></g><g
         transform="scale(2.07638)"
         id="g1858"><path
           id="path1860"
           style="fill:#f5b553;fill-opacity:1;fill-rule:nonzero;stroke:none"
           d="m 15225.1,11807 c 0,0 18.4,128.3 96.4,106.7 605.3,-90.6 978.5,-1181.9 709.6,-1887.1 -20.5,-54.66 -26.3,-111.6 -33,-169.7 -51.4,-143.47 -575.2,-189.39 -771,-200.51 -22.8,-0.93 -2,2150.61 -2,2150.61" /></g><g
         transform="scale(2.03418)"
         id="g1862"><path
           id="path1864"
           style="fill:#b68844;fill-opacity:1;fill-rule:nonzero;stroke:none"
           d="m 15563.2,9884.18 c -0.7,9.87 -1.3,23.13 -1.9,39.56 1.4,0.53 2.8,0.84 4.2,0.9 271.7,12.92 523.5,49.75 726.8,140.26 2.2,-2.6 4.9,-5 7.7,-7 -109.6,-120 -490.5,-154.91 -736.8,-173.72" /></g><g
         transform="scale(2.05331)"
         id="g1866"><path
           id="path1868"
           style="fill:#fad6a1;fill-opacity:1;fill-rule:nonzero;stroke:none"
           d="m 16140.5,9971.14 c -5.3,6.02 -8.7,13.37 -7.8,20.79 6.7,58.77 12.6,116.37 33.4,171.67 110.1,283.5 111.4,654.5 32.5,990.4 3.9,0.5 8,1 12.2,1.6 l 1.8,-12.6 c 0.7,-4.7 3.8,-8.5 7.8,-10.4 79.6,-327.2 75.4,-688.7 -31.4,-983.4 -19.7,-50.4 -28.1,-115.2 -34.3,-171.61 -4.7,-2.19 -9.4,-4.32 -14.2,-6.45" /></g><g
         transform="scale(2.035)"
         id="g1870"><path
           id="path1872"
           style="fill:#d7be98;fill-opacity:1;fill-rule:nonzero;stroke:none"
           d="m 16293.4,10053.8 c -2.8,2 -5.4,4.4 -7.7,7 4.8,2.2 9.5,4.3 14.3,6.5 -0.2,-2.2 -0.5,-4.4 -0.7,-6.7 -1.9,-2.3 -3.8,-4.5 -5.9,-6.8" /></g><g
         transform="scale(2.07108)"
         id="g1874"><path
           id="path1876"
           style="fill:#231f20;fill-opacity:1;fill-rule:nonzero;stroke:none"
           d="m 15343.5,11920.6 c 639.9,-109.9 956.5,-1168.6 706.5,-1858.5 -20.2,-51.9 -28.5,-119.33 -34.7,-176.72 -99.3,-123.27 -483,-158.5 -729.4,-177.31 -11.9,167.68 -5.6,1339.63 2,2126.83 3.9,22.2 19.9,85.7 55.6,85.7 m -77.4,-2265.54 c 229.1,12.94 766.6,63.73 796.6,223.83 6.2,54.49 12.8,115.01 31.6,163.51 56.5,150.6 85.2,336 85.2,551.1 3.1,631.4 -260.4,1218.2 -812.9,1376 -24.5,6.7 -47.8,2.8 -67.5,-11.4 -46.4,-34.3 -57.2,-107.9 -58.9,-118.7 -0.5,-7.9 -4.9,-539.1 -7.5,-1071.2 -1.2,-423.1 -3.2,-675.4 2.7,-988.22 6.2,-117.87 -2.3,-113.17 30.7,-124.92" /></g><g
         transform="scale(1.97969)"
         id="g1878"><path
           id="path1880"
           style="fill:#b68844;fill-opacity:1;fill-rule:nonzero;stroke:none"
           d="m 15984.7,10672 c -0.1,25.5 -0.1,51.7 -0.1,78.4 l 298.1,659.9 c 13.9,-16.2 17.3,-40.2 8.2,-60.3 l -306.2,-678" /></g><g
         transform="scale(1.9414)"
         id="g1882"><path
           id="path1884"
           style="fill:#231f20;fill-opacity:1;fill-rule:nonzero;stroke:none"
           d="m 16293.9,10868.9 0.5,81.5 5.5,12.1 c 0,-27.3 0,-54 0.1,-80 l -6.1,-13.6" /></g><g
         transform="scale(1.97847)"
         id="g1886"><path
           id="path1888"
           style="fill:#b68844;fill-opacity:1;fill-rule:nonzero;stroke:none"
           d="m 16189.4,11603.8 -28.8,26.6 122,92.4 c 0.6,0.4 1.2,0.9 1.7,1.4 15.7,-27.4 -15.3,-53.5 -94.9,-120.4" /></g><g
         transform="scale(1.9782)"
         id="g1890"><path
           id="path1892"
           style="fill:#f5b553;fill-opacity:1;fill-rule:nonzero;stroke:none"
           d="m 15971.6,10750.6 328.4,727 -168.7,156 142.6,108 -292.9,268.1 -9.4,-1259.1" /></g><g
         transform="scale(1.97119)"
         id="g1894"><path
           id="path1896"
           style="fill:#fad6a1;fill-opacity:1;fill-rule:nonzero;stroke:none"
           d="m 16281.2,11770.9 -224.6,205.6 0.2,31 243.2,-222.6 c -6.5,-4.9 -12.8,-9.5 -18.8,-14" /></g><g
         transform="scale(1.97531)"
         id="g1898"><path
           id="path1900"
           style="fill:#fad6a1;fill-opacity:1;fill-rule:nonzero;stroke:none"
           d="m 16015,10858.1 0.1,8.1 272.3,603.1 -143.3,132.4 c -10.4,9.6 -11.8,25.7 -4.8,37.2 11.9,-24.9 69.6,-56.1 160.7,-149.9 l -285,-630.9" /></g><g
         transform="scale(1.98077)"
         id="g1902"><path
           id="path1904"
           style="fill:#231f20;fill-opacity:1;fill-rule:nonzero;stroke:none"
           d="m 16255,11457.3 -284.2,-629.2 8.3,1121.4 242,-221.6 c -198.4,-148.9 -151.8,-79.4 33.9,-270.6 m -304.1,-741.6 c 7.2,0 14,4.4 17.3,11.7 l 327.9,726.1 c 3.9,8.6 1.9,19 -4.8,25.2 l -149.5,138.2 121.9,92.2 c 10.2,7.4 11,25 1.4,33.3 l -292.5,267.8 c -5.7,5.2 -13.7,6.3 -20.4,2.9 -31.4,-6.4 -9.9,-1258.4 -20.5,-1276.3 -0.2,-11.4 8.7,-21.2 19.2,-21.1" /></g><g
         transform="scale(1.92605)"
         id="g1906"><path
           id="path1908"
           style="fill:#2d2424;fill-opacity:1;fill-rule:nonzero;stroke:none"
           d="m 16241,11935.1 c -1.6,25.6 -30,45.8 -64.6,45.8 h -115.3 c -34.6,0 -63,-20.2 -64.6,-45.8 l -58.2,-949.8 c -0.9,-13.1 5.5,-25.8 17.6,-35.3 l 115.9,-91.1 c 25.5,-20 68.4,-20 93.9,0 l 115.9,91.1 c 12,9.5 18.4,22.2 17.6,35.3 l -58.2,949.8" /></g><g
         transform="scale(1.92294)"
         id="g1910"><path
           id="path1912"
           style="fill:#8c8787;fill-opacity:1;fill-rule:nonzero;stroke:none"
           d="m 16144.8,10880.8 c -10.8,0 -20.8,3.2 -28.2,9 l -116.1,91.2 c -7.2,5.7 -11,13.3 -10.5,21.1 l 29.2,476.6 c -8.6,-231.8 -17.3,-464.2 -17.3,-464.2 -0.8,-13.1 5.5,-25.8 17.6,-35.3 l 126.5,-91.3 h 0.1 v 0 c 0,0 0,-0.2 0,-5.2 l 121.3,91.3 c 12.1,14.7 18.5,27.4 17.6,40.5 0,0 -7.4,232.3 -14.7,464.1 l 29.2,-476.5 c 0.5,-7.8 -3.3,-15.4 -10.5,-21.1 l -116.1,-91.2 c -7.4,-5.8 -17.4,-9 -28.1,-9" /></g><g
         transform="scale(1.92915)"
         id="g1914"><path
           id="path1916"
           style="fill:#231f20;fill-opacity:1;fill-rule:nonzero;stroke:none"
           d="m 16035.3,11942.4 c -20.7,0 -37.7,-12 -38.6,-27.4 l -58.2,-948.3 c -0.4,-7.7 3.4,-15.4 10.6,-21 l 115.7,-91 c 7.4,-5.7 17.3,-8.9 28.1,-8.9 10.6,0 20.6,3.2 28,8.9 l 115.7,91 c 7.2,5.6 11,13.3 10.5,21 l -58.1,948.3 c -1,15.4 -17.9,27.4 -38.6,27.4 h -115.1 m 57.6,-1135.2 h -0.1 c -24.7,0 -48.7,7.7 -65.7,21.1 l -115.7,90.9 c -16.8,13.2 -25.7,31.2 -24.6,49.3 l 58.1,948.3 c 2.2,36 41.9,64.2 90.4,64.2 h 115.1 c 48.5,0 88.2,-28.2 90.4,-64.2 v 0 l 58.1,-948.3 c 1.1,-18.1 -7.9,-36.1 -24.6,-49.3 l -115.8,-90.9 c -17,-13.4 -40.9,-21.1 -65.6,-21.1" /></g><g
         transform="scale(1.92865)"
         id="g1918"><path
           id="path1920"
           style="fill:#2d2424;fill-opacity:1;fill-rule:nonzero;stroke:none"
           d="m 16277.7,11896.6 -140.2,113.4 c -22.4,18 -58.6,18 -81,0 l -140.2,-113.4 c -22.3,-18.1 -22.3,-47.4 0,-65.5 l 44.2,-35.7 c 75.4,-61 197.6,-61 273,0 l 44.2,35.7 c 22.3,18.1 22.3,47.4 0,65.5" /></g><g
         transform="scale(1.88142)"
         id="g1922"><path
           id="path1924"
           style="fill:#ffffff;fill-opacity:1;fill-rule:nonzero;stroke:none"
           d="m 16298.7,12163.4 c 0,2.9 0.3,5.9 1,8.8 l 0.3,-0.5 c -0.7,-2.7 -1.2,-5.5 -1.3,-8.3" /></g><g
         transform="scale(1.88164)"
         id="g1926"><path
           id="path1928"
           style="fill:#868485;fill-opacity:1;fill-rule:nonzero;stroke:none"
           d="m 16298.1,12170.3 -0.2,0.5 c 0.5,1.9 1,3.8 1.8,5.7 0.1,-0.2 0.2,-0.5 0.3,-0.7 -0.7,-1.8 -1.4,-3.6 -1.9,-5.5" /></g><g
         transform="scale(1.92799)"
         id="g1930"><path
           id="path1932"
           style="fill:#ffffff;fill-opacity:1;fill-rule:nonzero;stroke:none"
           d="m 16300,11869.7 c -0.2,4.1 -1.1,8.2 -2.6,12.2 l 0.3,0.6 c 1.5,-4.2 2.2,-8.5 2.3,-12.8" /></g><g
         transform="scale(1.92772)"
         id="g1934"><path
           id="path1936"
           style="fill:#868485;fill-opacity:1;fill-rule:nonzero;stroke:none"
           d="m 16299.6,11883.6 c -0.1,0.4 -0.3,0.8 -0.4,1.1 0.1,0.3 0.2,0.5 0.3,0.8 0.1,-0.5 0.3,-0.9 0.5,-1.3 l -0.4,-0.6" /></g><g
         transform="scale(1.92799)"
         id="g1938"><path
           id="path1940"
           style="fill:#8c8787;fill-opacity:1;fill-rule:nonzero;stroke:none"
           d="m 16102.5,11755.3 c -49.4,0 -98.9,15.2 -136.6,45.7 l -44.2,35.7 c -11.2,9.1 -16.8,21 -16.7,32.9 0.1,2.7 0.5,5.4 1.3,8.1 0.4,1.8 1.1,3.6 1.8,5.3 2.7,-6.4 7.3,-12.5 13.6,-17.7 l 44.2,-35.7 c 37.7,-30.5 87.2,-45.8 136.6,-45.8 49.4,0 98.8,15.3 136.5,45.8 l 44.2,35.7 c 6.4,5.2 10.9,11.3 13.6,17.7 0.2,-0.3 0.3,-0.7 0.5,-1.1 1.6,-4 2.4,-8.1 2.6,-12.2 0.1,-11.9 -5.4,-23.9 -16.7,-33 l -44.2,-35.7 c -37.7,-30.5 -87.1,-45.7 -136.5,-45.7" /></g><g
         transform="scale(1.91748)"
         id="g1942"><path
           id="path1944"
           style="fill:#2a2223;fill-opacity:1;fill-rule:nonzero;stroke:none"
           d="m 16190.8,11756.9 c -38.2,0 -76.4,9.1 -109.2,27.2 l 2.7,44.1 c 32.2,-17.1 69.3,-25.7 106.5,-25.7 37.1,0 74.3,8.6 106.5,25.7 l 2.7,-44.1 c -32.9,-18.1 -71,-27.2 -109.2,-27.2" /></g><g
         transform="scale(1.92078)"
         id="g1946"><path
           id="path1948"
           style="fill:#231f20;fill-opacity:1;fill-rule:nonzero;stroke:none"
           d="m 16272,11763.8 -2.7,44.1 c 10.8,5.7 21.1,12.5 30.7,20.2 v -45.5 c -8.7,-7.1 -18.2,-13.4 -28,-18.8 m -218,0 c -9.9,5.4 -19.3,11.7 -28.1,18.8 v 45.5 c 9.6,-7.7 19.9,-14.5 30.8,-20.2 l -2.7,-44.1" /></g><g
         transform="scale(1.93106)"
         id="g1950"><path
           id="path1952"
           style="fill:#231f20;fill-opacity:1;fill-rule:nonzero;stroke:none"
           d="m 16076.9,11987.6 c -8.4,0 -16.2,-2.7 -22.2,-7.5 l -139.9,-113.2 c -6,-4.8 -9.2,-11.1 -9.2,-17.9 0,-6.7 3.2,-13.1 9.2,-17.9 l 44.1,-35.6 c 65,-52.7 170.9,-52.7 236,0 l 44.1,35.6 c 6,4.8 9.2,11.2 9.2,17.9 0,6.8 -3.2,13.1 -9.2,17.9 l -140,113.2 c -5.9,4.8 -13.8,7.5 -22.1,7.5 z m 0,-273.5 c -56,0 -112,17.3 -154.6,51.7 l -44.1,35.7 c -15.8,12.7 -24.4,29.6 -24.4,47.5 0,18 8.6,34.9 24.4,47.5 l 139.9,113.3 c 15.7,12.7 36.6,19.6 58.8,19.6 22.2,0 43,-6.9 58.7,-19.6 l 140.1,-113.3 c 15.7,-12.6 24.3,-29.5 24.3,-47.5 0,-17.9 -8.6,-34.8 -24.3,-47.5 l -44.2,-35.7 c -42.6,-34.4 -98.6,-51.7 -154.6,-51.7" /></g><g
         transform="scale(1.78518)"
         id="g1954"><path
           id="path1956"
           style="fill:#865439;fill-opacity:1;fill-rule:nonzero;stroke:none"
           d="m 16150.8,11934.6 c 53.5,-45.2 105.3,-112.8 112,-180.2 37.2,-373 -585.7,-393.7 -483.8,110.3 l 371.8,69.9" /></g><g
         transform="scale(1.78592)"
         id="g1958"><path
           id="path1960"
           style="fill:#231f20;fill-opacity:1;fill-rule:nonzero;stroke:none"
           d="m 16134.6,11895 c 41.5,-38.1 83.9,-94.4 89.3,-148.7 9.1,-91.4 -26.8,-167.6 -98.5,-208.9 -75.4,-43.6 -172.1,-39.8 -240.5,9.4 -76.2,54.8 -105.9,155.6 -84.6,285.3 l 334.3,62.9 m -179.1,-447 c 67.7,-13.1 140.6,-2.3 202.2,33.3 94.7,54.7 142.3,153.6 130.5,271.4 -6.6,66.7 -52.7,142.1 -123.2,201.7 -7.4,6.3 -17.3,8.8 -26.9,7 l -371.6,-69.9 c -12.9,-2.4 -23.1,-12.5 -25.7,-25.4 -45.4,-224.3 47.1,-329.2 106.3,-371.8 32.4,-23.2 69.5,-38.7 108.4,-46.3" /></g><g
         transform="scale(1.77858)"
         id="g1962"><path
           id="path1964"
           style="fill:#634230;fill-opacity:1;fill-rule:nonzero;stroke:none"
           d="m 16077.7,11554.6 c -6.8,0 -13.5,0.3 -20.1,0.9 123.7,10.8 239,107.4 222.3,274.5 -0.3,3.4 -0.8,6.8 -1.3,10.2 6.4,-15 10.8,-30.3 12.3,-45.4 9.1,-91.8 -26.9,-168.3 -98.9,-209.8 -35.1,-20.3 -75,-30.4 -114.3,-30.4" /></g><g
         transform="scale(1.77891)"
         id="g1966"><path
           id="path1968"
           style="fill:#231f20;fill-opacity:1;fill-rule:nonzero;stroke:none"
           d="m 16074.6,11549.5 c -12.2,0 -24.5,1 -36.6,2.9 5.6,0.1 11.1,0.5 16.5,0.9 6.7,-0.6 13.4,-0.8 20.1,-0.8 39.4,0 79.2,10 114.3,30.3 72,41.5 108,118 98.9,209.7 -1.5,15.2 -5.9,30.5 -12.3,45.5 -0.7,4.2 -1.5,8.3 -2.5,12.5 9.3,-18.9 15.8,-38.4 17.7,-57.7 9.3,-92.9 -27.3,-170.4 -100.3,-212.6 -35.6,-20.5 -75.9,-30.7 -115.8,-30.7" /></g><g
         transform="scale(1.77019)"
         id="g1970"><path
           id="path1972"
           style="fill:#231f20;fill-opacity:1;fill-rule:nonzero;stroke:none"
           d="m 16286.6,11629 c 8,1.5 13.4,9.1 11.9,17.2 l -12.4,70.1 c -1.5,8.1 -9.1,13.4 -17.2,12 -8,-1.4 -13.5,-9.1 -12,-17.2 l 12.5,-70.1 c 1.4,-8 9.1,-13.4 17.2,-12" /></g><g
         transform="scale(1.74976)"
         id="g1974"><path
           id="path1976"
           style="fill:#231f20;fill-opacity:1;fill-rule:nonzero;stroke:none"
           d="m 16286.4,11730.9 c 8.2,1.5 13.6,9.3 12.2,17.4 l -12.7,70.9 c -1.4,8.2 -9.2,13.6 -17.4,12.2 -8.1,-1.5 -13.5,-9.3 -12.1,-17.4 l 12.6,-70.9 c 1.5,-8.2 9.2,-13.6 17.4,-12.2" /></g><g
         transform="scale(1.78558)"
         id="g1978"><path
           id="path1980"
           style="fill:#231f20;fill-opacity:1;fill-rule:nonzero;stroke:none"
           d="m 16016.5,11447.7 c -58.7,-0.3 -116.9,16.9 -164.6,51.2 -58.7,42.1 -150.3,146.1 -105.2,368.9 3.2,15.9 18.7,26.2 34.6,23 16,-3.2 26.2,-18.7 23,-34.7 -28.6,-141.1 0.6,-251 81.9,-309.5 69.3,-49.9 167.3,-53.7 243.7,-9.6 72.8,42 109.2,119.2 100,211.8 -6,60.2 -56.5,122.5 -101.7,160.7 -12.4,10.4 -14,29 -3.5,41.4 10.5,12.4 29,14 41.5,3.5 69.9,-59.1 115.6,-133.8 122.2,-199.8 11.6,-116.6 -35.4,-214.5 -129.1,-268.5 -43.9,-25.4 -93.5,-38.1 -142.8,-38.4" /></g><g
         transform="scale(1.8032)"
         id="g1982"><path
           id="path1984"
           style="fill:#f5b553;fill-opacity:1;fill-rule:nonzero;stroke:none"
           d="m 16119.6,12537.2 c -49.4,-208.5 -73.6,-440.7 -28.3,-655.7 3.8,-17.7 5.6,-36 5.6,-54.3 l -540.2,-84.7 c -78.4,228.1 -168.1,579.7 -66.2,950.6 84.3,307.1 310.6,596.6 599.8,666.2 47,11.3 93,23.5 125.5,31.7 8.3,2 84.2,23.2 83.1,14.7 l -179.3,-868.5" /></g><g
         transform="scale(1.76648)"
         id="g1986"><path
           id="path1988"
           style="fill:#fadaa9;fill-opacity:1;fill-rule:nonzero;stroke:none"
           d="m 15906.3,12029.9 c -113.2,343.1 -131.6,643.3 -56.5,916.8 63.2,230.2 222.3,485.1 450.2,602.6 -195.1,-127.5 -342.4,-353.6 -407.3,-589.9 -97.3,-354.2 -23.5,-690.9 51.9,-923.5 l -38.3,-6" /></g><g
         transform="scale(1.80041)"
         id="g1990"><path
           id="path1992"
           style="fill:#231f20;fill-opacity:1;fill-rule:nonzero;stroke:none"
           d="m 15584.7,11723 c 0.7,0.1 1.3,0.2 2,0.3 l 540.9,84.7 c 18.5,2.9 32.2,18.8 32.2,37.5 0,21.4 -2.2,42.3 -6.4,62.3 -38.6,182.9 -29.1,398.2 28.1,640.1 4.8,20.4 -7.8,40.8 -28.2,45.6 -20.4,4.9 -40.8,-7.8 -45.6,-28.2 -59.9,-252.8 -69.5,-479.3 -28.5,-673.2 1,-4.7 1.8,-9.6 2.5,-14.5 l -475.2,-74.4 c -111,336.7 -129.1,631.2 -55.4,899.6 73.6,267.7 279.3,569.6 573,640.3 30.9,7.5 61,15.2 87.6,22 22,5.7 41,10.5 55.3,13.9 20.4,4.9 33,25.3 28.1,45.7 -4.8,20.4 -25.3,33 -45.6,28.2 -15,-3.6 -34.3,-8.5 -56.6,-14.3 -26.4,-6.7 -56.3,-14.4 -86.6,-21.7 -144.8,-34.9 -282.1,-123.6 -397.1,-256.5 -105,-121.5 -187.1,-276.9 -231.2,-437.5 -80.1,-291.5 -58.2,-610.3 66.9,-974.5 5.8,-16.8 22.4,-27.2 39.8,-25.4" /></g><g
         transform="scale(1.77758)"
         id="g1994"><path
           id="path1996"
           style="fill:#ac8141;fill-opacity:1;fill-rule:nonzero;stroke:none"
           d="m 16252.4,12024.5 c -0.9,7.1 -2.1,14.1 -3.6,21.1 -38.9,174.6 -24.4,361.5 13.5,535.7 6.4,29.4 19.4,56.7 37.7,79.9 -47.4,-229.8 -52.3,-436.9 -14.3,-616.4 1,-4.8 1.8,-9.7 2.5,-14.7 l -35.8,-5.6" /></g><g
         transform="scale(1.78337)"
         id="g1998"><path
           id="path2000"
           style="fill:#231f20;fill-opacity:1;fill-rule:nonzero;stroke:none"
           d="m 16201.1,11963.8 c -0.2,7.2 -0.7,14.5 -1.6,21.6 l 35.7,5.6 c -0.6,5 -1.5,9.9 -2.5,14.7 -37.8,178.9 -32.9,385.3 14.3,614.4 12.4,15.7 27.3,29.5 44.2,40.8 l 8.8,5.9 c -51,-195 -86,-442.3 -41.4,-642.9 3.7,-16.5 5.3,-33.5 5.2,-50.7 l -62.7,-9.4" /></g><g
         transform="scale(1.79179)"
         id="g2002"><path
           id="path2004"
           style="fill:#ac8141;fill-opacity:1;fill-rule:nonzero;stroke:none"
           d="m 16237.3,11911.2 c -0.4,18.4 -2.5,36.5 -6.2,53.9 -38.8,183.7 -29.3,400.1 28.3,643.1 1.5,6.5 1.3,12.9 -0.4,18.9 l 18.3,-12.6 c 12.5,-1.4 22.7,-30.9 19.7,-43.1 -46.1,-188.4 -74.7,-418.4 -32.8,-606.8 l 0.1,-0.5 c 4.9,-22.2 -7.2,-43.9 -27,-52.9" /></g><g
         transform="scale(1.78748)"
         id="g2006"><path
           id="path2008"
           style="fill:#231f20;fill-opacity:1;fill-rule:nonzero;stroke:none"
           d="m 16245.9,11933.4 c -0.3,14.4 -2,28.6 -5,42.5 -38.7,173.6 -36,358.3 1.7,531.6 10.7,49.1 35.6,163.7 35.6,163.7 l 20,-13.7 c 1.6,-6 1.8,-12.5 0.3,-18.9 -57.7,-243.6 -67.3,-460.6 -28.4,-644.8 3.7,-17.3 5.8,-35.5 6.3,-54 -4,-1.8 -8.3,-3.1 -12.9,-3.8 l -17.6,-2.6" /></g><g
         transform="scale(2.2212)"
         id="g2010"><path
           id="path2012"
           style="fill:#865439;fill-opacity:1;fill-rule:nonzero;stroke:none"
           d="m 15970.8,10997.4 c 55.5,9.4 118.9,35.1 151.1,79 178.1,243 -244.6,511.7 -379.9,121.2 l 228.8,-200.2" /></g><g
         transform="scale(2.20847)"
         id="g2014"><path
           id="path2016"
           style="fill:#231f20;fill-opacity:1;fill-rule:nonzero;stroke:none"
           d="m 16070.4,11088.8 c 44.6,9.5 97.2,31.2 123.3,66.9 43.9,59.9 50.2,127.7 17.3,185.9 -34.7,61.4 -103.5,98.4 -171.4,92.3 -75.6,-6.9 -137.7,-64.9 -176.1,-163.9 l 206.9,-181.2 m 58.9,384.9 c 52.6,-18.7 98.9,-56.2 127.2,-106.3 43.5,-77 36,-165.4 -20.6,-242.6 -32.1,-43.8 -95.2,-77.4 -168.7,-89.9 -7.8,-1.3 -15.7,1 -21.6,6.1 l -230.1,201.5 c -8,7 -11,18.2 -7.5,28.2 60.6,174.9 168.2,209.9 226.9,215.3 32,2.9 64.3,-1.6 94.4,-12.3" /></g><g
         transform="scale(2.20192)"
         id="g2018"><path
           id="path2020"
           style="fill:#634230;fill-opacity:1;fill-rule:nonzero;stroke:none"
           d="m 16214.7,11162.3 c 1.8,2.1 3.5,4.3 5.1,6.5 80.2,109.4 39.6,224 -42,282.3 33.5,-16.1 62.5,-42.3 81.4,-75.7 33,-58.5 26.7,-126.4 -17.3,-186.5 -7.3,-10 -16.6,-18.8 -27.2,-26.6" /></g><g
         transform="scale(2.20122)"
         id="g2022"><path
           id="path2024"
           style="fill:#231f20;fill-opacity:1;fill-rule:nonzero;stroke:none"
           d="m 16213,11158.2 c 2.4,2.5 4.6,5 6.9,7.6 10.6,7.8 19.9,16.7 27.2,26.6 44,60.1 50.3,128.1 17.3,186.6 -18.9,33.4 -47.9,59.7 -81.4,75.7 -3.7,2.6 -7.3,5.1 -11.1,7.4 39,-15.3 73.2,-44.1 94.6,-81.9 33.5,-59.3 27.1,-128.3 -17.5,-189.2 -9.3,-12.6 -21.8,-23.5 -36,-32.8" /></g><g
         transform="scale(2.19944)"
         id="g2026"><path
           id="path2028"
           style="fill:#231f20;fill-opacity:1;fill-rule:nonzero;stroke:none"
           d="m 16294.4,11388.5 c 5,-4.3 5.6,-11.9 1.3,-16.9 l -37.3,-43.4 c -4.3,-5 -11.8,-5.6 -16.8,-1.3 -5,4.3 -5.6,11.8 -1.3,16.8 l 37.3,43.5 c 4.3,5 11.8,5.6 16.8,1.3" /></g><g
         transform="scale(2.18369)"
         id="g2030"><path
           id="path2032"
           style="fill:#231f20;fill-opacity:1;fill-rule:nonzero;stroke:none"
           d="m 16294.4,11571.5 c 5,-4.4 5.6,-12 1.3,-17 l -37.6,-43.8 c -4.3,-5 -11.9,-5.6 -16.9,-1.3 -5.1,4.3 -5.7,11.9 -1.3,17 l 37.5,43.8 c 4.4,5 11.9,5.6 17,1.3" /></g><g
         transform="scale(2.20813)"
         id="g2034"><path
           id="path2036"
           style="fill:#231f20;fill-opacity:1;fill-rule:nonzero;stroke:none"
           d="m 16173.2,11453.3 c -40.7,24.4 -88.3,36.4 -135.6,32.1 -58.1,-5.3 -164.7,-40.1 -224.9,-213.7 -4.3,-12.4 2.3,-26 14.7,-30.3 12.4,-4.3 25.9,2.3 30.2,14.7 38.2,110 103.6,174.6 184.3,181.9 68.8,6.3 138.5,-31.3 173.7,-93.4 33.4,-59.2 27,-127.9 -17.5,-188.6 -28.9,-39.5 -89.6,-62.1 -136.8,-70.1 -13,-2.2 -21.7,-14.5 -19.4,-27.4 2.1,-13 14.4,-21.7 27.4,-19.5 73,12.4 135.5,45.6 167.2,88.9 56,76.4 63.5,163.9 20.5,240.1 -20.2,35.6 -49.5,64.9 -83.8,85.3" /></g><g
         transform="scale(2.18135)"
         id="g2038"><path
           id="path2040"
           style="fill:#f5b553;fill-opacity:1;fill-rule:nonzero;stroke:none"
           d="m 15043.3,11019.3 c 437.9,64.5 753.9,234.7 926.7,391.1 10.7,9.7 21.2,19.4 31.4,29.3 l 298.6,-286.2 c -105.6,-157.6 -396.9,-431.9 -677.7,-544.7 0,0 -253.1,-103.7 -402.5,-112 -75.3,-4.1 -145.6,11.9 -206.3,61.5 -29.5,24 -26.2,392.9 29.8,461" /></g><g
         transform="scale(2.17661)"
         id="g2042"><path
           id="path2044"
           style="fill:#b68844;fill-opacity:1;fill-rule:nonzero;stroke:none"
           d="m 15315.9,10558 c 10.1,13.3 22.1,26 27.2,27.1 139.4,31.6 295.4,95.5 295.4,95.5 259.3,104.2 527.6,345.7 650.9,506.7 l 10.6,-10.2 c -112.7,-156.2 -389.5,-410.8 -653.6,-516.9 -2.1,-0.9 -187.6,-76.4 -330.5,-102.2" /></g><g
         transform="scale(2.14315)"
         id="g2046"><path
           id="path2048"
           style="fill:#fad6a1;fill-opacity:1;fill-rule:nonzero;stroke:none"
           d="m 15407.6,11160.1 c -21.3,0 -40,12.6 -48.7,30.9 371,54.8 678.9,191 915.1,404.9 4.3,3.9 8.7,7.9 13.1,11.9 l 12.9,-12.4 c -18,-17.3 -42.4,-40.7 -49.8,-47.5 -166.8,-150.9 -426.7,-314.4 -833,-386.9 -3.2,-0.6 -6.5,-0.9 -9.6,-0.9" /></g><g
         transform="scale(2.18548)"
         id="g2050"><path
           id="path2052"
           style="fill:#231f20;fill-opacity:1;fill-rule:nonzero;stroke:none"
           d="m 15227.9,10498.2 c -1,6.9 3.7,13.3 10.5,14.4 144.1,22.7 342.3,103.4 344.5,104.4 263,105.6 538.7,359.2 650.9,514.7 l -262.2,251.3 c -4.2,-3.9 -8.5,-7.9 -12.8,-11.7 -231.8,-209.9 -534,-343.5 -898.1,-397.1 -15,-2.2 -29,8.1 -31.2,23.1 -2.2,15 8.2,29 23.2,31.2 353.2,52 645.6,181 869.3,383.5 10.3,9.3 20.6,19 30.7,28.7 10.6,10.2 27.4,10.2 38.1,0 l 298,-285.6 c 9.6,-9.2 11.2,-24 3.8,-35.1 -102.4,-152.9 -392.1,-434.7 -689,-553.9 -9.2,-3.8 -206.4,-84.1 -356.8,-107.8 -7.1,-1.1 -13.7,3.8 -14.7,10.8 l -4.2,29.1" /></g><g
         transform="scale(2.04894)"
         id="g2054"><path
           id="path2056"
           style="fill:#231f20;fill-opacity:1;fill-rule:nonzero;stroke:none"
           d="m 16277,11261.4 c -4.1,14.2 -19,22.5 -33.3,18.4 -14.2,-4.1 -22.4,-19 -18.3,-33.2 l 23,-80.3 51.6,14.8 -23,80.3" /></g><g
         transform="scale(1.79018)"
         id="g2058"><path
           id="path2060"
           style="fill:#865439;fill-opacity:1;fill-rule:nonzero;stroke:none"
           d="m 16300,14641.2 c 0,-300.7 -243.8,-544.5 -544.5,-544.5 -300.7,0 -544.4,243.8 -544.4,544.5 0,300.7 243.7,544.5 544.4,544.5 300.7,0 544.5,-243.8 544.5,-544.5" /></g><g
         transform="scale(1.76775)"
         id="g2062"><path
           id="path2064"
           style="fill:#c8b2a6;fill-opacity:1;fill-rule:nonzero;stroke:none"
           d="m 15449.2,14900.4 c 35.6,247.5 249.1,438.2 506.3,438.2 132.6,0 253.5,-50.7 344.5,-133.7 -2.7,-3.8 -5.4,-7.6 -8,-11.4 -90,62.7 -198.8,98.9 -314.3,98.9 -20.9,0 -42.1,-1.2 -63.3,-3.6 -225.5,-25.8 -403.5,-184.1 -465.2,-388.4" /></g><g
         transform="scale(1.7945)"
         id="g2066"><path
           id="path2068"
           style="fill:#000000;fill-opacity:1;fill-rule:nonzero;stroke:none"
           d="m 15717.6,15109.9 c -277.8,0 -503.9,-226.1 -503.9,-503.9 0,-277.9 226.1,-504 503.9,-504 277.9,0 504,226.1 504,504 0,277.8 -226.1,503.9 -504,503.9 m 0,-1086.3 c -321.1,0 -582.4,261.2 -582.4,582.4 0,321.1 261.3,582.3 582.4,582.3 321.2,0 582.4,-261.2 582.4,-582.3 0,-321.2 -261.2,-582.4 -582.4,-582.4" /></g><g
         transform="scale(1.78285)"
         id="g2070"><path
           id="path2072"
           style="fill:#aa784b;fill-opacity:1;fill-rule:nonzero;stroke:none"
           d="m 16300,14620.9 c 0,-218.2 -176.9,-395.1 -395.1,-395.1 -218.1,0 -395,176.9 -395,395.1 0,218.1 176.9,395 395,395 218.2,0 395.1,-176.9 395.1,-395" /></g><g
         transform="scale(1.75896)"
         id="g2074"><path
           id="path2076"
           style="fill:#7b593c;fill-opacity:1;fill-rule:nonzero;stroke:none"
           d="m 15849,14553.6 c -67.1,68.6 -108.5,162.4 -108.5,265.8 0,209.7 170.6,380.4 380.4,380.4 64.7,0 125.7,-16.2 179.1,-44.9 -3.4,-5.8 -6.8,-11.6 -10.1,-17.4 -29,6.7 -59.4,10.3 -90.5,10.3 -221.1,0 -400.4,-179.3 -400.4,-400.4 0,-70.4 18.2,-136.4 50,-193.8" /></g><g
         transform="scale(1.78501)"
         id="g2078"><path
           id="path2080"
           style="fill:#000000;fill-opacity:1;fill-rule:nonzero;stroke:none"
           d="m 15885.7,14978 c -206.7,0 -374.9,-168.1 -374.9,-374.8 0,-206.7 168.2,-374.9 374.9,-374.9 206.7,0 374.9,168.2 374.9,374.9 0,206.7 -168.2,374.8 -374.9,374.8 m 0,-789.1 c -228.4,0 -414.3,185.8 -414.3,414.3 0,228.4 185.9,414.3 414.3,414.3 228.4,0 414.3,-185.9 414.3,-414.3 0,-228.5 -185.9,-414.3 -414.3,-414.3" /></g><g
         transform="scale(2.13868)"
         id="g2082"><path
           id="path2084"
           style="fill:#865439;fill-opacity:1;fill-rule:nonzero;stroke:none"
           d="m 15388.5,12255.4 c 0,-251.7 204.1,-455.7 455.8,-455.7 251.6,0 455.7,204 455.7,455.7 0,251.7 -204.1,455.8 -455.7,455.8 -251.7,0 -455.8,-204.1 -455.8,-455.8" /></g><g
         transform="scale(2.1338)"
         id="g2086"><path
           id="path2088"
           style="fill:#c8b2a6;fill-opacity:1;fill-rule:nonzero;stroke:none"
           d="m 16300,12344.2 c -51.2,169.3 -198.6,300.5 -385.4,321.8 -17.6,2.1 -35.2,3 -52.5,3 -97.2,0 -188.7,-30.9 -263.9,-84.4 -2.1,3 -4.2,6 -6.3,8.9 75.7,70.6 177.2,113.8 288.6,113.8 213.1,0 389.9,-158 419.5,-363.1" /></g><g
         transform="scale(2.143)"
         id="g2090"><path
           id="path2092"
           style="fill:#000000;fill-opacity:1;fill-rule:nonzero;stroke:none"
           d="m 15812.3,12652.7 c 232.7,0 422,-189.3 422,-422 0,-232.7 -189.3,-422 -422,-422 -232.6,0 -422,189.3 -422,422 0,232.7 189.4,422 422,422 m 0,-909.6 c 268.9,0 487.7,218.7 487.7,487.6 0,268.9 -218.8,487.7 -487.7,487.7 -268.9,0 -487.7,-218.8 -487.7,-487.7 0,-268.9 218.8,-487.6 487.7,-487.6" /></g><g
         transform="scale(2.11285)"
         id="g2094"><path
           id="path2096"
           style="fill:#aa784b;fill-opacity:1;fill-rule:nonzero;stroke:none"
           d="m 15633.3,12337.3 c 0,-184.1 149.2,-333.4 333.4,-333.4 184.1,0 333.3,149.3 333.3,333.4 0,184.1 -149.2,333.3 -333.3,333.3 -184.2,0 -333.4,-149.2 -333.4,-333.3" /></g><g
         transform="scale(2.11069)"
         id="g2098"><path
           id="path2100"
           style="fill:#7b593c;fill-opacity:1;fill-rule:nonzero;stroke:none"
           d="m 16209.6,12128.4 c 26.5,47.8 41.6,102.9 41.6,161.5 0,184.3 -149.3,333.7 -333.6,333.7 -27.7,0 -54.6,-3.4 -80.2,-9.8 -2.6,4.5 -5.2,9 -7.8,13.5 45.5,25.2 97.8,39.6 153.4,39.6 174.8,0 317,-142.2 317,-317 0,-86.1 -34.5,-164.3 -90.4,-221.5" /></g><g
         transform="scale(2.11501)"
         id="g2102"><path
           id="path2104"
           style="fill:#000000;fill-opacity:1;fill-rule:nonzero;stroke:none"
           d="m 15950.4,12641 c 174.4,0 316.3,-141.9 316.3,-316.3 0,-174.5 -141.9,-316.4 -316.3,-316.4 -174.5,0 -316.4,141.9 -316.4,316.4 0,174.4 141.9,316.3 316.4,316.3 m 0,-666 c 192.7,0 349.6,156.9 349.6,349.7 0,192.8 -156.9,349.6 -349.6,349.6 -192.9,0 -349.7,-156.8 -349.7,-349.6 0,-192.8 156.8,-349.7 349.7,-349.7" /></g><g
         transform="scale(2.06705)"
         id="g2106"><path
           id="path2108"
           style="fill:#865439;fill-opacity:1;fill-rule:nonzero;stroke:none"
           d="m 16300,12304.6 c 0,436.1 -301.1,894.4 -736.2,1114.3 -42.1,21.3 -66.7,65.2 -66.4,112.4 -0.4,69.1 58.7,214.7 -20.5,214.8 -69.5,0 -221.9,-112.1 -257.7,-186 -6.9,-14.4 -22.8,-22.1 -38.6,-19.7 -70.6,9.6 7,135.5 -61.4,132.3 -41.6,0 -121.4,-51.4 -169.1,-101.5 -13.6,-14.3 -31.7,-23.3 -51.3,-25.3 -653.5,-66.3 -1165.4,-672.7 -1165.4,-1241.3 39.8,-598.6 295.1,-705.4 989.9,-798.6 194.7,-26.2 392,-26.1 586.6,0 695.1,93.4 950,199.8 990.1,798.6" /></g><g
         transform="scale(2.05869)"
         id="g2110"><path
           id="path2112"
           style="fill:#634230;fill-opacity:1;fill-rule:nonzero;stroke:none"
           d="m 15077.4,11566.2 c -96.9,0 -193.7,6.4 -289.9,19.3 -599.8,80.5 -846.5,172.9 -932.3,533.4 117.3,-304.5 392.8,-384.3 927.9,-456.1 97.7,-13.1 196,-19.6 294.3,-19.6 98.5,0 196.9,6.5 294.7,19.7 535.2,71.9 810.4,151.5 927.9,455.7 -86.1,-360 -332.8,-452.5 -932.3,-533 -96.4,-13 -193.3,-19.4 -290.3,-19.4" /></g><g
         transform="scale(2.05653)"
         id="g2114"><path
           id="path2116"
           style="fill:#c8b2a6;fill-opacity:1;fill-rule:nonzero;stroke:none"
           d="m 16300,12679 c -118.6,293.6 -355.8,559.1 -656.6,711.2 -41.6,20.9 -66.2,63.9 -66.8,110.3 13.7,-17.6 31.2,-32.2 51.8,-42.6 321.7,-162.6 570,-459 671.6,-778.9" /></g><g
         transform="scale(1.96407)"
         id="g2118"><path
           id="path2120"
           style="fill:#c8b2a6;fill-opacity:1;fill-rule:nonzero;stroke:none"
           d="m 14536.3,13264.6 c 148.2,488.5 621,903.6 1147.2,957 28.7,2.9 55.6,16.1 75.7,37.2 49.3,51.8 121,93.7 150.4,96 0.4,-7.5 -0.3,-18.9 -0.8,-26.5 -0.7,-10.9 -1.6,-25.5 -0.1,-40.7 -44.7,-2.6 -125.7,-55.3 -174.7,-106.8 -14.3,-15 -33.4,-24.5 -54,-26.5 -527.6,-53.6 -967.5,-441.7 -1143.7,-889.7 m 1446.4,883.4 c -1.8,0 -3.7,0.1 -5.5,0.4 l -0.6,0.1 c -23.2,3.2 -39,24.9 -35.2,47.9 1.6,9.5 2.9,18.8 3.8,27.6 7.3,-3.8 16,-6.6 26.3,-8 3.7,-0.6 7.4,-0.8 11,-0.8 27.8,0 53.9,15.7 66,40.7 15,31 58.7,75.8 111.4,114.1 59,42.9 107.1,62.1 128.4,62.1 2.9,0 4.5,-0.4 4.8,-0.4 0.1,0 0.1,0 0.1,0 6.8,-7.7 4,-38.5 -0.2,-67 -1.5,0.2 -3,0.2 -4.6,0.2 -73.1,0 -233.5,-117.9 -271.2,-195.8 -6.3,-13.2 -20,-21.1 -34.5,-21.1" /></g><g
         transform="scale(2.07124)"
         id="g2122"><path
           id="path2124"
           style="fill:#231f20;fill-opacity:1;fill-rule:nonzero;stroke:none"
           d="m 13738.6,12280.8 c 37.4,-558.2 249.6,-670.3 959.3,-765.5 191.3,-25.6 385.3,-25.6 576.7,0.1 709.5,95.3 921.8,207.4 959.5,765.4 -0.5,423.9 -295.1,868.5 -716.7,1081.5 -52.4,26.5 -84.7,80.9 -84.3,141.9 -0.1,22.6 5,50.1 10.3,79.3 5,27 16.7,90.2 6.7,101.5 0.1,-0.2 -1.5,0.3 -4.6,0.3 -20.2,0 -65.8,-18.2 -121.7,-58.8 -50,-36.4 -91.5,-78.8 -105.7,-108.2 -13,-26.9 -42.9,-42.4 -73,-37.9 -65.6,9.1 -61.5,74.9 -59.4,106.5 0.4,7.2 1.1,18 0.7,25.1 -27.9,-2.1 -95.9,-41.9 -142.6,-91 -19.1,-20 -44.6,-32.5 -71.8,-35.3 -603.4,-61.2 -1132.7,-624.1 -1133.4,-1204.9 m 1247.5,-850.6 c -99.3,0 -198.4,6.6 -297,19.8 -355.6,47.7 -593,98.3 -754,215.4 -163.2,118.7 -241.7,301.7 -262.3,612.1 l -0.1,2.2 c 0,285.3 125.9,587.6 345.5,829.5 229.6,253 530.4,410 847.1,442.1 11.6,1.2 22.5,6.5 30.7,15.1 43.9,46.1 132.2,111 191.8,111.6 24,0.9 38.6,-8.5 46.6,-16.7 20.6,-21 18.7,-51.6 17,-78.5 -0.7,-10.8 -1.9,-30.4 0.8,-36.7 0.5,-0.1 1.1,-0.3 2.2,-0.4 l 0.6,-0.1 c 1.7,-0.3 3.4,0.5 3.8,1.4 39,80.6 199.6,204.2 286.7,204.2 29.2,0 46.2,-13.1 55.3,-24.1 29.6,-35.5 18.3,-96.6 7.5,-155.6 -4.6,-24.8 -9.4,-50.6 -9.3,-67.4 -0.3,-36.2 18.2,-67.8 48.1,-83 443.3,-223.9 752.9,-693.3 752.9,-1141.4 l -0.1,-2.2 c -20.8,-310.5 -99.3,-493.5 -262.4,-612.1 -160.9,-117 -398.4,-167.5 -754.1,-215.3 -98.7,-13.3 -198,-19.9 -297.3,-19.9" /></g><g
         transform="scale(2.0252)"
         id="g2126"><path
           id="path2128"
           style="fill:#c68b59;fill-opacity:1;fill-rule:nonzero;stroke:none"
           d="m 16300,12870.1 c 0,260.5 -303.8,471.7 -678.5,471.7 -92.6,0 -180.9,-12.9 -261.4,-36.2 -21.5,-6.3 -44.6,-6.3 -66.2,0 -80.4,23.3 -168.7,36.2 -261.4,36.2 -374.7,0 -678.5,-211.2 -678.5,-471.7 0,-145.8 95.2,-276.2 244.8,-362.7 31.3,-18.1 49.8,-49.5 49.7,-83.3 v -0.6 c 0,-260.5 303.8,-471.7 678.5,-471.7 374.7,0 678.5,211.2 678.5,471.7 v 0.6 c 0,33.8 18.4,65.2 49.7,83.3 149.6,86.5 244.8,216.9 244.8,362.7" /></g><g
         transform="scale(2.02736)"
         id="g2130"><path
           id="path2132"
           style="fill:#231f20;fill-opacity:1;fill-rule:nonzero;stroke:none"
           d="m 15016.5,13310.3 c -364.2,0 -660.4,-203.6 -660.4,-453.9 0,-134 86,-260.6 235.9,-347.3 36.5,-21.2 58.3,-57.9 58.3,-98.3 0,-250.8 296.2,-454.3 660.4,-454.3 364.2,0 660.4,203.5 660.4,453.8 0,40.9 21.8,77.6 58.3,98.8 149.9,86.7 235.9,213.3 235.9,347.3 0,250.3 -296.3,453.9 -660.4,453.9 -88.9,0 -175.1,-12 -256.3,-35.6 -24.8,-7.2 -51,-7.2 -75.8,0 -81.2,23.6 -167.5,35.6 -256.3,35.6 m 294.2,-1388.6 c -383.3,0 -695.2,219.2 -695.2,488.6 0.1,28.4 -15.2,53.9 -40.9,68.7 -160.9,93.1 -253.2,230.7 -253.2,377.4 0,269.4 311.8,488.6 695.1,488.6 92.2,0 181.6,-12.4 266,-37 18.4,-5.3 38,-5.3 56.4,0 84.3,24.6 173.8,37 266,37 383.3,0 695.1,-219.2 695.1,-488.6 0,-146.7 -92.3,-284.3 -253.2,-377.4 -25.7,-14.8 -41,-40.3 -41,-68.1 0,-270 -311.8,-489.2 -695.1,-489.2" /></g><g
         transform="scale(2.00013)"
         id="g2134"><path
           id="path2136"
           style="fill:#f1f2f2;fill-opacity:1;fill-rule:nonzero;stroke:none"
           d="m 16300,12922.7 c 0,-142.7 -115.7,-258.4 -258.4,-258.4 -142.7,0 -258.4,115.7 -258.4,258.4 0,142.7 115.7,258.4 258.4,258.4 142.7,0 258.4,-115.7 258.4,-258.4" /></g><g
         transform="scale(1.99884)"
         id="g2138"><path
           id="path2140"
           style="fill:#231f20;fill-opacity:1;fill-rule:nonzero;stroke:none"
           d="m 16051.9,12683 c -136.8,0 -248,111.2 -248,248 0,136.8 111.2,248.1 248,248.1 136.8,0 248.1,-111.3 248.1,-248.1 0,-136.8 -111.3,-248 -248.1,-248" /></g><g
         transform="scale(1.96367)"
         id="g2142"><path
           id="path2144"
           style="fill:#f1f2f2;fill-opacity:1;fill-rule:nonzero;stroke:none"
           d="m 16300,13261.5 c 0,-42.3 -34.4,-76.7 -76.7,-76.7 -42.4,0 -76.8,34.4 -76.8,76.7 0,42.4 34.4,76.8 76.8,76.8 42.3,0 76.7,-34.4 76.7,-76.8" /></g><g
         transform="scale(1.9941)"
         id="g2146"><path
           id="path2148"
           style="fill:#231f20;fill-opacity:1;fill-rule:nonzero;stroke:none"
           d="m 16300,13252.3 c 0,-29.1 -94,0 -209.9,0 -115.9,0 -209.9,-29.1 -209.9,0 0,29.1 94,87.8 209.9,87.8 115.9,0 209.9,-58.7 209.9,-87.8" /></g><g
         transform="scale(1.87191)"
         id="g2150"><path
           id="path2152"
           style="fill:#f1f2f2;fill-opacity:1;fill-rule:nonzero;stroke:none"
           d="m 16300,13807.8 c 0,-148.2 -123.6,-268.3 -276.1,-268.3 -152.4,0 -276.1,120.1 -276.1,268.3 0,148.2 123.7,268.3 276.1,268.3 152.5,0 276.1,-120.1 276.1,-268.3" /></g><g
         transform="scale(1.87063)"
         id="g2154"><path
           id="path2156"
           style="fill:#231f20;fill-opacity:1;fill-rule:nonzero;stroke:none"
           d="m 16035,13560 c -146.2,0 -265.1,115.5 -265.1,257.3 0,141.9 118.9,257.3 265.1,257.3 146.1,0 265,-115.4 265,-257.3 0,-141.8 -118.9,-257.3 -265,-257.3" /></g><g
         transform="scale(1.83546)"
         id="g2158"><path
           id="path2160"
           style="fill:#f1f2f2;fill-opacity:1;fill-rule:nonzero;stroke:none"
           d="m 16300,14187.9 c 0,-45.4 -36.8,-82.1 -82.1,-82.1 -45.3,0 -82.1,36.7 -82.1,82.1 0,45.3 36.8,82.1 82.1,82.1 45.3,0 82.1,-36.8 82.1,-82.1" /></g><g
         transform="scale(1.86604)"
         id="g2162"><path
           id="path2164"
           style="fill:#231f20;fill-opacity:1;fill-rule:nonzero;stroke:none"
           d="m 16300,14161.8 c 0,-31.1 -100.4,0 -224.3,0 -123.9,0 -224.3,-31.1 -224.3,0 0,31 100.4,93.8 224.3,93.8 123.9,0 224.3,-62.8 224.3,-93.8" /></g><g
         transform="scale(1.93986)"
         id="g2166"><path
           id="path2168"
           style="fill:#231f20;fill-opacity:1;fill-rule:nonzero;stroke:none"
           d="m 16300,12836.5 c 0,12.7 -10.2,23 -22.8,23.1 h -0.2 c -12.6,0 -22.9,-10.2 -22.9,-22.8 -0.1,-9.4 -1.7,-21.5 -12,-32.7 -5.2,-5.8 -12.6,-11.3 -23.2,-16.1 -27.5,-12.7 -61.9,-14.4 -80.3,-14.3 -30.5,0.1 -59.5,11.7 -81.7,32.5 -20.9,19.7 -32.7,45.2 -32.6,70 v 0.1 0.2 c 0,0.6 -0.2,1.3 -0.2,1.9 -0.1,0.8 -0.2,1.8 -0.3,2.6 -0.2,0.7 -0.4,1.3 -0.6,2 l -0.1,0.1 c -0.2,0.7 -0.3,1.5 -0.6,2.1 -0.4,0.7 -0.7,1.3 -1.1,1.9 -0.3,0.7 -0.6,1.4 -1.1,2 -0.3,0.6 -0.8,1.1 -1.3,1.7 -0.5,0.6 -0.9,1.2 -1.4,1.7 -0.6,0.5 -1.1,1 -1.7,1.4 -0.6,0.5 -1.1,1 -1.7,1.4 -0.6,0.4 -1.3,0.7 -2,1.1 -0.6,0.3 -1.2,0.8 -1.9,1 -0.7,0.3 -1.5,0.5 -2.2,0.7 -0.7,0.2 -1.4,0.6 -2.1,0.7 -0.8,0.2 -1.6,0.2 -2.4,0.3 -0.7,0 -1.4,0.2 -2.1,0.2 h -0.2 -0.1 c -0.7,0 -1.4,-0.2 -2.1,-0.2 -0.8,-0.1 -1.6,-0.1 -2.4,-0.3 -0.8,-0.1 -1.5,-0.5 -2.2,-0.7 -0.7,-0.2 -1.4,-0.4 -2.1,-0.7 -0.8,-0.3 -1.4,-0.7 -2.1,-1.1 -0.6,-0.3 -1.2,-0.6 -1.8,-1 -0.7,-0.4 -1.3,-1 -1.8,-1.5 -0.5,-0.4 -1.1,-0.8 -1.6,-1.3 -0.5,-0.5 -1,-1.2 -1.5,-1.8 -0.4,-0.5 -0.8,-1 -1.3,-1.6 -0.4,-0.6 -0.7,-1.3 -1.1,-2 -0.3,-0.6 -0.7,-1.2 -1,-1.9 -0.3,-0.6 -0.4,-1.4 -0.7,-2.1 v -0.1 c -0.2,-0.7 -0.5,-1.4 -0.6,-2 -0.2,-0.8 -0.2,-1.8 -0.3,-2.6 -0.1,-0.6 -0.2,-1.3 -0.2,-1.9 v -0.2 -0.1 c 0.1,-24.8 -11.8,-50.3 -32.7,-70 -22.2,-20.8 -51.1,-32.4 -81.7,-32.5 -18.2,-0.2 -52.7,1.6 -80.2,14.3 -10.6,4.8 -18,10.3 -23.2,16 -10.3,11.3 -12,23.4 -12,32.8 -0.1,12.6 -10.3,22.7 -23.1,22.8 -12.6,-0.1 -22.8,-10.4 -22.8,-23.1 0.2,-30.9 12.7,-56.4 36.5,-74.9 -2.1,-8.6 -3.3,-17.6 -3.3,-27 0,-97.7 118.9,-205 265.4,-205 146.6,0 265.5,107.3 265.5,205 0,9.4 -1.1,18.4 -3.3,27 23.8,18.5 36.3,44 36.5,74.9" /></g><g
         transform="scale(1.91543)"
         id="g2170"><path
           id="path2172"
           style="fill:#ed1c24;fill-opacity:1;fill-rule:nonzero;stroke:none"
           d="m 16300,12781.7 c 0,37.9 -42.3,61.6 -94.6,61.6 -52.2,0 -94.5,-19.8 -94.5,-57.8 0,-37.9 42.3,-59.1 94.5,-59.1 52.3,0 94.6,17.3 94.6,55.3" /></g><g
         transform="scale(1.90848)"
         id="g2174"><path
           id="path2176"
           style="fill:#f68e92;fill-opacity:1;fill-rule:nonzero;stroke:none"
           d="m 16264.4,12835.2 c -19.7,0 -35.6,8.8 -35.6,20.6 0,11.9 15.9,22.1 35.6,22.1 19.7,0 35.6,-11.4 35.6,-23.3 0,-11.8 -15.9,-19.4 -35.6,-19.4" /></g><g
         transform="scale(1.92439)"
         id="g2178"><path
           id="path2180"
           style="fill:#3c2415;fill-opacity:1;fill-rule:nonzero;stroke:none"
           d="m 16300,13168.4 c 0,-57.6 -76.2,-155.4 -170.1,-155.4 -93.9,0 -170,97.8 -170,155.4 0,57.5 76.1,53 170,53 93.9,0 170.1,4.5 170.1,-53" /></g><g
         transform="scale(1.92655)"
         id="g2182"><path
           id="path2184"
           style="fill:#231f20;fill-opacity:1;fill-rule:nonzero;stroke:none"
           d="m 16075.3,13188.4 c -49.3,0 -93.3,-1.4 -108.7,-16.7 -2.7,-2.7 -6.3,-7.5 -6.3,-18 0,-45.7 65.5,-137 151.6,-137 86.1,0 151.6,91.3 151.6,137 0,10.5 -3.6,15.3 -6.3,18 -17.2,17.1 -70,16.9 -126,16.7 h -19.3 -19.3 c -5.8,0 -11.6,0 -17.3,0 z m 36.6,-208.3 c -103.9,0 -188.1,105 -188.1,173.6 0,17.8 5.7,32.6 17,43.8 27.9,27.9 82.6,27.7 152,27.4 h 19.1 19.1 c 69.3,0.3 124.1,0.5 152,-27.4 11.3,-11.2 17,-26 17,-43.8 0,-68.6 -84.2,-173.6 -188.1,-173.6" /></g><g
         transform="scale(1.39709)"
         id="g2186"></g></g></g></svg>