<?xml version="1.0" encoding="UTF-8" standalone="no"?>
<svg
   xmlns:dc="http://purl.org/dc/elements/1.1/"
   xmlns:cc="http://creativecommons.org/ns#"
   xmlns:rdf="http://www.w3.org/1999/02/22-rdf-syntax-ns#"
   xmlns:svg="http://www.w3.org/2000/svg"
   xmlns="http://www.w3.org/2000/svg"
   viewBox="0 0 5333.3335 4000"
   height="4000"
   width="5333.3335"
   xml:space="preserve"
   id="svg2"
   version="1.1"><metadata
     id="metadata8"><rdf:RDF><cc:Work
         rdf:about=""><dc:format>image/svg+xml</dc:format><dc:type
           rdf:resource="http://purl.org/dc/dcmitype/StillImage" /></cc:Work></rdf:RDF></metadata><defs
     id="defs6" /><g
     transform="matrix(1.3333333,0,0,-1.3333333,0,4000)"
     id="g10"><g
       transform="scale(0.1)"
       id="g12"><g
         transform="scale(2.45399)"
         id="g14"></g><g
         transform="scale(1.45443)"
         id="g4850"></g><g
         transform="scale(1.46329)"
         id="g4858"></g><g
         transform="scale(1.48528)"
         id="g4874"></g><g
         transform="scale(1.48218)"
         id="g4910"></g><g
         transform="scale(1.50208)"
         id="g4922"></g><g
         transform="scale(1.10456)"
         id="g4942"><path
           id="path4944"
           style="fill:#ded9d2;fill-opacity:1;fill-rule:nonzero;stroke:none"
           d="m 5708.99,14592.4 c -2000,0 -3621.32,405.3 -3621.32,905.3 0,348.5 787.51,650.9 1941.78,802.3 20.24,-58.8 43.21,-115 68.73,-167.8 -22.79,-23.4 -45.11,-47.8 -65.75,-72.7 -106.9,-89.2 -167.7,-201.6 -167.11,-309.2 0.43,-76.3 33.52,-179.1 188.75,-235.7 89.5,-32.6 212.98,-48.5 377.18,-48.5 5.31,0 10.67,0.1 16.06,0.1 172.22,1.1 300.66,18.5 392.67,53.3 51.07,19.3 88.77,43.5 116.33,70 H 6461.7 c 27.55,-26.5 65.24,-50.7 116.31,-70 92.01,-34.8 220.46,-52.2 392.68,-53.3 5.39,0 10.76,-0.1 16.07,-0.1 164.19,0 287.68,15.9 377.17,48.5 155.23,56.6 188.32,159.4 188.74,235.7 0.6,107.6 -60.2,220 -167.13,309.2 -20.63,24.9 -42.94,49.3 -65.72,72.7 25.51,52.8 48.49,109 68.73,167.8 1154.27,-151.4 1941.83,-453.8 1941.83,-802.3 0,-500 -1621.37,-905.3 -3621.39,-905.3" /></g><g
         transform="scale(1.27689)"
         id="g4946"><path
           id="path4948"
           style="fill:#865439;fill-opacity:1;fill-rule:nonzero;stroke:none"
           d="m 3166.18,14306.1 c 33.89,21 67.87,43.1 101.94,66.4 441,301.3 911.22,808 1397.58,1505.8 78.79,113.1 51.19,267.3 -61.64,344.5 -112.82,77.2 -268.17,48.1 -346.95,-64.9 -799.1,-1146.7 -1517.28,-1711.3 -2076.85,-1632.8 -650,91.2 -960.47,1032.8 -963.52,1042.2 -41.82,129.8 -181.8,200.6 -312.787,157.9 -130.992,-42.7 -203.672,-182.3 -162.376,-312.2 16.107,-50.7 405.443,-1242.6 1361.773,-1378.5 337.08,-47.9 694.14,43.4 1062.83,271.6" /></g><g
         transform="scale(1.17366)"
         id="g4950"><path
           id="path4952"
           style="fill:#6c432c;fill-opacity:1;fill-rule:nonzero;stroke:none"
           d="m 2479.93,15322.9 c -61.11,0 -121.53,4.3 -181.31,12.8 -235.02,33.4 -437.55,128.5 -610.02,255.3 156.34,-98 333.13,-170.2 530.84,-198.3 28.21,-4 54.15,-5.9 78.14,-5.9 243.72,0 289.13,197.2 521.79,396.7 197.77,64 407.12,182.4 626.37,354.8 18.69,14.7 37.42,29.8 56.25,45.2 62.04,36.2 127.32,75.1 194.8,116.5 7.03,-78.4 7.89,-157.8 2.4,-237.2 -5.38,-78 -5.62,-157.5 -0.77,-237.6 -60.77,-47.9 -121.08,-92.3 -180.83,-133.1 -36,-24.6 -72.44,-48.3 -108.29,-70.6 -320.86,-198.5 -632.66,-298.5 -929.37,-298.6" /></g><g
         transform="scale(1.22798)"
         id="g4954"><path
           id="path4956"
           style="fill:#c8b2a6;fill-opacity:1;fill-rule:nonzero;stroke:none"
           d="m 2277.78,15004.4 c -36.76,0 -72.89,2.5 -108.44,7.4 -675.88,94.8 -998.72,1074 -1001.9,1083.8 -27.94,86.8 -98.06,148.1 -180.787,168.9 -14.998,3.9 -25.757,12.9 -32.077,24.1 1.638,0.6 3.289,1.2 4.959,1.7 20.098,6.6 40.495,9.7 60.535,9.7 81.59,0 157.27,-51.6 183.42,-132.8 3.31,-10.3 338.6,-1027 1053.92,-1127.4 38.53,-5.3 77.77,-8 117.56,-8 62.91,0 127.36,6.7 193.28,20.2 -100.45,-31.6 -197.39,-47.6 -290.47,-47.6" /></g><g
         transform="scale(1.27986)"
         id="g4958"><path
           id="path4960"
           style="fill:#231f20;fill-opacity:1;fill-rule:nonzero;stroke:none"
           d="m 4353.67,16138.2 c 19.59,12.1 41.46,20.6 64.77,25 49.02,9.2 98.52,-1.2 139.36,-29.1 40.83,-27.9 68.11,-70.1 76.82,-118.8 8.71,-48.7 -2.19,-98.1 -30.7,-139 -480.84,-689.9 -944.54,-1190 -1378.21,-1486.3 -33.01,-22.6 -66.43,-44.3 -99.3,-64.7 -354.83,-219.6 -697.51,-307.8 -1018.52,-262.1 -916.21,130.2 -1293.169,1284.2 -1308.756,1333.2 -30.805,96.9 23.712,201.7 121.504,233.6 97.812,31.9 202.822,-21.1 234.062,-118.2 3.18,-9.8 324.88,-985.4 1011.2,-1081.6 295.37,-41.5 629.77,82.7 993.93,369 355.03,279.1 738.04,711.9 1138.36,1286.3 14.96,21.5 33.83,39.3 55.48,52.7 m -1162.4,-1917.7 c 34.48,21.3 69.5,44.2 104.09,67.8 446.32,305 920.88,815.8 1410.46,1518.3 47.53,68.2 65.69,150.4 51.18,231.6 -14.52,81.1 -59.99,151.4 -128.04,198 -68.05,46.6 -150.54,63.8 -232.26,48.5 -81.74,-15.3 -152.91,-61.3 -200.43,-129.5 -393.2,-564.1 -767.63,-987.9 -1112.89,-1259.3 -336.16,-264.3 -638.59,-379.8 -898.88,-343.3 -607.96,85.2 -908.44,989 -911.41,998.1 -52.04,161.6 -227.02,249.9 -390.033,196.7 -163.018,-53.1 -253.839,-227.8 -202.475,-389.4 16.548,-52.1 416.658,-1276.2 1408.468,-1417.3 350.83,-49.8 721.67,44.3 1102.22,279.8" /></g><g
         transform="scale(1.43205)"
         id="g4962"><path
           id="path4964"
           style="fill:#ffffff;fill-opacity:1;fill-rule:nonzero;stroke:none"
           d="m 3220.53,12433.6 c -61.44,116.4 -107.87,263.4 -129.86,428.2 -13.78,103.3 -16.72,204.5 -10.17,299.4 13.05,188.9 -15.02,378.6 -86.98,553.9 -78.83,192 -122.47,430.9 -122.47,726.6 0,1172.8 686.08,1858.3 1532.39,1858.3 846.32,0 1532.4,-685.5 1532.4,-1858.3 0,-295.7 -43.65,-534.6 -122.48,-726.6 -71.95,-175.3 -100.02,-365 -86.97,-553.9 6.55,-94.9 3.61,-196.1 -10.18,-299.4 -21.98,-164.8 -68.41,-311.8 -129.85,-428.2 66.71,-65.7 145.66,-152.9 144.7,-231.2 -1.83,-149.4 -193.9,-209.5 -383.33,-207.2 -189.45,2.3 -342.27,66.3 -340.43,215.6 0.34,27.7 5.99,56.4 16.14,84.6 -111.72,158.1 -166.81,434.5 -132.06,732.3 -153.27,-27.7 -317.34,-39.1 -487.94,-39.1 -170.6,0 -334.67,11.4 -487.94,39.1 34.75,-297.8 -20.33,-574.2 -132.05,-732.3 10.15,-28.2 15.8,-56.9 16.13,-84.6 1.84,-149.3 -150.97,-213.3 -340.42,-215.6 -189.44,-2.3 -381.5,57.8 -383.33,207.2 -0.97,78.3 77.99,165.5 144.7,231.2" /></g><g
         transform="scale(1.21024)"
         id="g4966"><path
           id="path4968"
           style="fill:#f5b553;fill-opacity:1;fill-rule:nonzero;stroke:none"
           d="M 6905.97,16300 H 3515.21 c 8.62,-24.3 17.56,-48.2 27.05,-71.2 85.14,-207.4 118.35,-431.8 102.91,-655.4 -7.74,-112.3 -4.27,-232.1 12.05,-354.3 26.01,-195 80.95,-368.9 153.66,-506.6 -78.95,-77.8 -172.38,-181 -171.24,-273.7 2.18,-176.7 229.44,-247.9 453.6,-245.2 224.17,2.9 404.99,78.5 402.81,255.2 -0.39,32.8 -7.08,66.7 -19.08,100.2 132.19,187 197.37,514.1 156.25,866.5 181.36,-32.9 375.5,-46.4 577.37,-46.4 201.86,0 396,13.5 577.36,46.4 -41.12,-352.4 24.08,-679.5 156.27,-866.5 -12.01,-33.5 -18.7,-67.4 -19.09,-100.2 -2.19,-176.7 178.64,-252.3 402.81,-255.2 224.16,-2.7 451.42,68.5 453.59,245.2 1.14,92.7 -92.27,195.9 -171.22,273.7 72.7,137.7 127.64,311.6 153.65,506.6 16.33,122.2 19.8,242 12.04,354.3 -15.44,223.6 17.77,448 102.91,655.4 9.5,23 18.43,46.9 27.06,71.2" /></g><g
         transform="scale(1.09247)"
         id="g4970"><path
           id="path4972"
           style="fill:#865439;fill-opacity:1;fill-rule:nonzero;stroke:none"
           d="m 4439.74,16295 c -81.83,5 -160.79,0.4 -234.31,-12.2 -86.92,-85.8 -188.45,-198.9 -187.21,-300.7 2.41,-195.7 254.17,-274.6 502.5,-271.5 248.33,3 448.64,86.9 446.25,282.7 -0.45,36.2 -7.86,73.7 -21.16,110.9 0.66,0.9 1.3,1.9 1.96,2.8 -116.7,102.8 -299.29,175.2 -508.03,188" /></g><g
         transform="scale(1.094)"
         id="g4974"><path
           id="path4976"
           style="fill:#231f20;fill-opacity:1;fill-rule:nonzero;stroke:none"
           d="m 4917.04,16074.9 0.33,-0.9 c 12.72,-35.6 19.37,-70.3 19.78,-103.4 2.81,-229.2 -294.91,-257.6 -423.05,-259.2 -129.37,-1.6 -247.73,19.3 -333.08,59 -95.6,44.4 -144.57,108.2 -145.57,189.6 -1.14,91.7 97.79,202 175.02,278.7 71.55,11.7 146.07,15.3 221.65,10.7 191.31,-11.8 367.23,-75.3 484.92,-174.5 m -416.61,-409.3 c 4.73,0 9.47,0 14.23,0.1 295.48,3.7 470.5,117.8 468.18,305.4 -0.42,34.7 -6.68,70.6 -18.6,107.1 l 7,10 -15.31,13.4 c -125.09,110.3 -314.98,180.7 -521,193.4 -81.6,5 -162.1,0.8 -239.27,-12.5 l -7.07,-1.2 -5.1,-5.1 c -90.92,-89.6 -195.1,-206.7 -193.74,-316.8 1.21,-99.1 60.7,-178.8 172.02,-230.4 88.23,-41.1 208.03,-63.4 338.66,-63.4" /></g><g
         transform="scale(1.07221)"
         id="g4978"><path
           id="path4980"
           style="fill:#231f20;fill-opacity:1;fill-rule:nonzero;stroke:none"
           d="m 4303.15,16102.7 c 3.84,17.8 8.75,36.4 13.85,54.4 5.18,18.2 10.82,36.2 17.14,54 6.36,17.7 13.35,35.3 21.86,52.1 4.29,8.4 8.95,16.6 14.46,24.2 5.58,7.6 0.87,12.6 -7.67,6.7 -8.59,-5.9 -16.45,-12.5 -23.99,-19.5 -14.99,-13.9 -28.57,-28.9 -41.57,-44.3 -12.97,-15.4 -25.3,-31.2 -37.2,-47.3 -11.95,-16.3 -23.31,-32.2 -34.63,-49.7 l -0.19,-0.2 c -11.68,-18 -4.8,-42 15.38,-53.6 20.17,-11.5 46,-6.4 57.67,11.6 2.38,3.6 4,7.6 4.89,11.6" /></g><g
         transform="scale(1.06787)"
         id="g4982"><path
           id="path4984"
           style="fill:#231f20;fill-opacity:1;fill-rule:nonzero;stroke:none"
           d="m 4634.24,16101.9 c 3.85,17.8 8.78,36.6 13.91,54.6 5.19,18.3 10.86,36.4 17.22,54.3 6.38,17.8 13.39,35.4 21.94,52.2 4.29,8.4 8.98,16.7 14.51,24.4 5.6,7.5 0.87,12.6 -7.7,6.8 -8.61,-6 -16.51,-12.6 -24.08,-19.6 -15.05,-14 -28.69,-29.1 -41.74,-44.6 -13.02,-15.4 -25.39,-31.3 -37.35,-47.5 -12.01,-16.3 -23.41,-32.3 -34.78,-49.8 l -0.18,-0.3 c -11.73,-18 -4.82,-42.2 15.43,-53.8 20.25,-11.6 46.19,-6.4 57.91,11.6 2.39,3.7 4.02,7.8 4.91,11.7" /></g><g
         transform="scale(1.09247)"
         id="g4986"><path
           id="path4988"
           style="fill:#865439;fill-opacity:1;fill-rule:nonzero;stroke:none"
           d="m 7104.7,16295 c 81.84,5 160.8,0.4 234.31,-12.2 86.92,-85.8 188.45,-198.9 187.21,-300.7 -2.4,-195.7 -254.16,-274.6 -502.49,-271.5 -248.33,3 -448.65,86.9 -446.25,282.7 0.45,36.2 7.86,73.7 21.16,110.9 -0.66,0.9 -1.3,1.9 -1.97,2.8 116.71,102.8 299.3,175.2 508.03,188" /></g><g
         transform="scale(1.094)"
         id="g4990"><path
           id="path4992"
           style="fill:#231f20;fill-opacity:1;fill-rule:nonzero;stroke:none"
           d="m 7317.8,16238.7 c 77.21,-76.7 176.15,-187 175.03,-278.7 -1.01,-81.4 -50,-145.2 -145.59,-189.6 -85.35,-39.7 -203.67,-60.7 -333.08,-59 -128.14,1.6 -425.86,30 -423.05,259.2 0.41,33.1 7.06,67.8 19.79,103.4 l 0.32,0.9 c 117.69,99.2 293.62,162.7 484.92,174.5 75.57,4.6 150.1,1 221.66,-10.7 m -289.97,-573.1 c 130.64,0 250.44,22.3 338.66,63.4 111.33,51.6 170.81,131.3 172.04,230.4 1.35,110.1 -102.83,227.2 -193.75,316.8 l -5.11,5.1 -7.06,1.2 c -77.18,13.3 -157.68,17.5 -239.27,12.5 -206.02,-12.7 -395.92,-83.1 -521.02,-193.4 l -15.3,-13.4 7.01,-10 c -11.93,-36.5 -18.2,-72.4 -18.62,-107.1 -2.3,-187.6 172.73,-301.7 468.19,-305.4 4.75,-0.1 9.51,-0.1 14.23,-0.1" /></g><g
         transform="scale(1.07221)"
         id="g4994"><path
           id="path4996"
           style="fill:#231f20;fill-opacity:1;fill-rule:nonzero;stroke:none"
           d="m 7459.34,16102.7 c -3.84,17.8 -8.75,36.4 -13.85,54.4 -5.17,18.2 -10.81,36.2 -17.15,54 -6.36,17.7 -13.34,35.3 -21.85,52.1 -4.3,8.4 -8.95,16.6 -14.46,24.2 -5.57,7.6 -0.87,12.6 7.67,6.7 8.58,-5.9 16.44,-12.5 23.98,-19.5 14.99,-13.9 28.58,-28.9 41.57,-44.3 12.97,-15.4 25.3,-31.2 37.21,-47.3 11.95,-16.3 23.31,-32.2 34.63,-49.7 l 0.19,-0.2 c 11.68,-18 4.8,-42 -15.37,-53.6 -20.18,-11.5 -46,-6.4 -57.69,11.6 -2.37,3.6 -4,7.6 -4.88,11.6" /></g><g
         transform="scale(1.06787)"
         id="g4998"><path
           id="path5000"
           style="fill:#231f20;fill-opacity:1;fill-rule:nonzero;stroke:none"
           d="m 7176.16,16101.9 c -3.86,17.8 -8.78,36.6 -13.92,54.6 -5.17,18.3 -10.84,36.4 -17.2,54.3 -6.38,17.8 -13.39,35.4 -21.94,52.2 -4.32,8.4 -8.99,16.7 -14.51,24.4 -5.6,7.5 -0.9,12.6 7.69,6.8 8.62,-6 16.51,-12.6 24.07,-19.6 15.06,-14 28.69,-29.1 41.74,-44.6 13.03,-15.4 25.41,-31.3 37.37,-47.5 12,-16.3 23.4,-32.3 34.77,-49.8 l 0.19,-0.3 c 11.72,-18 4.81,-42.2 -15.44,-53.8 -20.26,-11.6 -46.19,-6.4 -57.91,11.6 -2.38,3.7 -4.02,7.8 -4.91,11.7" /></g><g
         transform="scale(1.43635)"
         id="g5002"><path
           id="path5004"
           style="fill:#231f20;fill-opacity:1;fill-rule:nonzero;stroke:none"
           d="m 3029.66,13692.6 c 72.73,-177.2 103.95,-375.8 90.25,-574.2 -6.49,-94 -3.19,-191.2 9.83,-288.7 20.45,-153.3 63.42,-295.3 124.26,-410.5 10.05,-19.1 6.42,-42.4 -8.92,-57.5 -32.29,-31.8 -130.54,-128.4 -129.72,-195.3 0.22,-18.1 0.91,-73.6 92.75,-116.3 60.85,-28.3 145.79,-43.2 240.11,-42.1 88.18,1.2 293.08,19.5 291.28,165.7 -0.28,21.8 -4.72,44.8 -13.24,68.5 -5.35,15 -3.08,31.7 6.09,44.6 105.76,149.7 153.14,408.1 125.02,678 -9.55,3.2 -19.01,6.6 -28.57,10.1 -20.46,7.4 -40.75,15.4 -60.77,24 -20,8.7 -39.8,18 -58.8,28.9 -9.47,5.6 -18.77,11.5 -27.43,18.4 -8.55,6.7 -4.54,12.5 5.09,9 9.69,-3.3 19.72,-5.8 29.83,-7.9 20.24,-3.9 40.87,-6.3 61.56,-7.9 20.69,-1.7 41.48,-2.6 62.26,-3 17.74,-0.3 35.87,-0.4 53.25,0.1 3.28,0.7 6.63,1 10,1 2.89,0 5.81,-0.2 8.7,-0.7 142.15,-25.8 298.43,-38.3 477.78,-38.3 179.36,0 335.65,12.5 477.79,38.3 6.23,1.1 12.49,0.9 18.51,-0.3 17.44,-0.5 35.64,-0.4 53.43,-0.1 20.79,0.4 41.57,1.3 62.28,3 20.68,1.6 41.32,4 61.56,7.9 10.09,2.1 20.12,4.6 29.82,7.9 9.63,3.5 13.64,-2.3 5.1,-9 -8.66,-6.9 -17.96,-12.8 -27.43,-18.4 -19.01,-10.9 -38.81,-20.2 -58.81,-28.9 -20.01,-8.6 -40.31,-16.6 -60.77,-24 -9.55,-3.5 -19.01,-6.9 -28.56,-10.1 -28.12,-269.9 19.25,-528.3 125.01,-678 9.17,-12.9 11.45,-29.6 6.1,-44.6 -8.52,-23.7 -12.97,-46.7 -13.24,-68.5 -1.8,-146.2 203.1,-164.5 291.28,-165.7 94.09,-1.1 179.26,13.8 240.1,42.1 91.84,42.7 92.53,98.2 92.75,116.3 0.83,66.9 -97.43,163.5 -129.72,195.3 -15.34,15.1 -18.96,38.4 -8.92,57.5 60.84,115.2 103.81,257.2 124.26,410.5 13.01,97.5 16.33,194.7 9.84,288.7 -13.7,198.4 17.51,397 90.24,574.2 78.61,191.5 118.47,429 118.47,705.9 0,1062.2 -608.22,1804 -1479.09,1804 -870.85,0 -1479.08,-741.8 -1479.08,-1804 0,-276.9 39.87,-514.4 118.47,-705.9 m -215.94,705.9 c 0,569.2 158.89,1052.2 459.49,1396.9 283.79,325.4 680.5,504.6 1117.06,504.6 436.57,0 833.29,-179.2 1117.07,-504.6 300.59,-344.7 459.49,-827.7 459.49,-1396.9 0,-289.7 -42.32,-539.7 -125.77,-742.9 -67.08,-163.4 -95.85,-346.9 -83.17,-530.4 6.93,-100.6 3.42,-204.4 -10.46,-308.4 -20.11,-150.7 -60.88,-292 -118.42,-410.9 70.24,-72.3 134.69,-155.3 133.65,-240.7 -0.77,-61.6 -27.25,-146.9 -149.15,-203.5 -73.81,-34.3 -174.12,-52.5 -282.38,-51.1 -244.66,3 -389.53,101.8 -387.53,264.3 0.31,24.8 4.08,50.4 11.25,76.1 -103.39,161.1 -152.52,414.3 -132.64,679.4 -130.7,-19.8 -272.72,-29.4 -431.94,-29.4 -159.21,0 -301.22,9.6 -431.93,29.4 19.89,-265.1 -29.25,-518.3 -132.64,-679.4 7.18,-25.7 10.95,-51.3 11.25,-76.1 2.01,-162.5 -142.87,-261.3 -387.52,-264.3 -3.75,0 -7.47,-0.1 -11.2,-0.1 -103.99,0 -199.94,18.1 -271.18,51.2 -121.91,56.6 -148.4,141.9 -149.15,203.5 -1.05,85.4 63.39,168.4 133.64,240.7 -57.54,118.9 -98.3,260.2 -118.41,410.9 -13.89,104.1 -17.4,207.8 -10.46,308.4 12.67,183.5 -16.09,367 -83.17,530.4 -83.46,203.2 -125.78,453.2 -125.78,742.9" /></g><g
         transform="scale(1.09515)"
         id="g5006"><path
           id="path5008"
           style="fill:#3c2415;fill-opacity:1;fill-rule:nonzero;stroke:none"
           d="m 3944.6,15886 c 1.05,-190.9 242.81,-239 540.67,-237.1 297.87,1.9 539.07,52.8 538.01,243.8 -1.06,190.9 -243.74,407.3 -541.61,405.5 -297.88,-1.9 -538.13,-221.3 -537.07,-412.2" /></g><g
         transform="scale(1.08804)"
         id="g5010"><path
           id="path5012"
           style="fill:#94877f;fill-opacity:1;fill-rule:nonzero;stroke:none"
           d="m 4017.36,15976.9 c -0.41,4.4 -0.63,8.7 -0.65,13.2 -0.62,111.3 101.12,239 252.81,309.9 v -52.5 c -125.01,-60.4 -208.88,-163.6 -252.16,-270.6" /></g><g
         transform="scale(1.09842)"
         id="g5014"><path
           id="path5016"
           style="fill:#231f20;fill-opacity:1;fill-rule:nonzero;stroke:none"
           d="m 4468.58,16199.9 c -272.46,-1.6 -490.75,-198.9 -489.85,-361 0.71,-127.9 161.93,-189.1 492.89,-187.1 330.96,2.1 491.48,65.2 490.78,193.2 -0.9,162.1 -221.38,356.7 -493.82,354.9 m 3.59,-647.2 c -173.19,-1.1 -302.53,14.8 -395.44,48.7 -156.09,56.9 -189.37,160.2 -189.8,236.9 -0.6,110.4 62.9,225.6 174.28,316 113.74,92.5 258.23,143.9 406.82,144.8 148.6,0.9 293.63,-48.7 408.39,-139.7 112.37,-89.1 177.16,-203.5 177.78,-313.9 0.42,-76.7 -31.71,-180.5 -187.16,-239.2 -92.52,-35.1 -221.68,-52.6 -394.87,-53.6" /></g><g
         transform="scale(1.09515)"
         id="g5018"><path
           id="path5020"
           style="fill:#3c2415;fill-opacity:1;fill-rule:nonzero;stroke:none"
           d="m 7571.59,15886 c -1.07,-190.9 -242.81,-239 -540.69,-237.1 -297.86,1.9 -539.06,52.8 -538,243.8 1.07,190.9 243.75,407.3 541.62,405.5 297.86,-1.9 538.12,-221.3 537.07,-412.2" /></g><g
         transform="scale(1.08782)"
         id="g5022"><path
           id="path5024"
           style="fill:#94877f;fill-opacity:1;fill-rule:nonzero;stroke:none"
           d="m 7575.61,15980.2 c -42.48,105.1 -124.09,206.5 -245.34,267.3 v 52.5 c 147.9,-71.4 246.61,-197 246,-306.7 -0.02,-4.5 -0.25,-8.9 -0.66,-13.1" /></g><g
         transform="scale(1.09842)"
         id="g5026"><path
           id="path5028"
           style="fill:#231f20;fill-opacity:1;fill-rule:nonzero;stroke:none"
           d="m 7013.26,16199.9 c 272.44,-1.6 490.74,-198.9 489.85,-361 -0.71,-127.9 -161.94,-189.1 -492.9,-187.1 -330.96,2.1 -491.48,65.2 -490.78,193.2 0.9,162.1 221.38,356.7 493.83,354.9 m -3.6,-647.2 c 173.18,-1.1 302.53,14.8 395.44,48.7 156.09,56.9 189.37,160.2 189.8,236.9 0.61,110.4 -62.91,225.6 -174.27,316 -113.74,92.5 -258.23,143.9 -406.82,144.8 -148.6,0.9 -293.64,-48.7 -408.4,-139.7 -112.37,-89.1 -177.15,-203.5 -177.77,-313.9 -0.42,-76.7 31.69,-180.5 187.15,-239.2 92.52,-35.1 221.69,-52.6 394.87,-53.6" /></g><g
         transform="scale(1.22212)"
         id="g5030"><path
           id="path5032"
           style="fill:#754c29;fill-opacity:1;fill-rule:nonzero;stroke:none"
           d="M 6767,16300 H 3552.69 c -63.97,0 -115.81,-48.6 -115.81,-108.7 v -69.6 c 0,-61.8 53.39,-111.9 119.24,-111.9 h 3207.44 c 65.85,0 119.24,50.1 119.24,111.9 v 69.6 c 0,60.1 -51.85,108.7 -115.8,108.7" /></g><g
         transform="scale(1.21957)"
         id="g5034"><path
           id="path5036"
           style="fill:#b39d8a;fill-opacity:1;fill-rule:nonzero;stroke:none"
           d="m 5581.74,16265.9 h -75.27 c -0.15,11.7 -1.57,23.2 -4.13,34.1 h 79.17 c 0.08,-11.4 0.15,-22.7 0.23,-34.1 m -741.63,0 h -80.57 c 0.07,11.4 0.15,22.7 0.22,34.1 h 84.49 c -2.57,-10.9 -4,-22.4 -4.14,-34.1" /></g><g
         transform="scale(1.20565)"
         id="g5038"><path
           id="path5040"
           style="fill:#503825;fill-opacity:1;fill-rule:nonzero;stroke:none"
           d="m 5647.99,16263 h -82.12 c 2.73,11.8 4.19,24 4.19,36.6 v 0.4 h 77.5 c 0.14,-12.3 0.28,-24.6 0.43,-37 m -747.81,0 h -87.49 c 0.14,12.4 0.28,24.7 0.41,37 h 82.88 v -0.4 c 0,-12.6 1.45,-24.8 4.2,-36.6" /></g><g
         transform="scale(1.22467)"
         id="g5042"><path
           id="path5044"
           style="fill:#231f20;fill-opacity:1;fill-rule:nonzero;stroke:none"
           d="m 3545.28,16232.1 c -43.76,0 -79.36,-33.4 -79.36,-74.5 v -69.5 c 0,-42.9 37.14,-77.7 82.79,-77.7 h 3200.76 c 45.65,0 82.79,34.8 82.79,77.7 v 69.5 c 0,41.1 -35.6,74.5 -79.36,74.5 H 3545.28 m 3204.19,-289.6 H 3548.71 c -85.57,0 -155.19,65.3 -155.19,145.6 v 69.5 c 0,78.5 68.08,142.4 151.76,142.4 H 6752.9 c 83.68,0 151.76,-63.9 151.76,-142.4 v -69.5 c 0,-80.3 -69.63,-145.6 -155.19,-145.6" /></g><g
         transform="scale(1.22599)"
         id="g5046"><path
           id="path5048"
           style="fill:#fff200;fill-opacity:1;fill-rule:nonzero;stroke:none"
           d="m 5336.43,16300 h -380.44 c -61.37,0 -111.1,-54.2 -111.1,-121.3 v -149.5 c 0,-67 49.73,-121.2 111.1,-121.2 h 380.44 c 61.36,0 111.1,54.2 111.1,121.2 v 149.5 c 0,67.1 -49.74,121.3 -111.1,121.3" /></g><g
         transform="scale(1.22812)"
         id="g5050"><path
           id="path5052"
           style="fill:#231f20;fill-opacity:1;fill-rule:nonzero;stroke:none"
           d="m 4947.39,16243.6 c -44.56,0 -80.81,-41.7 -80.81,-92.9 v -149.3 c 0,-51.1 36.25,-92.8 80.81,-92.8 h 379.8 c 44.57,0 80.83,41.7 80.83,92.8 v 149.3 c 0,51.2 -36.26,92.9 -80.83,92.9 h -379.8 m 379.8,-391.4 h -379.8 c -77.73,0 -140.97,66.9 -140.97,149.2 v 149.3 c 0,82.3 63.24,149.3 140.97,149.3 h 379.8 c 77.73,0 140.99,-67 140.99,-149.3 v -149.3 c 0,-82.3 -63.26,-149.2 -140.99,-149.2" /></g><g
         transform="scale(1.22075)"
         id="g5054"><path
           id="path5056"
           style="fill:#754c29;fill-opacity:1;fill-rule:nonzero;stroke:none"
           d="m 5311.62,16300 h -286.7 c -46.22,0 -83.7,-35.1 -83.7,-78.6 v -96.8 c 0,-43.4 37.48,-78.5 83.7,-78.5 h 286.7 c 46.23,0 83.71,35.1 83.71,78.5 v 96.8 c 0,43.5 -37.48,78.6 -83.71,78.6" /></g><g
         transform="scale(1.22182)"
         id="g5058"><path
           id="path5060"
           style="fill:#231f20;fill-opacity:1;fill-rule:nonzero;stroke:none"
           d="m 5020.57,16271.7 c -37.78,0 -68.52,-28.9 -68.52,-64.3 v -96.8 c 0,-35.4 30.74,-64.3 68.52,-64.3 H 5307 c 37.78,0 68.52,28.9 68.52,64.3 v 96.8 c 0,35.4 -30.74,64.3 -68.52,64.3 H 5020.57 M 5307,16018 h -286.43 c -54.46,0 -98.77,41.5 -98.77,92.6 v 96.8 c 0,51 44.31,92.6 98.77,92.6 H 5307 c 54.44,0 98.76,-41.6 98.76,-92.6 v -96.8 c 0,-51.1 -44.32,-92.6 -98.76,-92.6" /></g><g
         transform="scale(1.41153)"
         id="g5062"><path
           id="path5064"
           style="fill:#865439;fill-opacity:1;fill-rule:nonzero;stroke:none"
           d="m 4076.04,16300 v -438.6 l 389.65,-140.1 389.65,140.1 v 438.6 h -779.3" /></g><g
         transform="scale(1.40895)"
         id="g5066"><path
           id="path5068"
           style="fill:#ffffff;fill-opacity:1;fill-rule:nonzero;stroke:none"
           d="m 5015.75,16276.2 c 0,0 -529.81,-480.9 -540.06,-495.1 -10.26,14.2 -540.06,495.1 -540.06,495.1 -26.47,23.8 -58.77,-25 -39.93,-58.3 l 391.12,-714.1 c 0,0 182.31,193.8 188.87,197.6 6.57,-3.8 183.02,-197.6 183.02,-197.6 l 396.97,714.1 c 18.84,33.3 -13.45,82.1 -39.93,58.3" /></g><g
         transform="scale(1.36595)"
         id="g5070"><path
           id="path5072"
           style="fill:#231f20;fill-opacity:1;fill-rule:nonzero;stroke:none"
           d="m 4642.85,16160.7 h -44.2 v 139.3 h 44.2 v -139.3" /></g><g
         transform="scale(1.41091)"
         id="g5074"><path
           id="path5076"
           style="fill:#231f20;fill-opacity:1;fill-rule:nonzero;stroke:none"
           d="m 4441.08,15738.7 c 0.26,-0.4 0.65,-0.9 1.21,-1.6 l -1.21,1.6 m 56.77,0 -1.21,-1.6 c 0.58,0.7 0.95,1.2 1.21,1.6 m -578.03,476.9 c 0.15,-1 0.45,-2 0.94,-2.9 l 367.67,-671.4 c 153.18,162.6 158.43,165.6 163.5,168.6 10.85,6.2 24.23,6.2 35.08,0 5.42,-3.2 10.56,-6.1 158.28,-168.1 l 372.72,670.6 c 0.54,1 0.87,2 1.03,3.1 -204.4,-185.5 -501.99,-456.8 -522.62,-478.7 -6.63,-8 -16.5,-12.6 -26.95,-12.6 -10.46,0 -20.33,4.6 -26.96,12.6 -20.63,21.9 -318.29,293.2 -522.69,478.8 m 361.05,-768.4 c -1.47,0 -2.95,0 -4.44,0.2 -11.13,1.5 -20.91,8.1 -26.3,18 l -390.57,713.2 c -20.95,36.9 -6.33,82.3 19.4,103 22.88,18.4 52.88,17.6 74.66,-2 278.65,-252.9 451.41,-411 515.85,-471.9 64.42,60.9 237.18,218.9 515.76,471.8 l 0.1,0.1 c 21.75,19.6 51.77,20.4 74.64,2 25.73,-20.7 40.37,-66.1 19.15,-103.5 l -396.26,-712.9 c -5.48,-9.9 -15.38,-16.5 -26.58,-17.8 -11.22,-1.3 -22.36,2.9 -29.96,11.2 -48.25,53 -120.54,131.9 -157.21,171.1 -37.74,-39.1 -112.67,-118.3 -162.72,-171.5 -6.66,-7.1 -15.92,-11 -25.52,-11" /></g><g
         transform="scale(1.46185)"
         id="g5078"><path
           id="path5080"
           style="fill:#f5b553;fill-opacity:1;fill-rule:nonzero;stroke:none"
           d="m 3925.4,16117.8 c 0,0 -26.2,182.2 -136.89,151.5 -859.71,-128.8 -1389.92,-1678.7 -1007.98,-2680.4 29.16,-77.7 37.45,-158.5 46.91,-241 72.95,-203.8 817.09,-269.1 1095.04,-284.9 32.37,-1.3 2.92,3054.8 2.92,3054.8" /></g><g
         transform="scale(1.19753)"
         id="g5082"><path
           id="path5084"
           style="fill:#b68844;fill-opacity:1;fill-rule:nonzero;stroke:none"
           d="m 3851.37,16118.5 c -154.71,41.4 -281.78,96.1 -348.9,169.6 4.76,3.4 9.25,7.5 13.15,11.9 111.49,-49.6 231.53,-89.8 358.54,-122.1 -11.56,-18.4 -19.33,-38.4 -22.79,-59.4" /></g><g
         transform="scale(1.27209)"
         id="g5086"><path
           id="path5088"
           style="fill:#fad6a1;fill-opacity:1;fill-rule:nonzero;stroke:none"
           d="m 3309.56,15344.6 c -7.68,3.5 -15.32,6.9 -22.92,10.4 -10,91 -23.61,195.7 -55.35,277.1 -74.91,206.7 -118.56,433.8 -133.43,667.9 13.25,-25.3 27.1,-50.5 41.61,-75.7 19.47,-202.7 61.56,-396 128.73,-569.1 33.57,-89.3 43.08,-182.2 53.95,-277 1.37,-12 -4.1,-23.8 -12.59,-33.6" /></g><g
         transform="scale(1.19834)"
         id="g5090"><path
           id="path5092"
           style="fill:#d7be98;fill-opacity:1;fill-rule:nonzero;stroke:none"
           d="m 3500.1,16277.1 c -3.48,3.8 -6.79,7.6 -9.95,11.5 -0.41,3.8 -0.81,7.6 -1.23,11.4 8.06,-3.7 16.17,-7.3 24.32,-11 -3.9,-4.4 -8.38,-8.5 -13.14,-11.9" /></g><g
         transform="scale(1.46317)"
         id="g5094"><path
           id="path5096"
           style="fill:#231f20;fill-opacity:1;fill-rule:nonzero;stroke:none"
           d="m 3809.34,16221.3 c -905.71,-155.6 -1353.83,-1654.1 -1000.04,-2630.6 28.69,-73.7 40.35,-169 49.14,-250.3 140.59,-174.4 683.66,-224.3 1032.53,-250.9 16.78,237.3 7.84,1896.2 -2.88,3010.5 -5.48,31.4 -28.18,121.2 -78.75,121.3 m 109.62,-3206.9 c -324.2,18.4 -1085.08,90.3 -1127.64,316.9 -8.71,77.1 -18.08,162.8 -44.63,231.4 -80.03,213.2 -120.61,475.6 -120.61,780.1 -4.44,893.7 368.5,1724.3 1150.69,1947.6 34.56,9.6 67.59,4 95.51,-16 65.61,-48.6 80.96,-152.8 83.38,-168.1 0.68,-11.2 6.89,-763 10.63,-1516.2 1.7,-598.9 4.46,-956 -3.85,-1398.9 -8.73,-166.8 3.27,-160.2 -43.48,-176.8" /></g><g
         transform="scale(1.32729)"
         id="g5098"><path
           id="path5100"
           style="fill:#b68844;fill-opacity:1;fill-rule:nonzero;stroke:none"
           d="M 4299.45,15198.7 3842.69,16210 c -13.54,30 -8.49,65.9 12.33,90 l 444.54,-984.2 c -0.01,-40 -0.05,-79 -0.11,-117.1" /></g><g
         transform="scale(1.24714)"
         id="g5102"><path
           id="path5104"
           style="fill:#231f20;fill-opacity:1;fill-rule:nonzero;stroke:none"
           d="m 4585.32,16154.3 -9.57,21.2 c 0.06,40.5 0.1,82 0.12,124.5 l 8.5,-18.8 0.95,-126.9" /></g><g
         transform="scale(1.36453)"
         id="g5106"><path
           id="path5108"
           style="fill:#b68844;fill-opacity:1;fill-rule:nonzero;stroke:none"
           d="m 3899.71,16125.6 c -115.51,97 -160.46,134.8 -137.7,174.4 0.78,-0.7 1.6,-1.4 2.48,-2 l 176.85,-134 -41.63,-38.4" /></g><g
         transform="scale(1.39899)"
         id="g5110"><path
           id="path5112"
           style="fill:#f5b553;fill-opacity:1;fill-rule:nonzero;stroke:none"
           d="m 4114.61,14519.6 -464.33,1028.1 238.58,220.5 -201.58,152.7 414.12,379.1 13.21,-1780.4" /></g><g
         transform="scale(1.39356)"
         id="g5114"><path
           id="path5116"
           style="fill:#fad6a1;fill-opacity:1;fill-rule:nonzero;stroke:none"
           d="m 3773.18,15965.3 c -8.51,6.3 -17.38,12.9 -26.63,19.8 l 343.98,314.9 0.33,-43.9 -317.68,-290.8" /></g><g
         transform="scale(1.35192)"
         id="g5118"><path
           id="path5120"
           style="fill:#fad6a1;fill-opacity:1;fill-rule:nonzero;stroke:none"
           d="m 4228.71,15159.2 -416.38,921.9 c 133.02,136.9 217.32,182.5 234.79,218.9 10.26,-16.7 8.16,-40.3 -7,-54.3 l -209.46,-193.5 397.96,-881.1 0.09,-11.9" /></g><g
         transform="scale(1.40171)"
         id="g5122"><path
           id="path5124"
           style="fill:#231f20;fill-opacity:1;fill-rule:nonzero;stroke:none"
           d="m 3676.9,15509.8 401.59,-889.1 -11.75,1584.5 -341.97,-313 c 280.42,-210.5 214.58,-112.2 -47.87,-382.4 m 429.71,-1048 c -10.17,0 -19.72,6.2 -24.36,16.5 l -463.43,1026.1 c -5.5,12.1 -2.7,26.9 6.8,35.6 l 211.16,195.2 -172.16,130.4 c -14.48,10.4 -15.58,35.3 -1.97,47 l 413.33,378.4 c 8.05,7.4 19.28,9 28.82,4.2 44.39,-9.1 13.98,-1778.3 28.99,-1803.6 0.27,-16.2 -12.36,-30 -27.18,-29.8" /></g><g
         transform="scale(1.46185)"
         id="g5126"><path
           id="path5128"
           style="fill:#f5b553;fill-opacity:1;fill-rule:nonzero;stroke:none"
           d="m 4701.96,16117.8 c 0,0 26.19,182.2 136.89,151.5 859.72,-128.8 1389.94,-1678.7 1007.97,-2680.4 -29.15,-77.7 -37.43,-158.5 -46.89,-241 -72.95,-203.8 -817.09,-269.1 -1095.04,-284.9 -32.37,-1.3 -2.93,3054.8 -2.93,3054.8" /></g><g
         transform="scale(1.19753)"
         id="g5130"><path
           id="path5132"
           style="fill:#b68844;fill-opacity:1;fill-rule:nonzero;stroke:none"
           d="m 6686.2,16120 c -3.67,21 -11.66,40.9 -23.38,59.3 125.01,32.1 243.28,71.8 353.19,120.7 3.9,-4.4 8.39,-8.5 13.16,-11.9 -66.27,-72.6 -190.97,-126.8 -342.97,-168.1" /></g><g
         transform="scale(1.27137)"
         id="g5134"><path
           id="path5136"
           style="fill:#fad6a1;fill-opacity:1;fill-rule:nonzero;stroke:none"
           d="m 6608.53,15353.3 c -8.5,9.8 -13.97,21.6 -12.61,33.6 10.88,94.9 20.4,187.8 53.99,277.2 66.24,170.7 108.09,360.9 127.94,560.6 14.6,25 28.55,50.1 41.9,75.3 -15.43,-230.9 -58.95,-454.9 -132.91,-659 -31.76,-81.5 -45.37,-186.2 -55.38,-277.3 -7.6,-3.5 -15.24,-6.9 -22.93,-10.4" /></g><g
         transform="scale(1.19834)"
         id="g5138"><path
           id="path5140"
           style="fill:#d7be98;fill-opacity:1;fill-rule:nonzero;stroke:none"
           d="m 7024.42,16277.1 c -4.77,3.4 -9.26,7.5 -13.15,11.9 8.16,3.7 16.27,7.3 24.33,11 -0.42,-3.8 -0.84,-7.6 -1.25,-11.4 -3.15,-3.9 -6.46,-7.7 -9.93,-11.5" /></g><g
         transform="scale(1.46317)"
         id="g5142"><path
           id="path5144"
           style="fill:#231f20;fill-opacity:1;fill-rule:nonzero;stroke:none"
           d="m 4810.26,16221.3 c 905.7,-155.6 1353.82,-1654.1 1000.03,-2630.6 -28.69,-73.7 -40.34,-169 -49.14,-250.3 -140.59,-174.4 -683.64,-224.3 -1032.53,-250.9 -16.78,237.3 -7.83,1896.2 2.89,3010.5 5.47,31.4 28.17,121.2 78.75,121.3 m -109.62,-3206.9 c 324.19,18.4 1085.07,90.3 1127.64,316.9 8.69,77.1 18.07,162.8 44.62,231.4 80.04,213.2 120.61,475.6 120.61,780.1 4.44,893.7 -368.49,1724.3 -1150.69,1947.6 -34.56,9.6 -67.58,4 -95.5,-16 -65.61,-48.6 -80.96,-152.8 -83.38,-168.1 -0.69,-11.2 -6.9,-763 -10.64,-1516.2 -1.69,-598.9 -4.45,-956 3.86,-1398.9 8.73,-166.8 -3.26,-160.2 43.48,-176.8" /></g><g
         transform="scale(1.32729)"
         id="g5146"><path
           id="path5148"
           style="fill:#b68844;fill-opacity:1;fill-rule:nonzero;stroke:none"
           d="m 5202.54,15198.7 c -0.05,38.1 -0.09,77.1 -0.11,117.1 l 444.56,984.2 c 20.81,-24.1 25.86,-60 12.31,-90 l -456.76,-1011.3" /></g><g
         transform="scale(1.24714)"
         id="g5150"><path
           id="path5152"
           style="fill:#231f20;fill-opacity:1;fill-rule:nonzero;stroke:none"
           d="m 5527.31,16154.3 0.94,126.9 8.51,18.8 c 0.01,-42.5 0.06,-84 0.12,-124.5 l -9.57,-21.2" /></g><g
         transform="scale(1.36453)"
         id="g5154"><path
           id="path5156"
           style="fill:#b68844;fill-opacity:1;fill-rule:nonzero;stroke:none"
           d="m 5342.99,16125.6 -41.63,38.4 176.86,134 c 0.87,0.6 1.7,1.3 2.47,2 22.76,-39.6 -22.2,-77.4 -137.7,-174.4" /></g><g
         transform="scale(1.39899)"
         id="g5158"><path
           id="path5160"
           style="fill:#f5b553;fill-opacity:1;fill-rule:nonzero;stroke:none"
           d="m 4900.43,14519.6 464.33,1028.1 -238.59,220.5 201.59,152.7 -414.13,379.1 -13.2,-1780.4" /></g><g
         transform="scale(1.39356)"
         id="g5162"><path
           id="path5164"
           style="fill:#fad6a1;fill-opacity:1;fill-rule:nonzero;stroke:none"
           d="m 5276.96,15965.3 -317.68,290.8 0.32,43.9 343.97,-314.9 c -9.24,-6.9 -18.11,-13.5 -26.61,-19.8" /></g><g
         transform="scale(1.35192)"
         id="g5166"><path
           id="path5168"
           style="fill:#fad6a1;fill-opacity:1;fill-rule:nonzero;stroke:none"
           d="m 5100.19,15159.2 0.09,11.9 397.95,881.1 -209.44,193.5 c -15.17,14 -17.26,37.6 -7.01,54.3 17.47,-36.4 101.77,-82 234.8,-218.9 l -416.39,-921.9" /></g><g
         transform="scale(1.40171)"
         id="g5170"><path
           id="path5172"
           style="fill:#231f20;fill-opacity:1;fill-rule:nonzero;stroke:none"
           d="m 5320.61,15509.8 -401.6,-889.1 11.75,1584.5 341.97,-313 c -280.42,-210.5 -214.57,-112.2 47.88,-382.4 m -429.71,-1048 c 10.17,0 19.72,6.2 24.35,16.5 l 463.44,1026.1 c 5.5,12.1 2.69,26.9 -6.81,35.6 l -211.16,195.2 172.17,130.4 c 14.48,10.4 15.58,35.3 1.96,47 l -413.32,378.4 c -8.06,7.4 -19.28,9 -28.83,4.2 -44.39,-9.1 -13.99,-1778.3 -28.98,-1803.6 -0.27,-16.2 12.36,-30 27.18,-29.8" /></g><g
         transform="scale(1.35716)"
         id="g5174"><path
           id="path5176"
           style="fill:#2d2424;fill-opacity:1;fill-rule:nonzero;stroke:none"
           d="m 4819.89,16234.9 c -2.22,36.4 -42.59,65.1 -91.62,65.1 h -163.68 c -49.03,0 -89.38,-28.7 -91.62,-65.1 L 4390.31,14887 c -1.13,-18.5 7.89,-36.5 25,-50 l 164.49,-129.3 c 36.19,-28.4 97.08,-28.4 133.27,0 l 164.49,129.3 c 17.11,13.5 26.12,31.5 24.99,50 l -82.66,1347.9" /></g><g
         transform="scale(1.29563)"
         id="g5178"><path
           id="path5180"
           style="fill:#8c8787;fill-opacity:1;fill-rule:nonzero;stroke:none"
           d="m 4987.51,15487.8 h -22.37 l 84,63.2 c 17.92,21.8 27.37,40.6 26.19,60 0,0 -11,345 -21.87,689 l 43.38,-707.3 c 0.7,-11.5 -5.01,-23 -15.67,-31.3 l -93.66,-73.6 m -207.97,0 h -32.85 l -93.65,73.6 c -10.66,8.4 -16.37,19.8 -15.67,31.3 l 43.37,707.2 c -12.78,-343.9 -25.67,-688.9 -25.67,-688.9 -1.19,-19.4 8.26,-38.2 26.18,-52.3 l 98.29,-70.9" /></g><g
         transform="scale(1.35944)"
         id="g5182"><path
           id="path5184"
           style="fill:#231f20;fill-opacity:1;fill-rule:nonzero;stroke:none"
           d="m 4556.93,16245.3 c -29.34,0 -53.39,-17.1 -54.72,-38.9 l -82.52,-1345.7 c -0.67,-10.9 4.77,-21.8 14.93,-29.8 l 164.22,-129.1 c 10.45,-8.2 24.58,-12.7 39.79,-12.7 15.21,0 29.35,4.5 39.8,12.7 l 164.22,129.1 c 10.16,8 15.61,18.9 14.94,29.8 l -82.52,1345.7 c -1.34,21.8 -25.38,38.9 -54.73,38.9 h -163.41 m 81.7,-1610.9 c -35.12,0 -69.09,10.9 -93.23,29.8 l -164.22,129.1 c -23.8,18.7 -36.55,44.2 -34.98,69.9 l 82.53,1345.7 c 3.13,51.1 59.45,91.1 128.2,91.1 h 163.41 c 68.76,0 125.07,-40 128.21,-91.1 l 82.51,-1345.7 c 1.57,-25.7 -11.17,-51.2 -34.96,-69.9 l -164.23,-129.1 c -24.13,-18.9 -58.12,-29.8 -93.24,-29.8" /></g><g
         transform="scale(1.36465)"
         id="g5186"><path
           id="path5188"
           style="fill:#2d2424;fill-opacity:1;fill-rule:nonzero;stroke:none"
           d="m 4876.28,16114.2 -198.11,160.2 c -31.61,25.6 -82.85,25.6 -114.45,0 l -198.13,-160.2 c -31.6,-25.5 -31.6,-67 0,-92.5 l 62.45,-50.5 c 106.53,-86.2 279.26,-86.2 385.8,0 l 62.44,50.5 c 31.61,25.5 31.61,67 0,92.5" /></g><g
         transform="scale(1.34694)"
         id="g5190"><path
           id="path5192"
           style="fill:#ffffff;fill-opacity:1;fill-rule:nonzero;stroke:none"
           d="m 4964.33,16281.7 c -0.28,5.9 -1.53,11.8 -3.75,17.5 l 0.47,0.8 c 2.15,-6 3.25,-12.1 3.28,-18.3" /></g><g
         transform="scale(1.3471)"
         id="g5194"><path
           id="path5196"
           style="fill:#868485;fill-opacity:1;fill-rule:nonzero;stroke:none"
           d="m 4960.01,16297.3 c -0.22,0.5 -0.44,1.1 -0.68,1.7 0.15,0.3 0.29,0.7 0.43,1 0.25,-0.6 0.49,-1.3 0.72,-1.9 l -0.47,-0.8" /></g><g
         transform="scale(1.34643)"
         id="g5198"><path
           id="path5200"
           style="fill:#ffffff;fill-opacity:1;fill-rule:nonzero;stroke:none"
           d="m 4400.69,16287.9 c 0.03,4 0.51,8.1 1.45,12.1 l 0.35,-0.6 c -1.02,-3.8 -1.62,-7.7 -1.8,-11.5" /></g><g
         transform="scale(1.3471)"
         id="g5202"><path
           id="path5204"
           style="fill:#868485;fill-opacity:1;fill-rule:nonzero;stroke:none"
           d="m 4400.31,16291.3 -0.35,0.6 c 0.64,2.8 1.49,5.4 2.55,8.1 0.14,-0.3 0.29,-0.7 0.43,-1 -1.07,-2.6 -1.95,-5.1 -2.63,-7.7" /></g><g
         transform="scale(1.34701)"
         id="g5206"><path
           id="path5208"
           style="fill:#8c8787;fill-opacity:1;fill-rule:nonzero;stroke:none"
           d="m 4681.43,16117.1 c -70.73,0 -141.46,21.8 -195.42,65.5 l -63.26,51.1 c -16.1,13 -24.06,30.1 -23.95,47.2 0.18,3.8 0.77,7.7 1.79,11.5 0.68,2.5 1.56,5.1 2.63,7.6 3.92,-9.3 10.38,-18 19.53,-25.4 l 63.26,-51.1 c 53.96,-43.7 124.69,-65.5 195.42,-65.5 70.74,0 141.47,21.8 195.43,65.5 l 63.26,51.1 c 9.14,7.4 15.61,16.1 19.53,25.4 0.23,-0.6 0.46,-1.1 0.68,-1.7 2.22,-5.7 3.47,-11.5 3.75,-17.4 0.1,-17.1 -7.87,-34.2 -23.96,-47.2 l -63.26,-51.1 c -53.96,-43.7 -124.69,-65.5 -195.43,-65.5" /></g><g
         transform="scale(1.3329)"
         id="g5210"><path
           id="path5212"
           style="fill:#2a2223;fill-opacity:1;fill-rule:nonzero;stroke:none"
           d="m 4731.01,16197.4 c -54.92,0 -109.85,13.1 -157.08,39.1 l 3.89,63.5 c 46.35,-24.6 99.77,-37 153.19,-37 53.44,0 106.86,12.4 153.22,37 l 3.89,-63.5 c -47.24,-26 -102.17,-39.1 -157.11,-39.1" /></g><g
         transform="scale(1.33528)"
         id="g5214"><path
           id="path5216"
           style="fill:#231f20;fill-opacity:1;fill-rule:nonzero;stroke:none"
           d="m 4565.75,16207.5 c -14.21,7.8 -27.73,16.8 -40.34,27 v 65.5 c 13.75,-11.1 28.59,-20.8 44.23,-29.1 l -3.89,-63.4 m 313.63,0 -3.88,63.4 c 15.63,8.3 30.45,18 44.2,29.1 v -65.5 c -12.6,-10.2 -26.11,-19.2 -40.32,-27" /></g><g
         transform="scale(1.36659)"
         id="g5218"><path
           id="path5220"
           style="fill:#231f20;fill-opacity:1;fill-rule:nonzero;stroke:none"
           d="m 4614.36,16240.8 c -11.82,0 -22.92,-3.7 -31.27,-10.4 l -197.84,-160 c -8.35,-6.8 -12.95,-15.8 -12.95,-25.3 0,-9.6 4.6,-18.6 12.95,-25.3 l 62.36,-50.4 c 91.94,-74.4 241.56,-74.4 333.5,0 l 62.36,50.4 c 8.35,6.7 12.96,15.7 12.96,25.3 0,9.5 -4.61,18.5 -12.96,25.3 l -197.84,160 c -8.36,6.7 -19.46,10.4 -31.27,10.4 z m 0,-386.3 c -79.14,0 -158.25,24.3 -218.5,73 l -62.36,50.4 c -22.17,18 -34.38,41.8 -34.38,67.2 0,25.3 12.21,49.2 34.38,67.1 l 197.84,160 c 22.18,17.9 51.66,27.8 83.02,27.8 31.36,0 60.84,-9.9 83.01,-27.8 l 197.84,-160 c 22.18,-17.9 34.39,-41.8 34.39,-67.1 0,-25.4 -12.21,-49.2 -34.39,-67.2 l -62.35,-50.4 c -60.23,-48.7 -139.38,-73 -218.5,-73" /></g><g
         transform="scale(1.23107)"
         id="g5222"><path
           id="path5224"
           style="fill:#231f20;fill-opacity:1;fill-rule:nonzero;stroke:none"
           d="m 5667.02,16300 h -1083.3 c -128.68,0 -233.01,-136.6 -233.01,-305.2 v -230.1 c 0,-21.1 56.76,-39.6 99.22,-55.4 v 156.6 c 0,168.6 62.84,334.4 180.45,334.4 h 989.98 c 117.62,0 180.46,-165.8 180.46,-334.4 v -156.6 c 42.46,15.8 99.22,34.3 99.22,55.4 v 230.1 c 0,168.6 -104.33,305.2 -233.02,305.2" /></g><g
         transform="scale(1.16661)"
         id="g5226"><path
           id="path5228"
           style="fill:#726658;fill-opacity:1;fill-rule:nonzero;stroke:none"
           d="M 6514.08,16300 H 4303.02 c -150.11,0 -271.8,-74.1 -271.8,-165.3 v -1158 c 0,-91.2 121.69,-165.2 271.8,-165.2 h 2211.06 c 150.11,0 271.8,74 271.8,165.2 v 1158 c 0,91.2 -121.69,165.3 -271.8,165.3" /></g><g
         transform="scale(1.17027)"
         id="g5230"><path
           id="path5232"
           style="fill:#231f20;fill-opacity:1;fill-rule:nonzero;stroke:none"
           d="m 4289.58,16198.1 c -126.97,0 -221.84,-60.1 -221.84,-113.8 v -1154.4 c 0,-53.7 94.87,-113.7 221.84,-113.7 h 2204.13 c 126.98,0 221.84,60 221.84,113.7 v 1154.4 c 0,53.7 -94.86,113.8 -221.84,113.8 H 4289.58 m 0,-1483.9 c -179.48,0 -320.08,94.8 -320.08,215.7 v 1154.4 c 0,120.9 140.6,215.7 320.08,215.7 h 2204.13 c 179.49,0 320.09,-94.8 320.09,-215.7 v -1154.4 c 0,-120.9 -140.6,-215.7 -320.09,-215.7 H 4289.58" /></g><g
         transform="scale(1.14549)"
         id="g5234"><path
           id="path5236"
           style="fill:#5a5147;fill-opacity:1;fill-rule:nonzero;stroke:none"
           d="m 6686.04,15140.1 v 132 c 48.31,32.4 76.06,77.4 76.07,139 -2.97,255.6 -6.17,551.2 64.99,797.2 8,30.4 16.05,60.6 23.72,88.6 3.4,1 6.74,2.1 10.01,3.1 v -1047.1 c 0,-47.3 -71.93,-99.3 -174.79,-112.8" /></g><g
         transform="scale(1.14671)"
         id="g5238"><path
           id="path5240"
           style="fill:#231f20;fill-opacity:1;fill-rule:nonzero;stroke:none"
           d="m 6678.1,15071.7 c 0.57,3.9 0.86,7.9 0.86,12 v 40.3 c 102.75,13.5 174.6,65.5 174.6,112.7 v 1046 c 13.72,4.7 26.18,10.6 37,17.3 v -1061.7 c 0,-27.7 -9.8,-71.7 -0.88,-71.7 0.27,0 0.57,0.1 0.88,0.2 -39.07,-50.5 -118.18,-87.3 -212.46,-95.1" /></g><g
         transform="scale(1.14549)"
         id="g5242"><path
           id="path5244"
           style="fill:#5a5147;fill-opacity:1;fill-rule:nonzero;stroke:none"
           d="M 6317.51,15136.7 H 4699.03 v 57.5 c 32.3,-1.1 65.57,-1.6 99.6,-1.6 h 1419.29 c 34.01,0 67.32,0.5 99.59,1.6 v -57.5 m -1986.99,3.4 c -102.86,13.5 -174.78,65.5 -174.78,112.8 V 16300 c 3.26,-1 6.6,-2.1 10,-3.1 20.1,-73.5 42.9,-161.7 60.36,-230.3 43.59,-149.5 26.87,-497.6 28.36,-655.5 0,-61.6 27.74,-106.6 76.06,-139 v -132" /></g><g
         transform="scale(1.14671)"
         id="g5246"><path
           id="path5248"
           style="fill:#231f20;fill-opacity:1;fill-rule:nonzero;stroke:none"
           d="M 6312.23,15070.1 H 4692.64 c 0.94,5.1 1.41,10.3 1.41,15.6 v 35 h 1616.77 v -35 c 0,-5.3 0.48,-10.5 1.41,-15.6 m -1985.45,1.6 c -94.27,7.8 -173.38,44.6 -212.45,95.1 0.31,-0.1 0.61,-0.2 0.89,-0.2 8.89,0 -0.89,44 -0.89,71.7 V 16300 c 10.81,-6.7 23.28,-12.6 37.01,-17.3 v -1046 c 0,-47.2 71.84,-99.2 174.59,-112.7 v -40.3 c 0,-4.1 0.29,-8.1 0.85,-12" /></g><g
         transform="scale(1.19417)"
         id="g5250"><path
           id="path5252"
           style="fill:#726658;fill-opacity:1;fill-rule:nonzero;stroke:none"
           d="M 6387.76,16300 H 4179.72 c -149.91,0 -271.43,-72.3 -271.43,-161.5 v -327.4 c 0,-50.7 69.2,-91.8 154.56,-91.8 h 2441.77 c 85.35,0 154.57,41.1 154.57,91.8 v 327.4 c 0,89.2 -121.53,161.5 -271.43,161.5" /></g><g
         transform="scale(1.19051)"
         id="g5254"><path
           id="path5256"
           style="fill:#c7c2bc;fill-opacity:1;fill-rule:nonzero;stroke:none"
           d="m 4012.14,16223.3 c -10.86,0 -21.01,0.3 -30.05,0.9 27.52,37 95.22,69.7 184.67,75 v -67.2 h -29.44 c -39.33,-5.2 -86.72,-8.7 -125.18,-8.7 m 2570.32,0.1 c -35.48,0 -80.05,3.4 -119.44,8.6 h -29.81 v 67.2 c 88.91,-5.2 156.32,-37.6 184.17,-74.3 -9.91,-1.1 -21.79,-1.5 -34.92,-1.5 m -503.84,8.6 H 4521.34 v 68 h 1557.28 v -68" /></g><g
         transform="scale(1.16058)"
         id="g5258"><path
           id="path5260"
           style="fill:#5a5147;fill-opacity:1;fill-rule:nonzero;stroke:none"
           d="m 6692.87,16225.6 h -79.79 v 6.3 c 0,13.3 -5.05,25.8 -13.98,36.7 v 5.4 h 93.77 c 42.43,0 80.99,9.9 109.5,26 v -25.9 c 0,-5.9 -2.18,-11.5 -6.1,-15.7 -11.4,-12.2 -46,-32.8 -103.4,-32.8 m -471.49,0 H 4651.91 v 6.3 c 0,13.3 -5.05,25.8 -13.98,36.7 v 5.4 h 1597.43 v -5.4 c -8.93,-11 -13.98,-23.4 -13.98,-36.7 v -6.3 m -1961.17,0 h -79.78 c -57.39,0 -91.99,20.6 -103.38,32.8 -3.93,4.2 -6.11,9.8 -6.11,15.7 v 25.9 c 28.51,-16.1 67.06,-26 109.5,-26 h 93.77 v -5.4 c -8.94,-10.9 -14,-23.4 -14,-36.7 v -6.3" /></g><g
         transform="scale(1.14867)"
         id="g5262"><path
           id="path5264"
           style="fill:#5a5147;fill-opacity:1;fill-rule:nonzero;stroke:none"
           d="m 6762.25,16242.4 h -80.61 v 47.5 h 80.61 c 28.45,0 55.23,3.6 79.56,10.1 v -12.3 c -3.23,-11.5 -6.56,-23.5 -9.98,-35.9 -21.05,-6.1 -44.65,-9.4 -69.58,-9.4" /></g><g
         transform="scale(1.15148)"
         id="g5266"><path
           id="path5268"
           style="fill:#231f20;fill-opacity:1;fill-rule:nonzero;stroke:none"
           d="m 6861.97,16232.3 v 41 c 16.55,7.3 31.37,16.4 44.08,26.7 v -2 c 0,-25.4 -16.77,-48.5 -44.08,-65.7 m -36.86,15.7 v 12.2 c 1.26,0.4 2.51,0.7 3.75,1.1 -1.22,-4.4 -2.48,-8.8 -3.75,-13.3" /></g><g
         transform="scale(1.14781)"
         id="g5270"><path
           id="path5272"
           style="fill:#49423b;fill-opacity:1;fill-rule:nonzero;stroke:none"
           d="m 6836.98,16264 c 3.42,12.5 6.76,24.5 9.98,36 v -32.9 c -3.26,-1.1 -6.59,-2.1 -9.98,-3.1" /></g><g
         transform="scale(1.1496)"
         id="g5274"><path
           id="path5276"
           style="fill:#231f20;fill-opacity:1;fill-rule:nonzero;stroke:none"
           d="m 6836.33,16241.8 v 32.9 c 1.27,4.5 2.53,8.9 3.76,13.3 11.67,3.3 22.75,7.3 33.16,12 v -41 c -10.8,-6.7 -23.23,-12.5 -36.92,-17.2" /></g><g
         transform="scale(1.14867)"
         id="g5278"><path
           id="path5280"
           style="fill:#5a5147;fill-opacity:1;fill-rule:nonzero;stroke:none"
           d="M 6285.87,16242.4 H 4700.14 v 47.5 h 1585.73 v -47.5 m -1981.49,0 h -80.61 c -24.92,0 -48.52,3.3 -69.57,9.4 -3.42,12.4 -6.76,24.5 -9.98,35.9 v 12.3 c 24.31,-6.5 51.1,-10.1 79.54,-10.1 h 80.62 v -47.5" /></g><g
         transform="scale(1.15148)"
         id="g5282"><path
           id="path5284"
           style="fill:#231f20;fill-opacity:1;fill-rule:nonzero;stroke:none"
           d="m 4097.25,16232.3 c -27.31,17.2 -44.07,40.3 -44.07,65.7 v 2 c 12.7,-10.3 27.52,-19.4 44.07,-26.7 v -41 m 36.86,15.7 c -1.28,4.5 -2.53,8.9 -3.76,13.3 1.25,-0.4 2.5,-0.7 3.76,-1.1 v -12.2" /></g><g
         transform="scale(1.14781)"
         id="g5286"><path
           id="path5288"
           style="fill:#49423b;fill-opacity:1;fill-rule:nonzero;stroke:none"
           d="m 4157.33,16264 c -3.4,1 -6.73,2 -9.99,3.1 v 32.9 c 3.22,-11.4 6.56,-23.5 9.99,-36" /></g><g
         transform="scale(1.1496)"
         id="g5290"><path
           id="path5292"
           style="fill:#231f20;fill-opacity:1;fill-rule:nonzero;stroke:none"
           d="m 4140.9,16241.8 c -13.69,4.7 -26.13,10.5 -36.91,17.2 v 41 c 10.4,-4.7 21.47,-8.7 33.15,-12 1.23,-4.4 2.48,-8.8 3.76,-13.3 v -32.9" /></g><g
         transform="scale(1.19783)"
         id="g5294"><path
           id="path5296"
           style="fill:#231f20;fill-opacity:1;fill-rule:nonzero;stroke:none"
           d="m 4166.95,16200.4 c -131.17,0 -222.59,-58.5 -222.59,-111.1 V 15768 c 0,-5.6 2.11,-11.1 5.91,-15.2 11.04,-11.7 44.57,-31.8 100.17,-31.8 h 2434.32 c 55.61,0 89.14,20.1 100.18,31.8 3.8,4.1 5.92,9.6 5.92,15.2 v 321.3 c 0,52.6 -91.42,111.1 -222.6,111.1 H 4166.95 m -116.51,-579 c -115.2,0 -202.08,60.8 -202.08,141.5 v 326.4 c 0,120.1 136.96,210.7 318.59,210.7 h 2201.31 c 181.61,0 318.57,-90.6 318.57,-210.7 v -326.4 c 0,-80.7 -86.88,-141.5 -202.07,-141.5 H 4050.44" /></g><g
         transform="scale(1.19701)"
         id="g5298"><path
           id="path5300"
           style="fill:#594a42;fill-opacity:1;fill-rule:nonzero;stroke:none"
           d="m 6362.05,16235.7 v -1785.9 c 0,-35.5 -46.98,-64.3 -104.93,-64.3 h -67.26 c -59.67,0 -108.04,29.6 -108.04,66.2 v 1782.1 c 0,36.5 48.37,66.2 108.04,66.2 h 67.26 c 57.95,0 104.93,-28.8 104.93,-64.3" /></g><g
         transform="scale(1.19396)"
         id="g5302"><path
           id="path5304"
           style="fill:#a49c97;fill-opacity:1;fill-rule:nonzero;stroke:none"
           d="m 6305.61,14463.8 c 4.38,7.2 6.78,14.9 6.78,22.9 v 953.2 c 10.23,0.2 20.16,1.1 29.6,2.8 v -956 c 0,-4.8 -12.68,-16.6 -36.38,-22.9 m 36.38,1387.9 c -9.44,1.7 -19.37,2.7 -29.6,2.8 v 422.6 c 0,8.1 -2.4,15.8 -6.78,22.9 23.7,-6.3 36.38,-18 36.38,-22.9 v -425.4" /></g><g
         transform="scale(1.19395)"
         id="g5306"><path
           id="path5308"
           style="fill:#493d38;fill-opacity:1;fill-rule:nonzero;stroke:none"
           d="m 6172.34,14464.2 c -25.17,6.6 -38.63,19.4 -38.63,24.6 v 954 c 10.05,-1.7 20.64,-2.7 31.57,-2.7 h 0.36 v -953.2 c 0,-8 2.37,-15.7 6.7,-22.7 m -38.63,1387.7 v 423.5 c 0,5.2 13.46,18 38.63,24.6 -4.33,-7 -6.7,-14.7 -6.7,-22.7 v -422.6 h -0.36 c -10.93,0 -21.52,-0.9 -31.57,-2.8" /></g><g
         transform="scale(1.19977)"
         id="g5310"><path
           id="path5312"
           style="fill:#231f20;fill-opacity:1;fill-rule:nonzero;stroke:none"
           d="m 6175.62,16225 c -46.26,0 -71.67,-21.4 -71.67,-28.6 v -1777.9 c 0,-7.2 25.41,-28.6 71.67,-28.6 h 67.1 c 44.24,0 68.56,20 68.56,26.7 v 1781.7 c 0,6.7 -24.32,26.7 -68.56,26.7 h -67.1 m 67.1,-1910.1 h -67.1 c -82.05,0 -143.94,44.5 -143.94,103.6 v 1777.9 c 0,59.1 61.89,103.6 143.94,103.6 h 67.1 c 80.28,0 140.82,-43.7 140.82,-101.7 v -1781.7 c 0,-58.1 -60.54,-101.7 -140.82,-101.7" /></g><g
         transform="scale(1.16133)"
         id="g5314"><path
           id="path5316"
           style="fill:#f9ed32;fill-opacity:1;fill-rule:nonzero;stroke:none"
           d="m 6608.82,16221.5 v -269.1 c 0,-43.4 -54.21,-78.6 -121.08,-78.6 h -149.29 c -66.86,0 -121.08,35.2 -121.08,78.6 v 269.1 c 0,43.4 54.22,78.5 121.08,78.5 h 149.29 c 66.87,0 121.08,-35.1 121.08,-78.5" /></g><g
         transform="scale(1.16023)"
         id="g5318"><path
           id="path5320"
           style="fill:#fcf699;fill-opacity:1;fill-rule:nonzero;stroke:none"
           d="m 6615.11,16151.6 c 0,43.4 -54.26,78.6 -121.2,78.6 h -149.43 c -66.92,0 -121.2,-35.2 -121.2,-78.6 v 69.8 c 0,43.4 54.28,78.6 121.2,78.6 h 149.43 c 66.94,0 121.2,-35.2 121.2,-78.6 v -69.8" /></g><g
         transform="scale(1.14324)"
         id="g5322"><path
           id="path5324"
           style="fill:#aea52c;fill-opacity:1;fill-rule:nonzero;stroke:none"
           d="m 6590.41,16149.3 h -151.65 c -67.92,0 -123,35.8 -123,79.8 v 70.9 c 0,-44.1 55.08,-79.9 123,-79.9 h 151.65 c 67.93,0 123,35.8 123,79.9 v -70.9 c 0,-44 -55.07,-79.8 -123,-79.8" /></g><g
         transform="scale(1.16409)"
         id="g5326"><path
           id="path5328"
           style="fill:#231f20;fill-opacity:1;fill-rule:nonzero;stroke:none"
           d="m 6323.42,16222.7 c -50.23,0 -83.56,-23.9 -83.56,-39.7 v -268.4 c 0,-15.9 33.33,-39.8 83.56,-39.8 h 148.93 c 50.24,0 83.56,23.9 83.56,39.8 v 268.4 c 0,15.8 -33.32,39.7 -83.56,39.7 z m 148.93,-425.2 h -148.93 c -88.61,0 -158.03,51.4 -158.03,117.1 v 268.4 c 0,65.6 69.42,117 158.03,117 h 148.93 c 88.62,0 158.04,-51.4 158.04,-117 v -268.4 c 0,-65.7 -69.42,-117.1 -158.04,-117.1" /></g><g
         transform="scale(1.19701)"
         id="g5330"><path
           id="path5332"
           style="fill:#594a42;fill-opacity:1;fill-rule:nonzero;stroke:none"
           d="m 4180.33,16235.7 v -1785.9 c 0,-35.5 46.98,-64.3 104.93,-64.3 h 67.27 c 59.66,0 108.04,29.6 108.04,66.2 v 1782.1 c 0,36.5 -48.38,66.2 -108.04,66.2 h -67.27 c -57.95,0 -104.93,-28.8 -104.93,-64.3" /></g><g
         transform="scale(1.19396)"
         id="g5334"><path
           id="path5336"
           style="fill:#a49c97;fill-opacity:1;fill-rule:nonzero;stroke:none"
           d="m 4263.68,14463.8 c -23.68,6.3 -36.36,18.1 -36.36,22.9 v 956 c 9.44,-1.7 19.36,-2.6 29.59,-2.8 v -953.2 c 0,-8 2.4,-15.7 6.77,-22.9 m -36.36,1387.9 v 425.4 c 0,4.9 12.67,16.6 36.36,22.9 -4.38,-7.1 -6.77,-14.8 -6.77,-22.9 v -422.6 c -10.23,-0.1 -20.15,-1.1 -29.59,-2.8" /></g><g
         transform="scale(1.19395)"
         id="g5338"><path
           id="path5340"
           style="fill:#493d38;fill-opacity:1;fill-rule:nonzero;stroke:none"
           d="m 4397.07,14464.2 c 4.33,7 6.7,14.7 6.7,22.7 v 953.2 h 0.35 c 10.94,0 21.53,1 31.57,2.7 v -954 c 0,-5.2 -13.46,-18 -38.62,-24.6 m 38.62,1387.7 c -10.04,1.9 -20.63,2.8 -31.57,2.8 h -0.35 v 422.6 c 0,8 -2.37,15.7 -6.7,22.7 25.16,-6.6 38.62,-19.4 38.62,-24.6 v -423.5" /></g><g
         transform="scale(1.19977)"
         id="g5342"><path
           id="path5344"
           style="fill:#231f20;fill-opacity:1;fill-rule:nonzero;stroke:none"
           d="m 4342.51,16225 c 46.25,0 71.66,-21.4 71.66,-28.6 v -1777.9 c 0,-7.2 -25.41,-28.6 -71.66,-28.6 h -67.11 c -44.23,0 -68.55,20 -68.55,26.7 v 1781.7 c 0,6.7 24.32,26.7 68.55,26.7 h 67.11 m -67.11,-1910.1 h 67.11 c 82.05,0 143.92,44.5 143.92,103.6 v 1777.9 c 0,59.1 -61.87,103.6 -143.92,103.6 h -67.11 c -80.27,0 -140.81,-43.7 -140.81,-101.7 v -1781.7 c 0,-58.1 60.54,-101.7 140.81,-101.7" /></g><g
         transform="scale(1.16133)"
         id="g5346"><path
           id="path5348"
           style="fill:#f9ed32;fill-opacity:1;fill-rule:nonzero;stroke:none"
           d="m 4257.47,16221.5 v -269.1 c 0,-43.4 54.2,-78.6 121.08,-78.6 h 149.28 c 66.88,0 121.08,35.2 121.08,78.6 v 269.1 c 0,43.4 -54.2,78.5 -121.08,78.5 h -149.28 c -66.88,0 -121.08,-35.1 -121.08,-78.5" /></g><g
         transform="scale(1.16023)"
         id="g5350"><path
           id="path5352"
           style="fill:#fcf699;fill-opacity:1;fill-rule:nonzero;stroke:none"
           d="m 4653.34,16151.6 c 0,43.4 -54.26,78.6 -121.2,78.6 h -149.42 c -66.94,0 -121.2,-35.2 -121.2,-78.6 v 69.8 c 0,43.4 54.26,78.6 121.2,78.6 h 149.42 c 66.94,0 121.2,-35.2 121.2,-78.6 v -69.8" /></g><g
         transform="scale(1.14324)"
         id="g5354"><path
           id="path5356"
           style="fill:#aea52c;fill-opacity:1;fill-rule:nonzero;stroke:none"
           d="m 4599.48,16149.3 h -151.64 c -67.93,0 -123,35.8 -123,79.8 v 70.9 c 0,-44.1 55.07,-79.9 123,-79.9 h 151.64 c 67.94,0 123,35.8 123,79.9 v -70.9 c 0,-44 -55.06,-79.8 -123,-79.8" /></g><g
         transform="scale(1.16409)"
         id="g5358"><path
           id="path5360"
           style="fill:#231f20;fill-opacity:1;fill-rule:nonzero;stroke:none"
           d="m 4517.1,16222.7 c 50.23,0 83.56,-23.9 83.56,-39.7 v -268.4 c 0,-15.9 -33.33,-39.8 -83.56,-39.8 h -148.93 c -50.24,0 -83.56,23.9 -83.56,39.8 v 268.4 c 0,15.8 33.32,39.7 83.56,39.7 z m -148.93,-425.2 h 148.93 c 88.61,0 158.04,51.4 158.04,117.1 v 268.4 c 0,65.6 -69.43,117 -158.04,117 h -148.93 c -88.62,0 -158.04,-51.4 -158.04,-117 v -268.4 c 0,-65.7 69.42,-117.1 158.04,-117.1" /></g><g
         transform="scale(1.25573)"
         id="g5362"><path
           id="path5364"
           style="fill:#865439;fill-opacity:1;fill-rule:nonzero;stroke:none"
           d="m 4162.11,16300 c 95.63,-27.7 201.96,-85.7 249.68,-169.4 263.96,-462.9 -532.99,-849.9 -692.05,-136.4 l 442.37,305.8" /></g><g
         transform="scale(1.25943)"
         id="g5366"><path
           id="path5368"
           style="fill:#231f20;fill-opacity:1;fill-rule:nonzero;stroke:none"
           d="m 4157.55,16201.7 c 75.74,-25.5 163.06,-73.9 201.46,-141.2 64.51,-113.1 61.93,-232.5 -7.08,-327.4 -72.64,-99.9 -200.04,-150.8 -317.03,-126.5 -130.34,27.1 -226.96,140.5 -274.13,320.7 l 396.78,274.4 m 25.77,-682.3 c 95.28,22 183.4,78.1 242.78,159.8 91.15,125.4 95.73,280.9 12.56,426.7 -47.11,82.7 -150.29,153.8 -276,190.3 -13.25,3.8 -27.52,1.5 -38.86,-6.4 l -441.06,-304.9 c -15.36,-10.6 -22.75,-29.5 -18.69,-47.7 70.63,-316.8 250.99,-399.3 352.22,-420.4 55.3,-11.4 112.36,-10.1 167.05,2.6" /></g><g
         transform="scale(1.24492)"
         id="g5370"><path
           id="path5372"
           style="fill:#634230;fill-opacity:1;fill-rule:nonzero;stroke:none"
           d="m 4244.34,15800 c 155.17,86 249.55,279.1 130.72,487.5 -2.42,4.2 -4.98,8.4 -7.69,12.5 17.09,-15.9 31.69,-33.3 42.47,-52.2 65.26,-114.5 62.65,-235.2 -7.16,-331.2 -39.94,-55 -96.25,-95.2 -158.34,-116.6" /></g><g
         transform="scale(1.24605)"
         id="g5374"><path
           id="path5376"
           style="fill:#231f20;fill-opacity:1;fill-rule:nonzero;stroke:none"
           d="m 4219.53,15774.8 c 7.1,3.4 14.09,7 20.96,10.9 62.03,21.3 118.28,61.5 158.19,116.4 69.75,95.9 72.36,216.6 7.15,331 -10.77,18.8 -25.35,36.2 -42.43,52.1 -3.31,5 -6.84,10 -10.57,14.8 23.2,-19.1 42.95,-40.8 56.65,-64.9 66.07,-115.8 63.37,-238.1 -7.39,-335.5 -45.16,-62.1 -111,-105.7 -182.56,-124.8" /></g><g
         transform="scale(1.22491)"
         id="g5378"><path
           id="path5380"
           style="fill:#231f20;fill-opacity:1;fill-rule:nonzero;stroke:none"
           d="m 4504.53,16172.7 c 9.8,6.6 12.37,19.9 5.74,29.7 l -57.66,85.3 c -6.63,9.8 -19.95,12.3 -29.76,5.7 -9.8,-6.6 -12.36,-19.9 -5.73,-29.7 l 57.65,-85.3 c 6.64,-9.8 19.96,-12.4 29.76,-5.7" /></g><g
         transform="scale(1.21328)"
         id="g5382"><path
           id="path5384"
           style="fill:#231f20;fill-opacity:1;fill-rule:nonzero;stroke:none"
           d="m 4316.83,16171.4 c 9.9,6.7 12.49,20.2 5.79,30.1 l -58.2,86 c -6.7,9.9 -20.15,12.5 -30.04,5.7 -9.9,-6.6 -12.49,-20.1 -5.8,-30 l 58.2,-86 c 6.71,-9.9 20.16,-12.5 30.05,-5.8" /></g><g
         transform="scale(1.25932)"
         id="g5386"><path
           id="path5388"
           style="fill:#231f20;fill-opacity:1;fill-rule:nonzero;stroke:none"
           d="m 4260.18,15551 c -75.8,-34.3 -161.15,-45.6 -242.71,-28.7 -100.24,20.8 -278.89,102.7 -349.02,417.2 -5.01,22.5 9.15,44.8 31.61,49.8 22.48,5 44.77,-9.2 49.77,-31.7 44.41,-199.2 145.48,-324.8 284.59,-353.6 118.56,-24.7 247.66,26.8 321.27,128 70.02,96.4 72.68,217.4 7.32,332 -42.53,74.6 -143.79,126.1 -224.38,149.5 -22.1,6.4 -34.83,29.5 -28.42,51.7 6.41,22.1 29.53,34.8 51.66,28.4 124.7,-36.2 226.97,-106.6 273.57,-188.3 82.32,-144.4 77.83,-298.3 -12.31,-422.3 -42.26,-58.1 -99.23,-103.2 -162.95,-132" /></g><g
         transform="scale(1.421)"
         id="g5390"><path
           id="path5392"
           style="fill:#f5b553;fill-opacity:1;fill-rule:nonzero;stroke:none"
           d="m 3417.73,15246 c 50.23,-253.8 139.86,-521.1 297.46,-734.6 13.01,-17.6 24.1,-36.8 33.3,-57 l -551.1,-363.6 c -200.38,211.4 -475.08,552.7 -549,1011.3 -61.17,379.6 42.4,811.1 325.21,1032.5 45.98,36 90.4,72.4 122.06,97.7 8.07,6.4 80.85,67.7 83.87,57.8 l 238.2,-1044.1" /></g><g
         transform="scale(1.32153)"
         id="g5394"><path
           id="path5396"
           style="fill:#fadaa9;fill-opacity:1;fill-rule:nonzero;stroke:none"
           d="m 3927.28,15533.1 c -4.75,7.9 -9.85,15.4 -15.34,22.7 -137.96,182.7 -220.45,408.1 -268.74,631.1 -8.16,37.7 -7.57,76.4 1.43,113.1 66.86,-292.8 171.18,-536.6 310.63,-725.5 3.75,-5.1 7.34,-10.3 10.8,-15.8 l -38.78,-25.6" /></g><g
         transform="scale(1.33167)"
         id="g5398"><path
           id="path5400"
           style="fill:#ac8141;fill-opacity:1;fill-rule:nonzero;stroke:none"
           d="m 4039.61,15454.4 c -10.41,21.2 -22.46,41.2 -35.93,59.4 -142.81,193.5 -246.7,450.7 -308.8,764.4 -1.64,8.3 -5.32,15.7 -10.42,21.8 l 28.03,-5 c 1.18,0.4 2.42,0.6 3.74,0.6 15.65,0 39.38,-25.8 42.16,-40.3 46.37,-244 135.12,-527.1 284.08,-724.4 l 0.39,-0.5 c 17.5,-23.3 14.99,-55 -3.25,-76" /></g><g
         transform="scale(1.42075)"
         id="g5402"><path
           id="path5404"
           style="fill:#231f20;fill-opacity:1;fill-rule:nonzero;stroke:none"
           d="m 3221.14,14053.8 c 0.67,0.4 1.34,0.9 2,1.3 l 551.2,363.7 c 18.82,12.4 25.79,36.6 16.43,57.1 -10.7,23.5 -23.52,45.4 -38.12,65.2 -133.86,181.3 -231.24,422.4 -289.44,716.4 -4.91,24.8 -28.97,40.9 -53.76,36 -24.79,-4.9 -40.9,-29 -36,-53.8 60.84,-307.3 163.65,-560.7 305.58,-752.9 3.48,-4.8 6.82,-9.6 10.04,-14.7 l -484.1,-319.4 c -290.32,313.9 -457.55,628 -510.95,959.3 -53.28,330.7 21.39,764.8 308.3,989.4 30.16,23.6 59.38,47.2 85.16,68 21.29,17.2 39.68,32 53.64,42.9 19.96,15.5 23.55,44.2 8.05,64.2 -15.52,19.9 -44.28,23.5 -64.21,8 -14.62,-11.4 -33.31,-26.4 -54.95,-43.9 -25.53,-20.6 -54.47,-44 -84.09,-67.2 -141.53,-110.7 -247.8,-276.8 -307.36,-480.1 -54.44,-185.9 -66.82,-397.5 -34.87,-595.8 58,-359.9 241.53,-698.7 561.06,-1035.7 14.72,-15.5 38.13,-18.7 56.39,-8" /></g><g
         transform="scale(1.25573)"
         id="g5406"><path
           id="path5408"
           style="fill:#865439;fill-opacity:1;fill-rule:nonzero;stroke:none"
           d="m 5885.68,16300 c -95.63,-27.7 -201.96,-85.7 -249.69,-169.4 -263.96,-462.9 533,-849.9 692.06,-136.4 l -442.37,305.8" /></g><g
         transform="scale(1.25943)"
         id="g5410"><path
           id="path5412"
           style="fill:#231f20;fill-opacity:1;fill-rule:nonzero;stroke:none"
           d="m 5860.72,16201.7 c -75.75,-25.5 -163.06,-73.9 -201.45,-141.2 -64.52,-113.1 -61.94,-232.5 7.07,-327.4 72.64,-99.9 200.04,-150.8 317.02,-126.5 130.35,27.1 226.96,140.5 274.13,320.7 l -396.77,274.4 m -25.76,-682.3 c -95.29,22 -183.41,78.1 -242.79,159.8 -91.15,125.4 -95.73,280.9 -12.57,426.7 47.12,82.7 150.3,153.8 276.01,190.3 13.25,3.8 27.51,1.5 38.85,-6.4 l 441.07,-304.9 c 15.36,-10.6 22.74,-29.5 18.69,-47.7 -70.64,-316.8 -250.99,-399.3 -352.22,-420.4 -55.3,-11.4 -112.37,-10.1 -167.04,2.6" /></g><g
         transform="scale(1.24491)"
         id="g5414"><path
           id="path5416"
           style="fill:#634230;fill-opacity:1;fill-rule:nonzero;stroke:none"
           d="m 5890.75,15800 c -62.08,21.4 -118.39,61.7 -158.33,116.6 -69.81,96 -72.42,216.8 -7.15,331.2 10.77,18.9 25.36,36.3 42.44,52.2 -2.7,-4.1 -5.26,-8.3 -7.67,-12.5 -118.84,-208.4 -24.46,-401.5 130.71,-487.5" /></g><g
         transform="scale(1.24605)"
         id="g5418"><path
           id="path5420"
           style="fill:#231f20;fill-opacity:1;fill-rule:nonzero;stroke:none"
           d="m 5906.36,15774.8 c -71.57,19.1 -137.4,62.7 -182.56,124.8 -70.77,97.4 -73.46,219.7 -7.4,335.5 13.71,24.1 33.46,45.8 56.64,64.9 -3.72,-4.8 -7.25,-9.8 -10.57,-14.8 -17.07,-15.9 -31.64,-33.3 -42.41,-52.1 -65.21,-114.4 -62.6,-235.1 7.15,-331 39.91,-54.9 96.16,-95.1 158.19,-116.4 6.86,-3.9 13.86,-7.5 20.96,-10.9" /></g><g
         transform="scale(1.22491)"
         id="g5422"><path
           id="path5424"
           style="fill:#231f20;fill-opacity:1;fill-rule:nonzero;stroke:none"
           d="m 5796.12,16172.7 c -9.81,6.6 -12.37,19.9 -5.74,29.7 l 57.65,85.3 c 6.64,9.8 19.95,12.3 29.76,5.7 9.8,-6.6 12.37,-19.9 5.74,-29.7 l -57.66,-85.3 c -6.63,-9.8 -19.96,-12.4 -29.75,-5.7" /></g><g
         transform="scale(1.21328)"
         id="g5426"><path
           id="path5428"
           style="fill:#231f20;fill-opacity:1;fill-rule:nonzero;stroke:none"
           d="m 6082.52,16171.4 c -9.9,6.7 -12.5,20.2 -5.8,30.1 l 58.21,86 c 6.69,9.9 20.14,12.5 30.04,5.7 9.9,-6.6 12.49,-20.1 5.79,-30 l -58.2,-86 c -6.7,-9.9 -20.14,-12.5 -30.04,-5.8" /></g><g
         transform="scale(1.25932)"
         id="g5430"><path
           id="path5432"
           style="fill:#231f20;fill-opacity:1;fill-rule:nonzero;stroke:none"
           d="m 5758.97,15551 c 75.81,-34.3 161.15,-45.6 242.71,-28.7 100.25,20.8 278.91,102.7 349.03,417.2 5.02,22.5 -9.16,44.8 -31.62,49.8 -22.48,5 -44.75,-9.2 -49.76,-31.7 -44.42,-199.2 -145.5,-324.8 -284.59,-353.6 -118.58,-24.7 -247.67,26.8 -321.27,128 -70.03,96.4 -72.69,217.4 -7.33,332 42.53,74.6 143.79,126.1 224.37,149.5 22.12,6.4 34.85,29.5 28.43,51.7 -6.41,22.1 -29.53,34.8 -51.65,28.4 -124.71,-36.2 -226.98,-106.6 -273.57,-188.3 -82.32,-144.4 -77.84,-298.3 12.31,-422.3 42.25,-58.1 99.23,-103.2 162.94,-132" /></g><g
         transform="scale(1.421)"
         id="g5434"><path
           id="path5436"
           style="fill:#f5b553;fill-opacity:1;fill-rule:nonzero;stroke:none"
           d="m 5461.46,15246 c -50.22,-253.8 -139.84,-521.1 -297.46,-734.6 -13.01,-17.6 -24.09,-36.8 -33.31,-57 l 551.11,-363.6 c 200.39,211.4 475.08,552.7 549,1011.3 61.18,379.6 -42.38,811.1 -325.21,1032.5 -45.98,36 -90.39,72.4 -122.04,97.7 -8.09,6.4 -80.86,67.7 -83.88,57.8 L 5461.46,15246" /></g><g
         transform="scale(1.32153)"
         id="g5438"><path
           id="path5440"
           style="fill:#fadaa9;fill-opacity:1;fill-rule:nonzero;stroke:none"
           d="m 5620.27,15533.1 -38.78,25.6 c 3.45,5.5 7.05,10.7 10.78,15.8 139.45,188.9 243.79,432.7 310.64,725.5 9.01,-36.7 9.6,-75.4 1.44,-113.1 -48.29,-223 -130.79,-448.4 -268.74,-631.1 -5.49,-7.3 -10.6,-14.9 -15.34,-22.7" /></g><g
         transform="scale(1.33167)"
         id="g5442"><path
           id="path5444"
           style="fill:#ac8141;fill-opacity:1;fill-rule:nonzero;stroke:none"
           d="m 5435.22,15454.4 c -18.24,21 -20.75,52.7 -3.26,76 l 0.39,0.5 c 148.96,197.3 237.71,480.4 284.09,724.4 2.76,14.5 26.51,40.3 42.16,40.3 1.31,0 2.56,-0.2 3.74,-0.6 l 28.02,5 c -5.09,-6.1 -8.77,-13.5 -10.42,-21.8 -62.09,-313.7 -165.99,-570.9 -308.8,-764.4 -13.47,-18.2 -25.52,-38.2 -35.92,-59.4" /></g><g
         transform="scale(1.42075)"
         id="g5446"><path
           id="path5448"
           style="fill:#231f20;fill-opacity:1;fill-rule:nonzero;stroke:none"
           d="m 5659.61,14053.8 c -0.69,0.4 -1.35,0.9 -2.02,1.3 l -551.19,363.7 c -18.82,12.4 -25.78,36.6 -16.43,57.1 10.7,23.5 23.52,45.4 38.12,65.2 133.86,181.3 231.24,422.4 289.44,716.4 4.91,24.8 28.98,40.9 53.76,36 24.79,-4.9 40.9,-29 35.99,-53.8 -60.82,-307.3 -163.64,-560.7 -305.57,-752.9 -3.47,-4.8 -6.82,-9.6 -10.03,-14.7 l 484.1,-319.4 c 290.32,313.9 457.55,628 510.94,959.3 53.28,330.7 -21.38,764.8 -308.3,989.4 -30.15,23.6 -59.38,47.2 -85.15,68 -21.3,17.2 -39.68,32 -53.66,42.9 -19.94,15.5 -23.54,44.2 -8.04,64.2 15.52,19.9 44.29,23.5 64.21,8 14.62,-11.4 33.31,-26.4 54.96,-43.9 25.52,-20.6 54.46,-44 84.09,-67.2 141.51,-110.7 247.79,-276.8 307.35,-480.1 54.45,-185.9 66.84,-397.5 34.88,-595.8 -58.01,-359.9 -241.54,-698.7 -561.07,-1035.7 -14.71,-15.5 -38.13,-18.7 -56.38,-8" /></g><g
         transform="scale(1.60927)"
         id="g5450"><path
           id="path5452"
           style="fill:#865439;fill-opacity:1;fill-rule:nonzero;stroke:none"
           d="m 2759.34,15694.3 c 0,-334.5 -271.17,-605.7 -605.68,-605.7 -334.51,0 -605.68,271.2 -605.68,605.7 0,334.5 271.17,605.7 605.68,605.7 334.51,0 605.68,-271.2 605.68,-605.7" /></g><g
         transform="scale(1.60495)"
         id="g5454"><path
           id="path5456"
           style="fill:#c8b2a6;fill-opacity:1;fill-rule:nonzero;stroke:none"
           d="m 1601.78,15817.4 c 39.32,272.5 274.42,482.6 557.67,482.6 146.02,0 279.24,-55.8 379.44,-147.3 -2.95,-4.1 -5.92,-8.3 -8.84,-12.5 -99.06,69.1 -218.93,109 -346.13,109 -23.04,0 -46.32,-1.3 -69.76,-4 -248.34,-28.4 -444.37,-202.9 -512.38,-427.8" /></g><g
         transform="scale(1.61358)"
         id="g5458"><path
           id="path5460"
           style="fill:#000000;fill-opacity:1;fill-rule:nonzero;stroke:none"
           d="m 2147.9,16212.8 c -309.04,0 -560.45,-251.4 -560.45,-560.5 0,-309 251.41,-560.4 560.45,-560.4 309.03,0 560.45,251.4 560.45,560.4 0,309.1 -251.42,560.5 -560.45,560.5 m 0,-1208.1 c -357.13,0 -647.68,290.5 -647.68,647.6 0,357.2 290.55,647.7 647.68,647.7 357.13,0 647.68,-290.5 647.68,-647.7 0,-357.1 -290.55,-647.6 -647.68,-647.6" /></g><g
         transform="scale(1.58386)"
         id="g5462"><path
           id="path5464"
           style="fill:#aa784b;fill-opacity:1;fill-rule:nonzero;stroke:none"
           d="m 2728.06,15855.3 c 0,-245.6 -199.09,-444.7 -444.68,-444.7 -245.6,0 -444.69,199.1 -444.69,444.7 0,245.6 199.09,444.7 444.69,444.7 245.59,0 444.68,-199.1 444.68,-444.7" /></g><g
         transform="scale(1.5817)"
         id="g5466"><path
           id="path5468"
           style="fill:#7b593c;fill-opacity:1;fill-rule:nonzero;stroke:none"
           d="m 1984.13,15581.4 c -74.62,76.3 -120.68,180.6 -120.68,295.5 0,233.3 189.77,423.1 423.05,423.1 71.96,0 139.78,-18.1 199.18,-49.9 -3.77,-6.4 -7.5,-12.9 -11.18,-19.4 -32.35,7.5 -66.06,11.5 -100.7,11.5 -245.93,0 -445.29,-199.4 -445.29,-445.3 0,-78.2 20.19,-151.7 55.62,-215.5" /></g><g
         transform="scale(1.58602)"
         id="g5470"><path
           id="path5472"
           style="fill:#000000;fill-opacity:1;fill-rule:nonzero;stroke:none"
           d="m 2280.27,16255.6 c -232.64,0 -421.89,-189.2 -421.89,-421.9 0,-232.6 189.25,-421.9 421.89,-421.9 232.63,0 421.9,189.3 421.9,421.9 0,232.7 -189.27,421.9 -421.9,421.9 m 0,-888.1 c -257.11,0 -466.27,209.1 -466.27,466.2 0,257.1 209.16,466.3 466.27,466.3 257.1,0 466.27,-209.2 466.27,-466.3 0,-257.1 -209.17,-466.2 -466.27,-466.2" /></g><g
         transform="scale(1.60927)"
         id="g5474"><path
           id="path5476"
           style="fill:#865439;fill-opacity:1;fill-rule:nonzero;stroke:none"
           d="m 5077.84,15694.3 c 0,-334.5 271.17,-605.7 605.68,-605.7 334.51,0 605.68,271.2 605.68,605.7 0,334.5 -271.17,605.7 -605.68,605.7 -334.51,0 -605.68,-271.2 -605.68,-605.7" /></g><g
         transform="scale(1.60495)"
         id="g5478"><path
           id="path5480"
           style="fill:#c8b2a6;fill-opacity:1;fill-rule:nonzero;stroke:none"
           d="m 6256.52,15817.3 c -68.01,225 -264.06,399.5 -512.41,427.9 -23.44,2.7 -46.72,4 -69.76,4 -129.26,0 -250.95,-41.2 -350.92,-112.3 -2.76,3.9 -5.57,7.9 -8.36,11.9 100.67,93.8 235.62,151.2 383.74,151.2 283.25,0 518.36,-210.1 557.71,-482.7" /></g><g
         transform="scale(1.61358)"
         id="g5482"><path
           id="path5484"
           style="fill:#000000;fill-opacity:1;fill-rule:nonzero;stroke:none"
           d="m 5668.32,16212.8 c 309.03,0 560.43,-251.4 560.43,-560.5 0,-309 -251.4,-560.4 -560.43,-560.4 -309.04,0 -560.45,251.4 -560.45,560.4 0,309.1 251.41,560.5 560.45,560.5 m 0,-1208.1 c 357.13,0 647.69,290.5 647.69,647.6 0,357.2 -290.56,647.7 -647.69,647.7 -357.14,0 -647.68,-290.5 -647.68,-647.7 0,-357.1 290.54,-647.6 647.68,-647.6" /></g><g
         transform="scale(1.58386)"
         id="g5486"><path
           id="path5488"
           style="fill:#aa784b;fill-opacity:1;fill-rule:nonzero;stroke:none"
           d="m 5234.82,15855.3 c 0,-245.6 199.09,-444.7 444.69,-444.7 245.59,0 444.69,199.1 444.69,444.7 0,245.6 -199.1,444.7 -444.69,444.7 -245.6,0 -444.69,-199.1 -444.69,-444.7" /></g><g
         transform="scale(1.5817)"
         id="g5490"><path
           id="path5492"
           style="fill:#7b593c;fill-opacity:1;fill-rule:nonzero;stroke:none"
           d="m 5989.64,15581.4 c 35.42,63.8 55.61,137.3 55.61,215.5 0,245.9 -199.37,445.3 -445.3,445.3 -36.88,0 -72.72,-4.5 -106.98,-13 -3.4,6 -6.85,12 -10.32,17.9 60.67,33.7 130.45,52.9 204.62,52.9 233.26,0 423.04,-189.8 423.04,-423.1 0,-114.9 -46.06,-219.2 -120.67,-295.5" /></g><g
         transform="scale(1.58602)"
         id="g5494"><path
           id="path5496"
           style="fill:#000000;fill-opacity:1;fill-rule:nonzero;stroke:none"
           d="m 5671.79,16255.6 c 232.63,0 421.89,-189.2 421.89,-421.9 0,-232.6 -189.26,-421.9 -421.89,-421.9 -232.64,0 -421.91,189.3 -421.91,421.9 0,232.7 189.27,421.9 421.91,421.9 m 0,-888.1 c 257.09,0 466.26,209.1 466.26,466.2 0,257.1 -209.17,466.3 -466.26,466.3 -257.11,0 -466.28,-209.2 -466.28,-466.3 0,-257.1 209.17,-466.2 466.28,-466.2" /></g><g
         transform="scale(1.68464)"
         id="g5498"><path
           id="path5500"
           style="fill:#865439;fill-opacity:1;fill-rule:nonzero;stroke:none"
           d="m 5314.73,14531.3 c 0,535.1 -369.48,1097.5 -903.38,1367.2 -51.65,26.1 -81.83,80.1 -81.41,138 -0.47,84.7 72.01,263.4 -25.2,263.5 -85.19,0 -272.21,-137.5 -316.11,-228.2 -8.51,-17.6 -28.08,-27.1 -47.41,-24.1 -86.59,11.7 8.66,166.2 -75.35,162.3 -51.07,0 -148.92,-63.1 -207.46,-124.6 -16.67,-17.5 -38.93,-28.5 -62.98,-31 -801.78,-81.3 -1429.87,-825.4 -1429.87,-1523.1 48.81,-734.5 362.03,-865.5 1214.57,-979.9 238.87,-32.1 480.91,-32 719.77,0.1 852.9,114.5 1165.64,245 1214.83,979.8" /></g><g
         transform="scale(1.47208)"
         id="g5502"><path
           id="path5504"
           style="fill:#634230;fill-opacity:1;fill-rule:nonzero;stroke:none"
           d="m 4279.77,15527 c -135.44,0 -270.91,9.1 -405.39,27.1 -838.84,112.6 -1183.76,241.8 -1303.8,745.9 164.07,-425.8 549.29,-537.4 1297.64,-637.8 136.6,-18.3 274.13,-27.4 411.66,-27.4 137.66,0 275.31,9.1 412.04,27.5 748.52,100.6 1133.47,211.8 1297.68,637.4 -120.34,-503.6 -465.3,-632.9 -1303.86,-745.5 -134.71,-18.1 -270.33,-27.2 -405.97,-27.2" /></g><g
         transform="scale(1.6448)"
         id="g5506"><path
           id="path5508"
           style="fill:#c8b2a6;fill-opacity:1;fill-rule:nonzero;stroke:none"
           d="m 5339.26,15272.9 c -148.39,367.1 -444.84,699 -821.04,889.1 -51.93,26.2 -82.66,80 -83.38,138 17.08,-22.1 38.95,-40.4 64.66,-53.4 402.24,-203.2 712.65,-573.9 839.76,-973.7" /></g><g
         transform="scale(1.68046)"
         id="g5510"><path
           id="path5512"
           style="fill:#c8b2a6;fill-opacity:1;fill-rule:nonzero;stroke:none"
           d="m 2267.62,14935.4 c 173.28,571 725.85,1056.2 1340.87,1118.6 33.62,3.4 65.03,18.8 88.45,43.5 57.63,60.5 141.43,109.5 175.82,112.2 0.49,-8.8 -0.35,-22.1 -0.92,-31 -0.8,-12.7 -1.87,-29.8 -0.18,-47.5 -52.14,-3 -146.89,-64.7 -204.13,-124.9 -16.71,-17.5 -39.03,-28.6 -63.15,-31 -616.63,-62.5 -1130.78,-516.2 -1336.76,-1039.9 M 3958.2,15968 c -2.13,0 -4.28,0.1 -6.42,0.4 l -0.74,0.1 c -27.03,3.8 -45.52,29.2 -41.07,56.1 1.83,11 3.39,21.9 4.35,32.2 8.57,-4.4 18.75,-7.7 30.88,-9.3 4.29,-0.7 8.56,-1 12.82,-1 32.48,0 62.98,18.4 77.12,47.6 17.53,36.3 68.64,88.6 130.23,133.4 68.93,50.1 125.05,72.5 150.05,72.5 3.34,0 5.26,-0.5 5.63,-0.5 0.04,0 0.06,0.1 0.06,0.1 7.93,-9 4.67,-45 -0.28,-78.3 -1.73,0.1 -3.52,0.2 -5.37,0.2 -85.39,0 -272.89,-137.8 -316.89,-228.8 -7.49,-15.5 -23.46,-24.7 -40.37,-24.7" /></g><g
         transform="scale(1.68883)"
         id="g5514"><path
           id="path5516"
           style="fill:#231f20;fill-opacity:1;fill-rule:nonzero;stroke:none"
           d="m 2200.59,14496.6 c 45.85,-684.5 306.18,-822 1176.54,-938.8 234.62,-31.4 472.56,-31.4 707.23,0.1 870.26,116.9 1130.63,254.4 1176.78,938.7 -0.61,519.9 -361.88,1065.2 -878.95,1326.5 -64.32,32.5 -103.94,99.1 -103.4,173.9 -0.16,27.7 6.07,61.5 12.66,97.3 6.1,33.1 20.4,110.6 8.23,124.4 0.03,-0.1 -1.93,0.5 -5.66,0.5 -24.88,0 -80.72,-22.3 -149.31,-72.2 -61.28,-44.5 -112.14,-96.6 -129.58,-132.7 -15.91,-32.9 -52.64,-52 -89.5,-46.4 -80.5,11.2 -75.43,91.8 -72.99,130.6 0.57,8.8 1.41,22.1 0.91,30.8 -34.21,-2.6 -117.6,-51.4 -174.94,-111.7 -23.31,-24.5 -54.56,-39.8 -88.01,-43.2 -740.02,-75.1 -1389.21,-765.4 -1390.01,-1477.8 m 1529.9,-1043.2 c -121.66,0 -243.31,8.1 -364.11,24.3 -436.13,58.5 -727.28,120.5 -924.83,264.2 -200.19,145.5 -296.4,370 -321.69,750.7 l -0.09,2.6 c 0,349.9 154.45,720.8 423.74,1017.5 281.58,310.2 650.55,502.7 1038.93,542.1 14.26,1.5 27.62,8 37.63,18.6 53.86,56.5 162.19,136.1 235.27,136.8 29.42,1.1 47.29,-10.5 57.12,-20.5 25.3,-25.7 22.94,-63.2 20.85,-96.3 -0.83,-13.2 -2.34,-37.2 0.96,-45 0.56,-0.1 1.41,-0.3 2.62,-0.5 l 0.8,-0.1 c 2.1,-0.3 4.15,0.6 4.66,1.7 47.85,98.9 244.82,250.5 351.71,250.5 35.72,0 56.56,-16.1 67.77,-29.6 36.24,-43.6 22.45,-118.4 9.11,-190.8 -5.62,-30.5 -11.43,-62 -11.32,-82.6 -0.33,-44.5 22.31,-83.3 59.02,-101.8 543.65,-274.7 923.33,-850.4 923.33,-1400 l -0.09,-2.7 c -25.49,-380.7 -121.74,-605.2 -321.83,-750.6 -197.37,-143.5 -488.6,-205.5 -924.94,-264.1 -120.97,-16.2 -242.81,-24.4 -364.62,-24.4" /></g><g
         transform="scale(1.59913)"
         id="g5518"><path
           id="path5520"
           style="fill:#c68b59;fill-opacity:1;fill-rule:nonzero;stroke:none"
           d="m 5172.4,15702.6 c 0,329.9 -384.72,597.4 -859.3,597.4 -117.33,0 -229.16,-16.3 -331.04,-45.9 -27.31,-8 -56.51,-8 -83.82,0 -101.89,29.6 -213.71,45.9 -331.04,45.9 -474.57,0 -859.3,-267.5 -859.3,-597.4 0,-184.7 120.6,-349.8 310.04,-459.4 39.61,-22.9 62.99,-62.7 62.91,-105.5 v -0.7 c 0,-329.9 384.72,-597.3 859.3,-597.3 474.57,0 859.3,267.4 859.3,597.3 l -0.01,0.7 c -0.07,42.8 23.31,82.6 62.93,105.5 189.44,109.6 310.03,274.7 310.03,459.4" /></g><g
         transform="scale(1.60129)"
         id="g5522"><path
           id="path5524"
           style="fill:#231f20;fill-opacity:1;fill-rule:nonzero;stroke:none"
           d="m 3562.39,16256.1 c -461.06,0 -836.17,-257.8 -836.17,-574.6 0,-169.7 108.86,-330 298.65,-439.8 46.31,-26.8 73.9,-73.3 73.81,-124.4 0,-317.5 375.1,-575.3 836.16,-575.3 461.06,0 836.17,257.8 836.17,574.6 -0.1,51.8 27.49,98.3 73.79,125.1 189.8,109.8 298.65,270.1 298.65,439.8 0,316.8 -375.1,574.6 -836.17,574.6 -112.47,0 -221.64,-15.2 -324.46,-45.1 -31.38,-9.1 -64.57,-9.1 -95.97,0 -102.81,29.9 -211.98,45.1 -324.46,45.1 m 372.45,-1758 c -485.3,0 -880.12,277.5 -880.12,618.5 0.07,36 -19.32,68.2 -51.86,87.1 -203.73,117.8 -320.58,292 -320.58,477.8 0,341 394.81,618.5 880.11,618.5 116.63,0 229.92,-15.7 336.72,-46.7 23.37,-6.8 48.07,-6.8 71.45,0 106.81,31 220.09,46.7 336.72,46.7 485.31,0 880.12,-277.5 880.12,-618.5 0,-185.8 -116.85,-360 -320.58,-477.8 -32.54,-18.9 -51.93,-51.1 -51.87,-86.3 0.01,-341.8 -394.81,-619.3 -880.11,-619.3" /></g><g
         transform="scale(1.55888)"
         id="g5526"><path
           id="path5528"
           style="fill:#f1f2f2;fill-opacity:1;fill-rule:nonzero;stroke:none"
           d="m 5043.71,15968.5 c 0,-183.1 -148.43,-331.6 -331.54,-331.6 -183.1,0 -331.54,148.5 -331.54,331.6 0,183.1 148.44,331.5 331.54,331.5 183.11,0 331.54,-148.4 331.54,-331.5" /></g><g
         transform="scale(1.55759)"
         id="g5530"><path
           id="path5532"
           style="fill:#231f20;fill-opacity:1;fill-rule:nonzero;stroke:none"
           d="m 4716.08,15663.3 c -175.53,0 -318.34,142.8 -318.34,318.4 0,175.5 142.81,318.3 318.34,318.3 175.53,0 318.33,-142.8 318.33,-318.3 0,-175.6 -142.8,-318.4 -318.33,-318.4" /></g><g
         transform="scale(1.54833)"
         id="g5534"><path
           id="path5536"
           style="fill:#f1f2f2;fill-opacity:1;fill-rule:nonzero;stroke:none"
           d="m 4694.27,16202.7 c 0,-53.8 -43.57,-97.3 -97.32,-97.3 -53.76,0 -97.32,43.5 -97.32,97.3 0,53.7 43.56,97.3 97.32,97.3 53.75,0 97.32,-43.6 97.32,-97.3" /></g><g
         transform="scale(1.57346)"
         id="g5538"><path
           id="path5540"
           style="fill:#231f20;fill-opacity:1;fill-rule:nonzero;stroke:none"
           d="m 4934.54,16188.7 c 0,-36.9 -119.1,0 -266.02,0 -146.91,0 -266.01,-36.9 -266.01,0 0,36.9 119.1,111.3 266.01,111.3 146.92,0 266.02,-74.4 266.02,-111.3" /></g><g
         transform="scale(1.55799)"
         id="g5542"><path
           id="path5544"
           style="fill:#f1f2f2;fill-opacity:1;fill-rule:nonzero;stroke:none"
           d="m 3705.25,15977.6 c 0,-178 -148.53,-322.4 -331.74,-322.4 -183.2,0 -331.73,144.4 -331.73,322.4 0,178.1 148.53,322.4 331.73,322.4 183.21,0 331.74,-144.3 331.74,-322.4" /></g><g
         transform="scale(1.5567)"
         id="g5546"><path
           id="path5548"
           style="fill:#231f20;fill-opacity:1;fill-rule:nonzero;stroke:none"
           d="m 3376.31,15681.7 c -175.64,0 -318.52,138.7 -318.52,309.1 0,170.5 142.88,309.2 318.52,309.2 175.63,0 318.5,-138.7 318.5,-309.2 0,-170.4 -142.87,-309.1 -318.5,-309.1" /></g><g
         transform="scale(1.54833)"
         id="g5550"><path
           id="path5552"
           style="fill:#f1f2f2;fill-opacity:1;fill-rule:nonzero;stroke:none"
           d="m 3344.54,16202.7 c 0,-53.8 -43.57,-97.3 -97.32,-97.3 -53.75,0 -97.32,43.5 -97.32,97.3 0,53.7 43.57,97.3 97.32,97.3 53.75,0 97.32,-43.6 97.32,-97.3" /></g><g
         transform="scale(1.57346)"
         id="g5554"><path
           id="path5556"
           style="fill:#231f20;fill-opacity:1;fill-rule:nonzero;stroke:none"
           d="m 3607.91,16188.7 c 0,-36.9 -119.09,0 -266.01,0 -146.92,0 -266.02,-36.9 -266.02,0 0,36.9 119.1,111.3 266.02,111.3 146.92,0 266.01,-74.4 266.01,-111.3" /></g><g
         transform="scale(1.4766)"
         id="g5558"><path
           id="path5560"
           style="fill:#231f20;fill-opacity:1;fill-rule:nonzero;stroke:none"
           d="m 4659.38,16217.6 c 0.07,16.6 -13.32,30.1 -29.91,30.3 h -0.2 c -16.53,0 -30.05,-13.4 -30.11,-30 -0.08,-12.2 -2.21,-28.2 -15.8,-43 -6.75,-7.5 -16.53,-14.8 -30.38,-21.1 -36.2,-16.6 -81.37,-18.9 -105.53,-18.8 -40.02,0.2 -78.17,15.4 -107.35,42.8 -27.43,25.8 -43.02,59.3 -42.88,91.9 v 0.2 0.2 c 0,0.9 -0.21,1.7 -0.28,2.5 -0.06,1.1 -0.12,2.3 -0.34,3.4 -0.19,0.9 -0.53,1.7 -0.8,2.6 l -0.06,0.2 c -0.27,0.9 -0.47,1.9 -0.87,2.8 -0.41,0.9 -0.87,1.7 -1.34,2.5 -0.47,0.8 -0.87,1.8 -1.47,2.6 -0.47,0.8 -1.14,1.5 -1.74,2.2 -0.67,0.8 -1.2,1.6 -1.88,2.3 -0.66,0.6 -1.47,1.2 -2.2,1.8 -0.74,0.6 -1.48,1.3 -2.28,1.9 -0.73,0.5 -1.66,0.9 -2.48,1.3 -0.86,0.5 -1.67,1.1 -2.61,1.4 -0.93,0.4 -1.93,0.6 -2.87,0.9 -0.94,0.3 -1.81,0.7 -2.75,0.9 -1.07,0.2 -2.14,0.2 -3.21,0.3 -0.94,0.1 -1.8,0.3 -2.74,0.3 h -0.2 -0.14 c -0.94,0 -1.87,-0.2 -2.81,-0.3 -1.07,-0.1 -2.13,-0.1 -3.15,-0.3 -0.99,-0.2 -1.93,-0.6 -2.87,-0.9 -0.93,-0.3 -1.87,-0.5 -2.75,-0.9 -0.99,-0.4 -1.87,-0.9 -2.8,-1.5 -0.74,-0.4 -1.61,-0.8 -2.34,-1.2 -0.88,-0.7 -1.61,-1.4 -2.41,-2.1 -0.67,-0.5 -1.41,-1 -2.02,-1.6 -0.73,-0.8 -1.33,-1.6 -2,-2.4 -0.54,-0.7 -1.14,-1.4 -1.68,-2.1 -0.54,-0.8 -1,-1.8 -1.47,-2.7 -0.4,-0.8 -0.94,-1.5 -1.27,-2.4 -0.4,-0.9 -0.6,-1.9 -0.93,-2.8 l -0.07,-0.2 c -0.2,-0.9 -0.6,-1.8 -0.74,-2.6 -0.26,-1.1 -0.26,-2.3 -0.4,-3.4 -0.06,-0.8 -0.26,-1.6 -0.26,-2.5 v -0.2 -0.2 c 0.2,-32.6 -15.47,-66.1 -42.9,-91.9 -29.18,-27.4 -67.26,-42.6 -107.35,-42.8 -23.88,-0.2 -69.32,2.2 -105.46,18.8 -13.85,6.3 -23.56,13.6 -30.45,21.1 -13.51,14.8 -15.72,30.8 -15.79,43 -0.07,16.6 -13.45,29.9 -30.25,30 -16.59,-0.2 -30.04,-13.7 -29.98,-30.3 0.27,-40.7 16.66,-74.1 47.92,-98.5 -2.81,-11.2 -4.28,-23.1 -4.28,-35.5 0,-128.3 156.12,-269.2 348.65,-269.2 192.59,0 348.72,140.9 348.72,269.2 0,12.4 -1.48,24.3 -4.28,35.5 31.25,24.4 47.64,57.8 47.84,98.5" /></g><g
         transform="scale(1.45069)"
         id="g5562"><path
           id="path5564"
           style="fill:#ed1c24;fill-opacity:1;fill-rule:nonzero;stroke:none"
           d="m 4468.21,16218.7 c 0,50.1 -55.91,81.3 -124.88,81.3 -68.97,0 -124.88,-26.1 -124.88,-76.3 0,-50.1 55.91,-78 124.88,-78 68.97,0 124.88,22.8 124.88,73" /></g><g
         transform="scale(1.44928)"
         id="g5566"><path
           id="path5568"
           style="fill:#f68e92;fill-opacity:1;fill-rule:nonzero;stroke:none"
           d="m 4347.57,16243.7 c -25.89,0 -46.88,11.6 -46.88,27.2 0,15.6 20.99,29.1 46.88,29.1 25.89,0 46.88,-15.1 46.88,-30.7 0,-15.5 -20.99,-25.6 -46.88,-25.6" /></g><g
         transform="scale(1.50293)"
         id="g5570"><path
           id="path5572"
           style="fill:#3c2415;fill-opacity:1;fill-rule:nonzero;stroke:none"
           d="m 4410.09,16226.3 c 0,-73.7 -97.49,-199 -217.75,-199 -120.25,0 -217.74,125.3 -217.74,199 0,73.7 97.49,67.9 217.74,67.9 120.26,0 217.75,5.8 217.75,-67.9" /></g><g
         transform="scale(1.50461)"
         id="g5574"><path
           id="path5576"
           style="fill:#231f20;fill-opacity:1;fill-rule:nonzero;stroke:none"
           d="m 4140.81,16252.7 c -63.09,0 -119.5,-1.8 -139.19,-21.4 -3.46,-3.5 -8.06,-9.6 -8.06,-23.1 0,-58.5 83.91,-175.4 194.11,-175.4 110.19,0 194.11,116.9 194.11,175.4 0,13.5 -4.6,19.6 -8.06,23.1 -21.98,21.9 -89.67,21.6 -161.41,21.4 l -24.64,-0.1 -24.65,0.1 c -7.45,0 -14.88,0 -22.21,0 z m 46.86,-266.7 c -132.97,0 -240.89,134.5 -240.89,222.2 0,22.9 7.35,41.8 21.82,56.2 35.73,35.6 105.79,35.4 194.58,35.1 l 24.49,-0.1 24.48,0.1 c 88.74,0.2 158.86,0.5 194.59,-35.1 14.47,-14.4 21.81,-33.3 21.81,-56.2 0,-87.7 -107.92,-222.2 -240.88,-222.2" /></g></g></g></svg>