<?xml version="1.0" encoding="UTF-8" standalone="no"?>
<!-- Created with Inkscape (http://www.inkscape.org/) -->

<svg
   version="1.1"
   id="svg2"
   xml:space="preserve"
   width="5333.3335"
   height="4000"
   viewBox="100 2200 1500 1600"
   sodipodi:docname="vecteezy_vector-illustration-with-cute-monkey-of-different-professions_.eps"
   xmlns:inkscape="http://www.inkscape.org/namespaces/inkscape"
   xmlns:sodipodi="http://sodipodi.sourceforge.net/DTD/sodipodi-0.dtd"
   xmlns="http://www.w3.org/2000/svg"
   xmlns:svg="http://www.w3.org/2000/svg"><defs
     id="defs6" /><sodipodi:namedview
     id="namedview4"
     pagecolor="#ffffff"
     bordercolor="#666666"
     borderopacity="1.0"
     inkscape:pageshadow="2"
     inkscape:pageopacity="0.0"
     inkscape:pagecheckerboard="0" /><g
     id="g8"
     inkscape:groupmode="layer"
     inkscape:label="ink_ext_XXXXXX"
     transform="matrix(1.3333333,0,0,-1.3333333,0,4000)"><g
       id="g10"
       transform="scale(0.1)"><path
         d="m 4419.44,3684.5 c 32.9,38.3 65.46,78.1 97.7,119.2 417.08,533 789.08,1326.6 1105.66,2358.8 51.29,167.3 -42.71,344.4 -209.94,395.7 -167.23,51.3 -344.39,-42.7 -395.65,-209.9 C 4497.06,4652.2 3846.83,3694.4 3136.88,3578.6 2312.2,3444 1566,4471.8 1558.56,4482.2 c -101.65,142.1 -299.31,175.2 -441.55,73.8 -142.256,-101.3 -175.725,-298.5 -74.62,-440.9 39.43,-55.6 979.49,-1357.9 2193.58,-1162.2 427.92,69 825.48,314.9 1183.47,731.6"
         style="fill:#865439;fill-opacity:1;fill-rule:nonzero;stroke:none"
         id="path1306" /><path
         d="m 2985.46,3012 c -187.38,0 -366.62,35 -534.79,92.8 136.04,-35.8 277.84,-56.6 423.6,-56.6 79,0 159.1,6.1 240.2,19.2 342.7,55.2 326.45,278.5 490.26,579.3 l 544.08,-2.6 c 0.52,0 1.05,0 1.58,0 28.66,0 56.5,3.7 83.06,10.7 0.48,-18.6 0.67,-37.1 0.59,-55.7 -311.7,-319.2 -651.02,-510 -1010.67,-568 -80.55,-13 -159.98,-19.1 -237.91,-19.1"
         style="fill:#6c432c;fill-opacity:1;fill-rule:nonzero;stroke:none"
         id="path1308" /><path
         d="m 2906.48,3423.5 c -366.4,0 -708.56,209.1 -966.02,427.5 32.39,7.3 63.47,17.7 92.85,30.8 260.92,-207.8 595.21,-394.5 953.91,-394.5 53.67,0 107.81,4.2 162.41,13.1 121.4,19.8 240.93,62.2 358.31,127 -146.93,-102.4 -297.32,-166.7 -450.53,-191.7 -50.64,-8.3 -101.03,-12.2 -150.93,-12.2 M 1355.74,4441.9 c -42.16,19.7 -88.14,29.8 -134.45,29.8 -5.65,0 -11.3,-0.1 -16.96,-0.4 -1.26,-0.1 -2.51,-0.1 -3.75,-0.1 -17.3,0 -31.94,6.5 -42.78,16.6 1.69,1.3 3.41,2.5 5.15,3.7 41.64,29.7 89.74,44 137.41,44 18.8,0 37.54,-2.2 55.79,-6.6 l -0.41,-87"
         style="fill:#c8b2a6;fill-opacity:1;fill-rule:nonzero;stroke:none"
         id="path1310" /><path
         d="m 5139.7,6410.2 c 19.07,22.2 42.32,40.9 68.96,55 56.05,29.8 120.33,35.9 180.99,17.3 60.66,-18.6 110.44,-59.7 140.18,-115.8 29.73,-56 35.88,-120.3 17.27,-180.9 -313.72,-1023 -681.23,-1808 -1092.32,-2333.3 -31.3,-40 -63.39,-79.1 -95.39,-116.4 C 4014.05,3334.2 3631.84,3097 3223.37,3031.1 2057.5,2843.1 1145.21,4107 1106.95,4160.9 c -75.57,106.5 -50.46,254.8 56,330.6 106.47,75.9 255.04,51.1 331.22,-55.4 7.73,-10.8 782.66,-1078.1 1655.46,-935.7 375.63,61.3 733.64,339.2 1064.11,826 322.19,474.5 617.99,1147 879.17,1998.6 9.76,31.9 25.72,60.7 46.79,85.2 M 4479.51,3632.9 c 33.56,39.1 67.2,80.1 99.97,122 423.1,540.6 799.6,1342.9 1119.01,2384.4 31.02,101.1 20.79,208.3 -28.77,301.7 -49.57,93.4 -132.55,161.9 -233.64,192.9 -101.09,31 -208.22,20.8 -301.64,-28.8 -93.43,-49.5 -161.93,-132.6 -192.93,-233.6 C 4684.97,5535 4396.03,4876.8 4082.72,4415.3 3777.65,3965.9 3455.15,3710.7 3124.13,3656.7 2350.96,3530.5 1630.1,4518.3 1622.91,4528.3 1496.06,4705.6 1248.48,4747 1071.05,4620.5 893.613,4494.1 851.797,4246.8 977.824,4069.2 1018.43,4012 1986.53,2671.3 3248.57,2874.8 c 446.41,71.9 860.56,327 1230.94,758.1"
         style="fill:#231f20;fill-opacity:1;fill-rule:nonzero;stroke:none"
         id="path1312" /><path
         d="m 4513.62,2380.3 c -92.42,175.2 -162.25,396.2 -195.31,644 -20.75,155.5 -25.16,307.6 -15.31,450.4 19.62,284.2 -22.59,569.4 -130.81,833.1 -118.56,288.8 -184.22,648.1 -184.22,1092.9 0,1763.9 1031.9,2795 2304.82,2795 1272.91,0 2304.82,-1031.1 2304.82,-2795 0,-444.8 -65.66,-804.1 -184.22,-1092.9 -108.23,-263.7 -150.43,-548.9 -130.82,-833.1 9.86,-142.8 5.45,-294.9 -15.3,-450.4 -33.06,-247.8 -102.9,-468.8 -195.31,-644 100.35,-98.7 219.1,-230 217.64,-347.8 -2.75,-224.6 -291.62,-315.1 -576.56,-311.6 -284.94,3.6 -514.78,99.8 -512.01,324.4 0.51,41.6 9.01,84.7 24.26,127.3 -168.03,237.7 -250.88,653.4 -198.61,1101.4 -230.53,-41.8 -477.3,-59 -733.89,-59 -256.59,0 -503.37,17.2 -733.89,59 52.27,-448 -30.59,-863.7 -198.62,-1101.4 15.26,-42.6 23.76,-85.7 24.27,-127.3 2.76,-224.6 -227.08,-320.8 -512.01,-324.4 -284.94,-3.5 -573.81,87 -576.57,311.6 -1.45,117.8 117.3,249.1 217.65,347.8"
         style="fill:#414042;fill-opacity:1;fill-rule:nonzero;stroke:none"
         id="path1314" /><path
         d="m 4763.9,2376.3 c -93.9,5.8 -184.49,0.6 -268.85,-13.9 -99.73,-98.5 -216.24,-228.3 -214.8,-345 2.76,-224.7 291.62,-315.1 576.56,-311.6 284.93,3.5 514.78,99.7 512.02,324.3 -0.52,41.6 -9.01,84.7 -24.27,127.3 0.76,1.1 1.49,2.2 2.24,3.3 -133.9,118 -343.39,200.9 -582.9,215.6"
         style="fill:#865439;fill-opacity:1;fill-rule:nonzero;stroke:none"
         id="path1316" /><path
         d="m 4515.65,1813.3 c 4.32,19.9 9.85,40.9 15.6,61.2 5.82,20.4 12.17,40.7 19.3,60.8 7.16,20 15.03,39.7 24.61,58.6 4.84,9.4 10.07,18.6 16.28,27.3 6.28,8.5 0.99,14.1 -8.63,7.6 -9.67,-6.6 -18.52,-14.1 -27,-21.9 -16.89,-15.7 -32.19,-32.7 -46.82,-50 -14.61,-17.3 -28.49,-35.2 -41.91,-53.3 -13.45,-18.3 -26.25,-36.2 -38.99,-55.9 l -0.21,-0.3 c -13.16,-20.2 -5.41,-47.2 17.31,-60.3 22.72,-13.1 51.8,-7.2 64.96,13 2.67,4.1 4.5,8.7 5.5,13.2"
         style="fill:#231f20;fill-opacity:1;fill-rule:nonzero;stroke:none"
         id="path1318" /><path
         d="m 4867.33,1738.8 c 4.32,19.9 9.85,40.9 15.6,61.2 5.82,20.5 12.17,40.8 19.3,60.8 7.16,20 15.03,39.8 24.61,58.7 4.83,9.4 10.07,18.6 16.28,27.2 6.28,8.6 0.99,14.2 -8.63,7.7 -9.67,-6.7 -18.52,-14.2 -27,-22 -16.89,-15.7 -32.19,-32.6 -46.82,-49.9 -14.61,-17.4 -28.49,-35.2 -41.91,-53.3 -13.45,-18.3 -26.25,-36.3 -38.99,-55.9 l -0.21,-0.3 c -13.16,-20.3 -5.41,-47.3 17.31,-60.4 22.71,-13 51.8,-7.2 64.96,13.1 2.67,4.1 4.5,8.6 5.5,13.1"
         style="fill:#231f20;fill-opacity:1;fill-rule:nonzero;stroke:none"
         id="path1320" /><path
         d="m 4763.9,2376.3 h -0.1 0.1 m 551.09,-229.8 c 14.36,-40.1 21.87,-79.4 22.33,-116.8 3.17,-258.5 -335.25,-290.6 -480.9,-292.4 -147.77,-1.9 -283.07,22 -380.43,67.3 -107.86,50.1 -163.11,121.8 -164.23,213.1 -1.27,103.1 110.5,227.8 198.36,315.2 81.3,13.3 166,17.3 251.85,12 h 0.01 c 218.09,-13.4 418.64,-85.5 553.01,-198.4 m -474.21,-472.3 c 5.44,0 10.92,0 16.42,0.1 342.78,4.2 545.82,137.4 543.13,356.2 -0.5,40.9 -7.99,83.4 -22.26,126.4 1.24,10 -2.38,20.4 -10.43,27.5 -144.62,127.3 -363.95,208.8 -601.81,223.4 -94.13,5.8 -187.06,0.9 -276.13,-14.4 -6.35,-1.1 -12.2,-4.1 -16.78,-8.6 -105.2,-103.8 -225.76,-239.4 -224.18,-367.8 1.43,-116 70.83,-209.2 200.69,-269.6 102.05,-47.4 240.5,-73.2 391.35,-73.2"
         style="fill:#231f20;fill-opacity:1;fill-rule:nonzero;stroke:none"
         id="path1322" /><path
         d="m 7821.67,2376.3 c 93.91,5.8 184.5,0.6 268.85,-13.9 99.74,-98.5 216.24,-228.3 214.8,-345 -2.75,-224.7 -291.62,-315.1 -576.56,-311.6 -284.93,3.5 -514.78,99.7 -512.01,324.3 0.51,41.6 9,84.7 24.26,127.3 -0.76,1.1 -1.49,2.2 -2.24,3.3 133.9,118 343.4,200.9 582.9,215.6"
         style="fill:#865439;fill-opacity:1;fill-rule:nonzero;stroke:none"
         id="path1324" /><path
         d="m 8069.93,1813.3 c -4.33,19.9 -9.85,40.9 -15.6,61.2 -5.82,20.4 -12.18,40.7 -19.31,60.8 -7.16,20 -15.02,39.7 -24.6,58.6 -4.84,9.4 -10.08,18.6 -16.29,27.3 -6.28,8.5 -0.98,14.1 8.64,7.6 9.66,-6.6 18.52,-14.1 27,-21.9 16.88,-15.7 32.18,-32.7 46.81,-50 14.62,-17.3 28.49,-35.2 41.91,-53.3 13.45,-18.3 26.25,-36.2 39,-55.9 l 0.21,-0.3 c 13.15,-20.2 5.4,-47.2 -17.31,-60.3 -22.72,-13.1 -51.81,-7.2 -64.97,13 -2.66,4.1 -4.5,8.7 -5.49,13.2"
         style="fill:#231f20;fill-opacity:1;fill-rule:nonzero;stroke:none"
         id="path1326" /><path
         d="m 7718.25,1738.8 c -4.33,19.9 -9.85,40.9 -15.6,61.2 -5.82,20.5 -12.18,40.8 -19.31,60.8 -7.15,20 -15.02,39.8 -24.6,58.7 -4.84,9.4 -10.08,18.6 -16.29,27.2 -6.28,8.6 -0.98,14.2 8.64,7.7 9.66,-6.7 18.52,-14.2 27,-22 16.88,-15.7 32.18,-32.6 46.81,-49.9 14.62,-17.4 28.49,-35.2 41.91,-53.3 13.46,-18.3 26.25,-36.3 39,-55.9 l 0.21,-0.3 c 13.15,-20.3 5.4,-47.3 -17.31,-60.4 -22.72,-13 -51.81,-7.2 -64.96,13.1 -2.67,4.1 -4.51,8.6 -5.5,13.1"
         style="fill:#231f20;fill-opacity:1;fill-rule:nonzero;stroke:none"
         id="path1328" /><path
         d="m 7821.67,2376.3 h 0.1 -0.1 m -551.09,-229.8 c -14.36,-40.1 -21.86,-79.4 -22.32,-116.8 -3.18,-258.5 335.24,-290.6 480.89,-292.4 147.78,-1.9 283.08,22 380.43,67.3 107.87,50.1 163.11,121.8 164.23,213.1 1.27,103.1 -110.5,227.8 -198.35,315.2 -81.31,13.3 -166,17.3 -251.86,12 h -0.01 c -218.1,-13.4 -418.64,-85.5 -553.01,-198.4 m 474.22,-472.3 c -5.45,0 -10.93,0 -16.43,0.1 -342.77,4.2 -545.82,137.4 -543.14,356.2 0.52,40.9 8,83.4 22.27,126.4 -1.24,10 2.39,20.4 10.44,27.5 144.61,127.3 363.94,208.8 601.8,223.4 94.13,5.8 187.06,0.9 276.13,-14.4 6.35,-1.1 12.21,-4.1 16.79,-8.6 105.2,-103.8 225.75,-239.4 224.17,-367.8 -1.42,-116 -70.83,-209.2 -200.7,-269.6 -102.04,-47.4 -240.48,-73.2 -391.33,-73.2"
         style="fill:#231f20;fill-opacity:1;fill-rule:nonzero;stroke:none"
         id="path1330" /><path
         d="m 7275.23,2229.7 c -152.45,227.7 -220.02,609.6 -178.51,1008.1 14.41,4.9 28.68,9.9 43.09,15.2 30.88,11.2 61.49,23.1 91.69,36.2 30.17,13.1 60.03,27.2 88.7,43.7 8.94,5.3 17.77,10.7 26.34,16.6 -48.18,-79.1 -216.99,-422.9 12.14,-1067.8 -29.41,-16 -57.32,-33.4 -83.45,-52"
         style="fill:#383638;fill-opacity:1;fill-rule:nonzero;stroke:none"
         id="path1332" /><path
         d="m 7491.09,1822.2 c -113.71,30.5 -218.13,93.6 -216.54,222.2 0.39,32.7 7.11,67.5 19.95,103.4 2.46,6.9 3.85,14 4.21,21.1 18.75,14 38.58,27.3 59.38,39.9 -22.54,-55.8 -48.88,-171.8 133,-386.6"
         style="fill:#684431;fill-opacity:1;fill-rule:nonzero;stroke:none"
         id="path1334" /><path
         d="m 7298.71,2168.9 c 0.83,16.2 -3.76,32.5 -13.39,46.1 -3.41,4.8 -6.77,9.7 -10.09,14.7 26.13,18.6 54.04,36 83.45,52 4.04,-11.4 8.22,-22.9 12.51,-34.4 2.39,-6.5 -5.12,-18.7 -13.1,-38.5 -20.8,-12.6 -40.63,-25.9 -59.38,-39.9"
         style="fill:#231f20;fill-opacity:1;fill-rule:nonzero;stroke:none"
         id="path1336" /><path
         d="m 5310.35,2229.7 c -26.13,18.6 -54.05,36 -83.46,52 229.13,644.9 60.32,988.7 12.14,1067.8 8.57,-5.9 17.41,-11.3 26.35,-16.6 28.66,-16.5 58.53,-30.6 88.7,-43.7 30.2,-13.1 60.8,-25 91.69,-36.2 14.41,-5.3 28.67,-10.3 43.08,-15.2 41.52,-398.5 -26.05,-780.4 -178.5,-1008.1"
         style="fill:#383638;fill-opacity:1;fill-rule:nonzero;stroke:none"
         id="path1338" /><path
         d="m 5094.48,1822.2 c 181.88,214.8 155.54,330.8 133,386.6 20.8,-12.6 40.64,-25.9 59.39,-40 0.36,-7 1.75,-14.1 4.21,-21 12.83,-35.9 19.55,-70.7 19.96,-103.4 1.59,-128.7 -102.84,-191.7 -216.56,-222.2"
         style="fill:#684431;fill-opacity:1;fill-rule:nonzero;stroke:none"
         id="path1340" /><path
         d="m 5286.87,2168.8 c -18.75,14.1 -38.59,27.4 -59.39,40 -7.98,19.8 -15.49,32 -13.1,38.5 4.29,11.5 8.47,23 12.51,34.4 29.41,-16 57.33,-33.4 83.46,-52 -3.33,-5 -6.68,-9.9 -10.09,-14.7 -9.64,-13.6 -14.22,-29.9 -13.39,-46.2"
         style="fill:#231f20;fill-opacity:1;fill-rule:nonzero;stroke:none"
         id="path1342" /><path
         d="m 4240.2,4335.7 c 109.73,-267.3 156.81,-566.8 136.15,-866.1 -9.79,-141.9 -4.81,-288.4 14.83,-435.6 30.86,-231.2 95.68,-445.4 187.46,-619.3 15.14,-28.7 9.68,-64 -13.46,-86.8 -48.71,-47.9 -196.93,-193.7 -195.69,-294.5 0.33,-27.5 1.37,-111.2 139.93,-175.5 91.77,-42.7 219.92,-65.1 362.21,-63.4 133.02,1.6 442.13,29.2 439.41,249.9 -0.41,32.7 -7.13,67.5 -19.96,103.4 -8.09,22.6 -4.66,47.7 9.18,67.2 159.54,225.8 231.01,615.6 188.59,1022.8 -14.41,4.9 -28.67,9.9 -43.08,15.2 -30.89,11.2 -61.49,23.1 -91.69,36.2 -30.17,13.1 -60.04,27.2 -88.7,43.7 -14.29,8.4 -28.32,17.3 -41.4,27.6 -12.87,10.2 -6.82,19 7.7,13.7 14.63,-5.1 29.76,-8.8 44.99,-11.8 30.55,-6.1 61.67,-9.6 92.87,-12.1 31.22,-2.5 62.59,-3.8 93.94,-4.5 26.75,-0.5 54.09,-0.6 80.32,0.1 4.95,1.1 10,1.6 15.1,1.6 4.36,0 8.74,-0.3 13.12,-1.1 214.44,-38.9 450.2,-57.9 720.77,-57.9 270.56,0 506.33,19 720.77,57.9 9.38,1.7 18.84,1.4 27.92,-0.5 26.32,-0.7 53.77,-0.6 80.61,-0.1 31.35,0.7 62.71,2 93.94,4.5 31.21,2.5 62.33,6 92.87,12.1 15.24,3 30.36,6.7 44.99,11.8 14.52,5.3 20.58,-3.5 7.69,-13.7 -13.07,-10.3 -27.09,-19.2 -41.38,-27.6 -28.67,-16.5 -58.53,-30.6 -88.7,-43.7 -30.2,-13.1 -60.81,-25 -91.69,-36.2 -14.41,-5.3 -28.68,-10.3 -43.09,-15.2 -42.41,-407.1 29.05,-797 188.6,-1022.8 13.84,-19.5 17.26,-44.6 9.18,-67.2 -12.84,-35.9 -19.56,-70.7 -19.95,-103.4 -2.73,-220.7 306.38,-248.3 439.4,-249.9 141.94,-1.7 270.44,20.7 362.21,63.4 138.56,64.3 139.59,148 139.93,175.5 1.23,100.8 -146.99,246.6 -195.69,294.5 -23.14,22.8 -28.61,58 -13.46,86.8 91.78,173.9 156.6,388.1 187.46,619.3 19.63,147.2 24.62,293.7 14.82,435.6 -20.64,299.3 26.43,598.8 136.16,866.1 118.58,288.8 178.71,647.2 178.71,1065 0,1602.3 -917.54,2721.4 -2231.3,2721.4 -1313.76,0 -2231.3,-1119.1 -2231.3,-2721.4 0,-417.8 60.13,-776.2 178.71,-1065 m -325.76,1065 c 0,858.6 239.7,1587.3 693.18,2107.3 428.11,490.8 1026.57,761.2 1685.17,761.2 658.59,0 1257.06,-270.4 1685.16,-761.2 453.48,-520 693.18,-1248.7 693.18,-2107.3 0,-437.1 -63.84,-814.2 -189.73,-1120.9 -101.2,-246.5 -144.59,-523.2 -125.48,-800.1 10.47,-151.7 5.16,-308.2 -15.78,-465.1 -30.33,-227.4 -91.82,-440.5 -178.63,-620 105.96,-109.1 203.2,-234.3 201.61,-363 -1.14,-92.9 -41.1,-221.7 -225,-307.1 -111.34,-51.7 -262.69,-79.2 -425.99,-77.1 -369.08,4.6 -587.64,153.7 -584.61,398.8 0.46,37.4 6.15,75.9 16.97,114.8 -155.96,242.9 -230.1,625 -200.1,1024.8 -197.17,-29.8 -411.42,-44.3 -651.6,-44.3 -240.19,0 -454.42,14.5 -651.6,44.3 29.99,-399.8 -44.14,-781.9 -200.1,-1024.8 10.81,-38.9 16.52,-77.4 16.97,-114.8 3.02,-245.1 -215.53,-394.2 -584.62,-398.8 -5.64,0 -11.26,-0.1 -16.87,-0.1 -156.89,0 -301.63,27.3 -409.11,77.2 -183.9,85.5 -223.86,214.2 -225,307.1 -1.59,128.7 95.64,253.9 201.61,363 -86.81,179.5 -148.29,392.6 -178.64,620 -20.94,156.9 -26.24,313.4 -15.77,465.1 19.11,276.9 -24.28,553.6 -125.47,800.1 -125.9,306.7 -189.75,683.8 -189.75,1120.9"
         style="fill:#231f20;fill-opacity:1;fill-rule:nonzero;stroke:none"
         id="path1344" /><path
         d="m 6285.07,8615.1 c -1276.12,0 -2310.62,-1092.5 -2310.62,-2961.4 0,-471.2 65.82,-851.9 184.68,-1158 45.8,-117.8 58.63,-239.8 73.4,-364.1 6.29,-52.9 39.1,-97.9 85.72,-118.3 526.47,-229.9 1230.11,-318.4 1966.82,-318.4 736.72,0 1440.37,88.5 1966.84,318.4 46.62,20.4 79.43,65.4 85.71,118.3 14.77,124.3 27.61,246.3 73.4,364.1 118.86,306.1 184.68,686.8 184.68,1158 0,1868.9 -1034.5,2961.4 -2310.63,2961.4"
         style="fill:#47c7f4;fill-opacity:1;fill-rule:nonzero;stroke:none"
         id="path1346" /><path
         d="m 6285.07,8552.1 c 1323.37,0 2247.61,-1191.9 2247.61,-2898.4 0,-445 -60.69,-827 -180.4,-1135.1 -46.52,-119.8 -61.06,-242.8 -75.14,-361.9 l -2.09,-17.6 c -3.63,-30.5 -22.16,-56.6 -48.36,-68 -475.8,-207.8 -1129.05,-313.2 -1941.62,-313.2 -812.55,0 -1465.8,105.4 -1941.6,313.2 -26.2,11.4 -44.74,37.5 -48.35,68 l -2.1,17.6 c -14.07,119 -28.62,242.1 -75.14,361.9 -119.71,308.1 -180.41,690.1 -180.41,1135.1 0,1706.5 924.25,2898.4 2247.6,2898.4 m 0,-4920.2 c 830.03,0 1500.26,108.9 1992.06,323.7 67.04,29.3 114.19,93.9 123.07,168.6 l 2.11,17.7 c 13.73,116.4 26.73,226.2 67.45,331 125.38,322.8 188.96,720.1 188.96,1180.8 0,905.5 -239.01,1673.7 -691.17,2221.7 -427.17,517.6 -1024.68,802.7 -1682.48,802.7 -657.79,0 -1255.3,-285.1 -1682.46,-802.7 -452.17,-548 -691.18,-1316.2 -691.18,-2221.7 0,-460.7 63.58,-858 188.97,-1180.8 40.72,-104.8 53.7,-214.7 67.46,-331 l 2.11,-17.7 c 8.87,-74.7 56.02,-139.3 123.05,-168.6 491.81,-214.8 1162.03,-323.7 1992.05,-323.7"
         style="fill:#231f20;fill-opacity:1;fill-rule:nonzero;stroke:none"
         id="path1348" /><path
         d="m 6670.71,8852.8 v -5345 c 652.33,27.6 1261.81,129.6 1737.48,339.8 50.31,22.2 85.71,71.4 92.53,129.1 15.97,135.7 29.83,268.9 79.2,397.7 128.34,334.2 199.45,1212 199.45,1726.7 0,1846.7 -914.27,2620.9 -2108.66,2751.7"
         style="fill:#ffffff;fill-opacity:1;fill-rule:nonzero;stroke:none"
         id="path1350" /><path
         d="m 6738.98,3579.3 v 149.4 c 482.99,26.3 939.6,94.9 1332.05,219.9 l 349.58,-1.6 c -9.36,-16.5 -23.25,-29.6 -40.05,-37 C 7961.03,3724.6 7409,3613.5 6738.98,3579.3"
         style="fill:#b2b1b1;fill-opacity:1;fill-rule:nonzero;stroke:none"
         id="path1352" /><path
         d="m 6738.98,8775.7 c 917.58,-123.6 1972.11,-696.3 1972.11,-2674.6 0,-488.3 -69.41,-1375.4 -194.9,-1702.2 -50.09,-130.7 -65.8,-264.9 -81,-394.8 l -2.27,-19.4 c -3.97,-33.5 -24.03,-62.2 -52.36,-74.7 C 7961.03,3724.6 7409,3613.5 6738.98,3579.3 v 5196.4 m -68.26,-5336.2 c 0.95,0 1.91,0.1 2.88,0.1 719.3,30.4 1312.18,146.7 1762.18,345.5 72.29,32 123.14,102.4 132.74,183.6 l 2.28,19.5 c 14.87,127.1 28.92,247.1 72.86,361.8 133.08,346.5 203.98,1239.6 203.98,1751.1 0,887.3 -209.56,1581.7 -622.88,2063.7 -368.2,429.5 -888.56,683.8 -1546.62,755.9 -19.27,2.1 -38.56,-4.1 -52.99,-17.1 -14.45,-12.9 -22.71,-31.4 -22.71,-50.8 v -5345 c 0,-18.6 7.59,-36.4 21.02,-49.3 12.74,-12.2 29.68,-19 47.26,-19"
         style="fill:#231f20;fill-opacity:1;fill-rule:nonzero;stroke:none"
         id="path1354" /><path
         d="m 5899.45,8852.8 v -5345 c -652.33,27.6 -1261.81,129.6 -1737.49,339.8 -50.31,22.2 -85.7,71.4 -92.53,129.1 -15.96,135.7 -29.82,268.9 -79.19,397.7 -128.34,334.2 -199.45,1212 -199.45,1726.7 0,1846.7 914.27,2620.9 2108.66,2751.7"
         style="fill:#ffffff;fill-opacity:1;fill-rule:nonzero;stroke:none"
         id="path1356" /><path
         d="m 5831.18,3579.3 c -544.93,27.8 -1011.8,106.5 -1392.82,234.6 17.09,30.7 29.46,64.2 36.09,99.8 9.33,11 18.1,22.5 26.24,34.4 392.09,-124.6 848.16,-193.1 1330.49,-219.4 v -149.4"
         style="fill:#b2b1b1;fill-opacity:1;fill-rule:nonzero;stroke:none"
         id="path1358" /><path
         d="m 5831.18,8775.7 c -917.6,-123.6 -1972.13,-696.3 -1972.13,-2674.6 0,-488.3 69.42,-1375.4 194.92,-1702.2 50.09,-130.7 65.8,-264.9 80.99,-394.8 l 2.27,-19.4 c 3.97,-33.5 24.03,-62.2 52.36,-74.7 419.53,-185.4 971.56,-296.5 1641.59,-330.7 v 5196.4 m 68.26,-5336.2 c -0.95,0 -1.92,0.1 -2.88,0.1 -719.31,30.4 -1312.18,146.7 -1762.19,345.5 -72.29,32 -123.13,102.4 -132.73,183.6 l -2.3,19.5 c -14.86,127.1 -28.9,247.1 -72.84,361.8 -133.1,346.5 -203.98,1239.6 -203.98,1751.1 0,887.3 209.56,1581.7 622.87,2063.7 368.21,429.5 888.57,683.8 1546.62,755.9 19.27,2.1 38.55,-4.1 53,-17.1 14.45,-12.9 22.7,-31.4 22.7,-50.8 v -5345 c 0,-18.6 -7.6,-36.4 -21.02,-49.3 -12.73,-12.2 -29.67,-19 -47.25,-19"
         style="fill:#231f20;fill-opacity:1;fill-rule:nonzero;stroke:none"
         id="path1360" /><path
         d="m 5492.7,6088.7 -98.55,0.5 -219.44,624.2 c -16.48,46.9 13.15,108.9 54.84,114.8 l 36.18,5.1 c -10.13,-34.2 -9.86,-70.9 1.44,-103.1 l 225.53,-641.5 m -51.47,858.6 -498.92,357.8 c -13.22,9.5 -15.34,30 -4.44,42.9 15.64,18.5 40.56,44.2 68.85,71.8 7.53,-1.5 15.06,-3 22.66,-4.6 -8.22,-17.1 -11.67,-36.7 -9.61,-56.3 2.94,-28.4 16.96,-53.4 38.42,-68.8 l 462.33,-331.6 -79.29,-11.2"
         style="fill:#b2b1b1;fill-opacity:1;fill-rule:nonzero;stroke:none"
         id="path1362" /><path
         d="m 5327.4,7616.1 c 7.37,5.6 16.66,6.6 24.72,2.5 59.58,-30.3 319.91,-189.1 319.91,-189.1 l 193.87,-126.1 c 8.03,-16.7 2.29,-385.8 6.3,-423.4 0.27,-2.6 0.44,-5.2 0.49,-7.9 l 52.99,-1398.5 c 1.66,-81.1 -107.78,-123.2 -132.22,-53.6 l -469.48,1335.4 c -16.47,46.9 13.15,108.9 54.85,114.8 l 246.5,34.8 c 23.44,3.3 30.63,37.3 10.88,51.5 l -544.61,390.6 c -13.24,9.5 -15.36,30 -4.46,42.9 49.69,58.6 192.9,190.2 240.26,226.1"
         style="fill:#ffffff;fill-opacity:1;fill-rule:nonzero;stroke:none"
         id="path1364" /><path
         d="m 5655.1,6087.9 -30.85,0.2 -243.46,692.5 c -2.11,6 2.42,18.8 6.85,22.6 l 129.5,18.3 c -47.21,-14.7 -99.53,-39.3 -89.56,-70.5 l 227.52,-663.1"
         style="fill:#ffffff;fill-opacity:1;fill-rule:nonzero;stroke:none"
         id="path1366" /><path
         d="m 5808.15,7262.1 c 1.48,-47.8 1.46,-144.9 1.45,-213.8 -0.02,-111.8 0.17,-159.2 2.07,-177 l 0.08,-1.5 53.02,-1399.7 c -0.01,0 0.06,-4.1 -5.42,-9.5 -4,-3.9 -8.51,-6.1 -12,-7.1 l -466.56,1327.1 c -2.11,6 2.42,18.8 6.85,22.6 l 244.81,34.5 c 36.47,5.2 65.46,34.3 73.86,74.1 8.42,39.8 -6,79.8 -36.73,101.8 l -507.23,363.8 c 52.59,54.2 137.52,132.3 182.48,169.6 63.74,-35.4 216.54,-127.7 296.77,-176.6 l 166.55,-108.3 m 29.56,-1945 c 10.41,-0.3 21.21,0.7 32.19,3.3 59.31,13.8 118.45,71.6 116.73,155.3 l -53.02,1399.9 c -0.07,3.5 -0.37,8.2 -0.83,12.7 -1.28,14.3 -1.27,95.8 -1.26,161.3 0.04,261.6 -2,265.9 -11.81,286.2 -5.24,10.9 -13.09,20 -22.68,26.2 l -193.88,126.1 -1.42,0.9 c -10.7,6.5 -262.95,160.4 -323.83,191.3 -27.57,14.1 -59.18,11 -84.5,-8.2 l -0.05,-0.1 c -50.81,-38.5 -196.5,-172.2 -250.39,-235.7 -17.69,-20.9 -26.16,-49.1 -23.19,-77.4 2.94,-28.4 16.96,-53.4 38.42,-68.8 l 462.33,-331.6 -148.81,-21 c -37.3,-5.3 -70.89,-31 -92.18,-70.6 -22.86,-42.5 -27.48,-93.6 -12.36,-136.7 l 469.47,-1335.4 c 16.69,-47.5 55.32,-76.1 101.07,-77.7"
         style="fill:#231f20;fill-opacity:1;fill-rule:nonzero;stroke:none"
         id="path1368" /><path
         d="m 7186.78,6080.6 -98.21,0.5 228.2,649.1 c 11.31,32.2 11.59,68.9 1.46,103.1 l 36.16,-5.1 c 41.7,-5.9 71.33,-67.9 54.85,-114.8 l -222.46,-632.8 m -44.06,866.7 -79.29,11.2 462.33,331.6 c 21.47,15.4 35.48,40.4 38.43,68.8 1.95,18.7 -1.09,37.3 -8.49,53.9 7.99,1.6 15.92,3.2 23.83,4.8 27.33,-26.8 51.33,-51.6 66.55,-69.6 10.9,-12.9 8.79,-33.4 -4.45,-42.9 l -498.91,-357.8"
         style="fill:#b2b1b1;fill-opacity:1;fill-rule:nonzero;stroke:none"
         id="path1370" /><path
         d="m 7256.56,7616.1 c -7.38,5.6 -16.67,6.6 -24.73,2.5 -59.58,-30.3 -319.92,-189.1 -319.92,-189.1 l -193.86,-126.1 c -8.03,-16.7 -2.3,-385.8 -6.31,-423.4 -0.27,-2.6 -0.44,-5.2 -0.49,-7.9 l -52.98,-1398.5 c -1.66,-81.1 107.78,-123.2 132.22,-53.6 l 469.48,1335.4 c 16.48,46.9 -13.15,108.9 -54.85,114.8 l -246.5,34.8 c -23.44,3.3 -30.63,37.3 -10.89,51.5 l 544.62,390.6 c 13.24,9.5 15.35,30 4.46,42.9 -49.69,58.6 -192.9,190.2 -240.25,226.1"
         style="fill:#ffffff;fill-opacity:1;fill-rule:nonzero;stroke:none"
         id="path1372" /><path
         d="m 6957.45,6081.7 -30.69,0.2 229.62,669.1 c 9.96,31.2 -42.36,55.8 -89.56,70.5 l 129.49,-18.3 c 4.43,-3.8 8.95,-16.6 6.85,-22.6 l -245.71,-698.9"
         style="fill:#ffffff;fill-opacity:1;fill-rule:nonzero;stroke:none"
         id="path1374" /><path
         d="m 6775.81,7262.1 c -1.49,-47.8 -1.47,-144.9 -1.46,-213.8 0.02,-111.8 -0.16,-159.2 -2.07,-177 l -0.09,-1.5 -53.01,-1399.7 c 0.01,0 -0.08,-4.1 5.42,-9.5 3.99,-3.9 8.51,-6.1 11.99,-7.1 l 466.57,1327.1 c 2.1,6 -2.42,18.8 -6.85,22.6 l -244.8,34.5 c -36.47,5.2 -65.46,34.3 -73.88,74.1 -8.4,39.8 6.02,79.8 36.74,101.8 l 507.24,363.8 c -52.61,54.2 -137.53,132.3 -182.49,169.6 -63.75,-35.4 -216.55,-127.7 -296.77,-176.6 l -166.54,-108.3 m -29.56,-1945 c -10.42,-0.3 -21.22,0.7 -32.2,3.3 -59.31,13.8 -118.45,71.6 -116.73,155.3 l 53.02,1399.9 c 0.07,3.5 0.37,8.2 0.84,12.7 1.25,14.3 1.24,95.8 1.24,161.3 -0.04,261.6 2.01,265.9 11.81,286.2 5.25,10.9 13.1,20 22.68,26.2 l 193.87,126.1 1.44,0.9 c 10.7,6.5 262.95,160.4 323.83,191.3 27.57,14.1 59.18,11 84.5,-8.2 l 0.05,-0.1 c 50.81,-38.5 196.49,-172.2 250.39,-235.7 17.69,-20.9 26.15,-49.1 23.2,-77.4 -2.95,-28.4 -16.96,-53.4 -38.43,-68.8 l -462.33,-331.6 148.81,-21 c 37.29,-5.3 70.89,-31 92.19,-70.6 22.86,-42.5 27.46,-93.6 12.34,-136.7 L 6847.3,5394.8 c -16.69,-47.5 -55.31,-76.1 -101.05,-77.7"
         style="fill:#231f20;fill-opacity:1;fill-rule:nonzero;stroke:none"
         id="path1376" /><path
         d="m 5467.98,4938.7 c 30.79,0 36.12,-3.4 36.12,-27.6 v -46.9 c 0,-24.2 -25.05,-60.1 -55.84,-60.1 H 4674 c -30.79,0 -55.84,35.9 -55.84,60.1 v 46.9 c 0,24.2 5.33,27.6 36.12,27.6 z M 4674,4757.8 h 774.26 c 74.78,0 135.61,47.7 135.61,106.4 l 19.73,93.1 c 0,58.7 -60.84,41.4 -135.62,41.4 h -813.7 c -74.78,0 -135.62,17.3 -135.62,-41.4 l 19.73,-93.1 c 0,-58.7 60.83,-106.4 135.61,-106.4"
         style="fill:#231f20;fill-opacity:1;fill-rule:nonzero;stroke:none"
         id="path1378" /><path
         d="m 7915.88,4938.7 c 30.79,0 36.11,-3.4 36.11,-27.6 v -46.9 c 0,-24.2 -25.05,-60.1 -55.84,-60.1 H 7121.9 c -30.79,0 -55.84,35.9 -55.84,60.1 v 46.9 c 0,24.2 5.32,27.6 36.11,27.6 z M 7121.9,4757.8 h 774.25 c 74.78,0 135.62,47.7 135.62,106.4 l 19.72,93.1 c 0,58.7 -60.83,41.4 -135.61,41.4 h -813.71 c -74.78,0 -135.61,17.3 -135.61,-41.4 l 19.72,-93.1 c 0,-58.7 60.84,-106.4 135.62,-106.4"
         style="fill:#231f20;fill-opacity:1;fill-rule:nonzero;stroke:none"
         id="path1380" /><path
         d="m 8375.74,7776.4 c 1131.89,-341.5 1478.72,-1734.7 1262.68,-2779.8 -5.05,-24.4 -23.04,-44 -46.71,-51.8 -308.51,-101.7 -656.17,-82.3 -985.65,-107.9 -43.68,-3.4 -77.46,33.9 -74.43,77.5 75.83,1089.7 -90.23,1222.5 -164.36,1825.1 -0.02,0 -11.66,246.5 -17.05,499.1 -5.74,269 -4.41,544.8 25.52,537.8"
         style="fill:#ffffff;fill-opacity:1;fill-rule:nonzero;stroke:none"
         id="path1382" /><path
         d="m 9597.91,6069 c -2.07,0.1 -4.14,0.1 -6.22,0.1 l -39.51,0.2 C 9433.09,6776.5 9060,7434.5 8377.14,7691.4 c 4.21,2.5 8.42,5 12.58,7.6 108.08,-35.6 212.25,-82.4 310.01,-140.3 109.44,-64.7 210.74,-143.2 301.75,-232.6 182.45,-179 322.53,-400.5 422.74,-638.4 82.94,-197.3 140.19,-406 173.69,-618.7"
         style="fill:#ffffff;fill-opacity:1;fill-rule:nonzero;stroke:none"
         id="path1384" /><path
         d="m 8610.91,6073.8 -72.13,0.4 c -18.11,95.7 -39.86,190.3 -60.67,283.8 -2.44,10.9 -5.34,20.7 -8.6,29.5 40.76,-30.5 95,-94.4 98.13,-108.5 14.97,-67.8 29.78,-134.6 43.27,-205.2"
         style="fill:#b2b1b1;fill-opacity:1;fill-rule:nonzero;stroke:none"
         id="path1386" /><path
         d="m 8390.38,7841.9 c 131.93,-40.7 259.39,-96.9 377.85,-168.2 118.54,-71.1 227.9,-157.2 325.47,-254.4 195.66,-194.6 342.73,-431.9 446.6,-683.1 52.07,-125.8 93.68,-255.6 125.97,-387.3 32.33,-131.7 55.27,-265.5 69.19,-400 27.89,-269.2 22.31,-541.5 -18.66,-809 l -7.77,-50.2 -9.41,-49.9 -9.56,-49.8 -0.6,-3.2 -0.3,-1.5 -0.64,-2.8 c -0.84,-3.7 -1.87,-7.4 -3.08,-11 -2.39,-7.2 -5.42,-14.2 -9.1,-20.8 -7.26,-13.4 -16.96,-25.2 -28.27,-35 -11.39,-9.8 -24.4,-17.6 -38.39,-22.8 l -5.25,-1.9 -3.12,-0.9 -6.22,-1.9 -12.43,-3.7 c -16.63,-4.8 -33.09,-10.4 -49.84,-14.4 l -50.16,-12.7 -50.41,-10.5 c -67.3,-13.2 -134.84,-22.5 -202.21,-29.4 -67.36,-6.6 -134.5,-10.9 -201.35,-14.2 -133.63,-6.6 -266.13,-8.8 -396.72,-17.7 l -24.51,-1.6 -3.62,-0.2 -5.46,-0.2 c -3.65,0 -7.26,-0.2 -10.96,0.2 -7.38,0.5 -14.72,1.7 -21.99,3.5 -29.08,7.5 -54.68,26.2 -70.42,50.3 -16.25,23.8 -23.16,52.9 -21.33,80.5 l 3.1,49.5 6.19,98.7 2.98,49.4 1.95,49.4 3.93,98.7 c 1.42,32.9 1.16,65.7 1.83,98.6 l 0.67,49.3 0.33,24.7 -0.38,24.6 -1.52,98.4 c -4.11,131 -13.86,261.4 -33.04,390.5 -18.72,129.3 -47.54,257.3 -75.66,387.6 -28.3,130.3 65.16,149.4 94.05,20.5 28.7,-128.9 59.18,-259.9 79.44,-393.3 20.71,-133.3 31.68,-267.9 36.78,-402.1 l 2.23,-100.6 0.56,-25.2 -0.16,-25.1 -0.34,-50.2 c -0.45,-33.5 0.02,-67 -1.19,-100.4 l -3.31,-100.2 -1.65,-50.1 -2.67,-50 -5.59,-100 -2.78,-49.9 c -0.13,-5.4 1.1,-10.3 3.74,-13.9 2.45,-3.8 5.72,-5.5 8.72,-6.4 0.81,-0.1 1.63,-0.3 2.56,-0.3 l 1.45,0.1 0.76,-0.1 2.58,0.2 25.15,1.8 c 134.18,10.1 267.17,13.2 398.6,20.5 65.67,3.8 130.97,8.4 195.65,15.1 64.61,7.1 128.58,16.4 191.45,29.1 l 46.94,10.2 46.28,12 c 15.5,3.8 30.42,9.1 45.66,13.5 l 11.38,3.5 5.69,1.8 2.83,0.8 0.58,0.3 c 1.59,0.6 2.94,1.5 4.17,2.5 1.16,1.1 2.15,2.3 2.77,3.6 l 0.79,1.9 0.25,1 0.08,0.3 0.28,1.5 0.55,3 8.83,47.9 8.73,48 7.13,48.2 c 37.69,257.5 41.29,520.2 12.72,778.9 -28.63,258.5 -91.34,513.5 -191.53,751.8 -100.21,237.9 -240.29,459.4 -422.74,638.4 -91.01,89.4 -192.31,167.9 -301.75,232.6 -109.4,64.8 -226.83,115.7 -348.78,152.5 l -0.41,0.1 c -36.1,10.9 -56.54,49 -45.66,85.1 10.89,36.1 48.98,56.5 85.08,45.6 l 0.42,-0.1"
         style="fill:#231f20;fill-opacity:1;fill-rule:nonzero;stroke:none"
         id="path1388" /><path
         d="M 8686.7,4833.6 C 8611.86,4733.4 8549.14,4594.8 8564.67,4474.8 8650.54,3811 9742.3,4026.5 9361.64,4862 L 8686.7,4833.6"
         style="fill:#865439;fill-opacity:1;fill-rule:nonzero;stroke:none"
         id="path1390" /><path
         d="m 8717.29,4777.1 c -56.82,-83.1 -107.86,-198 -95.34,-294.8 21.05,-162.8 114.26,-280.8 255.71,-323.8 148.88,-45.3 315.55,0.3 414.7,113.6 110.5,126.1 121.5,313.5 32.08,530.5 l -607.15,-25.5 m 492.14,-705.4 c -112.48,-50.3 -243.67,-60.8 -365.39,-23.8 -186.82,56.9 -309.52,209.8 -336.66,419.5 -15.38,118.9 34.36,268.7 133.05,400.8 10.39,13.9 26.5,22.4 43.85,23.1 l 674.92,28.4 c 23.51,1 45.25,-12.4 55,-33.8 169.53,-372.1 50.9,-592 -34.92,-690 -46.88,-53.5 -105.29,-95.4 -169.85,-124.2"
         style="fill:#231f20;fill-opacity:1;fill-rule:nonzero;stroke:none"
         id="path1392" /><path
         d="m 8851.23,4132.6 c -14.47,-0.8 -26.82,10.4 -27.58,24.9 l -6.54,125.8 c -0.75,14.5 10.37,26.9 24.86,27.6 14.48,0.8 26.83,-10.4 27.58,-24.9 l 6.54,-125.8 c 0.76,-14.5 -10.38,-26.9 -24.86,-27.6"
         style="fill:#231f20;fill-opacity:1;fill-rule:nonzero;stroke:none"
         id="path1394" /><path
         d="m 9189.08,4150.2 c -14.48,-0.8 -26.83,10.3 -27.58,24.8 l -6.54,125.9 c -0.75,14.5 10.37,26.8 24.85,27.6 14.49,0.7 26.84,-10.4 27.59,-24.9 l 6.54,-125.9 c 0.75,-14.4 -10.38,-26.8 -24.86,-27.5"
         style="fill:#231f20;fill-opacity:1;fill-rule:nonzero;stroke:none"
         id="path1396" /><path
         d="m 9109.57,4044 c 102.23,23 196.62,76.5 265.76,155.4 84.97,97 202.39,314.9 34.09,684.3 -12.01,26.4 -43.19,38.1 -69.55,26.1 -26.41,-12.1 -38.05,-43.2 -26.03,-69.6 106.61,-234 100.38,-437 -17.53,-571.6 -100.49,-114.8 -269.35,-161 -420.18,-115.2 -143.52,43.7 -238.05,163.3 -259.38,328.2 -13.88,107.2 48.77,235.9 112.03,320.6 17.35,23.2 12.6,56.1 -10.65,73.5 -23.23,17.3 -56.13,12.6 -73.5,-10.6 -97.89,-131.1 -147.25,-279.5 -132.04,-397 26.86,-207.6 148.22,-358.9 332.97,-415.1 86.6,-26.4 178.08,-28.4 264.01,-9"
         style="fill:#231f20;fill-opacity:1;fill-rule:nonzero;stroke:none"
         id="path1398" /><path
         d="m 8675.71,5072.7 c 0.33,71.5 71.3,129.4 158.18,129 L 12529.3,5184 c 86.9,-0.4 157.3,-58.9 157,-130.5 -0.4,-71.5 -71.4,-129.4 -158.3,-128.9 l -3695.34,17.6 c -86.88,0.4 -157.3,58.9 -156.95,130.5"
         style="fill:#231f20;fill-opacity:1;fill-rule:nonzero;stroke:none"
         id="path1400" /><path
         d="m 2224.23,4266.4 2.23,466.4 1550.56,-7.4 3.54,741.3 -1550.57,7.4 2.23,466.4 c 0.94,195.7 -177.21,356.6 -395.89,357.6 -218.67,1.1 -398.35,-158.1 -399.28,-353.8 l -1.78,-373.7 -1.37,-284.4 -1.71,-357.8 -1.36,-284.5 -1.78,-373.7 c -0.93,-195.6 177.22,-356.6 395.9,-357.6 218.66,-1 398.35,158.2 399.28,353.8"
         style="fill:#6d6e71;fill-opacity:1;fill-rule:nonzero;stroke:none"
         id="path1402" /><path
         d="m 2155.49,4754.3 -3.07,0.1 0.14,30.1 c 0.22,45.3 36.99,81.8 82.2,81.8 0.13,0 0.26,0 0.39,0 l 840.36,-4 19.36,-4.9 50.41,-10.5 c 0.33,-0.1 0.66,-0.2 0.99,-0.2 -6.17,-15 -11.88,-29.7 -17.13,-44.1 l -902.34,4.3 c -0.12,0 -0.25,0 -0.37,0 -33.41,0 -61.71,-22.1 -70.94,-52.6"
         style="fill:#535255;fill-opacity:1;fill-rule:nonzero;stroke:none"
         id="path1404" /><path
         d="m 1827.12,3986.7 c -0.6,0 -1.23,0 -1.82,0 -162.97,0.8 -297.67,106.9 -319.14,243.6 72.13,-88.4 188.59,-146.4 319.6,-147.1 0.72,0 1.41,0 2.13,0 130.12,0 246.27,56.8 318.83,144.1 -22.7,-136 -157.46,-240.6 -319.6,-240.6"
         style="fill:#535255;fill-opacity:1;fill-rule:nonzero;stroke:none"
         id="path1406" /><path
         d="m 2836.95,5337.3 -599.54,2.9 c -45.39,0.2 -82.02,37.2 -81.8,82.6 l 0.14,30.2 3.18,-0.1 c 9.09,-30.4 37.26,-52.7 70.7,-52.9 l 602.63,-2.9 c 1.38,-19.9 2.94,-39.8 4.69,-59.8"
         style="fill:#d3d3d4;fill-opacity:1;fill-rule:nonzero;stroke:none"
         id="path1408" /><path
         d="m 2155.16,5980 c -72.12,88.5 -188.61,146.5 -319.64,147.2 -0.71,0 -1.43,0 -2.13,0 -130.19,0 -246.35,-56.8 -318.92,-144.2 22.49,136.3 157.38,241 319.71,241 0.6,0 1.2,0 1.8,0 163.11,-0.8 297.92,-107.1 319.18,-244"
         style="fill:#d3d3d4;fill-opacity:1;fill-rule:nonzero;stroke:none"
         id="path1410" /><path
         d="m 2158.08,5940.9 c 0.75,155.2 -143.76,282.3 -322.1,283.1 -178.36,0.9 -324.06,-124.8 -324.8,-280 l -8,-1674.1 c -0.74,-155.3 143.75,-282.3 322.12,-283.2 178.34,-0.8 324.05,124.8 324.79,280.1 l 2.23,466.4 c 0.19,40.9 33.54,73.9 74.48,73.7 l 1476.44,-7 2.84,593.1 -1476.45,7 c -40.93,0.2 -73.97,33.6 -73.78,74.5 l 2.23,466.4 m -803.16,-1670.3 7.99,1674.1 c 1.13,237 213.67,428.8 473.77,427.6 260.1,-1.3 470.8,-195.1 469.67,-432.1 l -1.87,-392.3 1476.43,-7 c 40.94,-0.2 73.98,-33.6 73.78,-74.5 l -3.54,-741.3 c -0.2,-41 -33.54,-74 -74.49,-73.8 l -1476.43,7 -1.87,-392.2 c -1.13,-237 -213.67,-428.9 -473.77,-427.6 -260.11,1.2 -470.8,195.1 -469.67,432.1"
         style="fill:#231f20;fill-opacity:1;fill-rule:nonzero;stroke:none"
         id="path1412" /><path
         d="m 3766.44,5096.1 c 0.2,41 -18.69,74.3 -42.18,74.4 l -1026.94,4.9 c -23.49,0.1 -42.69,-33 -42.89,-74 -0.19,-40.9 18.69,-74.2 42.18,-74.3 l 1026.94,-4.9 c 23.49,-0.1 42.69,33 42.89,73.9"
         style="fill:#231f20;fill-opacity:1;fill-rule:nonzero;stroke:none"
         id="path1414" /><path
         d="m 4496.4,4166 5086.08,-24.3 c 45.52,-0.3 88,13.4 123.46,37 309.46,111.3 536.76,465.5 538.76,886.5 2.1,421 -221.9,777.3 -530.26,891.6 -35.24,23.9 -77.59,38 -123.11,38.2 l -5086.09,24.3 c -2.74,178.4 -148.8,324 -328,324.8 l -591.73,2.9 c -181.43,0.8 -330.61,-146.9 -331.47,-328.4 l -1.03,-215.7 -6.73,-1408.6 -1.03,-215.7 c -0.86,-181.5 146.88,-330.6 328.33,-331.5 l 591.72,-2.8 c 179.19,-0.9 326.64,143.3 331.1,321.7"
         style="fill:#80e1ff;fill-opacity:1;fill-rule:nonzero;stroke:none"
         id="path1416" /><path
         d="m 4166.87,3918.4 c -0.41,0 -0.82,0 -1.22,0 l -591.72,2.8 c -109.18,0.5 -202.27,69.7 -238.44,166.4 10.67,-5.7 21.55,-11 32.61,-15.9 67.16,-30 141.02,-45.9 215.52,-45.9 0.07,0 0.13,0 0.2,0 53.03,-26.7 109.57,-40.4 165.99,-40.4 82.66,0 165.02,29.3 235.43,89.6 l 181.15,-0.9 c 0.52,0 1.04,0 1.56,0 82.6,0 158.36,30.8 216.38,81.5 13.68,12 27.68,23.5 41.97,34.5 -2.42,-7 -3.82,-14.5 -4.01,-22.3 -3.45,-137.8 -117.91,-249.4 -255.42,-249.4 m 5416.62,297.4 c -0.22,0 -0.44,0 -0.66,0 l -141.98,0.7 c 1.9,5.9 3.46,11.9 4.67,18.1 9.7,49.5 12.27,95.3 8.73,137.5 l 129.33,-0.6 c 0.35,0 0.69,0 1.03,0 45.13,0 87.24,13.6 122.43,37 184.92,66.6 340.46,219.8 436.16,422.3 -64.4,-276.3 -237.05,-501.3 -462.37,-582.4 -5.59,-2 -10.93,-4.7 -15.89,-8 -24.32,-16.1 -52.47,-24.6 -81.45,-24.6 m -1070.13,5.1 -4015.7,19.2 c 161.59,102.1 352.57,153.1 545.79,153.1 1.73,0 3.49,0 5.22,0 l 3443.1,-16.5 c -1.17,-9.5 -2.03,-19.3 -2.56,-29.2 -2.08,-39.1 7.19,-79.4 24.19,-118.7 l -0.04,-7.9"
         style="fill:#609db1;fill-opacity:1;fill-rule:nonzero;stroke:none"
         id="path1418" /><path
         d="m 3347.2,3724.1 c -70.46,59.1 -116.06,146.9 -118.34,244.9 52.95,-87.8 138.38,-154 239.64,-181.8 -40.26,-24.1 -80.7,-45.1 -121.3,-63.1"
         style="fill:#b2b1b1;fill-opacity:1;fill-rule:nonzero;stroke:none"
         id="path1420" /><path
         d="m 3604.73,3646.7 -47.65,0.2 c -4.81,0 -9.62,0.2 -14.39,0.4 33.57,19.9 66.97,41.6 100.17,65.1 -13.78,-22.3 -26.4,-44.2 -38.13,-65.7"
         style="fill:#634230;fill-opacity:1;fill-rule:nonzero;stroke:none"
         id="path1422" /><path
         d="m 4150.39,3644.1 c -0.53,0 -1.06,0 -1.58,0 l -544.08,2.6 c 11.73,21.5 24.35,43.4 38.13,65.7 26.48,18.8 52.84,38.7 79.06,59.8 l 443.03,-2.1 c 0.64,0 1.26,0 1.89,0 0.7,0 1.4,0 2.09,0 19.73,-8.4 39.7,-16.6 59.96,-24.7 2.26,-30.1 3.78,-60.3 4.56,-90.6 -26.56,-7 -54.4,-10.7 -83.06,-10.7"
         style="fill:#533628;fill-opacity:1;fill-rule:nonzero;stroke:none"
         id="path1424" /><path
         d="m 3542.69,3647.3 c -74.12,3.6 -141.97,31.9 -195.49,76.8 40.6,18 81.04,39 121.3,63.1 33.38,-9.1 68.5,-14.1 104.73,-14.2 l 148.69,-0.8 c -26.22,-21.1 -52.58,-41 -79.06,-59.8 -33.2,-23.5 -66.6,-45.2 -100.17,-65.1"
         style="fill:#231f20;fill-opacity:1;fill-rule:nonzero;stroke:none"
         id="path1426" /><path
         d="m 4233.45,3654.8 c -0.78,30.3 -2.3,60.5 -4.56,90.6 35.88,-14.3 72.64,-28.2 110.17,-41.5 -31.63,-22.3 -67.29,-39.1 -105.61,-49.1"
         style="fill:#231f20;fill-opacity:1;fill-rule:nonzero;stroke:none"
         id="path1428" /><path
         d="m 4438.36,3813.9 c -18.85,6.4 -37.53,12.9 -55.95,19.4 34.53,22.1 65.57,49.2 92.04,80.4 -6.63,-35.6 -19,-69.1 -36.09,-99.8"
         style="fill:#807e7e;fill-opacity:1;fill-rule:nonzero;stroke:none"
         id="path1430" /><path
         d="m 4339.06,3703.9 c -37.53,13.3 -74.29,27.2 -110.17,41.5 -20.26,8.1 -40.23,16.3 -59.96,24.7 78.08,0.4 151.41,23.6 213.48,63.2 18.42,-6.5 37.1,-13 55.95,-19.4 -24.43,-43.7 -58.51,-81.4 -99.3,-110"
         style="fill:#231f20;fill-opacity:1;fill-rule:nonzero;stroke:none"
         id="path1432" /><path
         d="m 6602.44,3955.6 -634.73,3.1 v 126.1 l 634.73,-3 v -126.2"
         style="fill:#3a8caa;fill-opacity:1;fill-rule:nonzero;stroke:none"
         id="path1434" /><path
         d="m 8071.03,3948.6 -1332.05,6.4 v 126.1 l 1655.92,-7.9 c -5.82,-3.6 -11.9,-6.8 -18.22,-9.6 -96.62,-42.7 -198.75,-80.9 -305.65,-115"
         style="fill:#b2b1b1;fill-opacity:1;fill-rule:nonzero;stroke:none"
         id="path1436" /><path
         d="m 8420.61,3947 -349.58,1.6 c 106.9,34.1 209.03,72.3 305.65,115 6.32,2.8 12.4,6 18.22,9.6 l 48.54,-0.2 c -2.89,-23.1 -5.58,-46.1 -8.25,-68.9 l -2.27,-19.4 c -1.62,-13.6 -5.9,-26.5 -12.31,-37.7"
         style="fill:#807e7e;fill-opacity:1;fill-rule:nonzero;stroke:none"
         id="path1438" /><path
         d="m 8536.05,3946.4 -115.44,0.6 c 6.41,11.2 10.69,24.1 12.31,37.7 l 2.27,19.4 c 2.67,22.8 5.36,45.8 8.25,68.9 l 116.96,-0.6 c 1.8,-4.9 3.72,-9.9 5.74,-14.8 l -30.09,-111.2 m -1797.07,8.6 -136.54,0.6 v 126.2 l 136.54,-0.7 V 3955"
         style="fill:#231f20;fill-opacity:1;fill-rule:nonzero;stroke:none"
         id="path1440" /><path
         d="m 5831.18,3959.3 -1319.21,6.3 c 23.34,38.3 40.52,80.8 50.06,125.9 l 1269.15,-6.1 v -126.1"
         style="fill:#b2b1b1;fill-opacity:1;fill-rule:nonzero;stroke:none"
         id="path1442" /><path
         d="m 5967.71,3958.7 -136.53,0.6 v 126.1 l 136.53,-0.6 v -126.1"
         style="fill:#231f20;fill-opacity:1;fill-rule:nonzero;stroke:none"
         id="path1444" /><path
         d="m 10170.6,5065.6 c 1.8,377.9 -196.37,715.8 -481.94,821.7 -5.59,2.1 -10.89,4.8 -15.82,8.1 -24.33,16.5 -52.64,25.3 -81.86,25.5 l -5086.09,24.3 c -40.35,0.2 -73.14,32.6 -73.77,72.9 -2.13,138.3 -116.18,251.2 -254.24,251.9 l -591.72,2.8 c -141.03,0.7 -256.32,-113.5 -256.99,-254.5 l -8.79,-1840.1 c -0.67,-141 113.53,-256.3 254.55,-257 l 591.72,-2.8 c 138.06,-0.7 253.18,111.2 256.64,249.4 1.01,40.3 34.1,72.5 74.46,72.3 l 5086.08,-24.3 c 29.22,-0.1 57.61,8.4 82.11,24.6 4.96,3.3 10.3,6 15.89,8 286.57,103.2 487.97,439.2 489.77,817.2 M 3171.12,4178.9 3179.9,6019 c 1.07,222.8 183.18,403.2 405.97,402.1 l 591.72,-2.8 c 193.39,-1 356.96,-141.3 393.99,-325.2 l 5020.11,-24 c 55.61,-0.2 109.54,-16 156.51,-45.8 343.8,-132 572.8,-515.9 570.7,-958.5 -2.1,-442.5 -234.8,-824.2 -579.82,-952.9 -47.28,-29.3 -101.34,-44.6 -156.95,-44.4 l -5020.1,24 c -38.8,-183.5 -203.7,-322.3 -397.08,-321.4 l -591.72,2.9 c -222.79,1 -403.18,183.1 -402.11,405.9"
         style="fill:#231f20;fill-opacity:1;fill-rule:nonzero;stroke:none"
         id="path1446" /><path
         d="m 8572.28,4915.6 c -30.67,0.1 -55.67,-12.8 -55.74,-28.9 l -3.26,-683.1 c -0.08,-16 24.8,-29.2 55.45,-29.4 30.66,-0.1 55.67,12.8 55.75,28.9 l 3.25,683.1 c 0.08,16 -24.79,29.2 -55.45,29.4"
         style="fill:#231f20;fill-opacity:1;fill-rule:nonzero;stroke:none"
         id="path1448" /><path
         d="m 7977.8,4640.4 c -30.66,0.1 -55.64,-7.9 -55.69,-17.9 l -2.03,-427 c -0.05,-10 24.85,-18.3 55.51,-18.4 30.66,-0.2 55.64,7.9 55.69,17.9 l 2.04,426.9 c 0.04,10.1 -24.86,18.3 -55.52,18.5"
         style="fill:#231f20;fill-opacity:1;fill-rule:nonzero;stroke:none"
         id="path1450" /><path
         d="m 7385.99,4921.2 c -30.66,0.2 -55.67,-12.8 -55.74,-28.8 l -3.26,-683.1 c -0.08,-16.1 24.8,-29.3 55.46,-29.4 30.66,-0.2 55.66,12.8 55.73,28.9 l 3.27,683 c 0.07,16.1 -24.8,29.3 -55.46,29.4"
         style="fill:#231f20;fill-opacity:1;fill-rule:nonzero;stroke:none"
         id="path1452" /><path
         d="m 6791.51,4646.1 c -30.66,0.1 -55.64,-7.9 -55.68,-18 l -2.04,-426.9 c -0.05,-10 24.85,-18.3 55.51,-18.5 30.66,-0.1 55.64,7.9 55.69,18 l 2.04,426.9 c 0.05,10 -24.86,18.3 -55.52,18.5"
         style="fill:#231f20;fill-opacity:1;fill-rule:nonzero;stroke:none"
         id="path1454" /><path
         d="m 6199.7,4926.9 c -30.66,0.1 -55.67,-12.8 -55.74,-28.9 l -3.26,-683 c -0.08,-16.1 24.8,-29.3 55.46,-29.4 30.66,-0.2 55.66,12.8 55.73,28.8 l 3.27,683.1 c 0.07,16.1 -24.8,29.2 -55.46,29.4"
         style="fill:#231f20;fill-opacity:1;fill-rule:nonzero;stroke:none"
         id="path1456" /><path
         d="m 9179.59,5578.8 c -0.14,0 -0.28,0 -0.41,0 l -3192.95,15.3 c -48.99,0.2 -88.49,41.9 -88.25,93.1 0.24,51 39.93,92.2 88.72,92.2 0.14,0 0.28,0 0.41,0 l 3192.95,-15.2 c 48.99,-0.3 88.5,-42 88.25,-93.1 -0.24,-51.1 -39.93,-92.3 -88.72,-92.3"
         style="fill:#d9f6ff;fill-opacity:1;fill-rule:nonzero;stroke:none"
         id="path1458" /><path
         d="m 5618.5,5595.8 c -0.14,0 -0.28,0 -0.41,0 l -709.54,3.4 c -48.99,0.2 -88.49,41.9 -88.25,93.1 0.24,51 39.93,92.2 88.72,92.2 0.14,0 0.27,0 0.41,0 l 709.54,-3.3 c 48.99,-0.3 88.5,-42 88.26,-93.1 -0.25,-51.1 -39.94,-92.3 -88.73,-92.3"
         style="fill:#d9f6ff;fill-opacity:1;fill-rule:nonzero;stroke:none"
         id="path1460" /><path
         d="m 4125.53,5967.8 c -0.05,0 -0.11,0 -0.16,0 h -4.9 c 8.86,58.3 19.69,116.4 31.48,174.7 17.67,-15.6 29.63,-46.6 29.45,-82.3 -0.24,-51.1 -25.24,-92.4 -55.87,-92.4"
         style="fill:#d9f6ff;fill-opacity:1;fill-rule:nonzero;stroke:none"
         id="path1462" /><path
         d="m 3985.24,4075 -180.28,0.8 c 146.48,70.9 241.68,209.9 265.19,391.6 12.18,94.2 -16.5,207.7 -78,316.6 6.69,0.5 13.35,1.7 19.95,3.3 29.08,7.5 54.69,26.2 70.42,50.3 12.97,19 19.99,41.4 21.36,63.7 51.66,-120.3 87.09,-261.8 74.99,-388 -20.09,-209.5 -95.21,-354.2 -193.63,-438.3"
         style="fill:#609db1;fill-opacity:1;fill-rule:nonzero;stroke:none"
         id="path1464" /><path
         d="m 3749.81,3985.4 c -56.42,0 -112.96,13.7 -165.99,40.4 50.2,0 100.7,7.2 149.67,22.1 25,7.6 48.85,17 71.47,27.9 l 180.28,-0.8 c -70.41,-60.3 -152.77,-89.6 -235.43,-89.6"
         style="fill:#4b717e;fill-opacity:1;fill-rule:nonzero;stroke:none"
         id="path1466" /><path
         d="M 4201.8,7776.4 C 3069.9,7434.9 2723.07,6041.7 2939.12,4996.6 c 5.04,-24.4 23.03,-44 46.7,-51.8 308.51,-101.7 656.17,-82.3 985.66,-107.9 43.67,-3.4 77.45,33.9 74.42,77.5 -75.84,1089.7 90.23,1222.5 164.37,1825.1 0.01,0 11.65,246.5 17.04,499.1 5.74,269 4.41,544.8 -25.51,537.8"
         style="fill:#ffffff;fill-opacity:1;fill-rule:nonzero;stroke:none"
         id="path1468" /><path
         d="m 3034.84,4990.9 c -2.09,0.6 -4.18,1.2 -6.28,1.8 l -11.38,3.5 -5.7,1.8 -2.82,0.8 -0.58,0.3 c -1.59,0.6 -2.94,1.5 -4.17,2.5 -1.16,1.1 -2.15,2.3 -2.77,3.6 l -0.79,1.9 -0.25,1 -0.08,0.3 -0.28,1.5 -0.55,3 -8.83,47.9 -8.74,48 -7.13,48.2 c -37.68,257.5 -41.28,520.2 -12.7,778.9 28.63,258.5 91.33,513.5 191.52,751.8 100.22,237.9 240.29,459.4 422.74,638.4 91.01,89.4 192.31,167.9 301.76,232.6 101.46,60.1 209.84,108.3 322.34,144.3 3.94,-2.5 7.91,-4.9 11.89,-7.3 C 3170.15,7312.6 2842.77,6000.8 3034.84,4990.9"
         style="fill:#b2b1b1;fill-opacity:1;fill-rule:nonzero;stroke:none"
         id="path1470" /><path
         d="m 3927.39,4904.9 c -53.26,765.2 12.78,1058.5 82.5,1374.1 5.43,24.5 163.93,197.8 140.69,89.6 -75.75,-352.8 -159.42,-626.7 -101.01,-1462.6 3.09,-44.1 -30.56,-78 -74.69,-74.5 -27.07,2.1 -54.26,3.8 -81.54,5.4 22.11,13.5 36.04,39.3 34.05,68"
         style="fill:#ffffff;fill-opacity:1;fill-rule:nonzero;stroke:none"
         id="path1472" /><path
         d="m 4187.16,7841.9 c -131.94,-40.7 -259.39,-96.9 -377.86,-168.2 -118.54,-71.1 -227.9,-157.2 -325.46,-254.4 -195.67,-194.6 -342.74,-431.9 -446.61,-683.1 -52.06,-125.8 -93.68,-255.6 -125.97,-387.3 -32.34,-131.7 -55.27,-265.5 -69.2,-400 -27.87,-269.2 -22.31,-541.5 18.67,-809 l 7.78,-50.2 9.4,-49.9 9.56,-49.8 0.6,-3.2 0.3,-1.5 0.64,-2.8 c 0.84,-3.7 1.87,-7.4 3.08,-11 2.39,-7.2 5.42,-14.2 9.09,-20.8 7.26,-13.4 16.97,-25.2 28.29,-35 11.38,-9.8 24.39,-17.6 38.38,-22.8 l 5.25,-1.9 3.12,-0.9 6.23,-1.9 12.42,-3.7 c 16.62,-4.8 33.09,-10.4 49.84,-14.4 l 50.16,-12.7 50.41,-10.5 c 67.3,-13.2 134.84,-22.5 202.21,-29.4 67.36,-6.6 134.5,-10.9 201.35,-14.2 133.62,-6.6 266.12,-8.8 396.72,-17.7 l 24.5,-1.6 3.63,-0.2 5.46,-0.2 c 3.65,0 7.26,-0.2 10.97,0.2 7.37,0.5 14.71,1.7 21.98,3.5 29.08,7.5 54.69,26.2 70.42,50.3 16.25,23.8 23.16,52.9 21.33,80.5 l -3.1,49.5 -6.19,98.7 -2.97,49.4 -1.96,49.4 -3.93,98.7 c -1.42,32.9 -1.16,65.7 -1.83,98.6 l -0.67,49.3 -0.33,24.7 0.38,24.6 1.52,98.4 c 4.12,131 13.87,261.4 33.04,390.5 18.72,129.3 47.54,257.3 75.67,387.6 28.29,130.3 -65.16,149.4 -94.06,20.5 -28.7,-128.9 -59.18,-259.9 -79.44,-393.3 -20.71,-133.3 -31.68,-267.9 -36.78,-402.1 l -2.23,-100.6 -0.55,-25.2 0.15,-25.1 0.34,-50.2 c 0.45,-33.5 -0.02,-67 1.19,-100.4 l 3.31,-100.2 1.65,-50.1 2.67,-50 5.59,-100 2.78,-49.9 c 0.13,-5.4 -1.1,-10.3 -3.74,-13.9 -2.46,-3.8 -5.72,-5.5 -8.72,-6.4 -0.81,-0.1 -1.63,-0.3 -2.56,-0.3 l -1.45,0.1 -0.76,-0.1 -2.58,0.2 -25.15,1.8 c -134.18,10.1 -267.17,13.2 -398.6,20.5 -65.67,3.8 -130.97,8.4 -195.65,15.1 -64.61,7.1 -128.58,16.4 -191.45,29.1 l -46.94,10.2 -46.28,12 c -15.5,3.8 -30.42,9.1 -45.66,13.5 l -11.38,3.5 -5.7,1.8 -2.82,0.8 -0.58,0.3 c -1.59,0.6 -2.94,1.5 -4.17,2.5 -1.16,1.1 -2.15,2.3 -2.77,3.6 l -0.79,1.9 -0.25,1 -0.08,0.3 -0.28,1.5 -0.55,3 -8.83,47.9 -8.74,48 -7.13,48.2 c -37.68,257.5 -41.28,520.2 -12.7,778.9 28.63,258.5 91.33,513.5 191.52,751.8 100.22,237.9 240.29,459.4 422.74,638.4 91.01,89.4 192.31,167.9 301.76,232.6 109.39,64.8 226.82,115.7 348.78,152.5 l 0.4,0.1 c 36.1,10.9 56.54,49 45.65,85.1 -10.88,36.1 -48.97,56.5 -85.07,45.6 l -0.41,-0.1"
         style="fill:#231f20;fill-opacity:1;fill-rule:nonzero;stroke:none"
         id="path1474" /><path
         d="m 3890.83,4833.6 c 74.84,-100.2 137.55,-238.8 122.03,-358.8 C 3926.99,3811 2835.24,4026.5 3215.9,4862 l 674.93,-28.4"
         style="fill:#865439;fill-opacity:1;fill-rule:nonzero;stroke:none"
         id="path1476" /><path
         d="m 3860.24,4777.1 c 56.82,-83.1 107.86,-198 95.35,-294.8 -21.06,-162.8 -114.27,-280.8 -255.72,-323.8 -148.88,-45.3 -315.54,0.3 -414.7,113.6 -110.5,126.1 -121.5,313.5 -32.08,530.5 l 607.15,-25.5 M 3368.1,4071.7 c 112.48,-50.3 243.67,-60.8 365.39,-23.8 186.82,56.9 309.52,209.8 336.66,419.5 15.38,118.9 -34.37,268.7 -133.05,400.8 -10.39,13.9 -26.51,22.4 -43.85,23.1 l -674.93,28.4 c -23.5,1 -45.24,-12.4 -54.99,-33.8 -169.53,-372.1 -50.89,-592 34.92,-690 46.88,-53.5 105.29,-95.4 169.85,-124.2"
         style="fill:#231f20;fill-opacity:1;fill-rule:nonzero;stroke:none"
         id="path1478" /><path
         d="m 3582.75,4141.2 c -43.56,0 -86.77,6.9 -127.66,20.2 22.14,-3.1 44.46,-4.7 66.78,-4.7 198.18,0 394.49,124.8 428.94,391.1 0.78,6 1.36,12.1 1.75,18.2 5.08,-28.6 6.5,-56.9 3.03,-83.7 -21.06,-162.8 -114.27,-280.8 -255.72,-323.8 -38.34,-11.7 -77.88,-17.3 -117.12,-17.3"
         style="fill:#634230;fill-opacity:1;fill-rule:nonzero;stroke:none"
         id="path1480" /><path
         d="m 3566.42,4114.3 c -125.15,0 -251.07,49.8 -337.43,145 64.81,-53.2 144.04,-86.2 226.1,-97.9 40.89,-13.3 84.1,-20.2 127.66,-20.2 39.24,0 78.78,5.6 117.12,17.3 141.45,43 234.66,161 255.72,323.8 3.47,26.8 2.05,55.1 -3.03,83.7 6.41,99.5 -37.28,209.4 -94.89,298.8 l 15.7,-0.6 c 74.85,-100.2 137.57,-238.8 122.05,-358.8 -34.46,-266.3 -230.79,-391.1 -429,-391.1"
         style="fill:#231f20;fill-opacity:1;fill-rule:nonzero;stroke:none"
         id="path1482" /><path
         d="m 3726.29,4132.6 c 14.49,-0.8 26.84,10.4 27.59,24.9 l 6.54,125.8 c 0.76,14.5 -10.37,26.9 -24.86,27.6 -14.48,0.8 -26.83,-10.4 -27.58,-24.9 l -6.54,-125.8 c -0.76,-14.5 10.37,-26.9 24.85,-27.6"
         style="fill:#231f20;fill-opacity:1;fill-rule:nonzero;stroke:none"
         id="path1484" /><path
         d="m 3388.45,4150.2 c 14.48,-0.8 26.83,10.3 27.59,24.8 l 6.54,125.9 c 0.75,14.5 -10.38,26.8 -24.86,27.6 -14.49,0.7 -26.84,-10.4 -27.59,-24.9 l -6.54,-125.9 c -0.75,-14.4 10.37,-26.8 24.86,-27.5"
         style="fill:#231f20;fill-opacity:1;fill-rule:nonzero;stroke:none"
         id="path1486" /><path
         d="m 3467.96,4044 c -102.24,23.1 -196.63,76.5 -265.75,155.4 -84.98,97 -202.41,314.9 -34.1,684.3 12.02,26.4 43.18,38.1 69.56,26.1 26.39,-12.1 38.04,-43.2 26.02,-69.6 -106.61,-234 -100.38,-437 17.53,-571.6 100.49,-114.8 269.35,-161 420.18,-115.2 143.52,43.7 238.06,163.3 259.39,328.2 13.87,107.2 -48.78,235.9 -112.04,320.6 -17.35,23.2 -12.59,56.1 10.65,73.5 23.23,17.3 56.13,12.6 73.5,-10.7 97.89,-131 147.25,-279.4 132.05,-396.9 -26.86,-207.6 -148.23,-358.9 -332.98,-415.1 -86.6,-26.4 -178.08,-28.4 -264.01,-9"
         style="fill:#231f20;fill-opacity:1;fill-rule:nonzero;stroke:none"
         id="path1488" /><path
         d="m 8158.84,9595.7 c 0,-538.4 436.5,-974.9 974.96,-974.9 538.46,0 975,436.5 975,974.9 0,538.5 -436.54,975 -975,975 -538.46,0 -974.96,-436.5 -974.96,-975"
         style="fill:#865439;fill-opacity:1;fill-rule:nonzero;stroke:none"
         id="path1490" /><path
         d="m 10029.1,9725.4 c -109.14,361.2 -423.88,641.3 -822.58,686.9 -37.63,4.3 -75.01,6.4 -112,6.4 -163.77,0 -319.99,-41.2 -457.46,-114.7 -6.82,11.1 -13.71,22.2 -20.7,33.3 146.72,102.7 325.16,163 517.44,163 454.76,0 832.22,-337.3 895.3,-774.9"
         style="fill:#c8b2a6;fill-opacity:1;fill-rule:nonzero;stroke:none"
         id="path1492" /><path
         d="m 9133.8,10500.3 c 498.78,0 904.6,-405.8 904.6,-904.6 0,-498.8 -405.82,-904.6 -904.6,-904.6 -498.79,0 -904.58,405.8 -904.58,904.6 0,498.8 405.79,904.6 904.58,904.6 m 0,-1950 c 576.41,0 1045.4,469 1045.4,1045.4 0,576.4 -468.99,1045.4 -1045.4,1045.4 -576.41,0 -1045.36,-469 -1045.36,-1045.4 0,-576.4 468.95,-1045.4 1045.36,-1045.4"
         style="fill:#000000;fill-opacity:1;fill-rule:nonzero;stroke:none"
         id="path1494" /><path
         d="m 8278.51,9452 c 0,-389.1 315.42,-704.5 704.5,-704.5 389.1,0 704.52,315.4 704.52,704.5 0,389.1 -315.42,704.5 -704.52,704.5 -389.08,0 -704.5,-315.4 -704.5,-704.5"
         style="fill:#aa784b;fill-opacity:1;fill-rule:nonzero;stroke:none"
         id="path1496" /><path
         d="m 9461.41,8984.3 c 56.04,101 87.99,217.2 87.99,341 0,389.1 -315.43,704.5 -704.51,704.5 -19.85,0 -39.52,-0.8 -58.95,-2.5 -8.67,18.6 -17.56,37.1 -26.69,55.5 70,24.9 145.34,38.5 223.77,38.5 369.06,0 669.32,-300.3 669.32,-669.3 0,-181.8 -72.88,-347 -190.93,-467.7"
         style="fill:#7b593c;fill-opacity:1;fill-rule:nonzero;stroke:none"
         id="path1498" /><path
         d="m 8983.02,10121.3 c 369.06,0 669.32,-300.3 669.32,-669.3 0,-369.1 -300.26,-669.3 -669.32,-669.3 -369.06,0 -669.31,300.2 -669.31,669.3 0,369 300.25,669.3 669.31,669.3 m 0,-1409 c 407.88,0 739.71,331.8 739.71,739.7 0,407.9 -331.83,739.7 -739.71,739.7 -407.88,0 -739.71,-331.8 -739.71,-739.7 0,-407.9 331.83,-739.7 739.71,-739.7"
         style="fill:#000000;fill-opacity:1;fill-rule:nonzero;stroke:none"
         id="path1500" /><path
         d="m 4426.74,9595.7 c 0,-538.4 -436.51,-974.9 -974.97,-974.9 -538.46,0 -974.96,436.5 -974.96,974.9 0,538.5 436.5,975 974.96,975 538.46,0 974.97,-436.5 974.97,-975"
         style="fill:#865439;fill-opacity:1;fill-rule:nonzero;stroke:none"
         id="path1502" /><path
         d="m 2556.48,9725.4 c 63.08,437.6 440.53,774.9 895.29,774.9 195.72,0 377.14,-62.5 525.33,-168.6 -6.77,-10.7 -13.43,-21.5 -20.04,-32.3 -139.53,76.3 -298.84,119.3 -466.01,119.3 -36.98,0 -74.37,-2.1 -112,-6.4 -398.67,-45.6 -713.4,-325.7 -822.57,-686.9"
         style="fill:#c8b2a6;fill-opacity:1;fill-rule:nonzero;stroke:none"
         id="path1504" /><path
         d="m 3451.77,10500.3 c -498.79,0 -904.57,-405.8 -904.57,-904.6 0,-498.8 405.78,-904.6 904.57,-904.6 498.79,0 904.58,405.8 904.58,904.6 0,498.8 -405.79,904.6 -904.58,904.6 m 0,-1950 c -576.41,0 -1045.36,469 -1045.36,1045.4 0,576.4 468.95,1045.4 1045.36,1045.4 576.41,0 1045.37,-469 1045.37,-1045.4 0,-576.4 -468.96,-1045.4 -1045.37,-1045.4"
         style="fill:#000000;fill-opacity:1;fill-rule:nonzero;stroke:none"
         id="path1506" /><path
         d="m 4307.07,9452 c 0,-389.1 -315.42,-704.5 -704.51,-704.5 -389.1,0 -704.52,315.4 -704.52,704.5 0,389.1 315.42,704.5 704.52,704.5 389.09,0 704.51,-315.4 704.51,-704.5"
         style="fill:#aa784b;fill-opacity:1;fill-rule:nonzero;stroke:none"
         id="path1508" /><path
         d="m 3124.17,8984.3 c -118.05,120.7 -190.93,285.9 -190.93,467.7 0,369 300.25,669.3 669.32,669.3 81.97,0 160.56,-14.8 233.2,-41.9 -8.73,-17.7 -17.18,-35.2 -25.51,-53 -22.88,2.2 -46.08,3.4 -69.57,3.4 -389.08,0 -704.5,-315.4 -704.5,-704.5 0,-123.8 31.95,-240 87.99,-341"
         style="fill:#7b593c;fill-opacity:1;fill-rule:nonzero;stroke:none"
         id="path1510" /><path
         d="m 3602.56,10121.3 c -369.07,0 -669.32,-300.3 -669.32,-669.3 0,-369.1 300.25,-669.3 669.32,-669.3 369.06,0 669.31,300.2 669.31,669.3 0,369 -300.25,669.3 -669.31,669.3 m 0,-1409 c -407.89,0 -739.72,331.8 -739.72,739.7 0,407.9 331.83,739.7 739.72,739.7 407.87,0 739.71,-331.8 739.71,-739.7 0,-407.9 -331.84,-739.7 -739.71,-739.7"
         style="fill:#000000;fill-opacity:1;fill-rule:nonzero;stroke:none"
         id="path1512" /><path
         d="m 3644.69,9029.2 c 0,901.8 622.62,1849.4 1522.29,2304 87.04,44 137.89,135 137.19,232.5 0.8,142.7 -121.34,443.8 42.47,444 143.55,0 458.7,-231.6 532.67,-384.6 14.32,-29.6 47.33,-45.7 79.87,-40.6 145.94,19.8 -14.57,280.2 126.98,273.5 86.08,0 250.95,-106.3 349.61,-209.9 28.09,-29.5 65.6,-48.1 106.13,-52.2 1351.07,-137 2409.48,-1390.9 2409.48,-2566.7 -82.26,-1237.6 -610.06,-1458.4 -2046.7,-1651.2 -402.51,-54 -810.35,-53.9 -1212.86,0.2 -1437.23,193 -1964.21,412.9 -2047.13,1651"
         style="fill:#865439;fill-opacity:1;fill-rule:nonzero;stroke:none"
         id="path1514" /><path
         d="m 6298.68,7405.8 c -199.73,0 -399.43,13.4 -597.78,40 -1234.67,165.9 -1742.66,356.3 -1919.89,1097.8 241.79,-626.7 808.62,-790.5 1910.8,-938.6 201.33,-27 404.02,-40.5 606.71,-40.5 202.5,0 405.02,13.4 606.15,40.4 1101.94,147.8 1669.19,312.2 1910.77,939.1 -176.76,-742.2 -684.66,-932.6 -1919.83,-1098.3 -198.02,-26.6 -397.49,-39.9 -596.93,-39.9"
         style="fill:#634230;fill-opacity:1;fill-rule:nonzero;stroke:none"
         id="path1516" /><path
         d="m 3816.17,9670.2 c 209.13,657.9 719.82,1267.7 1381.6,1602.1 42.3,21.4 78.28,51.5 106.39,87.8 -1.17,-95.5 -51.75,-183.9 -137.18,-227.1 -618.94,-312.7 -1106.67,-858.8 -1350.81,-1462.8"
         style="fill:#c8b2a6;fill-opacity:1;fill-rule:nonzero;stroke:none"
         id="path1518" /><path
         d="m 8788.89,9647.8 c -346.23,880.2 -1210.48,1642.7 -2246.99,1747.9 -40.53,4.1 -78.04,22.6 -106.13,52.1 -96.23,101.1 -255.48,204.8 -343.14,209.8 2.85,29.9 1.04,58.7 -0.31,80 -0.94,14.9 -2.35,37.3 -1.53,52 57.8,-4.4 198.67,-86.9 295.53,-188.6 39.36,-41.4 92.17,-67.3 148.68,-73 1033.79,-104.9 1962.63,-920.5 2253.89,-1880.2 m -2841.74,1735.6 c -28.43,0 -55.27,15.5 -67.85,41.5 -73.96,153 -389.11,384.6 -532.66,384.6 -3.11,0 -6.11,-0.1 -9.02,-0.3 -8.32,55.9 -13.81,116.4 -0.46,131.5 -0.01,0 0.03,0 0.1,0 0.6,0 3.84,0.7 9.46,0.8 42.02,0 136.36,-37.7 252.21,-121.9 103.52,-75.3 189.46,-163.3 218.92,-224.2 23.75,-49.2 75.03,-80.1 129.62,-80.1 7.15,0 14.35,0.6 21.56,1.7 20.37,2.8 37.51,8.2 51.89,15.7 1.63,-17.4 4.25,-35.6 7.32,-54.1 7.49,-45.3 -23.61,-87.9 -69.06,-94.3 l -1.21,-0.2 c -3.61,-0.5 -7.23,-0.7 -10.82,-0.7"
         style="fill:#c8b2a6;fill-opacity:1;fill-rule:nonzero;stroke:none"
         id="path1520" /><path
         d="M 8883.12,9031.5 C 8805.68,7875.2 8365.9,7643 6895.61,7445.7 c -396.34,-53.2 -798.3,-53.1 -1194.71,0.1 -1470.12,197.5 -1909.96,429.7 -1987.93,1585.7 1.04,878.3 611.31,1799.4 1484.8,2240.8 108.65,54.9 175.58,167.5 174.67,293.9 0.27,46.8 -10.26,103.9 -21.38,164.3 -10.32,55.9 -34.46,186.9 -13.9,210.2 -0.05,-0.2 3.25,0.7 9.56,0.8 42.02,0 136.36,-37.7 252.21,-121.9 103.52,-75.3 189.46,-163.3 218.92,-224.2 26.86,-55.6 88.92,-87.8 151.18,-78.4 135.99,18.8 127.42,155.1 123.29,220.6 -0.94,14.9 -2.35,37.3 -1.53,52 57.8,-4.4 198.67,-86.9 295.53,-188.6 39.36,-41.4 92.17,-67.3 148.68,-73 1250.1,-126.8 2346.78,-1293.1 2348.12,-2496.5 M 6298.68,7269.3 c 205.53,0 411.01,13.7 615.09,41.1 736.75,98.8 1228.57,203.5 1562.31,446.2 338.16,245.9 500.69,625.2 543.42,1268.1 l 0.15,4.5 c 0,591.1 -260.9,1217.6 -715.81,1718.8 -475.67,524 -1098.97,849.3 -1755.06,915.8 -24.09,2.5 -46.66,13.6 -63.56,31.3 -90.99,95.6 -274.01,230 -397.44,231.2 -49.7,1.8 -79.9,-17.7 -96.5,-34.5 -42.73,-43.5 -38.75,-106.9 -35.22,-162.8 1.4,-22.3 3.95,-62.9 -1.62,-76 -0.96,-0.2 -2.4,-0.6 -4.43,-0.8 l -1.35,-0.2 c -3.56,-0.6 -7,1 -7.87,2.8 -80.83,167.1 -413.57,423.2 -594.15,423.2 -60.33,-0.1 -95.54,-27.2 -114.47,-50 -61.23,-73.6 -37.93,-200 -15.39,-322.3 9.5,-51.5 19.32,-104.8 19.13,-139.6 0.53,-75.1 -37.68,-140.6 -99.71,-171.9 -918.38,-464.1 -1559.78,-1436.6 -1559.78,-2365 l 0.16,-4.5 c 43.07,-643.2 205.66,-1022.4 543.67,-1268.1 333.41,-242.3 825.38,-347.1 1562.48,-446.1 204.35,-27.5 410.18,-41.2 615.95,-41.2"
         style="fill:#231f20;fill-opacity:1;fill-rule:nonzero;stroke:none"
         id="path1522" /><path
         d="m 4326.98,9659.9 c 0,527.8 615.38,955.6 1374.5,955.6 187.67,0 366.55,-26.2 529.52,-73.5 43.69,-12.7 90.38,-12.7 134.08,0 162.96,47.3 341.85,73.5 529.52,73.5 759.11,0 1374.5,-427.8 1374.5,-955.6 0,-295.4 -192.91,-559.6 -495.92,-734.8 -63.37,-36.7 -100.76,-100.3 -100.64,-168.8 v -1.1 c 0,-527.7 -615.39,-955.5 -1374.51,-955.5 -759.11,0 -1374.49,427.8 -1374.49,955.5 v 1.1 c 0.12,68.5 -37.26,132.1 -100.64,168.8 -303.02,175.2 -495.92,439.4 -495.92,734.8"
         style="fill:#c68b59;fill-opacity:1;fill-rule:nonzero;stroke:none"
         id="path1524" /><path
         d="m 6894.6,10580.3 c 738.49,0 1339.3,-412.9 1339.3,-920.4 0,-271.8 -174.35,-528.5 -478.34,-704.4 -74.17,-42.9 -118.37,-117.4 -118.21,-199.2 0,-508.6 -600.82,-921.4 -1339.32,-921.4 -738.48,0 -1339.29,412.8 -1339.29,920.3 0.15,82.9 -44.04,157.4 -118.21,200.3 -304,175.9 -478.35,432.6 -478.35,704.4 0,507.5 600.81,920.4 1339.3,920.4 180.16,0 355.01,-24.3 519.71,-72.1 50.27,-14.6 103.43,-14.6 153.71,0 164.69,47.8 339.54,72.1 519.7,72.1 M 6298.03,7764.5 c 777.33,0 1409.7,444.4 1409.7,990.7 -0.1,57.6 30.97,109.2 83.08,139.4 326.32,188.8 513.48,467.7 513.48,765.3 0,546.3 -632.38,990.8 -1409.69,990.8 -186.8,0 -368.27,-25.2 -539.34,-74.9 -37.43,-10.9 -77,-10.9 -114.44,0 -171.07,49.7 -352.53,74.9 -539.34,74.9 -777.31,0 -1409.69,-444.5 -1409.69,-990.8 0,-297.6 187.15,-576.5 513.49,-765.3 52.11,-30.1 83.16,-81.8 83.06,-138.2 0,-547.5 632.38,-991.9 1409.69,-991.9"
         style="fill:#231f20;fill-opacity:1;fill-rule:nonzero;stroke:none"
         id="path1526" /><path
         d="m 4735.87,9442.3 c 0,-285.5 231.45,-517 516.97,-517 285.51,0 516.97,231.5 516.97,517 0,285.5 -231.46,516.9 -516.97,516.9 -285.52,0 -516.97,-231.4 -516.97,-516.9"
         style="fill:#f1f2f2;fill-opacity:1;fill-rule:nonzero;stroke:none"
         id="path1528" /><path
         d="m 5252.84,8946.3 c 273.48,0 495.97,222.5 495.97,496 0,273.5 -222.49,495.9 -495.97,495.9 -273.48,0 -495.97,-222.4 -495.97,-495.9 0,-273.5 222.49,-496 495.97,-496"
         style="fill:#231f20;fill-opacity:1;fill-rule:nonzero;stroke:none"
         id="path1530" /><path
         d="m 5330.3,9636.5 c 0,-83.2 67.48,-150.7 150.72,-150.7 83.24,0 150.72,67.5 150.72,150.7 0,83.3 -67.48,150.8 -150.72,150.8 -83.24,0 -150.72,-67.5 -150.72,-150.8"
         style="fill:#f1f2f2;fill-opacity:1;fill-rule:nonzero;stroke:none"
         id="path1532" /><path
         d="m 4834.16,10021.7 c 0,-58 187.45,0 418.68,0 231.23,0 418.68,-58 418.68,0 0,58.1 -187.45,175.2 -418.68,175.2 -231.23,0 -418.68,-117.1 -418.68,-175.2"
         style="fill:#231f20;fill-opacity:1;fill-rule:nonzero;stroke:none"
         id="path1534" /><path
         d="m 6826.26,9442.3 c 0,-277.5 231.46,-502.4 516.98,-502.4 285.51,0 516.97,224.9 516.97,502.4 0,277.4 -231.46,502.4 -516.97,502.4 -285.52,0 -516.98,-225 -516.98,-502.4"
         style="fill:#f1f2f2;fill-opacity:1;fill-rule:nonzero;stroke:none"
         id="path1536" /><path
         d="m 7343.23,8960.9 c 273.48,0 495.97,215.9 495.97,481.4 0,265.4 -222.49,481.4 -495.97,481.4 -273.47,0 -495.96,-216 -495.96,-481.4 0,-265.5 222.49,-481.4 495.96,-481.4"
         style="fill:#231f20;fill-opacity:1;fill-rule:nonzero;stroke:none"
         id="path1538" /><path
         d="m 7420.69,9636.5 c 0,-83.2 67.48,-150.7 150.73,-150.7 83.24,0 150.72,67.5 150.72,150.7 0,83.3 -67.48,150.8 -150.72,150.8 -83.25,0 -150.73,-67.5 -150.73,-150.8"
         style="fill:#f1f2f2;fill-opacity:1;fill-rule:nonzero;stroke:none"
         id="path1540" /><path
         d="m 6922.11,10021.7 c 0,-58 187.45,0 418.68,0 231.23,0 418.68,-58 418.68,0 0,58.1 -187.45,175.2 -418.68,175.2 -231.23,0 -418.68,-117.1 -418.68,-175.2"
         style="fill:#231f20;fill-opacity:1;fill-rule:nonzero;stroke:none"
         id="path1542" /><path
         d="m 5718.64,8496 c -0.1,24.6 19.66,44.5 44.18,44.8 h 0.29 c 24.41,0 44.38,-19.8 44.48,-44.3 0.1,-18.1 3.26,-41.6 23.33,-63.5 9.98,-11.2 24.41,-21.8 44.87,-31.2 53.47,-24.5 120.19,-27.9 155.87,-27.7 59.11,0.3 115.45,22.7 158.55,63.2 40.52,38 63.55,87.5 63.35,135.8 v 0.2 0.3 c 0,1.3 0.3,2.4 0.39,3.6 0.1,1.7 0.2,3.5 0.5,5.1 0.29,1.3 0.79,2.5 1.18,3.8 l 0.1,0.3 c 0.39,1.4 0.7,2.9 1.29,4.2 0.59,1.2 1.29,2.4 1.97,3.6 0.7,1.3 1.29,2.7 2.18,3.9 0.69,1.2 1.68,2.2 2.57,3.2 0.99,1.2 1.78,2.4 2.77,3.4 0.98,1 2.17,1.8 3.26,2.7 1.09,0.9 2.18,1.9 3.36,2.7 1.09,0.8 2.47,1.4 3.65,2 1.29,0.7 2.48,1.6 3.87,2.1 1.38,0.6 2.86,0.9 4.24,1.4 1.39,0.4 2.68,1 4.06,1.3 1.58,0.2 3.16,0.2 4.75,0.5 1.38,0 2.66,0.3 4.04,0.3 h 0.29 0.2 c 1.38,0 2.78,-0.3 4.16,-0.3 1.58,-0.3 3.16,-0.3 4.64,-0.5 1.49,-0.3 2.87,-0.9 4.25,-1.4 1.38,-0.4 2.77,-0.7 4.06,-1.3 1.48,-0.6 2.77,-1.4 4.15,-2.2 1.08,-0.6 2.37,-1.2 3.46,-1.9 1.29,-0.9 2.37,-1.9 3.55,-2.9 0.99,-0.8 2.08,-1.6 2.96,-2.5 1.1,-1.1 1.99,-2.4 2.98,-3.6 0.79,-0.9 1.68,-1.9 2.47,-3 0.78,-1.2 1.47,-2.6 2.16,-4 0.61,-1.2 1.4,-2.3 1.89,-3.5 0.59,-1.3 0.89,-2.8 1.38,-4.2 l 0.1,-0.3 c 0.3,-1.3 0.89,-2.6 1.09,-3.8 0.39,-1.6 0.39,-3.4 0.59,-5.1 0.1,-1.2 0.39,-2.3 0.39,-3.6 v -0.3 -0.2 c -0.29,-48.3 22.83,-97.8 63.37,-135.8 43.09,-40.5 99.33,-62.9 158.53,-63.2 35.29,-0.3 102.4,3.2 155.78,27.7 20.46,9.4 34.79,20 44.98,31.1 19.95,22 23.22,45.5 23.32,63.6 0.1,24.6 19.86,44.1 44.68,44.3 24.5,-0.3 44.38,-20.2 44.28,-44.8 -0.4,-60 -24.62,-109.4 -70.78,-145.4 4.16,-16.6 6.33,-34.1 6.33,-52.4 0,-189.6 -230.6,-397.6 -514.97,-397.6 -284.45,0 -515.06,208 -515.06,397.6 0,18.3 2.18,35.8 6.33,52.4 -46.16,36 -70.37,85.4 -70.66,145.4"
         style="fill:#231f20;fill-opacity:1;fill-rule:nonzero;stroke:none"
         id="path1544" /><path
         d="m 6116.81,8077.3 c 0,72.7 81.12,118 181.2,118 100.08,0 181.21,-37.9 181.21,-110.7 0,-72.7 -81.13,-113.2 -181.21,-113.2 -100.08,0 -181.2,33.1 -181.2,105.9"
         style="fill:#ed1c24;fill-opacity:1;fill-rule:nonzero;stroke:none"
         id="path1546" /><path
         d="m 6298.01,8090.7 c -37.53,0 -67.95,14.5 -67.95,37.1 0,22.5 30.42,44.4 67.95,44.4 37.52,0 67.95,-19.6 67.95,-42.1 0,-22.6 -30.43,-39.4 -67.95,-39.4"
         style="fill:#f68e92;fill-opacity:1;fill-rule:nonzero;stroke:none"
         id="path1548" /><path
         d="m 5970.7,8936.2 c 0,-110.8 146.56,-299.2 327.34,-299.2 180.78,0 327.34,188.4 327.34,299.2 0,110.8 -146.56,102.1 -327.34,102.1 -180.78,0 -327.34,8.7 -327.34,-102.1"
         style="fill:#3c2415;fill-opacity:1;fill-rule:nonzero;stroke:none"
         id="path1550" /><path
         d="m 6368.56,9003.3 c 94.96,0 179.85,-2.8 209.48,-32.4 5.22,-5.2 12.14,-14.4 12.14,-34.7 0,-88 -126.3,-264 -292.14,-264 -165.84,0 -292.14,176 -292.14,264 0,20.3 6.92,29.5 12.13,34.7 33.07,33 134.94,32.6 242.93,32.3 l 37.08,-0.1 37.09,0.1 c 11.22,0 22.39,0.1 33.43,0.1 z m -70.52,-401.5 c 200.11,0 362.53,202.4 362.53,334.4 0,34.4 -11.04,62.9 -32.83,84.6 -53.78,53.6 -159.21,53.3 -292.85,52.8 l -36.85,-0.1 -36.85,0.1 c -133.55,0.4 -239.08,0.8 -292.85,-52.8 -21.79,-21.7 -32.84,-50.2 -32.84,-84.6 0,-132 162.42,-334.4 362.54,-334.4"
         style="fill:#231f20;fill-opacity:1;fill-rule:nonzero;stroke:none"
         id="path1552" /><path
         d="m 9454.25,4372.1 -86.62,0.4 c -79.07,131.8 -231.98,197.7 -385,197.7 -136.38,0 -272.87,-52.4 -357.15,-157.2 l 1,210.1 c 93.44,77.6 223,116.6 351.92,116.6 228.58,0 455.27,-122.3 475.85,-367.6 m -940.15,4.5 -22.33,0.1 c 4.04,33 11.79,63.7 22.77,92.3 l -0.44,-92.4"
         style="fill:#64a6bc;fill-opacity:1;fill-rule:nonzero;stroke:none"
         id="path1554" /><path
         d="m 9440.85,4216.5 -18.07,0.1 c -1.54,18.8 -4.19,37 -7.88,54.4 -0.03,-6.9 -0.2,-14 -0.52,-21.1 -9.08,45.8 -25.15,86.6 -46.75,122.6 l 86.62,-0.4 c 3.54,-42.2 0.97,-88 -8.73,-137.5 -1.21,-6.2 -2.77,-12.2 -4.67,-18.1 m -927.45,12.3 c -17,39.3 -26.27,79.6 -24.19,118.7 0.53,9.9 1.39,19.7 2.56,29.2 l 22.33,-0.1 -0.7,-147.8"
         style="fill:#4e7785;fill-opacity:1;fill-rule:nonzero;stroke:none"
         id="path1556" /><path
         d="m 8540.61,4176.6 c -0.44,0.8 -0.88,1.5 -1.31,2.2 0.47,-0.2 0.95,-0.3 1.44,-0.5 -0.05,-0.5 -0.09,-1.1 -0.13,-1.7 m 883.73,3.8 c -0.07,12.3 -0.6,24.4 -1.56,36.2 l 18.07,-0.1 c -4.04,-12.6 -9.6,-24.7 -16.51,-36.1"
         style="fill:#231f20;fill-opacity:1;fill-rule:nonzero;stroke:none"
         id="path1558" /><path
         d="m 8540.74,4178.3 c -0.49,0.2 -0.97,0.3 -1.44,0.5 -9.87,16.4 -18.6,33.1 -25.9,50 l 0.7,147.8 0.44,92.4 c 23.88,62 62.95,113.4 111.94,154.1 l -1,-210.1 c -44.53,-55.4 -74.51,-125.5 -82.22,-210.1 -1.05,-8.1 -1.89,-16.2 -2.52,-24.6"
         style="fill:#231f20;fill-opacity:1;fill-rule:nonzero;stroke:none"
         id="path1560" /><path
         d="m 8808.14,3878.6 c -77.47,-4.2 -151.42,29.1 -191.82,87.9 -45.99,66.9 -77.67,142.5 -74.55,214.1 24.27,556.6 982.43,516.3 872.22,-117.7 -15.52,-89.3 -100.12,-156.8 -200.78,-162.3 l -405.07,-22"
         style="fill:#865439;fill-opacity:1;fill-rule:nonzero;stroke:none"
         id="path1562" /><path
         d="m 8550.1,4080.8 c -7.67,27.5 -11.47,55.1 -10.28,82.2 0.2,4.6 0.47,9.1 0.79,13.6 0.33,-0.5 0.65,-1 0.98,-1.6 -0.46,-25 3.23,-50.4 10.21,-75.7 -0.69,-6.1 -1.25,-12.3 -1.7,-18.5"
         style="fill:#868485;fill-opacity:1;fill-rule:nonzero;stroke:none"
         id="path1564" /><path
         d="m 8541.59,4175 c -0.33,0.6 -0.65,1.1 -0.98,1.6 0.04,0.6 0.08,1.2 0.13,1.7 0.3,-0.1 0.62,-0.2 0.93,-0.2 -0.03,-1.1 -0.06,-2.1 -0.08,-3.1"
         style="fill:#868485;fill-opacity:1;fill-rule:nonzero;stroke:none"
         id="path1566" /><path
         d="m 8541.67,4178.1 c -0.31,0 -0.63,0.1 -0.93,0.2 0.63,8.4 1.47,16.5 2.52,24.6 -0.67,-7.3 -1.17,-14.8 -1.49,-22.3 -0.04,-0.8 -0.07,-1.7 -0.1,-2.5"
         style="fill:#868485;fill-opacity:1;fill-rule:nonzero;stroke:none"
         id="path1568" /><path
         d="m 8551.8,4099.3 c -6.98,25.3 -10.67,50.7 -10.21,75.7 0.02,1 0.05,2 0.08,3.1 0.03,0.8 0.06,1.7 0.1,2.5 0.32,7.5 0.82,15 1.49,22.3 0.19,1.4 0.37,2.8 0.57,4.2 -0.24,-3.4 -0.38,-6.7 -0.54,-10.1 -1.2,-27.3 2.66,-55.2 10.43,-82.9 -0.71,-4.9 -1.36,-9.9 -1.92,-14.8 m 11.03,59.7 c -7.51,16.9 -13.78,34 -18.57,51.1 33.64,228.4 235.04,342.5 436.36,342.5 195.74,0 391.38,-107.9 432.43,-323.5 -1.12,-13.5 -2.75,-27.2 -4.92,-41.3 -61.17,179.3 -239.54,269 -418.07,269 -187.65,0 -375.45,-99.2 -427.23,-297.8"
         style="fill:#bda192;fill-opacity:1;fill-rule:nonzero;stroke:none"
         id="path1570" /><path
         d="m 9421.14,4119.1 c 1.58,20.1 2.02,39.6 1.4,58.4 0.61,0.9 1.21,1.9 1.8,2.9 0.11,-19.7 -0.92,-40.2 -3.2,-61.3"
         style="fill:#231f20;fill-opacity:1;fill-rule:nonzero;stroke:none"
         id="path1572" /><path
         d="m 9422.78,4216.6 h -3.16 c -1.35,11.3 -3.1,22.5 -5.24,33.3 0.32,7.1 0.49,14.2 0.52,21.1 3.69,-17.4 6.34,-35.6 7.88,-54.4"
         style="fill:#3f5862;fill-opacity:1;fill-rule:nonzero;stroke:none"
         id="path1574" /><path
         d="m 9422.54,4177.5 c -0.44,13.3 -1.43,26.4 -2.92,39.1 h 3.16 c 0.96,-11.8 1.49,-23.9 1.56,-36.2 -0.59,-1 -1.19,-2 -1.8,-2.9"
         style="fill:#231f20;fill-opacity:1;fill-rule:nonzero;stroke:none"
         id="path1576" /><path
         d="m 8796.61,3894.6 c -72.63,0 -140.66,32.8 -178.78,88.2 -28.49,41.4 -51.48,86.2 -64.11,131.3 2.28,15.5 5.33,30.5 9.11,44.9 12.28,-27.5 27.85,-54.6 45.59,-80.2 38.05,-55.5 105.97,-88.3 178.54,-88.3 4.39,0 8.8,0.2 13.23,0.4 l 405.04,21.9 c 100.75,5.5 185.3,73.1 200.82,162.2 0.74,4.3 1.44,8.5 2.08,12.8 5.08,-14.9 9.36,-30.5 12.76,-46.6 0.12,31.1 -2.6,60.4 -7.84,87.9 0.58,7 1.02,13.9 1.33,20.8 2.14,-10.8 3.89,-22 5.24,-33.3 1.49,-12.7 2.48,-25.8 2.92,-39.1 0.62,-18.8 0.18,-38.3 -1.4,-58.4 -1.4,-13 -3.28,-26.3 -5.64,-39.9 -15.55,-89.3 -100.07,-156.7 -200.82,-162.2 l -405.07,-22 c -4.35,-0.2 -8.68,-0.4 -13,-0.4 m -252.78,312.5 c 0.08,1.2 0.18,2.3 0.29,3.5 0.04,-0.2 0.09,-0.4 0.14,-0.5 -0.14,-1 -0.29,-2 -0.43,-3"
         style="fill:#634230;fill-opacity:1;fill-rule:nonzero;stroke:none"
         id="path1578" /><path
         d="m 8553.72,4114.1 c -7.77,27.7 -11.63,55.6 -10.43,82.9 0.16,3.4 0.3,6.7 0.54,10.1 0.14,1 0.29,2 0.43,3 4.79,-17.1 11.06,-34.2 18.57,-51.1 -3.78,-14.4 -6.83,-29.4 -9.11,-44.9 m 867.17,27.1 c -3.4,16.1 -7.68,31.7 -12.76,46.6 2.17,14.1 3.8,27.8 4.92,41.3 5.24,-27.5 7.96,-56.8 7.84,-87.9"
         style="fill:#87746a;fill-opacity:1;fill-rule:nonzero;stroke:none"
         id="path1580" /><path
         d="m 8795.07,4535.5 c -14.49,-0.7 -25.71,-12.9 -25.08,-27.4 l 5.52,-125.9 c 0.64,-14.5 12.89,-25.7 27.39,-25.1 14.48,0.6 25.71,12.9 25.07,27.4 l -5.51,125.9 c -0.64,14.5 -12.9,25.7 -27.39,25.1"
         style="fill:#231f20;fill-opacity:1;fill-rule:nonzero;stroke:none"
         id="path1582" /><path
         d="m 9133.05,4550.3 c -14.49,-0.7 -25.72,-12.9 -25.08,-27.4 l 5.52,-125.9 c 0.64,-14.5 12.89,-25.7 27.38,-25.1 14.49,0.6 25.72,12.9 25.08,27.4 l -5.52,125.9 c -0.64,14.5 -12.89,25.7 -27.38,25.1"
         style="fill:#231f20;fill-opacity:1;fill-rule:nonzero;stroke:none"
         id="path1584" /><path
         d="m 8955.4,4511.9 c 102.42,5.9 206.18,-21.8 283.05,-80.6 72.86,-55.7 152.59,-163.2 118.63,-358.6 -10.79,-62 -72.27,-110.1 -146.31,-114.4 h -0.69 l -405.07,-22 c -58.17,-3.1 -112.24,21 -141.1,62.9 -43.8,63.7 -66.68,127.2 -64.43,178.9 7.85,180.2 125.31,261.4 194.63,293.8 50.34,23.6 105.62,36.7 161.29,40 z M 9217.44,3843 c 127.07,7.4 233.57,95.5 253.46,210 34.24,196.9 -23.39,363.9 -162.27,470.1 -151.4,115.8 -383.09,137.8 -563.43,53.5 -158.28,-74 -253.47,-217.4 -261.14,-393.5 -4.28,-98.1 43.67,-189.8 84.66,-249.3 51.51,-75 144.46,-118.2 242.55,-112.9 l 405.07,22 1.1,0.1"
         style="fill:#231f20;fill-opacity:1;fill-rule:nonzero;stroke:none"
         id="path1586" /></g></g></svg>
