<?xml version="1.0" encoding="UTF-8" standalone="no"?>
<!-- Created with Inkscape (http://www.inkscape.org/) -->

<svg
   version="1.1"
   id="svg2"
   xml:space="preserve"
   width="5333.3335"
   height="5333.3335"
   viewBox="1800 0 1700 1700"
   sodipodi:docname="vecteezy_vector-illustration-of-monkey-characters-playing-soccer_7741808.eps"
   xmlns:inkscape="http://www.inkscape.org/namespaces/inkscape"
   xmlns:sodipodi="http://sodipodi.sourceforge.net/DTD/sodipodi-0.dtd"
   xmlns="http://www.w3.org/2000/svg"
   xmlns:svg="http://www.w3.org/2000/svg"><defs
     id="defs6" /><sodipodi:namedview
     id="namedview4"
     pagecolor="#ffffff"
     bordercolor="#666666"
     borderopacity="1.0"
     inkscape:pageshadow="2"
     inkscape:pageopacity="0.0"
     inkscape:pagecheckerboard="0" /><g
     id="g8"
     inkscape:groupmode="layer"
     inkscape:label="ink_ext_XXXXXX"
     transform="matrix(1.3333333,0,0,-1.3333333,0,5333.3333)"><g
       id="g10"
       transform="scale(0.1)"><path
         d="m 19233,30258 297,877.2 -1527.4,107.1 c 103.1,-251 53.3,-522.6 34.6,-793.3 -9.4,-135.9 -5.2,-280.7 14.6,-428.7 31.4,-236 97.9,-446.4 185.9,-613.2 -95.5,-94 -208.6,-219 -207.2,-331.1 2.6,-213.9 277.7,-300.1 549,-296.7 271.2,3.4 490.1,95 487.5,308.8 -0.5,39.6 -8.6,80.7 -23.1,121.2 159.9,226.4 238.8,622.2 189.1,1048.7"
         style="fill:#865439;fill-opacity:1;fill-rule:nonzero;stroke:none"
         id="path1808" /><path
         d="m 18288.4,29439.8 c -71.7,137 -125.9,299.7 -159.1,475.9 30,-17.8 62.7,-35 98.3,-51.7 32.9,-157.8 81.8,-300.9 141.9,-422.8 -2.5,0 -5,0 -7.4,0 -3.3,0 -6.5,0 -9.8,0 -3.8,0 -7.4,0 -10.8,0 -18.1,0 -35.8,-0.5 -53.1,-1.4"
         style="fill:#634230;fill-opacity:1;fill-rule:nonzero;stroke:none"
         id="path1810" /><path
         d="m 18088.8,31176.1 c 54.9,-194.9 36.9,-397.3 19.5,-593.9 -4,-45.1 -8.1,-91.7 -11.2,-137.3 -9.4,-135.7 -4.7,-275.9 14.1,-416.7 29.6,-221.3 91.7,-426.4 179.6,-593.1 12.4,-23.4 7.9,-52.2 -11,-70.7 -52.1,-51.3 -190.5,-187.5 -189.3,-287.7 0.9,-74.4 47.7,-133.7 139,-176.1 88.7,-41.2 212.8,-62.9 349.2,-61.3 129.7,1.6 431,29 428.3,248.1 -0.4,32.3 -7,66.5 -19.6,101.7 -6.6,18.4 -3.8,38.9 7.5,54.9 156.7,221.7 225.1,607.6 178.5,1007.1 -1.1,8.8 -0.1,17.7 2.7,26.2 l 272.1,803.5 -1359.4,95.3 m 475.5,-2456.9 c -148,0 -284.3,25.6 -385.4,72.6 -134.8,62.6 -206.9,160.6 -208.4,283.4 -1.5,121 92.7,240 194,343.5 -83.8,171.3 -143.1,375.5 -172.2,593.6 -19.9,148.8 -24.9,297.1 -15,440.9 3.3,46.7 7.4,93.9 11.5,139.6 19.7,222.1 38.3,432 -41.7,626.7 -7.8,19.2 -5.2,41.1 6.9,57.9 12.2,16.8 32.2,26.1 52.8,24.7 l 1527.4,-107 c 18.5,-1.3 35.5,-11.2 45.7,-26.7 10.4,-15.4 12.9,-34.8 6.9,-52.4 l -292.7,-864.5 c 45.2,-408.6 -24.9,-806.6 -184.2,-1051.6 10.9,-37.6 16.6,-74.9 17.1,-111 2.7,-227.2 -201.6,-365.3 -546.8,-369.6 -5.3,-0.1 -10.6,-0.1 -15.9,-0.1"
         style="fill:#231f20;fill-opacity:1;fill-rule:nonzero;stroke:none"
         id="path1812" /><path
         d="m 19105.5,28921.5 c 0,-241.9 -310,-356.1 -754,-356.1 -444.1,0 -677.8,88.3 -677.8,330.1 0,241.9 223.7,545.7 667.8,545.7 41.8,0 112.5,-2.4 152,-7.1 94.4,-11.2 191.5,-24.9 269.1,-57.7 100.2,-42.2 154.6,-49.5 218.5,-114.1 85.7,-86.6 124.4,-246.5 124.4,-340.8"
         style="fill:#c68b59;fill-opacity:1;fill-rule:nonzero;stroke:none"
         id="path1814" /><path
         d="m 18372.1,28565.4 c -3.7,0 -7.4,0 -11,0 20.3,0.1 40.3,0.4 60,1 3,-0.1 6.1,-0.2 9.1,-0.2 -19.1,-0.5 -38.5,-0.8 -58.1,-0.8"
         style="fill:#979596;fill-opacity:1;fill-rule:nonzero;stroke:none"
         id="path1816" /><path
         d="m 18425.4,29439.1 c -19,0.9 -38.3,1.5 -55.7,1.8 -0.1,0.1 -0.1,0.2 -0.2,0.3 18.6,-0.1 41.4,-0.6 64.4,-1.6 -2.8,-0.1 -5.7,-0.3 -8.5,-0.5"
         style="fill:#634230;fill-opacity:1;fill-rule:nonzero;stroke:none"
         id="path1818" /><path
         d="m 18369.7,29440.9 c -6.1,0.2 -11.9,0.2 -17.4,0.3 3.3,0 6.5,0 9.8,0 2.4,0 4.9,0 7.4,0 0.1,-0.1 0.1,-0.2 0.2,-0.3"
         style="fill:#4d362a;fill-opacity:1;fill-rule:nonzero;stroke:none"
         id="path1820" /><path
         d="m 18361.1,28565.4 c -437,1.5 -666.8,90.3 -666.8,330.1 0,240.1 220.4,541.3 658,545.7 5.5,-0.1 11.3,-0.1 17.4,-0.3 17.4,-0.3 36.7,-0.9 55.7,-1.8 -403.7,-26.3 -607,-313 -607,-543.6 0,-227.8 207.5,-319.3 602.7,-329.1 -19.7,-0.6 -39.7,-0.9 -60,-1"
         style="fill:#8d6545;fill-opacity:1;fill-rule:nonzero;stroke:none"
         id="path1822" /><path
         d="m 18341.5,29416.2 c -443.4,0 -642.8,-304.4 -642.8,-520.7 0,-211 201.3,-305.1 652.8,-305.1 463.3,0 729,120.7 729,331.1 0,99.2 -41,246.3 -117.2,323.3 -44.2,44.6 -83.3,59.4 -142.6,81.8 -19.9,7.6 -42.5,16.1 -67.8,26.8 -75.5,31.8 -171,45.1 -262.3,55.9 -36.9,4.3 -104.8,6.9 -149.1,6.9 z m 10,-875.8 c -327.2,0 -702.8,40.4 -702.8,355.1 0,237 214.9,570.7 692.8,570.7 38.7,0 112.3,-2.2 154.9,-7.3 94.9,-11.2 194.4,-25 275.9,-59.4 24.4,-10.3 46.6,-18.7 66.1,-26.1 63,-23.8 108.6,-41.1 160.5,-93.5 85.5,-86.4 131.6,-249.2 131.6,-358.4 0,-242.2 -283.9,-381.1 -779,-381.1"
         style="fill:#231f20;fill-opacity:1;fill-rule:nonzero;stroke:none"
         id="path1824" /><path
         d="m 19008.7,29252.3 c 90.5,-67.2 123.4,-187.3 140.1,-294 62,-317.2 -340.4,-422.6 -581.2,-442.8 -413.6,-43.4 -1187.5,-1.9 -894.3,611.5 128.6,237.7 401.8,385 670.2,338.1 45.8,-5.1 94.5,-14.9 143.5,-25.6 18.1,-3.9 14.4,-30.7 -4,-29.6 -81.4,4.6 -162.6,6.4 -238.4,-17.6 -180.4,-60.1 -374.3,-144.3 -465.5,-321.9 -244.5,-485.8 480.3,-458.5 776.7,-435.4 187,23.2 443.5,59.6 494,272.5 17,113.8 26.2,244 -41.1,344.8"
         style="fill:#231f20;fill-opacity:1;fill-rule:nonzero;stroke:none"
         id="path1826" /><path
         d="m 20611.2,30112.8 -238,895 1531.1,5.2 c -119.5,-243.6 -87.9,-517.9 -87.3,-789.2 0.3,-136.2 -13.5,-280.4 -43.1,-426.8 -47.1,-233.4 -127.5,-438.9 -226.4,-599.4 89.1,-100.2 193.6,-232.4 184.7,-344.3 -16.8,-213.2 -297,-280.8 -567.5,-259.4 -270.4,21.4 -482.7,127.4 -465.8,340.6 3.1,39.5 13.9,79.9 31.1,119.4 -144.5,236.4 -196.9,636.6 -118.8,1058.9"
         style="fill:#865439;fill-opacity:1;fill-rule:nonzero;stroke:none"
         id="path1828" /><path
         d="m 21813.9,30952.7 c -67.7,-190.8 -63.3,-394 -59,-591.3 1,-45.2 2,-92 2.1,-137.7 0.3,-136.1 -13.8,-275.7 -41.9,-414.9 -44.2,-218.9 -119.8,-419.4 -218.7,-579.8 -13.9,-22.5 -11.3,-51.5 6.3,-71.3 48.6,-54.6 177.6,-199.8 169.7,-299.6 -5.8,-74.2 -56.5,-130.2 -150.4,-166.5 -91.3,-35.2 -216.5,-48.6 -352.5,-37.9 -129.3,10.2 -428.1,57.6 -410.8,276 2.5,32.2 11.4,66 26.3,100.2 7.8,18 6.4,38.6 -3.8,55.3 -141.6,231.6 -184.2,621.2 -111,1016.7 1.6,8.8 1.2,17.8 -1.1,26.3 l -218,819.9 1362.8,4.6 m -638,-2419.8 c 147.6,-9.9 285.3,6.6 389.3,46.7 138.7,53.6 217.2,146.6 226.9,269 9.5,120.6 -76.6,245.6 -170.8,355.7 95.1,165.3 167.8,365 211.4,580.8 29.7,147.1 44.6,294.7 44.3,438.8 -0.1,46.9 -1.2,94.3 -2.2,140.1 -4.8,223 -9.4,433.6 83.3,622.5 9.2,18.7 8.1,40.7 -3,58.3 -11,17.6 -30.3,28.2 -51,28.2 l -1531.1,-5.1 c -18.6,-0.1 -36.1,-8.8 -47.4,-23.6 -11.4,-14.7 -15.2,-33.9 -10.4,-51.9 l 234.5,-882 c -72.2,-404.7 -28.8,-806.5 113.7,-1061.5 -13.3,-36.9 -21.5,-73.7 -24.3,-109.7 -17.9,-226.4 176.8,-377.9 520.9,-405.1 5.3,-0.5 10.6,-0.9 15.9,-1.2"
         style="fill:#231f20;fill-opacity:1;fill-rule:nonzero;stroke:none"
         id="path1830" /><path
         d="m 20649.3,28770.8 c -16.1,-241.4 285.6,-376 728.7,-405.5 443.1,-29.6 682.1,42.9 698.2,284.3 16.1,241.3 -186.8,559.3 -629.9,588.9 -41.8,2.8 -112.5,5 -152.2,3 -94.9,-4.9 -192.7,-12.1 -272.3,-39.6 -102.8,-35.5 -157.6,-39.2 -225.6,-99.3 -91.4,-80.8 -140.6,-237.7 -146.9,-331.8"
         style="fill:#c68b59;fill-opacity:1;fill-rule:nonzero;stroke:none"
         id="path1832" /><path
         d="m 21444.6,29213.6 c 442.4,-29.6 621.1,-346.6 606.7,-562.4 -14.1,-210.5 -221.2,-291 -671.7,-261 -462.3,30.9 -719.4,169 -705.3,378.9 6.6,99.1 57.3,243 138.4,314.8 47.1,41.6 87.2,53.8 147.8,72.2 20.4,6.2 43.5,13.2 69.4,22.1 77.5,26.8 173.6,33.6 265.5,38.3 37,1.9 105,0 149.2,-2.9 m -68.3,-873.3 c 326.5,-21.8 703.9,-6.5 724.9,307.6 15.8,236.4 -176.5,583.7 -653.3,615.5 -38.6,2.6 -112.2,5.3 -155.1,3.1 -95.4,-4.9 -195.6,-12.1 -279.2,-41 -25,-8.6 -47.7,-15.5 -67.6,-21.6 -64.5,-19.6 -111.2,-33.7 -166.4,-82.6 -91.1,-80.6 -148,-239.9 -155.2,-348.9 -16.2,-241.6 257.9,-399.1 751.9,-432.1"
         style="fill:#231f20;fill-opacity:1;fill-rule:nonzero;stroke:none"
         id="path1834" /><path
         d="m 21553,28417.1 c -138.8,0 -278.9,17.3 -374.2,31.2 -185.1,35.6 -438.6,89 -474.8,304.8 -2.4,29 -4.2,58.9 -4.4,89.1 2.5,0.3 5.1,0.4 7.6,0.4 27.9,0 55.8,-18.3 63.2,-50.7 44.1,-195.5 327.2,-305.9 723.2,-332.3 61.4,-4.1 118.8,-6.2 172.3,-6.2 78.9,0 149.1,4.6 210.6,14.5 -87.6,-38.1 -205,-50.8 -323.5,-50.8"
         style="fill:#956a48;fill-opacity:1;fill-rule:nonzero;stroke:none"
         id="path1836" /><path
         d="m 20767.9,29094.4 c -94.8,-61 -135.5,-178.7 -159.4,-284 -82.9,-312.3 311.6,-444.3 550.5,-480.5 409.8,-70.9 1184.7,-81 933,550.6 -112.4,245.7 -375.2,410.9 -646.2,381.9 -46,-2 -95.3,-8.5 -144.9,-15.9 -18.3,-2.7 -16.4,-29.7 2.1,-29.9 81.5,-0.8 162.7,-4.4 236.6,-33.4 176.1,-71.9 364,-168.9 443.1,-352.1 211.6,-501.1 -509.8,-425.5 -803.9,-382.8 -185.1,35.6 -438.6,89 -474.8,304.8 -9.4,114.7 -9.9,245.2 63.9,341.3"
         style="fill:#231f20;fill-opacity:1;fill-rule:nonzero;stroke:none"
         id="path1838" /><path
         d="m 18841.2,29754.4 c -168.9,15.8 -366,64.6 -527.4,130.7 -242.3,99.1 -367.4,218.8 -371.8,355.7 -10.7,333.3 45.5,666.6 154.7,924 -35.3,62.9 -67.4,129.9 -95.8,199.7 -11.8,29.1 -8.2,62.8 9.5,88.7 17.7,25.9 46.9,40.1 76.8,37.3 l 3859.6,-360.8 c 29.8,-2.8 55.9,-22.1 68.5,-50.9 12.6,-28.7 9.9,-62.5 -7.1,-88.9 -37.6,-58.3 -78,-113.8 -120.5,-165.5 63.2,-275.8 57.7,-618.9 -16,-951 -29.7,-133.7 -174.8,-228.1 -431.3,-280.6 -170.8,-35 -373.6,-46.4 -542.5,-30.7 v 0 c -18.6,1.8 -37,3.9 -54.5,6.2 -142.6,19.3 -244.7,56.8 -312,114.6 -78.4,67.2 -92.2,146.7 -90,201.5 4.1,99.4 14.6,200.2 31.3,301 -195.2,-3.7 -389.5,11.2 -558.4,27 -198,18.5 -375.6,46.2 -539.5,84.3 -2,-105.1 -10.5,-209 -25.3,-310.3 -7.9,-54.2 -36.2,-129.7 -125.7,-181.3 -76.9,-44.3 -184.2,-62.2 -327.9,-54.7 -17.7,0.9 -36.1,2.3 -54.7,4"
         style="fill:#73777b;fill-opacity:1;fill-rule:nonzero;stroke:none"
         id="path1840" /><path
         d="m 21871.7,29873.4 c -29.7,-133.8 -174.8,-228.1 -431.3,-280.6 -170.9,-35 -373.6,-46.4 -542.4,-30.7 -18.8,1.8 -37.1,3.8 -54.6,6.2 -142.6,19.3 -244.6,56.8 -312,114.5 -78.5,67.3 -92.2,146.8 -90,201.5 3,71.9 9.3,144.5 18.9,217.3 -0.8,-11.4 -1.3,-22.6 -1.7,-33.9 -2.3,-54.8 11.5,-134.2 89.9,-201.5 67.4,-57.8 169.5,-95.3 312,-114.5 17.6,-2.4 35.9,-4.5 54.6,-6.2 168.8,-15.8 371.6,-4.4 542.5,30.6 256.5,52.5 401.5,147 431.2,280.7 16.4,73.5 29.4,147.6 38.9,221.3 -7.4,-133.2 -26.1,-269.9 -56,-404.7"
         style="fill:#8fbdd3;fill-opacity:1;fill-rule:nonzero;stroke:none"
         id="path1842" /><path
         d="m 21871.7,29873.4 h 0.1 -0.1 m -1395.1,18.3 c -0.1,-2.9 -0.3,-5.8 -0.4,-8.7 -1.9,-46.7 10,-114.6 77.5,-172.4 62.3,-53.3 158.6,-88.2 294.4,-106.6 17,-2.3 34.9,-4.3 53.2,-6 165.8,-15.5 364.9,-4.3 532.6,30.1 241.7,49.4 377.5,134.6 403.9,253.2 v 0 c 2.1,9.4 4.1,18.8 6.1,28.2 -76.3,-76.1 -203.3,-132.6 -379.8,-168.7 -173.8,-35.6 -380.3,-47.3 -552.4,-31.2 -19.2,1.8 -38,4 -55.9,6.4 -149.2,20.2 -257.1,60.2 -329.6,122.5 -20,17.2 -36.4,35.1 -49.6,53.2 m 418,-365.4 c -19.2,1.8 -38,3.9 -55.9,6.3 -149.2,20.2 -257,60.3 -329.6,122.5 -89.3,76.5 -105,167.6 -102.5,230.5 3,72.1 9.4,146.3 19.2,220.6 2.5,19.2 19.2,32.9 37.8,31.2 h 0.1 c 18.7,-1.8 32.5,-18.6 31.3,-38 -0.7,-11 -1.2,-21.9 -1.6,-32.9 -2,-46.8 9.9,-114.6 77.5,-172.5 62.2,-53.4 158.5,-88.3 294.4,-106.7 16.9,-2.2 34.8,-4.3 53.2,-6 165.8,-15.5 364.9,-4.2 532.5,30.1 241.7,49.5 377.6,134.7 403.9,253.2 16.1,72.7 29,146.1 38.3,218.1 2.5,19.2 19.2,33 37.8,31.3 h 0.1 c 18.6,-1.8 32.4,-18.4 31.4,-37.7 -7.6,-136.7 -26.7,-274.9 -56.9,-410.7 v 0 c -33,-148.9 -187.4,-252.6 -458.6,-308.1 -173.8,-35.6 -380.3,-47.3 -552.4,-31.2"
         style="fill:#231f20;fill-opacity:1;fill-rule:nonzero;stroke:none"
         id="path1844" /><path
         d="m 19349.5,29986.4 c -7.9,-54.2 -36.2,-129.8 -125.8,-181.3 -76.8,-44.3 -184.1,-62.2 -327.8,-54.7 -17.7,0.9 -36.1,2.3 -54.8,4 -168.7,15.8 -365.9,64.6 -527.3,130.7 -242.3,99.1 -367.4,218.7 -371.8,355.7 -4.4,137.6 2.5,275.3 20,407.5 -4.3,-74 -5.3,-149.2 -2.9,-224.2 4.4,-136.9 129.5,-256.6 371.9,-355.7 161.3,-66.1 358.5,-114.9 527.3,-130.6 18.6,-1.8 37.1,-3.2 54.7,-4.1 143.8,-7.5 251,10.5 327.9,54.8 89.6,51.6 117.8,127 125.7,181.3 1.7,11.1 3.2,22.4 4.7,33.6 -4.1,-73.2 -11.4,-145.8 -21.8,-217"
         style="fill:#8fbdd3;fill-opacity:1;fill-rule:nonzero;stroke:none"
         id="path1846" /><path
         d="m 17976,30271.1 c 0.2,-9.6 0.5,-19.2 0.8,-28.9 3.9,-121.3 121.6,-230.2 350,-323.7 158.3,-64.8 351.8,-112.7 517.7,-128.2 18.3,-1.8 36.3,-3.1 53.4,-4 137,-7.1 238.1,9.3 309,50.2 77.3,44.4 101.4,108.8 108.1,155 v 0 c 0.5,2.9 0.9,5.8 1.3,8.7 -16.4,-15.4 -35.8,-30 -58.6,-43.1 -82.8,-47.7 -196.1,-67.2 -346.6,-59.3 -18.1,0.9 -37,2.3 -56.2,4.1 -172.1,16.1 -372.8,65.8 -536.9,133 -166.8,68.3 -281.1,147.3 -342,236.2 m 861.8,-552.5 c -172.1,16.1 -372.8,65.8 -537,133 -256.3,104.8 -388.7,235.3 -393.6,387.8 -4.4,138.9 2.4,278 20.3,413.6 2.5,19.1 19.2,32.9 37.8,31.2 h 0.1 c 18.6,-1.8 32.4,-18.5 31.3,-37.8 -4.2,-73.1 -5.2,-147.4 -2.8,-220.8 3.9,-121.4 121.7,-230.3 350.1,-323.7 158.3,-64.8 351.8,-112.8 517.6,-128.3 18.3,-1.7 36.3,-3 53.4,-3.9 137,-7.2 238.1,9.3 309.1,50.2 77.2,44.5 101.4,108.8 108.1,155 1.6,11 3.2,22 4.5,32.9 2.4,19.3 19.1,33.2 37.8,31.5 h 0.1 c 18.6,-1.7 32.5,-18.4 31.4,-37.7 -4.1,-73.8 -11.5,-148 -22.1,-220.4 -9.1,-62.2 -41.3,-148.8 -143.4,-207.6 -82.8,-47.6 -196.1,-67 -346.6,-59.2 -18,1 -36.9,2.4 -56.1,4.2"
         style="fill:#231f20;fill-opacity:1;fill-rule:nonzero;stroke:none"
         id="path1848" /><path
         d="m 19260.5,30045.4 c -3.1,42.2 -5.8,83.3 -7.8,114.9 -2.5,38.4 -16.7,74.8 -40.5,104.1 l -106.8,131 c -4.5,6.2 0.3,14.2 6.8,14.2 1.1,0 2.3,-0.2 3.5,-0.8 l 207.2,-94.4 -0.3,-17 c -1.2,-62.9 -4.8,-125.6 -10.8,-187.5 -11.1,-22 -27.4,-44.3 -51.3,-64.5"
         style="fill:#57585b;fill-opacity:1;fill-rule:nonzero;stroke:none"
         id="path1850" /><path
         d="m 19271,29919.7 c -1.3,13.4 -2.7,27.9 -3.9,43 10.3,6.4 19.9,13.1 28.8,20 -4.7,-23.1 -13,-44.1 -24.9,-63"
         style="fill:#698695;fill-opacity:1;fill-rule:nonzero;stroke:none"
         id="path1852" /><path
         d="m 19267.1,29962.7 c -2.3,26.4 -4.5,54.8 -6.6,82.7 23.9,20.2 40.2,42.5 51.3,64.5 -3.7,-39 -8.4,-77.6 -13.9,-115.7 -0.6,-3.9 -1.3,-7.7 -2,-11.5 -8.9,-6.9 -18.5,-13.6 -28.8,-20"
         style="fill:#231f20;fill-opacity:1;fill-rule:nonzero;stroke:none"
         id="path1854" /><path
         d="m 20533.9,29933.4 c -16.2,21.9 -26.4,44.2 -32.6,65.4 5.4,59.1 13,118.5 22.8,177.8 l 4.6,27.8 213,52.4 c 0.8,0.2 1.5,0.3 2.1,0.3 7.3,0 11.5,-9.7 5.6,-15.3 l -129.2,-109 c -28.9,-24.4 -49.6,-57.6 -59.2,-94.8 -7.4,-29 -17,-66.1 -27.1,-104.6"
         style="fill:#57585b;fill-opacity:1;fill-rule:nonzero;stroke:none"
         id="path1856" /><path
         d="m 20501.8,29816.6 c -5.3,17.1 -8.1,35.2 -8.4,54.1 5.7,-6.4 11.8,-12.8 18.3,-19.1 -3.3,-12.1 -6.7,-23.9 -9.9,-35"
         style="fill:#698695;fill-opacity:1;fill-rule:nonzero;stroke:none"
         id="path1858" /><path
         d="m 20511.7,29851.6 c -6.5,6.3 -12.6,12.7 -18.3,19.1 0,3.9 0,7.8 0.2,11.7 1.6,38.5 4.2,77.4 7.7,116.4 6.2,-21.2 16.4,-43.5 32.6,-65.4 -7.3,-27.4 -14.9,-55.5 -22.2,-81.8"
         style="fill:#231f20;fill-opacity:1;fill-rule:nonzero;stroke:none"
         id="path1860" /><path
         d="m 20468.5,30241.5 c 85.1,7.7 182.7,8.3 268.6,35 18.5,5.7 29.8,-20.6 13.1,-30.7 -95.2,-57.6 -214.2,-82.8 -316.1,-114.7 l -13.8,109.3 48.2,1.1"
         style="fill:#231f20;fill-opacity:1;fill-rule:nonzero;stroke:none"
         id="path1862" /><path
         d="m 19347.8,30360.1 c -75.5,18.5 -159.5,30.3 -230.1,67.8 -17.1,9.1 -32.6,-15.2 -18,-28.2 82.8,-74 194.8,-120.7 288.8,-170.9 l 33.8,104.9 -23.9,9.8 c -16.4,6.7 -33.3,12.4 -50.6,16.6"
         style="fill:#231f20;fill-opacity:1;fill-rule:nonzero;stroke:none"
         id="path1864" /><path
         d="m 18210.6,30165 c -134.8,74.9 -207.2,158.1 -215.9,248.3 7.3,193.2 37.1,383 86.4,551.3 13,-3 26.1,-6 39.3,-8.9 1.2,-54.1 4,-105.9 36,-155.2 26.3,-6.5 53.1,-12.7 80.2,-18.9 -32.8,-171.7 -47.3,-356.2 -41.4,-540.8 0.8,-25.9 6,-51.1 15.4,-75.8"
         style="fill:#57585b;fill-opacity:1;fill-rule:nonzero;stroke:none"
         id="path1866" /><path
         d="m 18761.4,29818.6 c -142.8,21.4 -297.5,63.2 -428.1,116.7 -152.2,62.2 -334.6,166.1 -339.1,307.6 -0.1,1.4 -0.1,2.7 -0.1,4.1 61.2,-75.6 162.6,-143.6 303.4,-203.5 62,-57.4 151.9,-110.4 269.5,-158.4 60.9,-24.9 126.8,-47.4 194.4,-66.5"
         style="fill:#698695;fill-opacity:1;fill-rule:nonzero;stroke:none"
         id="path1868" /><path
         d="m 18297.5,30043.5 c -140.8,59.9 -242.2,127.9 -303.4,203.5 -1.7,55.4 -1.5,111 0.6,166.3 8.7,-90.2 81.1,-173.4 215.9,-248.3 16.2,-42.4 45.2,-83 86.9,-121.5"
         style="fill:#231f20;fill-opacity:1;fill-rule:nonzero;stroke:none"
         id="path1870" /><path
         d="m 18082.1,31436.8 c -11.1,1 -22.3,-4.6 -29.1,-14.5 -7.3,-10.7 -8.8,-24.7 -3.9,-36.6 27.5,-67.6 58.7,-132.8 92.8,-193.6 l 13.3,-23.7 -10.7,-25.1 c -105.9,-249.4 -160.7,-577.6 -150.3,-900.4 4.5,-141.5 186.9,-245.4 339.1,-307.6 157,-64.3 348.8,-111.8 512.9,-127.1 17.9,-1.7 35.6,-3 52.7,-3.9 133.6,-6.9 231.6,8.8 299.7,47.9 56.9,32.8 90.3,80.6 99.3,142 14.4,98.6 22.7,200.6 24.7,303.2 l 1.3,66.5 62.7,-14.5 c 161.8,-37.7 336.1,-64.9 532.7,-83.3 163.6,-15.3 357.1,-30.4 552.7,-26.7 l 62.7,1.2 -10.6,-64 c -16.2,-98.4 -26.5,-197.4 -30.5,-294.2 -2.6,-62 21.4,-115.1 71.3,-157.9 59.6,-51.1 153,-84.7 285.6,-102.6 16.9,-2.3 34.5,-4.3 52.5,-6 164.1,-15.3 361.3,-4.2 527.6,29.8 161.1,33 359.5,101.3 390.2,239.5 71.4,321.6 77.3,659.2 16.1,926.4 l -6.1,26.6 17.2,20.9 c 41.1,50.1 80.4,104.1 116.8,160.5 6.9,10.8 8.1,24.9 2.9,36.7 -4.9,11.1 -14.8,18.6 -25.9,19.6 l -3859.7,360.9 m 754,-1736.2 c -173.5,16.3 -376,66.4 -541.8,134.2 -263.2,107.7 -399.3,243.6 -404.5,403.9 -10.5,327.7 43.6,662 148.7,922.4 -31.3,57.9 -60.1,119.1 -85.7,182.2 -18.7,46 -12.9,100 15.1,140.9 28.4,41.6 76,64.6 124.3,60.1 l 3859.6,-360.8 c 48.2,-4.6 90.8,-36 111,-82.1 20,-45.4 15.6,-99.5 -11.2,-141.2 -33.6,-52.2 -69.6,-102.4 -107.2,-149.7 58.4,-278.2 50.7,-622.1 -21.8,-948.8 -34.8,-156.6 -193.7,-264.8 -472.4,-321.9 -175.4,-35.9 -383.8,-47.7 -557.3,-31.4 -19.3,1.8 -38.4,3.9 -56.6,6.4 -152.6,20.7 -263.3,62 -338.4,126.4 -94.8,81.3 -111.4,178.2 -108.6,245.1 3.3,80.6 10.8,162.6 22.2,244.6 -179,-0.1 -353,13.8 -502.2,27.7 -176.5,16.5 -335.7,40 -484.4,71.7 -3.8,-85.1 -11.8,-169.5 -23.8,-251.6 -9.7,-66.3 -43.9,-158.4 -152.1,-220.7 -85.8,-49.4 -202.2,-69.5 -356,-61.5 -18.5,0.9 -37.6,2.3 -56.9,4.1"
         style="fill:#231f20;fill-opacity:1;fill-rule:nonzero;stroke:none"
         id="path1872" /><path
         d="m 21494,29884.7 c -20.9,-5.6 -42.2,6.8 -47.8,27.6 l -50.4,187.8 c -3.7,-2.6 -7.9,-4.6 -12.3,-5.7 -5.2,-1.4 -10.6,-1.7 -16,-0.9 -11.9,1.8 -22.3,9 -28.1,19.5 l -15.4,27.5 c -8.8,15.6 -5.7,35.2 7.3,47.5 l 53.6,50.2 c 4.7,4.4 10.4,7.6 16.6,9.2 l 33,8.9 c 20.8,5.5 42.2,-6.8 47.8,-27.6 l 76.7,-286.2 c 5.5,-20.8 -6.8,-42.2 -27.6,-47.8 l -37.4,-10"
         style="fill:#231f20;fill-opacity:1;fill-rule:nonzero;stroke:none"
         id="path1874" /><path
         d="m 21416.8,30172.5 -0.8,-0.3 -42.6,-40.2 -15.4,27.5 53.6,50.2 33,8.9 76.7,-286.2 -37.4,-10 -67.1,250.1"
         style="fill:#e8f9fd;fill-opacity:1;fill-rule:nonzero;stroke:none"
         id="path1876" /><path
         d="m 21659.1,30208.8 c -4.3,-1.1 -15.2,-26.9 1,-87.3 15.9,-59.2 37.3,-74.6 41.6,-73.5 8.4,2.3 14,31.6 -1,87.3 -14.6,54.5 -33.1,75.8 -41.6,73.5 m 68.6,-266.7 c -63.1,-16.9 -144,13.4 -181.7,149 -37,138 23.8,206.6 87.1,223.6 64,17.1 145.2,-12.5 181.2,-147.1 47,-175.1 -54.4,-216.8 -86.6,-225.5"
         style="fill:#231f20;fill-opacity:1;fill-rule:nonzero;stroke:none"
         id="path1878" /><path
         d="m 21622.4,30111.4 c 20,-74.4 54.2,-110.5 89.4,-101.1 39.6,10.7 46.2,62 26.6,135.1 -18.9,70.4 -49.3,111.8 -89.4,101.1 -33.9,-9.1 -47.5,-57.1 -26.6,-135.1 m 154.3,46.1 c 26.1,-97.3 4.3,-160.7 -59.1,-177.7 -55.9,-15 -107.8,27.3 -134,121.7 -25.8,96 1.5,159.9 59.6,175.5 60.3,16.2 109.1,-28.4 133.5,-119.5"
         style="fill:#e8f9fd;fill-opacity:1;fill-rule:nonzero;stroke:none"
         id="path1880" /><path
         d="m 22811.9,34209.5 c 279.5,-3.1 884.1,73.9 1163.1,122 156.2,27.9 275.9,-53.8 338.4,-172.6 43.4,-82.5 59.3,-182.9 40.8,-276.9 -19.9,-100.9 -88.2,-185.7 -180.4,-231.4 -347.1,-171.9 -897.6,-253.1 -1268.3,-314.6 l -93.6,873.5"
         style="fill:#865439;fill-opacity:1;fill-rule:nonzero;stroke:none"
         id="path1882" /><path
         d="m 22958.4,33405.5 -1.2,10.7 -2.7,59.3 c 297,46.2 707.1,89.5 1003.4,184.6 17.7,-5.9 35.8,-10.6 54.2,-14.3 -308.7,-118.2 -720.9,-185.7 -1033.1,-236.9 -6.9,-1.1 -13.8,-2.3 -20.6,-3.4"
         style="fill:#684431;fill-opacity:1;fill-rule:nonzero;stroke:none"
         id="path1884" /><path
         d="m 22925.1,34108.3 -2,43.3 c 217.4,8.8 528.8,43.7 778.2,77.8 -4.4,-15.1 -8.5,-30.2 -12.2,-45.5 -250.2,-34 -554.1,-67.4 -764,-75.6"
         style="fill:#c3aa9c;fill-opacity:1;fill-rule:nonzero;stroke:none"
         id="path1886" /><path
         d="m 22958.4,33405.5 c 6.8,1.1 13.7,2.3 20.6,3.4 360.5,59.1 854.3,140 1168.2,295.5 76.9,38.1 132.2,108.8 148.1,189.3 15.6,78.9 2.8,165.4 -35,237.2 -27.6,52.4 -109.5,171.1 -274.7,141.5 -246.8,-42.5 -798,-114.7 -1107,-122.3 l 79.8,-744.6 m 1462.6,580.8 c 2.1,-39 -0.5,-78.1 -8,-115.9 -23,-116.7 -102.5,-219 -212.5,-273.5 -330.1,-163.5 -834.1,-246.1 -1202.1,-306.4 -28.5,-4.7 -56.3,-9.2 -83.1,-13.7 -34,-5.6 -65.8,18.5 -69.5,52.8 l -100.8,940.7 67.5,-0.8 c 281.7,-3.1 890.6,76 1152.3,121.1 165.9,29.7 319.9,-48.4 401.7,-203.8 32.3,-61.4 50.9,-130.8 54.5,-200.5"
         style="fill:#231f20;fill-opacity:1;fill-rule:nonzero;stroke:none"
         id="path1888" /><path
         d="m 21211.8,34598.9 c 0,0 437.5,-1072.8 808.2,-1267.7 185.5,-97.6 420.7,-96.8 646.4,-95.9 81.9,0.3 162.7,0.6 239.3,-3.9 l -47.6,1026.2 -1646.3,341.3"
         style="fill:#8fbdd3;fill-opacity:1;fill-rule:nonzero;stroke:none"
         id="path1890" /><path
         d="m 22558.2,34282.9 47.4,-1022.8 c 56.1,-0.1 111.1,-0.9 164.2,-3.8 l -47.7,1007.5 -163.9,19.1"
         style="fill:#f1eee9;fill-opacity:1;fill-rule:nonzero;stroke:none"
         id="path1892" /><path
         d="m 22639.1,33293.3 c 29,-0.2 61.2,-0.7 94,-1.9 l -44.6,942.7 -93.5,10.9 44.1,-951.7 m 167.4,-72.5 -38.7,2.2 c -57.2,3.1 -116.8,3.6 -162.2,3.7 h -33.4 l -50.8,1094.1 234.4,-27.2 50.7,-1072.8"
         style="fill:#231f20;fill-opacity:1;fill-rule:nonzero;stroke:none"
         id="path1894" /><path
         d="m 22569,33295.2 c -130.5,0.7 -260.4,6.1 -376.8,35.4 -85.8,416.7 -237.4,786.9 -450.9,1097.3 l 124.2,-25.8 c 188.9,-172 305.7,-566.9 362,-807.6 27.8,-119.1 127.7,-207.7 249.4,-220.6 l 88.9,-9.4 3.2,-69.3 m 233.8,4.5 -1.9,40 35.8,-3.8 c -5.6,-16.4 -18,-29.6 -33.9,-36.2"
         style="fill:#6e8d9d;fill-opacity:1;fill-rule:nonzero;stroke:none"
         id="path1896" /><path
         d="m 22639,33295.2 -2.8,61.9 94.3,-10 2.4,-51.7 c -2,0 -4,0 -6,0 -20.3,0 -40.5,-0.1 -60.5,-0.1 -9.1,-0.1 -18.2,-0.1 -27.4,-0.1"
         style="fill:#b3afac;fill-opacity:1;fill-rule:nonzero;stroke:none"
         id="path1898" /><path
         d="m 22604.1,33295.1 c -11.7,0 -23.4,0 -35.1,0.1 l -3.2,69.3 70.4,-7.4 2.8,-61.9 c -11.6,-0.1 -23.3,-0.1 -34.9,-0.1 m 175.7,0.1 c -0.2,0 -0.4,0 -0.5,0 -15.5,0.1 -30.9,0.2 -46.4,0.2 l -2.4,51.7 70.4,-7.4 1.9,-40 c -7.1,-2.9 -14.8,-4.5 -23,-4.5"
         style="fill:#231f20;fill-opacity:1;fill-rule:nonzero;stroke:none"
         id="path1900" /><path
         d="m 22726.9,33295.4 c 17.4,0 34.9,0 52.4,-0.2 34.4,-0.3 62.1,28.3 60.5,62.7 l -37.3,804 c -1.3,27.3 -21,50.4 -47.8,55.9 l -1327.3,275.2 c -48.2,9.9 -87.3,-39.1 -66.7,-83.8 146.1,-317.9 437.8,-893.8 687.2,-1024.9 172.4,-90.7 399.1,-89.9 618.5,-89 20,0 40.2,0.1 60.5,0.1 m 238.8,-61.2 c 1.6,-35.6 -27.9,-64.7 -63.4,-62.7 -74.7,4.3 -152.8,4.1 -235.5,3.8 -234,-0.9 -476,-1.8 -674.8,102.8 -385.5,202.8 -817.6,1253.5 -835.8,1298.2 v 0 c -18.1,44.4 20.7,91.1 67.7,81.4 l 1646.3,-341.3 c 26.9,-5.6 46.5,-28.6 47.8,-56 l 47.7,-1026.2"
         style="fill:#231f20;fill-opacity:1;fill-rule:nonzero;stroke:none"
         id="path1902" /><path
         d="m 19999.8,30601.9 c -592.5,0 -1246.3,62.9 -1763.2,179.7 9.3,48.9 20.1,96.7 32.3,143.2 513.1,-100.1 1139.4,-158.2 1730.9,-158.2 442.1,0 892.6,31.3 1306.4,89 -19,-28.1 -37.1,-57 -54.2,-86.6 -16.1,-27.9 -31.2,-56.3 -45.3,-85 -389.8,-53.8 -809.7,-82.1 -1206.9,-82.1"
         style="fill:#5b5c60;fill-opacity:1;fill-rule:nonzero;stroke:none"
         id="path1904" /><path
         d="m 18236.6,30781.6 c -27.1,6.2 -53.9,12.4 -80.2,18.9 -32,49.3 -34.8,101.1 -36,155.2 48.3,-10.7 97.8,-21 148.5,-30.9 -12.2,-46.5 -23,-94.3 -32.3,-143.2"
         style="fill:#474749;fill-opacity:1;fill-rule:nonzero;stroke:none"
         id="path1906" /><path
         d="m 22215.8,32478.7 c 0,847.5 -224.2,1567.3 -648.5,2081.6 -407.4,493.9 -944.9,755 -1554.4,755 -617.7,0 -1179,-268.1 -1580.6,-755 -424.3,-514.3 -648.5,-1234.1 -648.5,-2081.6 0,-428.1 58.7,-798.4 174.7,-1100.6 46.5,-121.4 -4.4,-234.6 62.1,-337.6 567.3,-138.9 1309.7,-213.9 1979.2,-213.9 681.8,0 1425.4,77.7 2000.7,221.6 64.4,101 21.5,211.7 66.8,329.9 102.7,267.6 148.5,607.1 148.5,1100.6"
         style="fill:#8fbdd3;fill-opacity:1;fill-rule:nonzero;stroke:none"
         id="path1908" /><path
         d="m 21936.3,31253.2 c 3.5,18.1 8.5,36.4 15.5,54.9 102.7,267.6 148.5,607.1 148.5,1100.6 0,787.8 -193.8,1465.3 -561.9,1969.9 25.6,8.1 50.7,16.2 75.3,24.5 355.9,-493.2 543.1,-1154.7 543.1,-1924.4 0,-485.7 -44.5,-818.4 -144.4,-1078.8 -15.8,-41.4 -22.5,-81.3 -25.9,-118.8 -17,-9 -33.7,-18.3 -50.2,-27.9"
         style="fill:#c7dee9;fill-opacity:1;fill-rule:nonzero;stroke:none"
         id="path1910" /><path
         d="m 19999.8,30886.6 c -677.4,0 -1400.3,76.9 -1940.6,206.2 -16.7,36.8 -17.6,77.5 -18.6,126.9 -1.1,54.1 -2.3,115.3 -27.2,180.2 -113.3,295.2 -170.7,658.2 -170.7,1078.8 0,118.3 4.4,234.1 13.2,347.1 19.7,2.4 33.5,18.4 40.5,40.7 18,57.7 50.2,157.3 60,179.1 1.3,3 3.5,7.9 6.4,14.3 18,-93 29.7,-235.5 29.7,-431.2 0,-428.1 58.8,-798.4 174.7,-1100.6 5,-13 8.8,-26 11.8,-38.8 44.2,-187.7 190.4,-334 380.1,-369 508.5,-93.8 1103.2,-143.7 1649.4,-143.7 337,0 850.2,32.3 1239.4,55.5 -12.1,-12.8 -23.9,-25.8 -35.5,-39 -442.6,-68.2 -939.1,-106.5 -1412.6,-106.5"
         style="fill:#6e8d9d;fill-opacity:1;fill-rule:nonzero;stroke:none"
         id="path1912" /><path
         d="m 20068.9,33638.7 c -146.7,0 -293.1,34 -423.1,98.3 l -363.3,179.5 c -147.1,72.8 -218.2,223.1 -176.9,374.1 40.6,148.4 177.9,248.1 341.7,248.1 h 1243.3 c 163.8,0 301.1,-99.7 341.7,-248.1 41.3,-151 -29.8,-301.3 -176.9,-374.1 l -363.3,-179.5 c -130.1,-64.3 -276.4,-98.3 -423.2,-98.3"
         style="fill:#f1eee9;fill-opacity:1;fill-rule:nonzero;stroke:none"
         id="path1914" /><path
         d="m 19447.3,34498.7 c -145.5,0 -267.4,-87.9 -303.2,-218.7 -36.1,-131.9 26.7,-263.6 156.2,-327.6 l 363.2,-179.6 c 124.6,-61.5 264.8,-94.1 405.4,-94.1 140.7,0 280.9,32.6 405.5,94.1 l 363.2,179.6 c 129.5,64 192.2,195.7 156.1,327.6 -35.8,130.8 -157.6,218.7 -303.1,218.7 h -1243.3 m 621.6,-900 c -152.8,0 -305.3,35.4 -440.8,102.4 l -363.3,179.6 c -164.8,81.4 -244.3,250.4 -197.8,420.4 45.4,166.1 198.2,277.6 380.3,277.6 h 1243.3 c 182,0 334.9,-111.5 380.3,-277.6 46.5,-170 -33,-339 -197.8,-420.4 l -363.3,-179.6 c -135.5,-67 -288,-102.4 -440.9,-102.4"
         style="fill:#231f20;fill-opacity:1;fill-rule:nonzero;stroke:none"
         id="path1916" /><path
         d="m 20617.8,34428.2 h -1097.7 c -171.7,0 -228,-242.2 -75.7,-325.5 l 320.7,-175.3 c 190.5,-104.2 417.2,-104.2 607.6,0 l 320.8,175.3 c 152.3,83.3 96,325.5 -75.7,325.5"
         style="fill:#865439;fill-opacity:1;fill-rule:nonzero;stroke:none"
         id="path1918" /><path
         d="m 19520.1,34394 c -76.2,0 -116.4,-56.8 -127.7,-105.5 -11.3,-48.6 -0.6,-118.5 67,-155.5 l 320.7,-175.3 c 180.9,-98.9 396.8,-98.9 577.6,0 l 320.7,175.3 c 67.6,37 78.4,106.9 67.1,155.5 -11.3,48.7 -51.5,105.5 -127.7,105.5 h -1097.7 m 548.8,-578.8 c -109.4,0 -218.9,27.2 -318.8,81.8 l -320.7,175.4 c -94.5,51.7 -118.5,154 -100.2,232.4 18.2,78.4 84.3,157.6 190.9,157.6 h 1097.7 c 106.6,0 172.7,-79.2 190.9,-157.6 18.3,-78.4 -5.7,-180.7 -100.2,-232.4 l -320.8,-175.4 c -99.8,-54.6 -209.3,-81.8 -318.8,-81.8"
         style="fill:#231f20;fill-opacity:1;fill-rule:nonzero;stroke:none"
         id="path1920" /><path
         d="m 22000.5,31048.2 h 0.1 -0.1 m -3941.3,44.6 c 540.3,-129.3 1263.2,-206.2 1940.6,-206.2 683,0 1413.9,79.7 1961.8,213.8 17,36.8 19,77.1 21.4,126.2 2.6,52.1 5.6,111.1 29.4,173.3 99.9,260.4 144.4,593.1 144.4,1078.8 0,833.2 -219.4,1539.7 -634.7,2043.1 -395.8,479.8 -917.7,733.5 -1509.2,733.5 -599.9,0 -1145.2,-260.5 -1535.5,-733.5 -415.2,-503.4 -634.7,-1209.9 -634.7,-2043.1 0,-420.6 57.4,-783.6 170.7,-1078.8 24.9,-64.9 26.1,-126.1 27.2,-180.2 1,-49.4 1.9,-90.1 18.6,-126.9 m 1940.6,-326.2 c -696.6,0 -1441.7,80.6 -1993,215.6 -14.6,3.5 -27.3,12.6 -35.5,25.4 -45.7,70.8 -47.2,144.6 -48.6,209.6 -1,48.4 -1.9,94.1 -19.2,139 -118.6,309.2 -178.7,686.9 -178.7,1122.5 0,861.8 229,1594.9 662.3,2120.2 413,500.7 990.4,776.4 1625.8,776.4 627.5,0 1180.6,-268.5 1599.6,-776.4 433.2,-525.3 662.3,-1258.4 662.3,-2120.2 0,-501.3 -47,-847.5 -152.5,-1122.5 -16.9,-44 -19.1,-88.5 -21.5,-135.7 -3.2,-63.6 -6.8,-135.8 -50.9,-204.9 -8.1,-12.8 -20.8,-22 -35.4,-25.7 -567.6,-141.9 -1301.9,-223.3 -2014.7,-223.3"
         style="fill:#231f20;fill-opacity:1;fill-rule:nonzero;stroke:none"
         id="path1922" /><path
         d="m 21568.8,33478.3 c 35.9,-155.6 -61.1,-310.8 -216.7,-346.7 -155.6,-36 -310.8,61 -346.7,216.6 -35.9,155.6 61.1,310.9 216.6,346.8 155.6,35.9 310.9,-61.1 346.8,-216.7"
         style="fill:#fca635;fill-opacity:1;fill-rule:nonzero;stroke:none"
         id="path1924" /><path
         d="m 21286.9,33171.1 c -110.2,0 -209.9,75.7 -235.8,187.7 -30,130.3 51.2,260.3 181.5,290.4 18.3,4.2 36.7,6.3 54.7,6.3 110.2,0 209.9,-75.8 235.7,-187.8 30.1,-130.3 -51.2,-260.3 -181.5,-290.4 -18.3,-4.2 -36.6,-6.2 -54.6,-6.2 m -9.6,441.9 c -0.2,0 -0.5,0 -0.7,0 -5.6,-0.3 -10.4,-3.8 -12.6,-9.2 l -46.4,-113.6 c -0.9,-2.2 -2.8,-3.7 -5,-4.2 l -115.8,-23.9 c -5.5,-1.1 -9.8,-5.3 -11.3,-11 -1.4,-5.7 0.3,-11.6 4.5,-15.4 l 89.1,-81.9 c 1.7,-1.6 2.5,-3.9 2.3,-6.2 l -13.6,-123 c -0.6,-5.8 1.9,-11.4 6.6,-14.6 2.4,-1.6 5.2,-2.5 8,-2.5 0.2,0 0.4,0 0.7,0 2.3,0.2 4.6,0.9 6.7,2.2 l 95.4,59.2 c 0.2,1.1 0.5,2.1 1.1,3 1.3,1.9 3.2,3 5.3,3.1 0.1,0 0.2,0 0.3,0 1.1,0 2.2,-0.2 3.1,-0.7 l 1.1,-0.8 1.5,-0.5 107.5,-52 c 1.9,-1 4.1,-1.5 6.2,-1.5 0.2,0 0.5,0 0.7,0 3.1,0.2 5.9,1.4 8.4,3.4 4.3,3.7 6.2,9.5 5,15.2 l -26.4,120.9 c -0.5,2.3 0.2,4.7 1.7,6.4 l 80,90.7 c 3.8,4.3 4.9,10.4 2.8,15.9 -2,5.4 -6.7,9.2 -12.3,9.7 l -117.7,11.7 c -2.2,0.2 -4.2,1.6 -5.3,3.6 l -58.1,108.2 c -2.6,4.9 -7.5,7.8 -12.8,7.8"
         style="fill:#fcb353;fill-opacity:1;fill-rule:nonzero;stroke:none"
         id="path1926" /><path
         d="m 21272.6,33691.2 c -16.1,-0.8 -32.3,-3.1 -48.1,-6.8 -72.3,-16.7 -133.9,-60.6 -173.3,-123.7 -39.4,-63.1 -52,-137.7 -35.3,-210 30.5,-131.9 150.6,-222.4 285.6,-215.4 v 0 c 16.1,0.9 32.3,3.2 48.2,6.8 72.3,16.7 133.8,60.7 173.3,123.8 39.4,63.1 51.9,137.7 35.2,210 -30.4,131.8 -150.5,222.4 -285.6,215.3 m 30,-577.5 c -145.5,-7.6 -275,90 -307.8,232.1 -18,77.9 -4.5,158.3 38,226.3 42.5,68.1 108.9,115.5 186.8,133.4 17.1,4 34.5,6.4 51.9,7.4 145.6,7.6 275,-90 307.8,-232.2 37.2,-161.1 -63.6,-322.5 -224.7,-359.7 -17.1,-4 -34.6,-6.4 -52,-7.3"
         style="fill:#231f20;fill-opacity:1;fill-rule:nonzero;stroke:none"
         id="path1928" /><path
         d="m 21297.6,33280.9 110.3,-53.5 c 5.9,-2.8 12.3,2.6 10.9,9.2 l -27.1,124 c -0.5,2.6 0.1,5.3 1.9,7.3 l 82.1,93.1 c 4.3,4.9 1.3,13 -5.1,13.6 l -120.8,12 c -2.5,0.3 -4.8,1.8 -6.1,4.1 l -59.5,111 c -3.2,5.9 -11.4,5.5 -14,-0.7 l -47.6,-116.6 c -1,-2.5 -3.1,-4.3 -5.6,-4.8 l -118.9,-24.5 c -6.3,-1.3 -8.4,-9.6 -3.6,-14.1 l 91.4,-84 c 1.9,-1.8 2.9,-4.4 2.6,-7.1 l -13.9,-126.1 c -0.8,-6.7 6.2,-11.4 11.7,-8 l 104.1,64.7 c 2.2,1.3 4.9,1.5 7.2,0.4"
         style="fill:#f7860b;fill-opacity:1;fill-rule:nonzero;stroke:none"
         id="path1930" /><path
         d="m 21293.6,33288.7 c 2.3,0.2 4.7,-0.3 6.9,-1.4 l 99.5,-48.2 c 1,-0.5 2.1,-0.7 3.2,-0.6 1.4,0.1 2.8,0.6 3.9,1.6 2,1.7 2.9,4.4 2.4,7.1 l -24.4,111.8 c -1.1,4.9 0.2,10.1 3.5,13.7 l 74,84.1 c 1.8,1.9 2.3,4.8 1.4,7.3 -1,2.6 -3.2,4.3 -5.8,4.6 l -109,10.8 c -4.8,0.5 -9,3.4 -11.4,7.8 l -53.7,100.1 c -1.3,2.4 -3.7,3.8 -6.4,3.6 -2.5,-0.1 -4.8,-1.8 -5.8,-4.3 l -43,-105.1 c -1.9,-4.7 -5.8,-8 -10.6,-9 l -107.2,-22.1 c -2.6,-0.5 -4.6,-2.5 -5.3,-5.1 -0.6,-2.6 0.2,-5.5 2.1,-7.3 l 82.5,-75.7 c 3.6,-3.4 5.4,-8.3 4.9,-13.3 l -12.6,-113.8 c -0.3,-2.7 0.9,-5.4 3.1,-6.8 1.2,-0.9 2.7,-1.3 4.1,-1.2 1,0.1 2.1,0.4 3.1,1 l 93.9,58.3 c 2,1.3 4.3,2 6.7,2.1 m -110.5,-81.2 c -3.1,-0.1 -6.1,0.7 -8.7,2.5 -4.7,3.2 -7.2,8.8 -6.6,14.6 l 13.6,123 c 0.2,2.3 -0.6,4.6 -2.3,6.2 l -89.1,81.9 c -4.2,3.8 -5.9,9.7 -4.5,15.4 1.5,5.7 5.8,9.9 11.3,11 l 115.8,23.9 c 2.2,0.5 4.1,2 5,4.2 l 46.4,113.6 c 2.2,5.4 7,8.9 12.6,9.2 5.6,0.3 10.8,-2.7 13.5,-7.8 l 58.1,-108.2 c 1.1,-2 3.1,-3.4 5.3,-3.6 l 117.7,-11.7 c 5.6,-0.5 10.3,-4.3 12.3,-9.7 2.1,-5.5 1,-11.6 -2.8,-15.9 l -80,-90.7 c -1.5,-1.7 -2.2,-4.1 -1.7,-6.4 l 26.4,-120.9 c 1.2,-5.7 -0.7,-11.5 -5,-15.2 -2.5,-2 -5.3,-3.2 -8.4,-3.4 -2.3,-0.1 -4.7,0.4 -6.9,1.5 l -107.5,52 -1.5,0.5 -1.1,0.8 c -1.1,0.5 -2.3,0.8 -3.4,0.7 -2.1,-0.1 -4,-1.2 -5.3,-3.1 -0.6,-0.9 -0.9,-1.9 -1.1,-3 l -95.4,-59.2 c -2.1,-1.3 -4.4,-2 -6.7,-2.2"
         style="fill:#231f20;fill-opacity:1;fill-rule:nonzero;stroke:none"
         id="path1932" /><path
         d="m 21232.1,33303.5 c -5.1,0 -9.6,4.6 -9,10.5 l 6.8,61 c 0.3,3.1 -0.8,6.1 -3,8.2 l -44.2,40.6 c -5.6,5.1 -3.2,14.7 4.1,16.2 l 57.5,11.9 c 2.9,0.5 5.3,2.6 6.4,5.4 l 23.1,56.4 c 1.5,3.7 4.8,5.6 8.2,5.6 3,0 6.1,-1.5 7.8,-4.8 l 28.8,-53.6 c 1.4,-2.7 4.1,-4.5 7,-4.8 l 58.4,-5.8 c 7.4,-0.7 10.8,-10 5.8,-15.7 l -39.7,-45 c -2,-2.2 -2.8,-5.4 -2.1,-8.4 l 13,-59.9 c 1.4,-6.2 -3.2,-11.5 -8.6,-11.5 -1.3,0 -2.5,0.3 -3.8,0.9 l -53.3,25.8 c -1.2,0.6 -2.5,0.9 -3.8,0.9 -1.6,0 -3.2,-0.4 -4.5,-1.3 l -50.4,-31.2 c -1.5,-1 -3,-1.4 -4.5,-1.4"
         style="fill:#fbbd79;fill-opacity:1;fill-rule:nonzero;stroke:none"
         id="path1934" /><path
         d="m 21452.6,29263.1 c -1.5,0.1 -3.1,0.2 -4.7,0.3 -25.6,1.8 -66.7,3.5 -104,3.8 -56.4,73.3 -109.6,154.3 -152.7,238.6 67.6,4.5 135,12.2 199.3,22.9 39,-85.7 86.4,-165.8 140.8,-239.7 -4.3,-7.8 -8.7,-15.7 -13.1,-23.4 -3.5,0.1 -7.1,0.1 -10.6,0.1 -18.2,0 -36.6,-0.8 -55,-2.6"
         style="fill:#634230;fill-opacity:1;fill-rule:nonzero;stroke:none"
         id="path1936" /><path
         d="m 21550.1,29264.2 c -10.6,0.7 -21.2,1.2 -31.9,1.4 4.4,7.7 8.8,15.6 13.1,23.4 6.2,-8.3 12.4,-16.6 18.8,-24.8"
         style="fill:#231f20;fill-opacity:1;fill-rule:nonzero;stroke:none"
         id="path1938" /><path
         d="m 21720.9,29081.4 c -143.3,5.9 -256.7,41.4 -321.4,117.3 -4.3,5 -8.5,10.1 -12.8,15.2 52.8,-3.6 104.4,-11.7 152.9,-30.7 46.6,-19 94,-39.8 139.9,-63.4 13.6,-13.1 27.4,-25.9 41.4,-38.4"
         style="fill:#8d6545;fill-opacity:1;fill-rule:nonzero;stroke:none"
         id="path1940" /><path
         d="m 21354.2,29254 c -3.4,4.4 -6.8,8.8 -10.3,13.2 37.3,-0.3 78.4,-2 104,-3.8 1.6,-0.1 3.2,-0.2 4.7,-0.3 -2.3,-0.2 -4.5,-0.4 -6.8,-0.7 -29.4,-1.2 -60.2,-4.4 -91.6,-8.4"
         style="fill:#231f20;fill-opacity:1;fill-rule:nonzero;stroke:none"
         id="path1942" /><path
         d="m 21679.5,29119.8 c -45.9,23.6 -93.3,44.4 -139.9,63.4 -48.5,19 -100.1,27.1 -152.9,30.7 -10.9,13 -21.7,26.4 -32.5,40.1 31.4,4 62.2,7.2 91.6,8.4 2.3,0.3 4.5,0.5 6.8,0.7 18.4,1.8 36.8,2.6 55,2.6 3.5,0 7.1,0 10.6,-0.1 10.7,-0.2 21.3,-0.7 31.9,-1.4 39.8,-51.4 83.1,-99.7 129.4,-144.4"
         style="fill:#231f20;fill-opacity:1;fill-rule:nonzero;stroke:none"
         id="path1944" /><path
         d="m 21095.7,29774.6 c -34.8,160.8 -41,324.3 -18.3,486.9 20.5,147.5 63.9,289.2 129.3,422.5 73.6,10.2 146.2,21.3 217.4,33.3 -145.6,-276.4 -196.1,-603.6 -121.3,-929.4 -68.3,-8 -138.5,-12.4 -207.1,-13.3"
         style="fill:#57585b;fill-opacity:1;fill-rule:nonzero;stroke:none"
         id="path1946" /><path
         d="m 21143.7,29611.2 c -11.9,30.4 -22.2,61.1 -30.6,91.8 69.1,1.4 139.5,6.4 207.8,14.7 8.4,-29.3 17.7,-58.2 27.9,-86.5 -66.5,-10.2 -136.1,-16.9 -205.1,-20"
         style="fill:#698695;fill-opacity:1;fill-rule:nonzero;stroke:none"
         id="path1948" /><path
         d="m 21113.1,29703 c -0.3,1.2 -0.6,2.4 -1,3.7 -6,22.6 -11.5,45.2 -16.4,67.9 68.6,0.9 138.8,5.3 207.1,13.3 3.7,-15.9 7.7,-31.9 11.9,-47.9 2,-7.4 4.1,-14.9 6.2,-22.3 -68.3,-8.3 -138.7,-13.3 -207.8,-14.7"
         style="fill:#231f20;fill-opacity:1;fill-rule:nonzero;stroke:none"
         id="path1950" /><path
         d="m 21191.2,29505.8 c -17.7,34.6 -33.7,69.9 -47.5,105.4 69,3.1 138.6,9.8 205.1,20 12.6,-35 26.5,-69.1 41.7,-102.5 -64.3,-10.7 -131.7,-18.4 -199.3,-22.9"
         style="fill:#231f20;fill-opacity:1;fill-rule:nonzero;stroke:none"
         id="path1952" /><path
         d="m 21206.7,30684 c 14.1,28.7 29.2,57.1 45.3,85 17.1,29.6 35.2,58.5 54.2,86.6 76.9,10.7 152.5,22.3 226.6,34.8 -40.6,-54.9 -76.9,-112.8 -108.7,-173.1 -71.2,-12 -143.8,-23.1 -217.4,-33.3"
         style="fill:#47474a;fill-opacity:1;fill-rule:nonzero;stroke:none"
         id="path1954" /><path
         d="m 21447.9,31032.1 c 48.2,50.9 100.4,98.3 156.3,141.9 29.1,22.7 118.8,32.5 244.9,32.5 4.2,0 8.5,0 12.8,-0.1 -70.9,-47.9 -136.5,-102.2 -196.3,-161.7 -65.9,-3.6 -139.3,-7.9 -217.7,-12.6"
         style="fill:#698695;fill-opacity:1;fill-rule:nonzero;stroke:none"
         id="path1956" /><path
         d="m 21412.4,30993.1 c 11.6,13.2 23.4,26.2 35.5,39 78.4,4.7 151.8,9 217.7,12.6 -3.3,-3.4 -6.6,-6.7 -9.9,-10.1 -78.9,-14.8 -160.2,-28.7 -243.3,-41.5"
         style="fill:#546771;fill-opacity:1;fill-rule:nonzero;stroke:none"
         id="path1958" /><path
         d="m 21306.2,30855.6 c 32.6,48.1 68,94 106.2,137.5 83.1,12.8 164.4,26.7 243.3,41.5 -44.4,-45.2 -85.5,-93.5 -122.9,-144.2 -74.1,-12.5 -149.7,-24.1 -226.6,-34.8"
         style="fill:#231f20;fill-opacity:1;fill-rule:nonzero;stroke:none"
         id="path1960" /><path
         d="m 21314.7,29740 c 192.8,-719.3 932.1,-1146.1 1651.4,-953.4 719.3,192.8 1146.1,932.1 953.4,1651.4 -192.7,719.3 -932.1,1146.1 -1651.3,953.4 -719.3,-192.7 -1146.2,-932.1 -953.5,-1651.4"
         style="fill:#231f20;fill-opacity:1;fill-rule:nonzero;stroke:none"
         id="path1962" /><path
         d="m 23034.1,30943 -572.7,154.8 -381.1,-410.4 362.7,-482.3 578.3,154.9 12.8,583"
         style="fill:#231f20;fill-opacity:1;fill-rule:nonzero;stroke:none"
         id="path1964" /><path
         d="m 23006.7,30371.5 -557.9,-149.5 -349.2,464.4 366.5,394.7 552.9,-149.4 z m -569.5,-183.3 598.6,160.4 13.3,605.7 -592.5,160.1 -395.6,-425.9 376.2,-500.3"
         style="fill:#231f20;fill-opacity:1;fill-rule:nonzero;stroke:none"
         id="path1966" /><path
         d="m 23782.3,30109.9 -402.3,-126.2 -132.2,-584.6 269.9,-197.2 326.5,433 -61.9,475"
         style="fill:#231f20;fill-opacity:1;fill-rule:nonzero;stroke:none"
         id="path1968" /><path
         d="m 23828.7,29639 -314.1,-416.6 -250.3,182.9 128.3,566.8 377.3,118.4 58.8,-451.5 m -308,-457.7 339,449.5 -65,498.6 -427.3,-134.1 -136.3,-602.5 289.6,-211.5"
         style="fill:#231f20;fill-opacity:1;fill-rule:nonzero;stroke:none"
         id="path1970" /><path
         d="m 21779.4,29541.4 477.9,134.4 412.4,-421 -220.3,-371.1 -600.6,220.1 -69.4,437.6"
         style="fill:#231f20;fill-opacity:1;fill-rule:nonzero;stroke:none"
         id="path1972" /><path
         d="m 22651.1,29252.6 -208.2,-350.7 -580.9,212.8 -65.9,416 456.8,128.5 398.2,-406.6 m -195.3,-387 232.5,391.4 -426.5,435.5 -499.1,-140.4 72.8,-459.2 620.3,-227.3"
         style="fill:#231f20;fill-opacity:1;fill-rule:nonzero;stroke:none"
         id="path1974" /><path
         d="m 22431.5,30194.2 588,157.6 353.6,-361.9 -134.4,-588.3 -565.7,-148.1 -406.8,415 165.3,525.7"
         style="fill:#ffffff;fill-opacity:1;fill-rule:nonzero;stroke:none"
         id="path1976" /><path
         d="m 23356.8,29985.3 -130.6,-571.7 -548.7,-143.5 -394.5,402.4 160.2,509.5 571.7,153.2 z m -105.7,-595.8 138.2,604.9 -365.3,373.9 -604.2,-161.9 -170.4,-541.9 419,-427.5 582.7,152.5"
         style="fill:#231f20;fill-opacity:1;fill-rule:nonzero;stroke:none"
         id="path1978" /><path
         d="m 23023.3,30355.4 355.5,-368.5 185,54.5 218.6,64.3 0.2,1.9 63.2,442.6 8.5,59.8 -63.5,64.5 v 0 l -303.9,389.3 -452.9,-124.9 -2.2,-0.6 -4.2,-289 -4.3,-293.9"
         style="fill:#ffffff;fill-opacity:1;fill-rule:nonzero;stroke:none"
         id="path1980" /><path
         d="m 21611.5,30568.2 469.9,122.4 354,-482.2 -173.4,-535 -484.7,-133.4 -359.9,438.1 194.1,590.1"
         style="fill:#ffffff;fill-opacity:1;fill-rule:nonzero;stroke:none"
         id="path1982" /><path
         d="m 22250.3,29685.5 -467.6,-128.7 -348.7,424.4 189.1,574.7 452.3,117.8 343.6,-468 -168.7,-520.2 m -478.3,-162.4 501.6,138.1 178.3,549.8 -364.5,496.4 -487.4,-126.9 -199.2,-605.5 371.2,-451.9"
         style="fill:#231f20;fill-opacity:1;fill-rule:nonzero;stroke:none"
         id="path1984" /><path
         d="m 21605.8,30563.1 4.5,1.2 236.2,65.1 0.8,0.2 240.8,66.3 2.4,0.6 103.1,112.9 0.2,0.3 0.9,1 0.3,0.3 263.6,288.6 -1.1,3.1 -3.4,9.4 v 0.2 l -95.4,264.6 c -31.2,-5.9 -62.3,-13 -93.1,-21.3 -228.4,-61.2 -436,-183.5 -600.2,-353.7 -47.8,-49.6 -91.2,-102.1 -130,-157.4 l 70.4,-281.4"
         style="fill:#ffffff;fill-opacity:1;fill-rule:nonzero;stroke:none"
         id="path1986" /><path
         d="m 21842.7,30643.7 -226.2,-62.3 -65.1,260.1 c 37.4,52.6 79.3,103.1 124.6,150.1 162.4,168.2 367.6,289.2 593.4,349.7 26.3,7 53.1,13.3 79.7,18.6 l 92.6,-256.9 -359.2,-393.3 z m -247.5,-98.9 503.3,138.5 377.1,412.9 -7.6,21.1 -99.7,276.5 -12.4,-2.3 c -31.4,-6 -63.1,-13.3 -94.2,-21.6 -231,-61.9 -440.9,-185.6 -607,-357.8 -48,-49.7 -92.2,-103.2 -131.4,-159 l -3.9,-5.6 75.8,-302.7"
         style="fill:#231f20;fill-opacity:1;fill-rule:nonzero;stroke:none"
         id="path1988" /><path
         d="m 22364.9,31378.1 89.2,-265.8 v -0.2 l 3.1,-9.3 0.3,-0.1 320.1,-90.4 0.6,-0.1 251.6,-71.1 4.3,1.2 453.5,124.4 c -305,270.5 -723.2,385.5 -1122.7,311.4"
         style="fill:#ffffff;fill-opacity:1;fill-rule:nonzero;stroke:none"
         id="path1990" /><path
         d="m 23457,31073.7 -427.2,-117.2 -561,158.4 -0.7,2.1 -83.7,249.5 c 380.9,65.5 778.6,-43.2 1072.6,-292.8 z m -427.2,-148 8.2,2.3 479.9,131.7 -20.4,18.1 c -306.9,272.1 -731.3,389.8 -1135.3,314.8 l -16.7,-3.1 100.2,-299 7.7,-2 576.4,-162.8"
         style="fill:#231f20;fill-opacity:1;fill-rule:nonzero;stroke:none"
         id="path1992" /><path
         d="m 21706.2,29145.9 c 28.4,-27.3 57.9,-53.1 88.4,-77.5 1.5,-1.2 3,-2.4 4.4,-3.5 l 52.8,29.5 -1,5.8 -0.5,3 -30.6,183.9 v 0.2 l -0.1,0.7 -0.1,0.6 -41.3,248.5 -222.2,272.3 -0.2,0.2 -1.7,2.1 -136.4,167.2 -1.8,2.3 -108.3,-24.4 c 32.5,-308.3 171.7,-592.9 398.6,-810.9"
         style="fill:#ffffff;fill-opacity:1;fill-rule:nonzero;stroke:none"
         id="path1994" /><path
         d="m 21835.4,29102.2 -34.9,-19.5 c -29,23.3 -57.2,48.1 -84,73.9 -219,210.4 -358.1,490 -392.8,788.7 l 86.5,19.4 354,-433.9 71.2,-428.6 m -37.7,-55.1 70.4,39.5 -3.2,19.2 -72.8,437.6 -370.5,454.2 -130.2,-29.2 1.4,-13.1 c 32.8,-310.6 175.9,-601.8 403.1,-820 28.5,-27.5 58.6,-53.8 89.4,-78.5 1.5,-1.2 3.1,-2.4 4.6,-3.6 l 7.8,-6.1"
         style="fill:#231f20;fill-opacity:1;fill-rule:nonzero;stroke:none"
         id="path1996" /><path
         d="m 21794.6,29068.4 c 1.5,-1.2 3,-2.4 4.4,-3.5 242.1,-192.1 545.3,-292.9 851.3,-287.4 l -199.6,108.4 -0.4,0.2 -465.8,168 -2.4,0.8 -1.6,0.6 -127.4,46 -2.3,-1.3 -56.2,-31.8"
         style="fill:#ffffff;fill-opacity:1;fill-rule:nonzero;stroke:none"
         id="path1998" /><path
         d="m 22444.2,28872.6 147.3,-80 c -279.1,7.4 -550.1,103.5 -770.4,273.8 l 33.4,18.8 589.7,-212.6 m 262.6,-108.9 -251.5,136.4 -603.6,217.6 -83.5,-47.2 17.1,-13.7 c 1.5,-1.2 3.1,-2.4 4.6,-3.6 243.1,-192.9 548.8,-296.1 860.7,-290.5 l 56.2,1"
         style="fill:#231f20;fill-opacity:1;fill-rule:nonzero;stroke:none"
         id="path2000" /><path
         d="m 22453.3,28889.2 201.1,-111.6 c 104.5,2.2 209.3,16.7 312,44.2 151.2,40.5 293.2,107.8 419.6,198 l 125,181.4 -268.2,201.2 -570.4,-155.8 -219.1,-357.4"
         style="fill:#ffffff;fill-opacity:1;fill-rule:nonzero;stroke:none"
         id="path2002" /><path
         d="m 23375.3,29030.4 c -125.4,-89.1 -264.2,-154.5 -412.7,-194.3 -99,-26.5 -201.4,-41.2 -304.5,-43.6 l -184.1,102.1 207.9,339.3 557.8,152.3 251,-188.3 -115.4,-167.5 m -405,-222.9 c 152.8,41 295.5,108.3 424.3,200.3 l 2.1,1.5 134.5,195.2 -285.3,214.1 -583.1,-159.2 -230.2,-375.6 218.1,-121.1 4,0.1 c 106.9,2.2 213,17.2 315.6,44.7"
         style="fill:#231f20;fill-opacity:1;fill-rule:nonzero;stroke:none"
         id="path2004" /><path
         d="m 23390,29022.7 c 63.1,45.4 122.2,96.5 176.7,152.9 132.6,137.5 231.4,298.7 292.6,473.9 l -8.1,-2 -7.4,-9.8 -327.2,-435 -20.9,-27.7 -105.7,-152.3"
         style="fill:#ffffff;fill-opacity:1;fill-rule:nonzero;stroke:none"
         id="path2006" /><path
         d="m 23813.8,29573.2 c -61.1,-143.1 -147.6,-273.1 -257.8,-387.3 -31.1,-32.3 -64.1,-63 -98.5,-91.9 l 50.4,72.5 305.9,406.7 m -485.1,-612.9 70,50.3 c 63.8,46 123.9,98 178.6,154.7 133.7,138.6 233.3,299.8 296,479.3 l 9,25.8 -39.8,-9.8 -358.6,-476.7 -155.2,-223.6"
         style="fill:#231f20;fill-opacity:1;fill-rule:nonzero;stroke:none"
         id="path2008" /><path
         d="m 23844,29647.2 15.9,4 c 50.5,145.2 75.1,299.8 71.6,458.3 -3.3,152.4 -32.4,300.4 -85.1,439.1 l -63.6,-442.1 61.2,-459.3"
         style="fill:#ffffff;fill-opacity:1;fill-rule:nonzero;stroke:none"
         id="path2010" /><path
         d="m 23852.5,30486.9 c 39.8,-121.4 61.4,-248.2 64.2,-377.7 3.2,-146.7 -17.7,-290.5 -62.3,-427.9 l -56.6,425.1 54.7,380.5 m 18.8,-848.2 2.6,7.6 c 51.5,148.3 75.9,304.2 72.4,463.6 -3.3,153 -32.3,302.4 -86.1,444 l -20.3,53.5 -72,-500.9 0.2,-2 63.4,-475.7 39.8,9.9"
         style="fill:#231f20;fill-opacity:1;fill-rule:nonzero;stroke:none"
         id="path2012" /><path
         d="m 22620.9,28753.4 c -578.1,0 -1108,378.7 -1278.1,956.3 65.9,-216.5 187.1,-415 353.1,-574.4 23.3,-22.4 47.6,-44.1 72.5,-64.7 l -0.2,-0.1 17.1,-13.7 c 1.5,-1.2 3.1,-2.4 4.6,-3.6 236.8,-187.9 533.1,-290.7 836.6,-290.7 8.1,0 16,0.1 24.1,0.2 h 0.1 v 0 h 1.5 l 54.6,1 -1.9,1.1 c 89.8,5.2 178.9,19.5 265.4,42.7 128.7,34.5 250.3,87.8 362.5,158.7 l -4.1,-5.9 70,50.3 c 63.8,46 123.9,98 178.6,154.7 132.3,137.1 231.1,296.3 293.9,473.4 h 0.1 l 2.6,7.6 c 0.1,0.3 0.2,0.6 0.3,0.9 l 8.1,23.2 -0.3,-0.1 c 7.3,22.3 13.9,44.8 20,67.5 4.8,9.2 9.4,18.4 14,27.7 -113.6,-455 -464.1,-836.3 -949.2,-966.3 -115.5,-31 -231.7,-45.8 -345.9,-45.8 m -1327.6,1215.4 c -22.4,247.7 25.8,490.6 130.7,704.7 -50.5,-202.1 -54.2,-418.7 -2.1,-634.4 l -14.7,-44.7 -113.9,-25.6"
         style="fill:#231f20;fill-opacity:1;fill-rule:nonzero;stroke:none"
         id="path2014" /><path
         d="m 23513.5,29223.3 -39.8,29.1 c 55.7,38.3 108,80.5 156.7,126.2 l -116.9,-155.3"
         style="fill:#231f20;fill-opacity:1;fill-rule:nonzero;stroke:none"
         id="path2016" /><path
         d="m 23510.9,29219.8 -40.5,30.3 c 1.1,0.8 2.2,1.5 3.3,2.3 l 39.8,-29.1 -2.6,-3.5"
         style="fill:#231f20;fill-opacity:1;fill-rule:nonzero;stroke:none"
         id="path2018" /><path
         d="m 22444.2,28904.1 -458.2,165.2 -122.5,44.9 -29.6,177.9 -11.3,71.5 c 193.8,-175.4 436.9,-291.7 697.9,-331 l -76.3,-128.5"
         style="fill:#231f20;fill-opacity:1;fill-rule:nonzero;stroke:none"
         id="path2020" /><path
         d="m 22444.9,28903.8 -0.7,0.3 76.3,128.5 c 1,-0.1 2,-0.3 3,-0.4 l -78.6,-128.4 m -458.9,165.5 -122.4,44.1 -0.1,0.8 122.5,-44.9 m -152.1,222.8 -12,72.1 c 0.2,-0.2 0.5,-0.4 0.7,-0.6 l 11.3,-71.5"
         style="fill:#231f20;fill-opacity:1;fill-rule:nonzero;stroke:none"
         id="path2022" /><path
         d="m 21438.5,29976.8 -4.2,5.2 1.5,4.4 c 0.9,-3.2 1.8,-6.3 2.7,-9.6"
         style="fill:#b2b1b1;fill-opacity:1;fill-rule:nonzero;stroke:none"
         id="path2024" /><path
         d="m 21434.3,29982 -12.7,15.6 -14.4,-3.2 14.7,44.7 c 2.6,-10.8 5.4,-21.7 8.3,-32.5 1.8,-6.8 3.7,-13.5 5.6,-20.2 l -1.5,-4.4"
         style="fill:#231f20;fill-opacity:1;fill-rule:nonzero;stroke:none"
         id="path2026" /><path
         d="m 21796,29086.3 c -27.4,22.2 -54.1,45.9 -79.5,70.3 -219,210.4 -358.1,490 -392.8,788.7 l 86.5,19.4 53.7,-65.9 c 70,-194.6 181.9,-364.1 322.4,-501.2 l 48.2,-289.6 -38.5,-21.7"
         style="fill:#b2b1b1;fill-opacity:1;fill-rule:nonzero;stroke:none"
         id="path2028" /><path
         d="m 21768.4,29070.6 c -24.9,20.6 -49.2,42.3 -72.5,64.7 -166,159.4 -287.2,357.9 -353.1,574.4 -3.2,10.8 -6.3,21.6 -9.2,32.4 -20.2,75.6 -33.5,151.4 -40.3,226.7 l 113.9,25.6 14.4,3.2 12.7,-15.6 4.2,-5.2 c 7.7,-26.4 16.2,-52.4 25.4,-78 l -53.7,65.9 -86.5,-19.4 c 34.7,-298.7 173.8,-578.3 392.8,-788.7 25.4,-24.4 52.1,-48.1 79.5,-70.3 l -27.6,-15.7 m 66.1,37.4 -48.2,289.6 c 11.7,-11.4 23.6,-22.5 35.6,-33.4 l 12,-72.1 29.6,-177.9 0.1,-0.8 -11.9,4.3 -17.2,-9.7"
         style="fill:#231f20;fill-opacity:1;fill-rule:nonzero;stroke:none"
         id="path2030" /><path
         d="m 22591.5,28792.6 c -279.1,7.4 -550.1,103.5 -770.4,273.8 l 33.4,18.8 589.7,-212.6 147.3,-80"
         style="fill:#b2b1b1;fill-opacity:1;fill-rule:nonzero;stroke:none"
         id="path2032" /><path
         d="m 22626.5,28762.5 c -303.5,0 -599.8,102.8 -836.6,290.7 -1.5,1.2 -3.1,2.4 -4.6,3.6 l -17.1,13.7 0.2,0.1 27.6,15.7 38.5,21.7 17.2,9.7 11.9,-4.3 122.4,-44.1 458.2,-165.2 0.7,-0.3 -12.3,-20 218.1,-121.1 h -0.1 c -8.1,-0.1 -16,-0.2 -24.1,-0.2 m -772,322.7 -33.4,-18.8 c 220.3,-170.3 491.3,-266.4 770.4,-273.8 l -147.3,80 -589.7,212.6 m 797.7,-322.5 2.5,0.1 c 16.8,0.3 33.5,1 50.2,2 l 1.9,-1.1 -54.6,-1"
         style="fill:#231f20;fill-opacity:1;fill-rule:nonzero;stroke:none"
         id="path2034" /><path
         d="m 22658.1,28792.5 -184.1,102.1 81.6,133.2 c 53.4,-6.6 107.4,-9.9 161.8,-9.9 114.3,0 230.4,14.8 346,45.7 138.7,37.2 266.5,95 380.8,169.1 l 46.5,-34.8 -115.4,-167.5 c -125.4,-89.1 -264.2,-154.5 -412.7,-194.3 -99,-26.5 -201.4,-41.2 -304.5,-43.6"
         style="fill:#b2b1b1;fill-opacity:1;fill-rule:nonzero;stroke:none"
         id="path2036" /><path
         d="m 22650.7,28762.7 v 0 l -218.1,121.1 12.3,20 78.6,128.4 c 10.7,-1.6 21.4,-3.1 32.1,-4.4 l -81.6,-133.2 184.1,-102.1 c 103.1,2.4 205.5,17.1 304.5,43.6 148.5,39.8 287.3,105.2 412.7,194.3 l 115.4,167.5 -46.5,34.8 c 8.8,5.7 17.5,11.5 26.2,17.4 l 40.5,-30.3 -27,-35.9 -151.1,-217.7 c -112.2,-70.9 -233.8,-124.2 -362.5,-158.7 -86.5,-23.2 -175.6,-37.5 -265.4,-42.7 -16.7,-1 -33.4,-1.7 -50.2,-2 l -2.5,-0.1 h -1.5"
         style="fill:#231f20;fill-opacity:1;fill-rule:nonzero;stroke:none"
         id="path2038" /><path
         d="m 23457.5,29094 50.4,72.5 305.9,406.7 c -61.1,-143.1 -147.6,-273.1 -257.8,-387.3 -31.1,-32.3 -64.1,-63 -98.5,-91.9"
         style="fill:#b2b1b1;fill-opacity:1;fill-rule:nonzero;stroke:none"
         id="path2040" /><path
         d="m 23328.7,28960.3 4.1,5.9 151.1,217.7 27,35.9 2.6,3.5 116.9,155.3 c 80.3,75.5 150.7,160.4 209.8,252.4 l 31,7.7 c -62.8,-177.1 -161.6,-336.3 -293.9,-473.4 -54.7,-56.7 -114.8,-108.7 -178.6,-154.7 l -70,-50.3 m 485.1,612.9 -305.9,-406.7 -50.4,-72.5 c 34.4,28.9 67.4,59.6 98.5,91.9 110.2,114.2 196.7,244.2 257.8,387.3 m 60.4,74 c 2.7,7.7 5.2,15.4 7.8,23.1 l 0.3,0.1 -8.1,-23.2"
         style="fill:#231f20;fill-opacity:1;fill-rule:nonzero;stroke:none"
         id="path2042" /><path
         d="m 23840.2,29631 c 22.2,34.6 42.8,70.3 61.8,106.8 -6.1,-22.7 -12.7,-45.2 -20,-67.5 -2.6,-7.7 -5.1,-15.4 -7.8,-23.1 -0.1,-0.3 -0.2,-0.6 -0.3,-0.9 l -2.6,-7.6 h -0.1 l -31,-7.7"
         style="fill:#231f20;fill-opacity:1;fill-rule:nonzero;stroke:none"
         id="path2044" /><path
         d="m 21389.6,29760.1 c 181.4,-676.9 879.6,-1080 1556.5,-898.6 676.8,181.3 1079.9,879.5 898.6,1556.4 -181.4,676.9 -879.6,1080 -1556.5,898.6 -676.9,-181.3 -1080,-879.5 -898.6,-1556.4 z m -159.5,521.4 c 24.9,179.3 83.7,350.1 174.6,507.5 90.9,157.5 209.4,293.7 352.2,405 147.8,115.2 315.4,198.4 497.9,247.3 182.5,48.9 369.2,60.6 554.9,34.8 179.3,-25 350,-83.8 507.4,-174.7 157.5,-90.9 293.7,-209.3 405,-352.1 115.2,-147.9 198.4,-315.4 247.3,-497.9 48.9,-182.6 60.6,-369.3 34.8,-554.9 -25,-179.3 -83.7,-350 -174.6,-507.5 -90.9,-157.4 -209.4,-293.7 -352.2,-404.9 -147.9,-115.3 -315.4,-198.5 -497.9,-247.4 -182.5,-48.9 -369.2,-60.6 -554.9,-34.7 -179.3,24.9 -350,83.7 -507.5,174.6 -157.4,90.9 -293.7,209.4 -404.9,352.1 -115.2,147.9 -198.4,315.4 -247.4,498 -48.9,182.5 -60.6,369.2 -34.7,554.8"
         style="fill:#231f20;fill-opacity:1;fill-rule:nonzero;stroke:none"
         id="path2046" /><path
         d="m 17764.6,32944.2 c -86.3,-265.9 -193.2,-865.9 -230.4,-1146.6 -20,-157.4 -133.7,-247.3 -265.7,-271.5 -91.7,-16.9 -192.3,-2.1 -276.4,43.6 -90.4,49.1 -151,139.6 -167.1,241.2 -60.6,382.6 26,932.2 77.9,1304.4 l 861.7,-171.1"
         style="fill:#865439;fill-opacity:1;fill-rule:nonzero;stroke:none"
         id="path2048" /><path
         d="m 16862.2,31991.7 c 0,0.2 0,0.5 -0.1,0.7 3.9,4.3 7.9,8.5 11.9,12.8 -4.1,-1.8 -8.2,-3.8 -12.2,-5.9 -15.1,324.8 41,721.7 83.8,1024.8 1.3,8.8 2.5,17.4 3.7,26 l 45.9,-9.2 c -46.4,-310.2 -128.5,-725 -116,-1036.6 -5.9,-4 -11.5,-8.2 -17,-12.6"
         style="fill:#b69888;fill-opacity:1;fill-rule:nonzero;stroke:none"
         id="path2050" /><path
         d="m 17509,32002 c -8.6,2.7 -17.6,4.6 -26.5,4.6 -0.5,0 -1.1,0 -1.6,0 43.1,269.4 112.6,636.5 176.1,867.2 l 27.4,-7.1 c -64.1,-234.8 -132.9,-600.6 -175.4,-864.7"
         style="fill:#684431;fill-opacity:1;fill-rule:nonzero;stroke:none"
         id="path2052" /><path
         d="m 17344,31608.7 c -8.6,-4.3 -19.3,-0.9 -23.4,7.8 -32.5,69.9 -5.6,172.4 -5.1,174.2 3.6,13.3 -4.3,27.1 -17.6,30.7 -13.3,3.6 -27,-4.2 -30.7,-17.5 -1.6,-6.1 -30.2,-113.9 4.2,-199.6 4.2,-10.3 -1.7,-22.1 -12.7,-24.1 h -0.2 c -67.7,-12.5 -140,-4.8 -203.8,20.8 -4,1.6 -7.3,4.5 -9.1,8.4 -38.4,79.3 31,198.3 32,200.1 7.1,11.9 3.2,27.2 -8.6,34.3 -11.9,7.1 -27.2,3.2 -34.3,-8.6 -2.8,-4.8 -45.6,-77.8 -50.4,-156.9 -0.9,-15.3 -19.6,-21.9 -30.2,-10.8 -38.9,40.7 -65.6,93.8 -74.8,151.9 -54.9,346.9 15.2,842.7 66.3,1204.7 1.3,8.8 2.5,17.4 3.7,26 l 745,-148 c -85.2,-295.7 -181.6,-848 -214.7,-1097.6 -13.8,-109.1 -76.7,-166.1 -135.6,-195.8 m 472.9,1318.5 19.1,58.9 -979.5,194.5 -8,-57.7 c -3.8,-26.9 -7.7,-54.7 -11.8,-83.4 -52.1,-368.9 -123.5,-874.2 -66,-1237.2 18.9,-119.8 91.9,-224.8 195.1,-280.9 40.8,-22.2 85.6,-38.1 131.8,-47.4 59.5,-11.9 121.5,-12.9 180.8,-2 170.5,31.3 289.4,153.4 310.3,318.3 35,263.5 141.2,868.7 228.2,1136.9"
         style="fill:#231f20;fill-opacity:1;fill-rule:nonzero;stroke:none"
         id="path2054" /><path
         d="m 18624.7,34355.6 -224.8,7.1 c -692.5,-20.2 -1311.6,-551.6 -1567,-1214.2 l 1023.4,-267.6 c 0,0 47.6,152.4 62.4,185.4 l 706,1289.3"
         style="fill:#8fbdd3;fill-opacity:1;fill-rule:nonzero;stroke:none"
         id="path2056" /><path
         d="m 16934.3,33406.1 c -20.8,-44.1 -40.1,-88.9 -57.6,-134.4 l 1013.6,-265.3 52.6,129.8 -1008.6,269.9"
         style="fill:#f1eee9;fill-opacity:1;fill-rule:nonzero;stroke:none"
         id="path2058" /><path
         d="m 16923.8,33295.6 945.6,-247.5 26.2,64.6 -941.9,252 c -10.5,-23 -20.5,-46.1 -29.9,-69.1 m 958.5,-323.2 -0.8,0.2 -1013.7,265.3 c -9.6,2.5 -17.7,9 -22.3,17.9 -4.5,8.9 -5.1,19.2 -1.5,28.5 17.5,45.4 37.2,91.4 58.7,136.8 7.2,15.3 24.5,23 40.7,18.8 l 1008.5,-269.8 c 9.7,-2.7 17.9,-9.3 22.3,-18.2 4.5,-9 4.9,-19.5 1.2,-28.8 l -52.6,-129.8 c -6.5,-16.1 -23.8,-24.9 -40.5,-20.9"
         style="fill:#231f20;fill-opacity:1;fill-rule:nonzero;stroke:none"
         id="path2060" /><path
         d="m 16933.1,33180.2 -29.2,7.7 c 5.2,12.2 10.5,24.3 15.9,36.4 l 29.8,-7.8 c -5.6,-12.1 -11.1,-24.2 -16.5,-36.3"
         style="fill:#bcd7e5;fill-opacity:1;fill-rule:nonzero;stroke:none"
         id="path2062" /><path
         d="m 16980.9,33280.6 -30.8,8.1 c 11.2,22.8 22.9,45.3 35,67.6 l 31.7,-8.5 c -12.4,-22.1 -24.4,-44.6 -35.9,-67.2"
         style="fill:#f7f5f2;fill-opacity:1;fill-rule:nonzero;stroke:none"
         id="path2064" /><path
         d="m 17053.2,33410.5 -32.5,8.7 c 276.8,468.7 735.6,801.1 1217.1,873.7 7.6,-2.4 15.2,-4.7 23,-7 -496.1,-86.4 -936.9,-428.4 -1207.6,-875.4"
         style="fill:#bcd7e5;fill-opacity:1;fill-rule:nonzero;stroke:none"
         id="path2066" /><path
         d="m 16949.6,33216.5 -29.8,7.8 c 9.7,21.7 19.8,43.2 30.3,64.4 l 30.8,-8.1 c -10.8,-21.2 -21.2,-42.5 -31.3,-64.1 m 67.2,131.3 -31.7,8.5 c 11.5,21.2 23.3,42.2 35.6,62.9 l 32.5,-8.7 c -12.5,-20.7 -24.6,-41.6 -36.4,-62.7"
         style="fill:#7b7979;fill-opacity:1;fill-rule:nonzero;stroke:none"
         id="path2068" /><path
         d="m 17841.7,32826.3 c -1.4,0.2 -11.1,2 -12.5,2.4 l -1015,266.1 c -15.3,4 -28.2,14.5 -35.4,28.8 -7.2,14.3 -8,31 -2.2,46 130.5,338.4 356.7,648 637.1,871.9 297.4,237.5 636.4,368.3 980.4,378.4 1.1,0 2.2,0 3.3,-0.1 l 224.8,-7.1 c 30.7,-0.9 54.7,-26.9 53.5,-58 -1.1,-31.1 -26.8,-55.6 -57.5,-54.6 l -223.2,7.1 c -613.5,-18.7 -1218.3,-475.5 -1491.1,-1119.3 l 902.6,-236.8 c 15.9,49.5 38.2,117.4 48.7,140.7 12.7,28.4 145.6,202.3 173.6,189.6 27.9,-12.8 -59.7,-207.5 -72.4,-235.8 -9.8,-21.8 -42,-121.4 -60,-179.1 -8.6,-27.3 -27.4,-45.2 -54.7,-40.2"
         style="fill:#231f20;fill-opacity:1;fill-rule:nonzero;stroke:none"
         id="path2070" /><path
         d="m 17031.1,32057.7 175,13.4 c 79.2,6.1 154.5,-14.9 215.4,-54.7 15.4,-10.1 34,-14 52.6,-12.5 h 0.2 c 82.5,6.3 244.4,-225.4 257.9,-371.6 9.5,-102.4 -143.2,-124.2 -143.2,-124.2 9.4,-101.9 -71.1,-191.2 -179.8,-199.5 l -474,-36.4 c -72.5,-5.5 -136.4,45.1 -142.6,113 l -34.1,369.8 c -14.2,153.9 108.5,290.1 272.6,302.7"
         style="fill:#865439;fill-opacity:1;fill-rule:nonzero;stroke:none"
         id="path2072" /><path
         d="m 17772.3,31612.7 c 0.3,5.3 0.8,10.8 0.4,15.9 l -0.4,7.8 c -0.1,2.5 -0.4,4.3 -0.7,6.5 -1.7,16.8 -5.1,32.6 -9,48.1 -8,30.8 -18.7,59.8 -31.3,87.6 -6.3,13.8 -11.4,28.2 -18.9,41.4 -7.7,13.1 -17.4,24.9 -26.7,36.9 -18.8,23.7 -39,46.1 -60.7,67 -21.8,20.7 -45.1,40 -70.6,56.3 -12.8,8.1 -26.4,15.1 -40.8,20.3 -14.2,5 -30.1,8.2 -44.3,4.5 14.4,-2.1 26.2,-9.7 36.7,-18.3 10.5,-8.7 19.6,-19 28.4,-29.5 17.4,-21.2 32,-44.7 45.4,-68.7 13.4,-24 25.1,-48.9 35.8,-73.8 2.7,-6.3 5.1,-12.7 7.6,-18.9 2.4,-6.4 4.7,-12.7 7.6,-18.7 5.6,-12 13.4,-23.1 18.4,-35.3 10.9,-24.1 19.9,-48.8 26.2,-73.1 3,-12.1 5.7,-24.2 6.8,-35.7 0.1,-1.4 0.4,-3.1 0.4,-4.1 l 0.1,-2.9 c 0.3,-2 -0.1,-3.6 -0.1,-5.4 -0.3,-3.5 -0.9,-6.7 -2.1,-9.7 -3.6,-11.8 -17,-25 -36.7,-35.3 -9.7,-5.2 -20.6,-9.7 -32,-13.4 -5.8,-1.8 -11.6,-3.5 -17.5,-5 l -8.8,-2 -7.7,-1.4 -1,-0.2 c -22.7,-4.2 -39.1,-24.9 -37.4,-48.5 1.8,-25.3 -2.7,-50.9 -15.3,-73.3 -2.6,-5.8 -6.7,-10.9 -10.1,-16.4 -4.3,-4.8 -7.8,-10.3 -12.7,-14.7 -8.7,-9.6 -19.6,-17.3 -30.7,-24.3 -5.8,-3.1 -11.4,-6.5 -17.6,-8.9 -6,-2.9 -12.4,-4.7 -18.7,-6.8 -3.1,-1.2 -6.5,-1.5 -9.7,-2.4 -3.3,-0.6 -6.5,-1.7 -9.9,-2 -6.9,-0.7 -12.3,-1.8 -21.7,-2.3 l -102,-7.9 -204,-15.6 -102.1,-7.8 -51,-3.9 -6.4,-0.5 -4.5,-0.1 c -2.9,-0.1 -5.8,-0.3 -8.7,0.1 -5.8,0.2 -11.6,1.1 -17.1,2.4 -22.4,5.4 -42.4,19.5 -53.7,37.9 -5.6,9.1 -9.2,19.1 -10.5,29.6 l -0.3,1.9 c -0.2,0.7 -0.2,2 -0.4,3 l -0.5,6.4 -1.2,12.7 -2.4,25.5 -18.8,203.8 -4.7,50.9 -2.3,25.5 c -0.7,8.5 -0.6,17.1 -1.3,25.6 -1.7,18.2 -6.7,30.3 -8.1,45.3 -1.7,14.4 -2.6,29.4 -1.2,44.4 0.2,7.7 1.8,15.1 2.7,22.7 1.7,7.5 2.9,15.2 5.1,22.7 3.8,15.3 9.4,30.3 16.4,44.9 6.9,14.7 15.6,28.7 25.1,42.6 9.6,13.8 20.9,26.5 32.9,39.1 -63,-28.5 -119,-83.9 -146.2,-156.7 -7.1,-18.1 -11.7,-37.2 -15.1,-56.7 -1.4,-9.8 -2.8,-19.7 -3.2,-29.7 -0.8,-10.7 -1,-18.5 -0.1,-27.1 0.8,-8.5 2.5,-16.9 3.3,-25.4 l 2.4,-25.5 4.7,-50.9 18.8,-203.8 2.4,-25.5 1.1,-12.7 0.6,-6.4 0.4,-3.4 0.6,-4.3 c 2.8,-23.4 11,-46.2 23.4,-66 24.7,-39.8 65,-67.3 108.8,-77.8 11,-2.7 22.2,-4.4 33.5,-4.9 5.6,-0.5 11.2,-0.4 16.8,-0.2 l 8.2,0.4 6.4,0.4 51,3.9 102,7.9 204.1,15.6 102,7.8 c 7.7,0.4 19.2,2 29.1,3.2 5.2,0.6 10.2,2.1 15.3,3.1 5,1.3 10.2,2 15.1,3.8 9.9,3.1 19.9,6.2 29.3,10.6 9.7,3.9 18.8,9.1 27.9,14.2 17.8,11 34.9,23.5 49.3,39 7.7,7.2 13.9,15.9 20.6,24 5.9,8.9 12.2,17.4 16.9,27.1 14.3,25.7 22.6,54.8 25.3,84.3 3.6,1 7.2,1.9 10.8,3.1 15.6,5.1 31.2,11.3 46.6,19.5 15.4,8.3 30.8,18.4 44.9,32.2 14.1,13.7 27,31.5 34.3,52.5 3.8,10.3 6,21.2 7,31.9"
         style="fill:#231f20;fill-opacity:1;fill-rule:nonzero;stroke:none"
         id="path2074" /><path
         d="m 17280.5,31595.2 c 23.2,-251 75.1,-465.1 218.8,-454.1 203,15.5 134.1,319.6 111,570.6 l -329.8,-116.5"
         style="fill:#865439;fill-opacity:1;fill-rule:nonzero;stroke:none"
         id="path2076" /><path
         d="m 17479.7,31169.1 c -39.8,0 -69.8,18.6 -92.8,51.3 15.8,39.4 24.1,92.1 19.7,162.5 -0.1,2.2 -10.8,68.6 -22.4,139.9 8.3,-11.7 17.4,-26.3 18,-29.7 35.9,-177.7 -12.7,-277.1 87.5,-277.1 4.4,0 9.1,0.2 14,0.6 39.2,3 65.1,18.7 81.9,43.5 -7.3,-23.7 -17.2,-43.7 -30.5,-58.7 -17.2,-19.5 -34,-29.5 -65.1,-31.9 -3.5,-0.3 -6.9,-0.4 -10.3,-0.4"
         style="fill:#684431;fill-opacity:1;fill-rule:nonzero;stroke:none"
         id="path2078" /><path
         d="m 17604.4,31702.9 c -18.2,-1.4 -19.3,-58.6 -15.9,-90.4 17.3,-158.7 29.1,-340.7 -33.4,-411.1 -17.2,-19.5 -34,-29.5 -65.1,-31.9 -120.5,-9.3 -156.7,141.8 -175.4,345.1 -1.6,17.1 -16.5,17.4 -34.8,16 -18.2,-1.4 -32.3,-10.2 -30.8,-27.3 14.3,-155 27.4,-189.7 56.5,-265.3 40.6,-105.6 107.9,-136.8 190.3,-130.5 48.9,3.7 81.7,21.6 110.5,54 80.1,90.4 60,275.7 40.5,454.8 -3.5,31.6 -24.1,88 -42.4,86.6"
         style="fill:#231f20;fill-opacity:1;fill-rule:nonzero;stroke:none"
         id="path2080" /><path
         d="m 17366.1,31567.3 c 0.5,-5.3 13.3,-175.2 13.7,-180.3 11.1,-164.3 -50.2,-233.6 -145.4,-240.9 -138.4,-10.7 -172.8,176.1 -189,351.7 l 320.7,69.5"
         style="fill:#865439;fill-opacity:1;fill-rule:nonzero;stroke:none"
         id="path2082" /><path
         d="m 17217.1,31179.7 c -58.7,0 -92.8,54.4 -113.1,119.7 24.9,-35.8 58.2,-57.7 103.1,-57.7 3.6,0 7.3,0.2 11.1,0.5 60.7,4.6 107.5,34.5 130.7,98.1 -4.9,-149.8 -94.8,-158 -124.3,-160.3 -2.5,-0.2 -5,-0.3 -7.5,-0.3"
         style="fill:#684431;fill-opacity:1;fill-rule:nonzero;stroke:none"
         id="path2084" /><path
         d="m 17044.4,31496.1 -14.2,-1.1 c -13.4,-1 -23.3,-12.2 -22,-24.8 25.3,-242.9 88.1,-372.5 223.1,-362.2 72.4,5.6 189.4,49.1 175.3,274.9 -0.1,2.7 -16.1,100.7 -30.1,186.9 -2.4,14.6 -23.9,13.1 -24.3,-1.7 -2.1,-85.1 -4.4,-180.8 -4.2,-182.8 13.1,-193.2 -91.1,-202.8 -123.4,-205.3 -118.9,-9.1 -141.8,196.6 -150.3,292.4 -1.3,14.3 -14.6,24.9 -29.9,23.7"
         style="fill:#231f20;fill-opacity:1;fill-rule:nonzero;stroke:none"
         id="path2086" /><path
         d="m 17071,31540.6 c 4.8,-44.4 13.7,-153.9 7.7,-194.6 -12.8,-86.7 -57.3,-156.6 -115.7,-160 -65,-3.8 -147.2,44.7 -162.1,183.6 l 270.1,171"
         style="fill:#865439;fill-opacity:1;fill-rule:nonzero;stroke:none"
         id="path2088" /><path
         d="m 16955.6,31175.6 c -37.1,0 -80.9,23.8 -114.2,69.9 1.5,-0.8 3.1,-1.5 4.7,-2.2 31.1,-40.6 72.7,-57.5 109.8,-57.5 2.4,0 4.8,0.1 7.1,0.2 29.8,1.8 56,20.8 76.2,50.6 l 16.5,1.2 c -19.3,-38.3 -51.6,-59.5 -95.1,-62 -1.6,-0.1 -3.3,-0.2 -5,-0.2"
         style="fill:#bdbbbc;fill-opacity:1;fill-rule:nonzero;stroke:none"
         id="path2090" /><path
         d="m 17039.2,31236.6 c 4.1,6 7.9,12.5 11.5,19.4 1.9,-5.5 3.9,-10.8 6,-16.1 -0.3,-0.7 -0.7,-1.4 -1,-2.1 l -16.5,-1.2 m -193.1,6.7 c -1.6,0.7 -3.2,1.4 -4.7,2.2 -24.5,33.9 -43.3,79.8 -49.5,137.3 l 15.3,0.7 c 1.2,-2.5 2.5,-5.1 3.7,-7.5 l -10,-6.4 c 6,-55.9 22.9,-97.2 45.2,-126.3"
         style="fill:#231f20;fill-opacity:1;fill-rule:nonzero;stroke:none"
         id="path2092" /><path
         d="m 17056.7,31239.9 c -2.1,5.3 -4.1,10.6 -6,16.1 11.5,22 20.3,48 25.6,76.1 -1.2,-37.1 -7.9,-68 -19.6,-92.2"
         style="fill:#231f20;fill-opacity:1;fill-rule:nonzero;stroke:none"
         id="path2094" /><path
         d="m 16955.9,31185.8 c -37.1,0 -78.7,16.9 -109.8,57.5 -22.3,29.1 -39.2,70.4 -45.2,126.3 l 10,6.4 c 34,-66.9 88.7,-101.7 133.6,-101.7 1.7,0 3.3,0.1 5,0.1 62.5,3.7 101.7,45.9 112.7,122.2 l 11.4,0.6 c 2.5,-23.5 3.4,-45.2 2.7,-65.1 -5.3,-28.1 -14.1,-54.1 -25.6,-76.1 -3.6,-6.9 -7.4,-13.4 -11.5,-19.4 -20.2,-29.8 -46.4,-48.8 -76.2,-50.6 -2.3,-0.1 -4.7,-0.2 -7.1,-0.2"
         style="fill:#684431;fill-opacity:1;fill-rule:nonzero;stroke:none"
         id="path2096" /><path
         d="m 17113.1,31401.3 -0.8,8.6 c -15.5,161.9 -27,173.8 -41.5,172.9 -2.6,-0.1 -6.5,-1.2 -10.1,-5.4 -18.7,-22 -30,-166.3 -28.3,-181.8 4.4,-41 7,-115.4 -25.1,-153.4 -12.8,-15 -29.6,-23 -51.4,-24.3 -43,-2.5 -109,54.4 -121.2,167.9 -2.4,21.8 -25,40.4 -47.5,39.1 -10.8,-0.6 -20.5,-5.5 -27.4,-13.6 -7.1,-8.3 -10.3,-19 -9.1,-30.1 14.6,-135.6 95.2,-222.7 174.1,-241.4 13.1,-3.1 26.2,-4.3 38.9,-3.6 24.9,1.5 71.9,10.2 107,51.7 38.5,45.4 52.8,117.2 42.4,213.4"
         style="fill:#231f20;fill-opacity:1;fill-rule:nonzero;stroke:none"
         id="path2098" /><path
         d="m 17967.7,36290.1 c 46.9,-536.3 -349.8,-1009 -886,-1055.9 -536.3,-47 -1009.1,349.7 -1056,886 -46.9,536.3 349.8,1009 886.1,1055.9 536.2,47 1009,-349.7 1055.9,-886"
         style="fill:#865439;fill-opacity:1;fill-rule:nonzero;stroke:none"
         id="path2100" /><path
         d="m 16093.8,36256.3 c 24.7,441.3 371.2,810.1 824.1,849.7 26.7,2.4 53.2,3.5 79.5,3.5 191,0 370.6,-60.4 518.6,-164.4 -4.5,-8.7 -8.8,-17.4 -13.2,-26.1 -137.4,72.6 -292.6,112.9 -453.9,112.9 -64.5,0 -130.1,-6.5 -195.8,-19.8 -393.1,-80.2 -682.1,-386.5 -759.3,-755.8"
         style="fill:#bda192;fill-opacity:1;fill-rule:nonzero;stroke:none"
         id="path2102" /><path
         d="m 16917.9,37106 c -496.8,-43.4 -865.5,-482.9 -822.1,-979.6 43.5,-496.8 483,-865.6 979.7,-822.1 496.8,43.4 865.6,482.9 822.1,979.7 -43.5,496.7 -483,865.5 -979.7,822 m 169.9,-1941.9 c -574.1,-50.3 -1082,375.9 -1132.2,950 -50.2,574 376,1081.9 950,1132.2 574.1,50.2 1082,-376 1132.2,-950 50.2,-574.1 -375.9,-1082 -950,-1132.2"
         style="fill:#000000;fill-opacity:1;fill-rule:nonzero;stroke:none"
         id="path2104" /><path
         d="m 17861,36136.5 c 34,-387.5 -252.7,-729.1 -640.2,-763 -387.5,-33.9 -729.1,252.8 -763,640.3 -33.9,387.5 252.7,729.1 640.2,763 387.5,33.9 729.1,-252.8 763,-640.3"
         style="fill:#aa784b;fill-opacity:1;fill-rule:nonzero;stroke:none"
         id="path2106" /><path
         d="m 16723.7,35567.7 c -128.1,110 -215,268.1 -230.9,449.1 -32.1,367.6 240.7,692.8 608.3,724.9 19.7,1.8 39.3,2.6 58.8,2.6 85.7,0 168.3,-16.4 244.5,-46.5 -4.9,-12.4 -9.7,-24.8 -14.3,-37.2 -26.8,3.1 -54,4.7 -81.5,4.7 -20.5,0 -41.2,-0.9 -62,-2.7 -387.5,-33.9 -674.1,-375.5 -640.2,-763 10.8,-123.2 52.7,-236.2 117.3,-331.9"
         style="fill:#7b593c;fill-opacity:1;fill-rule:nonzero;stroke:none"
         id="path2108" /><path
         d="m 17101.1,36741.7 c -367.6,-32.1 -640.4,-357.3 -608.3,-724.9 32.2,-367.5 357.4,-640.4 724.9,-608.3 367.6,32.2 640.5,357.4 608.3,725 -32.2,367.5 -357.4,640.4 -724.9,608.2 m 122.8,-1403.3 c -406.3,-35.5 -765.7,266.1 -801.2,672.3 -35.5,406.2 266,765.6 672.2,801.1 406.3,35.6 765.7,-266 801.2,-672.2 35.5,-406.2 -266,-765.6 -672.2,-801.2"
         style="fill:#000000;fill-opacity:1;fill-rule:nonzero;stroke:none"
         id="path2110" /><path
         d="m 21684.6,36615.3 c 46.9,-536.3 519.7,-933 1055.9,-886 536.3,46.9 933,519.6 886.1,1055.9 -46.9,536.3 -519.7,933 -1056,886 -536.2,-46.9 -932.9,-519.6 -886,-1055.9"
         style="fill:#865439;fill-opacity:1;fill-rule:nonzero;stroke:none"
         id="path2112" /><path
         d="m 23535.9,36907.4 c -140.1,350.2 -478,601.7 -879,612.4 -8.9,0.2 -17.7,0.4 -26.5,0.4 -184.4,0 -357.3,-51.5 -504.8,-141.2 -8.7,11.4 -17.5,22.6 -26.4,33.8 133.2,104.3 296.9,172.5 477.6,188.3 26.6,2.4 53.2,3.5 79.5,3.5 420.1,0 784.6,-292.2 879.6,-697.2"
         style="fill:#bda192;fill-opacity:1;fill-rule:nonzero;stroke:none"
         id="path2114" /><path
         d="m 22576.8,37601.1 c 496.7,43.5 936.2,-325.3 979.7,-822 43.4,-496.8 -325.3,-936.3 -822.1,-979.7 -496.7,-43.5 -936.2,325.3 -979.7,822 -43.5,496.8 325.3,936.3 822.1,979.7 m 169.9,-1942 c 574,50.3 1000.2,558.2 950,1132.2 -50.2,574.1 -558.1,1000.3 -1132.2,950.1 -574.1,-50.3 -1000.2,-558.2 -950,-1132.2 50.2,-574.1 558.1,-1000.3 1132.2,-950.1"
         style="fill:#000000;fill-opacity:1;fill-rule:nonzero;stroke:none"
         id="path2116" /><path
         d="m 21816.3,36482.6 c 33.9,-387.5 375.5,-674.2 763,-640.3 387.5,33.9 674.2,375.5 640.3,763 -33.9,387.5 -375.5,674.2 -763,640.3 -387.5,-33.9 -674.2,-375.5 -640.3,-763"
         style="fill:#aa784b;fill-opacity:1;fill-rule:nonzero;stroke:none"
         id="path2118" /><path
         d="m 23035.1,36119.9 c 47,105.5 68.7,224 57.9,347.2 -32,366.6 -339.5,643 -700.8,643 -20.6,0 -41.3,-0.9 -62.2,-2.7 -5.9,-0.5 -11.8,-1.1 -17.7,-1.8 -12.4,20.7 -25.1,41.2 -38.1,61.6 58,22.7 120.3,37.6 185.4,43.4 19.8,1.7 39.4,2.5 58.8,2.5 342.9,0 635.7,-263 666.1,-610.8 15.9,-181.1 -42.3,-351.9 -149.4,-482.4"
         style="fill:#7b593c;fill-opacity:1;fill-rule:nonzero;stroke:none"
         id="path2120" /><path
         d="m 22459.6,37210.6 c 367.6,32.1 692.8,-240.8 724.9,-608.3 32.2,-367.6 -240.7,-692.8 -608.2,-724.9 -367.6,-32.2 -692.8,240.7 -724.9,608.2 -32.2,367.6 240.7,692.8 608.2,725 m 122.8,-1403.3 c 406.2,35.5 707.8,394.9 672.2,801.1 -35.5,406.2 -394.9,707.8 -801.1,672.2 -406.2,-35.5 -707.8,-394.9 -672.2,-801.1 35.5,-406.2 394.9,-707.8 801.1,-672.2"
         style="fill:#000000;fill-opacity:1;fill-rule:nonzero;stroke:none"
         id="path2122" /><path
         d="m 22599.5,35995.7 c -47.1,900.2 -718.3,1813.8 -1640.3,2220.6 -89.2,39.3 -144.7,127.5 -149.1,224.9 -8.3,142.4 97.9,449.4 -65.7,441.1 -143.3,-7.6 -445.8,-255.3 -511.6,-411.9 -12.8,-30.4 -44.9,-48.1 -77.7,-44.7 -146.7,12.1 -0.1,280.4 -141,266.4 -86,-4.5 -245,-119.3 -338.1,-227.9 -26.5,-30.9 -63,-51.4 -103.2,-57.6 -1341.7,-207.5 -2332.8,-1514.7 -2271.2,-2688.5 146.8,-1231.3 685.3,-1424.2 2129.7,-1541.5 404.7,-32.8 811.8,-11.4 1210.9,63.6 1424.7,268 1939.3,515.1 1957.3,1755.5"
         style="fill:#865439;fill-opacity:1;fill-rule:nonzero;stroke:none"
         id="path2124" /><path
         d="m 19799.9,34230 c -121.1,0 -242.2,4.9 -363.1,14.7 -1478.2,120 -1929.4,328.8 -2067.2,1479.2 -45.6,889.5 509.1,1790.1 1304.1,2275.7 -706.5,-534.2 -1148.2,-1390.9 -1106.6,-2186.3 146.9,-1231.3 685.4,-1424.2 2129.7,-1541.4 122.9,-10 246,-14.9 369,-14.9 106,0 212,3.7 317.8,11.1 -193.6,-25.4 -388.6,-38.1 -583.7,-38.1"
         style="fill:#684431;fill-opacity:1;fill-rule:nonzero;stroke:none"
         id="path2126" /><path
         d="m 22394.8,36626.7 c -275.3,590.2 -790.8,1109.8 -1425.1,1389.7 -87.6,38.6 -142.7,124.2 -148.9,219.5 30,-34.8 67.5,-63 110.8,-82.1 678.2,-299.2 1220,-881.3 1463.2,-1527.1"
         style="fill:#bda192;fill-opacity:1;fill-rule:nonzero;stroke:none"
         id="path2128" /><path
         d="m 17369.6,35723.9 c 137.8,-1150.4 589,-1359.2 2067.2,-1479.2 398.5,-32.4 799.8,-11.3 1192.7,62.6 1457.4,274.1 1884.4,528.9 1901.8,1687.1 -47,876.7 -704.5,1764.5 -1599.7,2159.4 -111.3,49.1 -184,158.1 -189.7,284.3 -2.7,46.7 4.8,104.2 12.7,165.1 7.4,56.4 24.7,188.5 2.9,210.7 0,-0.1 -0.7,0 -2.2,0.1 -1.6,0.1 -4.1,0.3 -7.4,0.1 -41.9,-2.2 -134.1,-44.8 -245.4,-134.9 -99.4,-80.6 -180.6,-172.9 -206.8,-235.2 -23.9,-57 -84.2,-92.4 -146.8,-86.3 -136.8,11.8 -135.4,148.2 -134.7,213.8 0.2,15 0.4,37.4 -1.2,52 -57.4,-7.4 -193.8,-97.1 -285.2,-203.7 -37.1,-43.4 -88.4,-72 -144.6,-80.7 -1241.4,-192 -2275.2,-1413.7 -2213.6,-2615.2 M 20042,34099.8 c -205.2,-10.7 -411.1,-7.8 -616.2,8.8 -740.7,60.2 -1237.3,139 -1583.1,363.8 -350.5,227.7 -532.6,597.9 -608.9,1237.6 l -0.4,4.5 c -30.9,590.1 196.8,1229.2 624.7,1753.3 447.5,548.1 1052.7,905.4 1704.3,1006.2 23.9,3.7 45.8,16 61.8,34.6 85.8,100.2 261.5,244 384.7,251.6 49.5,4.4 80.7,-13.5 98.1,-29.5 45,-41.1 44.3,-104.6 43.7,-160.6 -0.2,-22.3 -0.6,-63 5.6,-75.8 1,-0.2 2.4,-0.4 4.5,-0.6 l 1.3,-0.1 c 3.6,-0.4 7,1.4 7.7,3.2 72,171.1 390.8,444.2 571.1,453.6 60.2,3.1 96.8,-22.1 116.9,-43.9 64.9,-70.3 48.3,-197.7 32.2,-320.9 -6.8,-52 -13.8,-105.7 -11.8,-140.5 3.4,-74.9 45,-138.3 108.5,-166.4 941.2,-415.2 1632.4,-1352.6 1681,-2279.4 l 0.1,-4.6 c -9.4,-644.3 -151.9,-1031.5 -476.4,-1294.4 -320.2,-259.4 -805.9,-389.7 -1536.6,-527.2 -202.6,-38 -407.4,-62.5 -612.8,-73.3"
         style="fill:#231f20;fill-opacity:1;fill-rule:nonzero;stroke:none"
         id="path2130" /><path
         d="m 22025.4,36519.7 c -27.6,526.8 -664.4,921.7 -1422.3,882 -187.3,-9.8 -364.6,-45.3 -524.8,-101.1 -42.9,-14.9 -89.5,-17.4 -133.8,-7 -165.2,38.8 -345.2,55.5 -532.5,45.7 -757.9,-39.7 -1349.9,-499 -1322.3,-1025.9 15.5,-295 221.9,-548.6 533.6,-707.7 65.2,-33.3 105.8,-94.8 109.3,-163.2 v -1.1 c 27.7,-526.9 664.4,-921.8 1422.3,-882.1 757.9,39.7 1349.8,499 1322.2,1025.9 v 1.1 c -3.7,68.4 30.3,133.8 91.6,173.8 293.4,190.8 472.1,464.6 456.7,759.6"
         style="fill:#c68b59;fill-opacity:1;fill-rule:nonzero;stroke:none"
         id="path2132" /><path
         d="m 19413.8,37304.1 c -737.3,-38.6 -1315.5,-482.2 -1288.9,-988.9 14.2,-271.3 201.7,-518.5 514.4,-678.2 76.3,-38.9 124.3,-111 128.4,-192.7 26.6,-507.7 648.1,-888.5 1385.3,-849.8 737.3,38.6 1315.5,482.2 1289,988.9 -4.5,82.8 35.7,159.4 107.5,206.2 294.3,191.4 455,456.8 440.7,728.2 -26.5,506.7 -647.9,887.4 -1385.2,848.8 -179.9,-9.5 -353.2,-42.8 -515.1,-99.2 -49.4,-17.2 -102.5,-20 -153.5,-8 -166.9,39.1 -342.7,54.2 -522.6,44.7 m 742.9,-2779.9 c -776,-40.7 -1430.6,369.9 -1459.2,915.3 -2.9,57.5 -36.6,107.5 -90.2,134.9 -335.7,171.3 -537.1,440 -552.7,737.2 -28.6,545.4 579.5,1022.2 1355.5,1062.8 186.5,9.8 369,-5.9 542.4,-46.5 37.9,-8.9 77.4,-6.9 114.3,6 168.1,58.5 348,93.2 534.5,102.9 776,40.7 1430.6,-369.9 1459.2,-915.3 15.6,-297.1 -156.7,-585.4 -472.6,-790.9 -50.4,-32.9 -78.7,-86.1 -75.7,-142.4 28.6,-546.6 -579.4,-1023.3 -1355.5,-1064"
         style="fill:#231f20;fill-opacity:1;fill-rule:nonzero;stroke:none"
         id="path2134" /><path
         d="m 21628.5,36281 c 15,-285.1 -204,-528.3 -489,-543.2 -285.1,-14.9 -528.3,204 -543.2,489.1 -14.9,285 204,528.2 489.1,543.1 285,15 528.2,-204 543.1,-489"
         style="fill:#f1f2f2;fill-opacity:1;fill-rule:nonzero;stroke:none"
         id="path2136" /><path
         d="m 21138.4,35758.8 c -273.1,-14.3 -506.8,196.1 -521.1,469.2 -14.3,273 196.1,506.8 469.2,521.1 273,14.3 506.8,-196.2 521.1,-469.2 14.3,-273.1 -196.2,-506.8 -469.2,-521.1"
         style="fill:#231f20;fill-opacity:1;fill-rule:nonzero;stroke:none"
         id="path2138" /><path
         d="m 21024.9,36443.8 c 4.4,-83.1 -59.5,-154 -142.6,-158.4 -83.1,-4.3 -154,59.5 -158.3,142.6 -4.4,83.1 59.5,154.1 142.6,158.4 83.1,4.4 154,-59.5 158.3,-142.6"
         style="fill:#f1f2f2;fill-opacity:1;fill-rule:nonzero;stroke:none"
         id="path2140" /><path
         d="m 21500.1,36854.4 c 3,-58 -187.2,-9.9 -418,-22 -230.8,-12.1 -415,-79.8 -418,-21.9 -3,58 178,184.7 408.8,196.8 230.9,12.1 424.2,-95 427.2,-152.9"
         style="fill:#231f20;fill-opacity:1;fill-rule:nonzero;stroke:none"
         id="path2142" /><path
         d="m 19541.6,36171.6 c 14.5,-277 -204.8,-513.7 -489.9,-528.7 -285,-14.9 -527.9,197.6 -542.4,474.6 -14.5,277 204.8,513.7 489.9,528.6 285,15 527.9,-197.5 542.4,-474.5"
         style="fill:#f1f2f2;fill-opacity:1;fill-rule:nonzero;stroke:none"
         id="path2144" /><path
         d="m 19050.6,35663.9 c -273,-14.3 -506.4,189.7 -520.3,454.7 -13.9,265 196.9,492.3 470,506.6 273,14.3 506.4,-189.7 520.3,-454.7 13.9,-265 -196.9,-492.3 -470,-506.6"
         style="fill:#231f20;fill-opacity:1;fill-rule:nonzero;stroke:none"
         id="path2146" /><path
         d="m 18938,36334.4 c 4.3,-83.1 -59.5,-154 -142.6,-158.3 -83.1,-4.4 -154,59.5 -158.4,142.6 -4.3,83.1 59.5,154 142.6,158.3 83.1,4.4 154,-59.4 158.4,-142.6"
         style="fill:#f1f2f2;fill-opacity:1;fill-rule:nonzero;stroke:none"
         id="path2148" /><path
         d="m 19415.6,36745.1 c 3,-58 -187.2,-9.8 -418,-21.9 -230.9,-12.1 -415,-79.9 -418,-21.9 -3.1,57.9 178,184.7 408.8,196.8 230.9,12.1 424.1,-95 427.2,-153"
         style="fill:#231f20;fill-opacity:1;fill-rule:nonzero;stroke:none"
         id="path2150" /><path
         d="m 20696.9,35284.8 c -1.2,24.6 -22,43.5 -46.5,42.4 h -0.2 c -24.4,-1.3 -43.3,-22.1 -42.1,-46.6 0.8,-18 -1.1,-41.7 -20,-64.5 -9.4,-11.7 -23.2,-23.1 -43.2,-33.6 -52.1,-27.2 -118.5,-34.1 -154.1,-35.7 -59.1,-2.9 -116.5,16.6 -161.6,54.7 -42.5,35.9 -68,84.1 -70.4,132.3 v 0.2 0.3 c -0.1,1.3 -0.4,2.4 -0.6,3.6 -0.2,1.7 -0.4,3.5 -0.8,5 -0.3,1.4 -0.9,2.5 -1.3,3.8 l -0.2,0.3 c -0.4,1.4 -0.8,2.8 -1.4,4.1 -0.7,1.2 -1.5,2.4 -2.2,3.5 -0.8,1.3 -1.4,2.6 -2.4,3.8 -0.7,1.1 -1.8,2 -2.7,3.1 -1.1,1.1 -1.9,2.2 -3,3.2 -1,0.9 -2.2,1.7 -3.4,2.5 -1.1,0.8 -2.2,1.8 -3.5,2.6 -1.1,0.7 -2.5,1.2 -3.7,1.8 -1.3,0.6 -2.6,1.4 -4,1.8 -1.4,0.5 -2.9,0.8 -4.3,1.2 -1.4,0.3 -2.7,0.8 -4.1,1 -1.6,0.3 -3.2,0.2 -4.8,0.3 -1.3,0 -2.6,0.2 -4,0.2 h -0.3 -0.2 c -1.4,-0.1 -2.8,-0.5 -4.1,-0.7 -1.6,-0.2 -3.2,-0.3 -4.7,-0.7 -1.4,-0.4 -2.8,-1 -4.1,-1.6 -1.4,-0.5 -2.8,-0.8 -4,-1.5 -1.5,-0.7 -2.7,-1.5 -4,-2.4 -1.1,-0.6 -2.3,-1.3 -3.4,-2 -1.2,-1 -2.3,-2.1 -3.4,-3.2 -0.9,-0.8 -2,-1.7 -2.8,-2.6 -1,-1.1 -1.9,-2.5 -2.8,-3.7 -0.7,-1.1 -1.6,-2.1 -2.3,-3.2 -0.7,-1.2 -1.4,-2.6 -2,-4.1 -0.5,-1.2 -1.2,-2.3 -1.7,-3.6 -0.5,-1.3 -0.7,-2.8 -1.1,-4.2 l -0.1,-0.3 c -0.2,-1.3 -0.8,-2.7 -0.9,-3.9 -0.3,-1.6 -0.2,-3.4 -0.3,-5.1 -0.1,-1.2 -0.3,-2.4 -0.2,-3.7 v -0.3 -0.2 c 2.8,-48.1 -17.7,-98.8 -56.1,-138.9 -41,-42.6 -95.9,-67.9 -155,-71.3 -35.2,-2.2 -102.4,-2.2 -157,19.5 -20.9,8.3 -35.8,18.2 -46.5,28.7 -21.1,20.8 -25.6,44.2 -26.6,62.2 -1.4,24.6 -22.2,43.1 -46.9,41.9 -24.5,-1.5 -43.3,-22.5 -41.9,-47 3.5,-59.9 30.3,-108 78.3,-141.5 -3.3,-16.8 -4.6,-34.4 -3.6,-52.6 9.9,-189.3 251,-384.9 534.9,-370 284,14.8 503.3,234.6 493.4,423.9 -0.9,18.2 -4,35.6 -9,51.9 44.2,38.4 65.7,89 62.9,148.9"
         style="fill:#231f20;fill-opacity:1;fill-rule:nonzero;stroke:none"
         id="path2152" /><path
         d="m 20321.3,34845.9 c -3.8,72.7 -87.2,113.6 -187.1,108.4 -99.9,-5.2 -178.9,-47.3 -175.1,-119.9 3.8,-72.7 86.9,-108.9 186.8,-103.7 99.9,5.3 179.2,42.6 175.4,115.2"
         style="fill:#ed1c24;fill-opacity:1;fill-rule:nonzero;stroke:none"
         id="path2154" /><path
         d="m 20133.2,34849.7 c -34.5,0 -62.3,14.7 -63.4,35.9 -1.2,22.6 28.1,43.7 65.6,45.7 1.7,0 3.4,0.1 5.1,0.1 35.2,0 64,-19.4 65.1,-41 1.2,-22.5 -28.5,-38.6 -65.9,-40.6 -2.2,-0.1 -4.4,-0.1 -6.5,-0.1"
         style="fill:#f68e92;fill-opacity:1;fill-rule:nonzero;stroke:none"
         id="path2156" /><path
         d="m 20422.2,35711.1 c 5.8,-110.6 -130.6,-306.3 -311.1,-315.8 -180.5,-9.4 -336.7,171 -342.5,281.6 -5.8,110.6 141,109.6 321.5,119 180.5,9.5 326.3,25.9 332.1,-84.8"
         style="fill:#3c2415;fill-opacity:1;fill-rule:nonzero;stroke:none"
         id="path2158" /><path
         d="m 20021.5,35757.3 c -94.8,-5 -179.4,-12.3 -207.4,-43.3 -5,-5.4 -11.4,-15 -10.3,-35.3 4.6,-87.9 139.9,-256.9 305.4,-248.2 165.6,8.6 282.5,190.9 277.9,278.8 -1.1,20.2 -8.5,29.1 -14,34 -34.7,31.2 -136.4,25.5 -244.2,19.5 l -37,-2 -37,-1.9 c -11.2,-0.5 -22.4,-1.1 -33.4,-1.6 z m 91.4,-397.1 c -199.8,-10.5 -372.5,183 -379.4,314.8 -1.8,34.4 7.7,63.4 28.3,86.2 50.9,56.3 156.2,61.5 289.6,68 l 36.8,1.9 36.8,2 c 133.3,7.4 238.7,13.3 295.1,-37.4 22.9,-20.6 35.5,-48.4 37.3,-82.7 6.9,-131.9 -144.7,-342.4 -344.5,-352.8"
         style="fill:#231f20;fill-opacity:1;fill-rule:nonzero;stroke:none"
         id="path2160" /><path
         d="m 24169.6,34967.5 c -6.8,7.5 -14.3,12.9 -22.2,16.1 -34.5,14 -80.5,-10.6 -109.4,-35.9 -59.9,-52.4 -103.8,-131.8 -134.2,-242.7 -13.1,-47.9 -23.1,-98.4 -32.7,-147.2 -10.2,-51.7 -20.7,-104.9 -35.2,-157.3 -9.9,-35.8 -21.7,-71.6 -33.1,-106.1 -32.6,-98.6 -63.3,-191.9 -52.6,-285 7.5,-65.1 37.1,-129.2 83.5,-180.4 17.3,-19.2 36.8,-36.3 57.8,-50.9 76.3,-52.8 175,-74.5 270.7,-59.3 7.1,1.1 14.2,2.4 21.4,3.7 36.1,6.6 76.4,14 118.9,3.1 49.8,-12.8 85.5,-46.9 111.1,-75.2 8.2,-9 15.9,-18.1 23.3,-26.9 6.8,-8 13,-15.3 19.3,-22.4 l 1.4,-1.5 c 41.6,-45.9 93.8,-82.9 150.9,-106.9 37.9,-15.9 87.1,-22.8 105.8,-0.5 1.6,1.8 2.9,3.9 4.1,6.3 4.8,9.9 6,23.9 3,37.5 -0.3,1.7 -0.8,3.4 -1.3,5.1 -5.6,19.3 -18.4,39.5 -40.2,63.7 l -1.8,1.9 c -39.3,42.9 -85.6,77.7 -137.8,103.4 l -4.6,2.3 c -18.7,9.1 -42.1,20.5 -60.5,40.9 -5.3,5.9 -10,12.2 -13.9,18.9 -35.9,62 1.6,129.1 17.5,157.7 8.2,14.7 23.5,42 53.6,55.4 23.8,10.6 47.1,8.8 66.8,5.6 54.6,-8.9 104.4,-21.9 157,-35.6 l 24,-6.3 c 60.2,-15.5 122.6,-17.9 166.8,-6.3 40.4,10.6 77.7,46.7 84.8,82.2 3.4,17.3 -1.1,32.5 -13.7,46.5 -3.7,4 -8.1,8 -13.1,11.8 -26.4,20.1 -65.2,27.5 -103.2,32.6 -83.7,11 -168.8,13.2 -252.9,6.3 l -7.5,-0.6 c -37.5,-3.2 -80.1,-6.7 -122.5,9.3 -20.3,7.6 -39.7,21 -54.8,37.6 -29.3,32.4 -39.7,72.4 -28.6,109.8 14.3,48.3 57.6,72.5 86.3,88.6 108.5,60.7 194.6,127.1 263.1,203 31.8,35.3 49,71.5 46,96.9 -1.1,9.4 -5.6,18.4 -13.2,26.8 -12.8,14.2 -33.2,24.8 -53.1,27.6 -49.5,7 -96,-8.6 -126.2,-22.9 -82.4,-38.9 -163.7,-103.6 -235,-187.1 -4,-4.7 -8,-9.4 -12,-14.2 -30.9,-36.9 -65.9,-78.7 -119.2,-99 -42.6,-16.2 -94.8,-10.4 -133.1,14.6 -9.2,6 -17.4,13 -24.3,20.7 -17.1,18.9 -26.8,42.2 -28.1,67.3 -1.6,33.6 12.4,62 22.7,82.7 l 1,2 c 35.6,72.2 61.6,148.9 77.2,227.9 6.7,33.6 12.4,72.7 5,107.3 l 15.6,4.3 -15.8,-3.5 c -4,18 -12.1,34.4 -22.8,46.3"
         style="fill:#231f20;fill-opacity:1;fill-rule:nonzero;stroke:none"
         id="path2162" /><path
         d="m 24765.1,33475.5 c 11.9,24.2 12.7,53.9 5.1,80.2 -9.6,32.8 -30.6,61.1 -53.7,86.2 -43.3,47.3 -95.6,86.5 -153.1,114.9 -21.4,10.6 -45,20.9 -57,41.6 -18.9,32.5 -0.4,73.2 17.9,106.1 7.4,13.1 15.6,27.1 29.3,33.3 11.5,5.1 24.8,3.6 37.2,1.6 60.5,-9.8 117,-25.5 176.3,-40.8 59.3,-15.3 133.9,-21.8 193.1,-6.3 99.2,26.1 180.3,153.3 76.4,232.4 -36.2,27.5 -82.9,36.7 -128,42.7 -87.4,11.6 -176.1,13.8 -264,6.6 -36,-2.9 -73.5,-7.2 -107.4,5.5 -33.8,12.8 -62,49.2 -51.8,83.9 8.3,27.8 36.5,43.7 61.8,57.9 102.8,57.6 197.4,126.1 276.3,213.6 33.5,37.1 65.1,88.4 59.1,138 -6.3,53.1 -57.8,92.3 -110.7,99.7 -52.9,7.5 -107.4,-4.5 -155.7,-27.3 -97.1,-45.8 -182.7,-118.7 -252.5,-200.4 -32.3,-37.8 -63.5,-80.6 -110,-98.3 -46.5,-17.7 -112.5,6.7 -114.9,56.5 -1.1,20.8 9,40.3 18.3,59 37.6,76.3 65.2,157.5 81.6,241 8.5,42.6 14,86.9 4.6,129.4 -9.4,42.4 -36.1,83.1 -76.4,99.4 -55.1,22.3 -118.4,-5.9 -163.2,-45 -78.2,-68.4 -122.7,-167.9 -150.1,-268.2 -27.5,-100.3 -40.2,-204.1 -67.9,-304.3 -37.7,-136 -103.4,-270.8 -87.2,-411 12.3,-107.2 74.7,-206.7 163.3,-268.1 88.7,-61.4 201.9,-84.8 308.5,-68 39.6,6.3 80.3,17.8 119.2,7.8 55.1,-14.2 89.9,-66.3 127.9,-108.7 47.1,-52.6 106,-94.5 171,-121.7 54.9,-23.1 127.6,-31.6 165.8,14 4.3,5.2 8,10.8 10.9,16.8"
         style="fill:#c49a6c;fill-opacity:1;fill-rule:nonzero;stroke:none"
         id="path2164" /><path
         d="m 24773.4,33922.8 -24.1,6.3 c -52,13.5 -101.1,26.3 -154.5,35 -16.5,2.7 -34.2,4.1 -51.4,-3.5 -21.9,-9.8 -33.3,-30.3 -40.9,-43.9 -22.7,-40.7 -42.5,-88.1 -17.7,-130.9 14.9,-25.7 41.4,-38.7 62.8,-49.1 l 4.7,-2.3 c 55.2,-27.2 104.2,-64 145.8,-109.4 16.3,-17.7 38.9,-44.9 48.1,-76.3 6.4,-22 5.1,-44.7 -3.5,-62.1 -2.1,-4.4 -4.7,-8.4 -7.7,-11.8 -29.4,-35.2 -90,-26.8 -136.9,-7.1 -61.5,25.8 -117.5,65.7 -162.1,115.4 -6.6,7.4 -13.1,15.1 -19.7,22.9 -33.3,39.2 -67.6,79.7 -120.6,93.3 -12.3,3.2 -25.2,4.7 -39.4,4.7 -23.1,0 -45.6,-4.1 -67.4,-8.1 -7.5,-1.3 -15,-2.7 -22.5,-3.9 -102.5,-16.2 -208.3,7.1 -290.3,63.9 -84.4,58.4 -141.5,152 -152.8,250.4 -11.4,99 21.7,199.5 53.7,296.6 11.3,34.2 23,69.6 32.8,104.9 14.2,51.5 24.6,104.3 34.8,155.7 9.7,49.1 19.7,99.9 33.1,148.6 31.8,116.2 78.4,199.9 142.5,256 17.6,15.4 79.7,64 137.3,40.7 29.3,-11.9 52.8,-43.2 61.4,-81.7 8.8,-39.7 2.5,-82.6 -4.7,-119.2 -16.1,-81.3 -42.8,-160.3 -79.5,-234.7 l -1.1,-2 c -9.4,-19.1 -21.1,-42.8 -19.8,-69.4 1.3,-26.9 15.6,-50.5 40.1,-66.6 30.8,-20.1 74.5,-25 108.7,-12 46.7,17.8 77.9,55 108.4,91.6 4,4.7 7.8,9.3 11.8,13.9 73.8,86.4 158.2,153.5 244,194 48.2,22.7 97.2,31.5 141.6,25.2 39.5,-5.6 84.2,-34.8 89.4,-77.9 5.5,-46 -30.7,-93.9 -52.8,-118.4 -70.5,-78.1 -158.8,-146.3 -270,-208.5 -26.3,-14.7 -62.4,-34.9 -73.5,-72.6 -14.7,-49.6 23.3,-98 66.9,-114.4 36.7,-13.8 74.3,-10.7 110.7,-7.6 l 7.5,0.6 c 86.1,7 173.2,4.8 258.8,-6.5 41.6,-5.5 84.6,-13.9 116,-37.8 31.1,-23.7 43.5,-52.3 36.9,-85.2 -8.9,-44.8 -54.8,-90.1 -104.4,-103.1 -48.5,-12.7 -116,-10.4 -180.5,6.3 m 278.3,221.8 c -40.7,31 -91.3,41.2 -139.8,47.6 -89.1,11.8 -179.7,14.1 -269.3,6.7 l -7.7,-0.6 c -30.8,-2.6 -62.7,-5.3 -88.9,4.6 -22.3,8.4 -42.8,32.4 -36.6,53.4 5.4,18.2 29.1,31.5 50,43.2 116,64.9 208.5,136.4 282.7,218.6 27.8,30.8 73.2,92.2 65.3,157.8 -8.2,68.7 -72.6,113.1 -132,121.5 -54.1,7.6 -112.8,-2.5 -169.9,-29.5 -92.2,-43.5 -182.4,-115 -260.8,-206.7 -4.1,-4.9 -8.3,-9.9 -12.4,-14.8 -26.1,-31.1 -53,-63.3 -87.5,-76.4 -19.6,-7.5 -45.7,-4.6 -63.5,7.1 -11.1,7.2 -17,16.4 -17.6,27.2 -0.6,13.6 7.2,29.4 14.7,44.7 l 1.1,2.1 c 38.7,78.3 66.8,161.4 83.8,247.1 8.2,41.7 15.2,91 4.4,139.7 -12.2,55.2 -46.4,99 -91.4,117.2 -56.8,23 -127.4,4.5 -189,-49.4 -71.8,-62.7 -123.4,-154.4 -157.9,-280.4 -13.8,-50.6 -24.1,-102.4 -34,-152.5 -9.9,-50.2 -20.1,-102.1 -33.8,-151.7 -9.5,-34.2 -21,-69 -32,-102.5 -33.8,-102.3 -68.7,-208 -56,-318.1 13,-112.4 78,-219.3 174,-285.7 92.5,-64.1 211.5,-90.4 326.6,-72.2 7.9,1.3 15.8,2.7 23.7,4.2 30.5,5.5 59.3,10.8 85.4,4.1 37.5,-9.6 66.6,-44 95.1,-77.6 6.8,-8 13.6,-16 20.4,-23.6 49.4,-55.2 111.6,-99.4 179.9,-128.1 22.5,-9.4 57.3,-20.7 95.2,-20.7 42.2,0 76.6,14.5 99.4,41.7 5.6,6.6 10.3,13.9 14.2,21.8 14.1,28.6 16.5,64.4 6.7,98.3 -12.1,41.4 -39.6,74.7 -59.2,96.1 -45.8,49.9 -99.8,90.5 -160.6,120.4 l -4.8,2.4 c -16.9,8.3 -34.3,16.8 -41.6,29.3 -12.2,21.1 2.3,53 18.2,81.4 5.7,10.4 11.4,19.9 17.6,22.6 5.9,2.6 17,0.8 23,-0.1 51.1,-8.3 99.1,-20.9 150,-34.2 l 24.1,-6.2 c 72.4,-18.7 149.3,-21.1 205.7,-6.3 68.8,18.1 128,77.7 140.8,141.7 10.3,51.7 -9.5,99.6 -55.7,134.8"
         style="fill:#231f20;fill-opacity:1;fill-rule:nonzero;stroke:none"
         id="path2166" /><path
         d="m 24934.8,33912.4 c 101.5,73 102.1,135 51.9,176 -35.2,28.8 -80.1,33.2 -124.9,40.8 -43.7,7.3 -108.4,16.1 -157.5,23.2 13.7,0.5 27.5,0.7 41.2,0.7 53.5,0 106.9,-3.5 159.9,-10.5 41.6,-5.5 84.6,-13.9 116,-37.8 31.1,-23.7 43.5,-52.3 36.9,-85.2 -8.9,-44.8 -54.8,-90.1 -104.4,-103.1 -6.1,-1.6 -12.4,-2.9 -19.1,-4.1"
         style="fill:#e7d7c4;fill-opacity:1;fill-rule:nonzero;stroke:none"
         id="path2168" /><path
         d="m 24879.7,33877.5 c 21,11.9 39.3,23.5 55.1,34.9 6.7,1.2 13,2.5 19.1,4.1 49.6,13 95.5,58.3 104.4,103.1 6.6,32.9 -5.8,61.5 -36.9,85.2 -31.4,23.9 -74.4,32.3 -116,37.8 -53,7 -106.4,10.5 -159.9,10.5 -13.7,0 -27.5,-0.2 -41.2,-0.7 -48.8,7.1 -82.2,12.6 -64.2,13.5 19.2,0.8 38.4,1.3 57.6,1.3 69,0 138,-5.8 206,-17.2 44.9,-7.5 91.2,-18.4 126.4,-47.2 76.1,-62.3 50.1,-204.7 -150.4,-225.3"
         style="fill:#a7a5a6;fill-opacity:1;fill-rule:nonzero;stroke:none"
         id="path2170" /><path
         d="m 24731.4,33470.8 c -0.3,10.5 -1.9,21 -4.9,31 -9.5,32.8 -30.5,61 -53.6,86.2 -43.3,47.3 -82.7,89.2 -140.3,117.6 -21.4,10.6 -45,20.9 -57,41.6 -16.1,27.8 -14.3,59.5 -2.1,88.7 -1.1,-16.9 1.9,-33.8 11.3,-50.1 14.9,-25.7 41.4,-38.7 62.8,-49.1 l 4.7,-2.3 c 55.2,-27.2 104.2,-64 145.8,-109.4 16.3,-17.7 38.9,-44.9 48.1,-76.3 6.4,-22 5.1,-44.7 -3.5,-62.1 -2.1,-4.4 -4.7,-8.4 -7.7,-11.8 -1.1,-1.4 -2.3,-2.7 -3.6,-4"
         style="fill:#e7d7c4;fill-opacity:1;fill-rule:nonzero;stroke:none"
         id="path2172" /><path
         d="m 24723.8,33426.9 c 5.6,13.7 8.1,28.8 7.6,43.9 1.3,1.3 2.5,2.6 3.6,4 3,3.4 5.6,7.4 7.7,11.8 8.6,17.4 9.9,40.1 3.5,62.1 -9.2,31.4 -31.8,58.6 -48.1,76.3 -41.6,45.4 -90.6,82.2 -145.8,109.4 l -4.7,2.3 c -21.4,10.4 -47.9,23.4 -62.8,49.1 -9.4,16.3 -12.4,33.2 -11.3,50.1 2.1,5 4.5,9.9 7.2,14.7 7.3,13.1 15.6,27.1 29.3,33.2 1.1,0.5 2.2,0.9 3.3,1.3 -16.9,-31.6 -31.7,-69 -14.1,-99.3 12,-20.7 35.6,-31 57,-41.5 57.5,-28.4 109.7,-67.6 153.1,-114.9 23.1,-25.2 44.1,-53.5 53.6,-86.2 7.7,-26.3 6.9,-56 -5,-80.3 -2.9,-5.9 -6.6,-11.6 -10.9,-16.8 -6.7,-8 -14.6,-14.3 -23.2,-19.2"
         style="fill:#a7a5a6;fill-opacity:1;fill-rule:nonzero;stroke:none"
         id="path2174" /><path
         d="m 24148.7,34603 c 10.5,42.4 25,99.8 33.6,143.4 8.4,42.6 13.9,86.9 4.5,129.4 -9.4,42.5 -36,83.1 -76.3,99.5 -13.5,5.4 -27.4,7.8 -41.5,7.8 -12.2,0 -24.5,-1.8 -36.7,-5.1 20.1,15.2 55.3,37 92.6,37 10.8,0 21.8,-1.9 32.6,-6.2 10.4,-4.2 20,-10.8 28.5,-19.3 7.3,-7.8 13.8,-16.5 19.2,-25.9 6.1,-11 10.7,-23.3 13.7,-36.5 8.8,-39.7 2.5,-82.6 -4.7,-119.2 -13.9,-70.6 -35.9,-139.4 -65.5,-204.9"
         style="fill:#e7d7c4;fill-opacity:1;fill-rule:nonzero;stroke:none"
         id="path2176" /><path
         d="m 24135.8,34545.1 c -1.4,0 4.5,24.2 12.9,57.9 29.6,65.5 51.6,134.3 65.5,204.9 7.2,36.6 13.5,79.5 4.7,119.2 -3,13.2 -7.6,25.5 -13.7,36.5 8.4,-14.4 14.5,-30.3 18,-46.4 9.4,-42.5 3.9,-86.8 -4.5,-129.5 -16.5,-83.4 -44,-164.6 -81.7,-240.9 -0.5,-1.2 -0.9,-1.7 -1.2,-1.7 m -204.2,370.5 c 15.5,20.3 32.7,39.1 52.1,56 33.8,29.6 78.2,52.9 121.7,52.9 14.1,0 28,-2.4 41.5,-7.9 14.9,-6 28,-15.5 39.1,-27.1 -8.5,8.5 -18.1,15.1 -28.5,19.3 -10.8,4.3 -21.8,6.2 -32.6,6.2 -37.3,0 -72.5,-21.8 -92.6,-37 -30.9,-8.5 -60.7,-26.5 -85,-47.8 -5.4,-4.7 -10.6,-9.6 -15.7,-14.6"
         style="fill:#a7a5a6;fill-opacity:1;fill-rule:nonzero;stroke:none"
         id="path2178" /><path
         d="m 24822.8,34573.3 c 3.7,14.2 5.1,28.6 3.4,43 -6.4,53 -57.8,92.2 -110.7,99.6 -10.7,1.5 -21.4,2.3 -32,2.3 -36.2,0 -72.4,-8.2 -106.1,-21.8 16.3,9.7 32.9,18.5 49.4,26.3 38,18 76.6,27.2 113,27.2 9.7,0 19.2,-0.7 28.6,-2 22,-3.1 45.7,-13.6 63.2,-29.7 7.4,-7.3 13.8,-15.5 18.8,-24.3 3.8,-7.4 6.4,-15.4 7.4,-23.9 4.2,-34.8 -15.5,-70.7 -35,-96.7"
         style="fill:#e7d7c4;fill-opacity:1;fill-rule:nonzero;stroke:none"
         id="path2180" /><path
         d="m 24784.9,34499.7 c 16.8,22.1 31.2,47.5 37.9,73.6 19.5,26 39.2,61.9 35,96.7 -1,8.5 -3.6,16.5 -7.4,23.9 6.4,-11.1 10.6,-23.3 12.2,-36.3 5.9,-49.6 -25.6,-100.9 -59.1,-138 -6.1,-6.8 -12.3,-13.4 -18.6,-19.9 m -450.2,19.3 c 3,3.5 6,7.1 9,10.6 69.7,81.7 155.3,154.6 252.4,200.4 38.6,18.2 81.2,29.6 123.8,29.6 10.6,0 21.3,-0.8 31.9,-2.3 29.6,-4.1 58.8,-18.2 79.8,-39.1 -17.5,16.1 -41.2,26.6 -63.2,29.7 -9.4,1.3 -18.9,2 -28.6,2 -36.4,0 -75,-9.2 -113,-27.2 -16.5,-7.8 -33.1,-16.6 -49.4,-26.3 -6,-2.5 -11.9,-5 -17.7,-7.8 -84.7,-40 -160.7,-100.6 -225,-169.6"
         style="fill:#a7a5a6;fill-opacity:1;fill-rule:nonzero;stroke:none"
         id="path2182" /><path
         d="m 24144,34100.1 c 14.8,27.8 23.2,59.7 24.4,92 1.3,30.4 -3.5,61.7 -14.4,93 -11.2,31.5 -26.4,57.9 -45.2,78.7 l -1.1,1.2 c -1.6,1.7 -4.2,2.1 -6.2,0.9 -2.1,-1.1 -3.1,-3.5 -2.4,-5.8 9.1,-30.3 15.8,-57.8 20.3,-84.1 5.2,-30.6 7.2,-57.5 6.1,-82.1 -1.1,-27.4 -5.9,-54.1 -14.4,-79.6 -9.2,-28 -23.6,-54.6 -36.6,-76.9 -1.1,-1.9 -0.8,-4.3 0.7,-5.9 l 0.2,-0.3 c 1.8,-1.6 4.3,-1.8 6.3,-0.5 25.8,17.1 47.3,41.1 62.3,69.4"
         style="fill:#231f20;fill-opacity:1;fill-rule:nonzero;stroke:none"
         id="path2184" /><path
         d="m 24571.3,33891.2 z m 102.8,-515.2 c -36,0 -73,9.1 -105,22.6 -71.7,30 -137,76.5 -188.9,134.4 -7.1,7.9 -14.1,16.2 -21.2,24.5 -26.8,31.6 -52.1,61.5 -81.9,69.2 -20.7,5.3 -46.9,0.5 -74.7,-4.6 -8.1,-1.4 -16.2,-2.9 -24.3,-4.2 -113.1,-17.8 -212.6,13.8 -304.7,72.9 -10.7,6.9 -13,21.8 -4.8,31.6 v 0 c 6.5,7.8 17.7,9.7 26.7,4.7 75.6,-41.5 177.1,-24.7 267.2,-10.4 7.3,1.1 14.6,2.5 22,3.8 35.3,6.5 75.5,13.8 117.4,3 60.7,-15.5 99.4,-61.1 133.4,-101.4 6.5,-7.5 12.9,-15.1 19.4,-22.4 42,-46.9 94.9,-84.6 153,-108.9 38.6,-16.2 88.8,-23.1 108.2,0 1.7,2 3.1,4.3 4.4,6.8 5.7,11.6 6.4,28.5 1.8,44.2 -5.8,20 -19.3,41.1 -42.4,66.3 -38.9,42.5 -86.8,78.4 -138.4,103.9 l -4.7,2.2 c -23.1,11.3 -54.7,26.8 -73.4,59.1 -35.3,60.9 1.7,127.2 17.5,155.6 8.6,15.5 23.1,41.4 52.6,54.5 23.2,10.4 46.2,8.5 65.6,5.4 54.5,-8.9 106.5,-22.4 156.8,-35.6 l 23.9,-6.2 c 59.7,-15.4 124,-17.8 167.9,-6.3 41.2,10.8 79.1,47.6 86.3,83.7 4.6,23.1 -4.4,42.9 -27.5,60.5 -26.8,20.4 -65.9,27.9 -104.2,32.9 -83.8,11.1 -169.1,13.3 -253.4,6.4 l -7.5,-0.6 c -37.3,-3.2 -79.6,-6.7 -121.6,9.1 -54.1,20.4 -100.8,81.5 -82.1,144.9 14.1,47.5 56.9,71.5 85.3,87.3 108.8,60.9 195,127.5 263.6,203.5 32.3,35.7 49.7,72.6 46.6,98.6 -3.6,29.6 -37.4,51.8 -68.1,56.1 -50,7.1 -96.9,-8.6 -127.4,-23 -82.7,-39 -164.2,-103.9 -235.7,-187.6 -4,-4.7 -8,-9.5 -12,-14.2 -30.7,-36.8 -65.5,-78.4 -118.3,-98.4 -42,-16 -93.5,-10.3 -131.3,14.4 -30.9,20.3 -49.7,51.7 -51.4,86.3 -1.6,33 11.7,60 22.4,81.6 l 1,2.1 c 35,70.6 60.6,145.3 76.3,222.5 7.2,35.3 14.2,77.6 6,114.9 -6.7,30.1 -24.9,55.2 -46.4,63.9 -35.3,14.3 -82.1,-10.6 -111.5,-36.3 -60.2,-52.7 -104.3,-132.5 -134.8,-243.8 -13.3,-48.3 -40.4,-160.2 -66.7,-268.4 -24.6,-101.3 -73.2,-244.5 -94.3,-312.7 -4.2,-13.5 -17.4,-22.1 -31.4,-20.4 -16.8,1.9 -28.4,17.6 -25.5,34.1 13.2,73.7 30.3,225.1 54,322.7 27.7,113.8 53.8,221.4 67.4,271.1 35.9,130.9 90,226.6 165.5,292.6 68.9,60.3 149.2,80.4 214.9,53.8 52.6,-21.3 92.4,-71.8 106.4,-135 12.4,-56.2 3.6,-111.4 -5.8,-157.2 -17.4,-85.3 -45.8,-168 -84.4,-246.1 l -1,-2.1 c -5.9,-11.9 -12.6,-25.3 -12.2,-32.4 0.1,-2.9 3.5,-5.7 6.3,-7.5 11.1,-7.3 28.7,-9.3 40.9,-4.6 28.4,10.7 52.1,39 77.2,69 4.2,5 8.4,10.1 12.6,15 80.7,94.4 173.7,168.1 269.1,213.2 61.5,29 125.1,39.9 184.1,31.6 68.8,-9.8 143.6,-62.1 153.4,-143.3 6.7,-55.9 -18.8,-118.9 -71.7,-177.5 -76,-84.3 -170.5,-157.4 -288.9,-223.7 -13.4,-7.5 -35.8,-20.1 -38.3,-28.5 -1.2,-3.9 7,-17.5 21.4,-22.9 20.9,-7.9 48.7,-5.5 78,-3.1 l 7.8,0.7 c 91.3,7.4 183.7,5.1 274.6,-6.9 51.9,-6.9 106.3,-18 151.6,-52.6 53.5,-40.6 77.2,-98.8 65.1,-159.5 -14.8,-74.1 -80.2,-140.3 -159,-160.9 -86.9,-22.9 -181.6,-3.3 -218.3,6.2 l -24.1,6.3 c -50.3,13.1 -97.8,25.5 -147.7,33.6 -3.8,0.6 -6.4,0.9 -8.2,1.1 -2.3,-3.3 -5.2,-8.5 -6.6,-11 -22.7,-40.7 -20.4,-53.3 -18.3,-56.8 3.4,-5.9 18.6,-13.4 30.8,-19.3 l 5,-2.5 c 63.5,-31.3 120,-73.7 167.9,-125.9 21.3,-23.3 51.2,-59.5 64.8,-106 11.5,-39.8 8.6,-82.2 -8.2,-116.3 -4.8,-9.8 -10.7,-18.8 -17.5,-26.9 -30.7,-36.6 -73.9,-50.5 -118.4,-50.5"
         style="fill:#231f20;fill-opacity:1;fill-rule:nonzero;stroke:none"
         id="path2186" /></g></g></svg>
