<?xml version="1.0" encoding="UTF-8" standalone="no"?>
<!-- Created with Inkscape (http://www.inkscape.org/) -->

<svg
   version="1.1"
   id="svg2"
   xml:space="preserve"
   width="5333.3335"
   height="4000"
   viewBox="100 200 1700 1800"
   sodipodi:docname="vecteezy_cute-job-monkey-cartoon-bundle-set_.eps"
   xmlns:inkscape="http://www.inkscape.org/namespaces/inkscape"
   xmlns:sodipodi="http://sodipodi.sourceforge.net/DTD/sodipodi-0.dtd"
   xmlns="http://www.w3.org/2000/svg"
   xmlns:svg="http://www.w3.org/2000/svg"><defs
     id="defs6" /><sodipodi:namedview
     id="namedview4"
     pagecolor="#ffffff"
     bordercolor="#666666"
     borderopacity="1.0"
     inkscape:pageshadow="2"
     inkscape:pageopacity="0.0"
     inkscape:pagecheckerboard="0" /><g
     id="g8"
     inkscape:groupmode="layer"
     inkscape:label="ink_ext_XXXXXX"
     transform="matrix(1.3333333,0,0,-1.3333333,0,4000)"><g
       id="g10"
       transform="scale(0.1)"><path
         d="m 9946.97,4435.5 c -198.22,0 -394.55,124.7 -429,391.1 -15.53,120 47.19,258.6 122.03,358.8 l 15.72,0.6 c -57.62,-89.4 -101.3,-199.4 -94.89,-298.9 -5.08,-28.6 -6.5,-56.8 -3.03,-83.7 21.06,-162.7 114.26,-280.7 255.71,-323.8 38.35,-11.6 77.88,-17.3 117.13,-17.3 43.55,0 86.76,7 127.66,20.3 82,11.6 161.3,44.7 226.1,97.9 -86.4,-95.3 -212.3,-145 -337.43,-145"
         style="fill:#231f20;fill-opacity:1;fill-rule:nonzero;stroke:none"
         id="path894" /><path
         d="m 9787.09,4453.8 c -14.48,-0.8 -26.83,10.3 -27.59,24.8 l -6.54,125.9 c -0.75,14.5 10.37,26.8 24.86,27.6 14.48,0.7 26.83,-10.4 27.59,-24.9 l 6.54,-125.9 c 0.75,-14.4 -10.38,-26.8 -24.86,-27.5"
         style="fill:#231f20;fill-opacity:1;fill-rule:nonzero;stroke:none"
         id="path896" /><path
         d="m 10124.9,4471.3 c -14.5,-0.7 -26.8,10.4 -27.6,24.9 l -6.5,125.9 c -0.7,14.4 10.4,26.8 24.9,27.5 14.5,0.8 26.8,-10.3 27.6,-24.8 l 6.5,-125.9 c 0.7,-14.5 -10.4,-26.8 -24.9,-27.6"
         style="fill:#231f20;fill-opacity:1;fill-rule:nonzero;stroke:none"
         id="path898" /><path
         d="m 10045.4,4365.1 c 102.3,23.1 196.7,76.5 265.8,155.5 85,97 202.4,314.9 34.1,684.3 -12,26.4 -43.2,38 -69.6,26 -26.4,-12 -38,-43.2 -26,-69.5 106.6,-234 100.4,-437 -17.5,-571.6 -100.5,-114.8 -269.39,-161.1 -420.22,-115.2 -143.51,43.7 -238.05,163.3 -259.38,328.1 -13.87,107.3 48.77,236 112.03,320.7 17.36,23.2 12.59,56.1 -10.65,73.5 -23.22,17.3 -56.13,12.6 -73.49,-10.7 -97.89,-131 -147.26,-279.4 -132.05,-396.9 26.86,-207.7 148.22,-359 332.97,-415.2 86.6,-26.3 178.09,-28.3 263.99,-9"
         style="fill:#231f20;fill-opacity:1;fill-rule:nonzero;stroke:none"
         id="path900" /><path
         d="M 5137.65,8097.6 C 4005.75,7756.1 3658.92,6362.8 3874.97,5317.8 c 5.04,-24.4 23.04,-44.1 46.7,-51.9 308.52,-101.7 656.17,-82.2 985.66,-107.9 43.66,-3.3 77.46,33.9 74.42,77.6 -75.84,1089.6 90.24,1222.5 164.37,1825.1 0.02,0 11.65,246.5 17.04,499.1 5.74,268.9 4.42,544.8 -25.51,537.8"
         style="fill:#ffffff;fill-opacity:1;fill-rule:nonzero;stroke:none"
         id="path902" /><path
         d="m 3970.7,5312 c -2.09,0.7 -4.19,1.3 -6.29,1.9 l -11.38,3.5 -5.69,1.7 -2.83,0.9 -0.58,0.3 c -1.58,0.5 -2.93,1.5 -4.17,2.5 -1.16,1.1 -2.15,2.3 -2.77,3.6 l -0.78,1.9 -0.26,1 -0.08,0.2 -0.28,1.5 -0.55,3 -8.83,48 -8.73,47.9 -7.14,48.3 c -37.67,257.4 -41.28,520.2 -12.7,778.8 28.63,258.6 91.33,513.5 191.53,751.9 100.21,237.9 240.28,459.3 422.73,638.3 91.02,89.5 192.32,168 301.76,232.7 101.47,60.1 209.84,108.2 322.34,144.2 3.94,-2.4 7.91,-4.8 11.88,-7.2 C 4106,7633.8 3778.61,6322 3970.7,5312"
         style="fill:#ffffff;fill-opacity:1;fill-rule:nonzero;stroke:none"
         id="path904" /><path
         d="m 4918.94,5211.5 h -2.22 l -2.58,0.1 -25.15,1.9 c -8.58,0.6 -17.17,1.2 -25.75,1.8 0.25,3.6 0.25,7.1 0,10.8 -53.26,765.1 12.78,1058.5 82.51,1374 3.13,14.2 57.36,78 98.12,108.6 -3.25,-8.8 -6.16,-18.7 -8.6,-29.6 -28.7,-128.9 -59.17,-259.8 -79.43,-393.2 -20.72,-133.3 -31.69,-267.9 -36.79,-402.1 l -2.23,-100.7 -0.55,-25.1 0.15,-25.1 0.35,-50.3 c 0.45,-33.4 -0.02,-67 1.19,-100.4 l 3.29,-100.2 1.66,-50.1 2.68,-50 5.58,-99.9 2.79,-49.9 c 0.13,-5.4 -1.11,-10.4 -3.74,-13.9 -2.46,-3.8 -5.72,-5.5 -8.72,-6.4 -0.82,-0.1 -1.63,-0.3 -2.56,-0.3"
         style="fill:#b2b1b1;fill-opacity:1;fill-rule:nonzero;stroke:none"
         id="path906" /><path
         d="m 5123.01,8163.1 c -131.94,-40.7 -259.39,-97 -377.86,-168.2 -118.54,-71.2 -227.9,-157.2 -325.47,-254.4 -195.65,-194.6 -342.73,-431.9 -446.6,-683.2 -52.06,-125.8 -93.67,-255.5 -125.96,-387.2 -32.35,-131.7 -55.27,-265.5 -69.2,-400.1 -27.88,-269.1 -22.32,-541.4 18.66,-808.9 l 7.78,-50.2 9.41,-49.9 9.55,-49.9 0.6,-3.1 0.3,-1.5 0.65,-2.8 c 0.83,-3.7 1.86,-7.4 3.08,-11 2.38,-7.2 5.41,-14.3 9.09,-20.9 7.25,-13.3 16.97,-25.1 28.28,-35 11.39,-9.7 24.39,-17.5 38.37,-22.7 l 5.26,-1.9 3.13,-1 6.21,-1.8 12.44,-3.7 c 16.61,-4.8 33.08,-10.5 49.83,-14.5 l 50.17,-12.6 50.4,-10.6 c 67.31,-13.1 134.84,-22.4 202.22,-29.3 67.35,-6.6 134.49,-10.9 201.34,-14.2 133.62,-6.6 266.13,-8.8 396.73,-17.8 l 24.49,-1.6 3.63,-0.2 5.46,-0.1 c 3.65,-0.1 7.26,-0.2 10.97,0.2 7.38,0.4 14.72,1.7 21.99,3.5 29.08,7.5 54.67,26.2 70.41,50.2 16.25,23.9 23.17,52.9 21.33,80.6 l -3.09,49.4 -6.2,98.8 -2.97,49.4 -1.96,49.3 -3.92,98.8 c -1.42,32.9 -1.16,65.7 -1.83,98.6 l -0.68,49.3 -0.32,24.6 0.38,24.6 1.51,98.4 c 4.12,131.1 13.87,261.5 33.04,390.6 18.72,129.2 47.55,257.2 75.67,387.6 28.29,130.2 -65.16,149.3 -94.06,20.4 -28.7,-128.9 -59.17,-259.8 -79.43,-393.2 -20.72,-133.3 -31.69,-267.9 -36.79,-402.1 l -2.23,-100.7 -0.55,-25.1 0.15,-25.1 0.35,-50.3 c 0.45,-33.4 -0.02,-67 1.19,-100.4 l 3.29,-100.2 1.66,-50.1 2.68,-50 5.58,-99.9 2.79,-49.9 c 0.13,-5.4 -1.11,-10.4 -3.74,-13.9 -2.46,-3.8 -5.72,-5.5 -8.72,-6.4 -0.82,-0.1 -1.63,-0.3 -2.56,-0.3 h -1.46 -0.76 l -2.58,0.1 -25.15,1.9 c -134.18,10 -267.16,13.1 -398.59,20.5 -65.67,3.7 -130.97,8.3 -195.67,15.1 -64.59,7 -128.57,16.4 -191.43,29.1 l -46.94,10.2 -46.29,11.9 c -15.5,3.8 -30.42,9.1 -45.66,13.6 l -11.38,3.5 -5.69,1.7 -2.83,0.9 -0.58,0.3 c -1.58,0.5 -2.93,1.5 -4.17,2.5 -1.16,1.1 -2.15,2.3 -2.77,3.6 l -0.78,1.9 -0.26,1 -0.08,0.2 -0.28,1.5 -0.55,3 -8.83,48 -8.73,47.9 -7.14,48.3 c -37.67,257.4 -41.28,520.2 -12.7,778.8 28.63,258.6 91.33,513.5 191.53,751.9 100.21,237.9 240.28,459.3 422.73,638.3 91.02,89.5 192.32,168 301.76,232.7 109.4,64.8 226.82,115.7 348.78,152.5 l 0.4,0.1 c 36.1,10.9 56.55,49 45.66,85.1 -10.89,36 -48.97,56.5 -85.07,45.6 l -0.42,-0.1"
         style="fill:#231f20;fill-opacity:1;fill-rule:nonzero;stroke:none"
         id="path908" /><path
         d="m 4826.68,5154.8 c 74.85,-100.2 137.56,-238.8 122.03,-358.8 -85.87,-663.8 -1177.63,-448.4 -796.96,387.1 l 674.93,-28.3"
         style="fill:#865439;fill-opacity:1;fill-rule:nonzero;stroke:none"
         id="path910" /><path
         d="m 4796.09,5098.3 c 56.82,-83.1 107.87,-198.1 95.34,-294.9 -21.04,-162.7 -114.25,-280.7 -255.7,-323.8 -148.88,-45.3 -315.55,0.4 -414.71,113.6 -110.5,126.2 -121.5,313.6 -32.08,530.5 l 607.15,-25.4 m -492.14,-705.5 c 112.49,-50.2 243.67,-60.7 365.39,-23.7 186.83,56.8 309.53,209.7 336.67,419.5 15.37,118.8 -34.37,268.7 -133.06,400.8 -10.4,13.9 -26.5,22.4 -43.85,23.1 l -674.93,28.3 c -23.49,1 -45.24,-12.3 -54.99,-33.7 -169.52,-372.1 -50.89,-592 34.92,-690 46.88,-53.5 105.29,-95.5 169.85,-124.3"
         style="fill:#231f20;fill-opacity:1;fill-rule:nonzero;stroke:none"
         id="path912" /><path
         d="m 4518.6,4462.3 c -43.55,0 -86.75,7 -127.62,20.3 22.12,-3.1 44.44,-4.7 66.74,-4.7 198.18,0 394.49,124.8 428.94,391 0.78,6.1 1.36,12.1 1.75,18.2 5.08,-28.6 6.5,-56.8 3.02,-83.7 -21.04,-162.7 -114.25,-280.7 -255.7,-323.8 -38.35,-11.6 -77.88,-17.3 -117.13,-17.3"
         style="fill:#634230;fill-opacity:1;fill-rule:nonzero;stroke:none"
         id="path914" /><path
         d="m 4502.27,4435.5 c -125.15,0 -251.07,49.7 -337.43,145 64.82,-53.2 144.06,-86.3 226.14,-97.9 40.87,-13.3 84.07,-20.3 127.62,-20.3 39.25,0 78.78,5.7 117.13,17.3 141.45,43.1 234.66,161.1 255.7,323.8 3.48,26.9 2.06,55.1 -3.02,83.7 6.4,99.5 -37.27,209.5 -94.89,298.9 l 15.71,-0.6 c 74.84,-100.2 137.56,-238.8 122.04,-358.8 -34.45,-266.4 -230.78,-391.1 -429,-391.1"
         style="fill:#231f20;fill-opacity:1;fill-rule:nonzero;stroke:none"
         id="path916" /><path
         d="m 4662.15,4453.8 c 14.48,-0.8 26.83,10.3 27.58,24.8 l 6.54,125.9 c 0.76,14.5 -10.37,26.8 -24.85,27.6 -14.49,0.7 -26.84,-10.4 -27.59,-24.9 l -6.54,-125.9 c -0.75,-14.4 10.38,-26.8 24.86,-27.5"
         style="fill:#231f20;fill-opacity:1;fill-rule:nonzero;stroke:none"
         id="path918" /><path
         d="m 4324.3,4471.3 c 14.48,-0.7 26.83,10.4 27.58,24.9 l 6.55,125.9 c 0.75,14.4 -10.38,26.8 -24.86,27.5 -14.48,0.8 -26.83,-10.3 -27.58,-24.8 l -6.55,-125.9 c -0.75,-14.5 10.38,-26.8 24.86,-27.6"
         style="fill:#231f20;fill-opacity:1;fill-rule:nonzero;stroke:none"
         id="path920" /><path
         d="m 4403.81,4365.1 c -102.23,23.1 -196.62,76.5 -265.75,155.5 -84.98,97 -202.41,314.9 -34.1,684.3 12.02,26.4 43.19,38 69.56,26 26.4,-12 38.04,-43.2 26.02,-69.5 -106.61,-234 -100.38,-437 17.53,-571.6 100.49,-114.8 269.35,-161.1 420.19,-115.2 143.51,43.7 238.05,163.3 259.38,328.1 13.87,107.3 -48.78,236 -112.04,320.7 -17.35,23.2 -12.59,56.1 10.65,73.5 23.23,17.3 56.14,12.6 73.5,-10.7 97.89,-131 147.25,-279.4 132.05,-396.9 -26.86,-207.7 -148.23,-359 -332.98,-415.2 -86.6,-26.3 -178.08,-28.3 -264.01,-9"
         style="fill:#231f20;fill-opacity:1;fill-rule:nonzero;stroke:none"
         id="path922" /><path
         d="m 5334.05,8142.1 c 9.8,27.1 118.22,336.5 184.26,525.2 l 14.39,41.1 c 5.54,15.8 20.49,26.6 37.21,26.9 3141.5,60.3 3141.62,60.3 3141.8,60.3 15.73,0 30.12,-9.2 36.62,-23.6 l 428.92,-942.4 c 85.19,-187.2 97.97,-398.3 36,-594.4 l -234.36,-741.5 c -3.19,-10 -10.4,-18.6 -19.81,-23.5 -5.72,-3 -12.14,-4.6 -18.56,-4.6 -4.13,0 -8.2,0.7 -12.14,1.9 L 8809,6505.2 c -10.26,3.3 -18.64,10.3 -23.59,19.9 -4.95,9.5 -5.89,20.4 -2.66,30.6 l 234.34,741.5 c 46.64,147.5 37.03,306.3 -27.06,447.2 l -383.89,843.5 -2917.29,-56 c -160.62,-458.8 -162.76,-463.8 -164.32,-467.4 -94.44,-223 -44.94,-482.8 125.99,-662 l 336.26,-345.3 c 15.48,-15.9 15.14,-41.4 -0.75,-56.9 l -89.7,-87.4 c -7.55,-7.3 -17.53,-11.4 -28.62,-11.4 -10.74,0.2 -20.79,4.5 -28.29,12.2 l -337,346 c -227.44,238.4 -293.44,585.1 -168.37,882.4"
         style="fill:#231f20;fill-opacity:1;fill-rule:nonzero;stroke:none"
         id="path924" /><path
         d="m 9042.61,6828.9 c -30.24,6.1 -61.44,9.3 -93.23,9.3 -11.86,0 -23.72,-0.4 -35.56,-1.3 l 141.65,448.1 c 49.65,157.1 39.41,326.1 -28.81,476.1 l -45.67,100.3 c 40.58,14.1 79.63,28.9 117.33,44.5 l 42.3,-93 c 81.07,-178.1 93.22,-379 34.24,-565.6 l -132.25,-418.4 m -3262.7,203.6 -248.36,255 c -167.24,175.3 -242.75,411.7 -213.57,640.7 38.68,-17.3 78.94,-33.7 120.83,-49.3 -13.47,-181.6 50.6,-365.9 182.87,-504.5 l 293.38,-301.2 c -46.69,-11.8 -91.75,-25.4 -135.15,-40.7"
         style="fill:#393637;fill-opacity:1;fill-rule:nonzero;stroke:none"
         id="path926" /><path
         d="m 5822.78,4877.5 2.16,188.4 c -210.66,8.2 -350.31,59.3 -426.93,156.3 -50.34,63.8 -75.33,153 -93.14,231.8 -94.06,416.7 -123.58,973.7 269.92,1261 114.89,83.9 257.29,145.6 423.14,183.2 l 1.77,0.4 1.53,0.4 c 164.34,44.6 319.62,57 461.66,37.1 486.59,-68.1 734.51,-570.7 856.81,-980.3 23.14,-77.5 45.07,-167.5 32.22,-246.9 -19.54,-121 -116.95,-231.2 -297.8,-336.9 l 44.26,-76.9 h -0.01 l 50.29,-87.4 c 230.26,134.5 356.24,286.9 385.14,465.7 19.04,117.8 -8.49,234.5 -37.94,333.2 -138.55,464 -426.7,1034.3 -1012.69,1116.4 -165.75,23.2 -344.52,9.4 -531.48,-41 -188.8,-43.2 -352.55,-114.7 -486.55,-212.6 -473.9,-346 -446.35,-981.2 -339.79,-1453.2 22.65,-100.3 55.87,-215.6 130.5,-310.1 113.26,-143.4 298.71,-218.2 566.93,-228.6"
         style="fill:#231f20;fill-opacity:1;fill-rule:nonzero;stroke:none"
         id="path928" /><path
         d="m 5767.68,4936.6 c -220.08,17.3 -373.51,84.3 -468.06,204 -67.72,85.8 -98.6,193.7 -119.86,287.9 -102.89,455.7 -131.18,1067.7 318.27,1395.9 58.75,42.9 124.41,80.9 195.13,113.1 82.61,37.6 173.78,67.9 270.95,90.1 l 2.12,0.5 c 123.38,33.3 242.89,50 356.99,50 51.9,0 102.7,-3.4 152.22,-10.4 556.68,-77.9 833.1,-628.7 966.97,-1077.1 27.64,-92.6 53.58,-201.6 36.32,-308.3 -24.05,-148.9 -125.73,-279.2 -310.27,-397.2 l -38.92,67.7 c 166.02,106.4 256.95,220.3 277.45,347.2 14.64,90.5 -8.9,188.2 -33.85,271.8 -126.98,425.2 -386.62,947.4 -902.51,1019.6 -46.29,6.5 -93.84,9.7 -142.54,9.7 -108.61,0 -222.9,-16.1 -341.23,-48.2 l -1.27,-0.3 c -93.54,-21.2 -181.04,-50.2 -260.07,-86.2 -66.67,-30.3 -128.45,-66.1 -183.61,-106.4 -417.96,-305.1 -389.18,-885.3 -291.44,-1318.2 19.19,-85 46.51,-181.6 103.77,-254.1 80.22,-101.6 216.07,-158.8 414.32,-174.3 l -0.88,-76.8"
         style="fill:#4f4c4d;fill-opacity:1;fill-rule:nonzero;stroke:none"
         id="path930" /><path
         d="m 6917.18,5242.8 c 19.59,-74.8 100.21,-119.3 180.08,-99.4 79.86,19.9 128.74,96.6 109.16,171.4 -19.59,74.8 -100.21,119.3 -180.08,99.4 -79.87,-19.9 -128.74,-96.6 -109.16,-171.4"
         style="fill:#58595b;fill-opacity:1;fill-rule:nonzero;stroke:none"
         id="path932" /><path
         d="m 7033.44,5387.1 c 63.79,15.9 128.41,-19.7 144.06,-79.5 15.63,-59.7 -23.54,-121.2 -87.33,-137.1 -63.8,-15.9 -128.42,19.8 -144.06,79.5 -15.64,59.7 23.53,121.2 87.33,137.1 z m 70.91,-270.8 c 95.69,23.8 154.45,116.1 130.99,205.7 -23.46,89.6 -120.4,143.1 -216.09,119.3 -95.69,-23.8 -154.45,-116.1 -130.99,-205.7 23.46,-89.6 120.4,-143.1 216.09,-119.3"
         style="fill:#231f20;fill-opacity:1;fill-rule:nonzero;stroke:none"
         id="path934" /><path
         d="m 5719.43,4944.5 c 19.58,-74.8 100.2,-119.3 180.07,-99.4 79.88,19.9 128.74,96.6 109.16,171.4 -19.58,74.8 -100.2,119.3 -180.07,99.4 -79.87,-19.9 -128.74,-96.6 -109.16,-171.4"
         style="fill:#58595b;fill-opacity:1;fill-rule:nonzero;stroke:none"
         id="path936" /><path
         d="m 5835.68,5088.8 c 63.8,15.9 128.42,-19.7 144.06,-79.5 15.64,-59.7 -23.53,-121.2 -87.32,-137.1 -63.8,-15.9 -128.42,19.8 -144.07,79.5 -15.64,59.7 23.54,121.2 87.33,137.1 z M 5906.6,4818 c 95.69,23.9 154.45,116.1 130.99,205.7 -23.46,89.6 -120.4,143.1 -216.09,119.3 -95.69,-23.8 -154.45,-116.1 -130.99,-205.7 23.46,-89.6 120.4,-143.1 216.09,-119.3"
         style="fill:#231f20;fill-opacity:1;fill-rule:nonzero;stroke:none"
         id="path938" /><path
         d="m 9051.49,5999.7 c -222.82,-63.4 -453.03,59.7 -514.19,275 -61.16,215.2 69.87,440.9 292.69,504.3 222.8,63.3 453.01,-59.8 514.18,-275 61.17,-215.2 -69.88,-441 -292.68,-504.3"
         style="fill:#58595b;fill-opacity:1;fill-rule:nonzero;stroke:none"
         id="path940" /><path
         d="m 9255.54,6199 c 28.22,76.5 33.4,161.5 9.69,245 -50.29,176.9 -214.83,291.6 -395.61,291.6 -14.39,0 -28.87,-0.7 -43.41,-2.2 5.08,1.6 10.21,3.2 15.39,4.7 34.47,9.8 69.93,14.7 105.39,14.7 164.79,0 310.39,-107.3 354.08,-261.1 26.48,-93.1 13.77,-191.5 -35.77,-276.8 -3.13,-5.4 -6.39,-10.7 -9.76,-15.9"
         style="fill:#c5c5c6;fill-opacity:1;fill-rule:nonzero;stroke:none"
         id="path942" /><path
         d="m 8946.99,6752.8 c -35.46,0 -70.92,-4.9 -105.39,-14.7 -95.97,-27.3 -176.03,-89.2 -225.43,-174.3 -49.55,-85.4 -62.27,-183.7 -35.78,-276.9 43.69,-153.7 189.29,-261.1 354.08,-261.1 h 0.02 c 35.46,0 70.9,4.9 105.37,14.7 95.96,27.3 176.03,89.2 225.44,174.4 49.54,85.3 62.25,183.7 35.77,276.8 -43.69,153.8 -189.29,261.1 -354.08,261.1 m -14.91,-812.4 c -203.92,0 -383.99,132.4 -437.88,322 -32.58,114.7 -16.86,235.8 44.27,341.2 61.27,105.6 160.68,182.4 279.89,216.3 42.88,12.1 86.96,18.3 131.02,18.3 203.93,0 383.99,-132.4 437.87,-322 32.6,-114.6 16.88,-235.8 -44.26,-341.1 -61.28,-105.6 -160.68,-182.5 -279.89,-216.3 -42.87,-12.2 -86.96,-18.4 -131.02,-18.4"
         style="fill:#231f20;fill-opacity:1;fill-rule:nonzero;stroke:none"
         id="path944" /><path
         d="m 9005.54,6161.3 c -130.38,-37.1 -265.11,35 -300.89,160.9 -35.8,125.9 40.89,258.1 171.27,295.1 130.4,37.1 265.11,-34.9 300.9,-160.9 35.79,-125.9 -40.89,-258.1 -171.28,-295.1"
         style="fill:#808285;fill-opacity:1;fill-rule:nonzero;stroke:none"
         id="path946" /><path
         d="m 9008.75,6382.7 c -33.44,0 -56.2,26.4 -66.47,62.6 -12.24,43 -2.16,83.6 42.4,96.2 7.92,2.3 15.89,3.4 23.71,3.4 36.15,0 69.06,-23 79.12,-58.4 12.23,-43 -13.97,-88.2 -58.53,-100.8 -7.12,-2.1 -13.87,-3 -20.23,-3"
         style="fill:#d9d9da;fill-opacity:1;fill-rule:nonzero;stroke:none"
         id="path948" /><path
         d="m 9136.47,6445 c -29.62,104.2 -141.54,164.1 -249.47,133.4 -107.94,-30.7 -171.64,-140.5 -142.01,-244.7 29.62,-104.3 141.54,-164.1 249.48,-133.4 107.93,30.6 171.64,140.4 142,244.7 z M 8664.3,6310.7 c -41.84,147.3 48.12,302.3 200.54,345.6 152.43,43.3 310.48,-41.2 352.32,-188.4 41.84,-147.2 -48.12,-302.3 -200.54,-345.6 -152.43,-43.3 -310.48,41.2 -352.32,188.4"
         style="fill:#231f20;fill-opacity:1;fill-rule:nonzero;stroke:none"
         id="path950" /><path
         d="m 9094.69,9916.9 c 0,-538.5 436.5,-975 975.01,-975 538.4,0 974.9,436.5 974.9,975 0,538.4 -436.5,975 -974.9,975 -538.51,0 -975.01,-436.6 -975.01,-975"
         style="fill:#865439;fill-opacity:1;fill-rule:nonzero;stroke:none"
         id="path952" /><path
         d="m 10964.9,10046.6 c -109.1,361.2 -423.9,641.2 -822.5,686.8 -37.7,4.3 -75,6.4 -112,6.4 -163.8,0 -320.01,-41.2 -457.49,-114.6 -6.82,11.1 -13.71,22.2 -20.7,33.3 146.72,102.7 325.16,163 517.49,163 454.7,0 832.1,-337.3 895.2,-774.9"
         style="fill:#c8b2a6;fill-opacity:1;fill-rule:nonzero;stroke:none"
         id="path954" /><path
         d="m 10069.7,10821.5 c 498.7,0 904.5,-405.8 904.5,-904.6 0,-498.8 -405.8,-904.6 -904.5,-904.6 -498.84,0 -904.62,405.8 -904.62,904.6 0,498.8 405.78,904.6 904.62,904.6 m 0,-1950 c 576.4,0 1045.3,469 1045.3,1045.4 0,576.4 -468.9,1045.3 -1045.3,1045.3 -576.46,0 -1045.41,-468.9 -1045.41,-1045.3 0,-576.4 468.95,-1045.4 1045.41,-1045.4"
         style="fill:#000000;fill-opacity:1;fill-rule:nonzero;stroke:none"
         id="path956" /><path
         d="m 9214.36,9773.1 c 0,-389.1 315.42,-704.5 704.51,-704.5 389.13,0 704.53,315.4 704.53,704.5 0,389.1 -315.4,704.6 -704.53,704.6 -389.09,0 -704.51,-315.5 -704.51,-704.6"
         style="fill:#aa784b;fill-opacity:1;fill-rule:nonzero;stroke:none"
         id="path958" /><path
         d="m 10397.3,9305.5 c 56,101 88,217.2 88,340.9 0,389.1 -315.5,704.5 -704.56,704.5 -19.85,0 -39.52,-0.8 -58.95,-2.4 -8.67,18.6 -17.56,37.1 -26.69,55.5 70,24.9 145.34,38.5 223.77,38.5 369.03,0 669.33,-300.3 669.33,-669.4 0,-181.8 -72.9,-346.9 -190.9,-467.6"
         style="fill:#7b593c;fill-opacity:1;fill-rule:nonzero;stroke:none"
         id="path960" /><path
         d="m 9918.87,10442.5 c 369.03,0 669.33,-300.3 669.33,-669.4 0,-369 -300.3,-669.3 -669.33,-669.3 -369.06,0 -669.31,300.3 -669.31,669.3 0,369.1 300.25,669.4 669.31,669.4 m 0,-1409.1 c 407.93,0 739.73,331.9 739.73,739.7 0,407.9 -331.8,739.8 -739.73,739.8 -407.87,0 -739.71,-331.9 -739.71,-739.8 0,-407.8 331.84,-739.7 739.71,-739.7"
         style="fill:#000000;fill-opacity:1;fill-rule:nonzero;stroke:none"
         id="path962" /><path
         d="m 5362.59,9916.9 c 0,-538.5 -436.51,-975 -974.96,-975 -538.47,0 -974.97,436.5 -974.97,975 0,538.4 436.5,975 974.97,975 538.45,0 974.96,-436.6 974.96,-975"
         style="fill:#865439;fill-opacity:1;fill-rule:nonzero;stroke:none"
         id="path964" /><path
         d="m 3492.33,10046.6 c 63.12,437.6 440.57,774.9 895.3,774.9 195.72,0 377.14,-62.5 525.32,-168.6 -6.76,-10.8 -13.42,-21.5 -20.04,-32.4 -139.52,76.4 -298.84,119.3 -466,119.3 -36.99,0 -74.37,-2.1 -112,-6.4 -398.67,-45.6 -713.41,-325.6 -822.58,-686.8"
         style="fill:#c8b2a6;fill-opacity:1;fill-rule:nonzero;stroke:none"
         id="path966" /><path
         d="m 4387.63,10821.5 c -498.79,0 -904.58,-405.8 -904.58,-904.6 0,-498.8 405.79,-904.6 904.58,-904.6 498.78,0 904.57,405.8 904.57,904.6 0,498.8 -405.79,904.6 -904.57,904.6 m 0,-1950 c -576.41,0 -1045.37,469 -1045.37,1045.4 0,576.4 468.96,1045.3 1045.37,1045.3 576.41,0 1045.36,-468.9 1045.36,-1045.3 0,-576.4 -468.95,-1045.4 -1045.36,-1045.4"
         style="fill:#000000;fill-opacity:1;fill-rule:nonzero;stroke:none"
         id="path968" /><path
         d="m 5242.92,9773.1 c 0,-389.1 -315.42,-704.5 -704.51,-704.5 -389.09,0 -704.52,315.4 -704.52,704.5 0,389.1 315.43,704.6 704.52,704.6 389.09,0 704.51,-315.5 704.51,-704.6"
         style="fill:#aa784b;fill-opacity:1;fill-rule:nonzero;stroke:none"
         id="path970" /><path
         d="m 4060.02,9305.5 c -118.05,120.7 -190.93,285.8 -190.93,467.6 0,369.1 300.25,669.4 669.32,669.4 81.97,0 160.57,-14.9 233.21,-41.9 -8.73,-17.7 -17.19,-35.3 -25.51,-53.1 -22.88,2.3 -46.09,3.4 -69.57,3.4 -389.08,0 -704.51,-315.4 -704.51,-704.5 0,-123.7 31.95,-239.9 87.99,-340.9"
         style="fill:#7b593c;fill-opacity:1;fill-rule:nonzero;stroke:none"
         id="path972" /><path
         d="m 4538.41,10442.5 c -369.07,0 -669.32,-300.3 -669.32,-669.4 0,-369 300.25,-669.3 669.32,-669.3 369.06,0 669.31,300.3 669.31,669.3 0,369.1 -300.25,669.4 -669.31,669.4 m 0,-1409.1 c -407.88,0 -739.72,331.9 -739.72,739.7 0,407.9 331.84,739.8 739.72,739.8 407.88,0 739.71,-331.9 739.71,-739.8 0,-407.8 -331.83,-739.7 -739.71,-739.7"
         style="fill:#000000;fill-opacity:1;fill-rule:nonzero;stroke:none"
         id="path974" /><path
         d="m 4580.54,9350.4 c 0,901.7 622.62,1849.4 1522.29,2304 87.04,44 137.89,134.9 137.2,232.5 0.78,142.7 -121.35,443.8 42.46,444 143.56,0 458.7,-231.7 532.67,-384.6 14.33,-29.7 47.33,-45.7 79.88,-40.6 145.94,19.8 -14.58,280.1 126.97,273.5 86.08,0 250.95,-106.3 349.61,-210 28.09,-29.5 65.6,-48 106.13,-52.1 1351.07,-137.1 2409.49,-1391 2409.49,-2566.7 -82.27,-1237.6 -610.07,-1458.5 -2046.7,-1651.2 -402.51,-54 -810.36,-54 -1212.87,0.1 -1437.23,193.1 -1964.22,413 -2047.13,1651.1"
         style="fill:#865439;fill-opacity:1;fill-rule:nonzero;stroke:none"
         id="path976" /><path
         d="m 7234.53,7727 c -199.73,0 -399.42,13.3 -597.77,40 -1234.68,165.8 -1742.66,356.3 -1919.9,1097.7 241.83,-626.6 808.7,-790.4 1910.8,-938.5 201.36,-27.1 404.02,-40.6 606.74,-40.6 202.48,0 405.01,13.5 606.12,40.5 1101.95,147.8 1669.18,312.1 1910.77,939.1 C 9574.53,8123 9066.63,7932.6 7831.46,7766.9 7633.44,7740.3 7433.97,7727 7234.53,7727"
         style="fill:#634230;fill-opacity:1;fill-rule:nonzero;stroke:none"
         id="path978" /><path
         d="m 4752.01,9991.3 c 209.14,657.9 719.84,1267.8 1381.61,1602.2 42.31,21.3 78.28,51.5 106.4,87.7 -1.19,-95.4 -51.76,-183.9 -137.19,-227 -618.94,-312.8 -1106.69,-858.9 -1350.82,-1462.9"
         style="fill:#c8b2a6;fill-opacity:1;fill-rule:nonzero;stroke:none"
         id="path980" /><path
         d="m 9724.75,9968.9 c -346.18,880.3 -1210.4,1642.8 -2247,1747.9 -40.53,4.1 -78.04,22.7 -106.13,52.2 -96.24,101.1 -255.49,204.8 -343.14,209.8 2.85,29.8 1.04,58.6 -0.3,79.9 -0.95,15 -2.35,37.4 -1.53,52.1 57.79,-4.4 198.67,-86.9 295.52,-188.6 39.36,-41.4 92.17,-67.3 148.68,-73.1 1033.8,-104.8 1962.64,-920.5 2253.9,-1880.2 M 6883,11704.5 c -28.42,0 -55.26,15.6 -67.84,41.6 -73.97,152.9 -389.11,384.6 -532.67,384.6 -3.11,0 -6.11,-0.1 -9.02,-0.4 -8.32,55.9 -13.81,116.5 -0.46,131.6 -0.01,0 0.03,0 0.1,0 0.61,0 3.84,0.7 9.46,0.7 42.03,0 136.36,-37.7 252.21,-121.9 103.53,-75.2 189.46,-163.2 218.92,-224.1 23.76,-49.2 75.03,-80.1 129.62,-80.1 7.15,0 14.35,0.5 21.55,1.6 20.38,2.8 37.51,8.3 51.9,15.8 1.62,-17.4 4.25,-35.7 7.32,-54.2 7.49,-45.3 -23.61,-87.9 -69.05,-94.2 l -1.22,-0.2 c -3.61,-0.5 -7.23,-0.8 -10.82,-0.8"
         style="fill:#c8b2a6;fill-opacity:1;fill-rule:nonzero;stroke:none"
         id="path982" /><path
         d="M 9818.97,9352.7 C 9741.54,8196.4 9301.75,7964.1 7831.46,7766.9 c -396.34,-53.2 -798.29,-53.2 -1194.7,0.1 -1470.13,197.5 -1909.96,429.7 -1987.94,1585.7 1.05,878.2 611.32,1799.4 1484.8,2240.8 108.65,54.9 175.58,167.5 174.68,293.8 0.26,46.9 -10.27,103.9 -21.39,164.3 -10.32,56 -34.46,187 -13.9,210.3 -0.04,-0.2 3.25,0.7 9.56,0.7 42.03,0 136.36,-37.7 252.21,-121.9 103.53,-75.2 189.46,-163.2 218.92,-224.1 26.87,-55.7 88.92,-87.9 151.17,-78.5 136,18.9 127.43,155.1 123.31,220.6 -0.95,15 -2.35,37.4 -1.53,52.1 57.79,-4.4 198.67,-86.9 295.52,-188.6 39.36,-41.4 92.17,-67.3 148.68,-73.1 1250.11,-126.8 2346.79,-1293 2348.12,-2496.4 M 7234.53,7590.5 c 205.53,0 411.02,13.7 615.09,41 736.76,98.9 1228.58,203.6 1562.31,446.3 338.16,245.8 500.68,625.1 543.42,1268.1 l 0.15,4.5 c 0,591.1 -260.9,1217.6 -715.8,1718.7 -475.68,524.1 -1098.98,849.3 -1755.07,915.9 -24.08,2.4 -46.65,13.5 -63.56,31.3 -90.98,95.6 -274.01,230 -397.44,231.2 -49.7,1.8 -79.9,-17.7 -96.49,-34.6 -42.74,-43.4 -38.75,-106.8 -35.23,-162.7 1.4,-22.3 3.95,-62.9 -1.61,-76 -0.97,-0.3 -2.41,-0.6 -4.44,-0.9 l -1.34,-0.2 c -3.57,-0.5 -7.01,1.1 -7.88,2.9 -80.83,167.1 -413.57,423.2 -594.15,423.2 -60.33,-0.1 -95.54,-27.2 -114.46,-50 -61.24,-73.6 -37.94,-200.1 -15.4,-322.3 9.5,-51.5 19.32,-104.8 19.13,-139.7 0.53,-75 -37.68,-140.5 -99.71,-171.9 -918.37,-464 -1559.77,-1436.5 -1559.77,-2364.9 l 0.15,-4.6 c 43.07,-643.1 205.67,-1022.4 543.67,-1268 333.41,-242.4 825.38,-347.1 1562.48,-446.1 204.35,-27.5 410.18,-41.2 615.95,-41.2"
         style="fill:#231f20;fill-opacity:1;fill-rule:nonzero;stroke:none"
         id="path984" /><path
         d="m 5262.84,9981.1 c 0,527.7 615.38,955.5 1374.49,955.5 187.68,0 366.55,-26.1 529.52,-73.5 43.7,-12.7 90.39,-12.7 134.08,0 162.97,47.4 341.86,73.5 529.52,73.5 759.12,0 1374.49,-427.8 1374.49,-955.5 0,-295.5 -192.89,-559.6 -495.91,-734.9 -63.37,-36.6 -100.75,-100.2 -100.64,-168.7 l 0.01,-1.1 c 0,-527.8 -615.39,-955.6 -1374.51,-955.6 -759.11,0 -1374.49,427.8 -1374.49,955.6 v 1.1 c 0.11,68.5 -37.27,132.1 -100.65,168.7 -303.02,175.3 -495.91,439.4 -495.91,734.9"
         style="fill:#c68b59;fill-opacity:1;fill-rule:nonzero;stroke:none"
         id="path986" /><path
         d="m 7830.45,10901.4 c 738.49,0 1339.3,-412.8 1339.3,-920.3 0,-271.8 -174.35,-528.6 -478.34,-704.4 -74.17,-42.9 -118.37,-117.4 -118.21,-199.3 0,-508.5 -600.82,-921.4 -1339.31,-921.4 -738.49,0 -1339.31,412.9 -1339.31,920.4 0.16,82.9 -44.03,157.4 -118.2,200.3 -304,175.8 -478.34,432.6 -478.34,704.4 0,507.5 600.8,920.3 1339.29,920.3 180.17,0 355.01,-24.2 519.71,-72.1 50.27,-14.6 103.43,-14.6 153.71,0 164.69,47.9 339.55,72.1 519.7,72.1 M 7233.89,8085.6 c 777.32,0 1409.7,444.5 1409.7,990.8 -0.11,57.6 30.96,109.2 83.07,139.4 326.32,188.7 513.48,467.7 513.48,765.3 0,546.3 -632.39,990.7 -1409.69,990.7 -186.8,0 -368.26,-25.2 -539.34,-74.9 -37.43,-10.8 -76.99,-10.8 -114.44,0 -171.07,49.7 -352.53,74.9 -539.34,74.9 -777.3,0 -1409.69,-444.4 -1409.69,-990.7 0,-297.6 187.15,-576.6 513.49,-765.3 52.11,-30.2 83.17,-81.8 83.07,-138.2 -0.01,-547.5 632.38,-992 1409.69,-992"
         style="fill:#231f20;fill-opacity:1;fill-rule:nonzero;stroke:none"
         id="path988" /><path
         d="m 5671.72,9763.4 c 0,-285.5 231.46,-516.9 516.97,-516.9 285.52,0 516.97,231.4 516.97,516.9 0,285.6 -231.45,517 -516.97,517 -285.51,0 -516.97,-231.4 -516.97,-517"
         style="fill:#f1f2f2;fill-opacity:1;fill-rule:nonzero;stroke:none"
         id="path990" /><path
         d="m 6188.69,9267.5 c 273.48,0 495.97,222.5 495.97,495.9 0,273.5 -222.49,496 -495.97,496 -273.48,0 -495.97,-222.5 -495.97,-496 0,-273.4 222.49,-495.9 495.97,-495.9"
         style="fill:#231f20;fill-opacity:1;fill-rule:nonzero;stroke:none"
         id="path992" /><path
         d="m 6266.15,9957.7 c 0,-83.2 67.48,-150.7 150.72,-150.7 83.25,0 150.73,67.5 150.73,150.7 0,83.2 -67.48,150.7 -150.73,150.7 -83.24,0 -150.72,-67.5 -150.72,-150.7"
         style="fill:#f1f2f2;fill-opacity:1;fill-rule:nonzero;stroke:none"
         id="path994" /><path
         d="m 5770.01,10342.9 c 0,-58 187.46,0 418.68,0 231.23,0 418.68,-58 418.68,0 0,58.1 -187.45,175.2 -418.68,175.2 -231.22,0 -418.68,-117.1 -418.68,-175.2"
         style="fill:#231f20;fill-opacity:1;fill-rule:nonzero;stroke:none"
         id="path996" /><path
         d="m 7762.11,9763.4 c 0,-277.4 231.46,-502.4 516.98,-502.4 285.51,0 516.97,225 516.97,502.4 0,277.5 -231.46,502.4 -516.97,502.4 -285.52,0 -516.98,-224.9 -516.98,-502.4"
         style="fill:#f1f2f2;fill-opacity:1;fill-rule:nonzero;stroke:none"
         id="path998" /><path
         d="m 8279.09,9282 c 273.47,0 495.96,216 495.96,481.4 0,265.5 -222.49,481.5 -495.96,481.5 -273.48,0 -495.96,-216 -495.96,-481.5 0,-265.4 222.48,-481.4 495.96,-481.4"
         style="fill:#231f20;fill-opacity:1;fill-rule:nonzero;stroke:none"
         id="path1000" /><path
         d="m 8356.54,9957.7 c 0,-83.2 67.48,-150.7 150.73,-150.7 83.24,0 150.72,67.5 150.72,150.7 0,83.2 -67.48,150.7 -150.72,150.7 -83.25,0 -150.73,-67.5 -150.73,-150.7"
         style="fill:#f1f2f2;fill-opacity:1;fill-rule:nonzero;stroke:none"
         id="path1002" /><path
         d="m 7857.96,10342.9 c 0,-58 187.46,0 418.69,0 231.23,0 418.67,-58 418.67,0 0,58.1 -187.44,175.2 -418.67,175.2 -231.23,0 -418.69,-117.1 -418.69,-175.2"
         style="fill:#231f20;fill-opacity:1;fill-rule:nonzero;stroke:none"
         id="path1004" /><path
         d="m 6654.49,8817.1 c -0.1,24.7 19.66,44.6 44.18,44.8 h 0.3 c 24.41,0 44.38,-19.7 44.48,-44.3 0.09,-18.1 3.25,-41.6 23.32,-63.4 9.98,-11.2 24.41,-21.9 44.87,-31.3 53.48,-24.5 120.19,-27.8 155.87,-27.6 59.11,0.3 115.45,22.7 158.54,63.1 40.53,38.1 63.56,87.6 63.36,135.8 v 0.2 0.3 c 0,1.3 0.3,2.5 0.4,3.7 0.1,1.7 0.19,3.4 0.49,5 0.3,1.4 0.79,2.6 1.19,3.9 l 0.09,0.3 c 0.4,1.4 0.7,2.8 1.3,4.1 0.59,1.3 1.28,2.5 1.97,3.7 0.69,1.3 1.28,2.7 2.17,3.8 0.69,1.2 1.68,2.2 2.57,3.3 0.99,1.2 1.78,2.4 2.77,3.4 0.99,1 2.17,1.8 3.26,2.6 1.08,0.9 2.18,2 3.37,2.8 1.08,0.8 2.46,1.4 3.65,2 1.28,0.7 2.48,1.6 3.86,2.1 1.38,0.6 2.86,0.8 4.24,1.3 1.39,0.4 2.68,1 4.06,1.3 1.58,0.3 3.16,0.3 4.75,0.5 1.38,0.1 2.66,0.4 4.04,0.4 h 0.3 0.2 c 1.38,0 2.77,-0.3 4.15,-0.4 1.58,-0.2 3.16,-0.2 4.64,-0.5 1.49,-0.3 2.87,-0.9 4.25,-1.4 1.39,-0.4 2.77,-0.6 4.05,-1.2 1.49,-0.6 2.78,-1.4 4.16,-2.2 1.08,-0.6 2.37,-1.2 3.46,-1.9 1.29,-0.9 2.37,-2 3.56,-3 0.98,-0.8 2.07,-1.6 2.96,-2.4 1.1,-1.1 1.98,-2.4 2.97,-3.6 0.79,-1 1.68,-2 2.47,-3.1 0.79,-1.1 1.48,-2.5 2.17,-3.9 0.59,-1.2 1.39,-2.3 1.88,-3.6 0.6,-1.3 0.89,-2.7 1.39,-4.1 l 0.09,-0.3 c 0.3,-1.3 0.89,-2.6 1.09,-3.9 0.4,-1.6 0.4,-3.3 0.59,-5 0.1,-1.2 0.4,-2.4 0.4,-3.7 v -0.3 -0.2 c -0.3,-48.2 22.83,-97.7 63.36,-135.8 43.09,-40.4 99.33,-62.8 158.54,-63.1 35.28,-0.3 102.39,3.1 155.77,27.6 20.46,9.4 34.79,20.1 44.98,31.2 19.96,21.9 23.23,45.4 23.32,63.5 0.1,24.6 19.87,44.2 44.68,44.3 24.51,-0.2 44.38,-20.1 44.28,-44.8 -0.4,-60 -24.62,-109.4 -70.77,-145.4 4.15,-16.6 6.32,-34.1 6.32,-52.3 0,-189.6 -230.59,-397.7 -514.96,-397.7 -284.46,0 -515.06,208.1 -515.06,397.7 0,18.2 2.18,35.7 6.32,52.3 -46.15,36 -70.37,85.4 -70.66,145.4"
         style="fill:#231f20;fill-opacity:1;fill-rule:nonzero;stroke:none"
         id="path1006" /><path
         d="m 7052.66,8398.4 c 0,72.8 81.13,118.1 181.2,118.1 100.08,0 181.21,-37.9 181.21,-110.7 0,-72.7 -81.13,-113.3 -181.21,-113.3 -100.07,0 -181.2,33.2 -181.2,105.9"
         style="fill:#ed1c24;fill-opacity:1;fill-rule:nonzero;stroke:none"
         id="path1008" /><path
         d="m 7233.86,8411.8 c -37.53,0 -67.95,14.5 -67.95,37.1 0,22.6 30.42,44.5 67.95,44.5 37.53,0 67.95,-19.6 67.95,-42.2 0,-22.6 -30.42,-39.4 -67.95,-39.4"
         style="fill:#f68e92;fill-opacity:1;fill-rule:nonzero;stroke:none"
         id="path1010" /><path
         d="m 6906.56,9257.4 c 0,-110.8 146.55,-299.2 327.33,-299.2 180.78,0 327.34,188.4 327.34,299.2 0,110.8 -146.56,102.1 -327.34,102.1 -180.78,0 -327.33,8.7 -327.33,-102.1"
         style="fill:#3c2415;fill-opacity:1;fill-rule:nonzero;stroke:none"
         id="path1012" /><path
         d="m 7304.41,9324.4 c 94.96,0 179.86,-2.8 209.49,-32.3 5.21,-5.2 12.13,-14.4 12.13,-34.7 0,-88.1 -126.3,-264 -292.14,-264 -165.84,0 -292.14,175.9 -292.14,264 0,20.3 6.93,29.5 12.14,34.7 33.06,32.9 134.94,32.6 242.92,32.2 h 37.08 37.09 c 11.23,0.1 22.4,0.1 33.43,0.1 z M 7233.89,8923 c 200.12,0 362.54,202.3 362.54,334.4 0,34.4 -11.05,62.8 -32.84,84.6 -53.78,53.5 -159.21,53.2 -292.85,52.7 h -36.85 -36.84 c -133.56,0.5 -239.09,0.8 -292.86,-52.7 -21.78,-21.8 -32.83,-50.2 -32.83,-84.6 0,-132.1 162.41,-334.4 362.53,-334.4"
         style="fill:#231f20;fill-opacity:1;fill-rule:nonzero;stroke:none"
         id="path1014" /><path
         d="m 33269.2,17352 c -14.1,23.7 -29.7,46.4 -46.9,68 -46.5,58.3 -106.6,120.2 -174.1,162.3 -12,11.5 -24.7,22.5 -37.9,33.1 l 9.8,-0.9 c 3.7,-0.3 7.3,-1.4 10.5,-3.3 106.7,-61.4 188.7,-151.6 238.6,-259.2"
         style="fill:#373436;fill-opacity:1;fill-rule:nonzero;stroke:none"
         id="path1082" /><path
         d="m 32687.8,16850.7 c -53.2,0 -106.3,2.3 -158,6.9 -18.8,3.3 -37.2,6.9 -55.2,10.9 -13.8,13.8 -6.5,42.9 17.9,42.9 0.5,0 1.1,0 1.7,0 31,-1.6 62.3,-2.4 93.7,-2.4 318.1,0 636.3,82.8 636.3,248.4 0,166 -62.1,316.3 -176,424.9 67.5,-42.1 127.6,-104 174.1,-162.3 17.2,-21.6 32.8,-44.3 46.9,-68 35.6,-76.8 54.8,-162.6 54.8,-252.9 0,-165.6 -318.1,-248.4 -636.2,-248.4"
         style="fill:#373436;fill-opacity:1;fill-rule:nonzero;stroke:none"
         id="path1084" /><path
         d="m 32079.6,17117.2 c 7.2,120.7 52.3,231.9 124.3,323.2 l 3.6,-16.1 c -70.5,-86.8 -116.4,-192.2 -127.9,-307.1"
         style="fill:#b2b1b1;fill-opacity:1;fill-rule:nonzero;stroke:none"
         id="path1086" /><path
         d="m 32291.9,17509.7 -4,17.9 c 58.2,49.7 126.2,89.4 201,116.2 2.8,-1.3 5.2,-3.1 7,-5.3 -72.8,-27.4 -141.8,-77.9 -200,-125.5 -1.3,-1.1 -2.6,-2.2 -4,-3.3"
         style="fill:#bdbcbd;fill-opacity:1;fill-rule:nonzero;stroke:none"
         id="path1088" /><path
         d="m 32207.5,17424.3 -3.6,16.1 c 24.9,31.6 53.1,60.8 84,87.2 l 4,-17.9 c -31,-25.9 -59.2,-54.5 -84.4,-85.4"
         style="fill:#b2b1b1;fill-opacity:1;fill-rule:nonzero;stroke:none"
         id="path1090" /><path
         d="m 32595.4,25271.7 c 39,41.2 83,80.2 131.2,116.3 507.8,41.2 1015.5,85.6 1523.2,86 492.2,-0.4 989.2,-42.1 1485.9,-82.2 49.3,-36.5 94.1,-75.8 133.9,-117.6 -539.9,40.4 -1079.9,87.4 -1619.8,87.8 -551.5,-0.4 -1102.9,-49.4 -1654.4,-90.3"
         style="fill:#74553c;fill-opacity:1;fill-rule:nonzero;stroke:none"
         id="path1348" /><path
         d="m 32501.4,25264.8 c 32.7,39.9 69.4,77.9 109.7,113.9 38.5,3.1 77,6.2 115.5,9.3 -48.2,-36.1 -92.2,-75.1 -131.2,-116.3 -31.3,-2.4 -62.6,-4.7 -94,-6.9 m 3462.5,2.5 c -31.4,2.3 -62.9,4.6 -94.3,6.9 -39.8,41.8 -84.6,81.1 -133.9,117.6 38.8,-3.2 77.6,-6.3 116.3,-9.4 41.2,-36.3 78.6,-74.8 111.9,-115.1"
         style="fill:#231f20;fill-opacity:1;fill-rule:nonzero;stroke:none"
         id="path1350" /><path
         d="m 31341.7,25338.4 c -46.5,3.3 -85,13.4 -106.6,40.9 l 6.5,37.2 c 13.5,-21.4 35.7,-33.6 63.6,-40.5 10.3,-15 22.4,-27.9 36.5,-37.6 m 5842.7,7.2 c 13.5,10.7 25.7,24.2 36.4,39.5 16.2,7.5 29.3,18.2 38.3,33.2 -7.8,-42.2 -35.6,-62.8 -74.7,-72.7"
         style="fill:#8e1f17;fill-opacity:1;fill-rule:nonzero;stroke:none"
         id="path1352" /><path
         d="m 31305.2,25376 c -27.9,6.9 -50.1,19.1 -63.6,40.5 l 20.3,116.9 c 0,-54 14,-114.5 43.3,-157.4"
         style="fill:#581f1c;fill-opacity:1;fill-rule:nonzero;stroke:none"
         id="path1354" /><path
         d="m 19366.5,26529.7 c 0,13.8 3.3,23.7 6.3,29.1 14.5,-4.9 27.9,-8.6 40,-12 78.8,-22.3 189.4,-41.9 328.7,-58.5 279,-33.3 649,-51.6 1041.8,-51.6 392.9,0 762.9,18.3 1041.8,51.6 139.4,16.6 250,36.2 328.8,58.5 11.4,3.2 25.3,7.1 40,12 2.9,-5.3 6.3,-15.2 6.3,-29.1 v -78.7 c 0,-75.9 -31,-147 -80.9,-185.6 -13.8,-10.7 -20.3,-12.3 -22.5,-12.5 -349.3,-32.9 -813.4,-51.1 -1306.8,-51.1 -493.4,0 -957.5,18.2 -1306.8,51.1 -4.8,0.4 -13.7,3.3 -29.4,14.7 -53.9,39.2 -87.3,112.9 -87.3,192.3 z m 2889.8,123.8 c -24.9,22.7 -56.1,29.9 -85.5,19.5 -14.8,-5.1 -29.3,-9.2 -42.2,-12.8 -74.1,-20.9 -179.9,-39.7 -314.4,-55.7 -275.4,-32.8 -641.5,-50.9 -1030.9,-50.9 -389.3,0 -755.4,18.1 -1030.8,50.9 -134.5,16 -240.3,34.8 -314.5,55.7 -12.8,3.6 -27.4,7.7 -42.1,12.8 -29.5,10.3 -60.7,3.2 -85.5,-19.5 -29.5,-27 -47.1,-73.3 -47.1,-123.8 v -69.8 c 0,-119 51.5,-230.4 134.5,-290.7 27.6,-20.1 52,-30.5 76.7,-32.8 352.1,-33.2 819.3,-51.5 1315.5,-51.5 496.2,0 963.3,18.3 1315.4,51.5 23.6,2.2 46.6,12.5 72.4,32.4 78.6,60.9 125.5,166.4 125.5,282.2 v 78.7 c 0,50.5 -17.5,96.8 -47,123.8"
         style="fill:#231f20;fill-opacity:1;fill-rule:nonzero;stroke:none"
         id="path1646" /><path
         d="m 7234.58,15939.4 c -2209.13,0 -3999.99,447.7 -3999.99,1000 0,384.9 869.86,719 2144.83,886.1 22.35,-64.9 47.73,-126.9 75.92,-185.2 -89.62,-92.3 -172.68,-196.6 -189.06,-304.7 -26.62,-59.1 -36.39,-120.5 -26.34,-179.4 4.32,-25.4 13.84,-66.2 24.93,-85.7 1.91,16.5 4.76,33.3 8.54,50.2 41.81,-73.3 133.69,-116.2 254.71,-139.1 95.2,-34.4 212.98,-52.8 339.01,-52.8 5.34,0 10.69,0 16.07,0.1 168.09,2.1 303.38,35.6 398.48,95.6 90.71,40.1 146.36,102.2 148.14,195.4 7,27.9 10.39,57.4 10,88.7 -0.42,35.6 -5.85,72.2 -16.16,109.3 85.46,133.1 145.12,310.1 174.92,508.9 207.09,8.3 419.59,12.6 636,12.6 216.41,0 428.93,-4.3 636.02,-12.6 29.81,-198.8 89.46,-375.8 174.91,-508.9 -10.3,-37.1 -15.72,-73.7 -16.16,-109.3 -0.38,-31.3 3,-60.8 10,-88.7 1.78,-93.2 57.44,-155.3 148.17,-195.4 95.11,-60 230.39,-93.5 398.47,-95.6 5.53,-0.1 11.03,-0.1 16.53,-0.1 125.8,0 243.46,18.5 338.56,52.8 121,23 212.87,65.8 254.68,139.1 3.78,-16.9 6.63,-33.7 8.53,-50.2 11.11,19.5 20.62,60.3 24.95,85.7 10.05,58.9 0.27,120.3 -26.34,179.4 -16.38,108.1 -99.44,212.4 -189.05,304.7 28.18,58.3 53.55,120.2 75.91,185.2 1274.94,-167.1 2144.84,-501.2 2144.84,-886.1 0,-552.3 -1790.87,-1000 -4000.02,-1000"
         style="fill:#ded9d2;fill-opacity:0;fill-rule:nonzero;stroke:none"
         id="path1648" /><path
         d="m 4951.51,18088.6 c 43.26,26.7 86.64,55 130.15,84.7 563.12,384.8 1163.53,1031.7 1784.56,1922.8 100.6,144.3 65.37,341.2 -78.7,439.8 -144.06,98.6 -342.44,61.5 -443.01,-82.9 -1020.39,-1464.1 -1937.42,-2185 -2651.92,-2084.8 -829.98,116.3 -1226.42,1318.7 -1230.32,1330.8 -53.38,165.7 -232.14,256.1 -399.39,201.5 -167.27,-54.5 -260.07,-232.7 -207.33,-398.6 20.56,-64.7 517.7,-1586.6 1738.84,-1760.2 430.4,-61.2 886.34,55.5 1357.12,346.9"
         style="fill:#865439;fill-opacity:1;fill-rule:nonzero;stroke:none"
         id="path1650" /><path
         d="m 3705.7,18246.2 c -45.13,0 -89.51,3.1 -133.15,9.2 -829.98,116.4 -1226.42,1318.7 -1230.33,1330.8 -34.31,106.6 -120.43,181.8 -221.99,207.5 -18.44,4.7 -31.64,15.8 -39.41,29.6 2.02,0.7 4.04,1.4 6.09,2.1 24.68,8 49.73,11.8 74.34,11.8 100.19,0 193.13,-63.4 225.25,-163.1 4.04,-12.6 415.78,-1261.1 1294.18,-1384.3 47.33,-6.6 95.5,-10 144.36,-10 77.25,0 156.41,8.3 237.36,24.8 -123.35,-38.8 -242.39,-58.4 -356.7,-58.4"
         style="fill:#c8b2a6;fill-opacity:1;fill-rule:nonzero;stroke:none"
         id="path1654" /><path
         d="m 6480.72,20475.8 c 25.08,15.5 53.07,26.5 82.9,32 62.76,11.8 126.1,-1.5 178.36,-37.2 52.25,-35.8 87.17,-89.8 98.33,-152.1 11.14,-62.3 -2.81,-125.5 -39.3,-177.8 -615.42,-883.1 -1208.89,-1523.1 -1763.91,-1902.3 -42.26,-28.9 -85.02,-56.7 -127.1,-82.8 -454.13,-281.1 -892.71,-393.9 -1303.56,-335.5 -1172.64,166.6 -1655.07,1643.5 -1675.04,1706.3 -39.41,124.1 30.35,258.2 155.51,299 125.2,40.8 259.58,-27.1 299.59,-151.3 4.04,-12.6 415.78,-1261.1 1294.18,-1384.3 378.03,-53 806.03,105.9 1272.08,472.3 454.41,357.2 944.61,911.1 1456.95,1646.3 19.16,27.5 43.31,50.3 71.01,67.4 M 4993.01,18021.5 c 44.14,27.3 88.96,56.5 133.21,86.7 571.25,390.3 1178.6,1044.1 1805.21,1943.2 60.82,87.3 84.09,192.5 65.51,296.4 -18.59,103.9 -76.78,193.9 -163.88,253.5 -87.09,59.6 -192.66,81.6 -297.27,62.1 -104.62,-19.6 -195.7,-78.5 -256.5,-165.8 -503.25,-722 -982.48,-1264.3 -1424.36,-1611.7 -430.24,-338.3 -817.29,-486.1 -1150.44,-439.4 -778.12,109.1 -1162.68,1265.7 -1166.48,1277.4 -66.61,206.8 -290.55,319.8 -499.18,251.8 -208.65,-68 -324.89,-291.6 -259.15,-498.4 21.18,-66.6 533.28,-1633.5 1802.65,-1813.9 449.01,-63.8 923.63,56.6 1410.68,358.1"
         style="fill:#231f20;fill-opacity:1;fill-rule:nonzero;stroke:none"
         id="path1656" /><path
         d="m 5540.59,17626.7 c -87.99,166.8 -154.47,377.2 -185.96,613.1 -19.74,148.1 -23.95,292.9 -14.57,428.8 18.69,270.7 -21.51,542.2 -124.55,793.2 -112.88,275 -175.39,617.2 -175.39,1040.6 0,1679.5 982.49,2661.2 2194.46,2661.2 1211.98,0 2194.48,-981.7 2194.48,-2661.2 0,-423.4 -62.52,-765.6 -175.4,-1040.6 -103.05,-251 -143.23,-522.5 -124.55,-793.2 9.38,-135.9 5.18,-280.7 -14.57,-428.8 -31.48,-235.9 -97.97,-446.3 -185.96,-613.1 95.54,-94 208.6,-219 207.22,-331.2 -2.62,-213.8 -277.67,-300 -548.95,-296.6 -271.3,3.3 -490.14,94.9 -487.5,308.8 0.48,39.6 8.57,80.7 23.1,121.2 -159.99,226.3 -238.88,622.2 -189.11,1048.7 -219.49,-39.8 -454.45,-56.2 -698.76,-56.2 -244.3,0 -479.26,16.4 -698.75,56.2 49.77,-426.5 -29.13,-822.4 -189.1,-1048.7 14.53,-40.5 22.62,-81.6 23.1,-121.2 2.63,-213.9 -216.2,-305.5 -487.5,-308.8 -271.3,-3.4 -546.33,82.8 -548.96,296.6 -1.38,112.2 111.68,237.2 207.22,331.2"
         style="fill:#ffffff;fill-opacity:1;fill-rule:nonzero;stroke:none"
         id="path1658" /><path
         d="M 9286.5,19548.1 H 5182.88 c 10.43,-29.4 21.25,-58.3 32.73,-86.3 103.04,-251 143.24,-522.5 124.55,-793.2 -9.37,-135.9 -5.17,-280.7 14.57,-428.8 31.49,-235.9 97.98,-446.3 185.96,-613.1 -95.53,-94 -208.6,-219 -207.22,-331.2 2.63,-213.8 277.67,-300 548.96,-296.6 271.3,3.3 490.13,94.9 487.51,308.8 -0.49,39.6 -8.58,80.7 -23.11,121.2 159.99,226.3 238.87,622.2 189.1,1048.7 219.49,-39.8 454.45,-56.2 698.75,-56.2 244.31,0 479.27,16.4 698.76,56.2 -49.77,-426.5 29.12,-822.4 189.11,-1048.7 -14.52,-40.5 -22.61,-81.6 -23.1,-121.2 -2.64,-213.9 216.2,-305.5 487.5,-308.8 271.28,-3.4 546.33,82.8 548.95,296.6 1.38,112.2 -111.68,237.2 -207.22,331.2 87.99,166.8 154.48,377.2 185.96,613.1 19.76,148.1 23.95,292.9 14.57,428.8 -18.68,270.7 21.51,542.2 124.55,793.2 11.49,28 22.3,56.9 32.74,86.3"
         style="fill:#f5b553;fill-opacity:1;fill-rule:nonzero;stroke:none"
         id="path1660" /><path
         d="m 5778.9,17622.9 c -89.4,5.5 -175.66,0.5 -255.98,-13.3 -94.96,-93.7 -205.89,-217.4 -204.52,-328.5 2.63,-213.9 277.66,-300 548.96,-296.7 271.3,3.4 490.13,95 487.5,308.9 -0.48,39.6 -8.57,80.6 -23.1,121.2 0.72,1 1.41,2.1 2.14,3.1 -127.49,112.3 -326.96,191.3 -555,205.3"
         style="fill:#865439;fill-opacity:1;fill-rule:nonzero;stroke:none"
         id="path1662" /><path
         d="m 6307.86,17407 0.37,-1 c 13.91,-38.8 21.19,-76.9 21.64,-113.1 3.08,-250.6 -322.63,-281.7 -462.81,-283.5 -141.54,-1.7 -271.02,21.2 -364.4,64.6 -104.58,48.6 -158.16,118.4 -159.25,207.4 -1.24,100.4 106.99,220.9 191.47,304.8 78.28,12.9 159.8,16.8 242.49,11.8 209.29,-12.9 401.75,-82.3 530.49,-191 m -455.76,-447.7 c 5.17,0 10.36,0.1 15.57,0.1 323.25,4 514.72,128.9 512.19,334.2 -0.46,37.8 -7.31,77.1 -20.35,117 l 7.66,11 -16.75,14.8 c -136.85,120.5 -344.6,197.6 -569.99,211.5 -89.26,5.5 -177.32,0.9 -261.76,-13.7 l -7.73,-1.3 -5.58,-5.5 c -99.46,-98.2 -213.43,-226.3 -211.96,-346.6 1.33,-108.4 66.41,-195.6 188.2,-252.2 96.52,-44.8 227.59,-69.3 370.5,-69.3"
         style="fill:#231f20;fill-opacity:1;fill-rule:nonzero;stroke:none"
         id="path1664" /><path
         d="m 5542.53,17086.8 c 4.12,18.9 9.38,38.9 14.85,58.3 5.54,19.4 11.59,38.8 18.39,57.8 6.81,19.1 14.3,37.9 23.42,55.9 4.61,8.9 9.6,17.7 15.51,25.9 5.97,8.2 0.93,13.5 -8.23,7.3 -9.2,-6.3 -17.63,-13.5 -25.71,-20.9 -16.07,-14.9 -30.64,-31 -44.57,-47.5 -13.91,-16.6 -27.12,-33.5 -39.9,-50.8 -12.81,-17.4 -24.99,-34.5 -37.12,-53.2 l -0.21,-0.3 c -12.52,-19.3 -5.15,-45 16.48,-57.4 21.64,-12.5 49.33,-6.9 61.85,12.4 2.54,3.9 4.29,8.2 5.24,12.5"
         style="fill:#231f20;fill-opacity:1;fill-rule:nonzero;stroke:none"
         id="path1666" /><path
         d="m 5877.37,17015.9 c 4.12,18.9 9.38,38.9 14.86,58.3 5.54,19.4 11.58,38.8 18.38,57.8 6.81,19.1 14.3,37.9 23.42,55.9 4.61,8.9 9.6,17.7 15.51,25.9 5.98,8.2 0.93,13.5 -8.22,7.3 -9.21,-6.3 -17.64,-13.5 -25.71,-20.9 -16.08,-14.9 -30.64,-31 -44.57,-47.5 -13.92,-16.5 -27.13,-33.5 -39.9,-50.8 -12.82,-17.4 -25,-34.5 -37.14,-53.2 l -0.2,-0.3 c -12.52,-19.3 -5.14,-45 16.49,-57.4 21.63,-12.5 49.32,-6.9 61.84,12.4 2.55,3.9 4.29,8.2 5.24,12.5"
         style="fill:#231f20;fill-opacity:1;fill-rule:nonzero;stroke:none"
         id="path1668" /><path
         d="m 8591.8,17015.9 c -4.12,18.9 -9.38,38.9 -14.86,58.3 -5.54,19.4 -11.58,38.8 -18.38,57.8 -6.81,19.1 -14.3,37.9 -23.42,55.9 -4.61,8.9 -9.6,17.7 -15.51,25.9 -5.98,8.2 -0.93,13.5 8.23,7.3 9.2,-6.3 17.63,-13.5 25.7,-20.9 16.08,-14.9 30.64,-31 44.57,-47.5 13.92,-16.5 27.13,-33.5 39.9,-50.8 12.82,-17.4 25,-34.5 37.14,-53.2 l 0.2,-0.3 c 12.52,-19.3 5.14,-45 -16.49,-57.4 -21.63,-12.5 -49.32,-6.9 -61.84,12.4 -2.54,3.9 -4.29,8.2 -5.24,12.5"
         style="fill:#231f20;fill-opacity:1;fill-rule:nonzero;stroke:none"
         id="path1676" /><path
         d="m 8160.82,17497.3 c -138.69,218.3 -199.47,574.5 -160.79,945.8 13.73,4.7 27.32,9.5 41.03,14.4 29.4,10.7 58.54,22.1 87.29,34.6 28.73,12.4 57.16,25.8 84.45,41.6 8.51,5 16.93,10.2 25.09,15.7 -45.02,-73.8 -200.64,-390.7 -0.14,-982.8 -29.46,-20.8 -55.33,-44.1 -76.93,-69.3"
         style="fill:#b68844;fill-opacity:1;fill-rule:nonzero;stroke:none"
         id="path1678" /><path
         d="m 5280.28,19488.4 c 104.47,-254.5 149.29,-539.6 129.62,-824.6 -9.32,-135.1 -4.57,-274.6 14.12,-414.7 29.39,-220.2 91.1,-424.1 178.49,-589.7 14.42,-27.3 9.21,-60.9 -12.82,-82.6 -46.37,-45.6 -187.49,-184.5 -186.32,-280.4 0.32,-26.2 1.3,-105.9 133.23,-167.2 87.38,-40.6 209.4,-62 344.87,-60.3 126.65,1.5 420.96,27.8 418.37,237.9 -0.39,31.2 -6.77,64.4 -19,98.5 -7.7,21.5 -4.44,45.4 8.73,64 151.92,214.9 219.96,586.2 179.57,973.8 -13.72,4.7 -27.31,9.5 -41.02,14.4 -29.4,10.7 -58.54,22.1 -87.3,34.6 -28.73,12.4 -57.16,25.8 -84.45,41.6 -13.61,7.9 -26.96,16.4 -39.41,26.2 -12.26,9.8 -6.51,18.1 7.32,13.1 13.93,-4.9 28.33,-8.4 42.84,-11.3 29.08,-5.7 58.72,-9.1 88.43,-11.5 29.72,-2.3 59.58,-3.6 89.43,-4.3 25.47,-0.4 51.51,-0.5 76.48,0.2 4.71,0.9 9.52,1.5 14.37,1.5 4.16,0 8.34,-0.4 12.49,-1.1 204.18,-37.1 428.65,-55.1 686.26,-55.1 257.62,0 482.11,18 686.27,55.1 8.94,1.6 17.94,1.3 26.59,-0.4 25.04,-0.7 51.19,-0.6 76.75,-0.2 29.84,0.7 59.71,2 89.43,4.3 29.71,2.4 59.35,5.8 88.43,11.5 14.51,2.9 28.91,6.4 42.83,11.3 13.83,5 19.6,-3.3 7.33,-13.1 -12.44,-9.8 -25.8,-18.3 -39.41,-26.2 -27.29,-15.8 -55.72,-29.2 -84.45,-41.6 -28.75,-12.5 -57.89,-23.9 -87.29,-34.6 -13.71,-4.9 -27.3,-9.7 -41.03,-14.4 -40.38,-387.6 27.66,-758.9 179.57,-973.8 13.18,-18.6 16.44,-42.5 8.75,-64 -12.23,-34.1 -18.63,-67.3 -19.01,-98.5 -2.58,-210.1 291.72,-236.4 418.37,-237.9 135.15,-1.6 257.49,19.7 344.88,60.3 131.92,61.3 132.9,141 133.22,167.2 1.18,95.9 -139.95,234.8 -186.33,280.4 -22.03,21.7 -27.23,55.2 -12.81,82.6 87.38,165.6 149.11,369.5 178.49,589.7 18.68,140.1 23.44,279.6 14.12,414.7 -19.67,285 25.15,570.1 129.62,824.6 112.92,275.1 170.16,616.2 170.16,1014 0,1525.7 -873.61,2591.2 -2124.48,2591.2 -1250.85,0 -2124.47,-1065.5 -2124.47,-2591.2 0,-397.8 57.26,-738.9 170.17,-1014 m -310.17,1014 c 0,817.5 228.22,1511.4 660,2006.4 407.6,467.4 977.41,724.8 1604.47,724.8 627.06,0 1196.89,-257.4 1604.49,-724.8 431.77,-495 659.99,-1188.9 659.99,-2006.4 0,-416.1 -60.78,-775.2 -180.64,-1067.1 -96.36,-234.7 -137.67,-498.2 -119.47,-761.9 9.97,-144.4 4.91,-293.4 -15.02,-442.8 -28.89,-216.5 -87.44,-419.4 -170.08,-590.3 100.88,-103.9 193.46,-223.1 191.95,-345.6 -1.09,-88.5 -39.14,-211.1 -214.22,-292.4 -106.03,-49.3 -250.11,-75.4 -405.59,-73.4 -351.42,4.3 -559.51,146.3 -556.64,379.7 0.44,35.6 5.86,72.2 16.16,109.3 -148.49,231.3 -219.08,595.1 -190.52,975.7 -187.73,-28.3 -391.72,-42.2 -620.41,-42.2 -228.68,0 -432.66,13.9 -620.4,42.2 28.57,-380.6 -42.02,-744.4 -190.52,-975.7 10.31,-37.1 15.74,-73.7 16.16,-109.3 2.88,-233.4 -205.2,-375.4 -556.62,-379.7 -5.38,-0.1 -10.73,-0.1 -16.07,-0.1 -149.38,0 -287.18,25.9 -389.52,73.5 -175.1,81.3 -213.14,203.9 -214.23,292.4 -1.51,122.5 91.06,241.7 191.96,345.6 -82.65,170.9 -141.19,373.7 -170.09,590.3 -19.93,149.4 -24.99,298.4 -15.02,442.8 18.2,263.7 -23.1,527.1 -119.46,761.9 -119.88,291.9 -180.66,651 -180.66,1067.1"
         style="fill:#231f20;fill-opacity:1;fill-rule:nonzero;stroke:none"
         id="path1682" /><path
         d="m 5248.55,17218.6 c 1.16,-209 265.9,-261.6 592.11,-259.6 326.21,2 590.36,57.9 589.2,266.9 -1.16,209.1 -266.93,446.1 -593.14,444.1 -326.22,-2 -589.33,-242.3 -588.17,-451.4"
         style="fill:#3c2415;fill-opacity:1;fill-rule:nonzero;stroke:none"
         id="path1684" /><path
         d="m 5264.87,17070.5 c -11.09,19.5 -20.61,60.3 -24.93,85.7 -10.05,58.9 -0.28,120.3 26.34,179.4 -1.33,-8.7 -2.22,-17.5 -2.64,-26.2 -10.03,-30.4 -15.26,-60.9 -15.09,-90.8 0.21,-37.4 8.88,-69.9 24.86,-97.9 -3.78,-16.9 -6.63,-33.7 -8.54,-50.2"
         style="fill:#edeae6;fill-opacity:1;fill-rule:nonzero;stroke:none"
         id="path1686" /><path
         d="m 5263.64,17309.4 c 0.42,8.7 1.31,17.5 2.64,26.2 32.62,72.5 90.53,141.4 168.23,197.9 -83.57,-63.8 -144.2,-143.4 -170.87,-224.1"
         style="fill:#868485;fill-opacity:1;fill-rule:nonzero;stroke:none"
         id="path1688" /><path
         d="m 6225.5,17549.3 c -103.23,72.3 -237.71,120.8 -384.66,120.8 -1.39,0 -2.73,-0.1 -4.12,-0.1 -12.43,0 -24.73,-0.5 -36.96,-1.2 24.26,2.4 48.25,3.5 71.85,3.5 140.65,0 267.72,-40.8 359.82,-105.8 -1.95,-5.7 -3.91,-11.4 -5.93,-17.2"
         style="fill:#fad6a1;fill-opacity:1;fill-rule:nonzero;stroke:none"
         id="path1690" /><path
         d="m 6301.32,17486.5 c -22.79,22.3 -48.2,43.4 -75.82,62.8 2.02,5.8 3.98,11.5 5.93,17.2 29.44,-20.7 55.33,-44 76.92,-69.2 -2.31,-3.6 -4.67,-7.2 -7.03,-10.8"
         style="fill:#d7be98;fill-opacity:1;fill-rule:nonzero;stroke:none"
         id="path1692" /><path
         d="m 6356.75,17423 c -16.15,21.9 -34.71,43.2 -55.43,63.5 2.36,3.6 4.72,7.2 7.03,10.8 19.97,-23.2 36.3,-48.2 48.4,-74.3"
         style="fill:#868485;fill-opacity:1;fill-rule:nonzero;stroke:none"
         id="path1694" /><path
         d="m 5273.41,17120.7 c -15.98,28 -24.65,60.5 -24.86,97.9 -0.17,29.9 5.06,60.4 15.09,90.8 26.67,80.7 87.3,160.3 170.87,224.1 80.26,58.4 181.63,103.5 298.05,125.6 22.6,4.3 44.99,7.5 67.2,9.7 12.23,0.7 24.53,1.2 36.96,1.2 1.39,0 2.73,0.1 4.12,0.1 146.95,0 281.43,-48.5 384.66,-120.8 27.62,-19.4 53.03,-40.5 75.82,-62.8 20.72,-20.3 39.28,-41.6 55.43,-63.5 10.04,-21.7 17.18,-44.2 21.12,-67.3 4.33,-25.4 30.6,-46.6 26.64,-69 -72.38,147.6 -315.19,271.4 -559.76,271.4 -42.08,0 -84.24,-3.7 -125.56,-11.5 -257.47,-48.8 -405.31,-244.8 -445.78,-425.9"
         style="fill:#94877f;fill-opacity:1;fill-rule:nonzero;stroke:none"
         id="path1696" /><path
         d="m 5837.02,17615.6 c -299.27,-1.9 -539.05,-218.5 -538.06,-396.6 0.78,-140.6 177.87,-207.8 541.4,-205.5 363.53,2.2 539.86,71.6 539.09,212.1 -0.99,178.2 -243.17,391.8 -542.43,390 z m 3.95,-711 c -190.23,-1.2 -332.31,16.3 -434.36,53.5 -171.46,62.4 -208.01,176 -208.48,260.2 -0.67,121.3 69.1,247.8 191.43,347.2 124.93,101.5 283.63,158 446.86,159 163.22,1 322.54,-53.5 448.59,-153.5 123.42,-97.8 194.59,-223.5 195.26,-344.8 0.47,-84.2 -34.82,-198.2 -205.57,-262.8 -101.63,-38.4 -243.5,-57.7 -433.73,-58.8"
         style="fill:#231f20;fill-opacity:1;fill-rule:nonzero;stroke:none"
         id="path1698" /><path
         d="m 9220.63,17218.6 c -1.17,-209 -265.92,-261.6 -592.13,-259.6 -326.21,2 -590.35,57.9 -589.19,266.9 1.17,209.1 266.94,446.1 593.15,444.1 326.21,-2 589.33,-242.3 588.17,-451.4"
         style="fill:#3c2415;fill-opacity:1;fill-rule:nonzero;stroke:none"
         id="path1700" /><path
         d="m 9204.29,17070.5 c -1.9,16.5 -4.75,33.3 -8.53,50.2 15.98,28 24.66,60.5 24.87,97.9 0.16,29.9 -5.07,60.4 -15.1,90.8 -0.42,8.7 -1.31,17.5 -2.63,26.2 26.61,-59.1 36.39,-120.5 26.34,-179.4 -4.33,-25.4 -13.84,-66.2 -24.95,-85.7"
         style="fill:#edeae6;fill-opacity:1;fill-rule:nonzero;stroke:none"
         id="path1702" /><path
         d="m 9205.53,17309.4 c -26.65,80.6 -87.22,160.2 -170.73,224 77.64,-56.5 135.5,-125.4 168.1,-197.8 1.32,-8.7 2.21,-17.5 2.63,-26.2"
         style="fill:#868485;fill-opacity:1;fill-rule:nonzero;stroke:none"
         id="path1704" /><path
         d="m 8243.67,17549.3 c -2.02,5.8 -3.97,11.5 -5.92,17.3 92.09,64.9 219.17,105.7 359.81,105.7 23.59,0 47.57,-1.1 71.83,-3.5 -12.21,0.7 -24.53,1.2 -36.93,1.2 -1.4,0 -2.74,0.1 -4.13,0.1 -146.94,0 -281.43,-48.5 -384.66,-120.8"
         style="fill:#fad6a1;fill-opacity:1;fill-rule:nonzero;stroke:none"
         id="path1706" /><path
         d="m 8167.85,17486.5 c -2.36,3.6 -4.71,7.2 -7.03,10.8 21.6,25.2 47.47,48.5 76.93,69.3 1.95,-5.8 3.9,-11.5 5.92,-17.3 -27.62,-19.4 -53.03,-40.5 -75.82,-62.8"
         style="fill:#d7be98;fill-opacity:1;fill-rule:nonzero;stroke:none"
         id="path1708" /><path
         d="m 8112.4,17422.9 c 12.11,26.2 28.44,51.2 48.42,74.4 2.32,-3.6 4.67,-7.2 7.03,-10.8 -20.72,-20.3 -39.29,-41.6 -55.45,-63.6"
         style="fill:#868485;fill-opacity:1;fill-rule:nonzero;stroke:none"
         id="path1710" /><path
         d="m 9195.76,17120.7 c -40.47,181.1 -188.32,377.1 -445.77,425.9 -41.32,7.8 -83.49,11.5 -125.56,11.5 -244.58,0 -487.4,-123.8 -559.77,-271.4 -3.97,22.4 22.31,43.6 26.63,69 3.94,23.1 11.08,45.6 21.11,67.2 16.16,22 34.73,43.3 55.45,63.6 22.79,22.3 48.2,43.4 75.82,62.8 103.23,72.3 237.72,120.8 384.66,120.8 1.39,0 2.73,-0.1 4.13,-0.1 12.4,0 24.72,-0.5 36.93,-1.2 22.2,-2.2 44.62,-5.4 67.21,-9.7 116.48,-22.1 217.92,-67.3 298.2,-125.7 83.51,-63.8 144.08,-143.4 170.73,-224 10.03,-30.4 15.26,-60.9 15.1,-90.8 -0.21,-37.4 -8.89,-69.9 -24.87,-97.9"
         style="fill:#94877f;fill-opacity:1;fill-rule:nonzero;stroke:none"
         id="path1712" /><path
         d="m 8632.15,17615.6 c 299.27,-1.9 539.05,-218.5 538.06,-396.6 -0.78,-140.6 -177.87,-207.8 -541.4,-205.5 -363.53,2.2 -539.86,71.6 -539.09,212.1 0.99,178.2 243.17,391.8 542.43,390 z m -3.95,-711 c 190.23,-1.2 332.31,16.3 434.36,53.5 171.46,62.4 208.01,176 208.48,260.2 0.67,121.3 -69.1,247.8 -191.42,347.2 -124.94,101.5 -283.64,158 -446.86,159 -163.23,1 -322.55,-53.5 -448.6,-153.5 -123.42,-97.8 -194.59,-223.5 -195.26,-344.8 -0.47,-84.2 34.82,-198.2 205.58,-262.8 101.62,-38.4 243.49,-57.7 433.72,-58.8"
         style="fill:#231f20;fill-opacity:1;fill-rule:nonzero;stroke:none"
         id="path1714" /><path
         d="M 9198.73,19741.8 H 5270.45 c -78.17,0 -141.53,-59.5 -141.53,-132.8 v -85.1 c 0,-75.6 65.24,-136.8 145.72,-136.8 h 3919.89 c 80.48,0 145.73,61.2 145.73,136.8 v 85.1 c 0,73.3 -63.37,132.8 -141.53,132.8"
         style="fill:#754c29;fill-opacity:1;fill-rule:nonzero;stroke:none"
         id="path1716" /><path
         d="m 7735.95,19658.6 h -91.79 c -0.18,14.3 -1.92,28.2 -5.04,41.6 h 96.56 c 0.08,-13.9 0.18,-27.7 0.27,-41.6 m -904.48,0 h -98.26 c 0.1,13.9 0.19,27.7 0.28,41.6 h 103.03 c -3.13,-13.4 -4.87,-27.3 -5.05,-41.6"
         style="fill:#b39d8a;fill-opacity:1;fill-rule:nonzero;stroke:none"
         id="path1718" /><path
         d="m 7738.13,19428.7 h -99.01 c 3.3,14.1 5.06,28.9 5.06,44.1 v 0.4 h 93.44 c 0.16,-14.8 0.33,-29.6 0.51,-44.5 m -901.61,0 h -105.48 c 0.18,14.9 0.35,29.7 0.51,44.5 h 99.91 v -0.4 c 0,-15.2 1.75,-30 5.06,-44.1"
         style="fill:#503825;fill-opacity:1;fill-rule:nonzero;stroke:none"
         id="path1720" /><path
         d="m 5270.45,19700.2 c -53.6,0 -97.2,-40.9 -97.2,-91.2 v -85.1 c 0,-52.5 45.49,-95.2 101.39,-95.2 h 3919.89 c 55.91,0 101.4,42.7 101.4,95.2 v 85.1 c 0,50.3 -43.6,91.2 -97.2,91.2 H 5270.45 m 3924.08,-354.7 H 5274.64 c -104.79,0 -190.05,80 -190.05,178.4 v 85.1 c 0,96.1 83.37,174.4 185.86,174.4 h 3928.28 c 102.49,0 185.86,-78.3 185.86,-174.4 v -85.1 c 0,-98.4 -85.27,-178.4 -190.06,-178.4"
         style="fill:#231f20;fill-opacity:1;fill-rule:nonzero;stroke:none"
         id="path1722" /><path
         d="M 7471.03,19804.8 H 7004.6 c -75.21,0 -136.19,-66.6 -136.19,-148.7 v -183.3 c 0,-82.1 60.98,-148.7 136.19,-148.7 h 466.43 c 75.22,0 136.21,66.6 136.21,148.7 v 183.3 c 0,82.1 -60.99,148.7 -136.21,148.7"
         style="fill:#fff200;fill-opacity:1;fill-rule:nonzero;stroke:none"
         id="path1724" /><path
         d="m 7004.6,19770.1 c -54.73,0 -99.25,-51.1 -99.25,-114 v -183.3 c 0,-62.9 44.52,-114 99.25,-114 h 466.44 c 54.73,0 99.26,51.1 99.26,114 v 183.3 c 0,62.9 -44.53,114 -99.26,114 H 7004.6 m 466.44,-480.6 H 7004.6 c -95.47,0 -173.14,82.2 -173.14,183.3 v 183.3 c 0,101.1 77.67,183.3 173.14,183.3 h 466.44 c 95.46,0 173.14,-82.2 173.14,-183.3 v -183.3 c 0,-101.1 -77.68,-183.3 -173.14,-183.3"
         style="fill:#231f20;fill-opacity:1;fill-rule:nonzero;stroke:none"
         id="path1726" /><path
         d="m 7412.8,19719.5 h -349.97 c -56.44,0 -102.19,-43 -102.19,-95.9 v -118.3 c 0,-52.9 45.75,-95.9 102.19,-95.9 h 349.97 c 56.44,0 102.2,43 102.2,95.9 v 118.3 c 0,52.9 -45.76,95.9 -102.2,95.9"
         style="fill:#754c29;fill-opacity:1;fill-rule:nonzero;stroke:none"
         id="path1728" /><path
         d="m 7062.84,19702.1 c -46.16,0 -83.72,-35.2 -83.72,-78.5 v -118.3 c 0,-43.3 37.56,-78.5 83.72,-78.5 h 349.96 c 46.17,0 83.73,35.2 83.73,78.5 v 118.3 c 0,43.3 -37.56,78.5 -83.73,78.5 h -349.96 m 349.96,-310 h -349.96 c -66.54,0 -120.67,50.8 -120.67,113.2 v 118.3 c 0,62.4 54.13,113.2 120.67,113.2 h 349.96 c 66.53,0 120.67,-50.8 120.67,-113.2 v -118.3 c 0,-62.4 -54.14,-113.2 -120.67,-113.2"
         style="fill:#231f20;fill-opacity:1;fill-rule:nonzero;stroke:none"
         id="path1730" /><path
         d="M 6682.1,22829.2 V 22210 l 550.01,-197.7 549.99,197.7 v 619.2 h -1100"
         style="fill:#865439;fill-opacity:1;fill-rule:nonzero;stroke:none"
         id="path1732" /><path
         d="m 7995.55,22753.4 c 0,0 -746.47,-677.5 -760.91,-697.4 -14.45,19.9 -760.91,697.4 -760.91,697.4 -37.3,33.6 -82.81,-35.2 -56.26,-82 l 551.07,-1006.3 c 0,0 256.85,273.1 266.1,278.4 9.25,-5.3 257.86,-278.4 257.86,-278.4 l 559.31,1006.3 c 26.56,46.8 -18.96,115.6 -56.26,82"
         style="fill:#ffffff;fill-opacity:1;fill-rule:nonzero;stroke:none"
         id="path1734" /><path
         d="m 7270.53,21895.9 h -60.37 v 190.3 h 60.37 v -190.3"
         style="fill:#231f20;fill-opacity:1;fill-rule:nonzero;stroke:none"
         id="path1736" /><path
         d="m 7194.59,22027 c 0.37,-0.5 0.91,-1.3 1.7,-2.2 l -1.7,2.2 m 80.1,0 -1.71,-2.2 c 0.8,0.9 1.34,1.7 1.71,2.2 m -815.55,672.9 c 0.21,-1.5 0.63,-2.9 1.33,-4.1 l 518.74,-947.2 c 216.13,229.3 223.53,233.6 230.68,237.8 15.32,8.8 34.18,8.8 49.5,0 7.64,-4.5 14.9,-8.7 223.32,-237.1 l 525.88,946.1 c 0.76,1.3 1.22,2.8 1.45,4.4 -288.39,-261.8 -708.27,-644.6 -737.38,-675.4 -9.35,-11.3 -23.27,-17.9 -38.02,-17.9 -14.75,0 -28.68,6.6 -38.02,17.9 -29.13,30.8 -449.09,413.7 -737.48,675.5 m 509.4,-1084.2 c -2.07,0 -4.16,0.1 -6.26,0.4 -15.7,2 -29.5,11.4 -37.11,25.3 l -551.06,1006.2 c -29.57,52.2 -8.92,116.3 27.37,145.4 32.29,26 74.61,24.8 105.34,-2.8 393.15,-356.9 636.91,-579.9 727.82,-665.8 90.9,85.9 334.65,308.9 727.68,665.6 l 0.15,0.2 c 30.7,27.6 73.04,28.8 105.32,2.8 36.3,-29.1 56.95,-93.2 27.02,-146 l -559.1,-1005.9 c -7.73,-13.9 -21.69,-23.2 -37.5,-25.1 -15.82,-1.8 -31.55,4.1 -42.27,15.9 -68.06,74.7 -170.06,186.1 -221.81,241.3 -53.24,-55.1 -158.97,-166.9 -229.57,-241.9 -9.41,-10 -22.48,-15.6 -36.02,-15.6"
         style="fill:#231f20;fill-opacity:1;fill-rule:nonzero;stroke:none"
         id="path1738" /><path
         d="m 6666.98,23383 c 0,0 -38.29,266.3 -200.12,221.5 C 5210.1,23416.2 4435,21150.4 4993.35,19686.1 c 42.63,-113.5 54.74,-231.7 68.57,-352.4 106.64,-297.9 1194.47,-393.2 1600.79,-416.3 47.31,-1.9 4.27,4465.6 4.27,4465.6"
         style="fill:#f5b553;fill-opacity:1;fill-rule:nonzero;stroke:none"
         id="path1740" /><path
         d="m 6621.77,18973.2 c -501.08,38.3 -1275.97,109.3 -1498.85,353.4 5.71,4.1 11.09,8.9 15.75,14.3 413.59,-184.2 925.67,-259.1 1478.38,-285.4 2.83,-0.1 5.71,-0.7 8.61,-1.8 -1.18,-33.4 -2.47,-60.4 -3.89,-80.5"
         style="fill:#b68844;fill-opacity:1;fill-rule:nonzero;stroke:none"
         id="path1742" /><path
         d="m 5138.67,19340.9 c -9.8,4.3 -19.47,8.7 -29.15,13.2 -2.03,18.4 -4.16,37.3 -6.49,56.4 15.66,12.2 30.35,25.2 44.05,39.1 2.61,-22 5.09,-44 7.62,-66 1.74,-15.3 -5.22,-30.4 -16.03,-42.7"
         style="fill:#fad6a1;fill-opacity:1;fill-rule:nonzero;stroke:none"
         id="path1744" /><path
         d="m 5122.92,19326.6 c -4.17,4.6 -8.14,9.2 -11.92,13.9 -0.49,4.5 -0.98,9 -1.48,13.6 9.68,-4.5 19.35,-8.9 29.15,-13.2 -4.66,-5.4 -10.04,-10.2 -15.75,-14.3"
         style="fill:#d7be98;fill-opacity:1;fill-rule:nonzero;stroke:none"
         id="path1746" /><path
         d="m 6502.32,23555.6 c -1325.2,-227.7 -1980.86,-2420.2 -1463.21,-3849.1 41.97,-107.6 59.02,-247.2 71.89,-366 205.71,-255.3 1000.31,-328.3 1510.77,-367.3 24.56,347.3 11.47,2774.5 -4.22,4404.9 -8.01,46.1 -41.22,177.5 -115.23,177.5 m 160.41,-4692.1 c -474.36,26.8 -1587.67,131.9 -1649.93,463.5 -12.73,112.9 -26.46,238.2 -65.3,338.7 -117.1,311.8 -176.48,695.9 -176.48,1141.4 -6.49,1307.6 539.18,2522.9 1683.66,2849.7 50.57,14 98.9,5.9 139.74,-23.5 96,-71.1 118.46,-223.5 122,-245.9 1,-16.4 10.09,-1116.4 15.56,-2218.5 2.47,-876.3 6.52,-1398.7 -5.64,-2046.7 -12.78,-244.1 4.77,-234.4 -63.61,-258.7"
         style="fill:#231f20;fill-opacity:1;fill-rule:nonzero;stroke:none"
         id="path1748" /><path
         d="M 6635.25,19994.3 6029,21336.6 c -17.98,39.8 -11.27,87.4 16.35,119.4 l 590.05,-1306.4 c -0.02,-53 -0.07,-104.7 -0.15,-155.3"
         style="fill:#b68844;fill-opacity:1;fill-rule:nonzero;stroke:none"
         id="path1750" /><path
         d="m 6647.19,19967.9 -11.94,26.4 c 0.08,50.6 0.13,102.3 0.15,155.3 l 10.61,-23.5 1.18,-158.2"
         style="fill:#231f20;fill-opacity:1;fill-rule:nonzero;stroke:none"
         id="path1752" /><path
         d="m 6249.89,21824.9 c -157.61,132.4 -218.95,184 -187.9,238.1 1.06,-1 2.19,-1.9 3.38,-2.8 l 241.32,-182.8 -56.8,-52.5"
         style="fill:#b68844;fill-opacity:1;fill-rule:nonzero;stroke:none"
         id="path1754" /><path
         d="m 6684.91,20133.9 -649.59,1438.3 333.78,308.5 -282.02,213.6 579.36,530.4 18.47,-2490.8"
         style="fill:#f5b553;fill-opacity:1;fill-rule:nonzero;stroke:none"
         id="path1756" /><path
         d="m 6186.78,22069.8 c -11.85,8.7 -24.22,18 -37.1,27.6 l 479.36,438.8 0.45,-61.2 -442.71,-405.2"
         style="fill:#fad6a1;fill-opacity:1;fill-rule:nonzero;stroke:none"
         id="path1758" /><path
         d="m 6645.5,20315.1 -562.91,1246.3 c 179.83,185.2 293.8,246.9 317.42,296 13.87,-22.6 11.03,-54.4 -9.48,-73.4 l -283.16,-261.6 538.01,-1191.2 0.12,-16.1"
         style="fill:#fad6a1;fill-opacity:1;fill-rule:nonzero;stroke:none"
         id="path1760" /><path
         d="m 6082.59,21561.4 562.91,-1246.3 -16.46,2221.1 -479.36,-438.8 c 393.06,-295 300.79,-157.3 -67.09,-536 m 602.32,-1469 c -14.25,0 -27.63,8.8 -34.14,23.2 l -649.59,1438.2 c -7.72,17.1 -3.79,37.7 9.53,50 l 295.98,273.6 -241.32,182.8 c -20.3,14.5 -21.84,49.4 -2.77,65.9 l 579.37,530.3 c 11.29,10.4 27.04,12.7 40.41,5.9 62.22,-12.7 19.6,-2492.6 40.63,-2528.1 0.38,-22.6 -17.33,-42 -38.1,-41.8"
         style="fill:#231f20;fill-opacity:1;fill-rule:nonzero;stroke:none"
         id="path1762" /><path
         d="m 7802.19,23383 c 0,0 38.29,266.3 200.11,221.5 1256.77,-188.3 2031.9,-2454.1 1473.51,-3918.4 -42.63,-113.5 -54.73,-231.7 -68.55,-352.4 -106.65,-297.9 -1194.47,-393.2 -1600.79,-416.3 -47.32,-1.9 -4.28,4465.6 -4.28,4465.6"
         style="fill:#f5b553;fill-opacity:1;fill-rule:nonzero;stroke:none"
         id="path1764" /><path
         d="m 7847.4,18973.2 c -1.42,20.1 -2.71,47.1 -3.88,80.5 2.89,1.1 5.76,1.7 8.59,1.8 552.71,26.3 1064.8,101.2 1478.39,285.4 4.66,-5.4 10.05,-10.2 15.75,-14.3 -222.88,-244.1 -997.76,-315.1 -1498.85,-353.4"
         style="fill:#b68844;fill-opacity:1;fill-rule:nonzero;stroke:none"
         id="path1766" /><path
         d="m 9330.5,19340.9 c -10.81,12.3 -17.77,27.4 -16.04,42.7 2.59,22.5 5.12,45 7.81,67.4 13.68,-13.9 28.36,-27 44.01,-39.4 -2.38,-19.5 -4.57,-38.7 -6.63,-57.5 -9.66,-4.5 -19.38,-8.9 -29.15,-13.2"
         style="fill:#fad6a1;fill-opacity:1;fill-rule:nonzero;stroke:none"
         id="path1768" /><path
         d="m 9346.25,19326.6 c -5.7,4.1 -11.09,8.9 -15.75,14.3 9.77,4.3 19.49,8.7 29.15,13.2 -0.5,-4.6 -1,-9.1 -1.49,-13.6 -3.78,-4.7 -7.74,-9.3 -11.91,-13.9"
         style="fill:#d7be98;fill-opacity:1;fill-rule:nonzero;stroke:none"
         id="path1770" /><path
         d="m 7966.85,23555.6 c 1325.19,-227.7 1980.86,-2420.2 1463.21,-3849.1 -41.98,-107.6 -59.02,-247.2 -71.9,-366 -205.71,-255.3 -1000.29,-328.3 -1510.76,-367.3 -24.56,347.3 -11.46,2774.5 4.22,4404.9 8,46.1 41.22,177.5 115.23,177.5 m -160.4,-4692.1 c 474.35,26.8 1587.65,131.9 1649.93,463.5 12.72,112.9 26.44,238.2 65.29,338.7 117.1,311.8 176.47,695.9 176.47,1141.4 6.5,1307.6 -539.17,2522.9 -1683.66,2849.7 -50.56,14 -98.88,5.9 -139.73,-23.5 -96,-71.1 -118.46,-223.5 -122.01,-245.9 -0.99,-16.4 -10.09,-1116.4 -15.56,-2218.5 -2.47,-876.3 -6.52,-1398.7 5.65,-2046.7 12.78,-244.1 -4.78,-234.4 63.62,-258.7"
         style="fill:#231f20;fill-opacity:1;fill-rule:nonzero;stroke:none"
         id="path1772" /><path
         d="m 7833.92,19994.3 c -0.08,50.6 -0.13,102.3 -0.15,155.3 l 590.05,1306.4 c 27.62,-32 34.32,-79.6 16.35,-119.4 l -606.25,-1342.3"
         style="fill:#b68844;fill-opacity:1;fill-rule:nonzero;stroke:none"
         id="path1774" /><path
         d="m 7821.99,19967.9 1.17,158.2 10.61,23.5 c 0.02,-53 0.07,-104.7 0.15,-155.3 l -11.93,-26.4"
         style="fill:#231f20;fill-opacity:1;fill-rule:nonzero;stroke:none"
         id="path1776" /><path
         d="m 8219.28,21824.9 -56.81,52.5 241.34,182.8 c 1.19,0.9 2.31,1.8 3.37,2.8 31.05,-54.1 -30.3,-105.7 -187.9,-238.1"
         style="fill:#b68844;fill-opacity:1;fill-rule:nonzero;stroke:none"
         id="path1778" /><path
         d="m 7784.26,20133.9 649.59,1438.3 -333.78,308.5 282.03,213.6 -579.37,530.4 -18.47,-2490.8"
         style="fill:#f5b553;fill-opacity:1;fill-rule:nonzero;stroke:none"
         id="path1780" /><path
         d="m 8282.39,22069.8 -442.71,405.2 0.45,61.2 479.35,-438.8 c -12.88,-9.6 -25.24,-18.9 -37.09,-27.6"
         style="fill:#fad6a1;fill-opacity:1;fill-rule:nonzero;stroke:none"
         id="path1782" /><path
         d="m 7823.67,20315.1 0.12,16.1 538.01,1191.2 -283.15,261.6 c -20.52,19 -23.36,50.8 -9.49,73.4 23.62,-49.1 137.59,-110.8 317.42,-296 l -562.91,-1246.3"
         style="fill:#fad6a1;fill-opacity:1;fill-rule:nonzero;stroke:none"
         id="path1784" /><path
         d="m 8386.58,21561.4 -562.91,-1246.3 16.46,2221.1 479.35,-438.8 c -393.06,-295 -300.77,-157.3 67.1,-536 m -602.31,-1469 c 14.24,0 27.62,8.8 34.13,23.2 l 649.59,1438.2 c 7.72,17.1 3.79,37.7 -9.53,50 l -295.99,273.6 241.34,182.8 c 20.3,14.5 21.83,49.4 2.75,65.9 l -579.36,530.3 c -11.29,10.4 -27.03,12.7 -40.41,5.9 -62.22,-12.7 -19.6,-2492.6 -40.63,-2528.1 -0.37,-22.6 17.33,-42 38.11,-41.8"
         style="fill:#231f20;fill-opacity:1;fill-rule:nonzero;stroke:none"
         id="path1786" /><path
         d="m 7470,21854.6 c -3.02,49.4 -57.8,88.3 -124.34,88.3 h -222.15 c -66.54,0 -121.31,-38.9 -124.34,-88.3 l -112.18,-1829.4 c -1.53,-25.1 10.71,-49.6 33.93,-67.8 l 223.25,-175.5 c 49.11,-38.6 131.73,-38.6 180.83,0 l 223.26,175.5 c 23.22,18.2 35.46,42.7 33.91,67.8 L 7470,21854.6"
         style="fill:#2d2424;fill-opacity:1;fill-rule:nonzero;stroke:none"
         id="path1788" /><path
         d="m 7234.58,19790.1 c -20.68,0 -39.88,6.2 -54.09,17.4 l -223.25,175.4 c -13.81,10.9 -21.21,25.7 -20.3,40.6 l 56.18,916.1 c -16.56,-445.6 -33.26,-892.4 -33.26,-892.4 -1.53,-25 10.71,-49.5 33.93,-67.8 l 243.25,-175.4 0.08,-0.1 v 0 c 0.03,0 0.06,-0.4 0.08,-9.9 l 233.25,175.4 c 23.21,28.3 35.45,52.8 33.92,77.8 0,0 -14.25,446.9 -28.32,892.6 l 56.19,-916.3 c 0.91,-14.9 -6.49,-29.7 -20.3,-40.6 l -223.25,-175.4 c -14.21,-11.2 -33.43,-17.4 -54.11,-17.4"
         style="fill:#8c8787;fill-opacity:1;fill-rule:nonzero;stroke:none"
         id="path1790" /><path
         d="m 7123.51,21905.7 c -39.89,0 -72.58,-23.2 -74.39,-52.8 l -112.18,-1829.4 c -0.91,-14.9 6.49,-29.7 20.3,-40.6 l 223.25,-175.4 c 14.21,-11.2 33.41,-17.4 54.09,-17.4 20.68,0 39.9,6.2 54.11,17.4 l 223.25,175.4 c 13.81,10.9 21.21,25.7 20.3,40.6 l -112.19,1829.4 v 0 c -1.81,29.6 -34.49,52.8 -74.39,52.8 h -222.15 m 111.07,-2189.9 c -47.74,0 -93.94,14.8 -126.74,40.6 l -223.25,175.4 c -32.36,25.5 -49.69,60.1 -47.55,95.1 l 112.18,1829.4 c 4.26,69.4 80.81,123.8 174.29,123.8 h 222.15 c 93.48,0 170.03,-54.4 174.29,-123.8 l 112.17,-1829.4 c 2.14,-35 -15.18,-69.6 -47.53,-95.1 l -223.26,-175.4 c -32.8,-25.8 -79,-40.6 -126.75,-40.6"
         style="fill:#231f20;fill-opacity:1;fill-rule:nonzero;stroke:none"
         id="path1792" /><path
         d="m 7583.03,21811.4 -270.35,218.7 c -43.13,34.8 -113.06,34.8 -156.18,0 l -270.37,-218.7 c -43.13,-34.8 -43.13,-91.4 0,-126.3 l 85.2,-68.9 c 145.39,-117.6 381.11,-117.6 526.5,0 l 85.2,68.9 c 43.13,34.9 43.13,91.5 0,126.3"
         style="fill:#2d2424;fill-opacity:1;fill-rule:nonzero;stroke:none"
         id="path1794" /><path
         d="m 7615.31,21751.5 c -0.36,8 -2.04,16 -5.06,23.7 l 0.64,1.2 c 2.91,-8.1 4.39,-16.5 4.42,-24.9"
         style="fill:#ffffff;fill-opacity:1;fill-rule:nonzero;stroke:none"
         id="path1796" /><path
         d="m 7610.25,21775.2 c -0.29,0.8 -0.6,1.5 -0.92,2.3 0.2,0.4 0.4,0.9 0.59,1.4 0.34,-0.8 0.66,-1.7 0.97,-2.5 l -0.64,-1.2"
         style="fill:#868485;fill-opacity:1;fill-rule:nonzero;stroke:none"
         id="path1798" /><path
         d="m 6853.86,21751.6 c 0.03,5.5 0.68,11 1.95,16.4 l 0.47,-0.8 c -1.37,-5.1 -2.18,-10.3 -2.42,-15.6"
         style="fill:#ffffff;fill-opacity:1;fill-rule:nonzero;stroke:none"
         id="path1800" /><path
         d="m 6856.28,21767.2 -0.47,0.8 c 0.86,3.7 2.01,7.3 3.43,10.9 0.19,-0.5 0.39,-1 0.59,-1.4 -1.44,-3.4 -2.63,-6.8 -3.55,-10.3"
         style="fill:#868485;fill-opacity:1;fill-rule:nonzero;stroke:none"
         id="path1802" /><path
         d="m 7234.58,21531.1 c -95.27,0 -190.55,29.4 -263.25,88.2 l -85.2,68.9 c -21.66,17.5 -32.39,40.5 -32.27,63.4 0.24,5.3 1.05,10.5 2.42,15.6 0.92,3.5 2.11,6.9 3.55,10.3 5.29,-12.5 13.99,-24.2 26.3,-34.2 l 85.2,-68.9 c 72.7,-58.8 167.98,-88.2 263.25,-88.2 95.28,0 190.56,29.4 263.25,88.2 l 85.2,68.9 c 12.31,10 21.03,21.7 26.3,34.2 0.32,-0.8 0.63,-1.5 0.92,-2.3 3.02,-7.7 4.7,-15.7 5.06,-23.7 0.08,-22.9 -10.65,-45.8 -32.28,-63.3 l -85.2,-68.9 c -72.69,-58.8 -167.97,-88.2 -263.25,-88.2"
         style="fill:#8c8787;fill-opacity:1;fill-rule:nonzero;stroke:none"
         id="path1804" /><path
         d="m 7234.58,21410.7 c -73.21,0 -146.42,17.3 -209.38,52 l 5.19,84.7 c 61.78,-32.9 132.98,-49.3 204.19,-49.3 71.22,0 142.43,16.4 204.21,49.3 l 5.19,-84.7 c -62.97,-34.7 -136.18,-52 -209.4,-52"
         style="fill:#2a2223;fill-opacity:1;fill-rule:nonzero;stroke:none"
         id="path1806" /><path
         d="m 7025.2,21462.7 c -18.98,10.5 -37.03,22.5 -53.87,36.1 v 87.5 c 18.36,-14.9 38.18,-27.8 59.06,-38.9 l -5.19,-84.7 m 418.78,0 -5.19,84.7 c 20.88,11.1 40.68,24 59.04,38.9 v -87.5 c -16.83,-13.6 -34.88,-25.6 -53.85,-36.1"
         style="fill:#231f20;fill-opacity:1;fill-rule:nonzero;stroke:none"
         id="path1808" /><path
         d="m 7234.58,22015.8 c -16.14,0 -31.31,-5.1 -42.73,-14.3 l -270.36,-218.7 c -11.42,-9.2 -17.71,-21.5 -17.71,-34.5 0,-13.1 6.29,-25.4 17.7,-34.6 l 85.22,-68.9 c 125.65,-101.6 330.12,-101.6 455.78,0 l 85.21,68.9 c 11.41,9.2 17.7,21.5 17.7,34.6 0,13 -6.29,25.3 -17.7,34.5 l -270.37,218.7 c -11.42,9.2 -26.59,14.3 -42.74,14.3 z m 0.01,-528 c -108.15,0 -216.27,33.2 -298.6,99.8 l -85.21,68.9 c -30.31,24.5 -47,57.1 -47,91.8 0,34.6 16.69,67.2 47,91.7 l 270.36,218.6 c 30.3,24.6 70.59,38.1 113.44,38.1 42.86,0 83.15,-13.5 113.45,-38.1 L 7618.4,21840 c 30.3,-24.5 46.99,-57.1 46.99,-91.7 0,-34.7 -16.69,-67.3 -47,-91.8 l -85.2,-68.9 c -82.32,-66.5 -190.48,-99.8 -298.6,-99.8"
         style="fill:#231f20;fill-opacity:1;fill-rule:nonzero;stroke:none"
         id="path1810" /><path
         d="m 5021.24,20172.5 c 95.53,-80.7 187.93,-201.5 199.93,-321.8 66.36,-665.9 -1045.54,-702.8 -863.61,196.9 l 663.68,124.9"
         style="fill:#865439;fill-opacity:1;fill-rule:nonzero;stroke:none"
         id="path1812" /><path
         d="m 5004.24,20110.5 c 74.1,-68 149.78,-168.4 159.46,-265.6 16.28,-163.2 -47.82,-299.2 -175.86,-373 -134.76,-77.8 -307.37,-71 -429.53,16.9 -136.11,97.8 -189.16,277.8 -151.11,509.4 l 597.04,112.3 m -319.88,-798.2 c 120.9,-23.5 251.03,-4.1 361.2,59.5 169.09,97.6 254.05,274.2 233.07,484.6 -11.89,119.2 -94.17,253.9 -220.13,360.2 -13.28,11.2 -30.88,15.9 -47.93,12.7 l -663.69,-125 c -23.11,-4.3 -41.26,-22.2 -45.93,-45.3 -81.02,-400.6 84.22,-588 189.92,-664 57.75,-41.5 124.11,-69.2 193.49,-82.7"
         style="fill:#231f20;fill-opacity:1;fill-rule:nonzero;stroke:none"
         id="path1814" /><path
         d="m 4784.5,19417.9 c -11.92,0 -23.84,0.5 -35.68,1.5 220,19.3 425.05,191.1 395.43,488.3 -0.61,6 -1.41,12 -2.41,18.1 11.41,-26.7 19.18,-53.9 21.86,-80.9 16.28,-163.2 -47.82,-299.2 -175.86,-373 -62.56,-36.1 -133.3,-54 -203.34,-54"
         style="fill:#634230;fill-opacity:1;fill-rule:nonzero;stroke:none"
         id="path1816" /><path
         d="m 4784.51,19412.6 c -21.83,0 -43.6,1.8 -65.04,5.2 9.79,0.2 19.6,0.8 29.35,1.6 11.84,-1 23.76,-1.5 35.68,-1.5 70.04,0 140.78,17.9 203.34,54 128.04,73.8 192.14,209.8 175.86,373 -2.68,27 -10.45,54.2 -21.86,80.9 -1.22,7.4 -2.74,14.8 -4.53,22.2 16.7,-33.5 28.2,-68.2 31.62,-102.5 16.48,-165.4 -48.57,-303.2 -178.46,-378.2 -63.37,-36.6 -135,-54.7 -205.96,-54.7"
         style="fill:#231f20;fill-opacity:1;fill-rule:nonzero;stroke:none"
         id="path1818" /><path
         d="m 5019.42,19452.6 c 14.28,2.6 23.79,16.2 21.25,30.5 l -22.07,124 c -2.54,14.3 -16.17,23.8 -30.44,21.3 -14.28,-2.6 -23.79,-16.2 -21.25,-30.5 l 22.07,-124 c 2.54,-14.3 16.17,-23.8 30.44,-21.3"
         style="fill:#231f20;fill-opacity:1;fill-rule:nonzero;stroke:none"
         id="path1820" /><path
         d="m 4686.44,19393.4 c 14.27,2.5 23.78,16.2 21.25,30.4 l -22.07,124.1 c -2.54,14.3 -16.17,23.8 -30.44,21.2 -14.28,-2.5 -23.79,-16.1 -21.25,-30.4 l 22.07,-124.1 c 2.54,-14.2 16.16,-23.8 30.44,-21.2"
         style="fill:#231f20;fill-opacity:1;fill-rule:nonzero;stroke:none"
         id="path1822" /><path
         d="m 4787.86,19307.9 c -104.77,-0.6 -208.76,30.1 -293.91,91.3 -104.69,75.3 -268.29,261 -187.86,658.8 5.75,28.4 33.47,46.8 61.86,41.1 28.43,-5.8 46.82,-33.5 41.07,-61.9 -50.95,-252 0.98,-448.2 146.23,-552.7 123.81,-89.1 298.69,-96 435.22,-17.2 129.89,75 194.94,212.8 178.46,378.2 -10.72,107.5 -100.82,218.7 -181.56,286.9 -22.15,18.7 -24.95,51.8 -6.23,74 18.69,22.1 51.82,24.9 73.98,6.2 124.94,-105.5 206.54,-238.8 218.29,-356.7 20.75,-208.3 -63.24,-383.1 -230.47,-479.5 -78.38,-45.3 -167.01,-67.9 -255.08,-68.5"
         style="fill:#231f20;fill-opacity:1;fill-rule:nonzero;stroke:none"
         id="path1824" /><path
         d="m 5255.91,21474.1 c -88.97,-375.9 -132.81,-794.6 -50.97,-1182.3 6.76,-32 9.94,-64.9 9.94,-98.1 l -973.99,-152.5 c -141.32,411.2 -303.06,1045.1 -119.33,1714.1 152.08,553.6 560.09,1075.6 1081.5,1201.2 84.77,20.4 167.69,42.4 226.33,57.1 14.96,3.7 151.81,41.9 149.79,26.6 l -323.27,-1566.1"
         style="fill:#f5b553;fill-opacity:1;fill-rule:nonzero;stroke:none"
         id="path1826" /><path
         d="m 4287.23,20117.6 c -199.91,606.2 -232.49,1136.5 -99.8,1619.6 111.7,406.6 392.67,857 795.33,1064.4 -344.63,-225.1 -604.83,-624.6 -719.51,-1042.1 -171.83,-625.6 -41.49,-1220.5 91.72,-1631.3 l -67.74,-10.6"
         style="fill:#fadaa9;fill-opacity:1;fill-rule:nonzero;stroke:none"
         id="path1828" /><path
         d="m 4247.95,19973.2 c 1.16,0.1 2.33,0.3 3.51,0.5 l 974,152.6 c 33.24,5.2 57.74,33.8 57.74,67.4 -0.01,38.5 -3.85,76.3 -11.44,112.2 -69.48,329.2 -52.46,717 50.62,1152.4 8.68,36.7 -14.03,73.5 -50.73,82.2 -36.71,8.7 -73.51,-14 -82.2,-50.7 -107.76,-455.2 -125.03,-863 -51.34,-1212.1 1.8,-8.6 3.32,-17.3 4.55,-26.1 l -855.43,-134 c -199.91,606.2 -232.49,1136.5 -99.8,1619.6 132.42,482.1 502.75,1025.5 1031.62,1152.9 55.58,13.4 109.89,27.3 157.78,39.6 39.58,10.2 73.75,18.9 99.46,25 36.7,8.7 59.39,45.6 50.69,82.3 -8.73,36.7 -45.59,59.4 -82.24,50.6 -26.9,-6.3 -61.64,-15.3 -101.86,-25.6 -47.44,-12.1 -101.21,-25.9 -155.82,-39.1 -260.86,-62.8 -508.07,-222.5 -714.92,-461.8 -189.11,-218.8 -337.01,-498.6 -416.44,-787.8 -144.14,-524.8 -104.7,-1098.6 120.58,-1754.3 10.39,-30.2 40.22,-49.1 71.67,-45.8"
         style="fill:#231f20;fill-opacity:1;fill-rule:nonzero;stroke:none"
         id="path1830" /><path
         d="m 5078.92,20241.6 c -1.5,12.6 -3.58,25 -6.33,37.4 -69.05,310.3 -43.4,642.7 24.08,952.3 11.4,52.3 34.43,100.8 66.97,142 -84.24,-408.5 -92.88,-776.6 -25.53,-1095.6 1.8,-8.6 3.32,-17.3 4.55,-26.1 l -63.74,-10"
         style="fill:#ac8141;fill-opacity:1;fill-rule:nonzero;stroke:none"
         id="path1832" /><path
         d="m 5081.68,20202.9 c -0.35,13 -1.25,25.9 -2.76,38.7 l 63.74,10 c -1.23,8.8 -2.75,17.5 -4.55,26.1 -67.35,319 -58.71,687.1 25.53,1095.6 22.1,28 48.59,52.7 78.8,72.9 l 15.7,10.5 c -91.06,-347.7 -153.46,-788.8 -73.88,-1146.5 6.57,-29.5 9.57,-59.8 9.38,-90.5 l -111.96,-16.8"
         style="fill:#231f20;fill-opacity:1;fill-rule:nonzero;stroke:none"
         id="path1834" /><path
         d="m 5282.98,20209.3 c -0.9,33.1 -4.66,65.5 -11.22,96.6 -69.48,329.2 -52.46,717 50.62,1152.4 2.73,11.6 2.35,23.1 -0.6,33.9 l 32.78,-22.7 c 22.31,-2.5 40.72,-55.4 35.37,-77.2 -82.6,-337.5 -134,-749.6 -58.88,-1087.2 l 0.2,-0.9 c 8.76,-39.8 -12.86,-78.7 -48.27,-94.9"
         style="fill:#ac8141;fill-opacity:1;fill-rule:nonzero;stroke:none"
         id="path1836" /><path
         d="m 5228.48,20197.8 c -0.7,25.7 -3.56,51.2 -9.1,76.1 -69.04,310.3 -64.3,640.4 3.18,950 19.14,87.9 63.7,292.8 63.7,292.8 l 35.52,-24.5 c 2.95,-10.8 3.33,-22.3 0.6,-33.9 -103.08,-435.4 -120.1,-823.2 -50.62,-1152.4 6.56,-31.1 10.32,-63.5 11.22,-96.6 -7.15,-3.2 -14.87,-5.6 -23.02,-6.8 l -31.48,-4.7"
         style="fill:#231f20;fill-opacity:1;fill-rule:nonzero;stroke:none"
         id="path1838" /><path
         d="m 9449.56,20172.5 c -95.53,-80.7 -187.93,-201.5 -199.92,-321.8 -66.37,-665.9 1045.56,-702.8 863.56,196.9 l -663.64,124.9"
         style="fill:#865439;fill-opacity:1;fill-rule:nonzero;stroke:none"
         id="path1840" /><path
         d="m 9466.57,20110.5 c -74.11,-68 -149.79,-168.4 -159.48,-265.6 -16.27,-163.2 47.84,-299.2 175.87,-373 134.75,-77.8 307.37,-71 429.53,16.9 136.11,97.8 189.21,277.8 151.11,509.4 l -597.03,112.3 m 319.87,-798.2 c -120.9,-23.5 -251.03,-4.1 -361.2,59.5 -169.1,97.6 -254.04,274.2 -233.07,484.6 11.88,119.2 94.18,253.9 220.13,360.2 13.27,11.2 30.88,15.9 47.93,12.7 l 663.67,-125 c 23.1,-4.3 41.3,-22.2 46,-45.3 81,-400.6 -84.3,-588 -189.96,-664 -57.76,-41.5 -124.11,-69.2 -193.5,-82.7"
         style="fill:#231f20;fill-opacity:1;fill-rule:nonzero;stroke:none"
         id="path1842" /><path
         d="m 9686.3,19417.9 c -70.05,0 -140.78,17.9 -203.34,54 -128.03,73.8 -192.14,209.8 -175.87,373 2.69,27 10.46,54.2 21.86,80.9 -0.99,-6 -1.8,-12.1 -2.4,-18.1 -29.61,-297.2 175.43,-469 395.43,-488.3 -11.84,-1 -23.76,-1.5 -35.68,-1.5"
         style="fill:#634230;fill-opacity:1;fill-rule:nonzero;stroke:none"
         id="path1844" /><path
         d="m 9686.29,19412.6 c -70.96,0 -142.59,18.1 -205.96,54.7 -129.9,75 -194.94,212.8 -178.45,378.2 3.42,34.3 14.91,68.9 31.59,102.5 -1.78,-7.4 -3.29,-14.8 -4.52,-22.2 -11.4,-26.7 -19.17,-53.9 -21.86,-80.9 -16.27,-163.2 47.84,-299.2 175.87,-373 62.56,-36.1 133.29,-54 203.34,-54 11.92,0 23.84,0.5 35.68,1.5 9.75,-0.8 19.57,-1.4 29.35,-1.6 -21.44,-3.4 -43.2,-5.2 -65.04,-5.2"
         style="fill:#231f20;fill-opacity:1;fill-rule:nonzero;stroke:none"
         id="path1846" /><path
         d="m 9451.38,19452.6 c -14.28,2.6 -23.79,16.2 -21.25,30.5 l 22.07,124 c 2.54,14.3 16.17,23.8 30.45,21.3 14.27,-2.6 23.78,-16.2 21.24,-30.5 l -22.07,-124 c -2.54,-14.3 -16.17,-23.8 -30.44,-21.3"
         style="fill:#231f20;fill-opacity:1;fill-rule:nonzero;stroke:none"
         id="path1848" /><path
         d="m 9784.36,19393.4 c -14.27,2.5 -23.78,16.2 -21.24,30.4 l 22.07,124.1 c 2.53,14.3 16.16,23.8 30.44,21.2 14.27,-2.5 23.78,-16.1 21.25,-30.4 l -22.08,-124.1 c -2.53,-14.2 -16.16,-23.8 -30.44,-21.2"
         style="fill:#231f20;fill-opacity:1;fill-rule:nonzero;stroke:none"
         id="path1850" /><path
         d="m 9682.93,19307.9 c 104.78,-0.6 208.78,30.1 293.93,91.3 104.64,75.3 268.24,261 187.84,658.8 -5.7,28.4 -33.5,46.8 -61.9,41.1 -28.4,-5.8 -46.8,-33.5 -41,-61.9 50.9,-252 -1,-448.2 -146.25,-552.7 -123.8,-89.1 -298.7,-96 -435.22,-17.2 -129.9,75 -194.94,212.8 -178.45,378.2 10.72,107.5 100.81,218.7 181.55,286.9 22.15,18.7 24.95,51.8 6.24,74 -18.7,22.1 -51.82,24.9 -73.99,6.2 -124.93,-105.5 -206.54,-238.8 -218.29,-356.7 -20.75,-208.3 63.24,-383.1 230.47,-479.5 78.38,-45.3 167.01,-67.9 255.07,-68.5"
         style="fill:#231f20;fill-opacity:1;fill-rule:nonzero;stroke:none"
         id="path1852" /><path
         d="m 9214.89,21474.1 c 88.97,-375.9 132.82,-794.6 50.98,-1182.3 -6.76,-32 -9.96,-64.9 -9.96,-98.1 l 973.99,-152.5 c 141.3,411.2 303.1,1045.1 119.3,1714.1 -152,553.6 -560.05,1075.6 -1081.46,1201.2 -84.77,20.4 -167.69,42.4 -226.33,57.1 -14.96,3.7 -151.8,41.9 -149.78,26.6 l 323.26,-1566.1"
         style="fill:#f5b553;fill-opacity:1;fill-rule:nonzero;stroke:none"
         id="path1854" /><path
         d="m 10183.6,20117.6 -67.8,10.6 c 133.2,410.8 263.6,1005.7 91.7,1631.3 -114.6,417.5 -374.82,817 -719.41,1042.1 402.61,-207.5 683.61,-657.8 795.31,-1064.4 132.7,-483.1 100.1,-1013.4 -99.8,-1619.6"
         style="fill:#fadaa9;fill-opacity:1;fill-rule:nonzero;stroke:none"
         id="path1856" /><path
         d="m 10222.9,19973.2 c -1.2,0.1 -2.4,0.3 -3.6,0.5 l -973.96,152.6 c -33.24,5.2 -57.73,33.8 -57.73,67.4 0,38.5 3.85,76.3 11.43,112.2 69.49,329.2 52.46,717 -50.61,1152.4 -8.69,36.7 14.02,73.5 50.73,82.2 36.71,8.7 73.5,-14 82.19,-50.7 107.75,-455.2 125.03,-863 51.35,-1212.1 -1.8,-8.6 -3.33,-17.3 -4.56,-26.1 l 855.46,-134 c 199.9,606.2 232.5,1136.5 99.8,1619.6 -132.5,482.1 -502.78,1025.5 -1031.65,1152.9 -55.59,13.4 -109.88,27.3 -157.79,39.6 -39.57,10.2 -73.75,18.9 -99.44,25 -36.7,8.7 -59.39,45.6 -50.69,82.3 8.71,36.7 45.57,59.4 82.23,50.6 26.91,-6.3 61.64,-15.3 101.86,-25.6 47.44,-12.1 101.21,-25.9 155.81,-39.1 260.87,-62.8 508.09,-222.5 714.93,-461.8 189.14,-218.8 337.04,-498.6 416.44,-787.8 144.2,-524.8 104.7,-1098.6 -120.6,-1754.3 -10.4,-30.2 -40.2,-49.1 -71.6,-45.8"
         style="fill:#231f20;fill-opacity:1;fill-rule:nonzero;stroke:none"
         id="path1858" /><path
         d="m 9391.89,20241.6 -63.75,10 c 1.23,8.8 2.76,17.5 4.56,26.1 67.34,319 58.7,687.2 -25.55,1095.6 32.55,-41.2 55.59,-89.7 66.98,-142 67.49,-309.6 93.13,-642 24.09,-952.3 -2.75,-12.4 -4.84,-24.8 -6.33,-37.4"
         style="fill:#ac8141;fill-opacity:1;fill-rule:nonzero;stroke:none"
         id="path1860" /><path
         d="m 9389.12,20202.9 -111.96,16.8 c -0.19,30.7 2.81,61 9.39,90.5 79.56,357.7 17.18,798.8 -73.89,1146.5 l 15.71,-10.5 c 30.2,-20.2 56.69,-44.9 78.78,-72.9 84.25,-408.4 92.89,-776.6 25.55,-1095.6 -1.8,-8.6 -3.33,-17.3 -4.56,-26.1 l 63.75,-10 c -1.52,-12.8 -2.42,-25.7 -2.77,-38.7"
         style="fill:#231f20;fill-opacity:1;fill-rule:nonzero;stroke:none"
         id="path1862" /><path
         d="m 9187.82,20209.3 c -35.41,16.2 -57.03,55.1 -48.26,94.9 l 0.19,0.9 c 75.12,337.6 23.72,749.7 -58.88,1087.2 -5.34,21.8 13.05,74.7 35.37,77.2 l 32.78,22.7 c -2.95,-10.8 -3.33,-22.3 -0.59,-33.9 103.07,-435.4 120.1,-823.2 50.61,-1152.4 -6.56,-31.1 -10.32,-63.5 -11.22,-96.6"
         style="fill:#ac8141;fill-opacity:1;fill-rule:nonzero;stroke:none"
         id="path1864" /><path
         d="m 9242.33,20197.8 -31.49,4.7 c -8.14,1.2 -15.86,3.6 -23.02,6.8 0.9,33.1 4.66,65.5 11.22,96.6 69.49,329.2 52.46,717 -50.61,1152.4 -2.74,11.6 -2.36,23.1 0.59,33.9 l 35.53,24.5 c 0,0 44.56,-204.9 63.68,-292.8 67.5,-309.6 72.23,-639.7 3.19,-950 -5.54,-24.9 -8.4,-50.4 -9.09,-76.1"
         style="fill:#231f20;fill-opacity:1;fill-rule:nonzero;stroke:none"
         id="path1866" /><path
         d="m 5369.15,25077.5 c 0,-538.3 -436.39,-974.7 -974.71,-974.7 -538.31,0 -974.7,436.4 -974.7,974.7 0,538.3 436.39,974.7 974.7,974.7 538.32,0 974.71,-436.4 974.71,-974.7"
         style="fill:#865439;fill-opacity:1;fill-rule:nonzero;stroke:none"
         id="path1868" /><path
         d="m 3499.38,25207.2 c 63.07,437.4 440.42,774.6 895.06,774.6 234.35,0 448.15,-89.6 608.98,-236.3 -4.75,-6.7 -9.5,-13.4 -14.18,-20.1 -158.99,110.8 -351.38,174.8 -555.53,174.8 -36.98,0 -74.34,-2.1 -111.96,-6.4 -398.6,-45.6 -713.25,-325.5 -822.37,-686.6"
         style="fill:#c8b2a6;fill-opacity:1;fill-rule:nonzero;stroke:none"
         id="path1870" /><path
         d="m 4394.44,25981.8 c -498.65,0 -904.33,-405.6 -904.33,-904.3 0,-498.6 405.68,-904.3 904.33,-904.3 498.66,0 904.34,405.7 904.34,904.3 0,498.7 -405.68,904.3 -904.34,904.3 m 0,-1949.4 c -576.25,0 -1045.08,468.8 -1045.08,1045.1 0,576.3 468.83,1045.1 1045.08,1045.1 576.26,0 1045.08,-468.8 1045.08,-1045.1 0,-576.3 -468.82,-1045.1 -1045.08,-1045.1"
         style="fill:#000000;fill-opacity:1;fill-rule:nonzero;stroke:none"
         id="path1872" /><path
         d="m 5249.51,24933.8 c 0,-389 -315.34,-704.3 -704.33,-704.3 -388.98,0 -704.32,315.3 -704.32,704.3 0,389 315.34,704.3 704.32,704.3 388.99,0 704.33,-315.3 704.33,-704.3"
         style="fill:#aa784b;fill-opacity:1;fill-rule:nonzero;stroke:none"
         id="path1874" /><path
         d="m 4066.93,24466.3 c -118.03,120.7 -190.88,285.7 -190.88,467.5 0,369 300.16,669.1 669.13,669.1 113.84,0 221.1,-28.5 315.05,-78.9 -5.96,-10.2 -11.86,-20.4 -17.67,-30.7 -51.17,11.9 -104.49,18.1 -159.28,18.1 -388.99,0 -704.32,-315.3 -704.32,-704.3 0,-123.7 31.94,-239.9 87.97,-340.8"
         style="fill:#7b593c;fill-opacity:1;fill-rule:nonzero;stroke:none"
         id="path1876" /><path
         d="m 4545.18,25602.9 c -368.97,0 -669.13,-300.1 -669.13,-669.1 0,-369 300.16,-669.1 669.13,-669.1 368.96,0 669.14,300.1 669.14,669.1 0,369 -300.18,669.1 -669.14,669.1 m 0,-1408.6 c -407.77,0 -739.51,331.7 -739.51,739.5 0,407.8 331.74,739.5 739.51,739.5 407.77,0 739.52,-331.7 739.52,-739.5 0,-407.8 -331.75,-739.5 -739.52,-739.5"
         style="fill:#000000;fill-opacity:1;fill-rule:nonzero;stroke:none"
         id="path1878" /><path
         d="m 9100.23,25077.5 c 0,-538.3 436.38,-974.7 974.67,-974.7 538.3,0 974.7,436.4 974.7,974.7 0,538.3 -436.4,974.7 -974.7,974.7 -538.29,0 -974.67,-436.4 -974.67,-974.7"
         style="fill:#865439;fill-opacity:1;fill-rule:nonzero;stroke:none"
         id="path1880" /><path
         d="m 10970,25207.2 c -109.1,361.1 -423.8,641 -822.4,686.6 -37.6,4.3 -75,6.4 -111.9,6.4 -207.48,0 -402.78,-66.1 -563.23,-180.2 -4.44,6.4 -8.93,12.8 -13.43,19.1 161.58,150.5 378.16,242.7 615.86,242.7 454.7,0 832,-337.2 895.1,-774.6"
         style="fill:#c8b2a6;fill-opacity:1;fill-rule:nonzero;stroke:none"
         id="path1882" /><path
         d="m 10074.9,25981.8 c 498.7,0 904.4,-405.6 904.4,-904.3 0,-498.6 -405.7,-904.3 -904.4,-904.3 -498.62,0 -904.3,405.7 -904.3,904.3 0,498.7 405.68,904.3 904.3,904.3 m 0,-1949.4 c 576.3,0 1045.1,468.8 1045.1,1045.1 0,576.3 -468.8,1045.1 -1045.1,1045.1 -576.23,0 -1045.05,-468.8 -1045.05,-1045.1 0,-576.3 468.82,-1045.1 1045.05,-1045.1"
         style="fill:#000000;fill-opacity:1;fill-rule:nonzero;stroke:none"
         id="path1884" /><path
         d="m 9219.87,24933.8 c 0,-389 315.33,-704.3 704.32,-704.3 389.01,0 704.31,315.3 704.31,704.3 0,389 -315.3,704.3 -704.31,704.3 -388.99,0 -704.32,-315.3 -704.32,-704.3"
         style="fill:#aa784b;fill-opacity:1;fill-rule:nonzero;stroke:none"
         id="path1886" /><path
         d="m 10402.4,24466.3 c 56.1,100.9 88,217.1 88,340.8 0,389 -315.3,704.3 -704.31,704.3 -58.34,0 -115.02,-7.1 -169.21,-20.5 -5.37,9.5 -10.84,19 -16.32,28.4 95.96,53.3 206.33,83.6 323.63,83.6 369.01,0 669.11,-300.1 669.11,-669.1 0,-181.8 -72.8,-346.8 -190.9,-467.5"
         style="fill:#7b593c;fill-opacity:1;fill-rule:nonzero;stroke:none"
         id="path1888" /><path
         d="m 9924.19,25602.9 c 369.01,0 669.11,-300.1 669.11,-669.1 0,-369 -300.1,-669.1 -669.11,-669.1 -368.96,0 -669.14,300.1 -669.14,669.1 0,369 300.18,669.1 669.14,669.1 m 0,-1408.6 c 407.81,0 739.51,331.7 739.51,739.5 0,407.8 -331.7,739.5 -739.51,739.5 -407.76,0 -739.51,-331.7 -739.51,-739.5 0,-407.8 331.75,-739.5 739.51,-739.5"
         style="fill:#000000;fill-opacity:1;fill-rule:nonzero;stroke:none"
         id="path1890" /><path
         d="m 9882.06,24301.2 c 0,901.5 -622.44,1848.9 -1521.87,2303.3 -87.02,44 -137.86,135 -137.16,232.4 -0.79,142.8 121.32,443.8 -42.46,444 -143.51,0 -458.58,-231.6 -532.52,-384.5 -14.33,-29.7 -47.31,-45.7 -79.86,-40.6 -145.89,19.8 14.57,280 -126.94,273.4 -86.05,0 -250.88,-106.3 -349.5,-209.9 -28.08,-29.5 -65.59,-48.1 -106.11,-52.2 -1350.71,-137 -2408.83,-1390.5 -2408.83,-2565.9 82.24,-1237.3 609.89,-1458.1 2046.14,-1650.8 402.41,-54 810.14,-53.9 1212.55,0.1 1436.84,193.1 1963.67,412.9 2046.56,1650.7"
         style="fill:#865439;fill-opacity:1;fill-rule:nonzero;stroke:none"
         id="path1892" /><path
         d="m 7228.8,22678.2 c -199.39,0 -398.81,13.3 -596.77,39.9 -1234.84,165.6 -1742.59,356 -1919.3,1098 241.51,-626.8 808.6,-791.1 1910.23,-938.8 201.08,-27 403.54,-40.5 605.99,-40.5 202.64,0 405.28,13.5 606.56,40.6 1101.88,148 1668.56,311.7 1910.28,938.3 -177.15,-741.4 -684.95,-931.7 -1919.38,-1097.5 -198.29,-26.7 -397.94,-40 -597.61,-40"
         style="fill:#634230;fill-opacity:1;fill-rule:nonzero;stroke:none"
         id="path1894" /><path
         d="m 9710.64,24942 c -244.07,603.8 -731.68,1149.7 -1350.45,1462.4 -85.41,43.1 -135.97,131.5 -137.14,227 28.1,-36.3 64.07,-66.4 106.36,-87.8 661.59,-334.3 1172.15,-943.9 1381.23,-1601.6"
         style="fill:#c8b2a6;fill-opacity:1;fill-rule:nonzero;stroke:none"
         id="path1896" /><path
         d="m 4739.27,24919.6 c 291.25,959.3 1219.84,1774.8 2253.26,1879.6 56.51,5.8 109.29,31.7 148.65,73 96.84,101.8 237.67,184.2 295.45,188.6 0.82,-14.7 -0.59,-37.1 -1.54,-52 -1.34,-21.3 -3.15,-50.1 -0.3,-79.9 -87.64,-5.1 -246.84,-108.7 -343.04,-209.8 -28.08,-29.5 -65.59,-48 -106.11,-52.1 C 5949.4,26561.9 5085.4,25799.5 4739.27,24919.6 m 2840.96,1735.1 c -3.59,0 -7.2,0.2 -10.81,0.7 l -1.23,0.2 c -45.43,6.4 -76.51,49 -69.02,94.2 3.07,18.6 5.69,36.8 7.31,54.2 14.38,-7.5 31.51,-12.9 51.88,-15.8 7.21,-1.1 14.4,-1.6 21.55,-1.6 54.57,0 105.84,30.9 129.59,80.1 29.45,60.9 115.36,148.8 218.85,224 115.83,84.2 210.14,121.9 252.14,121.9 5.63,0 8.86,-0.7 9.47,-0.7 0.07,0 0.1,0 0.1,0 13.34,-15.1 7.85,-75.6 -0.46,-131.5 -2.91,0.2 -5.92,0.3 -9.03,0.3 -143.51,0 -458.58,-231.6 -532.52,-384.5 -12.58,-26 -39.41,-41.5 -67.82,-41.5"
         style="fill:#c8b2a6;fill-opacity:1;fill-rule:nonzero;stroke:none"
         id="path1898" /><path
         d="m 4645.06,24303.4 c 77.41,-1156 517.08,-1388.1 1986.97,-1585.3 396.22,-53.2 798.08,-53.2 1194.38,0.1 1469.73,197.4 1909.44,429.6 1987.4,1585.2 -1.04,878 -611.16,1799 -1484.4,2240.2 -108.62,54.9 -175.53,167.5 -174.63,293.8 -0.26,46.8 10.25,103.9 21.39,164.3 10.3,55.9 34.45,186.9 13.89,210.2 0.05,-0.2 -3.26,0.7 -9.57,0.7 -42,0 -136.31,-37.7 -252.14,-121.9 -103.49,-75.2 -189.4,-163.1 -218.85,-224 -26.86,-55.7 -88.9,-87.9 -151.14,-78.5 -135.95,18.9 -127.38,155.1 -123.27,220.6 0.95,14.9 2.36,37.3 1.54,52 -57.78,-4.4 -198.61,-86.8 -295.45,-188.6 -39.36,-41.3 -92.14,-67.2 -148.65,-73 -1249.75,-126.7 -2346.14,-1292.6 -2347.47,-2495.8 m 2583.73,-1761.7 c -205.47,0 -410.89,13.7 -614.91,41.1 -736.56,98.8 -1228.25,203.5 -1561.89,446.1 -338.08,245.8 -500.56,625 -543.28,1267.8 l -0.16,4.5 c 0,590.9 260.85,1217.2 715.63,1718.2 475.55,523.9 1098.68,849.1 1754.57,915.6 24.09,2.5 46.66,13.6 63.56,31.4 90.95,95.5 273.93,229.9 397.33,231.1 49.69,1.8 79.88,-17.7 96.47,-34.6 42.73,-43.4 38.73,-106.8 35.22,-162.7 -1.4,-22.3 -3.96,-62.9 1.61,-75.9 0.95,-0.3 2.39,-0.6 4.44,-0.9 l 1.34,-0.2 c 3.55,-0.5 7.01,1.1 7.87,2.8 80.81,167.1 413.46,423.1 593.98,423.1 60.33,-0.1 95.52,-27.2 114.45,-49.9 61.21,-73.6 37.91,-200 15.38,-322.3 -9.49,-51.5 -19.31,-104.7 -19.11,-139.6 -0.55,-75 37.66,-140.5 99.68,-171.8 918.13,-464 1559.35,-1436.2 1559.35,-2364.3 l -0.15,-4.6 c -43.06,-643 -205.62,-1022.1 -543.53,-1267.7 -333.32,-242.3 -825.15,-347 -1562.06,-446 -204.3,-27.5 -410.07,-41.2 -615.79,-41.2"
         style="fill:#231f20;fill-opacity:1;fill-rule:nonzero;stroke:none"
         id="path1900" /><path
         d="m 9199.96,24931.7 c 0,527.6 -615.22,955.3 -1374.13,955.3 -187.62,0 -366.44,-26.2 -529.37,-73.5 -43.68,-12.7 -90.37,-12.7 -134.05,0 -162.93,47.3 -341.75,73.5 -529.36,73.5 -758.92,0 -1374.14,-427.7 -1374.14,-955.3 0,-295.4 192.84,-559.4 495.78,-734.7 63.36,-36.6 100.74,-100.2 100.62,-168.7 v -1.1 c 0,-527.6 615.22,-955.3 1374.13,-955.3 758.9,0 1374.13,427.7 1374.13,955.3 l -0.01,1.1 c -0.12,68.5 37.26,132.1 100.62,168.7 302.94,175.3 495.78,439.3 495.78,734.7"
         style="fill:#c68b59;fill-opacity:1;fill-rule:nonzero;stroke:none"
         id="path1902" /><path
         d="m 6633.04,25851.8 c -738.3,0 -1338.94,-412.8 -1338.94,-920.1 0,-271.8 174.31,-528.4 478.22,-704.2 74.15,-42.9 118.33,-117.4 118.18,-199.2 0,-508.4 600.64,-921.2 1338.94,-921.2 738.29,0 1338.94,412.8 1338.94,920.1 -0.15,82.9 44.03,157.4 118.17,200.3 303.91,175.8 478.22,432.4 478.22,704.2 0,507.3 -600.64,920.1 -1338.94,920.1 -180.11,0 -354.92,-24.3 -519.57,-72.1 -50.25,-14.6 -103.39,-14.6 -153.66,0 -164.64,47.8 -339.45,72.1 -519.56,72.1 m 596.4,-2815 c -777.11,0 -1409.32,444.3 -1409.32,990.4 0.1,57.6 -30.95,109.2 -83.05,139.4 -326.23,188.7 -513.35,467.6 -513.35,765.1 0,546.1 632.22,990.5 1409.32,990.5 186.76,0 368.17,-25.2 539.19,-74.9 37.42,-10.9 76.97,-10.9 114.41,0 171.02,49.7 352.44,74.9 539.19,74.9 777.11,0 1409.32,-444.4 1409.32,-990.5 0,-297.5 -187.11,-576.4 -513.35,-765.1 -52.1,-30.2 -83.14,-81.8 -83.05,-138.2 0.01,-547.3 -632.21,-991.6 -1409.31,-991.6"
         style="fill:#231f20;fill-opacity:1;fill-rule:nonzero;stroke:none"
         id="path1904" /><path
         d="m 8791.19,24714.1 c 0,-285.4 -231.4,-516.8 -516.84,-516.8 -285.43,0 -516.83,231.4 -516.83,516.8 0,285.4 231.4,516.8 516.83,516.8 285.44,0 516.84,-231.4 516.84,-516.8"
         style="fill:#f1f2f2;fill-opacity:1;fill-rule:nonzero;stroke:none"
         id="path1906" /><path
         d="m 8274.36,24218.3 c -273.41,0 -495.84,222.4 -495.84,495.8 0,273.4 222.43,495.8 495.84,495.8 273.4,0 495.83,-222.4 495.83,-495.8 0,-273.4 -222.43,-495.8 -495.83,-495.8"
         style="fill:#231f20;fill-opacity:1;fill-rule:nonzero;stroke:none"
         id="path1908" /><path
         d="m 8196.92,24908.3 c 0,-83.2 -67.47,-150.7 -150.68,-150.7 -83.23,0 -150.69,67.5 -150.69,150.7 0,83.2 67.46,150.7 150.69,150.7 83.21,0 150.68,-67.5 150.68,-150.7"
         style="fill:#f1f2f2;fill-opacity:1;fill-rule:nonzero;stroke:none"
         id="path1910" /><path
         d="m 8692.92,25293.4 c 0,-58 -187.4,0 -418.57,0 -231.17,0 -418.56,-58 -418.56,0 0,58 187.39,175.1 418.56,175.1 231.17,0 418.57,-117.1 418.57,-175.1"
         style="fill:#231f20;fill-opacity:1;fill-rule:nonzero;stroke:none"
         id="path1912" /><path
         d="m 6701.36,24714.1 c 0,-277.4 -231.4,-502.3 -516.84,-502.3 -285.43,0 -516.83,224.9 -516.83,502.3 0,277.4 231.4,502.3 516.83,502.3 285.44,0 516.84,-224.9 516.84,-502.3"
         style="fill:#f1f2f2;fill-opacity:1;fill-rule:nonzero;stroke:none"
         id="path1914" /><path
         d="m 6184.53,24232.8 c -273.41,0 -495.84,215.9 -495.84,481.3 0,265.4 222.43,481.3 495.84,481.3 273.39,0 495.82,-215.9 495.82,-481.3 0,-265.4 -222.43,-481.3 -495.82,-481.3"
         style="fill:#231f20;fill-opacity:1;fill-rule:nonzero;stroke:none"
         id="path1916" /><path
         d="m 6107.09,24908.3 c 0,-83.2 -67.47,-150.7 -150.68,-150.7 -83.23,0 -150.69,67.5 -150.69,150.7 0,83.2 67.46,150.7 150.69,150.7 83.21,0 150.68,-67.5 150.68,-150.7"
         style="fill:#f1f2f2;fill-opacity:1;fill-rule:nonzero;stroke:none"
         id="path1918" /><path
         d="m 6605.53,25293.4 c 0,-58 -187.4,0 -418.56,0 -231.17,0 -418.57,-58 -418.57,0 0,58 187.4,175.1 418.57,175.1 231.16,0 418.56,-117.1 418.56,-175.1"
         style="fill:#231f20;fill-opacity:1;fill-rule:nonzero;stroke:none"
         id="path1920" /><path
         d="m 7808.69,23768.1 c 0.09,24.6 -19.67,44.5 -44.17,44.7 h -0.3 c -24.4,0 -44.37,-19.7 -44.46,-44.2 -0.11,-18.1 -3.26,-41.7 -23.32,-63.5 -9.98,-11.2 -24.41,-21.8 -44.87,-31.2 -53.45,-24.5 -120.16,-27.9 -155.82,-27.7 -59.1,0.3 -115.42,22.7 -158.51,63.2 -40.51,38 -63.53,87.5 -63.33,135.7 v 0.2 0.3 c 0,1.3 -0.3,2.5 -0.39,3.7 -0.12,1.7 -0.21,3.4 -0.51,5 -0.29,1.4 -0.79,2.6 -1.18,3.9 l -0.1,0.3 c -0.4,1.4 -0.69,2.8 -1.29,4.1 -0.59,1.3 -1.28,2.5 -1.97,3.7 -0.69,1.3 -1.28,2.6 -2.17,3.8 -0.7,1.2 -1.69,2.2 -2.58,3.3 -0.98,1.2 -1.77,2.4 -2.76,3.4 -0.99,0.9 -2.18,1.7 -3.26,2.6 -1.09,0.9 -2.18,2 -3.36,2.8 -1.09,0.8 -2.47,1.4 -3.66,2 -1.28,0.7 -2.47,1.6 -3.85,2 -1.38,0.6 -2.87,0.9 -4.26,1.4 -1.38,0.4 -2.66,1 -4.04,1.3 -1.58,0.3 -3.17,0.3 -4.75,0.5 -1.38,0.1 -2.66,0.4 -4.04,0.4 h -0.3 -0.21 c -1.38,0 -2.76,-0.3 -4.14,-0.4 -1.58,-0.2 -3.16,-0.2 -4.65,-0.5 -1.48,-0.3 -2.86,-0.9 -4.24,-1.4 -1.38,-0.4 -2.78,-0.7 -4.06,-1.3 -1.48,-0.5 -2.76,-1.3 -4.14,-2.1 -1.1,-0.6 -2.38,-1.2 -3.47,-1.9 -1.28,-0.9 -2.37,-2 -3.55,-3 -0.99,-0.8 -2.08,-1.5 -2.97,-2.4 -1.08,-1.1 -1.97,-2.4 -2.96,-3.6 -0.79,-1 -1.68,-2 -2.47,-3.1 -0.79,-1.2 -1.48,-2.5 -2.18,-3.9 -0.59,-1.2 -1.38,-2.3 -1.87,-3.6 -0.59,-1.3 -0.89,-2.7 -1.38,-4.1 l -0.1,-0.3 c -0.3,-1.3 -0.89,-2.6 -1.09,-3.9 -0.39,-1.6 -0.39,-3.3 -0.59,-5 -0.1,-1.2 -0.4,-2.4 -0.4,-3.7 v -0.3 -0.2 c 0.3,-48.2 -22.83,-97.7 -63.34,-135.7 -43.08,-40.5 -99.31,-62.9 -158.5,-63.2 -35.27,-0.3 -102.36,3.2 -155.73,27.7 -20.45,9.4 -34.78,20 -44.96,31.1 -19.96,21.9 -23.22,45.5 -23.32,63.6 -0.1,24.6 -19.87,44.1 -44.66,44.2 -24.51,-0.2 -44.37,-20.1 -44.27,-44.7 0.4,-60 24.6,-109.4 70.75,-145.4 -4.15,-16.6 -6.32,-34.1 -6.32,-52.4 0,-189.5 230.53,-397.5 514.82,-397.5 284.38,0 514.92,208 514.92,397.5 0,18.3 -2.18,35.8 -6.33,52.4 46.15,36 70.36,85.4 70.66,145.4"
         style="fill:#231f20;fill-opacity:1;fill-rule:nonzero;stroke:none"
         id="path1922" /><path
         d="m 7410.62,23349.4 c 0,72.8 -81.1,118.1 -181.15,118.1 -100.06,0 -181.16,-37.9 -181.16,-110.7 0,-72.7 81.1,-113.2 181.16,-113.2 100.05,0 181.15,33.1 181.15,105.8"
         style="fill:#ed1c24;fill-opacity:1;fill-rule:nonzero;stroke:none"
         id="path1924" /><path
         d="m 7229.47,23362.9 c -37.53,0 -67.94,16.8 -67.94,39.3 0,22.6 30.41,42.2 67.94,42.2 37.52,0 67.93,-21.9 67.93,-44.5 0,-22.5 -30.41,-37 -67.93,-37"
         style="fill:#f68e92;fill-opacity:1;fill-rule:nonzero;stroke:none"
         id="path1926" /><path
         d="m 7556.68,24208.2 c 0,-110.8 -146.51,-299.1 -327.24,-299.1 -180.74,0 -327.25,188.3 -327.25,299.1 0,110.7 146.51,102 327.25,102 180.73,0 327.24,8.7 327.24,-102"
         style="fill:#3c2415;fill-opacity:1;fill-rule:nonzero;stroke:none"
         id="path1928" /><path
         d="m 7158.94,24275.2 c -94.94,0 -179.81,-2.8 -209.43,-32.3 -5.21,-5.2 -12.13,-14.5 -12.13,-34.7 0,-88 126.26,-263.9 292.06,-263.9 165.79,0 292.05,175.9 292.05,263.9 0,20.2 -6.91,29.5 -12.12,34.7 -33.06,32.9 -134.91,32.6 -242.86,32.2 l -37.07,-0.1 -37.08,0.1 c -11.22,0.1 -22.39,0.1 -33.42,0.1 z m 70.5,-401.3 c -200.06,0 -362.44,202.3 -362.44,334.3 0,34.4 11.05,62.8 32.82,84.5 53.77,53.6 159.18,53.3 292.78,52.8 l 36.84,-0.1 36.83,0.1 c 133.52,0.4 239.02,0.8 292.78,-52.8 21.78,-21.7 32.83,-50.1 32.83,-84.5 0,-132 -162.38,-334.3 -362.44,-334.3"
         style="fill:#231f20;fill-opacity:1;fill-rule:nonzero;stroke:none"
         id="path1930" />
         </g></g></svg>
