<?xml version="1.0" encoding="UTF-8" standalone="no"?>
<!-- Created with Inkscape (http://www.inkscape.org/) -->

<svg
   version="1.1"
   id="svg2"
   xml:space="preserve"
   width="6666.6665"
   height="4000"
   viewBox="10300 1600 3166.6665 500"
   sodipodi:docname="vecteezy_vector-illustration-of-monkey-firefighters-set_.eps"
   xmlns:inkscape="http://www.inkscape.org/namespaces/inkscape"
   xmlns:sodipodi="http://sodipodi.sourceforge.net/DTD/sodipodi-0.dtd"
   xmlns="http://www.w3.org/2000/svg"
   xmlns:svg="http://www.w3.org/2000/svg"><defs
     id="defs6" /><sodipodi:namedview
     id="namedview4"
     pagecolor="#ffffff"
     bordercolor="#666666"
     borderopacity="1.0"
     inkscape:pageshadow="2"
     inkscape:pageopacity="0.0"
     inkscape:pagecheckerboard="0" /><g
     id="g8"
     inkscape:groupmode="layer"
     inkscape:label="ink_ext_XXXXXX"
     transform="matrix(1.3333333,0,0,-1.3333333,0,4000)"><g
       id="g10"
       transform="scale(0.2)"><path
         d="m 42674.8,4917.3 c 34.8,40.5 69.2,82.6 103.3,126.1 441.3,563.8 834.8,1403.4 1169.7,2495.5 54.3,176.9 -45.2,364.3 -222.1,418.5 -176.9,54.3 -364.3,-45.1 -418.5,-222.1 C 42756.9,5941 42069,4927.8 41317.9,4805.2 c -872.4,-142.4 -1661.8,945 -1669.7,956 -107.6,150.3 -316.7,185.4 -467.1,78.1 -150.5,-107.2 -185.9,-315.8 -79,-466.5 41.7,-58.8 1036.3,-1436.5 2320.6,-1229.4 452.8,73 873.3,333.1 1252.1,773.9"
         style="fill:#865439;fill-opacity:1;fill-rule:nonzero;stroke:none"
         id="path16" /><path
         d="m 42147.9,5206.4 c -96.5,-102.1 -194.8,-188.7 -294.7,-259.6 -218.1,-353 -170.5,-619.7 -559,-682.4 -85.8,-13.8 -170.5,-20.3 -254.1,-20.3 -154.3,0 -304.2,22 -448.2,60 177.9,-61.2 367.6,-98.2 565.8,-98.2 82.5,0 166.5,6.4 251.7,20.1 245.2,39.6 481.5,137.5 706.7,292.5 -17,229.3 -5.5,476 31.8,687.9"
         style="fill:#6c432c;fill-opacity:1;fill-rule:nonzero;stroke:none"
         id="path18" /><path
         d="m 39375,5817.6 c -50.4,0 -101.3,-15.1 -145.3,-46.5 -1.9,-1.3 -3.7,-2.7 -5.5,-4 11.5,-10.7 27,-17.6 45.3,-17.6 1.3,0 2.6,0.1 4,0.1 5.9,0.3 11.9,0.5 17.9,0.5 104.4,0 207.3,-48.7 272.7,-140 7.4,-10.4 703.2,-968.9 1510.1,-968.9 52.7,0 106.1,4.1 159.6,12.9 162.1,26.4 321.2,94.4 476.7,202.8 -124.2,-68.5 -250.7,-113.4 -379.1,-134.4 -57.8,-9.4 -115,-13.8 -171.8,-13.8 -850.9,0 -1571.9,993 -1579.5,1003.7 -49.1,68.6 -126.5,105.2 -205.1,105.2"
         style="fill:#c8b2a6;fill-opacity:1;fill-rule:nonzero;stroke:none"
         id="path20" /><path
         d="m 43436.7,7800.9 c 20.2,23.5 44.8,43.2 73,58.2 59.3,31.5 127.3,37.9 191.5,18.2 64.1,-19.6 116.8,-63.1 148.3,-122.4 31.4,-59.3 37.9,-127.3 18.2,-191.5 -331.9,-1082.2 -720.6,-1912.7 -1155.6,-2468.4 -33.1,-42.3 -67,-83.7 -100.9,-123.1 -365.3,-425.2 -769.7,-676.2 -1201.8,-745.9 -1233.4,-198.8 -2198.5,1138.3 -2239,1195.3 -79.9,112.6 -53.4,269.6 59.3,349.8 112.6,80.3 269.8,54 350.4,-58.7 8.1,-11.4 828,-1140.5 1751.3,-989.9 397.4,64.9 776.1,358.9 1125.7,873.8 340.9,502.1 653.8,1213.5 930.1,2114.5 10.4,33.7 27.2,64.2 49.5,90.1 m -698.4,-2938.2 c 35.5,41.4 71.1,84.8 105.8,129.1 447.6,571.9 845.9,1420.6 1183.8,2522.5 32.8,106.9 22,220.3 -30.5,319.1 -52.4,98.8 -140.2,171.3 -247.1,204.1 -107,32.8 -220.3,22 -319.1,-30.4 -98.9,-52.5 -171.3,-140.3 -204.1,-247.2 -271.4,-885 -577.1,-1581.3 -908.6,-2069.5 -322.7,-475.4 -663.9,-745.4 -1014.1,-802.5 -817.9,-133.5 -1580.5,911.5 -1588.1,922.1 -134.2,187.5 -396.1,231.3 -583.9,97.5 -187.7,-133.7 -231.9,-395.4 -98.6,-583.2 43,-60.5 1067.2,-1478.9 2402.3,-1263.7 472.2,76.2 910.4,346.1 1302.2,802.1"
         style="fill:#231f20;fill-opacity:1;fill-rule:nonzero;stroke:none"
         id="path22" /><path
         d="m 46732.4,6982.6 c 0,-1859.3 -1091.3,-2303.8 -2437.5,-2303.8 -1346.2,0 -2437.5,444.5 -2437.5,2303.8 0,1859.3 1091.3,2946.2 2437.5,2946.2 1346.2,0 2437.5,-1086.9 2437.5,-2946.2"
         style="fill:#bb8760;fill-opacity:1;fill-rule:nonzero;stroke:none"
         id="path24" /><path
         d="m 46164.5,3719.4 c 97.7,184.6 171.6,417.6 206.5,678.8 51.4,384.2 8,748.8 -102.2,1012.2 279.4,352.1 443.6,860.3 443.6,1581.3 0,1859.3 -1091.3,2946.1 -2437.5,2946.1 -1346.2,0 -2437.5,-1086.8 -2437.5,-2946.1 0,-730 168.3,-1241.8 454.1,-1594.4 -106.1,-262.3 -147.4,-621.3 -96.8,-999.1 35,-261.2 108.8,-494.2 206.6,-678.8 -106.1,-104.1 911.5,-263.9 895.4,-219 182.7,257.7 270.3,713.9 205,1201.4 -57.2,14.8 -150.8,44.5 -255.8,105.4 312.6,-86.1 661.3,-119.4 1029,-119.4 379.6,0 738.8,35.3 1059.1,127.8 -110.8,-66.6 -210.2,-98.3 -270,-113.8 -65.2,-487.5 22.3,-943.7 205.1,-1201.4 -16.2,-44.9 1001.5,114.9 895.4,219"
         style="fill:#fa1e0e;fill-opacity:1;fill-rule:nonzero;stroke:none"
         id="path26" /><path
         d="m 45284.5,3513.2 c 77.6,-12.9 683.6,81.7 839.8,168.3 22,12.2 26.8,19.8 27.7,21.8 l -1.5,1.9 -10.7,10.4 7,13.2 c 100.2,189.3 170.9,421.7 204.4,672.1 49,366.1 12.3,731.3 -100.8,1001.8 l -4.6,10.9 7.4,9.3 c 291.5,367.3 439.2,895.1 439.2,1568.8 0,1722.8 -994.1,2926.1 -2417.5,2926.1 -1423.4,0 -2417.5,-1203.3 -2417.5,-2926.1 0,-681.6 151.3,-1213.8 449.7,-1581.8 l 7.4,-9.1 -4.4,-11 c -108.9,-268.9 -143.7,-629.4 -95.6,-988.9 33.6,-250.4 104.3,-482.8 204.5,-672.1 l 6.9,-13.2 -10.6,-10.4 -1.6,-1.9 c 1,-2 5.8,-9.6 27.7,-21.8 156.3,-86.6 762.2,-181.3 839.9,-168.3 184.6,261.5 261.8,709.6 202.3,1172.7 -86,23.6 -169.3,58.6 -247.8,104 l -134,77.8 149.4,-41.2 c 290,-79.9 624.9,-118.7 1023.7,-118.7 412.8,0 757.4,41.5 1053.5,127 l 146.8,42.3 -130.9,-78.7 c -82.5,-49.6 -170.7,-87.4 -262.2,-112.5 -59.4,-463.1 17.8,-911.2 202.4,-1172.7 m 21.2,-40.1 c -21.2,0 -36.5,1.7 -43.7,5.5 -6.2,3.3 -10.4,8.5 -12.2,14.5 -190.5,272.2 -269.3,735.6 -205.6,1211.3 l 1.8,13.3 13,3.4 c 29.5,7.7 58.6,16.7 87.2,27.1 -254.1,-54 -541.3,-80.4 -871.3,-80.4 -313.6,0 -588.3,23.9 -833.2,72.7 21.4,-7.2 43.2,-13.7 65,-19.4 l 13.1,-3.4 1.7,-13.3 c 63.7,-475.7 -15,-939.1 -205.5,-1211.3 -1.8,-6 -6,-11.2 -12.2,-14.5 -37.7,-20 -297.7,18.9 -452.6,48.1 -155.1,29.3 -422.3,87.8 -468.5,151 -10.4,14.2 -12,29.7 -4.9,43.4 -99.3,191.4 -169.4,424.3 -202.9,674.5 -48.4,361.3 -14.2,724.3 93.7,998.3 -299.4,374.9 -451.2,912.4 -451.2,1597.8 0,890.9 248.6,1646 718.9,2183.4 441.6,504.7 1059.1,782.7 1738.6,782.7 679.6,0 1297,-278 1738.7,-782.7 470.3,-537.4 718.8,-1292.5 718.8,-2183.4 0,-677.4 -148.2,-1210.3 -440.6,-1584.4 112.2,-275.8 148.3,-643.6 99.1,-1011.7 -33.5,-250.3 -103.7,-483.1 -203,-674.5 7.1,-13.7 5.6,-29.2 -4.8,-43.4 -46.3,-63.2 -313.4,-121.7 -468.5,-151 -125.3,-23.6 -319.3,-53.6 -408.9,-53.6"
         style="fill:#231f20;fill-opacity:1;fill-rule:nonzero;stroke:none"
         id="path28" /><path
         d="m 45415.6,4540.8 c -93.6,-64.6 -193,-121.4 -297.2,-169.4 0.1,-83.7 4.9,-165.8 14,-244.9 h 197.7 c 16.2,131.3 46.2,272.4 85.5,414.3"
         style="fill:#af1e14;fill-opacity:1;fill-rule:nonzero;stroke:none"
         id="path30" /><path
         d="m 43202.7,4505.8 c 36.2,-130.1 64.9,-258.9 82,-379.3 h 199.5 c 8.3,72 12.9,146.4 13.8,222.3 -103.2,44.2 -201.9,96.8 -295.3,157"
         style="fill:#af1e14;fill-opacity:1;fill-rule:nonzero;stroke:none"
         id="path32" /><path
         d="m 46735.3,7123.7 c -735.2,74.1 -1567.8,115.8 -2449.9,115.8 -882.3,0 -1714.8,-41.7 -2450.1,-115.8 49,249.3 11.6,479.2 104.8,688.6 681,61.3 1547.9,95.4 2345.3,95.4 797.3,0 1674.2,-34.1 2355.2,-95.4 93.2,-209.4 45.8,-439.3 94.7,-688.6"
         style="fill:#ffbe0f;fill-opacity:1;fill-rule:nonzero;stroke:none"
         id="path34" /><path
         d="m 44285.4,7264.5 c 851.7,0 1665.5,-37.9 2419.5,-112.6 -15.1,90.5 -18.7,177.9 -22.3,262.7 -5.5,132.2 -10.7,257.3 -59.1,374.1 -661.2,58.9 -1533.7,94 -2338.1,94 -810.3,0 -1657.7,-34.2 -2328.2,-94 -49.7,-119.3 -57.6,-247.1 -66.1,-382.2 -5.1,-82.2 -10.4,-167 -25.2,-254.6 754,74.7 1567.8,112.6 2419.5,112.6 m 2481,-169.1 -33.6,3.4 c -761.5,76.8 -1585,115.7 -2447.4,115.7 -862.5,0 -1686,-38.9 -2447.5,-115.7 l -33.6,-3.4 6.5,33.1 c 18.9,96.2 24.8,190.2 30.4,281.1 9.1,144.8 17.6,281.5 76.1,412.9 l 6,13.4 14.6,1.3 c 674.2,60.7 1529.8,95.5 2347.5,95.5 811.8,0 1693.1,-35.7 2357.4,-95.5 l 14.6,-1.3 6,-13.4 c 57.6,-129.4 63.2,-263.7 69.2,-405.8 3.9,-93.2 7.9,-189.6 27.3,-288.2 l 6.5,-33.1"
         style="fill:#231f20;fill-opacity:1;fill-rule:nonzero;stroke:none"
         id="path36" /><path
         d="m 46735.3,6523 c -24.8,-196 -65.1,-372.2 -119.4,-530.3 -12.8,-1.3 -25.6,-2.6 -38.5,-3.8 -693.7,-66.9 -1471.1,-104.3 -2292,-104.3 -821,0 -1598.4,37.4 -2292.1,104.3 -12.9,1.2 -25.7,2.5 -38.5,3.8 -54.2,158 -94.6,334.2 -119.5,530.3 732.8,-76.8 1566.2,-120.2 2450.1,-120.2 883.9,0 1717.2,43.4 2449.9,120.2"
         style="fill:#ffbe0f;fill-opacity:1;fill-rule:nonzero;stroke:none"
         id="path38" /><path
         d="m 41973.3,6016 c 7.4,-0.8 14.9,-1.5 22.3,-2.2 717,-69.1 1487.3,-104.2 2289.8,-104.2 802.4,0 1572.7,35.1 2289.6,104.2 7.5,0.7 15,1.4 22.4,2.2 48.9,146 85.5,306.8 109,478.9 -743.2,-76.6 -1579.6,-117.1 -2421,-117.1 -841.5,0 -1677.9,40.5 -2421.1,117.1 23.5,-172.1 60.1,-333 109,-478.9 m 2312.1,-156.4 c -804.1,0 -1576,35.2 -2294.5,104.4 -12.8,1.2 -25.7,2.5 -38.5,3.8 l -15.9,1.6 -5.4,15.2 c -55.5,161.9 -96.1,342 -120.5,535.3 l -4,31.3 31.4,-3.3 c 749.4,-78.5 1595.6,-120.1 2447.4,-120.1 851.7,0 1697.9,41.6 2447.3,120.1 l 31.4,3.3 -3.9,-31.3 c -24.5,-193.2 -65.1,-373.3 -120.6,-535.3 l -5.2,-15.1 -15.9,-1.6 c -12.9,-1.4 -25.8,-2.7 -38.8,-3.9 -718.4,-69.2 -1490.3,-104.4 -2294.3,-104.4"
         style="fill:#231f20;fill-opacity:1;fill-rule:nonzero;stroke:none"
         id="path40" /><path
         d="m 46433.3,5639.7 c -426.9,-406.6 -1153.2,-405.3 -1994.6,-403.5 -36.5,0.1 -73.4,0.1 -110.3,0.1 v 3258.2 h -106.1 V 5236.3 c -36.9,0 -73.8,0 -110.3,-0.1 -841.1,-1.6 -1567.7,-3.1 -1994.6,403.5 l -24.3,-25.5 c -25,-26.3 -22.6,-68.1 5.1,-91.6 459.4,-389.5 1182,-388.1 2014,-386.4 107.9,0.2 218.4,0.2 326.3,0 53.6,-0.1 106.7,-0.2 159.3,-0.2 794.8,0 1476.8,24 1904.5,431.3 l -69,72.4"
         style="fill:#231f20;fill-opacity:1;fill-rule:nonzero;stroke:none"
         id="path42" /><path
         d="m 46308,5466.7 -0.1,-0.1 c -21.9,-29.9 -28.7,-69 -18.3,-104.6 76.7,-262.2 99.8,-651.5 57.3,-968.9 -30.5,-227.3 -92.5,-441.4 -179.4,-619.2 -22.3,-45.5 -13.4,-100.5 22.1,-136.7 78,-79.6 181.6,-196.9 180.4,-295.6 -2.1,-169.5 -214.5,-279.1 -541.3,-279.1 -5.9,0 -11.8,0 -17.8,0.1 -150.1,1.8 -274.9,28.5 -360.9,77.1 -88.2,49.8 -132.4,121.9 -131.2,214.2 0.3,29 5,59.6 13.9,90.7 9.6,33.4 4.2,69.3 -14.8,98.4 -160.1,246.3 -231.4,660.5 -186,1081 0.5,4.2 0.6,8.4 0.6,12.6 3,1.2 6,2.4 9,3.6 24.8,10.1 49.1,20.6 72.2,30.9 51.4,23.1 97.5,46 140.8,69.9 54.5,30.4 96.9,58.1 133.4,87 23.7,18.7 43.3,37 59.9,56.1 22,25.3 36.4,49.5 44,74 3.5,11.2 -2.1,23 -13,27.5 -10.6,4.4 -23.1,-0.2 -28.4,-10.5 -8.8,-17 -22.4,-32.8 -42.9,-49.5 -16.5,-13.5 -35.7,-26.1 -58.8,-38.5 -37.1,-20.2 -79.7,-38.5 -134,-57.6 -43.8,-15.2 -90.2,-29 -141.8,-42.2 -23,-5.9 -47.3,-11.7 -72.1,-17.2 -29.2,-6.3 -51.9,-10.9 -71.5,-14.3 l -0.7,-0.2 c -5.3,0.8 -10.6,1.3 -16,1.3 -6.2,0 -12.5,-0.5 -18.6,-1.5 -208.6,-32.8 -442,-49.4 -693.7,-49.4 -245.4,0 -473.6,15.8 -677.9,47 -5.6,0.8 -11.3,1.2 -17,1.3 -2.2,0.6 -4.4,1.1 -6.8,1.5 -19.6,3.4 -42.3,8 -71.5,14.3 -24.8,5.5 -49.1,11.3 -72.2,17.2 -51.5,13.2 -97.9,27 -141.8,42.2 -54.3,19.1 -96.9,37.4 -134,57.6 -23,12.4 -42.2,25 -58.7,38.5 -20.5,16.7 -34.2,32.5 -42.9,49.5 -5.3,10.3 -17.8,14.9 -28.5,10.5 -10.9,-4.5 -16.4,-16.3 -12.9,-27.5 7.6,-24.5 22,-48.7 44,-74 16.5,-19.1 36.1,-37.4 59.9,-56.1 36.5,-28.9 78.9,-56.6 133.4,-87 43.3,-23.9 89.3,-46.8 140.8,-69.9 22.5,-10.1 46.2,-20.2 70.5,-30.2 -0.4,-6.4 -0.4,-12.9 0.2,-19.3 44.9,-419.6 -26.5,-832.8 -186.3,-1078.6 -18.9,-29.1 -24.3,-65 -14.8,-98.4 8.9,-31.1 13.6,-61.7 14,-90.7 1.1,-92.3 -43,-164.4 -131.3,-214.3 -85.9,-48.5 -210.7,-75.2 -360.8,-77 -6,-0.1 -11.9,-0.1 -17.8,-0.1 -326.8,0 -539.3,109.6 -541.4,279.1 -1.2,98.7 102.5,216 180.5,295.6 35.5,36.2 44.4,91.2 22.1,136.7 -86.9,177.8 -149,391.9 -179.4,619.2 -42.1,314.7 -21.2,689.5 53.2,954.7 10,35.7 2.7,74.8 -19.5,104.4 -88,117.5 -162.5,250.2 -221.2,394.6 -125.7,308.8 -189.4,690 -189.4,1133.1 0,878.6 244.4,1622.3 706.6,2150.5 431.9,493.7 1036,765.6 1700.9,765.6 655,0 1232.8,-264.7 1671.1,-765.6 462.1,-528.2 706.4,-1271.8 706.4,-2150.5 0,-512.8 -49.1,-862.2 -159.3,-1133.1 -56.3,-138.4 -127.2,-266.3 -210.5,-380.1 m 509.8,1513.2 c 0,913.1 -256.2,1688.6 -741.1,2242.7 -465.6,532.2 -1079.8,813.4 -1776.4,813.4 -705.8,0 -1347.4,-288.8 -1806.3,-813.4 -484.9,-554.1 -741.2,-1329.6 -741.2,-2242.7 0,-461.3 67.2,-860.2 199.7,-1185.8 62,-152.4 140.3,-292.9 233,-417.9 -77.1,-281.5 -98.5,-673.3 -54.5,-1001.7 31.6,-236.7 96,-460.8 186.2,-649.4 -101.1,-104.5 -212.4,-240.8 -210.6,-385.2 3.1,-253.6 270.5,-417.4 681.3,-417.4 6.5,0 12.9,0 19.5,0.1 173.6,2.1 321.6,35 428,95.2 134.2,75.8 204.2,192.6 202.4,337.8 -0.5,38.7 -6.2,78.6 -16.9,118.7 172.4,270.8 248.8,693.1 205.9,1136.5 204.7,-29.7 431.1,-44.8 673.5,-44.8 248.7,0 480.6,15.9 689.7,47.2 -43.4,-444.3 32.9,-867.5 205.7,-1138.9 -10.8,-40.1 -16.4,-80 -16.9,-118.7 -1.8,-145.2 68.2,-262 202.4,-337.8 106.4,-60.2 254.4,-93.1 428,-95.2 6.5,-0.1 13,-0.1 19.5,-0.1 410.8,0 678.2,163.8 681.3,417.4 1.8,144.4 -109.5,280.7 -210.6,385.2 90.2,188.6 154.5,412.7 186.2,649.4 45,336.5 21.9,734.4 -58.9,1017.4 87.7,121 162.1,256.3 221.5,402.2 117.3,288.3 169.6,654.1 169.6,1185.8"
         style="fill:#231f20;fill-opacity:1;fill-rule:nonzero;stroke:none"
         id="path44" /><path
         d="m 45113.7,4078 h 1193.9 c 62.1,0 109.8,-33.4 101.5,-71 l -128.7,-578.1 c -6.9,-31.1 -50.3,-54.2 -101.5,-54.2 h -272.9 -379.4 l -173,-19.1 c -52.8,0 -96.9,24.5 -101.9,56.6 l -240,597.3 c -5.7,36.7 41.6,68.5 102,68.5"
         style="fill:#414042;fill-opacity:1;fill-rule:nonzero;stroke:none"
         id="path46" /><path
         d="m 46307.6,4029.6 h -1193.9 c -14.5,0 -25.6,-2.7 -32.4,-5 -5,-1.6 -9,-5.1 -11.2,-9.7 -2.3,-4.5 -2.4,-9.7 -0.6,-14.4 l 14.5,-36.1 c 14.7,5 31.6,7.9 49.7,7.9 h 272.9 648.1 272.9 c 7.5,0 14.7,-0.5 21.7,-1.4 l 6.9,31 c 2,8.7 -2.8,17.4 -11.3,20.9 -10.6,4.4 -23.8,6.8 -37.3,6.8"
         style="fill:#a0a0a1;fill-opacity:1;fill-rule:nonzero;stroke:none"
         id="path48" /><path
         d="m 45113.7,4029.6 c -14.5,0 -25.6,-2.7 -32.4,-5 -5,-1.6 -9,-5.1 -11.2,-9.7 -2.3,-4.5 -2.4,-9.7 -0.6,-14.4 l 231.9,-577.3 c 1.6,-3.8 4.5,-7.1 8.2,-9.2 4.8,-2.7 18.3,-9.1 39.8,-9.9 h 0.8 l 2.2,0.1 171.3,18.9 h 655.2 c 25.2,0 40.6,8 44.7,10.4 4.5,2.7 7.6,7 8.8,11.9 l 123.8,556.5 c 2,8.7 -2.8,17.4 -11.3,20.9 -10.6,4.4 -23.8,6.8 -37.3,6.8 h -1193.9 m 239.4,-722.5 c -75.3,0.2 -136.9,37.4 -150,90.6 l -0.8,2.4 -239.8,597 -0.8,5.2 c -4.2,26.6 4.3,53.2 23.8,74.9 27.8,30.8 75.7,49.3 128.2,49.3 h 1193.9 c 54.2,0 103,-19.4 130.4,-52 19.3,-22.8 26.6,-50.4 20.6,-77.6 l -128.7,-578.2 c -12.2,-54.4 -74.2,-92.4 -151,-92.4 h -648.3 l -2.2,-0.2 -168.4,-18.6 -6.9,-0.4"
         style="fill:#231f20;fill-opacity:1;fill-rule:nonzero;stroke:none"
         id="path50" /><path
         d="m 45659.5,3766.9 c -122.7,-10.7 -236.6,-116.8 -313.4,-213.1 -79.9,-100.2 -127.3,-224.9 -127.3,-359.9 0,-331.3 1272.8,-331.3 1272.8,0 0,180.8 -84.9,343 -219.2,452.9 -90.5,74.2 -207.2,155.3 -323.8,145.2 l -289.1,-25.1"
         style="fill:#414042;fill-opacity:1;fill-rule:nonzero;stroke:none"
         id="path52" /><path
         d="m 45558.1,3749.2 -9.8,-0.8 c -3.7,-0.3 -7.3,-1.4 -10.5,-3.3 -106.7,-61.4 -188.8,-151.7 -238.6,-259.2 14,23.7 29.7,46.4 46.9,67.9 46.5,58.3 106.6,120.2 174,162.4 12.1,11.5 24.7,22.5 38,33"
         style="fill:#373436;fill-opacity:1;fill-rule:nonzero;stroke:none"
         id="path54" /><path
         d="m 45520.1,3716.2 c -67.4,-42.2 -127.5,-104.1 -174,-162.4 -17.2,-21.5 -32.9,-44.2 -46.9,-67.9 -35.6,-76.9 -54.8,-162.6 -54.8,-253 0,-165.6 318.1,-248.4 636.2,-248.4 53.1,0 106.2,2.4 157.9,7 18.8,3.3 37.3,6.9 55.3,10.9 13.8,13.8 6.4,42.9 -18,42.9 -0.5,0 -1,0 -1.6,0 -31,-1.7 -62.3,-2.5 -93.7,-2.5 -318.2,0 -636.3,82.9 -636.3,248.5 0,166 62.1,316.3 175.9,424.9"
         style="fill:#373436;fill-opacity:1;fill-rule:nonzero;stroke:none"
         id="path56" /><path
         d="m 46086.3,3779.3 h -11.6 c 1.6,-0.5 3.2,-1.1 4.8,-1.7 2.1,0.9 4.3,1.5 6.8,1.7"
         style="fill:#bdbcbd;fill-opacity:1;fill-rule:nonzero;stroke:none"
         id="path58" /><path
         d="m 46364.5,3574.3 -3.6,-16.2 c 70.5,-86.8 116.4,-192.3 127.9,-307.3 -7.2,120.9 -52.3,232.2 -124.3,323.5"
         style="fill:#b2b1b1;fill-opacity:1;fill-rule:nonzero;stroke:none"
         id="path60" /><path
         d="m 46079.5,3777.6 c -2.8,-1.2 -5.2,-3 -7,-5.2 72.8,-27.4 141.8,-77.9 199.9,-125.6 1.4,-1.1 2.7,-2.2 4.1,-3.3 l 4,18 c -58.2,49.7 -126.2,89.4 -201,116.1"
         style="fill:#bdbcbd;fill-opacity:1;fill-rule:nonzero;stroke:none"
         id="path62" /><path
         d="m 46280.5,3661.5 -4,-18 c 30.9,-25.8 59.2,-54.4 84.4,-85.4 l 3.6,16.2 c -24.9,31.6 -53.1,60.8 -84,87.2"
         style="fill:#b2b1b1;fill-opacity:1;fill-rule:nonzero;stroke:none"
         id="path64" /><path
         d="m 46072.5,3772.4 c -7.9,-9.3 -6.9,-25 5.9,-31.8 194.7,-102.6 314.7,-298.7 314.7,-523.8 0,-104.3 -126.3,-175.8 -299.3,-214.4 -3.6,-3.5 -8.6,-6.1 -15.1,-6.8 -13.3,-1.6 -26.7,-2.9 -40.2,-4.1 -73.3,-12.8 -152.9,-20.3 -233.5,-22.4 16.2,-0.5 32.3,-0.7 48.5,-0.7 318.2,0 636.3,82.8 636.3,248.4 0,11.4 -0.3,22.8 -1,34 -11.5,115 -57.4,220.5 -127.9,307.3 -25.2,31 -53.5,59.6 -84.4,85.4 -1.4,1.1 -2.7,2.2 -4.1,3.3 -58.1,47.7 -127.1,98.2 -199.9,125.6"
         style="fill:#bdbcbd;fill-opacity:1;fill-rule:nonzero;stroke:none"
         id="path66" /><path
         d="m 46093.8,3002.4 c -18,-4 -36.5,-7.6 -55.3,-10.9 13.5,1.2 26.9,2.5 40.2,4.1 6.5,0.7 11.5,3.3 15.1,6.8"
         style="fill:#b9b8b9;fill-opacity:1;fill-rule:nonzero;stroke:none"
         id="path68" /><path
         d="m 45855.2,2926 c 172.3,0 333.5,23.1 454.1,64.9 192.5,66.8 232.9,164.2 232.9,234.1 0,265.2 -172.1,490.1 -449,586.9 -15.3,5.3 -28.3,8 -38.8,8 -17.7,0 -22.9,-7.9 -25.6,-15.7 -5.2,-14.8 -3.4,-26.8 5.3,-36.7 7.8,-8.9 19.5,-13.8 25.7,-16 224.5,-78.5 381.3,-295 381.3,-526.5 0,-111 -257.3,-197.9 -585.9,-197.9 -328.5,0 -585.8,86.9 -585.8,197.9 0,198.7 108.9,383.7 284.2,482.6 12.6,7.1 20.9,15.9 24.1,25.6 3.2,9.5 1.6,20.1 -4.9,31.6 -4.6,8.1 -11,11.6 -21.4,11.6 -12.6,0 -29.5,-5.6 -47.5,-15.8 -213.3,-120.3 -335.6,-315.6 -335.6,-535.6 0,-220.7 370,-299 686.9,-299"
         style="fill:#231f20;fill-opacity:1;fill-rule:nonzero;stroke:none"
         id="path70" /><path
         d="m 43501.4,4078 h -1194 c -62,0 -109.8,-33.4 -101.5,-71 l 128.7,-578.1 c 6.9,-31.1 50.3,-54.2 101.5,-54.2 h 272.9 379.4 l 173,-19.1 c 52.8,0 97,24.5 102,56.6 l 239.9,597.3 c 5.7,36.7 -41.5,68.5 -101.9,68.5"
         style="fill:#414042;fill-opacity:1;fill-rule:nonzero;stroke:none"
         id="path72" /><path
         d="m 43501.4,4029.6 h -1194 c -13.4,0 -26.7,-2.4 -37.3,-6.8 -8.5,-3.5 -13.2,-12.2 -11.3,-20.9 l 6.9,-31 c 7,0.9 14.2,1.4 21.7,1.4 h 272.9 648.1 273 c 18,0 34.9,-2.9 49.6,-7.9 l 14.5,36.1 c 1.9,4.7 1.7,9.9 -0.5,14.4 -2.2,4.6 -6.3,8.1 -11.2,9.7 -6.8,2.3 -18,5 -32.4,5"
         style="fill:#a0a0a1;fill-opacity:1;fill-rule:nonzero;stroke:none"
         id="path74" /><path
         d="m 43501.4,4029.6 c 14.4,0 25.6,-2.7 32.4,-5 4.9,-1.6 9,-5.1 11.2,-9.7 2.2,-4.5 2.4,-9.7 0.5,-14.4 l -231.9,-577.3 c -1.6,-3.8 -4.5,-7.1 -8.2,-9.2 -4.8,-2.7 -18.2,-9.1 -39.8,-9.9 h -0.7 l -2.2,0.1 -171.4,18.9 h -655.2 c -25.2,0 -40.6,8 -44.7,10.4 -4.5,2.7 -7.6,7 -8.7,11.9 l -123.9,556.5 c -1.9,8.7 2.8,17.4 11.3,20.9 10.6,4.4 23.9,6.8 37.3,6.8 h 1194 M 43262,3307.1 c 75.2,0.2 136.8,37.4 149.9,90.6 l 0.8,2.4 239.8,597 0.9,5.2 c 4.1,26.6 -4.4,53.2 -23.9,74.9 -27.8,30.8 -75.7,49.3 -128.1,49.3 h -1194 c -54.2,0 -102.9,-19.4 -130.4,-52 -19.3,-22.8 -26.6,-50.4 -20.5,-77.6 l 128.7,-578.2 c 12.1,-54.4 74.2,-92.4 150.9,-92.4 h 648.3 l 2.2,-0.2 168.5,-18.6 6.9,-0.4"
         style="fill:#231f20;fill-opacity:1;fill-rule:nonzero;stroke:none"
         id="path76" /><path
         d="m 42955.5,3766.9 c 122.7,-10.7 236.6,-116.8 313.4,-213.1 79.9,-100.2 127.3,-224.9 127.3,-359.9 0,-331.3 -1272.8,-331.3 -1272.8,0 0,180.8 84.9,343 219.2,452.9 90.5,74.2 207.2,155.3 323.8,145.2 l 289.1,-25.1"
         style="fill:#414042;fill-opacity:1;fill-rule:nonzero;stroke:none"
         id="path78" /><path
         d="m 43057,3749.2 c 13.2,-10.5 25.8,-21.5 37.9,-33 67.4,-42.2 127.5,-104.1 174,-162.4 17.2,-21.6 32.9,-44.3 47,-68 -49.9,107.6 -131.9,197.8 -238.6,259.3 -3.3,1.9 -6.9,3 -10.6,3.3 l -9.7,0.8"
         style="fill:#373436;fill-opacity:1;fill-rule:nonzero;stroke:none"
         id="path80" /><path
         d="m 43094.9,3716.2 c 113.8,-108.6 175.9,-258.9 175.9,-424.9 0,-165.6 -318.1,-248.5 -636.3,-248.5 -31.3,0 -62.6,0.8 -93.7,2.5 -0.5,0 -1.1,0 -1.6,0 -24.4,0 -31.7,-29.1 -17.9,-42.9 17.9,-4 36.4,-7.6 55.3,-10.9 51.6,-4.6 104.7,-7 157.8,-7 318.1,0 636.2,82.8 636.2,248.4 0,90.4 -19.1,176.1 -54.7,252.9 -14.1,23.7 -29.8,46.4 -47,68 -46.5,58.3 -106.6,120.2 -174,162.4"
         style="fill:#373436;fill-opacity:1;fill-rule:nonzero;stroke:none"
         id="path82" /><path
         d="m 42540.4,3779.3 h -11.7 c 2.5,-0.2 4.8,-0.8 6.8,-1.7 1.6,0.6 3.2,1.2 4.9,1.7"
         style="fill:#bdbcbd;fill-opacity:1;fill-rule:nonzero;stroke:none"
         id="path84" /><path
         d="m 42250.5,3574.3 c -72,-91.4 -117.2,-202.8 -124.3,-323.7 11.5,115 57.4,220.6 127.9,307.5 l -3.6,16.2"
         style="fill:#b2b1b1;fill-opacity:1;fill-rule:nonzero;stroke:none"
         id="path86" /><path
         d="m 42535.5,3777.6 c -74.7,-26.7 -142.7,-66.4 -200.9,-116.1 l 4,-18 c 1.3,1.1 2.7,2.2 4,3.3 58.2,47.7 127.2,98.2 200,125.6 -1.9,2.2 -4.3,4 -7.1,5.2"
         style="fill:#bdbcbd;fill-opacity:1;fill-rule:nonzero;stroke:none"
         id="path88" /><path
         d="m 42334.6,3661.5 c -31,-26.4 -59.1,-55.6 -84.1,-87.2 l 3.6,-16.2 c 25.2,31 53.5,59.6 84.5,85.4 l -4,18"
         style="fill:#b2b1b1;fill-opacity:1;fill-rule:nonzero;stroke:none"
         id="path90" /><path
         d="m 42542.6,3772.4 c -72.8,-27.4 -141.8,-77.9 -200,-125.6 -1.3,-1.1 -2.7,-2.2 -4,-3.3 -31,-25.8 -59.3,-54.4 -84.5,-85.4 -70.5,-86.9 -116.4,-192.5 -127.9,-307.5 -0.7,-11.2 -1,-22.5 -1,-33.8 0,-165.6 318.2,-248.4 636.4,-248.4 16.1,0 32.3,0.2 48.4,0.7 -80.6,2.1 -160.1,9.6 -233.4,22.4 -13.5,1.2 -27,2.5 -40.3,4.1 -6.5,0.7 -11.5,3.3 -15,6.8 -173,38.6 -299.3,110.1 -299.3,214.4 0,225.1 119.9,421.2 314.6,523.8 12.9,6.8 13.8,22.5 6,31.8"
         style="fill:#bdbcbd;fill-opacity:1;fill-rule:nonzero;stroke:none"
         id="path92" /><path
         d="m 42521.3,3002.4 c 3.5,-3.5 8.5,-6.1 15,-6.8 13.3,-1.6 26.8,-2.9 40.3,-4.1 -18.9,3.3 -37.4,6.9 -55.3,10.9"
         style="fill:#b9b8b9;fill-opacity:1;fill-rule:nonzero;stroke:none"
         id="path94" /><path
         d="m 42759.8,2926 c -172.2,0 -333.5,23.1 -454.1,64.9 -192.5,66.8 -232.9,164.2 -232.9,234.1 0,265.2 172.1,490.1 449.1,586.9 15.2,5.3 28.2,8 38.7,8 17.7,0 22.9,-7.9 25.6,-15.7 5.2,-14.8 3.5,-26.8 -5.3,-36.7 -7.8,-8.9 -19.4,-13.8 -25.7,-16 -224.5,-78.5 -381.3,-295 -381.3,-526.5 0,-111 257.4,-197.9 585.9,-197.9 328.5,0 585.9,86.9 585.9,197.9 0,198.7 -108.9,383.7 -284.3,482.6 -12.5,7.1 -20.9,15.9 -24.1,25.6 -3.2,9.5 -1.5,20.1 5,31.6 4.6,8.1 10.9,11.6 21.3,11.6 12.7,0 29.5,-5.6 47.5,-15.8 213.3,-120.3 335.6,-315.6 335.6,-535.6 0,-220.7 -370,-299 -686.9,-299"
         style="fill:#231f20;fill-opacity:1;fill-rule:nonzero;stroke:none"
         id="path96" /><path
         d="m 46215.9,6188.4 c 0,-1067.6 -865.4,-1933 -1933,-1933 -1067.5,0 -1933,865.4 -1933,1933 0,1067.5 865.5,1933 1933,1933 1067.6,0 1933,-865.5 1933,-1933"
         style="fill:#80e1ff;fill-opacity:1;fill-rule:nonzero;stroke:none"
         id="path98" /><path
         d="m 45433.9,7739.5 c -122.8,-41.3 -240.7,-101.8 -255.8,-135.2 -20.6,-45.3 -5.1,-98.2 32.2,-131.3 20.1,-17.9 35,14.3 54.4,46.5 26.3,43.6 61,87.3 128.7,6.2 19.3,-23.2 57,-14.8 51.7,-44.6 -7.2,-40.6 -17.6,-89.2 -29.5,-113.8 -20.2,-41.7 -12.9,-91.4 18.2,-125.9 37.9,-42.2 54.4,-115 13.9,-122.5 -116.6,-21.5 -121.9,-14.5 -183.6,15.4 -66.8,32.3 -146.6,-10.7 -154.3,-84.4 -5,-47.5 0.1,-94.7 20.4,-137.9 34.3,-72.8 118.3,-121.8 196.4,-140.8 78.1,-19 119.3,-104 197.8,-86.7 51.9,11.4 87.4,30.9 109.6,46.9 17.4,12.6 38.5,19.1 60,17.7 21.2,-1.5 91.8,-4.8 163.1,-8 94,-4.2 159.8,-95.4 133,-185.6 -15.3,-51.8 -33.3,-101.5 -51.5,-127.7 -38.3,-55 -155.1,-34 -263,-13 -64.1,12.5 -125,25 -164.6,21.5 -156.5,-13.4 -315.5,0.7 -469.8,-28.5 -20.3,-3.8 -40.6,-8.6 -60.7,-14.4 -196.3,-56.4 -378.7,-417.9 -277.4,-595.2 39,-68.5 104.4,-117.9 180.9,-136.9 96.1,-23.8 225,-56 287.3,-72.7 106.5,-28.5 198.6,-87 273.3,-168.1 4.8,-5.2 2.9,-13.1 -2.1,-22.2 -19.6,-35.5 -8.6,-79.4 23.1,-104.8 13.2,-10.5 22.7,-22.3 20.6,-33.9 -26.6,-146.2 -66.9,-289.9 -120.3,-428.6 -12.6,-32.7 -26.2,-66.8 -18.2,-101.8 4,-17.9 14.7,-34.2 30.5,-43.5 26.2,-15.4 49.1,-3.1 70.1,8.7 l 172.1,96.6 c 367,351.8 595.5,846.9 595.5,1395.5 0,636.3 -307.5,1200.7 -782,1553"
         style="fill:#39b54a;fill-opacity:1;fill-rule:nonzero;stroke:none"
         id="path100" /><path
         d="m 43749.3,5559.6 c -27.2,-24.3 -61.4,-40.6 -85.2,-68.2 -33.6,-38.9 -40.9,-93.3 -46.7,-144.4 -15.7,-137.2 -31.4,-274.7 -32.5,-412.7 -0.7,-88.5 4.4,-178.5 -19,-263.7 -22.1,-81.1 -70.4,-154.8 -135.7,-207.6 -89.4,44.1 -174.9,94.8 -255.8,151.6 -26.8,130.7 -53.4,261.3 -80.1,392.1 -19,92.9 -38.1,188.1 -25.7,282.2 6.4,48.6 13.7,112.3 -30.8,132.7 -15.6,7.1 -33.8,6.1 -51.7,5.1 -21.9,-1.2 -43.4,-2.4 -59.3,11.3 -14.6,12.6 -19,34.2 -34.2,46.2 -14.7,11.6 -34,10.6 -53.4,9.7 -9,-0.5 -18,-0.9 -26.6,-0.1 -45.5,4.2 -79.8,44.5 -98.5,86.3 -18.7,41.8 -27.3,88 -49.9,127.8 -34.8,60.9 -102.3,108.8 -103.8,178.9 -1,44.8 26.3,84.5 45,125.2 18.8,40.8 27,94.8 -5.2,125.9 -15.4,14.7 -36.7,21 -57.3,26.8 -64.2,18 -128.5,36.2 -192.7,54.2 6.2,608.8 294,1150 739.2,1499.9 l 191.1,-283 c 15.3,-22.7 9.7,-53.5 -12.5,-69.5 l -164.7,-118 c -1.4,-0.9 -2.9,-1.8 -4.3,-2.8 l -78.4,-43.6 c -36.5,-20.3 -34.3,-73.4 3.8,-90.5 18,-8.1 29.7,-25.9 29.9,-45.7 l 1.4,-127.7 c 0.2,-17.1 -8.2,-33.1 -22.3,-42.7 L 42832,6759.9 c -5.6,-3.7 -10.3,-8.4 -14,-14 l -293.4,-244.3 c -33.5,-27.8 -19,-81.9 23.8,-89.4 150.3,-26.3 376.8,-27.2 480,-46.5 50.4,-9.5 103.9,-14.7 146.1,-43.8 27.4,-18.9 47.7,-46.3 74.1,-66.4 74.3,-56.4 177.9,-43.8 269.1,-63.5 230.5,-49.6 439.7,-446.1 231.6,-632.4"
         style="fill:#39b54a;fill-opacity:1;fill-rule:nonzero;stroke:none"
         id="path102" /><path
         d="m 44965.7,7477 c 0,-46.8 -21.4,-38.5 -107.2,-38.5 -85.7,0 -99,-0.6 -99,46.2 0,46.7 13.3,77 99,77 85.8,0 107.2,-38 107.2,-84.7"
         style="fill:#39b54a;fill-opacity:1;fill-rule:nonzero;stroke:none"
         id="path104" /><path
         d="m 45417.6,4979.8 c -333.8,-274.4 -761,-439.1 -1226.9,-439.1 -221.4,0 -434.1,37.2 -632.2,105.7 -17.8,-51.6 -46.2,-99.6 -82.8,-140.2 244.4,-117.8 518.2,-183.8 807.2,-183.8 411.5,0 792.3,133.8 1101.1,360.3 -1.9,0.9 -3.9,1.9 -5.8,3 -15.8,9.3 -26.5,25.6 -30.5,43.5 -8,35 5.6,69.1 18.2,101.8 18.9,49 36.1,98.7 51.7,148.8"
         style="fill:#609db1;fill-opacity:1;fill-rule:nonzero;stroke:none"
         id="path106" /><path
         d="m 46060.4,5981 c -104.8,-398.6 -333.7,-747 -642.8,-1001.2 -15.6,-50.1 -32.8,-99.8 -51.7,-148.8 -12.6,-32.7 -26.2,-66.8 -18.2,-101.8 4,-17.9 14.7,-34.2 30.5,-43.5 1.9,-1.1 3.9,-2.1 5.8,-3 403.4,295.9 684.1,749.8 750,1269.7 -24.1,8.1 -48.6,17.7 -73.6,28.6"
         style="fill:#31813b;fill-opacity:1;fill-rule:nonzero;stroke:none"
         id="path108" /><path
         d="m 42611.9,5358.4 c 129,-258.7 316.3,-483.4 544.7,-656.8 -10.9,53.3 -21.8,106.6 -32.7,159.9 -199.9,132.6 -373.6,301.3 -512,496.9"
         style="fill:#609db1;fill-opacity:1;fill-rule:nonzero;stroke:none"
         id="path110" /><path
         d="m 43123.9,4861.5 c 10.9,-53.3 21.8,-106.6 32.7,-159.9 99.1,-75.3 205.9,-140.9 319.1,-195.4 36.6,40.6 65,88.6 82.8,140.2 -154.7,53.6 -300.6,126.2 -434.6,215.1"
         style="fill:#31813b;fill-opacity:1;fill-rule:nonzero;stroke:none"
         id="path112" /><path
         d="m 44282.9,8054.3 c -1028.9,0 -1866,-837 -1866,-1865.9 0,-1028.9 837.1,-1866 1866,-1866 1028.9,0 1866,837.1 1866,1866 0,1028.9 -837.1,1865.9 -1866,1865.9 m 0,-3865.9 c -1102.8,0 -2000,897.2 -2000,2000 0,1102.8 897.2,2000 2000,2000 1102.8,0 2000,-897.2 2000,-2000 0,-1102.8 -897.2,-2000 -2000,-2000"
         style="fill:#231f20;fill-opacity:1;fill-rule:nonzero;stroke:none"
         id="path114" /><path
         d="m 44028.2,7954.5 c -161.8,0 -293,-105.5 -293,-235.7 0,-130.1 131.2,-235.7 293,-235.7 161.8,0 293,105.6 293,235.7 0,130.2 -131.2,235.7 -293,235.7"
         style="fill:#ccf3ff;fill-opacity:1;fill-rule:nonzero;stroke:none"
         id="path116" /><path
         d="m 44527.7,7718.8 c -81,0 -146.5,-52.7 -146.5,-117.8 0,-65.1 65.5,-117.9 146.5,-117.9 80.9,0 146.5,52.8 146.5,117.9 0,65.1 -65.6,117.8 -146.5,117.8"
         style="fill:#ccf3ff;fill-opacity:1;fill-rule:nonzero;stroke:none"
         id="path118" /><path
         d="m 46112.1,7705.8 c -49.3,-98.1 -117.4,-245.5 -170,-401.8 20.6,-30.6 40.5,-61.8 59.4,-93.6 10.6,62.2 23.4,129 37.9,200.6 23.2,114.8 51.1,219.9 72.7,294.8"
         style="fill:#b28715;fill-opacity:1;fill-rule:nonzero;stroke:none"
         id="path120" /><path
         d="m 45862.6,6740.8 c -10.4,-36.8 -30.9,-70.6 -59.3,-97.9 -43.4,-41.8 -40,-106.7 -58.9,-161.9 -8.8,-25.9 -14.5,-51.2 -17.2,-75.9 38.2,-6.7 75.7,-11.9 108.9,-12.4 -7,48.1 -2.4,99.2 16,153 19.8,57.7 55.6,109.4 102,152.4 -23.4,23.7 -55.2,39.7 -91.5,42.7"
         style="fill:#609db1;fill-opacity:1;fill-rule:nonzero;stroke:none"
         id="path122" /><path
         d="m 45892.5,7131.5 c -25.4,-109.4 -37.3,-216.1 -24.2,-306.5 4.2,-28.7 2,-57.2 -5.7,-84.2 36.3,-3 68.1,-19 91.5,-42.7 14.7,13.5 30.4,26.3 47,38 -25.6,65 -33.1,145.4 -27.9,242.4 -24.6,52.4 -51.5,103.5 -80.7,153 m -165.3,-726.4 c -20.2,-184.3 125,-331.2 328.5,-422 1.6,-0.7 3.1,-1.4 4.7,-2.1 9.2,35.1 17.4,70.4 24.7,106.2 -134.4,76.2 -230.9,180.4 -249,305.5 -33.2,0.5 -70.7,5.7 -108.9,12.4"
         style="fill:#31813b;fill-opacity:1;fill-rule:nonzero;stroke:none"
         id="path124" /><path
         d="m 46085.1,6087.2 c -7.3,-35.8 -15.5,-71.1 -24.7,-106.2 25,-10.9 49.5,-20.5 73.6,-28.6 4.4,34.5 7.8,69.1 10.3,104.2 -20.4,9.6 -40.2,19.8 -59.2,30.6"
         style="fill:#2c5f32;fill-opacity:1;fill-rule:nonzero;stroke:none"
         id="path126" /><path
         d="m 46431.2,5950.3 c -54.4,-4.9 -109.1,-9.5 -164.1,-14 -0.6,-4.4 -1.1,-8.7 -1.7,-13.2 12.5,-1.1 24.7,-1.7 36.7,-1.7 47.5,0 91,9.2 129.1,28.9"
         style="fill:#af1e14;fill-opacity:1;fill-rule:nonzero;stroke:none"
         id="path128" /><path
         d="m 46274.7,6006.4 c -0.6,-6.5 -1.2,-13 -1.9,-19.5 20.1,1.7 40.1,3.3 60.1,5 -19.2,3.9 -38.6,8.8 -58.2,14.5"
         style="fill:#b28715;fill-opacity:1;fill-rule:nonzero;stroke:none"
         id="path130" /><path
         d="m 46332.9,5991.9 c -20,-1.7 -40,-3.3 -60.1,-5 -1.7,-16.9 -3.6,-33.8 -5.7,-50.6 55,4.5 109.7,9.1 164.1,14 16.9,8.7 32.7,19.5 47.4,32.6 -13.5,-1.5 -27.3,-2.2 -41.4,-2.2 -33.4,0 -68.4,3.9 -104.3,11.2"
         style="fill:#231f20;fill-opacity:1;fill-rule:nonzero;stroke:none"
         id="path132" /><path
         d="m 45942.1,7304 c -19.1,-56.9 -36.2,-115.1 -49.6,-172.5 29.2,-49.5 56.1,-100.6 80.7,-153 3.7,68.8 13.8,146 28.3,231.9 -18.9,31.8 -38.8,63 -59.4,93.6 m 202.2,-1247.4 c -2.5,-35.1 -5.9,-69.7 -10.3,-104.2 45.9,-15.5 89.9,-25.5 131.4,-29.3 0.6,4.5 1.1,8.8 1.7,13.2 2.1,16.8 4,33.7 5.7,50.6 0.7,6.5 1.3,13 1.9,19.5 -36.8,10.8 -74.1,24.8 -111.3,41.4 -6.4,2.8 -12.8,5.8 -19.1,8.8"
         style="fill:#231f20;fill-opacity:1;fill-rule:nonzero;stroke:none"
         id="path134" /><path
         d="m 46181.9,7859.8 c 0.1,5.4 -286.8,-818.6 -111.3,-1130 136.6,-242.1 375.9,-361.1 550.3,-344.1 322.1,31.3 578.5,625.3 499.8,1295.2 -69.2,589.5 -491.1,1077.4 -771.9,1160.8 l -140.6,39.9 -26.3,-1021.8"
         style="fill:#865439;fill-opacity:1;fill-rule:nonzero;stroke:none"
         id="path136" /><path
         d="m 46514.7,6874.3 c -170.4,93 -326.2,80.7 -503.7,101.9 47.6,207.7 172.6,900.5 172.6,898.1 l -94.5,822 c -5.8,64.7 39.5,122 101.8,128.6 l 174.4,18.4 c 280.9,-83.4 699.9,-571.6 772,-1160.8 58.5,-478.5 -118.4,-917.9 -216.2,-1112.7 -125.6,133.6 -222.3,204 -406.4,304.5"
         style="fill:#fa1e0e;fill-opacity:1;fill-rule:nonzero;stroke:none"
         id="path138" /><path
         d="m 46103,7492.1 c 128.7,43.4 269.6,75.6 418.6,86.4 227.9,16.5 451.3,-20.3 647.3,-86.8 -17.2,-108.3 -44.1,-222.2 -84.8,-336.3 -179.1,52.7 -377.6,80.1 -579.8,65.4 -169.2,-12.3 -328.1,-52.2 -470.4,-104.7 8.1,43.5 37.6,201.3 69.1,376"
         style="fill:#ffbe0f;fill-opacity:1;fill-rule:nonzero;stroke:none"
         id="path140" /><path
         d="m 47068.3,7186 c 31.1,91.2 55.4,188.2 72.5,288.7 -203.4,66.2 -416.4,93.4 -617.4,78.8 -130.6,-9.4 -264.5,-36.5 -398.4,-80.5 -23.8,-131.5 -46.2,-252.3 -58.6,-318.8 146.6,50.4 293.1,81.2 436.1,91.5 185.8,13.5 376,-6.5 565.8,-59.7 m 110.5,328.7 c 10.4,-4.5 6.6,-15.6 4.8,-26.9 -19,-119.3 -37.9,-233.9 -75.9,-340.8 -4.5,-12.5 -17.9,-19.3 -30.6,-15.6 -191.6,56.4 -383.7,78.1 -571,64.5 -151.7,-11 -307.7,-45.7 -463.5,-103.3 -8.5,-3.1 -17.9,-1.4 -24.8,4.4 -6.9,5.8 -10.1,14.8 -8.4,23.6 l 1.1,6.4 c 9.4,50.1 37.7,202.5 67.9,369.5 1.6,9 8,16.3 16.6,19.3 142.6,48 285.5,77.5 424.8,87.6 214.2,15.6 441.5,-14.9 657.2,-88 l 1.8,-0.7"
         style="fill:#231f20;fill-opacity:1;fill-rule:nonzero;stroke:none"
         id="path142" /><path
         d="m 46074.4,6969.7 c 1.5,-34.5 4.9,-67.3 10.5,-97.6 4.2,33.2 8.2,65 12.3,95.7 -7.6,0.6 -15.2,1.3 -22.8,1.9"
         style="fill:#c8b2a6;fill-opacity:1;fill-rule:nonzero;stroke:none"
         id="path144" /><path
         d="m 46234.1,7827.4 c -15.9,-43.2 -51.7,-155.7 -85.5,-294.4 14.5,4.4 29,8.6 43.5,12.6 19.3,87.7 37.8,155.5 56.6,217 4.7,15.7 -5.2,34.5 -9,52.3 -1,5 -3,9.1 -5.6,12.5 m -116.3,-708.8 c -13.7,-4.4 -27.3,-9 -41,-13.7 -3.3,-46.9 -4.3,-92.4 -2.4,-135.2 7.6,-0.6 15.2,-1.3 22.8,-1.9 7,53.8 13.9,104 20.6,150.8"
         style="fill:#fd9a92;fill-opacity:1;fill-rule:nonzero;stroke:none"
         id="path146" /><path
         d="m 46180.4,7490.3 c -15,-4.4 -30.1,-9.1 -45.1,-13.9 -22.7,-100.5 -43.1,-211 -53.9,-317.1 14.8,5 29.6,9.7 44.4,14.3 19.3,129.3 37.3,231.8 54.6,316.7"
         style="fill:#ffe293;fill-opacity:1;fill-rule:nonzero;stroke:none"
         id="path148" /><path
         d="m 46192.1,7545.6 c -14.5,-4 -29,-8.2 -43.5,-12.6 -4.4,-18.5 -8.9,-37.3 -13.3,-56.6 15,4.8 30.1,9.5 45.1,13.9 3.9,19.3 7.8,37.7 11.7,55.3 m -66.3,-372 c -14.8,-4.6 -29.6,-9.3 -44.4,-14.3 -1.8,-18.3 -3.4,-36.5 -4.6,-54.4 13.7,4.7 27.3,9.3 41,13.7 2.7,18.9 5.4,37.2 8,55"
         style="fill:#9c9a9a;fill-opacity:1;fill-rule:nonzero;stroke:none"
         id="path150" /><path
         d="m 46925.3,6536 c 5.2,3.2 9.8,8.1 13.4,14.5 12.1,22.1 6.9,54.4 -11.7,72.3 -130,124.4 -282.2,229.4 -440.2,303.8 -145.5,68.4 -300.5,102.6 -460.9,101.4 -22.1,-0.2 -38.2,-23.3 -35.8,-51.6 2.3,-28.4 22.2,-51.3 44.3,-51.2 150.4,1.1 295.5,-30.8 431.3,-94.7 149.9,-70.5 294.2,-170 417.2,-287.7 13.2,-12.6 29.6,-14.6 42.4,-6.8"
         style="fill:#231f20;fill-opacity:1;fill-rule:nonzero;stroke:none"
         id="path152" /><path
         d="m 46441.5,6344.7 c -149.6,44.9 -312.1,157.8 -422.6,353.8 -80.3,142.5 -47.9,374.5 20.5,712.5 26.1,129 58.1,245.8 80.3,321.1 41.5,140.2 54.8,156.5 54.8,156.5 l 9.6,6.7 c 18.4,12.7 43.6,5.4 52.8,-15.4 3,-7.2 5.1,-14.6 5,-21.8 -0.3,-8.9 -2.2,-17.2 -5.6,-24.8 -40.3,-105.6 -258.6,-815.5 -113.9,-1072.1 126.8,-225 343.9,-328 492.8,-313.5 79.4,7.7 158.6,59.9 229,150.8 181.1,233.5 266.2,655.5 217,1075.1 -30.1,256.2 -134.9,519 -295,740.2 -135.8,187.5 -301.6,328.3 -432.8,367.7 l -1,0.3 -139.8,39.7 -0.9,0.2 c -32.2,9.7 -50.8,44.9 -40.8,78.5 9.7,32.4 43.8,49.7 75.4,40.8 l 138.1,-39.2 1.3,-0.4 c 158.1,-47.5 343.3,-201.6 496.3,-412.9 172.7,-238.4 285.7,-522.6 318.3,-800.2 53,-451.3 -42.2,-909.8 -242.5,-1168.1 -91.2,-117.6 -198.7,-185.6 -311.1,-196.6 -55.5,-5.3 -119.1,1.2 -185.2,21.1"
         style="fill:#231f20;fill-opacity:1;fill-rule:nonzero;stroke:none"
         id="path154" /><path
         d="m 46705.6,6163.8 c -75.2,-220 -311.4,-219 -542.2,-116 -230.7,102.9 -386.5,277.9 -311.3,497.9 38.6,112.8 138.7,202.4 258.3,249.1 113.7,44.4 568.4,-178.4 603.3,-312.3 27.7,-106.5 25.3,-221.2 -8.1,-318.7"
         style="fill:#865439;fill-opacity:1;fill-rule:nonzero;stroke:none"
         id="path156" /><path
         d="m 46574.4,6008.8 c -22.3,-10.6 -46.4,-18 -71.9,-22.6 24.4,2.5 47.7,7.4 69.6,15 0.8,2.5 1.5,5 2.3,7.6"
         style="fill:#9c9a9a;fill-opacity:1;fill-rule:nonzero;stroke:none"
         id="path158" /><path
         d="m 46621.7,6024.3 c -9.5,-2.4 -19.2,-4.3 -29,-5.8 -6,-3.5 -12.1,-6.7 -18.3,-9.7 -0.8,-2.6 -1.5,-5.1 -2.3,-7.6 17.5,6 34.1,13.6 49.6,23.1"
         style="fill:#9c9a9a;fill-opacity:1;fill-rule:nonzero;stroke:none"
         id="path160" /><path
         d="m 46105.8,6783.9 c -2.1,0 -5,-0.7 -8.3,-2.3 -102.4,-49.8 -185.8,-131.9 -220.2,-232.5 -75.2,-220 80.6,-394.9 311.3,-497.9 94.1,-42 189.1,-67 273.6,-67 13.7,0 27.2,0.7 40.3,2 25.5,4.6 49.6,12 71.9,22.6 6.2,3 12.3,6.2 18.3,9.7 -18.5,-2.9 -37.8,-4.2 -57.6,-4.2 -84.6,0 -179.5,24.9 -273.6,66.9 -230.7,103 -386.5,277.9 -311.3,497.9 26,76 79.9,141.4 148.9,190.2 12.6,9 12.5,14.6 6.7,14.6"
         style="fill:#c8b2a6;fill-opacity:1;fill-rule:nonzero;stroke:none"
         id="path162" /><path
         d="m 46502.1,5954.3 c -98.7,-12.7 -217.8,10.4 -344.3,66.9 -14.6,6.5 -28.8,13.2 -42.4,20.1 -255.8,128.6 -361.8,321.4 -290.9,528.8 35.4,103.4 148.3,210.6 269.1,269.4 l 22.9,-43.8 c 8.6,-16.5 3,-37.3 -12.9,-46.3 -83.4,-47.4 -176.5,-124.6 -204.8,-207.3 -76.8,-224.5 125.8,-365.7 253.3,-429.8 11.8,-6 23.9,-11.7 36.1,-17.1 113.4,-50.6 218.1,-71.6 302.9,-60.7 26,3.3 49.8,9.8 70.8,19.1 55.7,24.7 93.7,68.8 116.2,134.6 26.9,78.6 32.3,171.3 15.9,259.6 -2.8,14.7 3.7,29.6 16.2,37.1 l 25.3,15.5 c 11.6,7.1 26.8,0.7 29.9,-12.5 25.6,-110.4 21.3,-227.2 -13,-327.7 -29.2,-85.3 -83.9,-147.8 -158.2,-180.8 -27.7,-12.4 -58.7,-20.8 -92.1,-25.1"
         style="fill:#231f20;fill-opacity:1;fill-rule:nonzero;stroke:none"
         id="path164" /><path
         d="m 42462.7,7705.7 c 21.5,-74.8 49.4,-179.9 72.6,-294.7 13.6,-67.2 25.8,-130.1 35.9,-189.1 18.7,30.8 38.2,61.2 58.4,90.8 -52.1,153.1 -118.6,296.8 -166.9,393"
         style="fill:#b28715;fill-opacity:1;fill-rule:nonzero;stroke:none"
         id="path166" /><path
         d="m 42144.4,5949.8 c 37.8,-19.3 81,-28.4 128.2,-28.4 9.2,0 18.5,0.4 27.9,1 -0.6,4.8 -1.2,9.6 -1.8,14.3 -51.7,4.2 -103.2,8.6 -154.3,13.1"
         style="fill:#af1e14;fill-opacity:1;fill-rule:nonzero;stroke:none"
         id="path168" /><path
         d="m 42291.3,6004 c -17,-4.8 -33.9,-8.9 -50.7,-12.3 17.4,-1.5 34.9,-2.9 52.3,-4.4 -0.5,5.6 -1.1,11.1 -1.6,16.7"
         style="fill:#b28715;fill-opacity:1;fill-rule:nonzero;stroke:none"
         id="path170" /><path
         d="m 42240.6,5991.7 c -35.5,-7.1 -70.1,-11 -103.1,-11 -14.1,0 -27.9,0.7 -41.4,2.2 14.9,-13.3 31,-24.2 48.3,-33.1 51.1,-4.5 102.6,-8.9 154.3,-13.1 -2.2,16.8 -4.1,33.7 -5.8,50.6 -17.4,1.5 -34.9,2.9 -52.3,4.4"
         style="fill:#231f20;fill-opacity:1;fill-rule:nonzero;stroke:none"
         id="path172" /><path
         d="m 42739.8,6680.8 -60.4,-50.2 c 18.3,-26.4 32.9,-54.9 43.2,-84.9 18.6,-54.4 23.1,-106.1 15.8,-154.6 37.4,-2.8 74.9,-5.2 110.7,-7.7 -1.2,31.5 -7.3,64 -18.8,97.6 -18.9,55.2 -15.6,120.1 -58.9,161.9 -12,11.5 -22.6,24.3 -31.6,37.9 M 42583.3,6150 c -46.6,-37.1 -101.4,-69.8 -161.5,-97.4 2.5,-34.6 6,-69 10.3,-103.1 28.3,9.2 57.3,20.4 86.8,33.6 33.2,14.8 64.8,31.1 94.4,48.8 12.5,37.1 14.1,79.7 -13.1,106 -5.1,4.8 -10.8,8.8 -16.9,12.1"
         style="fill:#609db1;fill-opacity:1;fill-rule:nonzero;stroke:none"
         id="path174" /><path
         d="m 42679.6,7142.2 c -28.5,-47.7 -54.9,-96.8 -79.1,-147.1 7,-104.5 0.1,-190.4 -26.9,-259 41.7,-29.6 78,-65.2 105.8,-105.5 l 60.4,50.2 c -28,42.2 -40.9,93.1 -33.4,144.2 13.6,93.4 0.4,204.1 -26.8,317.2 m 58.8,-751.1 c -14,-93 -71.2,-174.3 -155.1,-241.1 6.1,-3.3 11.8,-7.3 16.9,-12.1 27.2,-26.3 25.6,-68.9 13.1,-106 144.9,86.6 241.7,206.9 235.8,351.5 -35.8,2.5 -73.3,4.9 -110.7,7.7"
         style="fill:#31813b;fill-opacity:1;fill-rule:nonzero;stroke:none"
         id="path176" /><path
         d="m 42629.6,7312.7 c -20.2,-29.6 -39.7,-60 -58.4,-90.8 14.4,-83.6 24.7,-159.1 29.3,-226.8 24.2,50.3 50.6,99.4 79.1,147.1 -13.6,56.9 -30.8,114.3 -50,170.5 m -207.8,-1260.1 c -3.5,-1.6 -7,-3.2 -10.5,-4.8 -40.1,-17.9 -80.4,-32.7 -120,-43.8 0.5,-5.6 1.1,-11.1 1.6,-16.7 1.7,-16.9 3.6,-33.8 5.8,-50.6 0.6,-4.7 1.2,-9.5 1.8,-14.3 41.4,3 85.6,12.3 131.6,27.1 -4.3,34.1 -7.8,68.5 -10.3,103.1"
         style="fill:#231f20;fill-opacity:1;fill-rule:nonzero;stroke:none"
         id="path178" /><path
         d="m 42392.8,7859.8 c -0.1,5.4 286.8,-818.6 111.2,-1130 -136.5,-242.1 -375.8,-361.1 -550.3,-344.1 -322,31.3 -578.4,625.3 -499.8,1295.2 69.3,589.5 491.2,1077.4 772,1160.8 l 140.6,39.9 26.3,-1021.8"
         style="fill:#865439;fill-opacity:1;fill-rule:nonzero;stroke:none"
         id="path180" /><path
         d="m 42060,6874.3 c 170.4,93 326.2,80.7 503.7,101.9 -47.6,207.7 -172.6,900.5 -172.6,898.1 l 94.5,822 c 5.8,64.7 -39.6,122 -101.8,128.6 l -174.4,18.4 c -280.9,-83.4 -699.9,-571.6 -772,-1160.8 -58.5,-478.5 118.4,-917.9 216.2,-1112.7 125.6,133.6 222.3,204 406.4,304.5"
         style="fill:#fa1e0e;fill-opacity:1;fill-rule:nonzero;stroke:none"
         id="path182" /><path
         d="m 42471.7,7492.1 c -128.7,43.4 -269.6,75.6 -418.6,86.4 -227.9,16.5 -451.3,-20.3 -647.3,-86.8 17.2,-108.3 44.1,-222.2 84.8,-336.3 179.1,52.7 377.5,80.1 579.8,65.4 169.2,-12.3 328.1,-52.2 470.4,-104.7 -8.1,43.5 -37.6,201.3 -69.1,376"
         style="fill:#ffbe0f;fill-opacity:1;fill-rule:nonzero;stroke:none"
         id="path184" /><path
         d="m 41506.4,7186 c -31.1,91.2 -55.4,188.2 -72.5,288.7 203.4,66.2 416.4,93.4 617.4,78.8 130.6,-9.4 264.5,-36.5 398.4,-80.5 23.8,-131.5 46.2,-252.3 58.5,-318.8 -146.5,50.4 -293,81.2 -436,91.5 -185.8,13.5 -376,-6.5 -565.8,-59.7 m -110.5,328.7 c -10.4,-4.5 -6.6,-15.6 -4.8,-26.9 19,-119.3 37.9,-233.9 75.9,-340.8 4.5,-12.5 17.9,-19.3 30.6,-15.6 191.6,56.4 383.7,78.1 571,64.5 151.7,-11 307.7,-45.7 463.5,-103.3 8.5,-3.1 17.9,-1.4 24.8,4.4 6.9,5.8 10.1,14.8 8.4,23.6 l -1.1,6.4 c -9.4,50.1 -37.7,202.5 -67.9,369.5 -1.6,9 -8,16.3 -16.6,19.3 -142.6,48 -285.5,77.5 -424.8,87.6 -214.2,15.6 -441.5,-14.9 -657.2,-88 l -1.8,-0.7"
         style="fill:#231f20;fill-opacity:1;fill-rule:nonzero;stroke:none"
         id="path186" /><path
         d="m 42340.6,7827.4 c -2.6,-3.4 -4.6,-7.5 -5.6,-12.5 -3.8,-17.8 -13.7,-36.6 -9,-52.3 18.8,-61.5 37.3,-129.3 56.6,-217 14.5,-4 29,-8.2 43.4,-12.6 -33.7,138.7 -69.5,251.2 -85.4,294.4"
         style="fill:#fd9a92;fill-opacity:1;fill-rule:nonzero;stroke:none"
         id="path188" /><path
         d="m 42500.3,6969.7 c -7.6,-0.6 -15.2,-1.3 -22.8,-1.9 4,-30.7 8.1,-62.5 12.3,-95.7 5.6,30.3 9,63.1 10.5,97.6"
         style="fill:#c8b2a6;fill-opacity:1;fill-rule:nonzero;stroke:none"
         id="path190" /><path
         d="m 42456.9,7118.6 c 6.7,-46.8 13.6,-97 20.6,-150.8 7.6,0.6 15.2,1.3 22.8,1.9 1.8,42.8 0.8,88.3 -2.4,135.2 -13.7,4.7 -27.3,9.3 -41,13.7"
         style="fill:#fd9a92;fill-opacity:1;fill-rule:nonzero;stroke:none"
         id="path192" /><path
         d="m 42394.3,7490.3 c 17.3,-84.9 35.3,-187.3 54.6,-316.7 14.8,-4.6 29.6,-9.3 44.4,-14.3 -10.8,106.1 -31.2,216.6 -53.9,317.1 -15.1,4.8 -30.1,9.5 -45.1,13.9"
         style="fill:#ffe293;fill-opacity:1;fill-rule:nonzero;stroke:none"
         id="path194" /><path
         d="m 42382.6,7545.6 c 3.9,-17.6 7.8,-36 11.7,-55.3 15,-4.4 30,-9.1 45.1,-13.9 -4.4,19.3 -8.9,38.1 -13.4,56.6 -14.4,4.4 -28.9,8.6 -43.4,12.6 m 66.3,-372 c 2.6,-17.8 5.3,-36.1 8,-55 13.7,-4.4 27.3,-9 41,-13.7 -1.2,17.9 -2.8,36.1 -4.6,54.4 -14.8,5 -29.6,9.7 -44.4,14.3"
         style="fill:#9c9a9a;fill-opacity:1;fill-rule:nonzero;stroke:none"
         id="path196" /><path
         d="m 41649.4,6536 c -5.2,3.2 -9.8,8.1 -13.4,14.5 -12.2,22.1 -6.9,54.4 11.7,72.3 130,124.4 282.2,229.4 440.2,303.8 145.5,68.4 300.5,102.6 460.9,101.4 22.1,-0.2 38.1,-23.3 35.8,-51.6 -2.4,-28.4 -22.2,-51.3 -44.4,-51.2 -150.3,1.1 -295.4,-30.8 -431.2,-94.7 -149.9,-70.5 -294.2,-170 -417.2,-287.7 -13.2,-12.6 -29.6,-14.6 -42.4,-6.8"
         style="fill:#231f20;fill-opacity:1;fill-rule:nonzero;stroke:none"
         id="path198" /><path
         d="m 42133.2,6344.7 c 149.6,44.9 312.1,157.8 422.6,353.8 80.3,142.5 47.9,374.5 -20.5,712.5 -26.1,129 -58.1,245.8 -80.3,321.1 -41.5,140.2 -54.8,156.5 -54.8,156.5 l -9.6,6.7 c -18.4,12.7 -43.6,5.4 -52.7,-15.4 -3.2,-7.2 -5.2,-14.6 -5,-21.8 0.2,-8.9 2.1,-17.2 5.5,-24.8 40.3,-105.6 258.5,-815.5 113.9,-1072.1 -126.8,-225 -343.9,-328 -492.8,-313.5 -79.4,7.7 -158.6,59.9 -229.1,150.8 -181,233.5 -266.1,655.5 -216.9,1075.1 30.1,256.2 134.8,519 295,740.2 135.8,187.5 301.6,328.3 432.8,367.7 l 0.9,0.3 139.9,39.7 0.9,0.2 c 32.1,9.7 50.8,44.9 40.8,78.5 -9.7,32.4 -43.8,49.7 -75.4,40.8 l -138.1,-39.2 -1.3,-0.4 c -158.2,-47.5 -343.3,-201.6 -496.3,-412.9 -172.7,-238.4 -285.7,-522.6 -318.3,-800.2 -53,-451.3 42.2,-909.8 242.5,-1168.1 91.2,-117.6 198.7,-185.6 311.1,-196.6 55.5,-5.3 119.1,1.2 185.2,21.1"
         style="fill:#231f20;fill-opacity:1;fill-rule:nonzero;stroke:none"
         id="path200" /><path
         d="m 41869,6163.8 c 75.3,-220 311.5,-219 542.3,-116 230.7,102.9 386.5,277.9 311.3,497.9 -38.6,112.8 -138.7,202.4 -258.3,249.1 -113.7,44.4 -568.4,-178.4 -603.3,-312.3 -27.7,-106.5 -25.3,-221.2 8,-318.7"
         style="fill:#865439;fill-opacity:1;fill-rule:nonzero;stroke:none"
         id="path202" /><path
         d="m 42027.6,5997.7 c 0.4,-1.4 0.8,-2.8 1.3,-4.2 14,-3.3 28.4,-5.7 43.3,-7.3 -15.4,2.8 -30.3,6.6 -44.6,11.5"
         style="fill:#9c9a9a;fill-opacity:1;fill-rule:nonzero;stroke:none"
         id="path204" /><path
         d="m 41953,6024.3 c 23.1,-14.1 48.6,-24.2 75.9,-30.8 -0.5,1.4 -0.9,2.8 -1.3,4.2 -16,5.5 -31.2,12.4 -45.6,20.8 -9.8,1.5 -19.5,3.4 -29,5.8"
         style="fill:#9c9a9a;fill-opacity:1;fill-rule:nonzero;stroke:none"
         id="path206" /><path
         d="m 42468.9,6783.9 c -5.8,0 -5.9,-5.6 6.7,-14.6 69,-48.8 122.9,-114.2 148.9,-190.2 75.2,-220 -80.6,-394.9 -311.3,-497.9 -94.1,-42 -189,-66.9 -273.6,-66.9 -19.8,0 -39.1,1.3 -57.6,4.2 14.4,-8.4 29.6,-15.3 45.6,-20.8 14.3,-4.9 29.2,-8.7 44.6,-11.5 13.1,-1.3 26.5,-2 40.3,-2 84.5,0 179.5,25 273.6,67 230.7,103 386.5,277.9 311.3,497.9 -34.4,100.6 -117.8,182.7 -220.2,232.5 -3.3,1.6 -6.2,2.3 -8.3,2.3"
         style="fill:#c8b2a6;fill-opacity:1;fill-rule:nonzero;stroke:none"
         id="path208" /><path
         d="m 42072.6,5954.3 c 98.7,-12.7 217.8,10.4 344.2,66.9 14.6,6.5 28.9,13.2 42.5,20.1 255.8,128.6 361.8,321.4 290.9,528.8 -35.4,103.4 -148.3,210.6 -269.1,269.4 l -22.9,-43.8 c -8.6,-16.5 -3,-37.3 12.9,-46.3 83.4,-47.4 176.5,-124.6 204.8,-207.3 76.8,-224.5 -125.8,-365.7 -253.3,-429.8 -11.8,-6 -23.9,-11.7 -36.1,-17.1 -113.4,-50.6 -218.1,-71.6 -302.9,-60.7 -26,3.3 -49.8,9.8 -70.8,19.1 -55.7,24.7 -93.7,68.8 -116.2,134.6 -26.9,78.6 -32.3,171.3 -15.9,259.6 2.8,14.7 -3.8,29.6 -16.2,37.1 l -25.3,15.5 c -11.7,7.1 -26.8,0.7 -29.9,-12.5 -25.6,-110.4 -21.3,-227.2 13,-327.7 29.2,-85.3 83.9,-147.8 158.2,-180.8 27.7,-12.4 58.7,-20.8 92.1,-25.1"
         style="fill:#231f20;fill-opacity:1;fill-rule:nonzero;stroke:none"
         id="path210" /><path
         d="m 46484.4,9093.1 c 0,-419.3 -989.1,-808.7 -2209.1,-808.7 -1219.9,0 -2209,389.4 -2209,808.7 0,419.3 989.1,-242.5 2209,-242.5 1220,0 2209.1,661.8 2209.1,242.5"
         style="fill:#ffbe0f;fill-opacity:1;fill-rule:nonzero;stroke:none"
         id="path212" /><path
         d="m 44275.3,8313.9 c -105.6,0 -109.8,432.9 0,432.9 109.9,0 105.6,-432.9 0,-432.9"
         style="fill:#231f20;fill-opacity:1;fill-rule:nonzero;stroke:none"
         id="path214" /><path
         d="m 44222.3,8618.6 c -4,-26 -6.2,-55.1 -6.2,-85 0,-43.1 4.5,-83.5 12,-116.2 14,-0.1 28.2,-0.1 42.2,-0.1 17.5,0 34.9,0.1 52.3,0.2 7.5,32.7 12,73 12,116.1 0,30.7 -2.2,59.5 -6.1,84.9 -16,-0.3 -32.1,-0.4 -48.2,-0.4 -19.3,0 -38.7,0.2 -58,0.5"
         style="fill:#5a5758;fill-opacity:1;fill-rule:nonzero;stroke:none"
         id="path216" /><path
         d="m 46418.4,9045.5 c -227.1,-335.9 -1064.6,-614.6 -2073.4,-627.7 -6,-28.4 -14.4,-53.2 -25.1,-71.4 560.1,4.3 1091.5,90.5 1500.7,243.9 344.8,129.1 564.1,294.9 603.5,452.4 -1.9,0.9 -3.7,1.9 -5.7,2.8 m -4290.3,-8.4 c 43,-155.7 261.2,-319.2 602,-446.8 409.2,-153.4 940.6,-239.6 1500.7,-243.9 -10.7,18.2 -19.1,42.9 -25.1,71.3 -1004.9,11.3 -1841.6,286.2 -2077.6,619.4"
         style="fill:#b28715;fill-opacity:1;fill-rule:nonzero;stroke:none"
         id="path218" /><path
         d="m 44345,8417.8 c -7.4,-0.1 -14.9,-0.2 -22.4,-0.3 -7.8,-33.7 -18.7,-59.3 -31.2,-71.3 9.5,0.1 19,0.1 28.5,0.2 10.7,18.2 19.1,43 25.1,71.4 m -139.3,-0.1 c 6,-28.4 14.4,-53.1 25.1,-71.3 9.5,-0.1 19,-0.1 28.5,-0.2 -12.5,12 -23.4,37.6 -31.2,71.2 -7.5,0.1 -14.9,0.2 -22.4,0.3"
         style="fill:#231f20;fill-opacity:1;fill-rule:nonzero;stroke:none"
         id="path220" /><path
         d="m 44322.6,8417.5 c -17.4,-0.1 -34.8,-0.2 -52.3,-0.2 -14,0 -28.2,0 -42.2,0.1 7.8,-33.6 18.7,-59.2 31.2,-71.2 5.4,0 10.7,0 16,0 5.4,0 10.7,0 16.1,0 12.5,12 23.4,37.6 31.2,71.3"
         style="fill:#474344;fill-opacity:1;fill-rule:nonzero;stroke:none"
         id="path222" /><path
         d="m 42066.2,8904.4 c 3.7,-19.9 9.7,-39.6 17.7,-59.2 5.2,3.1 10.4,6 15.6,8.9 -12.4,16.6 -23.5,33.4 -33.3,50.3 m 4402.1,-26.1 c -3.3,-5 -6.8,-10 -10.3,-15 1.5,-0.8 3.1,-1.6 4.7,-2.5 2.1,5.8 3.9,11.7 5.6,17.5"
         style="fill:#928c2c;fill-opacity:1;fill-rule:nonzero;stroke:none"
         id="path224" /><path
         d="m 46102.2,8582.1 c -73.9,-38.6 -156.8,-75.2 -248.1,-109.4 -417.6,-156.5 -957.6,-244.8 -1525.7,-249.9 v -34.9 c 103.1,-2.4 204.3,-12.5 302.9,-29.9 615.7,39.5 1145.6,177.5 1478.2,361.1 l -7.3,63 m -3631.1,-11.6 -7.9,-68.6 c 337.5,-176.8 860.6,-308.3 1464.8,-345.1 95.9,17.3 194.2,27.7 294.3,30.7 v 35.3 c -568.1,5.1 -1108,93.4 -1525.7,249.9 -82.1,30.8 -157.4,63.5 -225.5,97.8"
         style="fill:#af1e14;fill-opacity:1;fill-rule:nonzero;stroke:none"
         id="path226" /><path
         d="m 44328.4,8222.8 c -17.7,-0.2 -35.3,-0.3 -53.1,-0.3 -17.7,0 -35.3,0.1 -53,0.3 v -35.3 c 20.1,0.6 40.4,0.9 60.6,0.9 15.2,0 30.4,-0.2 45.5,-0.5 v 34.9"
         style="fill:#231f20;fill-opacity:1;fill-rule:nonzero;stroke:none"
         id="path228" /><path
         d="m 44282.9,8188.4 c -20.2,0 -40.5,-0.3 -60.6,-0.9 -100.1,-3 -198.4,-13.4 -294.3,-30.7 111.6,-6.8 225.9,-10.3 342.3,-10.3 123,0 243.6,3.9 361,11.5 -98.6,17.4 -199.8,27.5 -302.9,29.9 -15.1,0.3 -30.3,0.5 -45.5,0.5"
         style="fill:#231f20;fill-opacity:1;fill-rule:nonzero;stroke:none"
         id="path230" /><path
         d="m 46372.7,8767.1 c -69.4,-65.3 -160,-127.4 -270.5,-185 l 7.3,-63 c 130.4,72 230.4,151 293.4,233.8 -10.2,5.3 -20.2,10 -30.2,14.2"
         style="fill:#af1e14;fill-opacity:1;fill-rule:nonzero;stroke:none"
         id="path232" /><path
         d="m 46458,8863.3 c -23.5,-32.7 -51.9,-64.8 -85.3,-96.2 10,-4.2 20,-8.9 30.2,-14.2 26.9,35.4 47,71.4 59.8,107.9 -1.6,0.9 -3.2,1.7 -4.7,2.5"
         style="fill:#231f20;fill-opacity:1;fill-rule:nonzero;stroke:none"
         id="path234" /><path
         d="m 42185.8,8759.9 c -12.4,-5.9 -25.1,-12.6 -37.8,-19.9 68.7,-84.7 176.2,-165.2 315.2,-238.1 l 7.9,68.6 c -116.5,58.7 -212.1,122.3 -285.3,189.4"
         style="fill:#af1e14;fill-opacity:1;fill-rule:nonzero;stroke:none"
         id="path236" /><path
         d="m 42099.5,8854.1 c -5.2,-2.9 -10.4,-5.8 -15.6,-8.9 14.6,-35.6 36.1,-70.7 64.1,-105.2 12.7,7.3 25.4,14 37.8,19.9 -33.5,30.7 -62.3,62.1 -86.3,94.2"
         style="fill:#231f20;fill-opacity:1;fill-rule:nonzero;stroke:none"
         id="path238" /><path
         d="m 42141.9,9152.3 c -1.6,-1.2 -3.1,-2.4 -4.6,-3.7 -4.6,-4.2 -17.1,-15.4 -17.1,-55.5 0,-16.7 2.2,-33.5 6.4,-50.5 25.9,13.7 59.8,19.7 101.1,19.7 36.6,0 79,-4.7 126.7,-13.2 -89.7,39 -163.2,74.8 -212.5,103.2 m 4271,-3.3 c -47.9,-27.2 -116.8,-60.7 -200.2,-97.1 41.1,6.7 77.9,10.4 110.3,10.4 38.3,0 70.3,-5.2 95.4,-16.8 3.2,4.7 6.3,9.5 9.3,14.2 1.8,11.2 2.8,22.3 2.8,33.4 0,40.1 -12.4,51.3 -17.1,55.5 -0.2,0.1 -0.3,0.2 -0.5,0.4"
         style="fill:#b28715;fill-opacity:1;fill-rule:nonzero;stroke:none"
         id="path240" /><path
         d="m 46427.7,9059.7 c -3,-4.7 -6.1,-9.5 -9.3,-14.2 2,-0.9 3.8,-1.9 5.7,-2.8 1.4,5.7 2.6,11.3 3.6,17"
         style="fill:#806319;fill-opacity:1;fill-rule:nonzero;stroke:none"
         id="path242" /><path
         d="m 42225.4,9171.2 c -40.3,0 -70.5,-6.8 -88.1,-22.6 -4.6,-4.2 -17.1,-15.4 -17.1,-55.5 0,-171.8 228,-359.8 609.9,-502.8 420.1,-157.4 968.9,-244.1 1545.2,-244.1 576.4,0 1125.3,86.7 1545.3,244.1 381.9,143 609.9,331 609.9,502.8 0,40.1 -12.4,51.3 -17.1,55.5 -68,61 -324.5,-11.8 -621.5,-96.1 -392.1,-111.3 -929.1,-263.8 -1516.6,-263.8 -587.4,0 -1124.4,152.5 -1516.5,263.8 -220.2,62.5 -418.1,118.7 -533.4,118.7 m 2049.9,-948.7 c -587.4,0 -1148.1,88.9 -1578.7,250.2 -441.2,165.3 -684.1,385.6 -684.1,620.4 0,66.6 19.6,118 58.4,152.8 109.3,98.3 336.8,33.7 713.7,-73.3 386.8,-109.8 916.5,-260.2 1490.7,-260.2 574.3,0 1104,150.4 1490.8,260.2 376.9,107 604.4,171.6 713.7,73.3 38.8,-34.8 58.4,-86.2 58.4,-152.8 0,-234.8 -242.9,-455.1 -684.1,-620.4 -430.6,-161.3 -991.3,-250.2 -1578.8,-250.2"
         style="fill:#231f20;fill-opacity:1;fill-rule:nonzero;stroke:none"
         id="path244" /><path
         d="m 42498.6,10868.5 c 0,-512.7 -415.6,-928.3 -928.2,-928.3 -512.7,0 -928.3,415.6 -928.3,928.3 0,512.7 415.6,928.3 928.3,928.3 512.6,0 928.2,-415.6 928.2,-928.3"
         style="fill:#865439;fill-opacity:1;fill-rule:nonzero;stroke:none"
         id="path246" /><path
         d="m 41262.8,11673 c -286.5,-109.9 -499.9,-368.6 -544.9,-681 81,268 280.9,489.1 544.9,594.2 v 86.8"
         style="fill:#c8b2a6;fill-opacity:1;fill-rule:nonzero;stroke:none"
         id="path248" /><path
         d="m 41570.4,11729.8 c -474.9,0 -861.3,-386.4 -861.3,-861.3 0,-474.9 386.4,-861.3 861.3,-861.3 474.9,0 861.2,386.4 861.2,861.3 0,474.9 -386.3,861.3 -861.2,861.3 m 0,-1856.6 c -548.9,0 -995.4,446.5 -995.4,995.3 0,548.8 446.5,995.3 995.4,995.3 548.8,0 995.3,-446.5 995.3,-995.3 0,-548.8 -446.5,-995.3 -995.3,-995.3"
         style="fill:#000000;fill-opacity:1;fill-rule:nonzero;stroke:none"
         id="path250" /><path
         d="m 42384.7,10731.7 c 0,-370.5 -300.3,-670.8 -670.8,-670.8 -370.4,0 -670.8,300.3 -670.8,670.8 0,370.4 300.4,670.7 670.8,670.7 370.5,0 670.8,-300.3 670.8,-670.7"
         style="fill:#aa784b;fill-opacity:1;fill-rule:nonzero;stroke:none"
         id="path252" /><path
         d="m 41832.5,11357.9 c -89.1,-3.2 -178,-5.4 -267,-6.4 -280.1,-67.1 -488.8,-319.6 -488.8,-619.8 0,-173.2 69.3,-330.3 181.7,-445.3 -53.3,96.2 -83.7,206.8 -83.7,324.6 0,370.5 300.3,670.8 670.7,670.8 21.6,0 42.9,-1 63.9,-3 7.9,17.1 16.1,34.1 24.5,51 -32.7,12.1 -66.5,21.5 -101.3,28.1"
         style="fill:#7b593c;fill-opacity:1;fill-rule:nonzero;stroke:none"
         id="path254" /><path
         d="m 41713.9,11368.9 c -351.4,0 -637.2,-285.9 -637.2,-637.2 0,-351.5 285.8,-637.3 637.2,-637.3 351.4,0 637.3,285.8 637.3,637.3 0,351.3 -285.9,637.2 -637.3,637.2 m 0,-1341.6 c -388.3,0 -704.3,316 -704.3,704.4 0,388.3 316,704.2 704.3,704.2 388.4,0 704.3,-315.9 704.3,-704.2 0,-388.4 -315.9,-704.4 -704.3,-704.4"
         style="fill:#000000;fill-opacity:1;fill-rule:nonzero;stroke:none"
         id="path256" /><path
         d="m 46052.1,10868.5 c 0,-512.7 415.6,-928.3 928.2,-928.3 512.7,0 928.3,415.6 928.3,928.3 0,512.7 -415.6,928.3 -928.3,928.3 -512.6,0 -928.2,-415.6 -928.2,-928.3"
         style="fill:#865439;fill-opacity:1;fill-rule:nonzero;stroke:none"
         id="path258" /><path
         d="m 47319,11660.4 v -87.2 c 248.5,-109.7 436,-323.8 513.8,-581.2 -43.4,301 -243.1,552.2 -513.8,668.4"
         style="fill:#c8b2a6;fill-opacity:1;fill-rule:nonzero;stroke:none"
         id="path260" /><path
         d="m 46980.3,11729.8 c 474.9,0 861.3,-386.4 861.3,-861.3 0,-474.9 -386.4,-861.3 -861.3,-861.3 -474.9,0 -861.2,386.4 -861.2,861.3 0,474.9 386.3,861.3 861.2,861.3 m 0,-1856.6 c 548.9,0 995.3,446.5 995.3,995.3 0,548.8 -446.4,995.3 -995.3,995.3 -548.8,0 -995.3,-446.5 -995.3,-995.3 0,-548.8 446.5,-995.3 995.3,-995.3"
         style="fill:#000000;fill-opacity:1;fill-rule:nonzero;stroke:none"
         id="path262" /><path
         d="m 46166,10731.7 c 0,-370.5 300.3,-670.8 670.8,-670.8 370.4,0 670.8,300.3 670.8,670.8 0,370.4 -300.4,670.7 -670.8,670.7 -370.5,0 -670.8,-300.3 -670.8,-670.7"
         style="fill:#aa784b;fill-opacity:1;fill-rule:nonzero;stroke:none"
         id="path264" /><path
         d="m 46725.3,11359.2 c -34.5,-6.2 -68,-15.1 -100.4,-26.5 8.7,-17.6 17.3,-35.4 25.6,-53.1 18.1,1.4 36.3,2.2 54.8,2.2 370.4,0 670.7,-300.3 670.7,-670.8 0,-117.8 -30.4,-228.4 -83.7,-324.6 112.4,114.9 181.8,272.1 181.8,445.3 0,301.2 -210.1,554.3 -491.5,620.4 -85.8,1.4 -171.5,3.8 -257.3,7.1"
         style="fill:#7b593c;fill-opacity:1;fill-rule:nonzero;stroke:none"
         id="path266" /><path
         d="m 46836.8,11368.9 c 351.4,0 637.3,-285.9 637.3,-637.2 0,-351.5 -285.9,-637.3 -637.3,-637.3 -351.4,0 -637.3,285.8 -637.3,637.3 0,351.3 285.9,637.2 637.3,637.2 m 0,-1341.6 c 388.3,0 704.3,316 704.3,704.4 0,388.3 -316,704.2 -704.3,704.2 -388.4,0 -704.3,-315.9 -704.3,-704.2 0,-388.4 315.9,-704.4 704.3,-704.4"
         style="fill:#000000;fill-opacity:1;fill-rule:nonzero;stroke:none"
         id="path268" /><path
         d="m 46806.7,10329.2 c 0,858.5 -592.8,1760.8 -1449.4,2193.6 -82.9,41.9 -131.3,128.5 -130.7,221.4 v 1.5 c 0,135.9 115,421.2 -40.4,421.2 -136.7,0 -436.7,-220.5 -507.2,-366.1 -13.5,-27.9 -44.2,-43.2 -74.9,-38.9 l -1.1,0.2 c -43.3,6 -72.9,46.6 -65.8,89.7 14.7,88.5 18.8,170.7 -55.1,170.7 -82,0 -239,-101.2 -332.9,-199.9 -26.7,-28.1 -62.4,-45.8 -101,-49.7 -1286.4,-130.5 -2294.2,-1324.3 -2294.2,-2443.7 0,-413.7 137.7,-810.2 376.1,-1089.1 50,-58.4 1100.1,-555.2 2150.2,-555.2 1050.2,0 2100.3,496.8 2150.3,555.2 238.4,278.9 376.1,675.4 376.1,1089.1"
         style="fill:#865439;fill-opacity:1;fill-rule:nonzero;stroke:none"
         id="path270" /><path
         d="m 41910.9,9770.2 c 61.1,-182.1 151.8,-347.8 267.9,-484.2 86.6,-68.7 1091,-534.3 2101.5,-534.3 1010.6,0 2015,465.6 2101.6,534.3 116.1,136.4 206.8,302.1 267.9,484.2 -58.4,-128.5 -132.1,-246.1 -219.2,-348.1 -50,-58.4 -1100.1,-555.2 -2150.3,-555.2 -1050.1,0 -2100.2,496.8 -2150.2,555.2 -87.1,102 -160.8,219.6 -219.2,348.1"
         style="fill:#634230;fill-opacity:1;fill-rule:nonzero;stroke:none"
         id="path272" /><path
         d="m 46329.9,11500.6 c 4.1,-5.8 8.3,-11.4 12.4,-17.2 16.4,-1.1 32.7,-2.1 49.1,-3.2 -3.6,5.7 -7.1,11.4 -10.6,17.1 -17,1 -34,2.1 -50.9,3.3 m 86.9,-126.5 c 85.6,-132.4 158.7,-270.9 217.7,-412.9 -46.2,140.2 -106.7,277.9 -180,410.8 -12.6,0.7 -25.1,1.4 -37.7,2.1"
         style="fill:#c8b2a6;fill-opacity:1;fill-rule:nonzero;stroke:none"
         id="path274" /><path
         d="m 42230.3,11499.9 c -17.7,-1.2 -35.4,-2.3 -53,-3.4 -4.1,-6.5 -8.1,-12.9 -12.1,-19.4 17,1 34,2.1 50.9,3.2 4.7,6.5 9.5,13.1 14.2,19.6 m -87.6,-127.7 c -13.3,-0.7 -26.7,-1.5 -40,-2.2 -76.4,-138.4 -138.9,-282.7 -185.6,-430.9 60.3,149.1 136,294.4 225.6,433.1"
         style="fill:#c8b2a6;fill-opacity:1;fill-rule:nonzero;stroke:none"
         id="path276" /><path
         d="m 46380.1,9283.8 -0.1,-0.1 0.1,0.1 m -4199.6,0.2 0.4,-0.5 -0.4,0.5 m -1.7,2 c 86.6,-68.7 1091,-534.3 2101.5,-534.3 1010.6,0 2015,465.6 2101.6,534.3 227.5,267.5 358,647.5 358,1043.2 0,836.2 -581,1713.7 -1412.8,2134 -104,52.6 -168.1,160.4 -167.3,281.4 v 1.1 c 0,45 9.9,98.7 20.4,155.4 9.6,52.1 31.9,173.2 14.2,198.2 -1.1,0.3 -3.7,0.8 -8.2,0.8 -107.7,0 -387.6,-205.6 -447,-328.4 -26.1,-53.9 -84,-84.3 -144.3,-75.9 l -1,0.1 c -39,5.5 -73.2,25.9 -96.4,57.5 -23.3,31.6 -32.6,70.5 -26.2,109.3 9.4,56.5 8.5,81.8 6.5,92.9 -54.6,-4.1 -188.2,-82.4 -280.2,-179.1 -37.8,-39.7 -88.5,-64.5 -142.7,-70 -1190.1,-120.8 -2234.1,-1231.6 -2234.1,-2377.3 0,-395.7 130.5,-775.7 358,-1043.2 m 2101.5,-667.9 c -564.5,0 -1111.5,140.9 -1471,259.1 -363.6,119.5 -685.2,267.2 -729.9,319.5 -249.2,291.5 -392.2,704.2 -392.2,1132.5 0,563.2 248.6,1160.1 682,1637.6 453.3,499.3 1047.1,809.2 1672.2,872.6 22.5,2.3 43.6,12.7 59.4,29.2 87.3,91.7 263.2,220.7 381.3,220.7 50.5,0 80.6,-22.9 96.8,-42.1 45.1,-53.1 36.2,-134.3 24.2,-206.3 -0.6,-3.8 0.8,-6.7 2,-8.4 1.3,-1.7 3.5,-3.8 7.1,-4.3 l 1,-0.1 c 2.8,-0.4 5.2,0.8 5.7,1.8 77.1,159.4 394.8,403.8 567.3,403.8 58.1,0 92,-26.1 110.3,-48.1 58.9,-70.8 36.6,-191.7 15.1,-308.7 -9.4,-50.6 -18.2,-98.4 -18.2,-131.2 v -1.5 c -0.5,-70.4 35.5,-132.2 94,-161.8 875,-442.1 1486.1,-1368.7 1486.1,-2253.2 0,-428.3 -143,-841 -392.2,-1132.5 -44.7,-52.3 -366.3,-200 -729.9,-319.5 -359.5,-118.2 -906.5,-259.1 -1471.1,-259.1"
         style="fill:#231f20;fill-opacity:1;fill-rule:nonzero;stroke:none"
         id="path278" /><path
         d="m 46147,10929.7 c 0,502.4 -585.9,909.7 -1308.7,909.7 -178.6,0 -348.9,-24.9 -504.1,-70 -41.6,-12 -86.1,-12 -127.7,0 -155.1,45.1 -325.5,70 -504.2,70 -722.7,0 -1308.6,-407.3 -1308.6,-909.7 0,-281.4 183.6,-532.8 472.1,-699.7 60.4,-34.9 96,-95.5 95.9,-160.7 v -1.1 c 0,-502.4 585.9,-909.8 1308.6,-909.8 722.8,0 1308.7,407.4 1308.7,909.8 v 1.1 c -0.1,65.2 35.5,125.8 95.9,160.7 288.5,166.9 472.1,418.3 472.1,699.7"
         style="fill:#c68b59;fill-opacity:1;fill-rule:nonzero;stroke:none"
         id="path280" /><path
         d="m 43702.3,11805.9 c -703.1,0 -1275.1,-393.1 -1275.1,-876.2 0,-258.9 166,-503.3 455.4,-670.7 70.6,-40.9 112.7,-111.8 112.6,-189.7 0,-484.3 572,-877.3 1275.1,-877.3 703.2,0 1275.2,393 1275.2,876.2 -0.1,79 42,149.9 112.6,190.8 289.4,167.4 455.4,411.8 455.4,670.7 0,483.1 -572,876.2 -1275.2,876.2 -171.5,0 -338,-23.1 -494.8,-68.6 -47.8,-13.9 -98.5,-13.9 -146.3,0 -156.8,45.5 -323.3,68.6 -494.9,68.6 m 568,-2681 c -740.1,0 -1342.2,423.2 -1342.2,943.3 0.1,54.9 -29.4,104.1 -79.1,132.8 -310.7,179.7 -488.8,445.3 -488.8,728.7 0,520.1 602.1,943.2 1342.1,943.2 177.9,0 350.7,-23.9 513.6,-71.3 35.6,-10.3 73.3,-10.3 108.9,0 162.9,47.4 335.7,71.3 513.5,71.3 740.1,0 1342.3,-423.1 1342.3,-943.2 0,-283.4 -178.3,-549 -489,-728.7 -49.6,-28.7 -79.1,-77.9 -79,-131.6 0,-521.3 -602.2,-944.5 -1342.3,-944.5"
         style="fill:#231f20;fill-opacity:1;fill-rule:nonzero;stroke:none"
         id="path282" /><path
         d="m 44832,9821.4 c 0.1,23.4 -18.7,42.5 -42.1,42.6 h -0.2 c -23.3,0 -42.3,-18.8 -42.4,-42.1 -0.1,-17.2 -3.1,-39.6 -22.2,-60.4 -9.5,-10.7 -23.2,-20.8 -42.7,-29.8 -50.9,-23.3 -114.5,-26.5 -148.4,-26.3 -56.3,0.3 -109.9,21.6 -151,60.1 -38.6,36.2 -60.5,83.4 -60.3,129.3 v 0.2 0.3 c 0,1.2 -0.3,2.3 -0.4,3.5 -0.1,1.6 -0.2,3.3 -0.4,4.8 -0.3,1.3 -0.8,2.4 -1.2,3.6 l -0.1,0.3 c -0.4,1.3 -0.6,2.7 -1.2,4 -0.6,1.2 -1.2,2.3 -1.9,3.4 -0.6,1.3 -1.2,2.6 -2,3.7 -0.7,1.2 -1.6,2.1 -2.5,3.1 -0.9,1.2 -1.7,2.3 -2.6,3.2 -1,1 -2.1,1.7 -3.1,2.6 -1.1,0.8 -2.1,1.9 -3.2,2.6 -1.1,0.8 -2.4,1.3 -3.5,1.9 -1.2,0.7 -2.4,1.5 -3.7,2 -1.3,0.5 -2.7,0.8 -4,1.3 -1.4,0.4 -2.6,0.9 -3.9,1.2 -1.5,0.3 -3,0.3 -4.5,0.5 -1.3,0.1 -2.6,0.4 -3.9,0.4 h -0.3 -0.1 c -1.4,0 -2.7,-0.3 -4,-0.4 -1.5,-0.2 -3,-0.2 -4.4,-0.5 -1.4,-0.3 -2.7,-0.8 -4.1,-1.3 -1.3,-0.4 -2.6,-0.7 -3.8,-1.2 -1.4,-0.6 -2.7,-1.3 -4,-2.1 -1,-0.6 -2.2,-1.1 -3.3,-1.8 -1.2,-0.8 -2.2,-1.9 -3.4,-2.8 -0.9,-0.8 -1.9,-1.5 -2.8,-2.4 -1,-1 -1.9,-2.2 -2.8,-3.3 -0.7,-1 -1.6,-1.9 -2.4,-3 -0.7,-1.1 -1.4,-2.4 -2,-3.7 -0.6,-1.2 -1.3,-2.2 -1.8,-3.4 -0.6,-1.3 -0.9,-2.7 -1.3,-4 l -0.1,-0.3 c -0.3,-1.2 -0.9,-2.4 -1.1,-3.6 -0.3,-1.5 -0.3,-3.2 -0.5,-4.8 -0.1,-1.2 -0.4,-2.3 -0.4,-3.5 v -0.3 -0.2 c 0.3,-45.9 -21.7,-93.1 -60.3,-129.3 -41.1,-38.5 -94.6,-59.8 -151,-60.1 -33.6,-0.3 -97.5,3 -148.3,26.3 -19.5,9 -33.1,19.1 -42.8,29.7 -19,20.9 -22.1,43.3 -22.2,60.5 -0.1,23.4 -18.9,42.1 -42.6,42.1 -23.3,-0.1 -42.2,-19.2 -42.1,-42.6 0.4,-57.1 23.4,-104.2 67.4,-138.4 -4,-15.8 -6.1,-32.5 -6.1,-49.9 0,-180.5 219.6,-378.6 490.3,-378.6 270.9,0 490.4,198.1 490.4,378.6 0,17.4 -2,34.1 -6,49.9 44,34.2 67,81.3 67.3,138.4"
         style="fill:#231f20;fill-opacity:1;fill-rule:nonzero;stroke:none"
         id="path284" /><path
         d="m 44452.9,9422.7 c 0,69.3 -77.2,112.4 -172.5,112.4 -95.3,0 -172.6,-36.1 -172.6,-105.3 0,-69.3 77.3,-107.9 172.6,-107.9 95.3,0 172.5,31.6 172.5,100.8"
         style="fill:#ed1c24;fill-opacity:1;fill-rule:nonzero;stroke:none"
         id="path286" /><path
         d="m 44280.4,9513.2 c -35.7,0 -64.7,-18.7 -64.7,-40.2 0,-21.5 29,-37.5 64.7,-37.5 35.7,0 64.7,13.8 64.7,35.3 0,21.5 -29,42.4 -64.7,42.4"
         style="fill:#f68e92;fill-opacity:1;fill-rule:nonzero;stroke:none"
         id="path288" /><path
         d="m 45304.8,11112.6 c 148.6,0 287.6,-52.3 383.4,-143.9 35.2,25 100.7,-46 53.6,-62.1 9.5,-13.6 18.1,-27.7 25.6,-42.1 20.3,9.1 54.7,-57.7 26.4,-66.1 8.2,-29.3 12.4,-59.4 12.4,-89.6 0,-27.9 -3.6,-55.8 -10.6,-82.9 -5.8,-22.3 -27.6,-37.4 -55,-37.7 -26.5,0 -48.6,14.8 -54.9,36.7 -35.2,121.9 -179,259.4 -376.2,274.2 -207,15.6 -387.5,-107.2 -442.5,-234.9 -5.2,-12 -18.9,-19.4 -33.4,-18 -15,1.5 -26.6,12 -28.1,25.4 -1.5,13 -2.2,25.2 -2.2,37.2 0,222.7 225,403.8 501.5,403.8"
         style="fill:#231f20;fill-opacity:1;fill-rule:nonzero;stroke:none"
         id="path290" /><path
         d="m 43265.4,11112.6 c -148.6,0 -287.7,-52.3 -383.4,-143.9 -35.2,25 -100.7,-46 -53.6,-62.1 -9.5,-13.6 -18.1,-27.7 -25.6,-42.1 -20.3,9.1 -54.7,-57.7 -26.4,-66.1 -8.2,-29.3 -12.4,-59.4 -12.4,-89.6 0,-27.9 3.5,-55.8 10.6,-82.9 5.8,-22.3 27.6,-37.4 55,-37.7 26.5,0 48.5,14.8 54.9,36.7 35.1,121.9 179,259.4 376.2,274.2 207,15.6 387.5,-107.2 442.5,-234.9 5.2,-12 18.8,-19.4 33.4,-18 15,1.5 26.5,12 28,25.4 1.5,13 2.3,25.2 2.3,37.2 0,222.7 -225,403.8 -501.5,403.8"
         style="fill:#231f20;fill-opacity:1;fill-rule:nonzero;stroke:none"
         id="path292" /><path
         d="m 45686,11314.1 c 0,-57.8 -174.4,-41.9 -389.6,-41.9 -215.1,0 -389.5,-15.9 -389.5,41.9 0,57.8 174.4,136.1 389.5,136.1 215.2,0 389.6,-78.3 389.6,-136.1"
         style="fill:#231f20;fill-opacity:1;fill-rule:nonzero;stroke:none"
         id="path294" /><path
         d="m 43657.6,11314.1 c 0,-57.8 -174.4,-41.9 -389.5,-41.9 -215.2,0 -389.6,-15.9 -389.6,41.9 0,57.8 174.4,136.1 389.6,136.1 215.1,0 389.5,-78.3 389.5,-136.1"
         style="fill:#231f20;fill-opacity:1;fill-rule:nonzero;stroke:none"
         id="path296" /><path
         d="m 44592,10240.6 c 0,-105.5 -139.5,-284.9 -311.7,-284.9 -172.1,0 -311.6,179.4 -311.6,284.9 0,105.5 139.5,97.2 311.6,97.2 172.2,0 311.7,8.3 311.7,-97.2"
         style="fill:#3c2415;fill-opacity:1;fill-rule:nonzero;stroke:none"
         id="path298" /><path
         d="m 44213.2,10304.4 c -90.4,0 -171.2,-2.7 -199.4,-30.8 -5,-4.9 -11.6,-13.7 -11.6,-33 0,-83.8 120.2,-251.4 278.1,-251.4 157.9,0 278.2,167.6 278.2,251.4 0,19.3 -6.6,28.1 -11.6,33 -31.4,31.4 -128.4,31.1 -231.2,30.7 h -35.4 -35.3 c -10.6,0.1 -21.3,0.1 -31.8,0.1 z m 67.1,-382.2 c -190.5,0 -345.1,192.7 -345.1,318.4 0,32.7 10.5,59.8 31.2,80.5 51.2,51 151.6,50.7 278.9,50.3 l 35,-0.1 35.1,0.1 c 127.2,0.4 227.7,0.7 278.9,-50.3 20.7,-20.7 31.2,-47.8 31.2,-80.5 0,-125.7 -154.6,-318.4 -345.2,-318.4"
         style="fill:#231f20;fill-opacity:1;fill-rule:nonzero;stroke:none"
         id="path300" /></g></g></svg>
