<?xml version="1.0" encoding="UTF-8" standalone="no"?>
<!-- Created with Inkscape (http://www.inkscape.org/) -->

<svg
   version="1.1"
   id="svg2"
   xml:space="preserve"
   width="5333.3335"
   height="5333.3335"
   viewBox="0 0 5333.3335 5333.3335"
   sodipodi:docname="vecteezy_cloud-flat-design-vector-illustration_7552566.eps"
   xmlns:inkscape="http://www.inkscape.org/namespaces/inkscape"
   xmlns:sodipodi="http://sodipodi.sourceforge.net/DTD/sodipodi-0.dtd"
   xmlns="http://www.w3.org/2000/svg"
   xmlns:svg="http://www.w3.org/2000/svg"><defs
     id="defs6" /><sodipodi:namedview
     id="namedview4"
     pagecolor="#ffffff"
     bordercolor="#666666"
     borderopacity="1.0"
     inkscape:pageshadow="2"
     inkscape:pageopacity="0.0"
     inkscape:pagecheckerboard="0" /><g
     id="g8"
     inkscape:groupmode="layer"
     inkscape:label="ink_ext_XXXXXX"
     transform="matrix(1.3333333,0,0,-1.3333333,0,5333.3333)"><g
       id="g10"
       transform="scale(0.1)"><path
         d="m 25398.1,28872.3 c 2624.4,0 4752,-2127.6 4752,-4752 0,-2624.5 -2127.6,-4752 -4752,-4752 -2624.5,0 -4752,2127.5 -4752,4752 0,2624.4 2127.5,4752 4752,4752 v 0"
         style="fill:#fde42a;fill-opacity:1;fill-rule:evenodd;stroke:none"
         id="path14" /><path
         d="m 25459.5,22155.7 c 3209,0 5810.4,-2530.4 5810.4,-5652 0,-1466.4 -574.2,-2802.3 -1515.7,-3806.8 -824.5,-1054.3 -2091.6,-1747.7 -3515,-1794.3 -7.3,-1 -14.6,-1.9 -21.9,-2.9 H 24700.4 12549.9 c -2560.77,0 -4655.96,2095.2 -4655.96,4656 v 0 c 0,2489.7 1980.5,4539 4443.86,4651 -80.9,357.2 -123.9,728.2 -123.9,1109 0,2836.6 2364,5136 5280,5136 2847.6,0 5168.2,-2192.7 5275.7,-4937 804.3,409.4 1719.2,641 2689.9,641 v 0"
         style="fill:#ffffff;fill-opacity:1;fill-rule:evenodd;stroke:none"
         id="path16" /><path
         d="m 22769.6,21514.7 c -218.8,-69.8 -512.7,-207.6 -821.6,-359.3 164.9,2766.4 -2177,5081.8 -4862.7,5281.2 134.9,10 271.1,15.1 408.6,15.1 2737.7,0 5202.8,-2137.4 5275.7,-4937 z m 2689.9,641 c 3209,0 5810.4,-2530.4 5810.4,-5652 0,-1466.4 -574.2,-2802.3 -1515.7,-3806.8 -824.5,-1054.3 -2091.6,-1747.7 -3515,-1794.3 -7.3,-1 -14.6,-1.9 -21.9,-2.9 h -816 c 7.3,1 14.6,1.9 21.9,2.9 1423.4,46.6 2690.5,740 3515,1794.3 941.5,1004.5 1515.7,2340.4 1515.7,3806.8 0,2988.9 -2385.2,5435.6 -5405,5638.1 135.6,9.2 272.5,13.9 410.6,13.9 v 0"
         style="fill:#e6e6e6;fill-opacity:1;fill-rule:evenodd;stroke:none"
         id="path18" /><path
         d="m 25398.1,32748.3 v 0 c 145.2,0 264,-118.8 264,-264 v -2784 c 0,-145.2 -118.8,-264 -264,-264 v 0 c -145.2,0 -264,118.8 -264,264 v 2784 c 0,145.2 118.8,264 264,264 v 0"
         style="fill:#fde42a;fill-opacity:1;fill-rule:evenodd;stroke:none"
         id="path20" /><path
         d="m 21084.1,31592.3 v 0 c 125.7,72.6 288,29.1 360.6,-96.6 l 1392,-2411 c 72.6,-125.8 29.1,-288 -96.6,-360.6 v 0 c -125.8,-72.6 -288,-29.2 -360.6,96.6 l -1392.1,2411 c -72.6,125.8 -29.1,288 96.7,360.6 v 0"
         style="fill:#fde42a;fill-opacity:1;fill-rule:evenodd;stroke:none"
         id="path22" /><path
         d="m 17926,28434.3 v 0 c 72.6,125.7 234.9,169.2 360.6,96.6 l 2411,-1392 c 125.8,-72.6 169.3,-234.9 96.7,-360.6 v 0 c -72.6,-125.8 -234.9,-169.3 -360.6,-96.7 l -2411.1,1392.1 c -125.7,72.5 -169.2,234.8 -96.6,360.6 v 0"
         style="fill:#fde42a;fill-opacity:1;fill-rule:evenodd;stroke:none"
         id="path24" /><path
         d="m 29712.1,31592.3 v 0 c 125.7,-72.6 169.2,-234.8 96.6,-360.6 l -1392,-2411 c -72.6,-125.8 -234.9,-169.2 -360.6,-96.6 v 0 c -125.8,72.6 -169.3,234.8 -96.7,360.6 l 1392.1,2411 c 72.5,125.7 234.8,169.2 360.6,96.6 v 0"
         style="fill:#fde42a;fill-opacity:1;fill-rule:evenodd;stroke:none"
         id="path26" /><path
         d="m 32870.1,28434.3 v 0 c 72.6,-125.8 29.1,-288.1 -96.6,-360.7 l -2411,-1392 c -125.8,-72.6 -288,-29.1 -360.6,96.7 v 0 c -72.6,125.7 -29.2,288 96.6,360.6 l 2411,1392 c 125.8,72.6 288,29.1 360.6,-96.6 v 0"
         style="fill:#fde42a;fill-opacity:1;fill-rule:evenodd;stroke:none"
         id="path28" /><path
         d="m 34026.1,24120.3 v 0 c 0,-145.2 -118.8,-264 -264,-264 H 30978 c -145.1,0 -263.9,118.8 -263.9,264 v 0 c 0,145.2 118.8,263.9 263.9,263.9 h 2784.1 c 145.2,0 264,-118.7 264,-263.9 v 0"
         style="fill:#fde42a;fill-opacity:1;fill-rule:evenodd;stroke:none"
         id="path30" /><path
         d="m 32870.1,19806.3 v -0.1 c -72.6,-125.7 -234.8,-169.2 -360.6,-96.6 l -2411,1392 c -125.8,72.6 -169.2,234.9 -96.6,360.7 v 0 c 72.6,125.7 234.8,169.2 360.6,96.6 l 2411,-1392 c 125.7,-72.6 169.2,-234.9 96.6,-360.6 v 0"
         style="fill:#fde42a;fill-opacity:1;fill-rule:evenodd;stroke:none"
         id="path32" /><path
         d="m 22939.4,15059.2 c -356,0 -644.6,-288.6 -644.6,-644.5 0,-356 288.6,-644.6 644.6,-644.6 356,0 644.5,288.6 644.5,644.6 0,355.9 -288.5,644.5 -644.5,644.5 v 0"
         style="fill:#ff855d;fill-opacity:1;fill-rule:evenodd;stroke:none"
         id="path34" /><path
         d="m 15734.3,15059.2 c 356,0 644.6,-288.6 644.6,-644.5 0,-356 -288.6,-644.6 -644.6,-644.6 -356,0 -644.6,288.6 -644.6,644.6 0,355.9 288.6,644.5 644.6,644.5 v 0"
         style="fill:#ff855d;fill-opacity:1;fill-rule:evenodd;stroke:none"
         id="path36" /><path
         d="m 16668.1,16837.5 c 307,0 584.9,-124.5 786.1,-325.7 201.2,-201.2 325.7,-479.2 325.7,-786.2 0,-306.9 -124.5,-584.9 -325.7,-786.1 -201.2,-201.2 -479.1,-325.7 -786.1,-325.7 -307,0 -585,124.5 -786.1,325.7 -201.3,201.2 -325.7,479.2 -325.7,786.1 0,307.1 124.4,585 325.7,786.2 201.1,201.2 479.1,325.7 786.1,325.7 v 0"
         style="fill:#4a3f18;fill-opacity:1;fill-rule:nonzero;stroke:none"
         id="path38" /><path
         d="m 21313.3,16511.8 c 201.2,201.2 479.2,325.7 786.2,325.7 306.9,0 584.9,-124.5 786.1,-325.7 201.2,-201.2 325.7,-479.2 325.7,-786.2 0,-306.9 -124.5,-584.9 -325.7,-786.1 -201.2,-201.2 -479.2,-325.7 -786.1,-325.7 -307,0 -585,124.5 -786.2,325.7 -201.2,201.2 -325.6,479.2 -325.6,786.1 0,307.1 124.4,585 325.6,786.2 v 0"
         style="fill:#4a3f18;fill-opacity:1;fill-rule:nonzero;stroke:none"
         id="path40" /><path
         d="m 17008.6,16303.4 c 253.2,0 458.4,-205.3 458.4,-458.5 0,-253.1 -205.2,-458.4 -458.4,-458.4 -253.1,0 -458.4,205.3 -458.4,458.4 0,253.2 205.3,458.5 458.4,458.5 v 0"
         style="fill:#ffffff;fill-opacity:1;fill-rule:evenodd;stroke:none"
         id="path42" /><path
         d="m 21728,16303.4 c 253.2,0 458.4,-205.3 458.4,-458.5 0,-253.1 -205.2,-458.4 -458.4,-458.4 -253.2,0 -458.4,205.3 -458.4,458.4 0,253.2 205.2,458.5 458.4,458.5 v 0"
         style="fill:#ffffff;fill-opacity:1;fill-rule:evenodd;stroke:none"
         id="path44" /><path
         d="m 17901.8,13897.2 c 0,97.9 79.4,177.4 177.4,177.4 98,0 177.4,-79.5 177.4,-177.4 0,-137.7 55.8,-262.3 146,-352.5 90.2,-90.2 214.8,-146 352.5,-146 137.6,0 262.3,55.8 352.4,146 90.2,90.2 146,214.8 146,352.5 0,97.9 79.5,177.4 177.4,177.4 98,0 177.4,-79.5 177.4,-177.4 0,-137.7 55.8,-262.3 146,-352.5 90.2,-90.2 214.8,-146 352.5,-146 137.7,0 262.3,55.8 352.5,146 90.2,90.2 146,214.8 146,352.5 0,97.9 79.4,177.4 177.4,177.4 97.9,0 177.3,-79.5 177.3,-177.4 0,-235.6 -95.5,-449 -249.9,-603.4 -154.4,-154.4 -367.7,-249.9 -603.3,-249.9 -235.6,0 -448.9,95.5 -603.3,249.9 -25.9,25.9 -50.2,53.5 -72.6,82.5 -22.4,-29 -46.6,-56.6 -72.5,-82.5 -154.4,-154.4 -367.7,-249.9 -603.3,-249.9 -235.6,0 -449,95.5 -603.4,249.9 -154.4,154.4 -249.9,367.8 -249.9,603.4 v 0"
         style="fill:#4a3f18;fill-opacity:1;fill-rule:nonzero;stroke:none"
         id="path46" /></g></g></svg>
