<?xml version="1.0" encoding="UTF-8" standalone="no"?>
<!-- Created with Inkscape (http://www.inkscape.org/) -->

<svg
   version="1.1"
   id="svg2"
   xml:space="preserve"
   width="5333.3335"
   height="5333.3335"
   viewBox="0 0 5333.3335 5333.3335"
   sodipodi:docname="vecteezy_colorful-weather-forecast-icons-funny-cartoon-sun-and_7552545.eps"
   xmlns:inkscape="http://www.inkscape.org/namespaces/inkscape"
   xmlns:sodipodi="http://sodipodi.sourceforge.net/DTD/sodipodi-0.dtd"
   xmlns="http://www.w3.org/2000/svg"
   xmlns:svg="http://www.w3.org/2000/svg"><defs
     id="defs6" /><sodipodi:namedview
     id="namedview4"
     pagecolor="#ffffff"
     bordercolor="#666666"
     borderopacity="1.0"
     inkscape:pageshadow="2"
     inkscape:pageopacity="0.0"
     inkscape:pagecheckerboard="0" /><g
     id="g8"
     inkscape:groupmode="layer"
     inkscape:label="ink_ext_XXXXXX"
     transform="matrix(1.3333333,0,0,-1.3333333,0,5333.3333)"><g
       id="g10"
       transform="scale(0.1)"><path
         d="m 26150.2,26859 c 3209.1,0 5810.5,-2530.5 5810.5,-5652 0,-1466.5 -574.2,-2802.4 -1515.7,-3806.8 -824.5,-1054.3 -2091.6,-1747.7 -3515,-1794.4 -7.3,-1 -14.6,-1.9 -21.9,-2.8 H 25391.2 13240.7 c -2560.8,0 -4655.98,2095.2 -4655.98,4656 v 0 c 0,2489.7 1980.48,4539 4443.78,4650.9 -80.8,357.2 -123.8,728.2 -123.8,1109.1 0,2836.5 2364,5136 5280,5136 2847.5,0 5168.2,-2192.8 5275.7,-4937 804.3,409.3 1719.2,641 2689.8,641 v 0"
         style="fill:#ffffff;fill-opacity:1;fill-rule:evenodd;stroke:none"
         id="path14" /><path
         d="m 18494,15603 -2436.5,-3246.6 c -56.9,-75.7 56.5,-156.3 220,-156.3 h 3565.2 c 164.9,0 278.3,-81.8 218.9,-157.9 L 17886.5,9257.7 c -98.9,-126.6 247,-219.8 408.6,-110.1 l 5964,4049.9 c 113,76.7 2.2,184.4 -189.7,184.4 h -2651.5 c -164.9,0 -278.3,81.8 -218.8,157.9 L 22814.4,15603 H 18494 v 0"
         style="fill:#fde42a;fill-opacity:1;fill-rule:nonzero;stroke:none"
         id="path16" /><path
         d="m 18494,15603 h 4320.4 l -375.8,-480 h -4304.8 l 360.2,480 v 0"
         style="fill:#ffd400;fill-opacity:1;fill-rule:evenodd;stroke:none"
         id="path18" /><path
         d="m 23460.4,26218 c -218.9,-69.9 -512.7,-207.6 -821.6,-359.4 164.9,2766.4 -2177,5081.8 -4862.7,5281.2 134.9,10 271.1,15.2 408.6,15.2 2737.7,0 5202.8,-2137.5 5275.7,-4937 z m 2689.8,641 c 3209.1,0 5810.5,-2530.5 5810.5,-5652 0,-1466.5 -574.2,-2802.4 -1515.7,-3806.8 -824.5,-1054.3 -2091.6,-1747.7 -3515,-1794.4 -7.3,-1 -14.6,-1.9 -21.9,-2.8 h -816 c 7.3,0.9 14.6,1.8 21.9,2.8 1423.4,46.7 2690.5,740.1 3515,1794.4 941.5,1004.4 1515.7,2340.3 1515.7,3806.8 0,2988.9 -2385.2,5435.6 -5405,5638.1 135.6,9.2 272.5,13.9 410.5,13.9 v 0"
         style="fill:#e6e6e6;fill-opacity:1;fill-rule:evenodd;stroke:none"
         id="path20" /><path
         d="m 23884.6,20866.5 c -383.9,0 -695.1,-311.1 -695.1,-695 0,-383.8 311.2,-695 695.1,-695 383.8,0 695,311.2 695,695 0,383.9 -311.2,695 -695,695 v 0"
         style="fill:#ff855d;fill-opacity:1;fill-rule:evenodd;stroke:none"
         id="path26" /><path
         d="m 16115.4,20866.5 c 383.9,0 695.1,-311.1 695.1,-695 0,-383.8 -311.2,-695 -695.1,-695 -383.8,0 -695,311.2 -695,695 0,383.9 311.2,695 695,695 v 0"
         style="fill:#ff855d;fill-opacity:1;fill-rule:evenodd;stroke:none"
         id="path28" /><path
         d="m 17122.3,22784 c 331.1,0 630.8,-134.2 847.7,-351.2 217,-216.9 351.2,-516.6 351.2,-847.7 0,-331 -134.2,-630.7 -351.2,-847.7 -216.9,-216.9 -516.6,-351.1 -847.7,-351.1 -331,0 -630.7,134.2 -847.7,351.1 -216.9,217 -351.1,516.7 -351.1,847.7 0,331.1 134.2,630.8 351.1,847.7 217,217 516.7,351.2 847.7,351.2 v 0"
         style="fill:#4a3f18;fill-opacity:1;fill-rule:nonzero;stroke:none"
         id="path30" /><path
         d="m 22131.2,22432.8 c 217,217 516.7,351.2 847.7,351.2 331,0 630.8,-134.2 847.7,-351.2 217,-216.9 351.2,-516.6 351.2,-847.7 0,-331 -134.2,-630.7 -351.2,-847.7 -216.9,-216.9 -516.7,-351.1 -847.7,-351.1 -331,0 -630.7,134.2 -847.7,351.1 -216.9,217 -351.1,516.7 -351.1,847.7 0,331.1 134.2,630.8 351.1,847.7 v 0"
         style="fill:#4a3f18;fill-opacity:1;fill-rule:nonzero;stroke:none"
         id="path32" /><path
         d="m 17489.5,22208.1 c 273,0 494.3,-221.3 494.3,-494.3 0,-273 -221.3,-494.3 -494.3,-494.3 -273,0 -494.3,221.3 -494.3,494.3 0,273 221.3,494.3 494.3,494.3 v 0"
         style="fill:#ffffff;fill-opacity:1;fill-rule:evenodd;stroke:none"
         id="path34" /><path
         d="m 22578.4,22208.1 c 273,0 494.3,-221.3 494.3,-494.3 0,-273 -221.3,-494.3 -494.3,-494.3 -273,0 -494.3,221.3 -494.3,494.3 0,273 221.3,494.3 494.3,494.3 v 0"
         style="fill:#ffffff;fill-opacity:1;fill-rule:evenodd;stroke:none"
         id="path36" /><path
         d="m 20971.8,17576.5 c 222.7,222.7 360.5,530.4 360.5,870.4 0,339.9 -137.8,647.7 -360.5,870.3 -222.6,222.7 -530.4,360.5 -870.3,360.5 -340,0 -647.7,-137.8 -870.4,-360.5 -222.7,-222.6 -360.5,-530.4 -360.5,-870.3 0,-340 137.8,-647.8 360.5,-870.4 222.7,-222.7 530.4,-360.5 870.4,-360.5 339.9,0 647.6,137.8 870.3,360.5 v 0"
         style="fill:#4a3f18;fill-opacity:1;fill-rule:evenodd;stroke:none"
         id="path38" /><path
         d="m 20828.1,18270 c 169,0 328.8,-39.9 470.4,-110.7 -53.7,-224.4 -168.9,-425 -326.6,-582.8 -222.8,-222.7 -530.5,-360.5 -870.4,-360.5 -340,0 -647.7,137.8 -870.4,360.5 -157.8,157.8 -273,358.3 -326.7,582.8 141.6,70.8 301.4,110.7 470.5,110.7 281.7,0 537.5,-110.5 726.6,-290.5 189,180 444.9,290.5 726.6,290.5 v 0"
         style="fill:#ff855d;fill-opacity:1;fill-rule:evenodd;stroke:none"
         id="path40" /><path
         d="m 20724.6,19508.6 v -88.7 c 0,-89.3 -73.1,-162.4 -162.5,-162.4 h -921.3 c -89.4,0 -162.5,73.1 -162.5,162.4 v 88.7 c 182.8,107.5 395.8,169.1 623.2,169.1 227.3,0 440.3,-61.7 623.1,-169.1 v 0"
         style="fill:#ffffff;fill-opacity:1;fill-rule:evenodd;stroke:none"
         id="path42" /></g></g></svg>
