<?xml version="1.0" encoding="UTF-8" standalone="no"?>
<!-- Created with Inkscape (http://www.inkscape.org/) -->

<svg
   version="1.1"
   id="svg2"
   xml:space="preserve"
   width="5333.3335"
   height="5333.3335"
   viewBox="3000 2200 1600 1600"
   sodipodi:docname="Gender:Poverty.eps"
   xmlns:inkscape="http://www.inkscape.org/namespaces/inkscape"
   xmlns:sodipodi="http://sodipodi.sourceforge.net/DTD/sodipodi-0.dtd"
   xmlns="http://www.w3.org/2000/svg"
   xmlns:svg="http://www.w3.org/2000/svg"><defs
     id="defs6"><clipPath
       clipPathUnits="userSpaceOnUse"
       id="clipPath1660"><path
         d="m 34188.9,28106.1 c -1794.9,0 -3250,447.7 -3250,1000 0,349.2 581.7,656.6 1463.2,835.5 16.6,-44.2 34.7,-86.8 54.2,-127.5 -89,-92 -187,-212 -185.4,-339.1 2.7,-223.3 238.2,-367.5 599.7,-367.5 5.8,0 11.5,0 17.3,0.1 152.8,1.9 283,30.8 376.7,83.8 118.2,66.7 179.8,169.6 178.2,297.4 -0.5,34 -5.4,69.1 -14.9,104.5 83.6,131.3 141.6,303.2 170.5,496.4 191.5,10.8 388.8,16.4 590.5,16.4 215.9,0 427.1,-6.5 631.2,-18.8 29,-192.2 86.9,-363.2 170.2,-494 -9.5,-35.4 -14.5,-70.5 -14.9,-104.5 -1.6,-127.8 60,-230.7 178.1,-297.4 93.7,-53 224,-81.9 376.8,-83.8 5.8,-0.1 11.5,-0.1 17.2,-0.1 361.6,0 597,144.2 599.8,367.5 1.5,127.1 -96.4,247.1 -185.4,339.1 18.3,38.3 35.4,78.3 51.3,119.7 860.5,-179.9 1425.7,-483.4 1425.7,-827.7 0,-552.3 -1455.1,-1000 -3250,-1000"
         id="path1658" /></clipPath></defs><sodipodi:namedview
     id="namedview4"
     pagecolor="#ffffff"
     bordercolor="#666666"
     borderopacity="1.0"
     inkscape:pageshadow="2"
     inkscape:pageopacity="0.0"
     inkscape:pagecheckerboard="0" /><g
     id="g8"
     inkscape:groupmode="layer"
     inkscape:label="ink_ext_XXXXXX"
     transform="matrix(1.3333333,0,0,-1.3333333,0,5333.3333)"><g
       id="g10"
       transform="scale(0.09)"><path
         d="M 0,0 H 40000 V 40000 H 0 Z"
         style="fill:#ffffff;fill-opacity:0;fill-rule:nonzero;stroke:none"
         id="path12" /><path
         d="m 32789.3,16812.3 c 42.9,26.5 85.9,54.6 129.1,84.1 558.4,382 1152.6,1026 1766,1914.2 99.3,143.9 63.2,341.1 -80.7,440.5 -143.9,99.3 -341.1,63.2 -440.4,-80.7 -1007.9,-1459.3 -1916.8,-2175.8 -2628.3,-2071.8 -826.7,120.7 -1227.5,1325.6 -1231.4,1337.7 -54,166.1 -232.4,257.4 -398.5,203.7 -166.2,-53.6 -257.6,-231.4 -204.3,-397.7 20.8,-64.9 523.5,-1589.9 1739.7,-1769.9 428.6,-63.5 881.8,50.8 1348.8,339.9"
         style="fill:#b55437;fill-opacity:1;fill-rule:nonzero;stroke:none"
         id="path370" /><path
         d="m 31602.9,16988.7 c -46.8,0 -92.7,3.3 -138,9.9 -826.5,120.7 -1227.3,1325.6 -1231.3,1337.8 -43.5,133.8 -167.7,219.1 -301.3,219.1 -27.7,0 -55.9,-3.7 -83.8,-11.4 22.1,16.6 47.3,29.9 75,38.8 26.1,8.4 52.5,12.4 78.6,12.4 108.2,0 209.2,-69.1 244.4,-177.5 4.1,-12.5 416.7,-1252.5 1279.8,-1378.6 48,-7 96.9,-10.5 146.5,-10.5 136.3,0 278.5,26.3 426.2,78.9 -7.2,-5.8 -14.3,-11.5 -21.2,-17.2 -165.8,-67.6 -324.3,-101.7 -474.9,-101.7"
         style="fill:#daaa9b;fill-opacity:1;fill-rule:nonzero;stroke:none"
         id="path372" /><path
         d="m 31672.1,16515.4 c -75.1,0 -149.4,5.5 -222.8,16.3 -376.5,55.8 -682.8,245.5 -926.1,480.2 231.2,-194 509.5,-345.4 836,-393.8 34.1,-5 65.3,-7.4 94.1,-7.4 289.1,0 337,242 624.5,479.7 48.1,19.6 96.8,42 146.1,67.3 33.5,14.9 67.1,31 101.1,48.5 -39.1,-171.4 -57.1,-379.1 -51.5,-580.4 -204.9,-73.5 -405.7,-110.4 -601.4,-110.4"
         style="fill:#8b432b;fill-opacity:1;fill-rule:nonzero;stroke:none"
         id="path374" /><path
         d="m 32077.8,17090.4 c 6.9,5.7 14,11.4 21.2,17.2 41.2,14.6 82.8,31.3 124.9,50.1 -49.3,-25.3 -98,-47.7 -146.1,-67.3"
         style="fill:#a37b6c;fill-opacity:1;fill-rule:nonzero;stroke:none"
         id="path376" /><path
         d="m 32789.3,16812.3 h 0.1 -0.1 m -2787.2,1783 c -26.1,0 -52.5,-4 -78.6,-12.4 -134.4,-43.3 -208.7,-187.9 -165.6,-322.3 20.4,-63.4 511.8,-1554.3 1691.4,-1728.9 413.8,-61.2 854,50.3 1308.4,331.6 42,26 84.7,53.8 126.8,82.6 552.3,377.8 1141.3,1016.7 1750.5,1898.8 38.9,56.4 53.6,124.6 41.3,192 -12.4,67.5 -50.2,126 -106.7,165 -56.4,38.9 -124.6,53.6 -192,41.3 -67.4,-12.4 -126,-50.2 -164.9,-106.6 -505,-731.3 -988.7,-1281.4 -1437.5,-1635.3 -398.4,-314 -768.4,-472.4 -1102.4,-472.4 -49.6,0 -98.5,3.5 -146.5,10.5 -863.1,126.1 -1275.7,1366.1 -1279.8,1378.6 -35.2,108.4 -136.2,177.5 -244.4,177.5 m 1670.4,-2199.9 c -81.1,0 -161.3,5.9 -240.8,17.6 -1252.6,185.4 -1766.7,1744.7 -1788,1810.9 -63.3,197.3 45.7,409.6 242.9,473.2 197.2,63.7 409.9,-44.9 474.1,-242.2 3.8,-11.8 395.4,-1181.9 1182.9,-1297 337.2,-49.3 726.6,98 1157.3,437.5 439.4,346.4 914.9,887.8 1413,1609.1 57.2,82.8 143.1,138.4 242.1,156.5 99,18.1 199.1,-3.4 281.8,-60.6 82.8,-57.1 138.4,-143.1 156.5,-242.1 18.1,-98.9 -3.4,-199 -60.6,-281.8 -617.6,-894.3 -1216.9,-1543.5 -1781.5,-1929.6 -43.6,-29.9 -87.8,-58.7 -131.3,-85.6 v 0 c -393.2,-243.3 -778.4,-365.9 -1148.4,-365.9"
         style="fill:#231f20;fill-opacity:1;fill-rule:nonzero;stroke:none"
         id="path378" /><path
         d="m 35615.5,17639.4 c -3.9,-86.7 -28.2,-428.9 -277.9,-702.5 -168.1,-184.3 -356.7,-247.9 -445.6,-271 -57.5,-429.2 19.6,-830.7 180.5,-1057.6 -14.3,-39.5 -22.2,-79.5 -22.6,-118.1 -2.6,-208.4 211.4,-297.7 476.7,-301 265.2,-3.2 534.1,80.7 536.7,289.2 1.4,109.3 -109.2,231.1 -202.6,322.7 86,162.5 151,367.6 181.8,597.5 81.9,611.5 -109.3,1167.1 -427,1240.8"
         style="fill:#b55437;fill-opacity:1;fill-rule:nonzero;stroke:none"
         id="path380" /><path
         d="m 32793.2,17639.4 c 3.8,-86.7 28.2,-428.9 277.8,-702.5 168.1,-184.3 356.7,-247.9 445.6,-271 57.5,-429.2 -19.5,-830.7 -180.4,-1057.6 14.2,-39.5 22.1,-79.5 22.6,-118.1 2.5,-208.4 -211.5,-297.7 -476.7,-301 -265.3,-3.2 -534.2,80.7 -536.8,289.2 -1.3,109.3 109.2,231.1 202.6,322.7 -86,162.5 -151,367.6 -181.8,597.5 -81.9,611.5 109.3,1167.1 427.1,1240.8"
         style="fill:#b55437;fill-opacity:1;fill-rule:nonzero;stroke:none"
         id="path382" /><path
         d="m 35852.3,15809.1 c 86,162.5 151,367.6 181.8,597.5 45.3,338.2 7,659.2 -90,891.1 246,309.9 390.5,757.2 390.5,1391.9 0,1636.8 -960.6,2593.5 -2145.7,2593.5 -1185.1,0 -2145.8,-956.7 -2145.8,-2593.5 0,-642.5 148.2,-1093.1 399.8,-1403.5 -93.5,-230.9 -129.8,-546.9 -85.2,-879.5 30.7,-229.9 95.8,-435 181.8,-597.5 -93.4,-91.7 802.4,-232.3 788.2,-192.8 160.9,226.8 238,628.4 180.5,1057.5 -50.4,13.1 -132.7,39.2 -225.2,92.9 275.2,-75.9 582.2,-105.2 905.9,-105.2 334.1,0 650.3,31.2 932.3,112.5 -97.5,-58.6 -185,-86.5 -237.7,-100.2 -57.4,-429.1 19.6,-830.7 180.5,-1057.5 -14.2,-39.5 881.7,101.1 788.3,192.8"
         style="fill:#b55437;fill-opacity:1;fill-rule:nonzero;stroke:none"
         id="path384" /><path
         d="m 35547.5,15230.7 c -5.2,0 -10.4,0.1 -15.7,0.1 -132.1,1.6 -242,25.1 -317.6,67.9 -77.7,43.9 -116.6,107.3 -115.6,188.5 0.3,25.6 4.5,52.5 12.3,79.9 4,14.1 5,28.7 3.2,42.8 10.9,0.5 23.3,1.4 37,2.6 -4.3,-21.1 -6.7,-42.1 -7,-62.6 -2.5,-208.5 211.5,-297.7 476.7,-301 5.2,-0.1 10.4,-0.1 15.5,-0.1 52.9,0 105.7,3.5 156.3,10.8 -69.2,-18.7 -151.9,-28.9 -245.1,-28.9"
         style="fill:#894430;fill-opacity:1;fill-rule:nonzero;stroke:none"
         id="path386" /><path
         d="m 35114.1,15609.9 c -2.1,15.5 -7.5,30.5 -16.2,43.9 -141,216.8 -203.8,581.4 -163.8,951.5 0.4,3.7 0.6,7.4 0.6,11.1 2.6,1.1 5.3,2.2 7.8,3.2 21.9,9 43.3,18.1 63.6,27.2 45.3,20.4 85.8,40.5 123.9,61.6 48,26.8 85.3,51.1 117.5,76.5 6.2,4.9 12.1,9.8 17.6,14.6 -159.8,-424.9 -256.4,-888.2 -115.7,-1105.9 10.5,-16.3 13.2,-36.2 8,-54.8 -2.4,-8.8 -4.5,-17.6 -6.3,-26.3 -13.7,-1.2 -26.1,-2.1 -37,-2.6"
         style="fill:#894430;fill-opacity:1;fill-rule:nonzero;stroke:none"
         id="path388" /><path
         d="m 32870.6,15230.7 c -92.7,0 -174.9,10.1 -243.9,28.6 50,-7.1 102,-10.5 154.1,-10.5 5.2,0 10.4,0 15.6,0.1 265.2,3.3 479.2,92.5 476.6,301 -0.2,19.9 -2.5,40.2 -6.5,60.7 11.9,-0.8 22.3,-1.2 31,-1.2 2.3,0 4.5,0.1 6.5,0.1 -1.8,-14 -0.7,-28.4 3.3,-42.3 7.8,-27.5 11.9,-54.4 12.2,-80 1,-81.2 -37.8,-144.6 -115.5,-188.5 -75.7,-42.8 -185.5,-66.3 -317.7,-67.9 -5.2,0 -10.4,-0.1 -15.7,-0.1"
         style="fill:#894430;fill-opacity:1;fill-rule:nonzero;stroke:none"
         id="path390" /><path
         d="m 33297.5,15609.4 c -8.7,0 -19.1,0.4 -31,1.2 -1.9,9.3 -4.1,18.8 -6.8,28.2 -5.2,18.6 -2.4,38.5 8.1,54.8 142.4,220.4 41.7,692.3 -121.6,1121.3 10.3,-10 21.7,-19.9 34.4,-30 32.2,-25.4 69.5,-49.7 117.5,-76.5 38.1,-21.1 78.6,-41.2 123.9,-61.6 19.8,-8.9 40.7,-17.8 62,-26.6 -0.3,-5.6 -0.3,-11.3 0.3,-17 39.5,-369.3 -23.4,-733.1 -164,-949.4 -8.8,-13.5 -14.3,-28.7 -16.3,-44.3 -2,0 -4.2,-0.1 -6.5,-0.1"
         style="fill:#894430;fill-opacity:1;fill-rule:nonzero;stroke:none"
         id="path392" /><path
         d="m 32546.7,15830.2 c 104.4,5.1 217.6,-4.8 310.7,-54.7 7.7,-4.2 3.2,-15.9 -5.3,-13.8 -94,22.7 -195.4,6.4 -286.6,-21.9 -66.2,-24.6 -89.4,86.6 -18.8,90.4"
         style="fill:#231f20;fill-opacity:1;fill-rule:nonzero;stroke:none"
         id="path394" /><path
         d="m 35869.5,15830.2 c -104.3,5.1 -217.5,-4.8 -310.6,-54.7 -7.7,-4.2 -3.3,-15.9 5.2,-13.8 94.1,22.7 195.5,6.4 286.7,-21.9 66.2,-24.6 89.3,86.6 18.7,90.4"
         style="fill:#231f20;fill-opacity:1;fill-rule:nonzero;stroke:none"
         id="path396" /><path
         d="m 34188.9,17506.3 c -282.3,0 -545.5,60.9 -766.9,184.3 31.5,11.1 60,31.5 81.7,57.4 46.4,18.1 77.3,49.4 87,81.7 11.3,37.9 5,72.3 -18.2,101.7 l 1.7,5.9 c 99.2,5.2 156,45.4 177.5,122.2 4.6,16.4 8.1,35.8 8.1,56.8 0,25.2 -5.1,52.7 -19.5,79.9 51.6,20.6 85.4,60.9 102.4,121.7 4.8,17.3 7.3,33.6 7.3,49.3 0,26.3 -6.8,51.1 -20.7,76.7 -43.2,79.9 -153.9,125.2 -279.7,160.8 -4.4,60.2 -27.4,117.1 -87.6,146.2 -42.2,15.3 -86.7,22.3 -131.5,22.3 -79.9,0 -160.8,-22.3 -231.3,-59.7 -110.4,50.6 -222.3,102.3 -333.4,157.1 -1.3,30.3 -1.9,61.1 -1.9,92.4 0,476.7 149.8,985.9 393.8,1384.1 120.5,-19.6 248.9,-38.2 385.8,-56.6 203.7,-27.3 408.7,-40.9 613.8,-40.9 205.4,0 410.8,13.7 614.7,41.1 158.5,21.2 305.6,42.8 442.3,65.9 247.4,-399.6 399.6,-913.1 399.6,-1393.6 0,-983.7 -638,-1456.7 -1425,-1456.7"
         style="fill:#c87f69;fill-opacity:1;fill-rule:nonzero;stroke:none"
         id="path398" /><path
         d="m 35969.4,17347.2 v -0.1 c -19.3,-26.3 -25.3,-60.7 -16.2,-92.1 67.6,-230.7 87.8,-573.5 50.4,-852.9 -26.7,-200.1 -81.3,-388.6 -157.9,-545.1 -19.6,-40.1 -11.7,-88.4 19.5,-120.3 68.7,-70.1 159.9,-173.4 158.8,-260.2 -1.8,-149.3 -188.8,-245.8 -476.5,-245.8 -5.2,0 -10.4,0.1 -15.7,0.1 -132.1,1.6 -242,25.1 -317.6,67.9 -77.7,43.9 -116.6,107.3 -115.6,188.5 0.3,25.6 4.5,52.5 12.3,79.9 8.4,29.4 3.7,61 -13,86.7 -141,216.8 -203.8,581.4 -163.8,951.5 0.4,3.7 0.6,7.4 0.6,11.1 2.6,1.1 5.3,2.2 7.8,3.2 21.9,9 43.3,18.1 63.6,27.2 45.3,20.4 85.8,40.5 123.9,61.6 48,26.8 85.3,51.1 117.5,76.5 20.9,16.5 38.2,32.6 52.7,49.4 19.4,22.3 32,43.6 38.8,65.2 3,9.9 -1.9,20.3 -11.4,24.2 -9.4,3.8 -20.4,-0.2 -25.1,-9.3 -7.7,-14.9 -19.7,-28.8 -37.7,-43.6 -14.6,-11.8 -31.5,-22.9 -51.8,-33.9 -32.6,-17.7 -70.1,-33.8 -117.9,-50.6 -38.6,-13.4 -79.5,-25.6 -124.9,-37.2 -20.3,-5.2 -41.6,-10.3 -63.5,-15.1 -25.7,-5.6 -45.7,-9.6 -62.9,-12.6 l -0.6,-0.1 c -4.7,0.6 -9.4,1 -14.1,1 -5.5,0 -11,-0.4 -16.4,-1.3 -183.6,-28.8 -389.1,-43.4 -610.6,-43.4 -216.1,0 -416.9,13.9 -596.8,41.3 -4.9,0.7 -9.9,1.1 -15,1.1 -1.9,0.6 -3.9,1 -6,1.4 -17.2,3 -37.2,7 -62.9,12.6 -21.9,4.8 -43.2,9.9 -63.5,15.1 -45.4,11.6 -86.3,23.8 -124.9,37.2 -47.8,16.8 -85.2,32.9 -117.9,50.6 -20.3,11 -37.3,22.1 -51.8,33.9 -18,14.8 -30,28.7 -37.7,43.6 -4.7,9.1 -15.7,13.1 -25.1,9.3 -9.5,-3.9 -14.4,-14.3 -11.4,-24.2 6.8,-21.6 19.4,-42.9 38.8,-65.2 14.6,-16.8 31.8,-32.9 52.7,-49.4 32.2,-25.4 69.5,-49.7 117.5,-76.5 38.1,-21.1 78.6,-41.2 123.9,-61.6 19.8,-8.9 40.7,-17.8 62,-26.6 -0.3,-5.6 -0.3,-11.3 0.3,-17 39.5,-369.3 -23.4,-733.1 -164,-949.4 -16.7,-25.7 -21.5,-57.2 -13,-86.6 7.8,-27.5 11.9,-54.4 12.2,-80 1,-81.2 -37.8,-144.6 -115.5,-188.5 -75.7,-42.8 -185.5,-66.3 -317.7,-67.9 -5.2,0 -10.4,-0.1 -15.7,-0.1 -287.6,0 -474.6,96.5 -476.5,245.8 -1.1,86.8 90.2,190.1 158.9,260.2 31.2,31.9 39,80.2 19.4,120.3 -76.5,156.5 -131.1,345 -157.9,545.1 -37.1,277 -18.7,607 46.8,840.5 8.9,31.4 2.5,65.7 -17.1,91.9 -77.5,103.3 -143.1,220.2 -194.8,347.3 -110.6,271.8 -166.6,607.4 -166.6,997.5 0,773.5 215,1428.1 621.9,1893.1 380.3,434.6 912.1,674 1497.4,674 576.5,0 1085.2,-233.1 1471,-674 406.9,-465 621.9,-1119.6 621.9,-1893.1 0,-451.4 -43.2,-759.1 -140.2,-997.5 -49.6,-121.8 -112,-234.4 -185.4,-334.6 m 448.9,1332.1 c 0,803.8 -225.6,1486.5 -652.5,1974.3 -409.8,468.4 -950.6,716 -1563.7,716 -621.4,0 -1186.1,-254.3 -1590.2,-716 -426.8,-487.8 -652.4,-1170.5 -652.4,-1974.3 0,-406.1 59.1,-757.3 175.8,-1043.9 54.5,-134.1 123.5,-257.8 205.1,-367.9 -67.8,-247.8 -86.7,-592.7 -48,-881.8 27.9,-208.3 84.5,-405.6 163.9,-571.6 -89,-92 -187,-212 -185.4,-339.1 2.7,-223.3 238.2,-367.5 599.7,-367.5 5.8,0 11.5,0 17.3,0.1 152.8,1.9 283,30.8 376.7,83.8 118.2,66.7 179.8,169.6 178.2,297.4 -0.5,34 -5.4,69.1 -14.9,104.5 151.8,238.3 219,610.1 181.2,1000.4 180.2,-26.1 379.6,-39.4 593,-39.4 218.9,0 423,14 607.1,41.5 -38.2,-391.1 29,-763.6 181.1,-1002.5 -9.5,-35.4 -14.5,-70.5 -14.9,-104.5 -1.6,-127.8 60,-230.7 178.1,-297.4 93.7,-53 224,-81.9 376.8,-83.8 5.8,-0.1 11.5,-0.1 17.2,-0.1 361.6,0 597,144.2 599.8,367.5 1.5,127.1 -96.4,247.1 -185.4,339.1 79.4,166 136,363.3 163.9,571.6 39.6,296.2 19.2,646.5 -51.9,895.6 77.2,106.6 142.8,225.7 195,354.1 103.3,253.8 149.4,575.8 149.4,1043.9"
         style="fill:#231f20;fill-opacity:1;fill-rule:nonzero;stroke:none"
         id="path400" /><path
         d="m 35436.2,20450.9 c 0,0 646.2,-993.9 700.8,-972.1 278.5,111.6 828,287.5 1207,514.2 242.4,144.9 405.8,390.9 445.2,670.5 76.1,539.5 28,1368.7 -530.1,1217 -129.3,-36.6 -234.1,-136.7 -239.2,-295.2 -14,-176.2 -15,-509.2 -71.9,-763.7 l -1511.8,-370.7"
         style="fill:#b55437;fill-opacity:1;fill-rule:nonzero;stroke:none"
         id="path402" /><path
         d="m 36247.3,19522.9 -110.5,303.4 c 7.1,2.8 14.3,4.1 21.5,4.1 31.3,0 64,-23.9 99.2,-47.7 35.2,-23.9 72.9,-47.8 114.2,-47.8 12.2,0 24.7,2.1 37.5,6.9 285.2,105.6 647.4,242.7 920.9,406.3 176.4,105.4 311,264.4 386.3,450.9 -52.7,-231.7 -196.8,-431.1 -403.2,-554.5 -283.4,-169.5 -672.2,-313.2 -956.1,-418.2 -39.5,-14.6 -77.2,-28.6 -112.7,-41.9 l 20.5,-54.9 c -5.9,-2.2 -11.8,-4.4 -17.6,-6.6"
         style="fill:#894430;fill-opacity:1;fill-rule:nonzero;stroke:none"
         id="path404" /><path
         d="m 36942.6,20587.2 -53,62 c -14.4,22.7 -38.6,37.4 -65.4,39.8 l -108.1,9.5 c 97.1,24 174.5,43.8 218.9,56.5 l 7.6,-167.8"
         style="fill:#894430;fill-opacity:1;fill-rule:nonzero;stroke:none"
         id="path406" /><path
         d="m 36937,20591.1 -29.4,215.5 c -1.3,28.5 19.5,54.4 48,56.6 l 73.6,70.4 -20,-138.7 -45,-207.5 c -4.8,-14.7 -26.5,-11.7 -27.2,3.7"
         style="fill:#231f20;fill-opacity:1;fill-rule:nonzero;stroke:none"
         id="path408" /><path
         d="m 37752.3,21214.5 c -0.2,1.7 -0.4,3.5 -0.7,5.2 0.1,0.1 0.2,0.1 0.3,0.2 0.1,-1.8 0.3,-3.6 0.4,-5.4"
         style="fill:#d6a191;fill-opacity:1;fill-rule:nonzero;stroke:none"
         id="path410" /><path
         d="m 36286.5,19472 c 35.3,13.3 72.9,27.2 112.2,41.7 288.3,106.6 683.2,252.6 976.1,427.8 259,154.9 431.8,415 473.9,713.6 21.4,152.4 112.4,926.7 -207.1,1208.5 -105.2,92.8 -239.3,118 -398.2,74.8 -169.2,-47.9 -277.4,-181.8 -283.4,-349.7 -3.6,-46 -6.3,-100.5 -9.4,-163.6 -8.4,-171.1 -18.8,-381.8 -54.7,-559.8 -130.1,-46.7 -1455,-345 -1490.5,-358.1 l 41.5,-112.6 c 33.1,12.2 1461.7,341.2 1527.2,373 16.5,8 28.4,23 32.4,40.9 43.4,194 54.8,425 64,610.7 3.1,62.7 5.7,116.9 9.3,161.3 0,1 0.1,1.9 0.1,2.9 5.4,167.6 138.6,223.2 195.5,239.3 118.7,32.3 212.7,16.3 286.9,-49.1 198.4,-175 227.1,-679.4 167.5,-1101.7 -37,-262.5 -188.8,-491.2 -416.6,-627.4 -283.4,-169.5 -672.2,-313.2 -956.1,-418.2 -39.5,-14.6 -77.2,-28.6 -112.7,-41.9 l 42.1,-112.4"
         style="fill:#231f20;fill-opacity:1;fill-rule:nonzero;stroke:none"
         id="path412" /><path
         d="m 36204.8,19501.2 -98,294.4 c -7.9,23.5 8.6,48.1 33.3,50 14.8,1 28.9,-6.6 36.1,-19.7 l 155.4,-282.6 -126.8,-42.1"
         style="fill:#231f20;fill-opacity:1;fill-rule:nonzero;stroke:none"
         id="path414" /><path
         d="m 33287,18008.7 c -234.2,-184.3 -757,-33.6 -1217.3,202 -63.4,32.5 -125.6,66.5 -185.6,101.4 -14,8.1 -27.6,16.7 -40.8,26 -4.1,2.9 -8.2,5.8 -12.2,8.7 -67.8,49.2 -125.3,111.5 -167.9,183.7 -201.3,341.3 -184.9,760.9 -26.1,1129.5 194.9,452.2 604,827.9 1088.3,888.6 l -209.2,-860.1 -81.4,-709.9 c 255.5,-148.1 524.6,-266.5 783.5,-385.8 247.7,-106.8 231.9,-418.7 68.7,-584.1"
         style="fill:#b55437;fill-opacity:1;fill-rule:nonzero;stroke:none"
         id="path416" /><path
         d="m 32758.9,18013.7 c -190.3,40.5 -416.6,125 -661.7,250.4 -61,31.2 -122.5,64.8 -182.8,99.9 -13.7,7.9 -25.5,15.5 -36.3,23.1 -3.9,2.7 -7.7,5.5 -11.6,8.3 -62.3,45.2 -113.3,100.9 -151.4,165.6 -150.5,255.1 -180,573.7 -87.2,895.7 -61.6,-287.5 -33.5,-586.7 117.5,-846.2 162,-240.6 618.8,-466.1 1014.8,-557.2 -2,-2 -3.4,-4.7 -3.5,-8 -0.3,-10.4 0.5,-20.9 2.2,-31.6 m 22.5,34.4 c -0.1,0.2 -0.3,0.4 -0.4,0.6 0.1,-0.1 0.2,-0.1 0.3,-0.1 0.1,-0.2 0.1,-0.3 0.1,-0.5"
         style="fill:#894430;fill-opacity:1;fill-rule:nonzero;stroke:none"
         id="path418" /><path
         d="m 32976.5,18599.4 c -184.2,84.5 -371,171.6 -552.1,272 -46,25.5 -85.5,61.4 -115.5,104.6 l -61.8,89.2 c 38.9,-22.5 82.5,-46.4 129.3,-70.9 l -1,-8.1 c -3,-24 8.6,-47.4 29.5,-59.5 191.7,-111.1 390.9,-205.7 586.4,-295.6 -8.2,-10.6 -14.2,-21.6 -14.8,-31.7"
         style="fill:#d6a191;fill-opacity:1;fill-rule:nonzero;stroke:none"
         id="path420" /><path
         d="m 32995.6,17866.4 c -73.6,0 -155,9 -244.2,27.1 -264.6,53.6 -531.5,173 -708.9,263.8 -62.9,32.2 -126.3,66.8 -188.4,102.9 -16.8,9.8 -31.5,19.2 -45.3,28.9 -4.3,3 -8.5,6.1 -12.8,9.2 -75.7,54.8 -137.7,122.7 -184.3,201.7 -198.1,335.9 -208.9,767.4 -29.6,1183.8 102.7,238.1 259,450.2 452.1,613.2 205.1,173.2 441.6,280.8 683.9,311.2 l 14.9,-119.1 c -432.2,-54.2 -840.7,-388.9 -1040.6,-852.8 -164.1,-380.8 -155.8,-772.8 22.7,-1075.3 38.1,-64.7 89.1,-120.4 151.4,-165.6 3.9,-2.8 7.7,-5.6 11.6,-8.3 10.8,-7.6 22.6,-15.2 36.3,-23.1 60.3,-35.1 121.8,-68.7 182.8,-99.9 526.9,-269.7 966.8,-350.1 1149.9,-210.5 76.9,79.8 115.1,201.5 95.1,304.1 -11.3,58 -46.1,136.3 -147.5,180 l -1.4,0.6 c -34.6,16 -69.5,32 -104.5,48 -226.3,103.6 -460.2,210.8 -683.9,340.4 -20.9,12.1 -32.5,35.5 -29.5,59.5 l 40.9,333.7 c 3,24.2 36.2,28.6 45.3,6 l 6.3,-40.1 28.6,-219.5 4.5,-44 c -0.9,-7 2.5,-13.8 8.6,-17.2 205.4,-115.7 420.6,-214.2 629.1,-309.7 34.9,-15.9 69.7,-31.8 104.2,-47.8 116.3,-50.3 193.3,-145.1 217.1,-266.9 27.9,-143.2 -23.2,-305.7 -130.1,-414.1 -1.8,-1.8 -3.6,-3.4 -5.6,-5 -80.6,-63.4 -190.7,-95.2 -328.7,-95.2"
         style="fill:#231f20;fill-opacity:1;fill-rule:nonzero;stroke:none"
         id="path422" /><path
         d="m 32378.7,19012.9 -143.5,58 60,13.7 c 26.3,6 48.2,23.9 59.4,48.4 l 53.1,116.1 -29,-236.2"
         style="fill:#894430;fill-opacity:1;fill-rule:nonzero;stroke:none"
         id="path424" /><path
         d="m 32439.5,18988.3 -60.8,24.6 29,236.2 8.3,18.2 23.5,-279"
         style="fill:#231f20;fill-opacity:1;fill-rule:nonzero;stroke:none"
         id="path426" /><path
         d="m 32240.8,19084.8 196.8,-59.7 c 27.3,-8.3 44.8,-36.6 37.3,-64.2 -7.8,-28.5 -37.4,-44.8 -65.5,-36.3 -6.2,1.9 -11.9,5 -16.8,8.7 l -164.4,127.1 c -12.2,9.5 -2.2,28.9 12.6,24.4"
         style="fill:#231f20;fill-opacity:1;fill-rule:nonzero;stroke:none"
         id="path428" /><path
         d="m 32786.1,18197.7 47.2,169 c 21.4,76.5 66.9,140 125.2,183.7 14.6,11 24.7,27.1 29.7,45.1 l 0.1,0.3 c 22.2,79.6 295.4,152.5 437.3,115.2 99.5,-26.2 67.7,-177.1 67.7,-177.1 99,-26.1 155.4,-132.3 126,-237.2 l -128,-457.9 c -19.6,-70 -89,-112.7 -155,-95.3 l -359.1,94.4 c -149.5,39.4 -235.5,201.2 -191.1,359.8"
         style="fill:#b55437;fill-opacity:1;fill-rule:nonzero;stroke:none"
         id="path430" /><path
         d="m 33462,18750.9 c -142.8,51.6 -312.1,8.7 -430.2,-80.1 -19.6,-15.9 -58.8,-50.6 -55.1,-76.6 1.1,-8.2 10.3,-12.7 17.4,-8.5 4.2,2.6 8.3,6.1 12.1,9.6 13.4,12.8 29.4,22.8 46.9,28.9 101.9,35.4 252.4,43.2 352.3,30.3 36.8,-4.8 37,-64.2 33.7,-97.6 -26.5,-111.3 126,-59.6 129.9,-200.1 11.4,-17.8 -125.7,-469.7 -131.5,-500.5 -7.9,-39.5 -52.6,-82.5 -93.7,-72.4 -80.4,25.8 -350.3,96.5 -425,121.4 -31.7,13.9 -61.4,37.3 -84.8,64.1 -9.8,11.2 -17.9,23.8 -24.1,37.3 -4.2,9.2 -19.3,31.9 -32.9,46.5 -7.2,7.6 -20,2.6 -20.3,-7.9 -3.8,-116 132.6,-255.8 245,-275.5 66.6,-7.9 333.5,-107.5 397.6,-85.4 64.2,12.7 120.4,64.9 139.8,127.9 l 128.3,457.5 c 2,6.7 4.1,16.1 6.2,25.1 23.4,106.1 -25.8,222 -123.6,270.4 3.5,73.6 -14.8,150.2 -88,185.6"
         style="fill:#231f20;fill-opacity:1;fill-rule:nonzero;stroke:none"
         id="path432" /><path
         d="m 33306,18273.8 c 243.7,-64.1 462.7,-88.6 501.5,50.2 54.9,196.1 -254.4,235.4 -498.2,299.5 l -3.3,-349.7"
         style="fill:#b55437;fill-opacity:1;fill-rule:nonzero;stroke:none"
         id="path434" /><path
         d="m 33686.1,18259.2 c -31.5,24.8 -75.5,47.4 -136.1,65.3 -0.8,0.3 -2.8,0.8 -129.2,24.8 9.6,2.3 18.5,4 21.9,4 0.3,0 0.6,0 0.8,0 116.3,-17.6 189.5,-57.3 235.9,-57.3 28.3,0 46.6,14.7 58.7,58 12.1,43 2.8,75.6 -20.8,101.5 21.7,-15.6 38.3,-32.4 48.3,-50.8 11,-20.4 15.7,-38.1 7.3,-68.3 -12.2,-43.6 -43.3,-67.2 -86.8,-77.2"
         style="fill:#894430;fill-opacity:1;fill-rule:nonzero;stroke:none"
         id="path436" /><path
         d="m 33312.7,18614.5 c 11.3,-19.4 62.5,-35.6 81.2,-40.2 159.6,-39.2 328.6,-90 371.7,-169.6 11,-20.4 15.7,-38.1 7.3,-68.3 -32.7,-116.9 -201.1,-89.9 -378.2,-43.3 -22.8,6 -29.3,-17 -33.1,-30.7 -3.5,-12.5 -2.9,-23.9 1.8,-32 3.5,-6.2 9.4,-10.5 16.9,-12.4 152.1,-40 189,-39.4 269.9,-37.9 104.1,1.8 167.1,46.9 192.5,137.8 4.8,17.3 7.3,33.6 7.3,49.3 0,26.3 -6.8,51.1 -20.7,76.7 -51.2,94.6 -196.7,140.6 -350.2,179.6 -10.1,2.6 -26.9,6.2 -42.2,9.5 -22.8,4.8 -46.1,5.7 -69.2,2.7 -18.6,-2.5 -40.2,-6.3 -50.7,-8.2 -3.9,-0.7 -6.7,-9 -4.3,-13"
         style="fill:#231f20;fill-opacity:1;fill-rule:nonzero;stroke:none"
         id="path438" /><path
         d="m 33361.5,18344.7 c 5.1,-1.3 169.2,-47.5 174.1,-48.9 158.2,-45.7 202.3,-127 176.6,-219 -37.4,-133.7 -224.6,-102.1 -395.1,-57.2 l 44.4,325.1"
         style="fill:#b55437;fill-opacity:1;fill-rule:nonzero;stroke:none"
         id="path440" /><path
         d="m 33541,18011.4 c -0.8,0 -1.6,0 -2.4,0 37.9,13.8 65.7,39.8 77.8,83.1 15.1,54.1 6,104.5 -36.3,146.2 80.7,-36.3 111.7,-90 92,-160.1 -14.8,-53.2 -69.6,-69.2 -131.1,-69.2"
         style="fill:#894430;fill-opacity:1;fill-rule:nonzero;stroke:none"
         id="path442" /><path
         d="m 33343.9,18348.1 c -2.6,-8.9 1.6,-17.5 10.2,-20.9 168.2,-65.9 170.1,-66.4 170.7,-66.6 121.4,-35.1 171,-95.6 147.3,-180 -32,-114.5 -248.8,-56.7 -320,-37.7 -16.5,4.4 -33.8,-6.1 -38.6,-23.5 l -3.9,-13.7 c -2.1,-7.7 -1.1,-16 2.8,-22.8 3.7,-6.4 9.6,-10.9 16.7,-12.6 257,-64.3 387.4,-36.8 422.6,89.2 4.6,16.4 8.1,35.8 8.1,56.8 0,70.1 -39.3,157.9 -209.8,208.2 -0.9,0.3 -3.3,1 -186.4,35.7 -9.1,1.7 -17.2,-3.3 -19.7,-12.1"
         style="fill:#231f20;fill-opacity:1;fill-rule:nonzero;stroke:none"
         id="path444" /><path
         d="m 33285.6,18058.3 c 43.4,-10.7 149.3,-39.8 185.5,-59.4 77.1,-41.7 127.5,-107.4 110.7,-163.4 -18.6,-62.4 -92.3,-123.1 -228,-89.6 l -68.2,312.4"
         style="fill:#b55437;fill-opacity:1;fill-rule:nonzero;stroke:none"
         id="path446" /><path
         d="m 33503.7,17748 c 1.3,1.6 2.6,3.2 3.9,4.8 40.2,18.5 64.6,50.4 74.2,82.7 7.5,25.1 1.5,52.2 -14.3,78.1 l 5,17.8 c 23.2,-29.4 29.5,-63.8 18.2,-101.7 -9.7,-32.3 -40.6,-63.6 -87,-81.7"
         style="fill:#966253;fill-opacity:1;fill-rule:nonzero;stroke:none"
         id="path448" /><path
         d="m 33415.2,17732.3 c -23.8,0 -49.5,3 -76.8,9.7 l 4.5,14.7 c 2.9,0.2 5.6,0.5 8.4,0.9 l 2.5,-11.7 c 26.7,-6.6 51,-9.5 73,-9.5 31.8,0 58.7,6.2 80.8,16.4 -1.3,-1.6 -2.6,-3.2 -3.9,-4.8 -25.2,-9.8 -55,-15.7 -88.5,-15.7 m 152.3,181.3 c -4.8,7.9 -10.5,15.6 -17,23.2 0.4,0 0.7,0 1.1,0 5.5,0 10.9,0.1 16.2,0.3 1.6,-1.9 3.2,-3.8 4.7,-5.7 l -5,-17.8"
         style="fill:#231f20;fill-opacity:1;fill-rule:nonzero;stroke:none"
         id="path450" /><path
         d="m 33551.6,17936.8 c -0.4,0 -0.7,0 -1.1,0 -17.3,20.2 -40.3,39.1 -67.1,55.1 37.3,-15 65.5,-33.5 84.4,-54.8 -5.3,-0.2 -10.7,-0.3 -16.2,-0.3"
         style="fill:#231f20;fill-opacity:1;fill-rule:nonzero;stroke:none"
         id="path452" /><path
         d="m 33426.8,17736.4 c -22,0 -46.3,2.9 -73,9.5 l -2.5,11.7 c 77.2,9.4 129.7,51.5 142.8,95.4 17.9,60 -8.2,111.3 -76.2,147.7 l 3.4,10.9 c 22.9,-5.7 43.6,-12.2 62.1,-19.7 26.8,-16 49.8,-34.9 67.1,-55.1 6.5,-7.6 12.2,-15.3 17,-23.2 15.8,-25.9 21.8,-53 14.3,-78.1 -9.6,-32.3 -34,-64.2 -74.2,-82.7 -22.1,-10.2 -49,-16.4 -80.8,-16.4"
         style="fill:#894430;fill-opacity:1;fill-rule:nonzero;stroke:none"
         id="path454" /><path
         d="m 33244.5,18072.4 c -6.9,-7.5 -3,-19 -1.3,-23.7 15.5,-27.2 150,-87.7 164.2,-91.2 39.3,-9.7 108.6,-32.1 132.1,-73.1 12,-29.6 9.5,-55.8 -7.2,-75.9 -30,-35.9 -96.3,-45.5 -177.8,-28.4 l -8.9,3.4 c 0,0 -57.2,-51.1 -52.6,-67.3 4,-14.2 15.2,-24.2 31.6,-28.3 109.4,-27 210.1,-5.3 269.1,57.9 29.7,31.8 45.5,71 45.5,110.5 0,15.2 -2.4,30.4 -7.1,45.3 -13.3,41.2 -56.8,114.6 -200.1,143.5 l -17.3,4.1 c -110.8,26.8 -156.7,37.9 -170.2,23.2"
         style="fill:#231f20;fill-opacity:1;fill-rule:nonzero;stroke:none"
         id="path456" /><path
         d="m 36013.5,22567.1 c 0,-538.3 436.4,-974.7 974.7,-974.7 538.3,0 974.7,436.4 974.7,974.7 0,538.3 -436.4,974.7 -974.7,974.7 -538.3,0 -974.7,-436.4 -974.7,-974.7"
         style="fill:#b55437;fill-opacity:1;fill-rule:nonzero;stroke:none"
         id="path458" /><path
         d="m 37900.7,22630.7 c -88.9,392.6 -417.2,704.4 -839.8,752.7 -20.3,2.4 -40.5,4 -60.6,5.1 20.6,30.5 39.5,60.4 48.2,91.3 455.3,-29.7 820.9,-394.2 852.2,-849.1"
         style="fill:#deb2a5;fill-opacity:1;fill-rule:nonzero;stroke:none"
         id="path460" /><path
         d="m 36133.1,22423.4 c 0,-389 315.4,-704.3 704.4,-704.3 389,0 704.3,315.3 704.3,704.3 0,389 -315.3,704.3 -704.3,704.3 -389,0 -704.4,-315.3 -704.4,-704.3"
         style="fill:#e0ae77;fill-opacity:1;fill-rule:nonzero;stroke:none"
         id="path462" /><path
         d="m 37490.1,22275.5 c -2.4,104.5 -16.1,200 -41.4,289.7 -14,49.2 -48.9,137.3 -126,173.8 -22.1,10.4 -46.2,15.7 -71,15.7 -5.5,0 -11,-0.3 -16.5,-0.8 -104.1,121.9 -249,207.8 -413.6,236.6 38.9,20.2 56.5,56.9 67.5,100 344.9,-26.4 617.5,-315.5 617.5,-667.1 0,-50.8 -5.7,-100.3 -16.5,-147.9 m -854.3,722.7 c -1.3,2.7 -2.6,5.5 -3.9,8.2 6.4,-2.5 12.6,-4.8 18.7,-7 -5,-0.4 -9.9,-0.8 -14.8,-1.2"
         style="fill:#9e7c59;fill-opacity:1;fill-rule:nonzero;stroke:none"
         id="path464" /><path
         d="m 36837.5,23092.5 c 368.9,0 669.1,-300.2 669.1,-669.1 0,-369 -300.2,-669.1 -669.1,-669.1 -369,0 -669.2,300.1 -669.2,669.1 0,368.9 300.2,669.1 669.2,669.1 m 0,-1408.6 c 407.7,0 739.5,331.7 739.5,739.5 0,407.7 -331.8,739.5 -739.5,739.5 -407.8,0 -739.5,-331.8 -739.5,-739.5 0,-407.8 331.7,-739.5 739.5,-739.5"
         style="fill:#231f20;fill-opacity:1;fill-rule:nonzero;stroke:none"
         id="path466" /><path
         d="m 36988.2,23481.8 c -504.4,0 -914.7,-410.3 -914.7,-914.7 0,-504.4 410.3,-914.7 914.7,-914.7 504.4,0 914.7,410.3 914.7,914.7 0,504.4 -410.3,914.7 -914.7,914.7 m 0,-1949.4 c -570.5,0 -1034.7,464.2 -1034.7,1034.7 0,570.5 464.2,1034.7 1034.7,1034.7 570.6,0 1034.7,-464.2 1034.7,-1034.7 0,-570.5 -464.1,-1034.7 -1034.7,-1034.7"
         style="fill:#231f20;fill-opacity:1;fill-rule:nonzero;stroke:none"
         id="path468" /><path
         d="m 32313,22567.1 c 0,-538.3 -436.4,-974.7 -974.7,-974.7 -538.3,0 -974.7,436.4 -974.7,974.7 0,538.3 436.4,974.7 974.7,974.7 538.3,0 974.7,-436.4 974.7,-974.7"
         style="fill:#b55437;fill-opacity:1;fill-rule:nonzero;stroke:none"
         id="path470" /><path
         d="m 30425.7,22630.6 c 32.7,474.9 429.5,851.2 912.6,851.2 192.6,0 371.5,-59.9 519,-161.9 -9,-14.1 -17.9,-28.3 -26.6,-42.5 -136.5,72.1 -291.1,112.4 -453.2,112.4 -36.9,0 -74.3,-2.1 -111.9,-6.4 -422.6,-48.3 -750.9,-360.2 -839.9,-752.8"
         style="fill:#deb2a5;fill-opacity:1;fill-rule:nonzero;stroke:none"
         id="path472" /><path
         d="m 32193.3,22423.4 c 0,-389 -315.3,-704.3 -704.3,-704.3 -389,0 -704.3,315.3 -704.3,704.3 0,389 315.3,704.3 704.3,704.3 389,0 704.3,-315.3 704.3,-704.3"
         style="fill:#e0ae77;fill-opacity:1;fill-rule:nonzero;stroke:none"
         id="path474" /><path
         d="m 31010.7,21955.9 c -118,120.7 -190.8,285.7 -190.8,467.5 0,368.9 300.1,669.1 669.1,669.1 76.5,0 150,-12.9 218.6,-36.6 -9.4,-18.9 -18.6,-37.9 -27.5,-56.8 -17.5,1.3 -35.2,1.9 -53,1.9 -389,0 -704.3,-315.3 -704.3,-704.3 0,-123.7 31.9,-239.9 87.9,-340.8"
         style="fill:#9e7c59;fill-opacity:1;fill-rule:nonzero;stroke:none"
         id="path476" /><path
         d="m 31489,23092.5 c -369,0 -669.1,-300.2 -669.1,-669.1 0,-369 300.1,-669.1 669.1,-669.1 369,0 669.2,300.1 669.2,669.1 0,368.9 -300.2,669.1 -669.2,669.1 m 0,-1408.6 c -407.8,0 -739.5,331.7 -739.5,739.5 0,407.7 331.7,739.5 739.5,739.5 407.8,0 739.5,-331.8 739.5,-739.5 0,-407.8 -331.7,-739.5 -739.5,-739.5"
         style="fill:#231f20;fill-opacity:1;fill-rule:nonzero;stroke:none"
         id="path478" /><path
         d="m 31338.3,23481.8 c 504.3,0 914.7,-410.3 914.7,-914.7 0,-504.4 -410.4,-914.7 -914.7,-914.7 -504.4,0 -914.7,410.3 -914.7,914.7 0,504.4 410.3,914.7 914.7,914.7 m 0,-1949.4 c 570.5,0 1034.7,464.2 1034.7,1034.7 0,570.5 -464.2,1034.7 -1034.7,1034.7 -570.6,0 -1034.7,-464.2 -1034.7,-1034.7 0,-570.5 464.1,-1034.7 1034.7,-1034.7"
         style="fill:#231f20;fill-opacity:1;fill-rule:nonzero;stroke:none"
         id="path480" /><path
         d="m 36810.6,22000.8 c 0,901.4 -622.4,1848.8 -1521.8,2303.3 -87.1,44 -137.9,134.9 -137.2,232.4 -0.8,142.7 121.3,443.8 -42.5,443.9 -143.5,0 -458.5,-231.6 -532.5,-384.4 -14.3,-29.7 -47.3,-45.7 -79.8,-40.7 -145.9,19.8 14.5,280.1 -127,273.5 -86,0 -250.9,-106.3 -349.5,-209.9 -28.1,-29.5 -65.6,-48.1 -106.1,-52.2 -1350.7,-137 -2408.8,-1390.5 -2408.8,-2565.9 82.2,-1237.3 609.9,-1458.1 2046.1,-1650.8 402.4,-54 810.1,-53.9 1212.6,0.1 1436.8,193 1963.6,412.9 2046.5,1650.7"
         style="fill:#b55437;fill-opacity:1;fill-rule:nonzero;stroke:none"
         id="path482" /><path
         d="m 34157.4,20369.6 c -199.8,0 -399.6,13.3 -597.9,39.9 -1274.5,171 -1777.2,368.2 -1940.5,1168 227.9,-678.1 795.5,-848.1 1932.5,-1000.7 201.1,-26.9 403.6,-40.4 606,-40.4 202.6,0 405.3,13.5 606.6,40.5 1137.3,152.8 1704.5,322.4 1932.6,1000.3 -163.8,-799.2 -666.6,-996.5 -1940.6,-1167.6 -198.7,-26.7 -398.7,-40 -598.7,-40"
         style="fill:#82422f;fill-opacity:1;fill-rule:nonzero;stroke:none"
         id="path484" /><path
         d="m 36676.7,22543 c -82.2,230.4 -200,454 -347.5,661.1 34,-35.3 73.7,-68.9 118.4,-99.7 99.9,-180.4 177.4,-369.4 229.1,-561.4 m -1388.6,1561.3 c -86.6,44.1 -137.2,134.8 -136.5,232.1 v 1.6 c 0,2.2 0,4.4 0.1,6.7 28.2,-39.2 65.5,-71.6 110,-94.1 18.2,-9.2 36.3,-18.6 54.3,-28.2 -2.8,-11.8 -5.3,-23.8 -7.8,-36 -5.6,-27.1 -11.4,-54.8 -20.1,-82.1"
         style="fill:#deb2a5;fill-opacity:1;fill-rule:nonzero;stroke:none"
         id="path486" /><path
         d="m 31633.1,22525.4 c 257.5,1003.6 1216.2,1873 2287.2,1981.6 54.5,5.6 105.5,30.6 143.5,70.5 100.8,106 249.9,191.3 306,191.3 0.9,0 1.9,0 2.8,0.1 h 0.1 c 2.1,-14.6 0.3,-42.9 -0.8,-61.1 -1.4,-22.1 -3.2,-50.4 -0.5,-79.2 -0.5,0 -1.1,0.1 -1.6,0.1 -86,0 -250.9,-106.4 -349.5,-210 -28.1,-29.5 -65.6,-48 -106.1,-52.1 -1072.9,-108.9 -1961.1,-922.2 -2281.1,-1841.2 m 2875.7,1828.9 c -3.6,0 -7.2,0.2 -10.8,0.7 l -1.2,0.2 c -45.5,6.3 -76.6,48.9 -69.1,94.2 3.6,21.7 6.6,43.1 8.1,63.1 14.3,-7.9 31.5,-13.7 52.4,-16.5 6.8,-1.1 13.5,-1.6 20.3,-1.6 51.4,0 99.8,29.1 122.1,75.4 65,134.4 360.2,350.6 478.5,350.6 4.8,0 13.2,-0.4 15.9,-3.7 15.4,-18.5 10.4,-78.7 1.5,-137.7 -5.4,0.9 -11.2,1.3 -17.4,1.3 -143.5,0 -458.5,-231.6 -532.5,-384.5 -12.6,-26 -39.4,-41.5 -67.8,-41.5"
         style="fill:#deb2a5;fill-opacity:1;fill-rule:nonzero;stroke:none"
         id="path488" /><path
         d="m 36810.6,22000.8 h 0.1 -0.1 m -5245.2,2 c 77.7,-1162.2 518.8,-1395.4 1994.1,-1593.3 396.9,-53.3 799.5,-53.3 1196.6,0.1 1475,198.1 1916.2,431.3 1994.5,1593.2 -0.9,881.1 -612.9,1805.1 -1488.9,2247.8 -105.8,53.4 -171,163.2 -170.1,286.4 -0.3,46.1 10.2,102.8 21.2,162.8 13.1,70.9 35,189.5 12.2,216.9 -2.7,3.3 -11.1,3.7 -15.9,3.7 -118.3,0 -413.5,-216.2 -478.5,-350.6 -25.3,-52.4 -83.8,-82.7 -142.4,-73.8 -128.5,17.7 -120.6,144 -116.3,211.8 1.1,18.2 2.9,46.5 0.8,61.1 h -0.1 c -0.9,-0.1 -1.9,-0.1 -2.8,-0.1 -56.1,0 -205.2,-85.3 -306,-191.3 -38,-39.9 -89,-64.9 -143.5,-70.5 -1253.8,-127.1 -2353.7,-1297.1 -2354.9,-2504.2 m 2591.9,-1753.2 c -205.1,0 -410.1,13.6 -613.8,40.9 -735.2,98.7 -1225.9,203.1 -1558.1,444.6 -335.9,244.3 -497.4,621.6 -539.9,1261.7 -0.1,1.3 -0.1,2.6 -0.1,4 0,588.9 260,1213.1 713.4,1712.7 474.2,522.4 1095.5,846.6 1749.3,912.9 26.1,2.7 50.5,14.7 68.7,33.8 104.2,109.5 283.1,227.6 391.6,228.6 46.8,1.9 74.9,-16.4 90.4,-32.1 40.1,-40.8 36.3,-102.2 32.9,-156.4 -1.5,-22.2 -4.7,-74.1 4,-83 0,0 2.2,-1.6 9.1,-2.5 l 1.2,-0.2 c 6.8,-1 14,2.1 16.6,7.4 39.1,81 135.9,182.7 258.9,272.1 60.6,44 213.7,146.4 327.6,146.4 57.1,-0.1 90.3,-25.6 108.1,-47 58.8,-70.7 35.8,-195.1 13.7,-315.5 -10.1,-54.3 -19.5,-105.5 -19.3,-141.1 -0.6,-78.1 39.4,-146.5 104.2,-179.2 915.5,-462.6 1554.8,-1431.8 1554.8,-2356.9 0,-1.4 0,-2.7 -0.1,-4 -42.9,-640.3 -204.4,-1017.6 -540.2,-1261.7 -331.9,-241.2 -822.7,-345.6 -1558.3,-444.4 -203.9,-27.4 -409.3,-41.1 -614.7,-41.1"
         style="fill:#231f20;fill-opacity:1;fill-rule:nonzero;stroke:none"
         id="path490" /><path
         d="m 36128.5,22631.3 c 0,527.6 -615.2,955.2 -1374.1,955.2 -187.6,0 -366.5,-26.1 -529.4,-73.4 -43.7,-12.7 -90.4,-12.7 -134,0 -163,47.3 -341.8,73.4 -529.4,73.4 -758.9,0 -1374.1,-427.6 -1374.1,-955.2 0,-295.4 192.8,-559.5 495.7,-734.7 63.4,-36.6 100.8,-100.2 100.7,-168.7 v -1.1 c 0,-527.6 615.2,-955.3 1374.1,-955.3 758.9,0 1374.1,427.7 1374.1,955.3 v 1.1 c -0.1,68.5 37.3,132.1 100.6,168.7 303,175.2 495.8,439.3 495.8,734.7"
         style="fill:#e0ae77;fill-opacity:1;fill-rule:nonzero;stroke:none"
         id="path492" /><path
         d="m 33561.6,23551.4 c -738.3,0 -1338.9,-412.8 -1338.9,-920.1 0,-271.8 174.3,-528.4 478.2,-704.2 74.1,-42.9 118.3,-117.4 118.2,-199.2 0,-508.4 600.6,-921.2 1338.9,-921.2 738.3,0 1338.9,412.8 1338.9,920.1 -0.1,82.9 44.1,157.4 118.2,200.3 303.9,175.8 478.2,432.4 478.2,704.2 0,507.3 -600.6,920.1 -1338.9,920.1 -180.1,0 -354.9,-24.3 -519.6,-72.1 -50.2,-14.6 -103.4,-14.6 -153.6,0 -164.7,47.8 -339.5,72.1 -519.6,72.1 m 596.4,-2815.1 c -777.1,0 -1409.3,444.3 -1409.3,990.5 0.1,57.6 -31,109.2 -83.1,139.4 -326.2,188.7 -513.3,467.5 -513.3,765.1 0,546.1 632.2,990.4 1409.3,990.4 186.8,0 368.2,-25.1 539.2,-74.8 37.4,-10.9 77,-10.9 114.4,0 171,49.7 352.4,74.8 539.2,74.8 777.1,0 1409.3,-444.3 1409.3,-990.4 0,-297.6 -187.1,-576.4 -513.3,-765.1 -52.1,-30.2 -83.2,-81.8 -83.1,-138.2 0,-547.4 -632.2,-991.7 -1409.3,-991.7"
         style="fill:#231f20;fill-opacity:1;fill-rule:nonzero;stroke:none"
         id="path494" /><path
         d="m 32777.5,23025 c 8.1,-1.2 16.3,-0.5 24.2,1.7 85.3,24.2 201.3,37.2 327.3,26.2 124.1,-10.9 234.5,-42.9 314,-80.8 7.8,-3.7 16.2,-5.8 24.8,-5.8 62.4,0.2 100.6,10.1 103.2,38.9 5.9,67.7 -190.2,177.1 -442,199.1 -251.8,22.1 -463.9,-51.7 -469.8,-119.3 -2.8,-32.3 42.6,-49 118.3,-60"
         style="fill:#231f20;fill-opacity:1;fill-rule:nonzero;stroke:none"
         id="path496" /><path
         d="m 35549,23025 c -8.1,-1.2 -16.3,-0.5 -24.2,1.7 -85.3,24.2 -201.3,37.2 -327.3,26.2 -124.1,-10.9 -234.5,-42.9 -314,-80.8 -7.8,-3.7 -16.2,-5.8 -24.8,-5.8 -62.4,0.2 -100.7,10.1 -103.2,38.9 -5.9,67.7 190.2,177.1 442,199.1 251.7,22.1 463.8,-51.7 469.8,-119.3 2.8,-32.3 -42.7,-49 -118.3,-60"
         style="fill:#231f20;fill-opacity:1;fill-rule:nonzero;stroke:none"
         id="path498" /><path
         d="m 32649.1,22383.5 c 0,-289.7 234.9,-524.6 524.6,-524.6 289.7,0 524.6,234.9 524.6,524.6 0,289.7 -234.9,524.6 -524.6,524.6 -289.7,0 -524.6,-234.9 -524.6,-524.6"
         style="fill:#f4f9f9;fill-opacity:1;fill-rule:nonzero;stroke:none"
         id="path500" /><path
         d="m 32894.4,22627.1 c -46.9,-9.5 -95.1,-11.7 -142.1,-5.5 -46.8,6 -92.8,21.6 -132.5,47.5 -39.1,26 -72.9,65.7 -81.7,112.2 -4.5,23.7 -3.1,46.3 2,67.6 2.4,10.2 17.4,8.6 18.2,-1.9 1.6,-19.6 6.4,-38.1 15.3,-53.6 16.9,-30.3 47.3,-48 79.2,-57 32.4,-8.5 66.8,-8.9 99.7,-2.4 32.3,6.2 63,17.9 91.2,33.7 34.1,19.2 78.8,11.3 101.6,-20.5 26.7,-37.4 14.8,-88.6 -24.1,-110.8 -7.2,-4.1 -14.7,-6.9 -22.4,-8.4 l -4.4,-0.9"
         style="fill:#231f20;fill-opacity:1;fill-rule:nonzero;stroke:none"
         id="path502" /><path
         d="m 32887.5,22429.4 c -46.9,-9.5 -95.1,-11.7 -142.1,-5.5 -46.8,6 -92.8,21.6 -132.5,47.5 -39.1,26 -72.9,65.7 -81.7,112.2 -4.5,23.6 -3.1,46.3 2,67.5 2.4,10.3 17.3,8.7 18.2,-1.8 1.6,-19.6 6.4,-38.1 15.3,-53.6 16.9,-30.3 47.3,-48 79.2,-57 32.4,-8.5 66.8,-8.9 99.7,-2.4 32.3,6.2 63,17.9 91.2,33.7 34.1,19.1 78.8,11.3 101.5,-20.5 26.8,-37.4 14.9,-88.6 -24,-110.8 -7.2,-4.1 -14.7,-6.9 -22.4,-8.5 l -4.4,-0.8"
         style="fill:#231f20;fill-opacity:1;fill-rule:nonzero;stroke:none"
         id="path504" /><path
         d="m 33173.7,21889.7 c -272.3,0 -493.8,221.5 -493.8,493.8 0,272.3 221.5,493.8 493.8,493.8 272.3,0 493.8,-221.5 493.8,-493.8 0,-272.3 -221.5,-493.8 -493.8,-493.8"
         style="fill:#231f20;fill-opacity:1;fill-rule:nonzero;stroke:none"
         id="path506" /><path
         d="m 32840.6,22564.9 c 0,-76.4 61.9,-138.3 138.3,-138.3 76.3,0 138.2,61.9 138.2,138.3 0,76.3 -61.9,138.2 -138.2,138.2 -76.4,0 -138.3,-61.9 -138.3,-138.2"
         style="fill:#ffffff;fill-opacity:1;fill-rule:nonzero;stroke:none"
         id="path508" /><path
         d="m 35677.4,22383.5 c 0,-289.7 -234.9,-524.6 -524.6,-524.6 -289.7,0 -524.6,234.9 -524.6,524.6 0,289.7 234.9,524.6 524.6,524.6 289.7,0 524.6,-234.9 524.6,-524.6"
         style="fill:#f4f9f9;fill-opacity:1;fill-rule:nonzero;stroke:none"
         id="path510" /><path
         d="m 35432.1,22627.1 c 46.9,-9.5 95.1,-11.7 142.1,-5.5 46.8,6 92.8,21.6 132.5,47.5 39.1,26 72.9,65.7 81.7,112.2 4.5,23.7 3,46.3 -2,67.6 -2.4,10.2 -17.4,8.6 -18.2,-1.9 -1.6,-19.6 -6.4,-38.1 -15.3,-53.6 -16.9,-30.3 -47.3,-48 -79.2,-57 -32.4,-8.5 -66.8,-8.9 -99.8,-2.4 -32.2,6.2 -62.9,17.9 -91.1,33.7 -34.1,19.2 -78.8,11.3 -101.6,-20.5 -26.7,-37.4 -14.8,-88.6 24.1,-110.8 7.1,-4.1 14.7,-6.9 22.4,-8.4 l 4.4,-0.9"
         style="fill:#231f20;fill-opacity:1;fill-rule:nonzero;stroke:none"
         id="path512" /><path
         d="m 35439,22429.4 c 46.9,-9.5 95.1,-11.7 142.1,-5.5 46.8,6 92.8,21.6 132.5,47.5 39.1,26 72.9,65.7 81.7,112.2 4.5,23.6 3,46.3 -2,67.5 -2.4,10.3 -17.4,8.7 -18.2,-1.8 -1.6,-19.6 -6.4,-38.1 -15.3,-53.6 -16.9,-30.3 -47.3,-48 -79.2,-57 -32.4,-8.5 -66.8,-8.9 -99.8,-2.4 -32.2,6.2 -62.9,17.9 -91.1,33.7 -34.1,19.1 -78.8,11.3 -101.6,-20.5 -26.7,-37.4 -14.8,-88.6 24.1,-110.8 7.1,-4.1 14.7,-6.9 22.4,-8.5 l 4.4,-0.8"
         style="fill:#231f20;fill-opacity:1;fill-rule:nonzero;stroke:none"
         id="path514" /><path
         d="m 35152.8,21889.7 c 272.3,0 493.8,221.5 493.8,493.8 0,272.3 -221.5,493.8 -493.8,493.8 -272.3,0 -493.8,-221.5 -493.8,-493.8 0,-272.3 221.5,-493.8 493.8,-493.8"
         style="fill:#231f20;fill-opacity:1;fill-rule:nonzero;stroke:none"
         id="path516" /><path
         d="m 35081.2,22564.9 c 0,-76.4 -61.9,-138.3 -138.2,-138.3 -76.4,0 -138.3,61.9 -138.3,138.3 0,76.3 61.9,138.2 138.3,138.2 76.3,0 138.2,-61.9 138.2,-138.2"
         style="fill:#ffffff;fill-opacity:1;fill-rule:nonzero;stroke:none"
         id="path518" /><path
         d="m 34737.2,21467.6 c 0.1,24.6 -19.6,44.6 -44.1,44.8 h -0.3 c -24.4,0 -44.4,-19.8 -44.5,-44.3 -0.1,-18 -3.3,-41.6 -23.3,-63.4 -10,-11.2 -24.4,-21.8 -44.9,-31.2 -53.4,-24.5 -120.1,-27.9 -155.8,-27.7 -59.1,0.3 -115.4,22.7 -158.5,63.1 -40.5,38.1 -63.5,87.6 -63.3,135.8 v 0.2 0.3 c 0,1.3 -0.3,2.5 -0.4,3.7 -0.1,1.6 -0.2,3.4 -0.5,5 -0.3,1.4 -0.8,2.6 -1.2,3.9 l -0.1,0.3 c -0.4,1.3 -0.7,2.8 -1.3,4.1 -0.6,1.3 -1.3,2.5 -2,3.7 -0.7,1.2 -1.3,2.6 -2.2,3.8 -0.6,1.2 -1.6,2.2 -2.5,3.3 -1,1.2 -1.8,2.4 -2.8,3.3 -1,1 -2.2,1.8 -3.2,2.7 -1.1,0.9 -2.2,2 -3.4,2.8 -1.1,0.8 -2.5,1.4 -3.7,2 -1.2,0.6 -2.4,1.5 -3.8,2 -1.4,0.6 -2.9,0.9 -4.3,1.4 -1.3,0.4 -2.6,1 -4,1.3 -1.6,0.3 -3.2,0.3 -4.8,0.5 -1.3,0.1 -2.6,0.4 -4,0.4 h -0.3 -0.2 c -1.4,0 -2.8,-0.3 -4.2,-0.4 -1.5,-0.2 -3.1,-0.2 -4.6,-0.5 -1.5,-0.3 -2.9,-0.9 -4.2,-1.4 -1.4,-0.4 -2.8,-0.7 -4.1,-1.3 -1.5,-0.6 -2.8,-1.4 -4.2,-2.1 -1,-0.6 -2.3,-1.2 -3.4,-1.9 -1.3,-0.9 -2.4,-2 -3.6,-3 -1,-0.8 -2,-1.6 -2.9,-2.5 -1.1,-1 -2,-2.3 -3,-3.5 -0.8,-1 -1.7,-2 -2.5,-3.1 -0.8,-1.2 -1.4,-2.6 -2.1,-3.9 -0.6,-1.2 -1.4,-2.3 -1.9,-3.6 -0.6,-1.3 -0.9,-2.8 -1.4,-4.1 l -0.1,-0.3 c -0.3,-1.3 -0.9,-2.6 -1.1,-3.9 -0.4,-1.6 -0.4,-3.4 -0.6,-5 -0.1,-1.2 -0.4,-2.4 -0.4,-3.7 v -0.3 -0.2 c 0.3,-48.2 -22.8,-97.7 -63.3,-135.8 -43.1,-40.4 -99.3,-62.8 -158.5,-63.1 -35.3,-0.3 -102.4,3.2 -155.7,27.7 -20.5,9.4 -34.8,20 -45,31.1 -20,21.9 -23.2,45.5 -23.3,63.5 -0.1,24.6 -19.9,44.2 -44.7,44.3 -24.5,-0.2 -44.4,-20.2 -44.2,-44.8 0.3,-59.9 24.5,-109.3 70.7,-145.3 -4.2,-16.6 -6.3,-34.1 -6.3,-52.4 0,-189.5 230.5,-397.5 514.8,-397.5 284.4,0 514.9,208 514.9,397.5 0,18.3 -2.2,35.8 -6.3,52.4 46.1,36 70.3,85.4 70.6,145.3"
         style="fill:#231f20;fill-opacity:1;fill-rule:nonzero;stroke:none"
         id="path520" /><path
         d="m 34339.2,21049 c 0,72.8 -81.1,118 -181.2,118 -100,0 -181.1,-37.8 -181.1,-110.6 0,-72.7 81.1,-113.2 181.1,-113.2 100.1,0 181.2,33.1 181.2,105.8"
         style="fill:#ed1c24;fill-opacity:1;fill-rule:nonzero;stroke:none"
         id="path522" /><path
         d="m 34158,21062.5 c -37.5,0 -67.9,16.7 -67.9,39.3 0,22.6 30.4,42.2 67.9,42.2 37.5,0 68,-21.9 68,-44.5 0,-22.5 -30.5,-37 -68,-37"
         style="fill:#f68e92;fill-opacity:1;fill-rule:nonzero;stroke:none"
         id="path524" /><path
         d="m 34485.2,21907.8 c 0,-110.8 -146.5,-299.1 -327.2,-299.1 -180.7,0 -327.3,188.3 -327.3,299.1 0,110.7 146.6,102 327.3,102 180.7,0 327.2,8.7 327.2,-102"
         style="fill:#3c2415;fill-opacity:1;fill-rule:nonzero;stroke:none"
         id="path526" /><path
         d="m 34087.5,21974.8 c -94.9,0 -179.8,-2.8 -209.4,-32.3 -5.2,-5.2 -12.2,-14.5 -12.2,-34.7 0,-88 126.3,-263.9 292.1,-263.9 165.8,0 292,175.9 292,263.9 0,20.2 -6.9,29.5 -12.1,34.7 -33,32.9 -134.9,32.6 -242.8,32.2 l -37.1,-0.1 -37.1,0.1 c -11.2,0.1 -22.4,0.1 -33.4,0.1 z m 70.5,-401.3 c -200.1,0 -362.4,202.3 -362.4,334.3 0,34.4 11,62.8 32.8,84.5 53.7,53.6 159.1,53.3 292.8,52.8 l 36.8,-0.1 36.8,0.1 c 133.5,0.4 239,0.8 292.8,-52.8 21.8,-21.7 32.8,-50.1 32.8,-84.5 0,-132 -162.3,-334.3 -362.4,-334.3"
         style="fill:#231f20;fill-opacity:1;fill-rule:nonzero;stroke:none"
         id="path528" /><path
         d="m 36577.1,23115.6 c -2.4,4.5 -4.7,8.9 -7.1,13.4 6.4,-3 12.9,-5.9 19.5,-8.9 -4.1,-1.4 -8.2,-2.9 -12.4,-4.5 m 325.9,44.4 c -10.8,1 -21.7,1.7 -32.7,2.2 10.2,27.1 15.7,58.3 21.3,90.3 7,39.5 14.3,80.4 30,119.3 2.5,6 5.1,12 7.9,17.8 6.5,0.2 13,0.2 19.5,0.2 17,0 34.1,-0.4 51.3,-1.3 -2.5,-3.7 -5.1,-7.5 -7.6,-11.2 -22.3,-32.9 -45.3,-66.8 -61.1,-105.7 -14.7,-36.4 -22,-74.5 -28.6,-111.6"
         style="fill:#904731;fill-opacity:1;fill-rule:nonzero;stroke:none"
         id="path530" /><path
         d="m 37000.3,23388.5 c -17.2,0.9 -34.3,1.3 -51.3,1.3 -6.5,0 -13,0 -19.5,-0.2 15,31.6 34.4,60.1 53.2,87.8 1,1.5 2,2.9 3,4.4 0.8,0 1.6,0 2.5,0 20.3,0 40.3,-0.7 60.3,-2 -8.7,-30.9 -27.6,-60.8 -48.2,-91.3"
         style="fill:#af8d84;fill-opacity:1;fill-rule:nonzero;stroke:none"
         id="path532" /><path
         d="m 36759.1,22976.3 c -30.2,0 -65.8,7.6 -108.5,23.1 16.1,1.1 32.4,1.6 48.8,1.6 41.7,0 82.5,-3.6 122.2,-10.5 -0.8,-0.4 -1.6,-0.9 -2.4,-1.3 -17.5,-8.5 -37.2,-12.9 -60.1,-12.9"
         style="fill:#b18a61;fill-opacity:1;fill-rule:nonzero;stroke:none"
         id="path534" /><path
         d="m 36821.6,22990.5 c -39.7,6.9 -80.5,10.5 -122.2,10.5 -16.4,0 -32.7,-0.5 -48.8,-1.6 -6.1,2.2 -12.3,4.5 -18.7,7 -7.3,15.5 -14.8,30.8 -22.4,46.1 32.3,11.8 65.7,21.1 100,27.7 14.2,-2.5 27.4,-3.7 39.6,-3.7 22.9,0 42.6,4.3 60.1,12.9 1.8,0.9 3.5,1.8 5.2,2.7 7.7,0.3 15.4,0.4 23.1,0.4 17.4,0 34.6,-0.6 51.6,-2 -11,-43.1 -28.6,-79.8 -67.5,-100"
         style="fill:#7f654b;fill-opacity:1;fill-rule:nonzero;stroke:none"
         id="path536" /><path
         d="m 36609.5,23052.5 c -10.5,21.1 -21.3,42.2 -32.4,63.1 4.2,1.6 8.3,3.1 12.4,4.5 2.3,-0.9 4.5,-1.9 6.8,-2.9 v 0 c 2.2,-1 4.5,-1.9 6.7,-2.9 40.9,-17.3 76.1,-28.6 106.5,-34.1 -34.3,-6.6 -67.7,-15.9 -100,-27.7 m 279.6,38 c -17,1.4 -34.2,2 -51.6,2 -7.7,0 -15.4,-0.1 -23.1,-0.4 28.3,15.7 44.9,40.5 55.9,70.1 11,-0.5 21.9,-1.2 32.7,-2.2 -0.5,-2.5 -0.9,-5.1 -1.4,-7.7 -3.7,-21.2 -7.4,-42.2 -12.5,-61.8"
         style="fill:#231f20;fill-opacity:1;fill-rule:nonzero;stroke:none"
         id="path538" /><path
         d="m 37048.5,23479.8 c -20,1.3 -40,2 -60.3,2 -0.9,0 -1.7,0 -2.5,0 21.1,31.1 41.1,61.4 51.1,92.7 4.5,-7.7 8.1,-15.6 10.8,-23.8 8.1,-24.7 7.3,-48.1 0.9,-70.9"
         style="fill:#231f20;fill-opacity:1;fill-rule:nonzero;stroke:none"
         id="path540" /><path
         d="m 36329.2,23204.1 c -10.3,10.7 -20.1,21.5 -29.3,32.5 -13.4,15.9 -33,25.5 -53.6,25.5 -2.4,0 -4.9,-0.2 -7.4,-0.4 -7.9,-0.9 -15.8,-1.4 -23.8,-1.4 -28.6,0 -57.4,5.8 -85.3,17.6 l -282.4,119.6 c -35.6,15 -65.4,38.2 -87.6,67 -13.2,17.1 -33.9,26.6 -55.3,26.6 -1.7,0 -3.4,-0.1 -5.2,-0.2 -15,-1.1 -30.3,-1.6 -45.9,-1.6 -100.6,0 -212.7,22.3 -324.9,68.7 v 0.1 c -2.3,0.9 -4.6,1.8 -6.8,2.8 -95.4,40.4 -145.3,80.8 -161.4,130.7 -8.5,26.1 -6.5,50.8 1.6,74.8 23.4,-38.7 71.1,-72.1 149.8,-105.4 2.2,-0.9 4.5,-1.9 6.8,-2.8 v 0 c 112.3,-46.5 224.5,-68.9 325.2,-68.9 48.9,0 95,5.3 137.1,15.6 17.1,-29.4 42.1,-52.9 73.9,-66.3 l 282.4,-119.6 c 10.3,-4.4 20.8,-7.5 31.4,-9.4 56.8,-66.3 110.5,-135 160.7,-205.5"
         style="fill:#904731;fill-opacity:1;fill-rule:nonzero;stroke:none"
         id="path542" /><path
         d="m 36447.6,23104.4 c -44.7,30.8 -84.4,64.4 -118.4,99.7 -50.2,70.5 -103.9,139.2 -160.7,205.5 9.2,-1.7 18.4,-2.5 27.6,-2.5 13.4,0 26.8,1.7 40.1,5 25.6,-43.8 60.1,-86.7 102.1,-127 38.9,-59.1 75.4,-119.4 109.3,-180.7"
         style="fill:#af8d84;fill-opacity:1;fill-rule:nonzero;stroke:none"
         id="path544" /><path
         d="m 36631.9,23006.4 c -6.2,2.5 -12.4,5 -18.9,7.8 -2.2,0.9 -4.5,1.9 -6.7,2.8 v 0 c -57.9,25.1 -111.1,54.7 -158.7,87.4 -33.9,61.3 -70.4,121.6 -109.3,180.7 62,-59.6 140.5,-113.4 231.7,-156.1 2.4,-4.5 4.7,-8.9 7.1,-13.4 11.1,-20.9 21.9,-42 32.4,-63.1 7.6,-15.3 15.1,-30.6 22.4,-46.1"
         style="fill:#231f20;fill-opacity:1;fill-rule:nonzero;stroke:none"
         id="path546" /><path
         d="m 35335.1,23698.5 c 271.9,-112.6 550,-73.6 621.1,87.2 71.1,160.8 -91.7,382.5 -363.7,495.1 -271.9,112.6 -204.2,-69.7 -275.3,-230.5 -71.1,-160.8 -254,-239.2 17.9,-351.8"
         style="fill:#ff7878;fill-opacity:1;fill-rule:nonzero;stroke:none"
         id="path548" /><path
         d="m 35638,23678.8 c -88.5,0 -188.5,19.4 -286.3,59.9 -90,37.1 -109.8,63.4 -113.8,75.7 -0.2,0.6 -0.4,1.1 -0.5,1.7 6.5,-3.5 13.4,-7 20.6,-10.6 117.3,-58.2 238.1,-86.7 343.3,-86.7 58,0 111.2,8.6 156.6,25.6 -2.9,-17.8 -3.8,-35.4 -2.6,-52.6 -35.6,-8.6 -75.2,-13 -117.3,-13"
         style="fill:#b25959;fill-opacity:1;fill-rule:nonzero;stroke:none"
         id="path550" /><path
         d="m 35581.9,24238 c -2,0.8 -4,1.7 -6,2.5 -90.6,37.5 -124.8,33.1 -137.2,27.1 -21.4,-10.4 -30.3,-52.8 -40.5,-102 -8.5,-41 -18.2,-87.6 -38.6,-133.9 -20.5,-46.3 -48.6,-85.2 -73.4,-119.4 -28.4,-39.4 -55.2,-76.5 -48.3,-97.9 4,-12.3 23.8,-38.6 113.8,-75.7 244.3,-101.1 501.7,-71.1 562.1,65.7 19.6,44.4 17.1,97.4 -7.3,153.3 -47.4,108.5 -171.5,215.5 -324.6,280.3 m -246.8,-539.5 0.1,-0.1 -0.1,0.1 m -23.4,-37.5 c -95.4,40.4 -145.3,80.9 -161.4,130.8 -20.1,62.1 18.7,115.8 59.7,172.6 23.5,32.6 47.8,66.2 64.8,104.6 17,38.3 25.3,78.5 33.4,117.4 14,67.6 27.3,131.5 86.3,160.1 48.8,23.7 115,15.8 214.7,-25.5 180.6,-75.1 323.5,-199.1 381.7,-332.4 34.4,-78.5 37,-155.2 7.7,-221.5 -81.9,-185.1 -380.6,-232.9 -680.1,-108.9 v 0 c -2.3,0.9 -4.6,1.9 -6.8,2.8"
         style="fill:#231f20;fill-opacity:1;fill-rule:nonzero;stroke:none"
         id="path552" /><path
         d="m 35544.5,24058.3 c -11.3,0 -23,2.2 -34.3,6.9 -40.8,16.9 -61.1,59.5 -45.3,95.3 11.4,25.8 38.6,41 68.2,41 11.3,0 23,-2.3 34.3,-6.9 40.8,-16.9 61.1,-59.6 45.3,-95.3 -11.4,-25.9 -38.6,-41 -68.2,-41"
         style="fill:#f6c7c7;fill-opacity:1;fill-rule:nonzero;stroke:none"
         id="path554" /><path
         d="m 36613.6,23157.2 c -270.1,116.8 -435.6,343.7 -369.6,506.7 66,162.9 338.4,200.3 608.6,83.4 270.1,-116.9 92.1,-195.1 26.1,-358.1 -65.9,-163 5,-348.9 -265.1,-232"
         style="fill:#ff7878;fill-opacity:1;fill-rule:nonzero;stroke:none"
         id="path556" /><path
         d="m 36744.5,23164.4 c -19.7,0 -54.1,6.9 -113.5,32.7 v 0 c -143.5,62.1 -257.2,159.4 -314.6,257.2 13.1,11.1 25.2,23.9 36,38.4 54.6,-125.1 200.4,-248.7 391.7,-316.4 7.6,-2.7 14.9,-5.1 22,-7.4 -0.5,-0.3 -1,-0.6 -1.5,-0.8 -3.9,-1.9 -10.2,-3.7 -20.1,-3.7"
         style="fill:#b25959;fill-opacity:1;fill-rule:nonzero;stroke:none"
         id="path558" /><path
         d="m 36829.3,23709.9 c 1.9,-0.9 3.9,-1.7 5.9,-2.6 90,-38.9 110.7,-66.6 115,-79.6 7.4,-22.6 -16.9,-58.5 -45.1,-100.1 -23.5,-34.7 -50.2,-74 -69.2,-120.9 -19,-46.9 -27.4,-94.2 -34.8,-135.8 -8.4,-47.8 -16.4,-92.9 -36.5,-102.8 -11.7,-5.7 -44.3,-9.8 -133.6,29 v 0 c -242.6,105 -400.2,310.8 -344.1,449.3 18.2,45 58,80.1 115.2,101.5 110.9,41.4 274,26.8 427.2,-38 m -215.7,-552.7 h -0.1 0.1 m -10.6,-42.9 c 95.4,-40.4 159.2,-48 206.2,-24.9 58.7,28.8 70.2,94.1 82.4,163.1 7,39.5 14.3,80.4 30,119.3 15.8,38.8 38.8,72.8 61.1,105.6 38.8,57.2 75.4,111.2 54.9,173.5 -17,51.5 -68.7,93.5 -167.7,136.4 -179.6,77.3 -368.1,93.7 -504.4,42.7 -80.3,-30 -137.2,-81.4 -164.4,-148.7 -75.9,-187.6 97.7,-435.4 395.2,-564.1 v 0 c 2.2,-1 4.5,-1.9 6.7,-2.9"
         style="fill:#231f20;fill-opacity:1;fill-rule:nonzero;stroke:none"
         id="path560" /><path
         d="m 36773.1,23545.1 c -11.4,0 -23.2,2.3 -34.6,7.3 -40.6,17.5 -61.6,61.1 -46.9,97.3 10.5,26 36.5,41.1 65.3,41.1 11.4,0 23.2,-2.3 34.6,-7.3 40.6,-17.5 61.6,-61.1 46.9,-97.3 -10.5,-26 -36.5,-41.1 -65.3,-41.1"
         style="fill:#f6c7c7;fill-opacity:1;fill-rule:nonzero;stroke:none"
         id="path562" /><path
         d="m 35769.3,23857.6 c -103.8,59.7 -232.6,49.4 -231.7,63.1 0.2,4.4 13.6,6.7 20.7,7.5 93,11.2 279.7,28.6 289.5,-25.4 4.1,-22.4 -6.3,-51.6 -26.1,-58.9 -18.5,-6.9 -40.2,6.7 -52.4,13.7"
         style="fill:#231f20;fill-opacity:1;fill-rule:nonzero;stroke:none"
         id="path564" /><path
         d="m 36425.6,23579.7 c 115.2,-33 197.4,-132.6 206.7,-122.5 3,3.3 -4.7,14.5 -9,20.1 -56.8,74.6 -174.2,220.7 -219.8,190.2 -19,-12.6 -32.6,-40.4 -24.2,-59.7 8,-18.1 32.9,-24.2 46.3,-28.1"
         style="fill:#231f20;fill-opacity:1;fill-rule:nonzero;stroke:none"
         id="path566" /><path
         d="m 36342.2,23903.3 -282.4,119.6 c -89.8,38 -199.4,-18.2 -244.9,-125.6 l -40.4,-95.6 c -45.5,-107.3 -9.6,-225.1 80.2,-263.1 l 282.4,-119.6 c 89.8,-38 199.4,18.2 244.9,125.5 l 40.4,95.6 c 45.5,107.4 9.6,225.2 -80.2,263.2"
         style="fill:#ff7878;fill-opacity:1;fill-rule:nonzero;stroke:none"
         id="path568" /><path
         d="m 36402.2,23592.3 20.2,47.8 c 0.2,0.5 0.4,0.9 0.6,1.4 l 3.2,7.5 c 0.2,0.5 0.5,1.1 0.7,1.7 l -24.7,-58.4"
         style="fill:#231f20;fill-opacity:1;fill-rule:nonzero;stroke:none"
         id="path570" /><path
         d="m 36200.6,23417.7 c -20,0 -40,3.8 -59,11.8 l -282.4,119.6 c -89.8,38 -125.7,155.9 -80.3,263.2 l 2.4,5.7 c 6.6,15.2 14.4,29.5 23.3,42.5 -19,-92.6 18.4,-183.3 95.1,-215.8 l 282.4,-119.6 c 19,-8 38.9,-11.9 58.9,-11.9 60.7,0 122.1,35.1 162.2,93.9 -3.3,-15.9 -8.2,-31.7 -14.8,-47.4 l 34.6,81.8 c -0.2,-0.5 -0.4,-0.9 -0.6,-1.4 l -20.2,-47.8 -15.7,-37.2 c -35.9,-84.6 -111.5,-137.4 -185.9,-137.4"
         style="fill:#b25959;fill-opacity:1;fill-rule:nonzero;stroke:none"
         id="path572" /><path
         d="m 36411.6,23844.2 c -16.8,26.1 -40.3,46.8 -69.4,59.1 l -282.4,119.6 c -19.1,8 -39,11.9 -59,11.9 -10.6,0 -21.2,-1.1 -31.8,-3.2 -2.3,4 -4.6,7.9 -7.1,11.9 14.9,4.2 30.1,6.4 45.3,6.4 20,0 39.9,-3.8 59,-11.9 l 282.4,-119.6 c 33.5,-14.1 59.5,-39.4 76.5,-71 -4.5,-1 -9,-2.1 -13.5,-3.2"
         style="fill:#ffffff;fill-opacity:1;fill-rule:nonzero;stroke:none"
         id="path574" /><path
         d="m 35780.9,23816.9 12.1,28.7 v 0 l -4.3,-10.2 -7.6,-17.9 c -0.1,-0.2 -0.1,-0.4 -0.2,-0.6 m 47.6,107.8 c -0.4,0.2 -0.9,0.4 -1.3,0.6 14.5,29.7 34.2,55 56.8,74.9 1.3,-2.2 2.7,-4.3 4,-6.5 -23.1,-18 -43.6,-41.3 -59.5,-69"
         style="fill:#ffd0d0;fill-opacity:1;fill-rule:nonzero;stroke:none"
         id="path576" /><path
         d="m 35888,23993.7 c -1.3,2.2 -2.7,4.3 -4,6.5 23.4,20.7 50.1,35.5 77.9,43.3 2.5,-4 4.8,-7.9 7.1,-11.9 -28.5,-5.6 -56.3,-18.7 -81,-37.9"
         style="fill:#b2b1b1;fill-opacity:1;fill-rule:nonzero;stroke:none"
         id="path578" /><path
         d="m 36434,23668.4 c -0.5,0.2 -0.9,0.3 -1.4,0.5 8.9,30.7 11.4,61.6 8.2,90.7 2.5,0.6 5,1.2 7.5,1.7 1.4,-30.1 -3.1,-61.8 -14.3,-92.9"
         style="fill:#ffd0d0;fill-opacity:1;fill-rule:nonzero;stroke:none"
         id="path580" /><path
         d="m 36440.8,23759.6 c -3.4,31.2 -13.4,60.2 -29.2,84.6 4.5,1.1 9,2.2 13.5,3.2 13.7,-25.4 21.7,-54.9 23.2,-86.1 -2.5,-0.5 -5,-1.1 -7.5,-1.7"
         style="fill:#b2b1b1;fill-opacity:1;fill-rule:nonzero;stroke:none"
         id="path582" /><path
         d="m 35793,23845.6 v 0 l 28.3,66.9 c 1.9,4.4 3.8,8.6 5.9,12.8 0.4,-0.2 0.9,-0.4 1.3,-0.6 -4.1,-7.1 -7.9,-14.6 -11.3,-22.2 0.7,1.8 1.4,3.6 2.2,5.4 l -26.4,-62.3"
         style="fill:#b2b1b1;fill-opacity:1;fill-rule:nonzero;stroke:none"
         id="path584" /><path
         d="m 36424.6,23645.4 c 3.1,7.8 5.8,15.6 8,23.5 0.5,-0.2 0.9,-0.3 1.4,-0.5 -1.6,-4.4 -3.3,-8.8 -5.1,-13.1 l -2.7,-6.3 c -0.5,-1.2 -1.1,-2.4 -1.6,-3.6"
         style="fill:#b2b1b1;fill-opacity:1;fill-rule:nonzero;stroke:none"
         id="path586" /><path
         d="m 36403.2,23607.1 c 19,92.6 -18.4,183.3 -95,215.8 l -282.5,119.6 c -19,8 -38.9,11.8 -58.9,11.8 -60.7,0 -122.1,-35 -162.2,-93.8 2.9,14 7.1,28.1 12.6,42 3.4,7.6 7.2,15.1 11.3,22.2 15.9,27.7 36.4,51 59.5,69 24.7,19.2 52.5,32.3 81,37.9 10.6,2.1 21.2,3.2 31.8,3.2 20,0 39.9,-3.9 59,-11.9 l 282.4,-119.6 c 29.1,-12.3 52.6,-33 69.4,-59.1 15.8,-24.4 25.8,-53.4 29.2,-84.6 3.2,-29.1 0.7,-60 -8.2,-90.7 -2.2,-7.9 -4.9,-15.7 -8,-23.5 -6.1,-13.7 -13.3,-26.5 -21.4,-38.3 m -622.1,210.4 7.6,17.9 -7.4,-17.4 c 0,-0.2 -0.1,-0.4 -0.2,-0.5"
         style="fill:#ffd0d0;fill-opacity:1;fill-rule:nonzero;stroke:none"
         id="path588" /><path
         d="m 36423,23641.5 c 0.6,1.3 1.1,2.6 1.6,3.9 0.5,1.2 1.1,2.4 1.6,3.6 l -3.2,-7.5"
         style="fill:#b2b1b1;fill-opacity:1;fill-rule:nonzero;stroke:none"
         id="path590" /><path
         d="m 35788.7,23835.4 4.3,10.2 v 0 l -4.3,-10.2"
         style="fill:#e4c5c5;fill-opacity:1;fill-rule:nonzero;stroke:none"
         id="path592" /><path
         d="m 35793,23845.6 v 0 l 26.4,62.3 c -0.8,-1.8 -1.5,-3.6 -2.2,-5.4 -0.8,-1.7 -1.5,-3.5 -2.3,-5.2 l -21.9,-51.7"
         style="fill:#b2b1b1;fill-opacity:1;fill-rule:nonzero;stroke:none"
         id="path594" /><path
         d="m 36388.4,23559.7 c 6.6,15.7 11.5,31.5 14.8,47.4 8.1,11.8 15.3,24.6 21.4,38.3 -0.5,-1.3 -1,-2.6 -1.6,-3.9 l -34.6,-81.8 m -607.1,258.3 7.4,17.4 4.3,10.2 21.9,51.7 c 0.8,1.7 1.5,3.5 2.3,5.2 -5.5,-13.9 -9.7,-28 -12.6,-42 -8.9,-13 -16.7,-27.3 -23.3,-42.5"
         style="fill:#e4c5c5;fill-opacity:1;fill-rule:nonzero;stroke:none"
         id="path596" /><path
         d="m 36042.4,23981.9 c -66.1,28 -155.6,-33.6 -189.1,-112.7 l -40.4,-95.5 c -33.5,-79.1 -7,-166.2 59.2,-194.2 l 282.4,-119.6 c 66.1,-28 147.1,13.6 180.6,92.6 l 40.5,95.6 c 33.4,79.1 15.4,186.3 -50.7,214.2 z m 77.4,-603.9 -282.4,119.6 c -113.2,47.9 -167.1,176.9 -109.8,312.2 l 40.5,95.5 c 57.2,135.3 195.9,206.4 309,158.5 l 282.4,-119.6 c 113.2,-47.9 158.6,-196.9 101.3,-332.2 l -40.4,-95.6 c -57.3,-135.2 -187.5,-186.3 -300.6,-138.4"
         style="fill:#231f20;fill-opacity:1;fill-rule:nonzero;stroke:none"
         id="path598" /><path
         d="m 36599.4,22189.8 c -11.1,-2 -20.6,-5.8 -28.3,-11.4 -33.5,-24.1 -37.5,-81.9 -30.8,-124.1 13.9,-87.4 62.7,-175.6 149.1,-269.7 37.3,-40.6 78.9,-79.8 119.1,-117.8 42.5,-40.1 86.4,-81.5 127.2,-126 27.8,-30.6 54.5,-62.8 80.2,-93.9 73.6,-88.9 143.2,-172.9 237.2,-217.9 65.7,-31.4 143.5,-41.4 219,-28.1 28.3,5 55.9,13.2 82,24.4 94.9,40.6 173.5,120.6 215.9,219.5 3.1,7.4 6.1,14.9 9.1,22.5 15.1,37.8 32,80.1 67.4,113.6 41.4,39.3 94.6,52.8 136.3,60.1 13.4,2.4 26.5,4.3 39.1,6.1 11.6,1.6 22.2,3.2 32.5,4.9 l 2.2,0.4 c 67.9,12 133.5,39.2 189.9,78.9 37.3,26.2 72.9,68.4 63,99.1 -0.9,2.6 -2.1,5.1 -3.6,7.6 -6.4,10.4 -18.9,19.8 -33.5,25.1 -1.8,0.6 -3.7,1.2 -5.6,1.8 -21.4,6.1 -48,6 -83.6,-0.3 l -2.9,-0.5 c -63.5,-11.6 -123.7,-34.7 -178.7,-68.6 l -4.9,-3 c -19.6,-12.2 -44.2,-27.4 -74.2,-32.7 -8.7,-1.5 -17.4,-2.2 -26,-1.8 -79.5,2.8 -120.5,77.6 -138,109.6 -9,16.4 -25.7,46.9 -20.5,83.2 4,28.5 19.6,49.4 34.2,66.1 40.7,46.1 82.3,85.3 126.3,126.7 l 20,18.8 c 50.3,47.5 89.4,104.8 104.6,153.3 13.9,44.3 1.9,100.7 -27.2,128.2 -14.3,13.5 -31.2,18.3 -51.9,14.7 -5.9,-1.1 -12.3,-2.9 -18.8,-5.3 -34.6,-13 -64.5,-45.1 -91.7,-77.9 -59.8,-72.2 -112.1,-151 -155.4,-234.3 l -3.9,-7.4 c -19.2,-37.1 -40.9,-79.2 -81.1,-109.8 -19.1,-14.5 -43.2,-24.9 -67.8,-29.2 -47.7,-8.4 -91.5,5.4 -120.2,37.9 -36.9,42 -34.2,97.1 -32.3,133.6 7,138 -4.7,258.2 -35.6,367.5 -14.3,50.8 -38.3,88.5 -64,100.6 -9.4,4.4 -20.5,5.6 -33,3.4 -20.9,-3.7 -42.9,-16.6 -57.3,-33.7 -35.8,-42.4 -48.6,-95.3 -53.1,-132.2 -12.1,-100.6 0.8,-215.3 37.2,-331.7 2,-6.6 4.1,-13.1 6.3,-19.7 16.5,-50.8 35.1,-108.5 22.7,-170.7 -9.9,-49.5 -46.2,-95.3 -92.4,-116.6 -11.1,-5 -22.5,-8.6 -33.8,-10.6 -27.9,-5 -55.6,-0.3 -80,13.4 -32.6,18.3 -50.9,48.2 -64.4,70.1 l -1.3,2.2 c -46.9,76.2 -103.7,146 -168.8,207.4 -27.7,26.1 -61,54.6 -98,68 l 5.2,17.3 -6.1,-16.9 c -19.2,6.8 -39.4,8.9 -57,5.8 m 893.1,-1102.8 c -84.8,-14.9 -171.1,-7.7 -249.5,20.8 -13.6,5 -27,10.6 -39.9,16.7 -117,56 -198,153.9 -276.4,248.6 -24.9,30.2 -50.6,61.2 -76.5,89.6 -37.8,41.4 -80.1,81.3 -121.1,119.8 -41.7,39.4 -84.9,80.1 -125,123.8 -102.3,111.4 -160.5,219.2 -178.1,329.8 -16.2,101.3 12.8,189.6 77.3,236.2 22.1,16 47.7,26.6 76.1,31.6 37.4,6.6 77.5,2.8 116,-10.9 58.3,-21.1 105.1,-60.9 139.3,-93.2 72.6,-68.4 135.8,-146.1 188,-231 l 1.4,-2.2 c 7.5,-12.3 16.1,-26.2 22.4,-29.8 0.4,-0.2 1.2,-0.6 3.4,-0.2 1.6,0.2 3.3,0.8 5.3,1.8 12.6,5.7 24.6,20.7 27.3,34.1 6.5,32.5 -6.1,71.2 -19.4,112.2 -2.2,7 -4.5,13.9 -6.6,20.8 -41.3,132 -55.7,263.4 -41.6,380.1 9.1,75.5 36.6,142.2 79.6,193.1 31.6,37.5 78.7,64.9 125.8,73.2 35.7,6.3 71.1,1.8 102.4,-12.9 77.1,-36.5 112,-124.6 126,-173.8 34.3,-121.6 47.3,-254 39.7,-404.9 -0.8,-15.5 -2.2,-44.5 3.6,-51.1 0.9,-0.7 5.7,-2 13.3,-0.7 6.4,1.2 12.9,3.9 17.8,7.6 19.3,14.7 33.4,42 48.3,70.8 l 3.9,7.6 c 47.1,90.6 104,176.3 169.1,254.8 37.4,45.1 80.2,89.9 140.1,112.3 13.3,5.1 26.7,8.8 39.8,11.1 57.3,10.1 109.6,-5.4 151.1,-44.7 60.6,-57.3 85.1,-161.2 58.1,-247 -20.8,-66.5 -71.5,-142.3 -135.5,-202.8 l -20.1,-18.9 c -42.2,-39.6 -81.8,-76.9 -118.8,-118.9 -2.2,-2.5 -3.8,-4.5 -4.9,-5.9 1.1,-2.4 2.9,-6 5.8,-11.2 25.6,-46.8 38.3,-49.6 40.5,-49.6 0.3,-0.1 0.9,0 1.8,0.1 8.2,1.5 21.6,9.8 33.4,17.1 l 5.2,3.2 c 67.3,41.4 140.9,69.7 218.6,83.9 l 4.1,0.7 c 33.4,5.9 83.8,12.1 134.9,-2.5 44.9,-12.7 83.5,-40.9 106,-77.4 6.4,-10.4 11.5,-21.4 15.1,-32.8 30,-92.8 -35.4,-179.4 -106.5,-229.4 -70.2,-49.4 -151.9,-83.3 -236.4,-98.2 l -2.7,-0.5 c -11.9,-2 -24,-3.8 -35.6,-5.4 -12.3,-1.8 -24.3,-3.5 -35.9,-5.5 -27.1,-4.8 -57.4,-12.1 -76.4,-30.1 -16.9,-16.1 -27.8,-43.3 -39.3,-72.1 -3.4,-8.6 -6.8,-17.1 -10.4,-25.5 -53.9,-126 -154.8,-228.3 -276.7,-280.5 -34.1,-14.6 -70.2,-25.3 -107.2,-31.8 v 0"
         style="fill:#231f20;fill-opacity:1;fill-rule:nonzero;stroke:none"
         id="path600" /><path
         d="m 38355.2,21868.4 c -15.7,25.5 -43.3,43.8 -72.5,52.2 -36.5,10.3 -75.5,7.3 -112.8,0.4 -70.2,-12.8 -137.9,-38.8 -198.6,-76.2 -22.6,-13.9 -46.3,-29.9 -72.8,-29 -41.8,1.5 -69.2,42.9 -89.3,79.6 -8,14.6 -16.3,30.6 -13.9,47.2 2,13.8 11.1,25.5 20.4,36 44.9,51.1 93.1,95 142.6,141.7 49.4,46.7 99.6,113.1 120,178 34.1,108.7 -37.6,260.2 -173.5,209.2 -47.3,-17.8 -83.6,-56.2 -115.8,-95.1 -62.6,-75.5 -117.1,-157.6 -162.3,-244.5 -18.5,-35.7 -36.6,-73.5 -68.6,-97.9 -32,-24.3 -83,-29.3 -109.5,0.9 -21.3,24.2 -19.6,60.2 -18,92.4 6.6,130.7 -2,260.2 -37.7,386.1 -15.1,53.5 -44.7,113.5 -95,137.2 -53.6,25.4 -120.9,0.1 -159.2,-45.2 -38.3,-45.4 -59.2,-103.8 -66.3,-162.7 -14.3,-118.4 3.7,-242.1 39.3,-355.9 16.5,-52.8 38.4,-107.4 27.5,-161.7 -10.8,-54.2 -72.8,-101.8 -121,-74.8 -20.2,11.4 -32.6,32.5 -44.8,52.2 -49.5,80.5 -109.6,154.4 -178.4,219.2 -35.2,33.1 -73.6,64.5 -119.1,80.8 -45.5,16.2 -99.5,15.2 -138.7,-13.1 -53.6,-38.7 -64.5,-114.9 -54.1,-180.2 18.2,-114 85.5,-214.7 163.6,-299.8 78.1,-85 168.3,-158.4 246.2,-243.7 105.8,-115.8 193.7,-257.2 335.2,-324.9 108.1,-51.8 238.6,-51.9 348.8,-4.7 110.2,47.1 199.1,139.8 246.3,250 17.5,41 30.7,86.1 63.1,116.8 45.9,43.5 115.6,45.4 177.9,56.1 77.3,13.2 151.5,43.8 215.6,88.9 54.1,38 105.1,101.4 84.8,164.3 -2.3,7.2 -5.5,13.9 -9.4,20.2"
         style="fill:#e0ae77;fill-opacity:1;fill-rule:nonzero;stroke:none"
         id="path602" /><path
         d="m 36536.3,21895.4 c -12.8,21.7 -24.2,44 -33.8,67.1 -0.5,3.8 -1,7.7 -1.4,11.6 9.4,-27.1 21.3,-53.4 35.2,-78.7"
         style="fill:#231f20;fill-opacity:1;fill-rule:nonzero;stroke:none"
         id="path604" /><path
         d="m 37397.1,21153.1 c -61.4,0 -122.6,13 -178,39.5 -141.5,67.7 -229.4,209.2 -335.2,325 -77.9,85.2 -168.1,158.6 -246.2,243.7 -37.8,41.1 -73,85.9 -101.4,134.1 -13.9,25.3 -25.8,51.6 -35.2,78.7 -1.5,14.3 -1.9,29.1 -1.1,43.6 31.1,-70 78.5,-133.7 130.6,-190.5 78.1,-85.1 168.3,-158.5 246.2,-243.8 105.8,-115.8 193.7,-257.2 335.2,-324.9 55.4,-26.6 116.6,-39.5 178,-39.5 58.5,0 117.1,11.7 170.9,34.8 110.2,47.1 199,139.8 246.2,250 17.6,41 30.7,86.1 63.1,116.7 45.9,43.6 115.6,45.5 177.9,56.1 77.2,13.3 151.5,43.9 215.6,89 26.7,18.8 52.7,43.8 69.7,71.8 9.2,-4.7 17.8,-10.6 25.5,-17.3 -7.1,-47.3 -46.7,-91.2 -88.1,-120.3 -64.2,-45.1 -138.4,-75.7 -215.6,-89 -62.4,-10.6 -132,-12.6 -177.9,-56.1 -32.4,-30.7 -45.6,-75.8 -63.1,-116.8 -47.2,-110.2 -136.1,-202.9 -246.3,-250 -53.7,-23 -112.3,-34.8 -170.8,-34.8"
         style="fill:#9e7c59;fill-opacity:1;fill-rule:nonzero;stroke:none"
         id="path606" /><path
         d="m 38352,21873.2 c -0.7,1 -1.4,2 -2.1,3 0.1,0.3 0.2,0.6 0.2,1 0.7,-1.3 1.3,-2.6 1.9,-4"
         style="fill:#231f20;fill-opacity:1;fill-rule:nonzero;stroke:none"
         id="path608" /><path
         d="m 38355.3,21864.7 c -2,2.5 -4.2,5 -6.5,7.3 0.4,1.4 0.8,2.8 1.1,4.2 0.7,-1 1.4,-2 2.1,-3 1.3,-2.7 2.4,-5.6 3.3,-8.5"
         style="fill:#9e7c59;fill-opacity:1;fill-rule:nonzero;stroke:none"
         id="path610" /><path
         d="m 36489.1,21999 c -6.6,20.2 -11.6,40.9 -15,62.1 -2.4,15.1 -3.7,30.8 -3.5,46.5 2.7,-12.6 5.9,-25 9.7,-37.3 0.4,-6.8 1.2,-13.6 2.1,-20.3 0.5,-11 1.6,-22 3.3,-32.7 1,-6.1 2.1,-12.2 3.4,-18.3"
         style="fill:#231f20;fill-opacity:1;fill-rule:nonzero;stroke:none"
         id="path612" /><path
         d="m 36482.4,22050 c -0.9,6.7 -1.7,13.5 -2.1,20.3 0.6,-2 1.2,-4 1.9,-6.1 -0.1,-4.7 0,-9.4 0.2,-14.2"
         style="fill:#9e7c59;fill-opacity:1;fill-rule:nonzero;stroke:none"
         id="path614" /><path
         d="m 38044.7,22213.8 c 0.2,4.5 0.4,8.9 0.5,13.3 8.7,14.4 16.4,29.1 22.9,43.9 -5.8,-18.1 -13.5,-37.2 -23.4,-57.2"
         style="fill:#a7a5a6;fill-opacity:1;fill-rule:nonzero;stroke:none"
         id="path616" /><path
         d="m 37629.9,22153.5 c -0.7,0 -0.2,1.7 1.8,5.3 48.3,85.3 105.6,165.4 170.7,238.6 33.6,37.8 71.2,74.9 119.1,91 12.9,4.4 26,6.5 38.9,6.5 80.5,0 152.7,-82.7 107.7,-223.9 -6.5,-14.8 -14.2,-29.5 -22.9,-43.9 4.5,157.3 -40,218.3 -100.1,218.3 -11.4,0 -23.4,-2.1 -35.6,-6.3 -47.9,-16.1 -78.7,-55.7 -112.2,-93.5 -58.5,-65.6 -161.2,-192.1 -167.4,-192.1"
         style="fill:#f3dfc9;fill-opacity:1;fill-rule:nonzero;stroke:none"
         id="path618" /><path
         d="m 37930.7,21756.6 c -0.7,0 -1.5,0 -2.2,0 -41.8,1.5 -74.2,29.2 -94.3,65.9 -8,14.6 -16.3,30.6 -14,47.2 0.2,1.3 0.5,2.6 0.9,3.9 19.6,-34.6 46.1,-70.6 85,-72 0.7,0 1.4,0 2.2,0 25.6,0 48.6,15.5 70.5,29 60.8,37.4 128.5,63.4 198.6,76.2 20.1,3.7 40.6,6.3 60.9,6.3 17.6,0 35,-1.9 51.9,-6.7 21.9,-6.3 42.9,-18.1 58.6,-34.4 -3.4,-11.8 -8.7,-23.4 -15.4,-34.6 -8.2,4.3 -16.9,7.7 -25.7,10.3 -17,4.8 -34.4,6.7 -51.9,6.7 -20.4,0 -40.9,-2.6 -60.9,-6.3 -70.2,-12.8 -132.9,-25.1 -193.7,-62.5 -21.9,-13.5 -44.9,-29 -70.5,-29"
         style="fill:#f3dfc9;fill-opacity:1;fill-rule:nonzero;stroke:none"
         id="path620" /><path
         d="m 38376.5,21800.8 c -2.4,3.4 -5,6.6 -7.8,9.7 1.1,12.4 -0.1,25.1 -4.1,37.7 -0.9,2.6 -1.8,5.2 -2.9,7.7 0.3,-0.6 0.7,-1.1 1.1,-1.7 3.8,-6.3 7,-13 9.3,-20.2 3.6,-11.1 4.9,-22.2 4.4,-33.2"
         style="fill:#a7a5a6;fill-opacity:1;fill-rule:nonzero;stroke:none"
         id="path622" /><path
         d="m 38368.7,21810.5 c -3,3.3 -6.3,6.6 -9.8,9.6 2.2,14.4 1.4,29.2 -3.4,43.9 0,0.3 -0.1,0.5 -0.2,0.7 2.3,-2.8 4.4,-5.8 6.4,-8.8 1.1,-2.5 2,-5.1 2.9,-7.7 4,-12.6 5.2,-25.3 4.1,-37.7"
         style="fill:#f3dfc9;fill-opacity:1;fill-rule:nonzero;stroke:none"
         id="path624" /><path
         d="m 38358.9,21820.1 c -7.7,6.7 -16.3,12.6 -25.5,17.3 6.7,11.2 12,22.8 15.4,34.6 2.3,-2.3 4.5,-4.8 6.5,-7.3 0.1,-0.2 0.2,-0.4 0.2,-0.7 4.8,-14.7 5.6,-29.5 3.4,-43.9"
         style="fill:#d8cbbd;fill-opacity:1;fill-rule:nonzero;stroke:none"
         id="path626" /><path
         d="m 36976.8,21908.4 c -4.6,0 -98.4,102.9 -161.8,162.7 -35.2,33.1 -73.6,64.5 -119.1,80.8 -19.1,6.8 -39.6,10.5 -60,10.5 -28.2,0 -56,-7.2 -78.7,-23.6 -37.8,-27.3 -54.4,-73.4 -57.2,-121.1 -6.7,15.2 -12.7,30.7 -17.8,46.5 0.5,51.9 16.5,103.6 57.6,133.3 22.7,16.4 50.5,23.7 78.7,23.7 20.3,0 40.9,-3.8 60,-10.6 45.5,-16.3 83.9,-47.7 119.1,-80.8 68.7,-64.8 128.9,-138.7 178.4,-219.2 0.9,-1.5 1.2,-2.2 0.8,-2.2"
         style="fill:#f3dfc9;fill-opacity:1;fill-rule:nonzero;stroke:none"
         id="path628" /><path
         d="m 36507.6,21935.3 c -7.8,20.7 -14,41.9 -18.5,63.7 3.9,-12.4 8.4,-24.5 13.4,-36.5 0.2,-1.3 0.4,-2.6 0.6,-3.9 1.3,-7.8 2.8,-15.6 4.5,-23.3"
         style="fill:#a7a5a6;fill-opacity:1;fill-rule:nonzero;stroke:none"
         id="path630" /><path
         d="m 36502.5,21962.5 c -5,12 -9.5,24.1 -13.4,36.5 -1.3,6.1 -2.4,12.2 -3.4,18.3 -1.7,10.7 -2.8,21.7 -3.3,32.7 0.2,-1.6 0.5,-3.2 0.7,-4.8 3.9,-24.3 10,-48 18,-71.1 0.4,-3.9 0.9,-7.8 1.4,-11.6"
         style="fill:#a7a5a6;fill-opacity:1;fill-rule:nonzero;stroke:none"
         id="path632" /><path
         d="m 36501.1,21974.1 c -8,23.1 -14.1,46.8 -18,71.1 -0.2,1.6 -0.5,3.2 -0.7,4.8 -0.2,4.8 -0.3,9.5 -0.2,14.2 5.1,-15.8 11.1,-31.3 17.8,-46.5 -0.8,-14.5 -0.4,-29.3 1.1,-43.6"
         style="fill:#d8cbbd;fill-opacity:1;fill-rule:nonzero;stroke:none"
         id="path634" /><path
         d="m 37119,22080.1 c -1.6,4.9 -3.2,9.9 -4.7,14.8 -21.5,68.7 -36.6,140.9 -42,213.4 5.6,-51.5 15.9,-102.6 29.6,-152.3 4.7,-25.5 10.5,-50.9 17.1,-75.9"
         style="fill:#a7a5a6;fill-opacity:1;fill-rule:nonzero;stroke:none"
         id="path636" /><path
         d="m 37101.9,22156 c -13.7,49.7 -24,100.8 -29.6,152.3 -3.6,47.7 -3,95.5 2.6,142.5 7.1,58.9 28.1,117.3 66.4,162.7 27.8,33 71,55.3 113.1,55.3 15.8,0 31.5,-3.1 46.1,-10.1 50.3,-23.7 79.9,-83.7 95,-137.2 2.8,-9.7 5.3,-19.4 7.7,-29.2 -16.8,44.6 -44.1,88.3 -85.3,107.7 -14.6,7 -30.3,10.1 -46.1,10.1 -42.1,0 -85.3,-22.3 -113.1,-55.3 -38.3,-45.4 -59.2,-103.8 -66.3,-162.7 -9.4,-77.9 -4.8,-158 9.5,-236.1"
         style="fill:#f3dfc9;fill-opacity:1;fill-rule:nonzero;stroke:none"
         id="path638" /><path
         d="m 38278.6,21880 c 18.4,-6.7 34,-18.5 42.7,-32.5 v 0 c 2.2,-3.8 4,-7.6 5.3,-11.5 13.7,-42.4 -29.1,-90.8 -69.8,-119.5 -59.1,-41.6 -128.1,-70 -199.3,-82.2 -10.7,-1.8 -21.5,-3.4 -33,-5 -55.7,-8 -118.8,-17 -165.7,-61.5 -32.4,-30.8 -48.5,-71.1 -62.8,-106.8 -3.1,-7.8 -6.2,-15.6 -9.5,-23.2 -44.1,-103.2 -126.2,-186.7 -225.3,-229.1 -101.6,-43.5 -219.7,-42 -315.9,4 -97.6,46.7 -168.3,132.2 -243.2,222.8 -25.7,30.9 -52.2,63 -79.7,93.1 -40.3,44.1 -84,85.3 -126.2,125.1 -40.5,38.2 -82.4,77.6 -120.1,118.7 -88.9,96.8 -139.1,188.1 -153.6,279.1 -7.9,49.5 -2,112.6 38,141.5 25.3,18.3 64.4,21.3 102,7.9 l 0.9,-0.3 c 40.1,-14.6 75.2,-44.5 104.2,-71.9 66.3,-62.5 124.1,-133.5 171.8,-211.1 l 1.4,-2.1 c 13,-21.4 29.3,-47.9 57.9,-63.9 29.5,-16.6 64.1,-17.4 97.3,-2.1 41.2,18.9 73.5,59.6 82.3,103.8 11.6,57.5 -6.3,112.8 -22.1,161.6 -2.2,6.6 -4.3,13.2 -6.4,19.8 -37.2,118.9 -50.2,236.2 -37.8,339.2 4.7,39.4 18.5,95.9 57.2,141.7 26,30.9 74.9,52.3 111.7,35 30.8,-14.6 57.7,-55.4 73.7,-112 31.4,-111.2 43.2,-233.3 36.2,-373.3 -1.8,-35.6 -4.3,-84.3 27.9,-120.8 42.5,-48.3 118,-40.8 163.5,-6.2 36.9,28 57.7,68.2 76.1,103.7 l 3.8,7.5 c 43.9,84.3 96.9,164.2 157.6,237.4 28.7,34.7 60.7,68.8 99.1,83.2 35.9,13.5 66,9.1 89.4,-13.1 34.3,-32.4 48.1,-95.5 32.1,-146.7 -16.1,-51.3 -57,-111.5 -109.4,-161 l -20,-18.8 c -43.8,-41.1 -85.1,-80 -125.2,-125.5 -13.5,-15.4 -26.5,-33 -29.9,-56.8 -4.4,-30.3 9.9,-56.4 18.4,-72 16.1,-29.2 53.6,-97.8 122.9,-100.3 36.7,-1.3 66.3,17.1 90.2,31.9 l 4.9,3.1 c 56.9,35 119.1,58.9 184.9,70.9 39.8,7.3 69.9,7.4 94.7,0.4 2.3,-0.7 4.5,-1.4 6.8,-2.2 z m -1029.5,-755.3 c 108.7,-39.5 234.2,-36.1 343.5,10.7 117.7,50.4 215.1,149.2 267.3,271 3.5,8.2 6.8,16.6 10.2,25 12.3,30.8 23.9,59.8 43.6,78.5 28.5,27 74,33.5 122.1,40.4 11.5,1.6 23.4,3.3 35.1,5.4 82.9,14.1 163.1,47.2 231.8,95.6 65.9,46.3 126.8,125.6 99.8,209.2 -3.2,10 -7.7,19.7 -13.3,28.8 -20.2,32.7 -55,58.1 -95.6,69.6 -48.5,13.8 -97.9,7.4 -130.9,1.4 -75.5,-13.8 -146.9,-41.3 -212.3,-81.5 l -5.2,-3.2 c -16.1,-10 -32.8,-20.4 -45.3,-19.9 -21.4,0.7 -42,33.9 -55.7,58.9 -2.5,4.5 -10,18.3 -9.4,22.3 0.2,1.4 1.9,5.2 10.8,15.4 37.6,42.7 77.6,80.3 119.9,120.1 l 20.2,18.9 c 61.8,58.5 110.7,131.4 130.7,195.1 24.9,79.6 2.5,175.7 -53.3,228.6 -46.2,43.6 -107.3,54.2 -172.3,29.8 -55.9,-21 -96.7,-63.8 -132.5,-107 -64.3,-77.5 -120.5,-162.2 -167,-251.5 l -3.9,-7.7 c -15.9,-30.7 -30.9,-59.6 -53.4,-76.8 -18,-13.7 -45.5,-15.9 -55.5,-4.5 -10.7,12.1 -9.3,39.6 -8.1,63.9 7.6,148.9 -5.2,279.4 -39.1,399.1 -13.1,46.3 -45.6,129 -116.3,162.4 -75,35.4 -160.8,-1.1 -206.8,-55.6 -40.7,-48.2 -66.8,-111.7 -75.4,-183.6 -13.8,-114.2 0.3,-243 40.9,-372.6 2.1,-6.9 4.3,-13.7 6.6,-20.6 14,-43.3 27.3,-84.2 19.8,-121.3 -3.8,-19.1 -19.5,-38.8 -37.4,-47 -9.7,-4.5 -18.1,-4.8 -25,-0.9 -10.4,5.9 -19.4,20.6 -29,36.1 l -1.3,2.2 c -51.4,83.6 -113.6,160 -185,227.3 -35.3,33.3 -79,69.7 -133.1,89.3 -62.9,22.5 -128.5,15.7 -175.5,-18.3 -58.9,-42.5 -85.1,-124.3 -70.1,-218.7 17.1,-107 73.8,-211.8 173.6,-320.5 39.7,-43.3 82.6,-83.7 124.1,-122.8 41.2,-38.8 83.8,-79 122.1,-120.9 26.2,-28.7 52.1,-60 77.1,-90.2 77.1,-93.2 156.9,-189.6 270.3,-243.8 12.4,-6 25.2,-11.3 38.2,-16.1"
         style="fill:#231f20;fill-opacity:1;fill-rule:nonzero;stroke:none"
         id="path640" /><path
         d="m 37400.4,21653.2 c -17.4,30.3 -42.4,57 -72.2,77.2 -27.7,19.2 -60,33.2 -95.9,41.5 -36.3,8 -70.2,9.3 -100.8,3.9 l -1.8,-0.3 c -2.6,-0.5 -4.4,-2.6 -4.6,-5.3 -0.1,-2.6 1.6,-4.9 4.2,-5.6 33.9,-9.4 63.7,-19.4 91.1,-30.6 31.9,-13.3 58.3,-27.3 80.9,-42.9 25.1,-17.1 47.4,-37.5 66.3,-60.5 20.9,-25.2 37.4,-54.5 50.7,-79.9 1.2,-2.1 3.6,-3.3 6,-2.9 l 0.4,0.1 c 2.6,0.7 4.3,3 4.2,5.6 -0.8,34.3 -10.7,68.8 -28.5,99.7"
         style="fill:#231f20;fill-opacity:1;fill-rule:nonzero;stroke:none"
         id="path642" /></g></g></svg>
