<?xml version="1.0" encoding="UTF-8" standalone="no"?>
<!-- Created with Inkscape (http://www.inkscape.org/) -->

<svg
   version="1.1"
   id="svg2"
   xml:space="preserve"
   width="5333.3335"
   height="5333.3335"
   viewBox="3600 0 1777 1777"
   sodipodi:docname="Gender:Poverty.eps"
   xmlns:inkscape="http://www.inkscape.org/namespaces/inkscape"
   xmlns:sodipodi="http://sodipodi.sourceforge.net/DTD/sodipodi-0.dtd"
   xmlns="http://www.w3.org/2000/svg"
   xmlns:svg="http://www.w3.org/2000/svg"><defs
     id="defs6"><clipPath
       clipPathUnits="userSpaceOnUse"
       id="clipPath1660"><path
         d="m 34188.9,28106.1 c -1794.9,0 -3250,447.7 -3250,1000 0,349.2 581.7,656.6 1463.2,835.5 16.6,-44.2 34.7,-86.8 54.2,-127.5 -89,-92 -187,-212 -185.4,-339.1 2.7,-223.3 238.2,-367.5 599.7,-367.5 5.8,0 11.5,0 17.3,0.1 152.8,1.9 283,30.8 376.7,83.8 118.2,66.7 179.8,169.6 178.2,297.4 -0.5,34 -5.4,69.1 -14.9,104.5 83.6,131.3 141.6,303.2 170.5,496.4 191.5,10.8 388.8,16.4 590.5,16.4 215.9,0 427.1,-6.5 631.2,-18.8 29,-192.2 86.9,-363.2 170.2,-494 -9.5,-35.4 -14.5,-70.5 -14.9,-104.5 -1.6,-127.8 60,-230.7 178.1,-297.4 93.7,-53 224,-81.9 376.8,-83.8 5.8,-0.1 11.5,-0.1 17.2,-0.1 361.6,0 597,144.2 599.8,367.5 1.5,127.1 -96.4,247.1 -185.4,339.1 18.3,38.3 35.4,78.3 51.3,119.7 860.5,-179.9 1425.7,-483.4 1425.7,-827.7 0,-552.3 -1455.1,-1000 -3250,-1000"
         id="path1658" /></clipPath></defs><sodipodi:namedview
     id="namedview4"
     pagecolor="#ffffff"
     bordercolor="#666666"
     borderopacity="1.0"
     inkscape:pageshadow="2"
     inkscape:pageopacity="0.0"
     inkscape:pagecheckerboard="0" /><g
     id="g8"
     inkscape:groupmode="layer"
     inkscape:label="ink_ext_XXXXXX"
     transform="matrix(1.3333333,0,0,-1.3333333,0,5333.3333)"><g
       id="g10"
       transform="scale(0.1)"><g
         id="g1654"><g
           id="g1656"
           clip-path="url(#clipPath1660)"></g></g><path
         d="m 32789.3,30812.3 c 42.9,26.5 85.9,54.6 129.1,84.1 558.4,382 1152.6,1026 1766,1914.2 99.3,143.9 63.2,341.1 -80.7,440.5 -143.9,99.3 -341.1,63.3 -440.4,-80.7 -1007.9,-1459.3 -1916.8,-2175.8 -2628.3,-2071.8 -826.7,120.7 -1227.5,1325.6 -1231.4,1337.7 -54,166.1 -232.4,257.4 -398.5,203.7 -166.2,-53.6 -257.6,-231.4 -204.3,-397.7 20.8,-64.9 523.5,-1589.9 1739.7,-1769.9 428.6,-63.5 881.8,50.9 1348.8,339.9"
         style="fill:#a64b2a;fill-opacity:1;fill-rule:nonzero;stroke:none"
         id="path1664" /><path
         d="m 31602.9,30988.7 c -46.8,0 -92.7,3.3 -138,9.9 -826.5,120.7 -1227.3,1325.6 -1231.3,1337.8 -43.5,133.8 -167.7,219.1 -301.3,219.1 -27.7,0 -55.9,-3.7 -83.8,-11.4 22.1,16.6 47.3,29.9 75,38.8 26.1,8.5 52.5,12.5 78.6,12.5 108.2,0 209.2,-69.2 244.4,-177.6 4.1,-12.5 416.7,-1252.5 1279.8,-1378.6 48,-7 96.9,-10.5 146.5,-10.5 136.3,0 278.5,26.3 426.2,78.9 -7.3,-5.8 -14.3,-11.5 -21.2,-17.2 -165.8,-67.6 -324.3,-101.6 -474.9,-101.7"
         style="fill:#d3a595;fill-opacity:1;fill-rule:nonzero;stroke:none"
         id="path1666" /><path
         d="m 31672.1,30515.4 c -75.1,0 -149.4,5.5 -222.8,16.3 -376.5,55.8 -682.8,245.5 -926.1,480.2 231.2,-194 509.5,-345.4 836,-393.8 34.1,-5 65.3,-7.4 94.1,-7.4 289.1,0 337,242 624.5,479.7 48.1,19.6 96.8,42 146,67.2 19.4,8.7 38.8,17.7 58.4,27.2 12.5,0.8 25.5,3.3 38.9,7.3 0.3,0.1 0.6,0.2 0.8,0.3 -37,-168.7 -53.8,-370.7 -48.4,-566.6 -204.9,-73.5 -405.7,-110.4 -601.4,-110.4"
         style="fill:#813d23;fill-opacity:1;fill-rule:nonzero;stroke:none"
         id="path1668" /><path
         d="m 32077.8,31090.4 c 6.9,5.7 13.9,11.4 21.2,17.2 41.2,14.6 82.8,31.3 124.8,50 -49.2,-25.2 -97.9,-47.6 -146,-67.2"
         style="fill:#9e7868;fill-opacity:1;fill-rule:nonzero;stroke:none"
         id="path1670" /><path
         d="m 32789.3,30812.3 h 0.1 -0.1 m -2787.2,1783.1 c -26.1,0 -52.5,-4 -78.6,-12.5 -134.4,-43.4 -208.7,-187.9 -165.6,-322.3 20.4,-63.4 511.8,-1554.3 1691.4,-1728.9 413.8,-61.2 854,50.3 1308.4,331.6 42,26 84.7,53.8 126.8,82.6 552.3,377.8 1141.3,1016.7 1750.5,1898.8 38.9,56.4 53.6,124.6 41.3,192 -12.4,67.4 -50.2,126 -106.7,165 -56.4,38.9 -124.6,53.6 -192,41.3 -67.4,-12.4 -126,-50.2 -164.9,-106.6 -505,-731.3 -988.7,-1281.4 -1437.5,-1635.3 -398.4,-314 -768.4,-472.4 -1102.4,-472.4 -49.6,0 -98.5,3.5 -146.5,10.5 -863.1,126.1 -1275.7,1366.1 -1279.8,1378.6 -35.2,108.4 -136.2,177.6 -244.4,177.6 m 1670.4,-2200 c -81.1,0 -161.3,5.9 -240.8,17.6 -1252.6,185.4 -1766.7,1744.7 -1788,1810.9 -63.3,197.3 45.7,409.5 242.9,473.2 197.2,63.7 409.9,-44.9 474.1,-242.2 3.8,-11.8 395.4,-1182 1182.9,-1297 337.2,-49.3 726.6,97.9 1157.3,437.5 439.4,346.4 914.9,887.8 1413,1609.1 57.2,82.8 143.1,138.4 242.1,156.5 99,18.1 199.1,-3.4 281.8,-60.6 82.8,-57.1 138.4,-143.1 156.5,-242.1 18.1,-98.9 -3.4,-199 -60.6,-281.8 -617.6,-894.3 -1216.9,-1543.5 -1781.5,-1929.6 -43.6,-29.9 -87.8,-58.7 -131.3,-85.6 v 0 c -393.2,-243.4 -778.4,-365.9 -1148.4,-365.9"
         style="fill:#231f20;fill-opacity:1;fill-rule:nonzero;stroke:none"
         id="path1672" /><path
         d="m 35615.5,31639.4 c -3.9,-86.7 -28.2,-428.9 -277.9,-702.5 -168.1,-184.3 -356.7,-247.9 -445.6,-271 -57.5,-429.2 19.6,-830.7 180.5,-1057.6 -14.3,-39.5 -22.2,-79.5 -22.6,-118.1 -2.6,-208.4 211.4,-297.7 476.7,-301 265.2,-3.2 534.1,80.7 536.7,289.2 1.4,109.3 -109.2,231.1 -202.6,322.7 86,162.5 151,367.6 181.8,597.6 81.9,611.4 -109.3,1167 -427,1240.7"
         style="fill:#a64b2a;fill-opacity:1;fill-rule:nonzero;stroke:none"
         id="path1674" /><path
         d="m 32793.2,31639.4 c 3.8,-86.7 28.2,-428.9 277.8,-702.5 168.1,-184.3 356.7,-247.9 445.6,-271 57.5,-429.2 -19.5,-830.7 -180.4,-1057.6 14.2,-39.5 22.1,-79.5 22.6,-118.1 2.5,-208.4 -211.5,-297.7 -476.7,-301 -265.3,-3.2 -534.2,80.7 -536.8,289.2 -1.3,109.3 109.2,231.1 202.6,322.7 -86,162.5 -151,367.6 -181.8,597.6 -81.9,611.4 109.3,1167 427.1,1240.7"
         style="fill:#a64b2a;fill-opacity:1;fill-rule:nonzero;stroke:none"
         id="path1676" /><path
         d="m 35852.3,29809 c 86,162.6 151,367.7 181.8,597.6 45.3,338.2 7,659.1 -90,891.1 246,309.9 390.5,757.2 390.5,1391.9 0,1636.8 -960.6,2593.5 -2145.7,2593.5 -1185.1,0 -2145.8,-956.7 -2145.8,-2593.5 0,-642.6 148.2,-1093.1 399.8,-1403.5 -93.5,-230.9 -129.8,-546.9 -85.2,-879.5 30.7,-229.9 95.8,-435 181.8,-597.6 -93.4,-91.6 802.4,-232.2 788.2,-192.7 160.9,226.8 238,628.4 180.5,1057.5 -50.4,13.1 -132.7,39.2 -225.2,92.9 275.2,-75.9 582.2,-105.2 905.9,-105.2 334.1,0 650.3,31.2 932.3,112.5 -97.5,-58.6 -185,-86.5 -237.7,-100.2 -57.4,-429.1 19.6,-830.7 180.5,-1057.5 -14.2,-39.5 881.7,101.1 788.3,192.7"
         style="fill:#a64b2a;fill-opacity:1;fill-rule:nonzero;stroke:none"
         id="path1678" /><path
         d="m 35547.5,29230.7 c -5.2,0 -10.4,0.1 -15.7,0.1 -132.1,1.6 -242,25.1 -317.6,67.9 -77.7,43.9 -116.6,107.3 -115.6,188.5 0.3,25.6 4.5,52.5 12.3,79.9 4,14.1 5,28.7 3.2,42.8 10.9,0.5 23.3,1.4 37,2.6 -4.3,-21.1 -6.7,-42.1 -7,-62.6 -2.5,-208.5 211.5,-297.7 476.7,-301 5.2,-0.1 10.3,-0.1 15.4,-0.1 52.9,0 105.8,3.5 156.4,10.8 -69.2,-18.7 -151.9,-28.9 -245.1,-28.9"
         style="fill:#7e3e27;fill-opacity:1;fill-rule:nonzero;stroke:none"
         id="path1680" /><path
         d="m 35114.1,29609.9 c -2.1,15.5 -7.5,30.5 -16.2,43.9 -141,216.8 -203.8,581.4 -163.8,951.5 0.4,3.7 0.6,7.4 0.6,11.1 2.6,1.1 5.3,2.2 7.8,3.2 21.9,9 43.3,18.1 63.6,27.2 45.3,20.4 85.8,40.5 123.9,61.6 48,26.8 85.3,51.1 117.5,76.5 6.2,4.9 12,9.8 17.6,14.6 -159.8,-424.9 -256.4,-888.2 -115.7,-1105.9 10.5,-16.3 13.2,-36.2 8,-54.8 -2.4,-8.8 -4.5,-17.6 -6.3,-26.3 -13.7,-1.2 -26.1,-2.1 -37,-2.6"
         style="fill:#7e3e27;fill-opacity:1;fill-rule:nonzero;stroke:none"
         id="path1682" /><path
         d="m 32870.6,29230.7 c -92.7,0 -174.9,10.1 -243.9,28.6 50,-7.1 102.1,-10.5 154.2,-10.5 5.2,0 10.3,0 15.5,0.1 265.2,3.3 479.2,92.5 476.6,301 -0.2,19.9 -2.5,40.2 -6.5,60.7 11.9,-0.8 22.3,-1.2 31,-1.2 2.3,0 4.5,0.1 6.5,0.1 -1.8,-14 -0.7,-28.4 3.3,-42.3 7.8,-27.5 11.9,-54.4 12.2,-80 1,-81.2 -37.8,-144.6 -115.5,-188.5 -75.7,-42.8 -185.5,-66.3 -317.7,-67.9 -5.2,0 -10.4,-0.1 -15.7,-0.1"
         style="fill:#7e3e27;fill-opacity:1;fill-rule:nonzero;stroke:none"
         id="path1684" /><path
         d="m 33297.5,29609.4 c -8.7,0 -19.1,0.4 -31,1.2 -1.9,9.4 -4.1,18.8 -6.8,28.2 -5.2,18.6 -2.4,38.5 8.1,54.8 142.4,220.4 41.7,692.3 -121.6,1121.3 10.3,-10 21.7,-19.9 34.4,-30 32.2,-25.4 69.5,-49.7 117.5,-76.5 38.1,-21.1 78.6,-41.2 123.9,-61.6 19.8,-8.9 40.7,-17.8 62,-26.5 -0.3,-5.7 -0.3,-11.4 0.3,-17.1 39.5,-369.3 -23.4,-733.1 -164,-949.4 -8.8,-13.5 -14.3,-28.7 -16.3,-44.3 -2,0 -4.2,-0.1 -6.5,-0.1"
         style="fill:#7e3e27;fill-opacity:1;fill-rule:nonzero;stroke:none"
         id="path1686" /><path
         d="m 32546.7,29830.2 c 104.4,5.1 217.6,-4.8 310.7,-54.7 7.7,-4.2 3.2,-15.9 -5.3,-13.8 -94,22.7 -195.4,6.4 -286.6,-21.9 -66.2,-24.6 -89.4,86.6 -18.8,90.4"
         style="fill:#231f20;fill-opacity:1;fill-rule:nonzero;stroke:none"
         id="path1688" /><path
         d="m 35869.5,29830.2 c -104.3,5.1 -217.5,-4.8 -310.6,-54.7 -7.7,-4.2 -3.3,-15.9 5.2,-13.8 94.1,22.7 195.5,6.4 286.7,-21.9 66.2,-24.6 89.3,86.6 18.7,90.4"
         style="fill:#231f20;fill-opacity:1;fill-rule:nonzero;stroke:none"
         id="path1690" /><path
         d="m 34188.9,31506.3 c -787,0 -1425,473 -1425,1456.7 0,478.2 150.7,989.1 396,1387.8 127,-20.9 262.8,-40.7 408.2,-60.2 204,-27.4 409.4,-41 614.9,-41 205.7,0 411.5,13.7 615.8,41.1 149.1,20.1 288.2,40.3 417.9,61.9 246,-399 397.2,-910.7 397.2,-1389.6 0,-983.7 -638,-1456.7 -1425,-1456.7"
         style="fill:#bc785f;fill-opacity:1;fill-rule:nonzero;stroke:none"
         id="path1692" /><path
         d="m 35969.4,31347.2 v 0 c -19.3,-26.4 -25.3,-60.8 -16.2,-92.2 67.6,-230.7 87.8,-573.5 50.4,-852.9 -26.7,-200.1 -81.3,-388.5 -157.9,-545.1 -19.6,-40.1 -11.7,-88.4 19.5,-120.3 68.7,-70.1 159.9,-173.4 158.8,-260.2 -1.8,-149.3 -188.8,-245.8 -476.5,-245.8 -5.2,0 -10.4,0.1 -15.7,0.1 -132.1,1.6 -242,25.1 -317.6,67.9 -77.7,43.9 -116.6,107.3 -115.6,188.5 0.3,25.6 4.5,52.5 12.3,79.9 8.4,29.4 3.7,61 -13,86.7 -141,216.8 -203.8,581.4 -163.8,951.5 0.4,3.7 0.6,7.4 0.6,11.1 2.6,1.1 5.3,2.2 7.8,3.2 21.9,9 43.3,18.1 63.6,27.2 45.3,20.4 85.8,40.5 123.9,61.6 48,26.8 85.3,51.1 117.5,76.5 20.9,16.5 38.2,32.7 52.7,49.4 19.4,22.3 32,43.6 38.8,65.2 3,9.9 -1.9,20.3 -11.4,24.2 -9.4,3.8 -20.4,-0.2 -25.1,-9.3 -7.7,-14.9 -19.7,-28.8 -37.7,-43.6 -14.6,-11.8 -31.5,-22.9 -51.8,-33.9 -32.6,-17.8 -70.1,-33.8 -117.9,-50.6 -38.6,-13.4 -79.5,-25.6 -124.9,-37.2 -20.3,-5.2 -41.6,-10.3 -63.5,-15.1 -25.7,-5.6 -45.7,-9.6 -62.9,-12.6 l -0.6,-0.1 c -4.7,0.6 -9.4,1 -14.1,1 -5.5,0 -11,-0.4 -16.4,-1.3 -183.6,-28.8 -389.1,-43.4 -610.6,-43.4 -216.1,0 -416.9,13.9 -596.8,41.3 -4.9,0.7 -9.9,1.1 -15,1.2 -1.9,0.5 -3.9,0.9 -6,1.3 -17.2,3 -37.2,7 -62.9,12.6 -21.9,4.8 -43.2,9.9 -63.5,15.1 -45.4,11.6 -86.3,23.8 -124.9,37.2 -47.8,16.8 -85.2,32.8 -117.9,50.6 -20.3,11 -37.3,22.1 -51.8,33.9 -18,14.8 -30,28.7 -37.7,43.6 -4.7,9.1 -15.7,13.1 -25.1,9.3 -9.5,-3.9 -14.4,-14.3 -11.4,-24.2 6.8,-21.6 19.4,-42.9 38.8,-65.2 14.6,-16.7 31.8,-32.9 52.7,-49.4 32.2,-25.4 69.5,-49.7 117.5,-76.5 38.1,-21.1 78.6,-41.2 123.9,-61.6 19.8,-8.9 40.7,-17.8 62,-26.5 -0.3,-5.7 -0.3,-11.4 0.3,-17.1 39.5,-369.3 -23.4,-733.1 -164,-949.4 -16.7,-25.7 -21.5,-57.2 -13,-86.6 7.8,-27.5 11.9,-54.4 12.2,-80 1,-81.2 -37.8,-144.6 -115.5,-188.5 -75.7,-42.8 -185.5,-66.3 -317.7,-67.9 -5.2,0 -10.4,-0.1 -15.7,-0.1 -287.6,0 -474.6,96.5 -476.5,245.8 -1.1,86.8 90.2,190.1 158.9,260.2 31.2,31.9 39,80.2 19.4,120.3 -76.5,156.6 -131.1,345 -157.9,545.1 -37.1,277 -18.7,607 46.8,840.5 8.9,31.4 2.5,65.7 -17.1,91.9 -77.5,103.4 -143.1,220.2 -194.8,347.3 -110.6,271.9 -166.6,607.4 -166.6,997.5 0,773.5 215,1428.1 621.9,1893.1 380.3,434.6 912.1,674 1497.4,674 576.5,0 1085.2,-233.1 1471,-674 406.9,-465 621.9,-1119.6 621.9,-1893.1 0,-451.4 -43.2,-759.1 -140.2,-997.5 -49.6,-121.8 -112,-234.4 -185.4,-334.6 m 448.9,1332.1 c 0,803.8 -225.6,1486.5 -652.5,1974.3 -409.8,468.4 -950.6,716 -1563.7,716 -621.4,0 -1186.1,-254.3 -1590.2,-716 -426.8,-487.8 -652.4,-1170.5 -652.4,-1974.3 0,-406.1 59.1,-757.3 175.8,-1043.9 54.5,-134.1 123.5,-257.8 205.1,-367.9 -67.8,-247.8 -86.7,-592.7 -48,-881.8 27.9,-208.3 84.5,-405.6 163.9,-571.6 -89,-92 -187,-212 -185.4,-339.1 2.7,-223.3 238.2,-367.5 599.7,-367.5 5.8,0 11.5,0 17.3,0.1 152.8,1.9 283,30.8 376.7,83.8 118.2,66.7 179.8,169.6 178.2,297.4 -0.5,34 -5.4,69.1 -14.9,104.5 151.8,238.3 219,610.1 181.2,1000.4 180.2,-26.1 379.6,-39.4 593,-39.4 218.9,0 423,14 607.1,41.5 -38.2,-391.1 29,-763.6 181.1,-1002.5 -9.5,-35.4 -14.5,-70.5 -14.9,-104.5 -1.6,-127.8 60,-230.7 178.1,-297.4 93.7,-53 224,-81.9 376.8,-83.8 5.8,-0.1 11.5,-0.1 17.2,-0.1 361.6,0 597,144.2 599.8,367.5 1.5,127.1 -96.4,247.1 -185.4,339.1 79.4,166 136,363.3 163.9,571.6 39.6,296.2 19.2,646.5 -51.9,895.6 77.2,106.6 142.8,225.7 195,354.1 103.3,253.8 149.4,575.8 149.4,1043.9"
         style="fill:#231f20;fill-opacity:1;fill-rule:nonzero;stroke:none"
         id="path1694" /><path
         d="m 31679.6,33649 c -203.7,-476.7 -217,-1885.8 269.9,-2097.1 232.7,-69.3 530.3,59.7 509.3,328.9 -24.5,474.6 -65.2,973.6 62.9,1463.2 l 400.5,1068.5 c 4.6,17.5 -26.8,132.4 -70.3,139 -557,13.1 -970.8,-381.2 -1172.3,-902.5"
         style="fill:#a64b2a;fill-opacity:1;fill-rule:nonzero;stroke:none"
         id="path1696" /><path
         d="m 31722,31968.2 c -48.9,145.3 -82.8,327.1 -98.1,536.3 -30.5,416.3 19.8,887.9 119.5,1121.3 l 0.8,1.9 c 128.9,333.6 331.8,583.4 578.7,726.5 -230.2,-163.2 -406.9,-413 -518.6,-701.8 -142.6,-333.9 -191.9,-1125.4 -41.3,-1642.1 -15.1,-11.2 -28.8,-25.6 -41,-42.1"
         style="fill:#d3a595;fill-opacity:1;fill-rule:nonzero;stroke:none"
         id="path1698" /><path
         d="m 32568.4,32060.5 c -17,12.1 -34.7,23.2 -52.9,33.1 -24.1,389.1 -62.2,789.7 27.8,1181.7 19.3,-40.9 62.6,-141.9 53,-200 -56.3,-339.9 -45.2,-681.9 -27.9,-1014.8"
         style="fill:#7e3e27;fill-opacity:1;fill-rule:nonzero;stroke:none"
         id="path1700" /><path
         d="m 32056.2,31473.9 c 118.7,-6.2 239.1,27.2 328.2,94.6 101.7,76.9 152.3,188.9 142.7,315.3 -2,38.6 -4,77.4 -6.2,116.3 -23.1,428.5 -77.4,872.9 29.8,1306.1 3.5,14.1 -3.8,28.7 -17.6,34.9 -18.4,8.2 -40,-1.6 -44.6,-20.3 -111.1,-446.2 -116.6,-892.7 -93.2,-1326.3 2.1,-39.1 4.3,-77.9 6.2,-116.7 l 0.1,-1.5 c 8.6,-110.2 -47.3,-177 -95.7,-213.6 -85.6,-64.8 -217.1,-86.7 -328.6,-54.9 -186.5,84.4 -318.5,419 -353.4,896.7 -30.5,416.3 19.8,887.9 119.5,1121.3 l 0.8,1.9 c 213.4,552 629.1,874.9 1112,863.6 l 2.5,119.9 c -538.7,12.6 -999.3,-339 -1232.2,-940.6 -107.5,-252.6 -160.2,-735 -128.1,-1173.8 22.9,-313.5 109.4,-860.3 430.8,-999.8 l 7.4,-2.6 c 38.7,-11.6 79.1,-18.3 119.6,-20.5"
         style="fill:#231f20;fill-opacity:1;fill-rule:nonzero;stroke:none"
         id="path1702" /><path
         d="m 31920.2,32076 168,51 c 76,23 154,18.8 222.2,-6.9 17.1,-6.5 36.1,-6.3 54,-0.8 l 0.2,0.1 c 79.2,24 287.4,-167.3 332.2,-307 31.3,-98 -113,-152.3 -113,-152.3 31.2,-97.4 -28.1,-202.1 -132.4,-233.7 l -454.9,-138 c -69.6,-21.1 -142.9,14.5 -163.7,79.5 l -113.3,353.6 c -47.1,147.2 43.2,306.7 200.7,354.5"
         style="fill:#a64b2a;fill-opacity:1;fill-rule:nonzero;stroke:none"
         id="path1704" /><path
         d="m 32750,31803.2 c -33.2,148.2 -160.3,267.9 -298.7,319.7 -23.9,8 -74.2,22.5 -94.2,5.4 -6.3,-5.4 -5.2,-15.6 2.2,-19.2 4.4,-2.2 9.6,-3.8 14.6,-5.1 18,-4.5 35,-12.5 49.6,-24 84.6,-66.9 172,-189.7 214.8,-281 15.7,-33.5 -34.3,-65.6 -64.2,-80.7 -108.1,-37.5 17.4,-138.4 -99,-217.1 -8.9,-19.2 -463.7,-146.4 -492.8,-158.1 -37.6,-14.5 -97.8,0.1 -111.4,40.2 -21.4,81.7 -106.8,347.3 -125.9,423.7 -5.4,34.1 -1.6,71.8 8.5,105.9 4.2,14.3 10.4,27.9 18.5,40.4 5.5,8.5 16.5,33.4 21.5,52.7 2.6,10.2 -8.5,18.2 -17.5,12.9 -99.9,-59.2 -144.6,-249.3 -100.8,-354.7 29.1,-60.4 88.5,-339 141.6,-381.2 45.3,-47.3 119.4,-66.7 183,-49.2 l 454.8,137.7 c 6.8,1.8 15.8,5.1 24.5,8.2 102,37.3 173.4,141 161.6,249.6 64,36.5 118.7,93.1 109.3,173.9"
         style="fill:#231f20;fill-opacity:1;fill-rule:nonzero;stroke:none"
         id="path1706" /><path
         d="m 32263.8,31678.4 c 76.9,-240 173.9,-437.9 311.8,-396 194.9,59.1 61.8,341.1 -15.1,581.1 l -296.7,-185.1"
         style="fill:#a64b2a;fill-opacity:1;fill-rule:nonzero;stroke:none"
         id="path1708" /><path
         d="m 32525.8,31302.7 c -28.6,0 -54,11.7 -77.1,32.8 6.9,41.9 3.7,95.1 -15.9,163 -0.6,2.1 -25.4,64.5 -52.2,131.7 10.7,-9.7 22.7,-22 24.1,-25.1 67.1,-151.5 51.3,-254.4 122.8,-254.4 10.1,0 22,2 36.1,6.3 37.6,11.4 59.5,32.4 70.5,60.3 -1.9,-24.8 -7.3,-46.5 -17,-64 -12.6,-22.7 -26.9,-36.2 -56.7,-45.2 -12,-3.7 -23.5,-5.4 -34.6,-5.4"
         style="fill:#7e3e27;fill-opacity:1;fill-rule:nonzero;stroke:none"
         id="path1710" /><path
         d="m 32556.7,31853.6 c -17.5,-5.3 -6.2,-61.4 4.1,-91.7 51.2,-151.2 102,-326.3 56.3,-408.6 -12.6,-22.7 -26.9,-36.2 -56.7,-45.2 -115.6,-35.1 -183.6,104.5 -245.9,299 -5.2,16.3 -19.9,13.4 -37.4,8.1 -17.5,-5.3 -29.4,-17 -24.2,-33.3 47.5,-148.3 67.8,-179.3 112.5,-246.8 62.5,-94.3 135,-110.3 214,-86.3 47,14.3 75.2,38.8 96.2,76.6 58.7,105.6 -1,282.2 -58.8,452.9 -10.2,30.1 -42.5,80.6 -60.1,75.3"
         style="fill:#231f20;fill-opacity:1;fill-rule:nonzero;stroke:none"
         id="path1712" /><path
         d="m 32353.4,31669.7 c 1.6,-5.1 50.9,-168.2 52.3,-173.1 46.5,-158 1.6,-239 -89.8,-266.7 -132.8,-40.3 -206.8,134.6 -260.5,302.5 l 298,137.3"
         style="fill:#a64b2a;fill-opacity:1;fill-rule:nonzero;stroke:none"
         id="path1714" /><path
         d="m 32272.7,31256.9 c -48.4,0 -87.2,41.9 -117.3,94.5 25.3,-23.3 53.8,-37 86.3,-37 12,0 24.5,1.9 37.6,5.9 58.2,17.6 97.5,56.9 106.4,124 27.6,-147.3 -58.4,-174.7 -86.7,-183.3 -9,-2.8 -17.9,-4.1 -26.3,-4.1"
         style="fill:#7e3e27;fill-opacity:1;fill-rule:nonzero;stroke:none"
         id="path1716" /><path
         d="m 32054.7,31530.6 -13.6,-4.1 c -12.9,-3.9 -20.2,-17 -16.2,-29.1 77.3,-231.6 166.6,-344.6 296.2,-305.3 69.5,21.1 174.3,88.9 111.7,306.4 -0.7,2.5 -37.5,94.8 -69.8,175.9 -5.5,13.8 -26.2,7.6 -23.4,-6.9 16.4,-83.6 34.9,-177.5 35.4,-179.4 54.6,-185.8 -45.1,-217.7 -76,-227.1 -114.1,-34.6 -180.9,161.3 -210,252.9 -4.3,13.7 -19.7,21.2 -34.3,16.7"
         style="fill:#231f20;fill-opacity:1;fill-rule:nonzero;stroke:none"
         id="path1718" /><path
         d="m 32071.1,31579.8 c 14.2,-42.4 46.6,-147.3 49.5,-188.4 6.3,-87.3 -22,-165.2 -78.3,-181.2 -62.6,-17.8 -153.4,11.8 -198,144.2 l 226.8,225.4"
         style="fill:#a64b2a;fill-opacity:1;fill-rule:nonzero;stroke:none"
         id="path1720" /><path
         d="m 31992.7,31198.7 c -21.4,4.3 -44.2,14.4 -66.1,30.4 2,-0.2 4,-0.5 6.1,-0.7 24.9,-16 51.1,-22.9 75.4,-22.9 2.5,0 4.8,0.1 7.2,0.2 -7.5,-2.4 -15.1,-4.7 -22.6,-7 m 76.9,25.6 c 12.5,9.8 22.8,23.5 30.9,40 l 17.7,5.4 c -4.5,-13 -10.8,-24.4 -18.9,-34.2 -9.9,-3.9 -19.8,-7.6 -29.7,-11.2"
         style="fill:#bdbbbc;fill-opacity:1;fill-rule:nonzero;stroke:none"
         id="path1722" /><path
         d="m 32016.4,31196.3 c -7.6,0 -15.5,0.8 -23.7,2.4 7.5,2.3 15.1,4.6 22.6,7 9.4,0.6 18.5,2.1 27,4.5 10,2.9 19.1,7.7 27.3,14.1 9.9,3.6 19.8,7.3 29.7,11.2 -13.9,-16.9 -33,-29 -57.1,-35.8 -8,-2.3 -16.7,-3.4 -25.8,-3.4"
         style="fill:#231f20;fill-opacity:1;fill-rule:nonzero;stroke:none"
         id="path1724" /><path
         d="m 31932.7,31228.4 c -2.1,0.2 -4.1,0.5 -6.1,0.7 -37.5,27.4 -72.4,72.3 -93.9,136.2 l 14.8,4.1 c 1.7,-2.2 3.5,-4.4 5.2,-6.6 l -8.4,-8.4 c 21.5,-63.8 53.7,-103.7 88.4,-126 m 167.8,35.9 c 5,10.1 9.1,21.3 12.3,33.2 3.1,-4.9 6.2,-9.7 9.3,-14.3 -1.1,-4.7 -2.4,-9.2 -3.9,-13.5 l -17.7,-5.4"
         style="fill:#231f20;fill-opacity:1;fill-rule:nonzero;stroke:none"
         id="path1726" /><path
         d="m 32122.1,31283.2 c -3.1,4.6 -6.2,9.4 -9.3,14.3 6.5,24 9.4,51.3 8.5,79.9 6.8,-36.5 7,-68.1 0.8,-94.2"
         style="fill:#231f20;fill-opacity:1;fill-rule:nonzero;stroke:none"
         id="path1728" /><path
         d="m 32008.1,31205.5 c -24.3,0 -50.5,6.9 -75.4,22.9 -34.7,22.3 -66.9,62.2 -88.4,126 l 8.4,8.4 c 40.5,-49.2 90.5,-72.6 131.6,-72.6 9,0 17.7,1.2 25.7,3.5 60.2,17.1 89.4,66.7 83.6,143.6 l 11,3 c 7.5,-22.4 13.1,-43.4 16.7,-62.9 0.9,-28.6 -2,-55.9 -8.5,-79.9 -3.2,-11.9 -7.3,-23.1 -12.3,-33.2 -8.1,-16.5 -18.4,-30.2 -30.9,-40 -8.2,-6.4 -17.3,-11.2 -27.3,-14.1 -8.5,-2.4 -17.6,-3.9 -27,-4.5 -2.4,-0.1 -4.7,-0.2 -7.2,-0.2"
         style="fill:#7e3e27;fill-opacity:1;fill-rule:nonzero;stroke:none"
         id="path1730" /><path
         d="m 32142.3,31452.9 -2.7,8.3 c -50.1,154.6 -63.9,163.7 -77.9,159.8 -2.5,-0.7 -6.1,-2.6 -8.7,-7.5 -13.4,-25.6 6.7,-168.8 11.7,-183.6 13.2,-39.1 31.8,-111.2 8.6,-155.2 -9.1,-17.5 -23.8,-28.9 -44.8,-34.9 -41.5,-11.7 -118.3,29.6 -154.7,137.7 -7,20.8 -33.2,34.1 -54.8,28 -10.4,-3 -18.9,-9.8 -23.8,-19.3 -5.1,-9.6 -5.9,-20.7 -2.4,-31.3 43.6,-129.2 141.1,-196.8 222.2,-198 13.5,-0.2 26.5,1.4 38.8,4.9 23.9,6.8 67.9,25.4 93.3,73.5 27.7,52.7 26.1,126 -4.8,217.6"
         style="fill:#231f20;fill-opacity:1;fill-rule:nonzero;stroke:none"
         id="path1732" /><path
         d="m 32323.3,36575.3 c 0,-538.3 -436.3,-974.7 -974.7,-974.7 -538.3,0 -974.7,436.4 -974.7,974.7 0,538.4 436.4,974.7 974.7,974.7 538.4,0 974.7,-436.3 974.7,-974.7"
         style="fill:#a64b2a;fill-opacity:1;fill-rule:nonzero;stroke:none"
         id="path1734" /><path
         d="m 30453.6,36705 c 63,437.4 440.4,774.7 895,774.7 192.3,0 370.7,-60.3 517.3,-163 -6.9,-11 -13.8,-22.1 -20.6,-33.3 -137.5,73.5 -293.7,114.7 -457.4,114.7 -37,0 -74.3,-2.1 -112,-6.4 -398.5,-45.6 -713.2,-325.6 -822.3,-686.7"
         style="fill:#d7ae9f;fill-opacity:1;fill-rule:nonzero;stroke:none"
         id="path1736" /><path
         d="m 31348.6,37479.7 c -498.6,0 -904.3,-405.7 -904.3,-904.4 0,-498.6 405.7,-904.3 904.3,-904.3 498.7,0 904.4,405.7 904.4,904.3 0,498.7 -405.7,904.4 -904.4,904.4 m 0,-1949.4 c -576.2,0 -1045,468.8 -1045,1045 0,576.3 468.8,1045.1 1045,1045.1 576.3,0 1045.1,-468.8 1045.1,-1045.1 0,-576.2 -468.8,-1045 -1045.1,-1045"
         style="fill:#000000;fill-opacity:1;fill-rule:nonzero;stroke:none"
         id="path1738" /><path
         d="m 32203.7,36431.6 c 0,-389 -315.3,-704.3 -704.3,-704.3 -389,0 -704.3,315.3 -704.3,704.3 0,389 315.3,704.4 704.3,704.4 389,0 704.3,-315.4 704.3,-704.4"
         style="fill:#d7a86e;fill-opacity:1;fill-rule:nonzero;stroke:none"
         id="path1740" /><path
         d="m 31021.1,35964.1 c -118,120.7 -190.8,285.8 -190.8,467.5 0,369 300.1,669.2 669.1,669.2 78.4,0 153.7,-13.6 223.7,-38.5 -9.1,-18.4 -18,-36.9 -26.7,-55.5 -19.4,1.7 -39.1,2.5 -58.9,2.5 -389,0 -704.3,-315.4 -704.3,-704.3 0,-123.7 31.9,-239.9 87.9,-340.9"
         style="fill:#987853;fill-opacity:1;fill-rule:nonzero;stroke:none"
         id="path1742" /><path
         d="m 31499.4,37100.8 c -369,0 -669.1,-300.2 -669.1,-669.2 0,-368.9 300.1,-669.1 669.1,-669.1 369,0 669.1,300.2 669.1,669.1 0,369 -300.1,669.2 -669.1,669.2 m 0,-1408.7 c -407.8,0 -739.5,331.8 -739.5,739.5 0,407.8 331.7,739.5 739.5,739.5 407.7,0 739.5,-331.7 739.5,-739.5 0,-407.7 -331.8,-739.5 -739.5,-739.5"
         style="fill:#000000;fill-opacity:1;fill-rule:nonzero;stroke:none"
         id="path1744" /><path
         d="m 36054.4,36575.3 c 0,-538.3 436.4,-974.7 974.7,-974.7 538.4,0 974.7,436.4 974.7,974.7 0,538.4 -436.3,974.7 -974.7,974.7 -538.3,0 -974.7,-436.3 -974.7,-974.7"
         style="fill:#a64b2a;fill-opacity:1;fill-rule:nonzero;stroke:none"
         id="path1746" /><path
         d="m 37924.2,36705 c -109.1,361.1 -423.8,641.1 -822.4,686.7 -37.6,4.3 -75,6.4 -111.9,6.4 -167.1,0 -326.4,-43 -465.9,-119.3 -6.6,10.8 -13.3,21.6 -20,32.4 148.1,106 329.5,168.5 525.1,168.5 454.7,0 832,-337.3 895.1,-774.7"
         style="fill:#d7ae9f;fill-opacity:1;fill-rule:nonzero;stroke:none"
         id="path1748" /><path
         d="m 37029.1,37479.7 c 498.7,0 904.4,-405.7 904.4,-904.4 0,-498.6 -405.7,-904.3 -904.4,-904.3 -498.6,0 -904.3,405.7 -904.3,904.3 0,498.7 405.7,904.4 904.3,904.4 m 0,-1949.4 c 576.3,0 1045.1,468.8 1045.1,1045 0,576.3 -468.8,1045.1 -1045.1,1045.1 -576.2,0 -1045,-468.8 -1045,-1045.1 0,-576.2 468.8,-1045 1045,-1045"
         style="fill:#000000;fill-opacity:1;fill-rule:nonzero;stroke:none"
         id="path1750" /><path
         d="m 36174.1,36431.6 c 0,-389 315.3,-704.3 704.3,-704.3 389,0 704.3,315.3 704.3,704.3 0,389 -315.3,704.4 -704.3,704.4 -389,0 -704.3,-315.4 -704.3,-704.4"
         style="fill:#d7a86e;fill-opacity:1;fill-rule:nonzero;stroke:none"
         id="path1752" /><path
         d="m 37488.2,36156.3 c 0.1,1.4 0.1,2.8 0.2,4 7.6,150.9 -5.4,283.3 -39.7,404.9 -14,49.2 -48.9,137.3 -126,173.8 -12,5.6 -24.6,9.8 -37.6,12.4 -129.2,157.4 -325.3,257.9 -544.8,257.9 -23.5,0 -46.7,-1.2 -69.6,-3.4 -8.3,17.8 -16.7,35.3 -25.5,53 72.7,27 151.3,41.9 233.2,41.9 369,0 669.1,-300.2 669.1,-669.2 0,-98.1 -21.2,-191.3 -59.3,-275.3"
         style="fill:#987853;fill-opacity:1;fill-rule:nonzero;stroke:none"
         id="path1754" /><path
         d="m 36878.4,37100.8 c 369,0 669.1,-300.2 669.1,-669.2 0,-368.9 -300.1,-669.1 -669.1,-669.1 -369,0 -669.1,300.2 -669.1,669.1 0,369 300.1,669.2 669.1,669.2 m 0,-1408.7 c 407.8,0 739.5,331.8 739.5,739.5 0,407.8 -331.7,739.5 -739.5,739.5 -407.8,0 -739.5,-331.7 -739.5,-739.5 0,-407.7 331.7,-739.5 739.5,-739.5"
         style="fill:#000000;fill-opacity:1;fill-rule:nonzero;stroke:none"
         id="path1756" /><path
         d="m 36836.3,36009 c 0,901.5 -622.5,1848.9 -1521.9,2303.4 -87,43.9 -137.9,134.9 -137.2,232.4 -0.8,142.7 121.3,443.7 -42.4,443.9 -143.5,0 -458.6,-231.6 -532.5,-384.5 -14.4,-29.7 -47.4,-45.7 -79.9,-40.6 -145.9,19.8 14.6,280.1 -126.9,273.5 -86.1,0 -250.9,-106.4 -349.6,-210 -28,-29.5 -65.5,-48 -106.1,-52.1 -1350.7,-137 -2408.8,-1390.6 -2408.8,-2566 82.3,-1237.3 609.9,-1458.1 2046.2,-1650.7 402.4,-54 810.1,-54 1212.5,0.1 1436.8,193 1963.7,412.9 2046.6,1650.6"
         style="fill:#a64b2a;fill-opacity:1;fill-rule:nonzero;stroke:none"
         id="path1758" /><path
         d="m 34183,34386.1 c -199.4,0 -398.8,13.2 -596.8,39.8 -1234.8,165.7 -1742.6,356 -1919.3,1098 241.5,-626.8 808.6,-791 1910.3,-938.8 201,-27 403.5,-40.5 605.9,-40.5 202.7,0 405.3,13.5 606.6,40.6 1101.9,148 1668.6,311.8 1910.3,938.3 -177.2,-741.3 -685,-931.7 -1919.4,-1097.5 -198.3,-26.6 -397.9,-39.9 -597.6,-39.9"
         style="fill:#783c27;fill-opacity:1;fill-rule:nonzero;stroke:none"
         id="path1760" /><path
         d="m 36664.9,36649.8 c -244.1,603.8 -731.7,1149.7 -1350.5,1462.4 -85.4,43.2 -136,131.6 -137.2,227 28.1,-36.3 64.1,-66.4 106.4,-87.7 661.6,-334.4 1172.2,-944 1381.3,-1601.7"
         style="fill:#d7ae9f;fill-opacity:1;fill-rule:nonzero;stroke:none"
         id="path1762" /><path
         d="m 31693.5,36627.4 c 291.1,959.4 1219.7,1774.8 2253.2,1879.7 56.5,5.7 109.3,31.6 148.7,73 96.8,101.7 237.6,184.1 295.4,188.5 0.8,-14.7 -0.6,-37 -1.5,-52 -1.3,-21.3 -3.2,-50.1 -0.3,-79.9 -87.6,-5 -246.8,-108.7 -343.1,-209.7 -28,-29.5 -65.5,-48.1 -106.1,-52.2 -1036.3,-105.1 -1900.3,-867.4 -2246.3,-1747.4 m 2840.9,1735.1 c -3.6,0 -7.2,0.3 -10.8,0.8 l -1.2,0.1 c -45.4,6.4 -76.5,49 -69,94.3 3,18.5 5.7,36.7 7.3,54.1 14.4,-7.5 31.5,-12.9 51.9,-15.7 7.2,-1.1 14.4,-1.7 21.5,-1.7 54.6,0 105.9,30.9 129.6,80.1 29.5,60.9 115.4,148.9 218.9,224.1 115.8,84.2 210.1,121.8 252.1,121.8 5.6,0 8.8,-0.7 9.5,-0.7 0,0 0.1,0 0.1,0 13.3,-15.1 7.8,-75.6 -0.5,-131.5 -2.9,0.2 -5.9,0.3 -9,0.3 -143.5,0 -458.6,-231.6 -532.5,-384.4 -12.6,-26.1 -39.5,-41.6 -67.9,-41.6"
         style="fill:#d7ae9f;fill-opacity:1;fill-rule:nonzero;stroke:none"
         id="path1764" /><path
         d="m 31599.3,36011.3 c 77.4,-1156 517.1,-1388.2 1986.9,-1585.4 396.3,-53.1 798.1,-53.1 1194.4,0.1 1469.7,197.4 1909.5,429.6 1987.4,1585.3 -1,878 -611.1,1798.9 -1484.4,2240.2 -108.6,54.8 -175.5,167.4 -174.6,293.8 -0.3,46.8 10.2,103.8 21.4,164.2 10.3,55.9 34.4,186.9 13.9,210.2 0,-0.2 -3.3,0.7 -9.6,0.7 -42,0 -136.3,-37.6 -252.1,-121.8 -103.5,-75.2 -189.4,-163.2 -218.9,-224.1 -26.9,-55.6 -88.9,-87.8 -151.1,-78.4 -136,18.8 -127.4,155 -123.3,220.5 0.9,15 2.3,37.3 1.5,52 -57.8,-4.4 -198.6,-86.8 -295.4,-188.5 -39.4,-41.4 -92.2,-67.3 -148.7,-73 -1249.7,-126.8 -2346.1,-1292.7 -2347.4,-2495.8 M 34183,34249.6 c -205.5,0 -410.9,13.6 -614.9,41 -736.6,98.8 -1228.3,203.5 -1561.9,446.1 -338.1,245.8 -500.6,625 -543.3,1267.8 l -0.1,4.5 c 0,591 260.8,1217.2 715.6,1718.3 475.5,523.9 1098.7,849 1754.6,915.6 24,2.4 46.6,13.5 63.5,31.3 91,95.5 273.9,229.9 397.3,231.1 49.7,1.8 79.9,-17.7 96.5,-34.6 42.7,-43.4 38.8,-106.8 35.2,-162.7 -1.4,-22.2 -3.9,-62.9 1.6,-75.9 1,-0.3 2.4,-0.6 4.5,-0.9 l 1.3,-0.2 c 3.6,-0.5 7,1.1 7.9,2.9 80.8,167 413.5,423 594,423 60.3,0 95.5,-27.2 114.4,-49.9 61.2,-73.6 37.9,-200 15.4,-322.2 -9.5,-51.5 -19.3,-104.8 -19.1,-139.7 -0.5,-74.9 37.7,-140.5 99.7,-171.8 918.1,-463.9 1559.3,-1436.2 1559.3,-2364.3 l -0.1,-4.5 c -43.1,-643 -205.6,-1022.2 -543.6,-1267.8 -333.3,-242.3 -825.1,-347 -1562,-446 -204.3,-27.4 -410.1,-41.1 -615.8,-41.1"
         style="fill:#231f20;fill-opacity:1;fill-rule:nonzero;stroke:none"
         id="path1766" /><path
         d="m 36154.2,36639.5 c 0,527.6 -615.3,955.3 -1374.2,955.3 -187.6,0 -366.4,-26.2 -529.3,-73.5 -43.7,-12.7 -90.4,-12.7 -134.1,0 -162.9,47.3 -341.7,73.5 -529.4,73.5 -758.9,0 -1374.1,-427.7 -1374.1,-955.3 0,-295.4 192.9,-559.4 495.8,-734.6 63.4,-36.7 100.7,-100.3 100.6,-168.7 v -1.2 c 0,-527.5 615.2,-955.2 1374.1,-955.2 759,0 1374.2,427.7 1374.2,955.2 v 1.2 c -0.2,68.4 37.2,132 100.6,168.7 302.9,175.2 495.8,439.2 495.8,734.6"
         style="fill:#d7a86e;fill-opacity:1;fill-rule:nonzero;stroke:none"
         id="path1768" /><path
         d="m 33587.2,37559.6 c -738.3,0 -1338.9,-412.7 -1338.9,-920.1 0,-271.7 174.3,-528.4 478.2,-704.2 74.2,-42.9 118.4,-117.3 118.2,-199.2 0,-508.4 600.7,-921.1 1338.9,-921.1 738.3,0 1339,412.7 1339,920 -0.2,83 44,157.4 118.1,200.3 304,175.8 478.3,432.5 478.3,704.2 0,507.4 -600.7,920.1 -1339,920.1 -180.1,0 -354.9,-24.2 -519.5,-72.1 -50.3,-14.6 -103.4,-14.6 -153.7,0 -164.6,47.9 -339.5,72.1 -519.6,72.1 m 596.4,-2815 c -777.1,0 -1409.3,444.3 -1409.3,990.4 0.1,57.6 -30.9,109.3 -83,139.4 -326.3,188.7 -513.4,467.6 -513.4,765.1 0,546.2 632.2,990.5 1409.3,990.5 186.8,0 368.2,-25.2 539.2,-74.9 37.5,-10.8 77,-10.9 114.4,0 171.1,49.7 352.5,74.9 539.2,74.9 777.1,0 1409.3,-444.3 1409.3,-990.5 0,-297.5 -187.1,-576.4 -513.3,-765.1 -52.1,-30.1 -83.1,-81.8 -83.1,-138.2 0.1,-547.3 -632.2,-991.6 -1409.3,-991.6"
         style="fill:#231f20;fill-opacity:1;fill-rule:nonzero;stroke:none"
         id="path1770" /><path
         d="m 35745.4,36421.9 c 0,-285.4 -231.4,-516.8 -516.8,-516.8 -285.5,0 -516.9,231.4 -516.9,516.8 0,285.5 231.4,516.9 516.9,516.9 285.4,0 516.8,-231.4 516.8,-516.9"
         style="fill:#f1f2f2;fill-opacity:1;fill-rule:nonzero;stroke:none"
         id="path1772" /><path
         d="m 35228.6,35926.1 c -273.5,0 -495.9,222.4 -495.9,495.8 0,273.4 222.4,495.9 495.9,495.9 273.4,0 495.8,-222.5 495.8,-495.9 0,-273.4 -222.4,-495.8 -495.8,-495.8"
         style="fill:#231f20;fill-opacity:1;fill-rule:nonzero;stroke:none"
         id="path1774" /><path
         d="m 35151.1,36616.1 c 0,-83.2 -67.4,-150.6 -150.7,-150.6 -83.2,0 -150.6,67.4 -150.6,150.6 0,83.3 67.4,150.7 150.6,150.7 83.3,0 150.7,-67.4 150.7,-150.7"
         style="fill:#f1f2f2;fill-opacity:1;fill-rule:nonzero;stroke:none"
         id="path1776" /><path
         d="m 35647.1,37001.3 c 0,-58.1 -187.4,0 -418.5,0 -231.2,0 -418.6,-58.1 -418.6,0 0,58 187.4,175.1 418.6,175.1 231.1,0 418.5,-117.1 418.5,-175.1"
         style="fill:#231f20;fill-opacity:1;fill-rule:nonzero;stroke:none"
         id="path1778" /><path
         d="m 33655.6,36421.9 c 0,-277.4 -231.4,-502.3 -516.9,-502.3 -285.4,0 -516.8,224.9 -516.8,502.3 0,277.4 231.4,502.3 516.8,502.3 285.5,0 516.9,-224.9 516.9,-502.3"
         style="fill:#f1f2f2;fill-opacity:1;fill-rule:nonzero;stroke:none"
         id="path1780" /><path
         d="m 33138.7,35940.6 c -273.4,0 -495.8,216 -495.8,481.3 0,265.4 222.4,481.3 495.8,481.3 273.4,0 495.9,-215.9 495.9,-481.3 0,-265.3 -222.5,-481.3 -495.9,-481.3"
         style="fill:#231f20;fill-opacity:1;fill-rule:nonzero;stroke:none"
         id="path1782" /><path
         d="m 33061.3,36616.1 c 0,-83.2 -67.5,-150.6 -150.7,-150.6 -83.2,0 -150.7,67.4 -150.7,150.6 0,83.3 67.5,150.7 150.7,150.7 83.2,0 150.7,-67.4 150.7,-150.7"
         style="fill:#f1f2f2;fill-opacity:1;fill-rule:nonzero;stroke:none"
         id="path1784" /><path
         d="m 33559.7,37001.3 c 0,-58.1 -187.4,0 -418.5,0 -231.2,0 -418.6,-58.1 -418.6,0 0,58 187.4,175.1 418.6,175.1 231.1,0 418.5,-117.1 418.5,-175.1"
         style="fill:#231f20;fill-opacity:1;fill-rule:nonzero;stroke:none"
         id="path1786" /><path
         d="m 34762.9,35475.9 c 0.1,24.6 -19.7,44.5 -44.2,44.7 h -0.3 c -24.4,0 -44.4,-19.7 -44.4,-44.2 -0.1,-18.1 -3.3,-41.6 -23.4,-63.5 -9.9,-11.1 -24.4,-21.8 -44.8,-31.2 -53.5,-24.5 -120.2,-27.8 -155.9,-27.6 -59.1,0.3 -115.4,22.7 -158.4,63.1 -40.6,38 -63.6,87.5 -63.4,135.8 v 0.2 0.3 c 0,1.3 -0.3,2.4 -0.4,3.6 -0.1,1.7 -0.2,3.5 -0.5,5 -0.3,1.4 -0.8,2.6 -1.2,3.9 l -0.1,0.3 c -0.4,1.4 -0.7,2.9 -1.3,4.1 -0.6,1.3 -1.2,2.5 -1.9,3.7 -0.7,1.3 -1.3,2.7 -2.2,3.9 -0.7,1.1 -1.7,2.1 -2.6,3.2 -1,1.2 -1.8,2.4 -2.7,3.4 -1,1 -2.2,1.8 -3.3,2.7 -1.1,0.8 -2.2,1.9 -3.4,2.7 -1.1,0.8 -2.4,1.4 -3.6,2 -1.3,0.7 -2.5,1.6 -3.9,2.1 -1.4,0.6 -2.8,0.9 -4.2,1.4 -1.4,0.4 -2.7,0.9 -4.1,1.2 -1.5,0.3 -3.1,0.3 -4.7,0.5 -1.4,0.1 -2.7,0.4 -4.1,0.4 h -0.3 -0.2 c -1.3,0 -2.7,-0.3 -4.1,-0.4 -1.6,-0.2 -3.2,-0.2 -4.6,-0.5 -1.5,-0.3 -2.9,-0.8 -4.3,-1.3 -1.4,-0.4 -2.8,-0.7 -4,-1.3 -1.5,-0.6 -2.8,-1.4 -4.2,-2.2 -1.1,-0.6 -2.4,-1.2 -3.5,-1.9 -1.3,-0.9 -2.3,-1.9 -3.5,-2.9 -1,-0.8 -2.1,-1.6 -3,-2.5 -1.1,-1.1 -2,-2.4 -2.9,-3.6 -0.8,-1 -1.7,-1.9 -2.5,-3 -0.8,-1.2 -1.5,-2.6 -2.2,-4 -0.6,-1.2 -1.4,-2.3 -1.9,-3.6 -0.6,-1.2 -0.9,-2.7 -1.4,-4.1 l -0.1,-0.3 c -0.2,-1.3 -0.8,-2.6 -1,-3.9 -0.4,-1.5 -0.4,-3.3 -0.6,-5 -0.1,-1.2 -0.4,-2.3 -0.4,-3.6 v -0.3 -0.2 c 0.3,-48.3 -22.9,-97.8 -63.4,-135.8 -43.1,-40.4 -99.3,-62.8 -158.5,-63.1 -35.2,-0.3 -102.3,3.1 -155.7,27.6 -20.4,9.4 -34.8,20.1 -45,31.2 -19.9,21.9 -23.2,45.4 -23.3,63.5 -0.1,24.6 -19.8,44.2 -44.6,44.2 -24.5,-0.2 -44.4,-20.1 -44.3,-44.7 0.4,-60 24.6,-109.4 70.7,-145.4 -4.1,-16.6 -6.3,-34.1 -6.3,-52.3 0,-189.6 230.6,-397.6 514.8,-397.6 284.4,0 515,208 515,397.6 0,18.2 -2.2,35.7 -6.4,52.3 46.2,36 70.4,85.4 70.7,145.4"
         style="fill:#231f20;fill-opacity:1;fill-rule:nonzero;stroke:none"
         id="path1788" /><path
         d="m 34364.8,35057.3 c 0,72.7 -81.1,118 -181.1,118 -100.1,0 -181.2,-37.9 -181.2,-110.6 0,-72.8 81.1,-113.3 181.2,-113.3 100,0 181.1,33.2 181.1,105.9"
         style="fill:#ed1c24;fill-opacity:1;fill-rule:nonzero;stroke:none"
         id="path1790" /><path
         d="m 34183.7,35070.7 c -37.5,0 -68,16.8 -68,39.4 0,22.5 30.5,42.1 68,42.1 37.5,0 67.9,-21.8 67.9,-44.4 0,-22.6 -30.4,-37.1 -67.9,-37.1"
         style="fill:#f68e92;fill-opacity:1;fill-rule:nonzero;stroke:none"
         id="path1792" /><path
         d="m 34510.9,35916 c 0,-110.8 -146.5,-299.1 -327.3,-299.1 -180.7,0 -327.2,188.3 -327.2,299.1 0,110.8 146.5,102.1 327.2,102.1 180.8,0 327.3,8.7 327.3,-102.1"
         style="fill:#3c2415;fill-opacity:1;fill-rule:nonzero;stroke:none"
         id="path1794" /><path
         d="m 34113.1,35983 c -94.9,0 -179.8,-2.8 -209.4,-32.3 -5.2,-5.2 -12.1,-14.4 -12.1,-34.7 0,-88 126.2,-263.9 292,-263.9 165.8,0 292.1,175.9 292.1,263.9 0,20.3 -6.9,29.5 -12.1,34.7 -33.1,33 -134.9,32.6 -242.9,32.3 l -37.1,-0.1 -37,0.1 c -11.3,0 -22.4,0 -33.5,0 z m 70.5,-401.3 c -200,0 -362.4,202.3 -362.4,334.3 0,34.4 11,62.9 32.8,84.6 53.8,53.5 159.2,53.2 292.8,52.7 h 36.8 36.9 c 133.5,0.5 239,0.8 292.8,-52.7 21.7,-21.7 32.8,-50.2 32.8,-84.6 0,-132 -162.4,-334.3 -362.5,-334.3"
         style="fill:#231f20;fill-opacity:1;fill-rule:nonzero;stroke:none"
         id="path1796" /><path
         d="m 35436.2,34450.9 c 0,0 646.2,-993.9 700.8,-972.1 278.5,111.6 828,287.5 1207,514.2 242.4,144.9 405.8,390.9 445.2,670.5 76.1,539.5 28,1368.7 -530.1,1217 -129.3,-36.6 -234.1,-136.7 -239.2,-295.2 -14,-176.2 -15,-509.2 -71.9,-763.7 l -1511.8,-370.7"
         style="fill:#a64b2a;fill-opacity:1;fill-rule:nonzero;stroke:none"
         id="path1798" /><path
         d="m 36247.3,33522.9 -110.5,303.4 c 7.1,2.8 14.3,4.1 21.5,4.1 31.3,0 64,-23.9 99.2,-47.7 35.2,-23.9 72.9,-47.8 114.2,-47.8 12.2,0 24.7,2.1 37.5,6.9 285.2,105.6 647.4,242.7 920.9,406.3 176.4,105.4 310.9,264.4 386.3,450.9 -52.7,-231.7 -196.8,-431.1 -403.2,-554.5 -283.4,-169.5 -672.2,-313.2 -956.1,-418.2 -39.5,-14.6 -77.2,-28.6 -112.7,-41.9 l 20.5,-54.8 c -5.9,-2.3 -11.8,-4.5 -17.6,-6.7"
         style="fill:#7e3e27;fill-opacity:1;fill-rule:nonzero;stroke:none"
         id="path1800" /><path
         d="m 36942.6,34587.2 -53,61.9 c -14.4,22.8 -38.6,37.5 -65.4,39.9 l -108.1,9.5 c 97.1,24 174.5,43.8 218.9,56.5 l 7.6,-167.8"
         style="fill:#7e3e27;fill-opacity:1;fill-rule:nonzero;stroke:none"
         id="path1802" /><path
         d="m 36937,34591.1 -29.4,215.5 c -1.3,28.5 19.5,54.4 48,56.6 l 73.6,70.4 -20,-138.7 -45,-207.5 c -4.8,-14.7 -26.5,-11.7 -27.2,3.7"
         style="fill:#231f20;fill-opacity:1;fill-rule:nonzero;stroke:none"
         id="path1804" /><path
         d="m 37752.3,35214.5 c -0.2,1.7 -0.4,3.5 -0.7,5.2 0.1,0.1 0.2,0.1 0.3,0.2 0.1,-1.8 0.3,-3.6 0.4,-5.4"
         style="fill:#ce9c8a;fill-opacity:1;fill-rule:nonzero;stroke:none"
         id="path1806" /><path
         d="m 36286.5,33472.1 c 35.3,13.2 72.9,27.1 112.2,41.6 288.3,106.6 683.2,252.6 976.1,427.8 259,154.9 431.8,415 473.9,713.6 21.4,152.4 112.4,926.7 -207.1,1208.5 -105.2,92.8 -239.3,118 -398.2,74.8 -169.2,-47.9 -277.4,-181.8 -283.4,-349.7 -3.6,-46 -6.3,-100.5 -9.4,-163.6 -8.4,-171.1 -18.8,-381.8 -54.7,-559.8 -130.1,-46.7 -1455,-345 -1490.5,-358.1 l 41.5,-112.6 c 33.1,12.2 1461.7,341.2 1527.2,373 16.5,8 28.4,23 32.4,40.9 43.4,194 54.8,425.1 64,610.7 3.1,62.7 5.7,116.9 9.3,161.3 0,1 0.1,1.9 0.1,2.9 5.4,167.6 138.6,223.2 195.5,239.3 118.7,32.3 212.7,16.3 286.9,-49.1 198.4,-175 227.1,-679.4 167.5,-1101.7 -37,-262.5 -188.8,-491.2 -416.6,-627.4 -283.4,-169.5 -672.2,-313.2 -956.1,-418.2 -39.5,-14.6 -77.2,-28.6 -112.7,-41.9 l 42.1,-112.3"
         style="fill:#231f20;fill-opacity:1;fill-rule:nonzero;stroke:none"
         id="path1808" /><path
         d="m 36204.8,33501.2 -98,294.4 c -7.9,23.5 8.6,48.2 33.3,50 14.8,1 28.9,-6.6 36.1,-19.7 l 155.4,-282.6 -126.8,-42.1"
         style="fill:#231f20;fill-opacity:1;fill-rule:nonzero;stroke:none"
         id="path1810" /><path
         d="m 36599.4,36189.8 c -11.1,-2 -20.6,-5.8 -28.3,-11.4 -33.5,-24.1 -37.5,-81.9 -30.8,-124.1 13.9,-87.4 62.7,-175.6 149.1,-269.7 37.3,-40.6 78.9,-79.8 119.1,-117.8 42.5,-40.1 86.4,-81.5 127.2,-126 27.8,-30.6 54.5,-62.7 80.2,-93.9 73.6,-88.9 143.2,-172.9 237.2,-217.9 65.7,-31.4 143.5,-41.4 219,-28.1 28.3,5 55.9,13.2 82,24.4 94.9,40.6 173.5,120.6 215.9,219.5 3.1,7.4 6.1,14.9 9.1,22.5 15.1,37.8 32,80.1 67.4,113.6 41.4,39.3 94.6,52.8 136.3,60.2 13.4,2.3 26.5,4.2 39.1,6 11.6,1.6 22.2,3.2 32.5,4.9 l 2.2,0.4 c 67.9,12 133.5,39.2 189.9,78.9 37.3,26.2 72.9,68.4 63,99.1 -0.9,2.6 -2.1,5.1 -3.6,7.6 -6.4,10.4 -18.9,19.8 -33.5,25.1 -1.8,0.6 -3.7,1.2 -5.6,1.8 -21.4,6.1 -48,6 -83.6,-0.3 l -2.9,-0.5 c -63.5,-11.7 -123.7,-34.7 -178.7,-68.6 l -4.9,-3 c -19.6,-12.2 -44.2,-27.4 -74.2,-32.7 -8.7,-1.5 -17.4,-2.2 -26,-1.8 -79.5,2.8 -120.5,77.6 -138,109.6 -9,16.4 -25.7,46.9 -20.5,83.2 4,28.5 19.6,49.4 34.2,66.1 40.7,46.1 82.3,85.2 126.3,126.7 l 20,18.8 c 50.3,47.5 89.4,104.8 104.6,153.3 13.9,44.3 1.9,100.7 -27.2,128.2 -14.3,13.5 -31.2,18.3 -51.9,14.7 -5.9,-1.1 -12.3,-2.9 -18.8,-5.3 -34.6,-13 -64.5,-45.1 -91.7,-77.9 -59.8,-72.2 -112.1,-151 -155.4,-234.3 l -3.9,-7.4 c -19.2,-37.1 -40.9,-79.2 -81.1,-109.8 -19.1,-14.5 -43.2,-24.9 -67.8,-29.2 -47.7,-8.4 -91.5,5.4 -120.2,37.9 -36.9,42 -34.2,97.1 -32.3,133.6 7,138 -4.7,258.2 -35.6,367.5 -14.3,50.8 -38.3,88.4 -64,100.6 -9.4,4.4 -20.5,5.6 -33,3.4 -20.9,-3.7 -42.9,-16.6 -57.3,-33.7 -35.8,-42.4 -48.6,-95.3 -53.1,-132.2 -12.1,-100.6 0.8,-215.3 37.2,-331.7 2,-6.5 4.1,-13.1 6.3,-19.7 16.5,-50.8 35.1,-108.5 22.7,-170.6 -9.9,-49.7 -46.2,-95.4 -92.4,-116.7 -11.1,-5 -22.5,-8.6 -33.8,-10.6 -27.9,-4.9 -55.6,-0.3 -80,13.4 -32.6,18.3 -50.9,48.2 -64.4,70.2 l -1.3,2.1 c -46.9,76.2 -103.7,146 -168.8,207.4 -27.7,26.1 -61,54.6 -98,68 l 5.2,17.3 -6.1,-17 c -19.2,6.9 -39.4,9 -57,5.9 m 893.1,-1102.8 c -84.8,-14.9 -171.1,-7.7 -249.5,20.8 -13.6,5 -27,10.6 -39.9,16.8 -117,55.9 -198,153.8 -276.4,248.5 -24.9,30.2 -50.6,61.2 -76.5,89.6 -37.8,41.4 -80.1,81.3 -121.1,119.8 -41.7,39.4 -84.9,80.1 -125,123.8 -102.3,111.4 -160.5,219.2 -178.1,329.8 -16.2,101.3 12.8,189.6 77.3,236.2 22.1,16 47.7,26.6 76.1,31.6 37.4,6.6 77.5,2.8 116,-10.9 58.3,-21.1 105.1,-60.9 139.3,-93.2 72.6,-68.4 135.8,-146.1 188,-231 l 1.4,-2.2 c 7.5,-12.3 16.1,-26.2 22.4,-29.8 0.4,-0.2 1.2,-0.6 3.4,-0.2 1.6,0.2 3.3,0.8 5.3,1.8 12.6,5.7 24.6,20.7 27.3,34.1 6.5,32.5 -6.1,71.2 -19.4,112.2 -2.2,7 -4.5,13.9 -6.6,20.8 -41.3,132 -55.7,263.4 -41.6,380.1 9.1,75.5 36.6,142.2 79.6,193.1 31.6,37.5 78.7,64.9 125.8,73.2 35.7,6.3 71.1,1.8 102.4,-12.9 77.1,-36.5 112,-124.6 126,-173.8 34.3,-121.6 47.3,-254 39.7,-404.9 -0.8,-15.5 -2.2,-44.5 3.6,-51.2 0.9,-0.6 5.7,-1.9 13.3,-0.6 6.4,1.2 12.9,3.9 17.8,7.6 19.3,14.7 33.4,42 48.3,70.8 l 3.9,7.6 c 47.1,90.6 104,176.3 169.1,254.8 37.4,45.1 80.2,89.9 140.1,112.3 13.3,5 26.7,8.8 39.8,11.1 57.3,10.1 109.6,-5.4 151.1,-44.7 60.6,-57.3 85.1,-161.2 58.1,-247 -20.8,-66.5 -71.5,-142.3 -135.5,-202.8 l -20.1,-18.9 c -42.2,-39.7 -81.8,-76.9 -118.8,-118.9 -2.2,-2.5 -3.8,-4.5 -4.9,-5.9 1.1,-2.4 2.9,-6 5.8,-11.2 25.6,-46.8 38.3,-49.6 40.5,-49.7 0.3,0 0.9,0 1.8,0.2 8.2,1.5 21.6,9.8 33.4,17.1 l 5.2,3.2 c 67.3,41.4 140.9,69.7 218.6,83.9 l 4.1,0.7 c 33.4,5.9 83.8,12.1 134.9,-2.5 44.9,-12.7 83.5,-40.9 106,-77.4 6.4,-10.4 11.5,-21.4 15.1,-32.8 30,-92.8 -35.4,-179.4 -106.5,-229.4 -70.2,-49.4 -151.9,-83.3 -236.4,-98.2 l -2.7,-0.5 c -11.9,-2 -24,-3.8 -35.6,-5.4 -12.3,-1.8 -24.3,-3.5 -35.9,-5.6 -27.1,-4.7 -57.4,-12 -76.4,-30 -16.9,-16.1 -27.8,-43.3 -39.3,-72.1 -3.4,-8.6 -6.8,-17.1 -10.4,-25.5 -53.9,-126 -154.8,-228.3 -276.7,-280.5 -34.1,-14.6 -70.2,-25.3 -107.2,-31.8 v 0"
         style="fill:#231f20;fill-opacity:1;fill-rule:nonzero;stroke:none"
         id="path1812" /><path
         d="m 38355.2,35868.4 c -15.7,25.5 -43.3,43.8 -72.5,52.2 -36.5,10.3 -75.5,7.3 -112.8,0.5 -70.2,-12.9 -137.9,-38.9 -198.6,-76.3 -22.6,-13.9 -46.3,-29.9 -72.8,-29 -41.8,1.5 -69.2,42.9 -89.3,79.6 -8,14.7 -16.3,30.6 -13.9,47.2 2,13.8 11.1,25.5 20.4,36 44.9,51.1 93.1,95 142.6,141.7 49.4,46.7 99.6,113.1 120,178 34.1,108.7 -37.6,260.2 -173.5,209.1 -47.3,-17.7 -83.6,-56.1 -115.8,-95 -62.6,-75.5 -117.1,-157.6 -162.3,-244.5 -18.5,-35.7 -36.6,-73.5 -68.6,-97.9 -32,-24.3 -83,-29.3 -109.5,0.9 -21.3,24.2 -19.6,60.2 -18,92.4 6.6,130.7 -2,260.2 -37.7,386.1 -15.1,53.5 -44.7,113.5 -95,137.2 -53.6,25.4 -120.9,0.2 -159.2,-45.2 -38.3,-45.4 -59.2,-103.8 -66.3,-162.7 -14.3,-118.4 3.7,-242.1 39.3,-355.9 16.5,-52.8 38.4,-107.4 27.5,-161.7 -10.8,-54.2 -72.8,-101.8 -121,-74.8 -20.2,11.4 -32.6,32.5 -44.8,52.2 -49.5,80.5 -109.6,154.4 -178.4,219.2 -35.2,33.1 -73.6,64.5 -119.1,80.8 -45.5,16.2 -99.5,15.2 -138.7,-13.1 -53.6,-38.7 -64.5,-115 -54.1,-180.2 18.2,-114 85.5,-214.7 163.6,-299.8 78.1,-85 168.3,-158.4 246.2,-243.7 105.8,-115.8 193.7,-257.2 335.2,-324.9 108.1,-51.8 238.6,-51.9 348.8,-4.7 110.2,47.1 199.1,139.8 246.3,250 17.5,41 30.7,86.1 63.1,116.8 45.9,43.5 115.6,45.4 177.9,56.1 77.3,13.2 151.5,43.8 215.6,88.9 54.1,38 105.1,101.4 84.8,164.3 -2.3,7.2 -5.5,13.9 -9.4,20.2"
         style="fill:#c49a6c;fill-opacity:1;fill-rule:nonzero;stroke:none"
         id="path1814" /><path
         d="m 36536.3,35895.3 c -12.8,21.7 -24.2,44.1 -33.8,67.2 -0.5,3.8 -1,7.7 -1.4,11.6 9.4,-27.2 21.3,-53.4 35.2,-78.8"
         style="fill:#231f20;fill-opacity:1;fill-rule:nonzero;stroke:none"
         id="path1816" /><path
         d="m 37397.1,35153.1 c -61.4,0 -122.6,13 -178,39.5 -141.5,67.7 -229.4,209.2 -335.2,325 -77.9,85.2 -168.1,158.6 -246.2,243.7 -37.8,41.1 -73,85.9 -101.4,134 -13.9,25.4 -25.8,51.6 -35.2,78.8 -1.5,14.3 -1.9,29.1 -1.1,43.6 31.1,-70 78.5,-133.7 130.6,-190.5 78.1,-85.1 168.3,-158.5 246.2,-243.8 105.8,-115.8 193.7,-257.2 335.2,-324.9 55.4,-26.6 116.6,-39.5 178,-39.5 58.5,0 117.1,11.8 170.9,34.8 110.2,47.1 199,139.8 246.2,250 17.6,41 30.7,86.1 63.1,116.7 45.9,43.6 115.6,45.5 177.9,56.1 77.2,13.3 151.5,43.9 215.6,89 26.7,18.8 52.7,43.8 69.7,71.8 9.2,-4.7 17.8,-10.6 25.5,-17.3 -7.1,-47.3 -46.7,-91.2 -88.1,-120.3 -64.2,-45.1 -138.4,-75.7 -215.6,-89 -62.4,-10.6 -132,-12.6 -177.9,-56.1 -32.4,-30.7 -45.6,-75.8 -63.1,-116.8 -47.2,-110.1 -136.1,-202.8 -246.3,-250 -53.7,-23 -112.3,-34.8 -170.8,-34.8"
         style="fill:#8c6f51;fill-opacity:1;fill-rule:nonzero;stroke:none"
         id="path1818" /><path
         d="m 38352,35873.2 c -0.7,1 -1.4,2 -2.1,3 0.1,0.3 0.2,0.6 0.2,1 0.7,-1.3 1.3,-2.6 1.9,-4"
         style="fill:#231f20;fill-opacity:1;fill-rule:nonzero;stroke:none"
         id="path1820" /><path
         d="m 38355.3,35864.7 c -2,2.5 -4.2,5 -6.5,7.3 0.4,1.4 0.8,2.8 1.1,4.2 0.7,-1 1.4,-2 2.1,-3 1.3,-2.7 2.4,-5.6 3.3,-8.5"
         style="fill:#8c6f51;fill-opacity:1;fill-rule:nonzero;stroke:none"
         id="path1822" /><path
         d="m 36489.1,35999 c -6.6,20.2 -11.6,40.9 -15,62.1 -2.4,15.1 -3.7,30.8 -3.5,46.5 2.7,-12.6 5.9,-25 9.7,-37.3 0.4,-6.8 1.2,-13.6 2.1,-20.3 0.5,-11 1.6,-22 3.3,-32.7 1,-6.1 2.1,-12.2 3.4,-18.3"
         style="fill:#231f20;fill-opacity:1;fill-rule:nonzero;stroke:none"
         id="path1824" /><path
         d="m 36482.4,36050 c -0.9,6.7 -1.7,13.5 -2.1,20.3 0.6,-2 1.2,-4 1.9,-6.1 -0.1,-4.7 0,-9.4 0.2,-14.2"
         style="fill:#8c6f51;fill-opacity:1;fill-rule:nonzero;stroke:none"
         id="path1826" /><path
         d="m 38044.7,36213.8 c 0.2,4.5 0.4,8.9 0.5,13.3 8.7,14.4 16.5,29.1 22.9,43.9 -5.8,-18.1 -13.5,-37.2 -23.4,-57.2"
         style="fill:#a7a5a6;fill-opacity:1;fill-rule:nonzero;stroke:none"
         id="path1828" /><path
         d="m 37629.9,36153.5 c -0.7,0 -0.2,1.7 1.8,5.3 48.3,85.3 105.6,165.4 170.7,238.6 33.6,37.8 71.2,74.9 119.1,91 12.9,4.4 26,6.5 38.8,6.5 80.6,0 152.8,-82.7 107.8,-223.9 -6.4,-14.8 -14.2,-29.5 -22.9,-43.9 4.5,157.4 -40,218.3 -100.1,218.3 -11.4,0 -23.4,-2.1 -35.6,-6.3 -47.9,-16.1 -78.7,-55.7 -112.2,-93.5 -58.5,-65.7 -161.2,-192.1 -167.4,-192.1"
         style="fill:#e7d7c4;fill-opacity:1;fill-rule:nonzero;stroke:none"
         id="path1830" /><path
         d="m 37930.7,35756.6 c -0.7,0 -1.5,0 -2.2,0 -41.8,1.5 -74.2,29.2 -94.3,65.9 -8,14.6 -16.3,30.6 -14,47.2 0.2,1.3 0.5,2.6 0.9,3.9 19.6,-34.6 46.1,-70.6 85,-72 0.7,0 1.5,0 2.2,0 25.6,0 48.6,15.5 70.5,29 60.8,37.4 128.5,63.4 198.6,76.2 20.1,3.7 40.6,6.3 60.9,6.3 17.6,0 35,-1.9 51.9,-6.7 21.9,-6.3 42.9,-18.1 58.6,-34.4 -3.4,-11.9 -8.7,-23.4 -15.4,-34.6 -8.2,4.3 -16.9,7.7 -25.7,10.2 -17,4.9 -34.4,6.8 -52,6.8 -20.3,0 -40.8,-2.6 -60.8,-6.3 -70.2,-12.8 -132.9,-25.1 -193.7,-62.5 -21.9,-13.5 -44.9,-29 -70.5,-29"
         style="fill:#e7d7c4;fill-opacity:1;fill-rule:nonzero;stroke:none"
         id="path1832" /><path
         d="m 38376.5,35800.8 c -2.4,3.4 -5,6.6 -7.8,9.7 1.1,12.4 -0.1,25.1 -4.1,37.7 -0.9,2.6 -1.8,5.2 -2.9,7.7 0.3,-0.6 0.7,-1.1 1.1,-1.7 3.8,-6.3 7,-13.1 9.3,-20.2 3.6,-11.1 4.9,-22.2 4.4,-33.2"
         style="fill:#a7a5a6;fill-opacity:1;fill-rule:nonzero;stroke:none"
         id="path1834" /><path
         d="m 38368.7,35810.5 c -3,3.4 -6.3,6.6 -9.8,9.6 2.2,14.4 1.4,29.2 -3.4,43.9 0,0.3 -0.1,0.5 -0.2,0.7 2.3,-2.8 4.4,-5.8 6.4,-8.8 1.1,-2.5 2,-5.1 2.9,-7.7 4,-12.6 5.2,-25.3 4.1,-37.7"
         style="fill:#e7d7c4;fill-opacity:1;fill-rule:nonzero;stroke:none"
         id="path1836" /><path
         d="m 38358.9,35820.1 c -7.7,6.7 -16.3,12.6 -25.5,17.3 6.7,11.2 12,22.7 15.4,34.6 2.3,-2.3 4.5,-4.8 6.5,-7.3 0.1,-0.2 0.2,-0.4 0.2,-0.7 4.8,-14.7 5.6,-29.5 3.4,-43.9"
         style="fill:#d1c5b9;fill-opacity:1;fill-rule:nonzero;stroke:none"
         id="path1838" /><path
         d="m 36976.8,35908.4 c -4.6,0 -98.4,102.9 -161.8,162.7 -35.2,33.1 -73.6,64.5 -119.1,80.8 -19.1,6.8 -39.6,10.5 -60,10.5 -28.2,0 -56,-7.2 -78.7,-23.6 -37.9,-27.4 -54.4,-73.4 -57.2,-121.1 -6.7,15.2 -12.7,30.7 -17.8,46.5 0.5,51.9 16.5,103.6 57.6,133.3 22.7,16.4 50.5,23.6 78.7,23.6 20.3,0 40.9,-3.7 60,-10.5 45.5,-16.3 83.9,-47.7 119.1,-80.8 68.7,-64.8 128.9,-138.7 178.4,-219.2 0.9,-1.5 1.2,-2.2 0.8,-2.2"
         style="fill:#e7d7c4;fill-opacity:1;fill-rule:nonzero;stroke:none"
         id="path1840" /><path
         d="m 36507.6,35935.3 c -7.8,20.7 -14,41.9 -18.5,63.7 3.9,-12.4 8.4,-24.5 13.4,-36.5 0.2,-1.3 0.4,-2.6 0.6,-3.9 1.3,-7.8 2.8,-15.6 4.5,-23.3"
         style="fill:#a7a5a6;fill-opacity:1;fill-rule:nonzero;stroke:none"
         id="path1842" /><path
         d="m 36502.5,35962.5 c -5,12 -9.5,24.1 -13.4,36.5 -1.3,6.1 -2.4,12.2 -3.4,18.3 -1.7,10.7 -2.8,21.7 -3.3,32.7 0.2,-1.6 0.5,-3.2 0.7,-4.8 3.9,-24.3 10,-48 18,-71.1 0.4,-3.9 0.9,-7.8 1.4,-11.6"
         style="fill:#a7a5a6;fill-opacity:1;fill-rule:nonzero;stroke:none"
         id="path1844" /><path
         d="m 36501.1,35974.1 c -8,23.1 -14.1,46.8 -18,71.1 -0.2,1.6 -0.5,3.2 -0.7,4.8 -0.2,4.8 -0.3,9.5 -0.2,14.2 5.1,-15.8 11.1,-31.3 17.8,-46.5 -0.8,-14.5 -0.4,-29.3 1.1,-43.6"
         style="fill:#d1c5b9;fill-opacity:1;fill-rule:nonzero;stroke:none"
         id="path1846" /><path
         d="m 37119,36080.1 c -1.6,4.9 -3.2,9.9 -4.7,14.8 -21.5,68.7 -36.6,140.9 -42,213.4 5.6,-51.5 15.9,-102.7 29.6,-152.3 4.7,-25.5 10.5,-50.9 17.1,-75.9"
         style="fill:#a7a5a6;fill-opacity:1;fill-rule:nonzero;stroke:none"
         id="path1848" /><path
         d="m 37101.9,36156 c -13.7,49.6 -24,100.8 -29.6,152.3 -3.6,47.7 -3,95.5 2.6,142.5 7.1,59 28.1,117.3 66.4,162.7 27.8,33 71,55.3 113.1,55.3 15.8,0 31.5,-3.1 46.1,-10.1 50.3,-23.7 79.9,-83.7 95,-137.2 2.8,-9.7 5.3,-19.4 7.7,-29.2 -16.8,44.6 -44.1,88.3 -85.3,107.7 -14.6,6.9 -30.3,10.1 -46.1,10.1 -42.1,0 -85.3,-22.3 -113.1,-55.3 -38.3,-45.4 -59.2,-103.8 -66.3,-162.7 -9.4,-77.9 -4.8,-158 9.5,-236.1"
         style="fill:#e7d7c4;fill-opacity:1;fill-rule:nonzero;stroke:none"
         id="path1850" /><path
         d="m 38278.6,35880 c 18.4,-6.7 34,-18.6 42.7,-32.5 v 0 c 2.2,-3.7 4,-7.6 5.3,-11.5 13.7,-42.4 -29.1,-90.8 -69.8,-119.5 -59.1,-41.6 -128.1,-70 -199.3,-82.2 -10.7,-1.8 -21.5,-3.4 -33,-5 -55.7,-8 -118.8,-17 -165.7,-61.5 -32.4,-30.7 -48.5,-71.1 -62.8,-106.8 -3.1,-7.8 -6.2,-15.6 -9.5,-23.2 -44.1,-103.2 -126.2,-186.7 -225.3,-229.1 -101.6,-43.5 -219.7,-42 -315.9,4 -97.6,46.7 -168.3,132.2 -243.2,222.7 -25.7,31 -52.2,63 -79.7,93.2 -40.3,44.1 -84,85.3 -126.2,125.1 -40.5,38.2 -82.4,77.6 -120.1,118.7 -88.9,96.8 -139.1,188.1 -153.6,279.1 -7.9,49.5 -2,112.6 38,141.5 25.3,18.3 64.4,21.3 102,7.9 l 0.9,-0.3 c 40.1,-14.6 75.2,-44.5 104.2,-71.9 66.3,-62.5 124.1,-133.5 171.8,-211.1 l 1.4,-2.1 c 13,-21.4 29.3,-47.9 57.9,-63.9 29.5,-16.6 64.1,-17.4 97.3,-2.1 41.2,18.9 73.5,59.6 82.3,103.8 11.6,57.5 -6.3,112.8 -22.1,161.6 -2.2,6.6 -4.3,13.2 -6.4,19.8 -37.2,118.9 -50.2,236.2 -37.8,339.2 4.7,39.4 18.5,95.9 57.2,141.7 26,30.9 74.9,52.3 111.7,35 30.8,-14.6 57.7,-55.4 73.7,-112 31.4,-111.2 43.2,-233.3 36.2,-373.3 -1.8,-35.6 -4.3,-84.3 27.9,-120.8 42.5,-48.3 118,-40.8 163.5,-6.2 36.9,28 57.7,68.2 76.1,103.7 l 3.8,7.4 c 43.9,84.4 96.9,164.3 157.6,237.5 28.7,34.7 60.7,68.8 99.1,83.2 35.9,13.5 66,9.1 89.4,-13.1 34.3,-32.4 48.1,-95.5 32.1,-146.7 -16.1,-51.3 -57,-111.5 -109.4,-161 l -20,-18.8 c -43.8,-41.1 -85.1,-80 -125.2,-125.5 -13.5,-15.4 -26.5,-32.9 -29.9,-56.8 -4.4,-30.3 9.9,-56.4 18.4,-72 16.1,-29.3 53.6,-97.8 122.9,-100.3 36.7,-1.3 66.3,17.1 90.2,31.9 l 4.9,3.1 c 56.9,35 119.1,58.9 184.9,70.9 39.8,7.3 69.9,7.4 94.7,0.4 2.3,-0.7 4.5,-1.4 6.8,-2.2 z m -1029.5,-755.3 c 108.7,-39.5 234.2,-36.1 343.5,10.7 117.7,50.4 215.1,149.2 267.3,271 3.5,8.2 6.8,16.6 10.2,25 12.3,30.8 23.9,59.8 43.6,78.5 28.5,27 74,33.5 122.1,40.4 11.5,1.6 23.4,3.3 35.1,5.3 82.9,14.3 163.1,47.3 231.8,95.7 65.9,46.3 126.8,125.6 99.8,209.2 -3.2,10 -7.7,19.7 -13.3,28.8 -20.2,32.7 -55,58.1 -95.6,69.6 -48.5,13.8 -97.9,7.4 -130.9,1.4 -75.5,-13.9 -146.9,-41.3 -212.3,-81.5 l -5.2,-3.2 c -16.1,-10 -32.8,-20.4 -45.3,-19.9 -21.4,0.7 -42,33.9 -55.7,58.9 -2.5,4.5 -10,18.3 -9.4,22.3 0.2,1.4 1.9,5.2 10.8,15.4 37.6,42.7 77.6,80.3 119.9,120.1 l 20.2,18.9 c 61.8,58.5 110.7,131.4 130.7,195.1 24.9,79.6 2.5,175.7 -53.3,228.6 -46.2,43.6 -107.3,54.2 -172.3,29.8 -55.9,-21 -96.7,-63.8 -132.5,-107 -64.3,-77.5 -120.5,-162.2 -167,-251.5 l -3.9,-7.7 c -15.9,-30.7 -30.9,-59.6 -53.4,-76.8 -18,-13.7 -45.5,-15.9 -55.5,-4.5 -10.7,12.1 -9.3,39.6 -8.1,64 7.6,148.8 -5.2,279.3 -39.1,399 -13.1,46.3 -45.6,129 -116.3,162.4 -75,35.4 -160.8,-1.1 -206.8,-55.6 -40.7,-48.2 -66.8,-111.7 -75.4,-183.6 -13.8,-114.2 0.3,-243.1 40.9,-372.6 2.1,-6.9 4.3,-13.7 6.6,-20.6 14,-43.3 27.3,-84.2 19.8,-121.3 -3.8,-19.1 -19.5,-38.8 -37.4,-47 -9.7,-4.5 -18.1,-4.8 -25,-0.9 -10.4,5.9 -19.4,20.6 -29,36.1 l -1.3,2.2 c -51.4,83.5 -113.6,160 -185,227.3 -35.3,33.3 -79,69.7 -133.1,89.3 -62.9,22.5 -128.5,15.6 -175.5,-18.3 -58.9,-42.5 -85.1,-124.3 -70.1,-218.7 17.1,-107 73.8,-211.9 173.6,-320.5 39.7,-43.3 82.6,-83.7 124.1,-122.8 41.2,-38.8 83.8,-79 122.1,-120.9 26.2,-28.7 52.1,-60 77.1,-90.2 77.1,-93.2 156.9,-189.5 270.3,-243.8 12.4,-6 25.2,-11.3 38.2,-16.1"
         style="fill:#231f20;fill-opacity:1;fill-rule:nonzero;stroke:none"
         id="path1852" /><path
         d="m 37400.4,35653.2 c -17.4,30.3 -42.4,57.1 -72.2,77.2 -27.7,19.2 -60,33.2 -95.9,41.5 -36.3,8 -70.2,9.3 -100.8,3.9 l -1.8,-0.3 c -2.6,-0.5 -4.4,-2.6 -4.6,-5.3 -0.1,-2.6 1.6,-4.9 4.2,-5.6 33.9,-9.4 63.7,-19.4 91.1,-30.7 31.9,-13.1 58.3,-27.2 80.9,-42.8 25.1,-17.1 47.4,-37.5 66.3,-60.5 20.9,-25.2 37.4,-54.5 50.7,-79.9 1.2,-2.1 3.6,-3.3 6,-2.9 l 0.4,0.1 c 2.6,0.7 4.3,3 4.2,5.6 -0.8,34.3 -10.7,68.8 -28.5,99.7"
         style="fill:#231f20;fill-opacity:1;fill-rule:nonzero;stroke:none"
         id="path1854" /></g></g></svg>
