<?xml version="1.0" encoding="UTF-8" standalone="no"?>
<!-- Created with Inkscape (http://www.inkscape.org/) -->

<svg
   version="1.1"
   id="svg2"
   xml:space="preserve"
   width="5333.3335"
   height="5333.3335"
   viewBox="50 1850 1600 1600"
   sodipodi:docname="Gender:Poverty.eps"
   xmlns:inkscape="http://www.inkscape.org/namespaces/inkscape"
   xmlns:sodipodi="http://sodipodi.sourceforge.net/DTD/sodipodi-0.dtd"
   xmlns="http://www.w3.org/2000/svg"
   xmlns:svg="http://www.w3.org/2000/svg"><defs
     id="defs6"><clipPath
       clipPathUnits="userSpaceOnUse"
       id="clipPath1660"><path
         d="m 34188.9,28106.1 c -1794.9,0 -3250,447.7 -3250,1000 0,349.2 581.7,656.6 1463.2,835.5 16.6,-44.2 34.7,-86.8 54.2,-127.5 -89,-92 -187,-212 -185.4,-339.1 2.7,-223.3 238.2,-367.5 599.7,-367.5 5.8,0 11.5,0 17.3,0.1 152.8,1.9 283,30.8 376.7,83.8 118.2,66.7 179.8,169.6 178.2,297.4 -0.5,34 -5.4,69.1 -14.9,104.5 83.6,131.3 141.6,303.2 170.5,496.4 191.5,10.8 388.8,16.4 590.5,16.4 215.9,0 427.1,-6.5 631.2,-18.8 29,-192.2 86.9,-363.2 170.2,-494 -9.5,-35.4 -14.5,-70.5 -14.9,-104.5 -1.6,-127.8 60,-230.7 178.1,-297.4 93.7,-53 224,-81.9 376.8,-83.8 5.8,-0.1 11.5,-0.1 17.2,-0.1 361.6,0 597,144.2 599.8,367.5 1.5,127.1 -96.4,247.1 -185.4,339.1 18.3,38.3 35.4,78.3 51.3,119.7 860.5,-179.9 1425.7,-483.4 1425.7,-827.7 0,-552.3 -1455.1,-1000 -3250,-1000"
         id="path1658" /></clipPath></defs><sodipodi:namedview
     id="namedview4"
     pagecolor="#ffffff"
     bordercolor="#666666"
     borderopacity="1.0"
     inkscape:pageshadow="2"
     inkscape:pageopacity="0.0"
     inkscape:pagecheckerboard="0" /><g
     id="g8"
     inkscape:groupmode="layer"
     inkscape:label="ink_ext_XXXXXX"
     transform="matrix(1.3333333,0,0,-1.3333333,0,5333.3333)"><g
       id="g10"
       transform="scale(0.1)"><path
         d="M 0,0 H 40000 V 40000 H 0 Z"
         style="fill:#ffffff;fill-opacity:0;fill-rule:nonzero;stroke:none"
         id="path12" /><path
         d="m 5011.99,16944.8 c 35.68,35.7 71.14,72.8 106.38,111.4 456.03,499.8 886.82,1262.8 1280.38,2268 63.75,162.8 -16.56,346.5 -179.4,410.2 -162.83,63.8 -346.54,-16.5 -410.26,-179.3 C 5162.44,17903.5 4441.9,16997.9 3725.43,16936 c -832.28,-71.8 -1498.5,1009.1 -1505.13,1020.1 -90.6,149.2 -285.14,197.2 -434.59,106.9 -149.46,-90.3 -197.73,-284.3 -107.69,-434 35.11,-58.3 873.86,-1427.6 2098.93,-1324.1 431.8,36.4 846.69,251.5 1235.04,639.9"
         style="fill:#a64b2a;fill-opacity:1;fill-rule:nonzero;stroke:none"
         id="path1404" /><path
         d="m 3600.36,16819.3 c -794.66,-0.1 -1418.87,1012.8 -1425.34,1023.5 -59.54,98.2 -164.12,152.6 -271.25,152.6 -51.36,0 -103.28,-12.5 -151.16,-38.7 17.72,21.2 39.19,39.9 64.12,55 23.45,14.1 48.27,24.1 73.61,30.1 19.35,4.5 38.98,6.7 58.53,6.7 86.9,0 171.86,-44 220.14,-123.6 6.6,-10.8 648.48,-1052.3 1477.13,-1052.3 27.92,0 56.13,1.2 84.45,3.6 48.39,4.2 96.71,12 145.09,23.4 132.58,31.2 264.96,89.5 396.69,174.4 -5.71,-7.2 -11.3,-14.4 -16.73,-21.6 -191.12,-135.9 -383.41,-213.1 -575.45,-229.7 -26.77,-2.3 -53.42,-3.4 -79.83,-3.4"
         style="fill:#d3a595;fill-opacity:1;fill-rule:nonzero;stroke:none"
         id="path1406" /><path
         d="m 3644.69,16359.3 c -328.52,0 -626.43,107.4 -884.12,260.5 234.72,-118.3 496.75,-197 777.72,-197 41.67,0 83.71,1.7 126.19,5.3 378.77,32 343.42,297.5 591.16,624.3 17.92,12.8 35.83,26 53.73,39.8 -29.97,-184.6 -38.32,-396.1 -22.66,-592.4 -168.62,-75.2 -340.52,-120.4 -514.81,-135.1 -42.94,-3.7 -85.26,-5.4 -127.21,-5.4"
         style="fill:#813d23;fill-opacity:1;fill-rule:nonzero;stroke:none"
         id="path1408" /><path
         d="m 4255.64,17052.4 c 5.43,7.2 11.02,14.4 16.73,21.6 12.74,8.2 25.47,16.7 38.19,25.4 -0.4,-2.4 -0.8,-4.8 -1.19,-7.2 -17.9,-13.8 -35.81,-27 -53.73,-39.8"
         style="fill:#9e7868;fill-opacity:1;fill-rule:nonzero;stroke:none"
         id="path1410" /><path
         d="m 5011.98,16944.8 h 0.11 -0.11 m -3121.64,1097 c -25.34,-6 -50.16,-16 -73.61,-30.1 -120.88,-73.1 -160.04,-230.8 -87.3,-351.7 34.31,-57 854.3,-1395.7 2042.47,-1295.3 416.82,35.1 819.75,244.6 1197.66,622.5 34.93,34.9 70.09,71.8 104.49,109.5 451.06,494.3 877.95,1251.1 1268.83,2249.4 24.99,63.8 23.62,133.5 -3.83,196.3 -27.47,62.8 -77.75,111.2 -141.57,136.2 -63.83,25 -133.58,23.6 -196.39,-3.9 -62.81,-27.4 -111.15,-77.7 -136.14,-141.5 -323.99,-827.5 -668.7,-1473.9 -1024.55,-1921.1 -315.79,-397 -639.69,-636 -964.72,-712.5 -48.38,-11.4 -96.7,-19.2 -145.09,-23.4 -869.05,-75 -1554.76,1037.5 -1561.58,1048.7 -59.14,97.5 -173.3,141.7 -278.67,116.9 m 2130.07,-1758.7 c -78.86,-18.6 -158.33,-31.2 -238.41,-38 -1261.73,-106.6 -2119.5,1293.4 -2155.39,1353 -106.8,177.5 -49.34,409.1 128.07,516.3 177.37,107.2 409.27,50.1 516.91,-127.2 6.45,-10.6 655.75,-1059.9 1448.68,-991.4 339.52,29.3 684.77,261.8 1026.23,691 348.38,437.9 687.09,1073.8 1006.71,1890.1 36.66,93.7 107.63,167.5 199.8,207.8 92.19,40.3 194.55,42.3 288.22,5.6 93.67,-36.7 167.45,-107.6 207.76,-199.8 40.31,-92.2 42.3,-194.5 5.62,-288.2 -396.24,-1012 -830.91,-1781.3 -1291.93,-2286.5 -35.62,-39 -72.05,-77.2 -108.26,-113.4 -326.92,-327 -673.81,-534.5 -1034.01,-619.3"
         style="fill:#231f20;fill-opacity:1;fill-rule:nonzero;stroke:none"
         id="path1412" /><path
         d="m 7621.92,17639.4 c -3.88,-86.7 -28.21,-428.9 -277.84,-702.5 -168.12,-184.3 -356.71,-247.9 -445.66,-271 -57.45,-429.2 19.6,-830.7 180.48,-1057.6 -14.2,-39.5 -22.11,-79.5 -22.59,-118.1 -2.56,-208.4 211.42,-297.7 476.69,-301 265.27,-3.2 534.2,80.7 536.77,289.2 1.35,109.3 -109.21,231.1 -202.63,322.7 86.04,162.5 151.06,367.6 181.84,597.5 81.85,611.5 -109.35,1167.1 -427.06,1240.8"
         style="fill:#a64b2a;fill-opacity:1;fill-rule:nonzero;stroke:none"
         id="path1414" /><path
         d="m 4799.6,17639.4 c 3.88,-86.7 28.21,-428.9 277.84,-702.5 168.11,-184.3 356.71,-247.9 445.66,-271 57.45,-429.2 -19.61,-830.7 -180.48,-1057.6 14.2,-39.5 22.11,-79.5 22.59,-118.1 2.56,-208.4 -211.42,-297.7 -476.69,-301 -265.27,-3.2 -534.19,80.7 -536.77,289.2 -1.35,109.3 109.21,231.1 202.63,322.7 -86.04,162.5 -151.06,367.6 -181.84,597.5 -81.85,611.5 109.35,1167.1 427.06,1240.8"
         style="fill:#a64b2a;fill-opacity:1;fill-rule:nonzero;stroke:none"
         id="path1416" /><path
         d="m 7858.71,15809.1 c 86.04,162.5 151.05,367.6 181.83,597.5 45.27,338.2 6.99,659.2 -89.97,891.1 245.99,309.9 390.51,757.2 390.51,1391.9 0,1636.8 -960.68,2593.5 -2145.75,2593.5 -1185.06,0 -2145.75,-956.7 -2145.75,-2593.5 0,-642.5 148.14,-1093.1 399.73,-1403.5 -93.44,-230.9 -129.72,-546.9 -85.2,-879.5 30.78,-229.9 95.8,-435 181.84,-597.5 -93.43,-91.7 802.43,-232.3 788.22,-192.8 160.89,226.8 237.95,628.4 180.49,1057.5 -50.37,13.1 -132.73,39.2 -225.21,92.9 275.24,-75.9 582.15,-105.2 905.88,-105.2 334.11,0 650.36,31.2 932.3,112.5 -97.52,-58.6 -185.01,-86.5 -237.65,-100.2 -57.44,-429.1 19.61,-830.7 180.49,-1057.5 -14.21,-39.5 881.66,101.1 788.24,192.8"
         style="fill:#a64b2a;fill-opacity:1;fill-rule:nonzero;stroke:none"
         id="path1418" /><path
         d="m 7553.97,15230.7 c -5.22,0 -10.45,0.1 -15.72,0.1 -132.12,1.6 -241.95,25.1 -317.65,67.9 -77.65,43.9 -116.54,107.3 -115.53,188.5 0.32,25.6 4.45,52.5 12.28,79.9 4.03,14.1 5.04,28.7 3.18,42.8 10.87,0.5 23.28,1.4 36.99,2.6 -4.3,-21.1 -6.66,-42.1 -6.94,-62.6 -2.56,-208.5 211.45,-297.7 476.69,-301 5.16,-0.1 10.34,-0.1 15.51,-0.1 52.85,0 105.66,3.5 156.26,10.8 -69.21,-18.7 -151.85,-28.9 -245.07,-28.9"
         style="fill:#7e3e27;fill-opacity:1;fill-rule:nonzero;stroke:none"
         id="path1420" /><path
         d="m 7120.53,15609.9 c -2.03,15.5 -7.48,30.5 -16.18,43.9 -141.01,216.8 -203.77,581.4 -163.8,951.5 0.4,3.7 0.54,7.4 0.54,11.1 2.64,1.1 5.31,2.2 7.88,3.2 21.89,9 43.27,18.1 63.57,27.2 45.3,20.4 85.85,40.5 123.94,61.6 47.98,26.8 85.29,51.1 117.45,76.5 6.2,4.9 12.08,9.8 17.66,14.6 -159.87,-424.9 -256.43,-888.2 -115.74,-1105.9 10.51,-16.3 13.22,-36.2 8.02,-54.8 -2.45,-8.8 -4.57,-17.6 -6.35,-26.3 -13.71,-1.2 -26.12,-2.1 -36.99,-2.6"
         style="fill:#7e3e27;fill-opacity:1;fill-rule:nonzero;stroke:none"
         id="path1422" /><path
         d="m 4877.08,15230.7 c -92.71,0 -174.96,10.1 -243.94,28.6 49.96,-7.1 102.03,-10.5 154.14,-10.5 5.17,0 10.34,0 15.51,0.1 265.24,3.3 479.24,92.5 476.69,301 -0.27,19.9 -2.49,40.2 -6.54,60.7 11.89,-0.8 22.32,-1.2 31.05,-1.2 2.28,0 4.44,0.1 6.49,0.1 -1.79,-14 -0.76,-28.4 3.22,-42.3 7.84,-27.5 11.97,-54.4 12.28,-80 1,-81.2 -37.87,-144.6 -115.53,-188.5 -75.69,-42.8 -185.54,-66.3 -317.65,-67.9 -5.26,0 -10.49,-0.1 -15.72,-0.1"
         style="fill:#7e3e27;fill-opacity:1;fill-rule:nonzero;stroke:none"
         id="path1424" /><path
         d="m 5303.99,15609.4 c -8.73,0 -19.16,0.4 -31.05,1.2 -1.87,9.3 -4.12,18.8 -6.75,28.2 -5.19,18.6 -2.48,38.5 8.03,54.8 142.4,220.4 41.74,692.3 -121.6,1121.4 10.27,-10.1 21.68,-20 34.44,-30.1 32.16,-25.4 69.47,-49.7 117.45,-76.5 38.1,-21.1 78.64,-41.2 123.94,-61.6 19.82,-8.9 40.69,-17.8 62.04,-26.6 -0.33,-5.6 -0.36,-11.3 0.25,-17 39.5,-369.3 -23.35,-733.1 -164.04,-949.4 -8.77,-13.5 -14.24,-28.7 -16.22,-44.3 -2.05,0 -4.21,-0.1 -6.49,-0.1"
         style="fill:#7e3e27;fill-opacity:1;fill-rule:nonzero;stroke:none"
         id="path1426" /><path
         d="m 4553.18,15830.2 c 104.34,5.1 217.55,-4.8 310.65,-54.7 7.71,-4.2 3.25,-15.9 -5.26,-13.8 -94.05,22.7 -195.44,6.4 -286.63,-21.9 -66.24,-24.6 -89.37,86.6 -18.76,90.4"
         style="fill:#231f20;fill-opacity:1;fill-rule:nonzero;stroke:none"
         id="path1428" /><path
         d="m 7875.96,15830.2 c -104.34,5.1 -217.54,-4.8 -310.65,-54.7 -7.71,-4.2 -3.24,-15.9 5.27,-13.8 94.04,22.7 195.44,6.4 286.62,-21.9 66.24,-24.6 89.37,86.6 18.76,90.4"
         style="fill:#231f20;fill-opacity:1;fill-rule:nonzero;stroke:none"
         id="path1430" /><path
         d="m 6195.33,17506.3 c -787,0 -1424.99,473 -1424.99,1456.7 0,493.4 160.39,1021.4 419.6,1425.3 122.89,-20.2 254.02,-39.2 393.67,-57.9 200.89,-27 403.12,-40.5 605.37,-40.5 202.84,0 405.69,13.6 607.17,40.7 143.38,19.2 277.68,38.7 403.41,59.5 259.87,-404.1 420.78,-933 420.78,-1427.1 0,-983.7 -638,-1456.7 -1425.01,-1456.7"
         style="fill:#bc785f;fill-opacity:1;fill-rule:nonzero;stroke:none"
         id="path1432" /><path
         d="m 7975.85,17347.2 v -0.1 c -19.3,-26.3 -25.34,-60.7 -16.16,-92.1 67.55,-230.7 87.8,-573.5 50.39,-852.9 -26.76,-200.1 -81.37,-388.6 -157.89,-545.1 -19.61,-40.1 -11.79,-88.4 19.46,-120.3 68.7,-70.1 159.91,-173.4 158.85,-260.2 -1.84,-149.3 -188.88,-245.8 -476.53,-245.8 -5.22,0 -10.45,0.1 -15.72,0.1 -132.12,1.6 -241.95,25.1 -317.65,67.9 -77.65,43.9 -116.54,107.3 -115.53,188.5 0.32,25.6 4.45,52.5 12.28,79.9 8.41,29.4 3.68,61 -13,86.7 -141.01,216.8 -203.77,581.4 -163.8,951.5 0.4,3.7 0.54,7.4 0.54,11.1 2.64,1.1 5.31,2.2 7.88,3.2 21.89,9 43.27,18.1 63.57,27.2 45.3,20.4 85.85,40.5 123.94,61.6 47.98,26.8 85.29,51.1 117.45,76.5 20.91,16.5 38.16,32.6 52.74,49.4 19.35,22.3 32.01,43.6 38.73,65.2 3.08,9.9 -1.82,20.3 -11.39,24.2 -9.38,3.8 -20.4,-0.2 -25.06,-9.3 -7.71,-14.9 -19.69,-28.8 -37.74,-43.6 -14.52,-11.8 -31.44,-22.9 -51.72,-33.9 -32.69,-17.7 -70.17,-33.8 -117.98,-50.6 -38.59,-13.4 -79.44,-25.6 -124.82,-37.2 -20.32,-5.2 -41.68,-10.3 -63.51,-15.1 -25.71,-5.6 -45.71,-9.6 -62.94,-12.6 l -0.6,-0.1 c -4.65,0.6 -9.34,1 -14.11,1 -5.46,0 -10.97,-0.4 -16.39,-1.3 -183.61,-28.8 -389.04,-43.4 -610.6,-43.4 -216.1,0 -416.92,13.9 -596.84,41.3 -4.9,0.7 -9.9,1.1 -14.91,1.1 -1.93,0.6 -3.9,1 -6.04,1.4 -17.22,3 -37.23,7 -62.93,12.6 -21.83,4.8 -43.19,9.9 -63.51,15.1 -45.39,11.6 -86.24,23.8 -124.82,37.2 -47.81,16.8 -85.29,32.9 -117.99,50.6 -20.27,11 -37.2,22.1 -51.72,33.9 -18.04,14.8 -30.04,28.7 -37.73,43.6 -4.67,9.1 -15.69,13.1 -25.06,9.3 -9.59,-3.9 -14.47,-14.3 -11.4,-24.2 6.72,-21.6 19.38,-42.9 38.73,-65.2 14.58,-16.8 31.85,-32.9 52.74,-49.4 32.16,-25.4 69.47,-49.7 117.45,-76.5 38.1,-21.1 78.64,-41.2 123.94,-61.6 19.82,-8.9 40.69,-17.8 62.04,-26.6 -0.33,-5.6 -0.36,-11.3 0.25,-17 39.5,-369.3 -23.35,-733.1 -164.04,-949.4 -16.66,-25.7 -21.4,-57.2 -13,-86.6 7.84,-27.5 11.97,-54.4 12.28,-80 1,-81.2 -37.87,-144.6 -115.53,-188.5 -75.69,-42.8 -185.54,-66.3 -317.65,-67.9 -5.26,0 -10.49,-0.1 -15.72,-0.1 -287.64,0 -474.68,96.5 -476.52,245.8 -1.06,86.8 90.15,190.1 158.85,260.2 31.25,31.9 39.06,80.2 19.46,120.3 -76.52,156.5 -131.13,345 -157.89,545.1 -37.09,277 -18.72,607 46.81,840.5 8.82,31.4 2.4,65.7 -17.18,91.9 -77.5,103.3 -143.02,220.2 -194.74,347.3 -110.6,271.8 -166.67,607.4 -166.67,997.5 0,773.5 215.06,1428.1 621.94,1893.1 380.28,434.6 912.07,674 1497.4,674 576.55,0 1085.2,-233.1 1470.99,-674 406.88,-465 621.95,-1119.6 621.95,-1893.1 0,-451.4 -43.27,-759.1 -140.28,-997.5 -49.58,-121.8 -111.93,-234.4 -185.35,-334.6 m 448.87,1332.1 c 0,803.8 -225.61,1486.5 -652.44,1974.3 -409.86,468.4 -950.61,716 -1563.74,716 -621.39,0 -1186.13,-254.3 -1590.16,-716 -426.82,-487.8 -652.42,-1170.5 -652.42,-1974.3 0,-406.1 59.13,-757.3 175.76,-1043.9 54.55,-134.1 123.53,-257.8 205.1,-367.9 -67.82,-247.8 -86.7,-592.7 -48.01,-881.8 27.89,-208.3 84.51,-405.6 163.93,-571.6 -89.03,-92 -186.98,-212 -185.42,-339.1 2.77,-223.3 238.17,-367.5 599.76,-367.5 5.71,0 11.43,0 17.21,0.1 152.81,1.9 283.1,30.8 376.78,83.8 118.12,66.7 179.72,169.6 178.15,297.4 -0.42,34 -5.42,69.1 -14.88,104.5 151.77,238.3 219,610.1 181.24,1000.4 180.21,-26.1 379.55,-39.4 592.96,-39.4 218.92,0 423.03,14 607.13,41.5 -38.22,-391.1 28.94,-763.6 181.05,-1002.5 -9.46,-35.4 -14.46,-70.5 -14.88,-104.5 -1.57,-127.8 60.02,-230.7 178.14,-297.4 93.69,-53 223.97,-81.9 376.79,-83.8 5.77,-0.1 11.49,-0.1 17.21,-0.1 361.59,0 597,144.2 599.76,367.5 1.56,127.1 -96.39,247.1 -185.42,339.1 79.42,166 136.03,363.3 163.93,571.6 39.64,296.2 19.24,646.5 -51.88,895.6 77.16,106.6 142.74,225.7 194.99,354.1 103.29,253.8 149.36,575.8 149.36,1043.9"
         style="fill:#231f20;fill-opacity:1;fill-rule:nonzero;stroke:none"
         id="path1434" /><path
         d="m 3498.46,20056 c -367.42,-365.7 -907.67,-1667.1 -535.37,-2045.4 189.88,-151.5 514.05,-143.4 595.44,114.1 155.14,449.3 304.26,927.2 606.48,1333 l 771.55,840.7 c 10.8,14.5 24.77,132.8 -13.08,155.3 -511.58,220.7 -1042.86,10.2 -1425.02,-397.7"
         style="fill:#a64b2a;fill-opacity:1;fill-rule:nonzero;stroke:none"
         id="path1436" /><path
         d="m 2912.96,18541.4 c 14.01,139.7 49.06,300 105.09,474.4 127.72,397.4 350.99,815.8 530.9,994.8 l 1.42,1.5 c 286.65,305.9 624.43,467.2 954.66,467.2 83.96,0 167.35,-10.4 249.39,-31.5 -57.83,9.6 -115.59,14.3 -172.99,14.3 -368.53,0 -722.98,-191.8 -999.39,-486.8 -245.4,-244.3 -567.88,-905.9 -644.1,-1431.1 -8.24,-0.3 -16.6,-1.3 -24.98,-2.8"
         style="fill:#d3a595;fill-opacity:1;fill-rule:nonzero;stroke:none"
         id="path1438" /><path
         d="m 3554.72,18290.1 c -13.94,14.6 -31.27,29.5 -47.04,33.4 114.98,335.2 237.01,679.4 429.9,992.3 25.9,42 113.08,174 178.77,270.8 3.72,5.4 8.98,7.8 14.18,7.8 10.82,0 21.36,-10.1 17.04,-23.2 -5.68,-17.1 -11.78,-35.4 -18.12,-54.1 -0.81,1.7 -1.63,2.6 -2.46,2.6 -0.51,0 -1.02,-0.3 -1.52,-1 -262.24,-361.2 -432.34,-825.9 -570.75,-1228.6"
         style="fill:#7e3e27;fill-opacity:1;fill-rule:nonzero;stroke:none"
         id="path1440" /><path
         d="m 4196.37,19535.6 c 18.26,95 -61.3,110.7 -91.73,25.9 l -126.04,-333.9 141.87,-24.6 75.9,332.6"
         style="fill:#231f20;fill-opacity:1;fill-rule:nonzero;stroke:none"
         id="path1442" /><path
         d="m 3032.84,17898.3 c 107.74,-50.2 231.83,-64.4 339.7,-35.3 123.11,33.3 212.05,118.1 250.51,238.9 12.61,36.5 25.18,73.3 37.8,110.1 130.82,382.1 241.43,787.5 472.07,1135.2 14.45,21.8 3.87,187.1 -7.45,171.5 -270.14,-372.1 -442.51,-854 -583.19,-1264.8 -12.66,-37 -25.28,-73.9 -37.95,-110.5 l -0.47,-1.5 c -33.32,-105.4 -110.19,-146.4 -168.79,-162.2 -103.68,-28 -233.8,1 -325.24,72.2 -141.31,148.1 -138.34,507.8 8.22,963.9 127.72,397.4 350.99,815.8 530.9,994.8 l 1.42,1.5 c 404.66,431.9 911.04,575.5 1354.54,384.1 l 47.23,110.3 c -494.76,213.5 -1053.49,60.1 -1494.81,-410.5 -194.33,-193.9 -423.91,-621.5 -558.53,-1040.4 -96.17,-299.3 -220.82,-838.6 24.96,-1088.3 l 5.8,-5.3 c 31.66,-25.2 66.52,-46.6 103.28,-63.7"
         style="fill:#231f20;fill-opacity:1;fill-rule:nonzero;stroke:none"
         id="path1444" /><path
         d="m 3100.06,18514.8 169.03,-47.3 c 76.47,-21.3 140.02,-66.9 183.69,-125.1 11.01,-14.7 27.12,-24.7 45.1,-29.7 l 0.27,-0.1 c 79.64,-22.2 152.52,-295.4 115.19,-437.3 -26.16,-99.5 -177.11,-67.8 -177.11,-67.8 -26.01,-98.9 -132.2,-155.3 -237.16,-126 l -457.88,128.1 c -70.01,19.6 -112.7,88.9 -95.33,154.9 l 94.47,359.2 c 39.31,149.5 201.19,235.5 359.73,191.1"
         style="fill:#a64b2a;fill-opacity:1;fill-rule:nonzero;stroke:none"
         id="path1446" /><path
         d="m 3653.32,17838.9 c 51.59,142.8 8.7,312.1 -80.14,430.1 -15.89,19.6 -50.56,58.9 -76.6,55.2 -8.16,-1.2 -12.73,-10.3 -8.46,-17.4 2.54,-4.2 6.03,-8.4 9.59,-12.1 12.82,-13.4 22.81,-29.4 28.91,-46.9 35.41,-101.9 43.15,-252.4 30.22,-352.4 -4.75,-36.7 -64.21,-36.9 -97.55,-33.6 -111.27,26.5 -59.65,-126 -200.07,-129.9 -17.8,-11.4 -469.76,125.6 -500.58,131.5 -39.51,7.9 -82.49,52.6 -72.39,93.7 25.87,80.4 96.52,350.3 121.47,425 13.82,31.6 37.25,61.4 64.09,84.8 11.21,9.8 23.79,17.9 37.32,24.1 9.19,4.2 31.84,19.3 46.41,32.9 7.64,7.1 2.61,19.9 -7.84,20.3 -116.02,3.7 -255.84,-132.6 -275.57,-245 -7.87,-66.7 -107.47,-333.5 -85.39,-397.6 12.77,-64.3 64.92,-120.4 127.91,-139.8 l 457.56,-128.3 c 6.72,-2.1 16.06,-4.2 25.11,-6.2 106.02,-23.4 221.96,25.7 270.38,123.6 73.6,-3.5 150.13,14.8 185.62,88"
         style="fill:#231f20;fill-opacity:1;fill-rule:nonzero;stroke:none"
         id="path1448" /><path
         d="m 3176.21,17994.9 c -64.12,-243.7 -88.62,-462.7 50.21,-501.6 196.11,-54.8 235.37,254.5 299.48,498.3 l -349.69,3.3"
         style="fill:#a64b2a;fill-opacity:1;fill-rule:nonzero;stroke:none"
         id="path1450" /><path
         d="m 3266.82,17523.7 c -8.23,0 -17.36,1.3 -28.05,4.3 -43.63,12.2 -67.21,43.3 -77.21,86.7 24.86,31.6 47.46,75.6 65.34,136.2 0.24,0.8 0.82,2.8 24.83,129.1 2.5,-10.4 4.3,-20.2 3.93,-22.7 -28.31,-187 -113.81,-262.5 0.73,-294.5 12.77,-3.6 24.62,-5.3 35.65,-5.3 26.12,0 47.62,9.5 65.82,26.1 -15.52,-21.7 -32.36,-38.4 -50.73,-48.3 -13.19,-7.1 -25.26,-11.6 -40.31,-11.6"
         style="fill:#7e3e27;fill-opacity:1;fill-rule:nonzero;stroke:none"
         id="path1452" /><path
         d="m 3516.87,17988.2 c -19.38,-11.3 -35.58,-62.5 -40.18,-81.2 -39.2,-159.7 -90,-328.6 -169.56,-371.7 -20.39,-11 -38.12,-15.8 -68.36,-7.3 -116.88,32.7 -89.88,201.1 -43.31,378.2 6.01,22.8 -16.95,29.2 -30.66,33.1 -12.52,3.5 -23.88,2.8 -31.99,-1.8 -6.17,-3.6 -10.49,-9.4 -12.47,-16.9 -40.01,-152.2 -39.35,-189.1 -37.89,-269.9 1.87,-104.2 46.94,-167.1 137.79,-192.5 17.32,-4.9 33.61,-7.3 49.36,-7.3 26.28,0 51.07,6.8 76.68,20.6 94.57,51.2 140.63,196.8 179.62,350.2 2.57,10.1 6.23,27 9.46,42.3 4.8,22.7 5.69,46.1 2.68,69.1 -2.44,18.7 -6.24,40.3 -8.14,50.8 -0.71,3.9 -9.01,6.6 -13.03,4.3"
         style="fill:#231f20;fill-opacity:1;fill-rule:nonzero;stroke:none"
         id="path1454" /><path
         d="m 3247.09,17939.4 c -1.35,-5.1 -47.47,-169.2 -48.88,-174.1 -45.73,-158.2 -127.06,-202.4 -218.98,-176.7 -133.75,37.4 -102.1,224.7 -57.26,395.1 l 325.12,-44.3"
         style="fill:#a64b2a;fill-opacity:1;fill-rule:nonzero;stroke:none"
         id="path1456" /><path
         d="m 3022,17623 c -12.38,0 -25.38,1.9 -39,5.7 -53.9,15.1 -69.62,71.1 -69.19,133.6 13.79,-37.9 39.75,-65.7 83.06,-77.8 16.01,-4.5 31.71,-6.9 46.94,-6.9 36.24,0 69.89,13.4 99.22,43.1 -29.21,-65 -69.73,-97.7 -121.03,-97.7"
         style="fill:#7e3e27;fill-opacity:1;fill-rule:nonzero;stroke:none"
         id="path1458" /><path
         d="m 3250.44,17957 c -8.89,2.5 -17.45,-1.7 -20.82,-10.3 -65.91,-168.1 -66.47,-170 -66.66,-170.7 -35.08,-121.3 -95.63,-170.9 -179.96,-147.3 -114.51,32 -56.72,248.9 -37.74,320.1 4.39,16.4 -6.12,33.7 -23.43,38.6 l -13.73,3.8 c -7.74,2.2 -16.06,1.2 -22.81,-2.7 -6.38,-3.7 -10.86,-9.6 -12.62,-16.7 -64.33,-257 -36.8,-387.4 89.24,-422.6 16.35,-4.6 35.76,-8.1 56.77,-8.1 70.09,0 157.88,39.2 208.22,209.8 0.27,0.9 0.98,3.3 35.69,186.3 1.73,9.1 -3.27,17.3 -12.15,19.8"
         style="fill:#231f20;fill-opacity:1;fill-rule:nonzero;stroke:none"
         id="path1460" /><path
         d="m 2960.67,18015.3 c -10.72,-43.4 -39.83,-149.3 -59.42,-185.5 -41.66,-77.1 -107.37,-127.5 -163.38,-110.8 -62.37,18.7 -123.09,92.4 -89.57,228 l 312.37,68.3"
         style="fill:#a64b2a;fill-opacity:1;fill-rule:nonzero;stroke:none"
         id="path1462" /><path
         d="m 2767.75,17704.7 c -11.49,0 -23.39,1.9 -35.65,5.5 -32.29,9.7 -63.63,40.6 -81.71,86.9 1.56,-1.3 3.15,-2.6 4.76,-3.8 18.55,-40.2 50.41,-64.6 82.72,-74.3 7.26,-2.1 14.68,-3.2 22.19,-3.2 18.47,0 37.48,6.3 55.94,17.6 l 17.78,-5 c -19.87,-15.7 -42.05,-23.7 -66.03,-23.7"
         style="fill:#bdbbbc;fill-opacity:1;fill-rule:nonzero;stroke:none"
         id="path1464" /><path
         d="m 2833.78,17728.4 -17.78,5 c 7.85,4.7 15.6,10.4 23.16,16.9 -0.01,-5.8 0.08,-11.6 0.29,-17.2 -1.87,-1.6 -3.76,-3.2 -5.67,-4.7 m -178.63,64.9 c -1.61,1.2 -3.2,2.5 -4.76,3.8 -16.85,43.3 -22.17,99.9 -6,165.4 l 14.68,-4.6 c 0.25,-2.8 0.54,-5.6 0.88,-8.3 l -11.65,-2.6 c -16.16,-65.3 -10.42,-116.3 6.85,-153.7"
         style="fill:#231f20;fill-opacity:1;fill-rule:nonzero;stroke:none"
         id="path1466" /><path
         d="m 2839.45,17733.1 c -0.21,5.6 -0.3,11.4 -0.29,17.2 20.24,17.4 39.16,40.4 55.17,67.3 -15.04,-37.4 -33.55,-65.6 -54.88,-84.5"
         style="fill:#231f20;fill-opacity:1;fill-rule:nonzero;stroke:none"
         id="path1468" /><path
         d="m 2760.06,17715.8 c -7.51,0 -14.93,1.1 -22.19,3.2 -32.31,9.7 -64.17,34.1 -82.72,74.3 -17.27,37.4 -23.01,88.4 -6.85,153.7 l 11.65,2.6 c 9.41,-77.3 51.54,-129.7 95.45,-142.8 12.25,-3.7 24.15,-5.5 35.63,-5.5 44.7,0 83.12,27.6 112.1,81.7 l 10.87,-3.4 c -5.66,-22.9 -12.24,-43.6 -19.67,-62 -16.01,-26.9 -34.93,-49.9 -55.17,-67.3 -7.56,-6.5 -15.31,-12.2 -23.16,-16.9 -18.46,-11.3 -37.47,-17.6 -55.94,-17.6"
         style="fill:#7e3e27;fill-opacity:1;fill-rule:nonzero;stroke:none"
         id="path1470" /><path
         d="m 2974.81,18056.3 c -7.52,6.9 -19.07,3.1 -23.76,1.4 -27.14,-15.5 -87.63,-150.1 -91.13,-164.3 -9.71,-39.2 -32.19,-108.6 -73.14,-132 -29.6,-12 -55.83,-9.5 -75.85,7.2 -35.9,30 -45.51,96.3 -28.43,177.7 l 3.34,8.9 c 0,0 -51.04,57.3 -67.22,52.7 -14.21,-4.1 -24.27,-15.3 -28.32,-31.6 -26.99,-109.5 -5.34,-210.1 57.91,-269.2 31.82,-29.7 71.01,-45.4 110.47,-45.4 15.2,0 30.44,2.4 45.31,7.1 41.17,13.2 114.55,56.8 143.48,200.1 l 4.17,17.3 c 26.77,110.8 37.86,156.7 23.17,170.1"
         style="fill:#231f20;fill-opacity:1;fill-rule:nonzero;stroke:none"
         id="path1472" /><path
         d="m 8892.21,20056 c 367.42,-365.7 907.67,-1667.1 535.38,-2045.4 -189.89,-151.5 -514.05,-143.4 -595.45,114.1 -155.13,449.3 -304.26,927.2 -606.47,1333 l -771.55,840.7 c -10.8,14.5 -24.78,132.8 13.07,155.3 511.58,220.7 1042.86,10.2 1425.02,-397.7"
         style="fill:#a64b2a;fill-opacity:1;fill-rule:nonzero;stroke:none"
         id="path1474" /><path
         d="m 9477.71,18541.4 c -8.39,1.5 -16.74,2.5 -24.99,2.8 -76.21,525.2 -398.69,1186.8 -644.08,1431.1 -276.42,295 -630.87,486.8 -999.41,486.8 -57.39,0 -115.12,-4.7 -172.96,-14.3 82.01,21.1 165.44,31.5 249.38,31.5 330.23,0 668,-161.3 954.66,-467.2 l 1.41,-1.5 c 179.91,-179 403.18,-597.4 530.89,-994.8 56.04,-174.4 91.09,-334.7 105.1,-474.4"
         style="fill:#d3a595;fill-opacity:1;fill-rule:nonzero;stroke:none"
         id="path1476" /><path
         d="m 8835.96,18290.1 c -138.42,402.7 -308.51,867.4 -570.76,1228.6 -0.51,0.7 -1.02,1 -1.52,1 -0.83,0 -1.66,-0.9 -2.46,-2.6 -6.34,18.7 -12.44,37 -18.11,54.1 -4.33,13.1 6.21,23.2 17.03,23.2 5.2,0 10.46,-2.4 14.17,-7.8 65.69,-96.8 152.89,-228.8 178.79,-270.8 192.89,-312.9 314.91,-657.1 429.89,-992.3 -15.77,-3.9 -33.1,-18.8 -47.03,-33.4"
         style="fill:#7e3e27;fill-opacity:1;fill-rule:nonzero;stroke:none"
         id="path1478" /><path
         d="m 8194.3,19535.6 c -18.26,95 61.3,110.7 91.73,25.9 l 126.05,-333.9 -141.88,-24.6 -75.9,332.6"
         style="fill:#231f20;fill-opacity:1;fill-rule:nonzero;stroke:none"
         id="path1480" /><path
         d="m 9357.82,17898.3 c -107.72,-50.2 -231.82,-64.4 -339.69,-35.3 -123.11,33.3 -212.05,118.1 -250.51,238.9 -12.61,36.5 -25.18,73.3 -37.8,110.1 -130.82,382.1 -241.43,787.5 -472.07,1135.2 -14.44,21.8 -3.88,187.1 7.45,171.5 270.15,-372.1 442.51,-854 583.19,-1264.8 12.67,-37 25.29,-73.9 37.94,-110.5 l 0.47,-1.5 c 33.33,-105.4 110.19,-146.4 168.8,-162.2 103.67,-28 233.81,1 325.23,72.2 141.31,148.1 138.35,507.8 -8.22,963.9 -127.71,397.4 -350.98,815.8 -530.89,994.8 l -1.41,1.5 c -404.67,431.9 -911.05,575.5 -1354.55,384.1 l -47.22,110.3 c 494.76,213.5 1053.48,60.1 1494.8,-410.5 194.34,-193.9 423.91,-621.5 558.53,-1040.4 96.17,-299.3 220.82,-838.6 -24.95,-1088.3 l -5.81,-5.3 c -31.65,-25.2 -66.52,-46.6 -103.29,-63.7"
         style="fill:#231f20;fill-opacity:1;fill-rule:nonzero;stroke:none"
         id="path1482" /><path
         d="m 9290.6,18514.8 -169.02,-47.3 c -76.46,-21.3 -140.02,-66.9 -183.7,-125.1 -11,-14.7 -27.1,-24.7 -45.1,-29.7 l -0.27,-0.1 c -79.63,-22.2 -152.52,-295.4 -115.19,-437.3 26.18,-99.5 177.11,-67.8 177.11,-67.8 26.03,-98.9 132.21,-155.3 237.18,-126 l 457.87,128.1 c 70.01,19.6 112.7,88.9 95.34,154.9 l -94.48,359.2 c -39.3,149.5 -201.19,235.5 -359.74,191.1"
         style="fill:#a64b2a;fill-opacity:1;fill-rule:nonzero;stroke:none"
         id="path1484" /><path
         d="m 8737.34,17838.9 c -51.58,142.8 -8.69,312.1 80.16,430.1 15.88,19.6 50.55,58.9 76.59,55.2 8.16,-1.2 12.73,-10.3 8.45,-17.4 -2.53,-4.2 -6.01,-8.4 -9.58,-12.1 -12.82,-13.4 -22.81,-29.4 -28.91,-46.9 -35.41,-101.9 -43.16,-252.4 -30.23,-352.4 4.77,-36.7 64.22,-36.9 97.55,-33.6 111.27,26.5 59.65,-126 200.07,-129.9 17.82,-11.4 469.76,125.6 500.59,131.5 39.52,7.9 82.5,52.6 72.39,93.7 -25.86,80.4 -96.52,350.3 -121.46,425 -13.83,31.6 -37.25,61.4 -64.1,84.8 -11.21,9.8 -23.79,17.9 -37.31,24.1 -9.19,4.2 -31.84,19.3 -46.42,32.9 -7.64,7.1 -2.61,19.9 7.85,20.3 116.01,3.7 255.82,-132.6 275.55,-245 7.87,-66.7 107.48,-333.5 85.4,-397.6 -12.77,-64.3 -64.92,-120.4 -127.92,-139.8 l -457.56,-128.3 c -6.71,-2.1 -16.05,-4.2 -25.09,-6.2 -106.04,-23.4 -221.97,25.7 -270.39,123.6 -73.6,-3.5 -150.13,14.8 -185.63,88"
         style="fill:#231f20;fill-opacity:1;fill-rule:nonzero;stroke:none"
         id="path1486" /><path
         d="m 9214.47,17994.9 c 64.1,-243.7 88.62,-462.7 -50.22,-501.6 -196.11,-54.8 -235.36,254.5 -299.48,498.3 l 349.7,3.3"
         style="fill:#a64b2a;fill-opacity:1;fill-rule:nonzero;stroke:none"
         id="path1488" /><path
         d="m 9123.86,17523.7 c -15.06,0 -27.13,4.5 -40.31,11.6 -18.37,9.9 -35.21,26.6 -50.73,48.3 18.2,-16.6 39.69,-26.1 65.81,-26.1 11.03,0 22.88,1.7 35.65,5.3 114.53,32 29.05,107.5 0.73,294.5 -0.37,2.5 1.43,12.3 3.93,22.7 24.02,-126.3 24.6,-128.3 24.84,-129.1 17.87,-60.6 40.47,-104.6 65.33,-136.2 -10,-43.4 -33.58,-74.5 -77.21,-86.7 -10.69,-3 -19.81,-4.3 -28.04,-4.3"
         style="fill:#7e3e27;fill-opacity:1;fill-rule:nonzero;stroke:none"
         id="path1490" /><path
         d="m 8873.8,17988.2 c 19.38,-11.3 35.58,-62.5 40.18,-81.2 39.2,-159.7 90,-328.6 169.57,-371.7 20.39,-11 38.11,-15.8 68.35,-7.3 116.88,32.7 89.88,201.1 43.3,378.2 -6,22.8 16.95,29.2 30.67,33.1 12.53,3.5 23.89,2.8 31.99,-1.8 6.17,-3.6 10.49,-9.4 12.46,-16.9 40.02,-152.2 39.37,-189.1 37.9,-269.9 -1.87,-104.2 -46.95,-167.1 -137.78,-192.5 -17.33,-4.9 -33.62,-7.3 -49.38,-7.3 -26.27,0 -51.06,6.8 -76.66,20.6 -94.57,51.2 -140.64,196.8 -179.63,350.2 -2.56,10.1 -6.24,27 -9.46,42.3 -4.8,22.7 -5.69,46.1 -2.68,69.1 2.45,18.7 6.25,40.3 8.14,50.8 0.72,3.9 9.01,6.6 13.03,4.3"
         style="fill:#231f20;fill-opacity:1;fill-rule:nonzero;stroke:none"
         id="path1492" /><path
         d="m 9143.58,17939.4 c 1.35,-5.1 47.47,-169.2 48.89,-174.1 45.72,-158.2 127.06,-202.4 218.97,-176.7 133.75,37.4 102.1,224.7 57.26,395.1 l -325.12,-44.3"
         style="fill:#a64b2a;fill-opacity:1;fill-rule:nonzero;stroke:none"
         id="path1494" /><path
         d="m 9368.67,17623 c -51.31,0 -91.83,32.7 -121.05,97.7 29.33,-29.7 63,-43.1 99.24,-43.1 15.23,0 30.93,2.4 46.93,6.9 43.32,12.1 69.29,39.9 83.08,77.8 0.43,-62.5 -15.29,-118.5 -69.19,-133.6 -13.63,-3.8 -26.63,-5.7 -39.01,-5.7"
         style="fill:#7e3e27;fill-opacity:1;fill-rule:nonzero;stroke:none"
         id="path1496" /><path
         d="m 9140.24,17957 c 8.89,2.5 17.44,-1.7 20.8,-10.3 65.92,-168.1 66.49,-170 66.67,-170.7 35.07,-121.3 95.62,-170.9 179.97,-147.3 114.51,32 56.72,248.9 37.72,320.1 -4.38,16.4 6.14,33.7 23.44,38.6 l 13.73,3.8 c 7.74,2.2 16.06,1.2 22.81,-2.7 6.38,-3.7 10.87,-9.6 12.63,-16.7 64.33,-257 36.8,-387.4 -89.24,-422.6 -16.35,-4.6 -35.76,-8.1 -56.78,-8.1 -70.08,0 -157.88,39.2 -208.21,209.8 -0.27,0.9 -0.98,3.3 -35.7,186.3 -1.72,9.1 3.27,17.3 12.16,19.8"
         style="fill:#231f20;fill-opacity:1;fill-rule:nonzero;stroke:none"
         id="path1498" /><path
         d="m 9430.01,18015.3 c 10.71,-43.4 39.81,-149.3 59.4,-185.5 41.68,-77.1 107.39,-127.5 163.39,-110.8 62.37,18.7 123.09,92.4 89.57,228 l -312.36,68.3"
         style="fill:#a64b2a;fill-opacity:1;fill-rule:nonzero;stroke:none"
         id="path1500" /><path
         d="m 9622.92,17704.7 c -23.98,0 -46.16,8 -66.03,23.7 l 17.78,5 c 18.46,-11.3 37.48,-17.6 55.95,-17.6 7.51,0 14.93,1.1 22.18,3.2 32.31,9.7 64.17,34.1 82.72,74.3 1.61,1.2 3.2,2.5 4.76,3.8 -18.08,-46.3 -49.42,-77.2 -81.71,-86.9 -12.26,-3.6 -24.17,-5.5 -35.65,-5.5"
         style="fill:#bdbbbc;fill-opacity:1;fill-rule:nonzero;stroke:none"
         id="path1502" /><path
         d="m 9556.89,17728.4 c -1.91,1.5 -3.79,3.1 -5.66,4.7 0.2,5.6 0.3,11.3 0.28,17.2 7.57,-6.5 15.31,-12.1 23.16,-16.9 l -17.78,-5 m 178.63,64.9 c 17.27,37.4 23.01,88.4 6.85,153.7 l -11.64,2.6 c 0.33,2.7 0.63,5.5 0.88,8.3 l 14.68,4.6 c 16.17,-65.5 10.84,-122.1 -6.01,-165.4 -1.56,-1.3 -3.15,-2.6 -4.76,-3.8"
         style="fill:#231f20;fill-opacity:1;fill-rule:nonzero;stroke:none"
         id="path1504" /><path
         d="m 9551.23,17733.1 c -21.33,18.9 -39.84,47.1 -54.88,84.5 16.01,-26.9 34.93,-49.9 55.16,-67.3 0.02,-5.9 -0.08,-11.6 -0.28,-17.2"
         style="fill:#231f20;fill-opacity:1;fill-rule:nonzero;stroke:none"
         id="path1506" /><path
         d="m 9630.62,17715.8 c -18.47,0 -37.49,6.3 -55.95,17.6 -7.85,4.8 -15.59,10.4 -23.16,16.9 -20.23,17.4 -39.15,40.4 -55.16,67.3 -7.43,18.4 -14.02,39.1 -19.68,62 l 10.88,3.4 c 28.98,-54.1 67.39,-81.7 112.09,-81.7 11.48,0 23.38,1.8 35.63,5.5 43.91,13.1 86.04,65.5 95.46,142.8 l 11.64,-2.6 c 16.16,-65.3 10.42,-116.3 -6.85,-153.7 -18.55,-40.2 -50.41,-64.6 -82.72,-74.3 -7.25,-2.1 -14.67,-3.2 -22.18,-3.2"
         style="fill:#7e3e27;fill-opacity:1;fill-rule:nonzero;stroke:none"
         id="path1508" /><path
         d="m 9415.86,18056.3 c 7.52,6.9 19.07,3.1 23.76,1.4 27.14,-15.5 87.63,-150.1 91.14,-164.3 9.7,-39.2 32.18,-108.6 73.13,-132 29.6,-12 55.84,-9.5 75.86,7.2 35.89,30 45.5,96.3 28.43,177.7 l -3.35,8.9 c 0,0 51.04,57.3 67.22,52.7 14.21,-4.1 24.27,-15.3 28.32,-31.6 27,-109.5 5.35,-210.1 -57.91,-269.2 -31.82,-29.7 -71.01,-45.4 -110.46,-45.4 -15.2,0 -30.45,2.4 -45.32,7.1 -41.17,13.2 -114.54,56.8 -143.47,200.1 l -4.17,17.3 c -26.78,110.8 -37.86,156.7 -23.18,170.1"
         style="fill:#231f20;fill-opacity:1;fill-rule:nonzero;stroke:none"
         id="path1510" /><path
         d="m 4329.79,22575.3 c 0,-538.3 -436.39,-974.7 -974.7,-974.7 -538.31,0 -974.7,436.4 -974.7,974.7 0,538.4 436.39,974.7 974.7,974.7 538.31,0 974.7,-436.3 974.7,-974.7"
         style="fill:#a64b2a;fill-opacity:1;fill-rule:nonzero;stroke:none"
         id="path1512" /><path
         d="m 2460.04,22705 c 63.1,437.4 440.44,774.7 895.05,774.7 215.91,0 414.39,-76.1 570.06,-202.8 -5.54,-8.9 -10.96,-17.6 -16.39,-26.5 -150.54,94 -327.56,147.7 -514.4,147.7 -36.97,0 -74.34,-2.1 -111.96,-6.4 -398.6,-45.6 -713.25,-325.6 -822.36,-686.7"
         style="fill:#d7ae9f;fill-opacity:1;fill-rule:nonzero;stroke:none"
         id="path1514" /><path
         d="m 3355.09,23479.7 c -498.65,0 -904.33,-405.7 -904.33,-904.4 0,-498.6 405.68,-904.3 904.33,-904.3 498.66,0 904.33,405.7 904.33,904.3 0,498.7 -405.67,904.4 -904.33,904.4 m 0,-1949.4 c -576.26,0 -1045.08,468.8 -1045.08,1045 0,576.3 468.82,1045.1 1045.08,1045.1 576.26,0 1045.08,-468.8 1045.08,-1045.1 0,-576.2 -468.82,-1045 -1045.08,-1045"
         style="fill:#000000;fill-opacity:1;fill-rule:nonzero;stroke:none"
         id="path1516" /><path
         d="m 4210.16,22431.6 c 0,-389 -315.34,-704.3 -704.33,-704.3 -388.98,0 -704.32,315.3 -704.32,704.3 0,389 315.34,704.4 704.32,704.4 388.99,0 704.33,-315.4 704.33,-704.4"
         style="fill:#d7a86e;fill-opacity:1;fill-rule:nonzero;stroke:none"
         id="path1518" /><path
         d="m 3027.57,21964.1 c -118.02,120.7 -190.87,285.8 -190.87,467.5 0,369 300.16,669.2 669.13,669.2 101.88,0 198.5,-22.9 285.02,-63.8 -6.5,-13.1 -12.82,-26.1 -19.09,-39.3 -41.44,7.6 -84.17,11.6 -127.83,11.6 -388.99,0 -704.32,-315.4 -704.32,-704.3 0,-123.7 31.93,-239.9 87.96,-340.9"
         style="fill:#987853;fill-opacity:1;fill-rule:nonzero;stroke:none"
         id="path1520" /><path
         d="m 3505.83,23100.8 c -368.97,0 -669.13,-300.2 -669.13,-669.2 0,-368.9 300.16,-669.1 669.13,-669.1 368.97,0 669.14,300.2 669.14,669.1 0,369 -300.17,669.2 -669.14,669.2 m 0,-1408.7 c -407.77,0 -739.51,331.8 -739.51,739.5 0,407.8 331.74,739.5 739.51,739.5 407.77,0 739.52,-331.7 739.52,-739.5 0,-407.7 -331.75,-739.5 -739.52,-739.5"
         style="fill:#000000;fill-opacity:1;fill-rule:nonzero;stroke:none"
         id="path1522" /><path
         d="m 8060.87,22575.3 c 0,-538.3 436.4,-974.7 974.71,-974.7 538.32,0 974.72,436.4 974.72,974.7 0,538.4 -436.4,974.7 -974.72,974.7 -538.31,0 -974.71,-436.3 -974.71,-974.7"
         style="fill:#a64b2a;fill-opacity:1;fill-rule:nonzero;stroke:none"
         id="path1524" /><path
         d="m 9930.64,22705 c -109.12,361.1 -423.76,641.1 -822.37,686.7 -37.61,4.3 -74.98,6.4 -111.95,6.4 -190.02,0 -369.83,-55.5 -522.01,-152.5 -5.2,8.5 -10.45,17.1 -15.74,25.6 156.68,130.1 357.88,208.5 577.01,208.5 454.61,0 831.95,-337.3 895.06,-774.7"
         style="fill:#d7ae9f;fill-opacity:1;fill-rule:nonzero;stroke:none"
         id="path1526" /><path
         d="m 9035.58,23479.7 c 498.65,0 904.33,-405.7 904.33,-904.4 0,-498.6 -405.68,-904.3 -904.33,-904.3 -498.65,0 -904.33,405.7 -904.33,904.3 0,498.7 405.68,904.4 904.33,904.4 m 0,-1949.4 c 576.26,0 1045.12,468.8 1045.12,1045 0,576.3 -468.86,1045.1 -1045.12,1045.1 -576.26,0 -1045.08,-468.8 -1045.08,-1045.1 0,-576.2 468.82,-1045 1045.08,-1045"
         style="fill:#000000;fill-opacity:1;fill-rule:nonzero;stroke:none"
         id="path1528" /><path
         d="m 8180.52,22431.6 c 0,-389 315.33,-704.3 704.32,-704.3 388.99,0 704.33,315.3 704.33,704.3 0,389 -315.34,704.4 -704.33,704.4 -388.99,0 -704.32,-315.4 -704.32,-704.4"
         style="fill:#d7a86e;fill-opacity:1;fill-rule:nonzero;stroke:none"
         id="path1530" /><path
         d="m 9363.09,21964.1 c 56.03,101 87.98,217.2 87.98,340.9 0,388.9 -315.34,704.3 -704.33,704.3 -47.05,0 -93.02,-4.6 -137.47,-13.5 -5.88,12.4 -11.87,24.8 -17.95,37.1 88.68,43.5 188.29,67.9 293.52,67.9 368.97,0 669.14,-300.2 669.14,-669.2 0,-181.8 -72.84,-346.8 -190.89,-467.5"
         style="fill:#987853;fill-opacity:1;fill-rule:nonzero;stroke:none"
         id="path1532" /><path
         d="m 8884.84,23100.8 c 368.97,0 669.14,-300.2 669.14,-669.2 0,-368.9 -300.17,-669.1 -669.14,-669.1 -368.96,0 -669.14,300.2 -669.14,669.1 0,369 300.18,669.2 669.14,669.2 m 0,-1408.7 c 407.77,0 739.51,331.8 739.51,739.5 0,407.8 -331.74,739.5 -739.51,739.5 -407.76,0 -739.51,-331.7 -739.51,-739.5 0,-407.7 331.75,-739.5 739.51,-739.5"
         style="fill:#000000;fill-opacity:1;fill-rule:nonzero;stroke:none"
         id="path1534" /><path
         d="m 8842.71,22009 c 0,901.5 -622.44,1848.9 -1521.87,2303.4 -87.02,43.9 -137.86,134.9 -137.16,232.4 -0.79,142.7 121.31,443.7 -42.45,443.9 -143.52,0 -458.59,-231.6 -532.53,-384.5 -14.33,-29.7 -47.31,-45.7 -79.85,-40.6 -145.9,19.8 14.56,280.1 -126.95,273.5 -86.05,0 -250.89,-106.4 -349.51,-210 -28.07,-29.5 -65.58,-48 -106.1,-52.1 -1350.71,-137 -2408.83,-1390.6 -2408.83,-2566 82.24,-1237.3 609.9,-1458 2046.14,-1650.7 402.41,-54 810.14,-54 1212.54,0.1 1436.85,193 1963.68,412.9 2046.57,1650.6"
         style="fill:#a64b2a;fill-opacity:1;fill-rule:nonzero;stroke:none"
         id="path1536" /><path
         d="m 4369.09,20593.5 c -435.25,174.9 -673.43,451 -777.84,963.7 1.87,0.4 3.69,0.8 5.57,1.3 112.04,-518 366.3,-789.2 831.32,-959.8 -19.67,-1.2 -39.38,-2.9 -59.05,-5.2 m 3643.81,1 c -19.95,2.1 -39.95,3.7 -59.91,4.8 465.04,170.8 718.9,442.4 830.73,961.6 1.83,-0.4 3.71,-0.9 5.54,-1.3 -104.16,-513.4 -341.74,-790.1 -776.36,-965.1"
         style="fill:#b2b1b1;fill-opacity:1;fill-rule:nonzero;stroke:none"
         id="path1538" /><path
         d="m 5189.94,20388.3 c -87.72,14.4 -171.28,29.4 -250.83,45.3 -2.86,6.9 -6.49,12.6 -11.04,16.7 l 5.29,12.4 c 86.19,-17.4 177.16,-33.6 272.99,-49.2 -5.52,-8.3 -10.99,-16.7 -16.41,-25.2 m 2009.62,1.8 c -5.43,8.5 -10.87,16.8 -16.39,25.1 96,15.7 186.95,32.1 273.22,49.6 l 6.21,-14.5 c -3.95,-3.6 -7.21,-8.4 -9.88,-14 -80.2,-16.3 -164.58,-31.5 -253.16,-46.2"
         style="fill:#783c27;fill-opacity:1;fill-rule:nonzero;stroke:none"
         id="path1540" /><path
         d="m 6188.98,20289.9 c -202.25,0 -404.48,13.5 -605.37,40.5 -139.65,18.7 -270.78,37.7 -393.67,57.9 5.42,8.5 10.89,16.9 16.41,25.2 118.17,-19.2 243.74,-37.3 377.25,-55.2 201.03,-27 403.46,-40.5 605.82,-40.5 202.71,0 405.35,13.5 606.72,40.6 137.16,18.4 266.05,37.1 387.03,56.8 5.52,-8.3 10.96,-16.6 16.39,-25.1 -125.73,-20.8 -260.03,-40.3 -403.41,-59.5 -201.48,-27.1 -404.33,-40.7 -607.17,-40.7"
         style="fill:#875949;fill-opacity:1;fill-rule:nonzero;stroke:none"
         id="path1542" /><path
         d="m 4939.11,20433.6 c -5.6,1.2 -11.17,2.3 -16.73,3.4 l 5.69,13.3 c 4.55,-4.1 8.18,-9.8 11.04,-16.7"
         style="fill:#783c27;fill-opacity:1;fill-rule:nonzero;stroke:none"
         id="path1544" /><path
         d="m 4922.38,20437 c -212.31,43.2 -395.67,93.2 -553.29,156.5 19.67,2.3 39.38,4 59.05,5.2 146.71,-53.8 314.41,-97.6 505.22,-136 l -5.29,-12.4 -5.69,-13.3"
         style="fill:#231f20;fill-opacity:1;fill-rule:nonzero;stroke:none"
         id="path1546" /><path
         d="m 7452.72,20436.3 c 2.67,5.6 5.93,10.4 9.88,14 l 4.74,-11.1 c -4.84,-0.9 -9.74,-1.9 -14.62,-2.9"
         style="fill:#783c27;fill-opacity:1;fill-rule:nonzero;stroke:none"
         id="path1548" /><path
         d="m 7467.34,20439.2 -4.74,11.1 -6.21,14.5 c 187.27,38.1 352.15,81.4 496.6,134.5 19.96,-1.1 39.96,-2.7 59.91,-4.8 -155.64,-62.7 -336.46,-112.4 -545.56,-155.3"
         style="fill:#231f20;fill-opacity:1;fill-rule:nonzero;stroke:none"
         id="path1550" /><path
         d="m 3591.25,21557.2 c -8.97,44 -16.96,89.8 -24,137.4 1.39,0.2 2.8,0.3 4.19,0.4 7.47,-47.3 15.92,-92.8 25.38,-136.5 -1.88,-0.5 -3.7,-0.9 -5.57,-1.3"
         style="fill:#0c0b0b;fill-opacity:1;fill-rule:nonzero;stroke:none"
         id="path1552" /><path
         d="m 3557.77,21764.5 c -6.56,52.8 -12.07,107.8 -16.55,165 0.31,5.2 0.63,10.1 0.98,15.3 5.11,-62.6 11.46,-122.7 19.1,-180 -1.17,-0.1 -2.36,-0.2 -3.53,-0.3"
         style="fill:#987853;fill-opacity:1;fill-rule:nonzero;stroke:none"
         id="path1554" /><path
         d="m 3567.25,21694.6 c -3.38,22.9 -6.54,46.2 -9.48,69.9 1.17,0.1 2.36,0.2 3.53,0.3 3.16,-23.7 6.53,-47 10.14,-69.8 -1.39,-0.1 -2.8,-0.2 -4.19,-0.4"
         style="fill:#0c0b0b;fill-opacity:1;fill-rule:nonzero;stroke:none"
         id="path1556" /><path
         d="m 8789.26,21559.6 c -1.83,0.4 -3.71,0.9 -5.54,1.3 9.32,43.3 17.65,88.3 25.04,135.1 1.4,-0.1 2.78,-0.3 4.19,-0.4 -6.96,-47.1 -14.84,-92.4 -23.69,-136"
         style="fill:#0c0b0b;fill-opacity:1;fill-rule:nonzero;stroke:none"
         id="path1558" /><path
         d="m 8822.43,21765.4 c -1.19,0.1 -2.36,0.2 -3.54,0.3 7.61,57.2 13.93,116.7 19.05,179.1 0.35,-5.1 0.68,-10.3 0.99,-15.4 -4.48,-56.8 -9.98,-111.5 -16.5,-164"
         style="fill:#987853;fill-opacity:1;fill-rule:nonzero;stroke:none"
         id="path1560" /><path
         d="m 8812.95,21695.6 c -1.41,0.1 -2.79,0.3 -4.19,0.4 3.6,22.8 6.97,46.1 10.13,69.7 1.18,-0.1 2.35,-0.2 3.54,-0.3 -2.95,-23.7 -6.1,-46.9 -9.48,-69.8"
         style="fill:#0c0b0b;fill-opacity:1;fill-rule:nonzero;stroke:none"
         id="path1562" /><path
         d="m 6189.42,20317.8 c -202.36,0 -404.79,13.5 -605.82,40.5 -133.51,17.9 -259.08,36 -377.25,55.2 -95.83,15.6 -186.8,31.8 -272.99,49.2 -190.81,38.4 -358.51,82.2 -505.22,136 -465.02,170.6 -719.28,441.8 -831.32,959.8 -9.46,43.7 -17.91,89.2 -25.38,136.5 -3.61,22.8 -6.98,46.1 -10.14,69.8 -7.64,57.3 -13.99,117.4 -19.1,180 2.59,38 6.24,76 10.93,114 121.17,-1082.2 665.46,-1290.6 2030.48,-1473.7 201.06,-27 403.54,-40.5 605.96,-40.5 202.67,0 405.28,13.5 606.58,40.6 1365.51,183.4 1909.1,391 2030.87,1473.5 4.69,-37.9 8.34,-75.9 10.92,-113.9 -5.12,-62.4 -11.44,-121.9 -19.05,-179.1 -3.16,-23.6 -6.53,-46.9 -10.13,-69.7 -7.39,-46.8 -15.72,-91.8 -25.04,-135.1 -111.83,-519.2 -365.69,-790.8 -830.73,-961.6 -144.45,-53.1 -309.33,-96.4 -496.6,-134.5 -86.27,-17.5 -177.22,-33.9 -273.22,-49.6 -120.98,-19.7 -249.87,-38.4 -387.03,-56.8 -201.37,-27.1 -404.01,-40.6 -606.72,-40.6"
         style="fill:#783c27;fill-opacity:1;fill-rule:nonzero;stroke:none"
         id="path1564" /><path
         d="m 8842.31,21975.3 c 0.15,7.3 0.26,14.6 0.33,21.9 0.04,-5.4 0.06,-10.7 0.06,-16 -0.13,-2 -0.26,-3.9 -0.39,-5.9"
         style="fill:#987853;fill-opacity:1;fill-rule:nonzero;stroke:none"
         id="path1566" /><path
         d="m 3537.86,21975.5 c -0.13,1.9 -0.26,3.8 -0.38,5.7 0,5.1 0.02,10.2 0.06,15.4 0.06,-7 0.17,-14.1 0.32,-21.1"
         style="fill:#987853;fill-opacity:1;fill-rule:nonzero;stroke:none"
         id="path1568" /><path
         d="m 8839.94,21911.4 c -0.31,6 -0.65,12 -1.01,18 1.2,15.1 2.32,30.5 3.38,45.9 -0.45,-21.3 -1.26,-42.7 -2.37,-63.9"
         style="fill:#edd8be;fill-opacity:1;fill-rule:nonzero;stroke:none"
         id="path1570" /><path
         d="m 8378.81,23387.7 c -265.28,381 -630.32,708.6 -1057.97,924.7 -60.51,30.5 -103.52,83.8 -123.88,146.2 0.18,1 0.35,2 0.52,2.9 20.57,-61.7 63.36,-114.4 123.36,-144.7 428.74,-216.6 794.5,-545.2 1059.95,-927.5 -0.66,-0.5 -1.32,-1.1 -1.98,-1.6"
         style="fill:#ffffff;fill-opacity:1;fill-rule:nonzero;stroke:none"
         id="path1572" /><path
         d="m 8557.49,23094.7 c -26.71,50.5 -55.08,100.4 -85.13,149.7 0.64,0.4 1.3,0.8 1.95,1.2 30.01,-49.3 58.38,-99.4 85.04,-150 -0.63,-0.3 -1.23,-0.6 -1.86,-0.9"
         style="fill:#d7ae9f;fill-opacity:1;fill-rule:nonzero;stroke:none"
         id="path1574" /><path
         d="m 8472.36,23244.4 c -5.15,8.4 -10.37,16.9 -15.62,25.2 0.61,0.5 1.22,1.1 1.83,1.6 5.29,-8.5 10.54,-17.1 15.74,-25.6 -0.65,-0.4 -1.31,-0.8 -1.95,-1.2"
         style="fill:#eddad4;fill-opacity:1;fill-rule:nonzero;stroke:none"
         id="path1576" /><path
         d="m 8456.74,23269.6 c -24.92,39.9 -50.89,79.3 -77.93,118.1 0.66,0.5 1.32,1.1 1.98,1.6 26.95,-38.8 52.93,-78.3 77.78,-118.1 -0.61,-0.5 -1.22,-1.1 -1.83,-1.6"
         style="fill:#8c8c8c;fill-opacity:1;fill-rule:nonzero;stroke:none"
         id="path1578" /><path
         d="m 8842.64,21997.2 c -0.03,3.1 -0.06,6.2 -0.1,9.3 0.06,0.8 0.12,1.7 0.17,2.5 -0.01,-4 -0.04,-7.9 -0.07,-11.8 m 0.07,14.3 c -0.42,330.8 -84.58,667.6 -235.37,983.9 0.64,0.2 1.28,0.3 1.93,0.4 149.98,-316 233.44,-652.2 233.44,-982.3 0,-0.7 0,-1.3 0,-2"
         style="fill:#edd8be;fill-opacity:1;fill-rule:nonzero;stroke:none"
         id="path1580" /><path
         d="m 8607.34,22995.4 c -5.85,12.3 -11.74,24.4 -17.78,36.6 0.58,0.3 1.17,0.6 1.76,0.9 6.08,-12.3 12.07,-24.7 17.95,-37.1 -0.65,-0.1 -1.29,-0.2 -1.93,-0.4"
         style="fill:#d1c2b1;fill-opacity:1;fill-rule:nonzero;stroke:none"
         id="path1582" /><path
         d="m 8589.56,23032 c -10.38,21 -21.11,41.9 -32.07,62.7 0.63,0.3 1.23,0.6 1.86,0.9 10.96,-20.8 21.6,-41.7 31.97,-62.7 -0.59,-0.3 -1.18,-0.6 -1.76,-0.9"
         style="fill:#8c8c8c;fill-opacity:1;fill-rule:nonzero;stroke:none"
         id="path1584" /><path
         d="m 8842.54,22006.5 c -0.6,46.5 -2.85,93 -6.77,139.6 -2.62,-29.7 -5.55,-58.9 -8.75,-87.4 -101.43,822 -689.6,1640.9 -1506.18,2053.5 -87.02,44 -137.86,134.9 -137.16,232.4 v 1.7 c 0,31.4 5.88,70.5 13.28,112.3 20.36,-62.4 63.37,-115.7 123.88,-146.2 427.65,-216.1 792.69,-543.7 1057.97,-924.7 27.04,-38.8 53.01,-78.2 77.93,-118.1 5.25,-8.3 10.47,-16.8 15.62,-25.2 30.05,-49.3 58.42,-99.2 85.13,-149.7 10.96,-20.8 21.69,-41.7 32.07,-62.7 6.04,-12.2 11.93,-24.3 17.78,-36.6 150.79,-316.3 234.95,-653.1 235.37,-983.9 0,-0.8 0,-1.7 0,-2.6 -0.05,-0.7 -0.11,-1.6 -0.17,-2.4"
         style="fill:#d7ae9f;fill-opacity:1;fill-rule:nonzero;stroke:none"
         id="path1586" /><path
         d="m 8838.93,21929.4 c -0.31,5.1 -0.64,10.3 -0.99,15.4 1.66,20.3 3.19,40.8 4.6,61.7 0.04,-3.1 0.07,-6.2 0.1,-9.3 -0.07,-7.3 -0.18,-14.6 -0.33,-21.9 -1.06,-15.4 -2.18,-30.8 -3.38,-45.9"
         style="fill:#d1c2b1;fill-opacity:1;fill-rule:nonzero;stroke:none"
         id="path1588" /><path
         d="m 8837.94,21944.8 c -2.58,38 -6.23,76 -10.92,113.9 3.2,28.5 6.13,57.7 8.75,87.4 3.92,-46.6 6.17,-93.1 6.77,-139.6 -1.41,-20.9 -2.94,-41.4 -4.6,-61.7"
         style="fill:#c2a79e;fill-opacity:1;fill-rule:nonzero;stroke:none"
         id="path1590" /><path
         d="m 3540.21,21911.6 c -1.11,21.2 -1.91,42.5 -2.35,63.9 1.05,-15.5 2.16,-30.8 3.36,-46 -0.36,-5.9 -0.7,-12 -1.01,-17.9"
         style="fill:#edd8be;fill-opacity:1;fill-rule:nonzero;stroke:none"
         id="path1592" /><path
         d="m 3824.81,23098.8 c -0.63,0.3 -1.24,0.6 -1.87,0.9 26.9,50.9 55.53,101.1 85.82,150.7 0.67,-0.4 1.3,-0.8 1.97,-1.2 -30.29,-49.4 -59,-99.7 -85.92,-150.4"
         style="fill:#d7ae9f;fill-opacity:1;fill-rule:nonzero;stroke:none"
         id="path1594" /><path
         d="m 3910.73,23249.2 c -0.67,0.4 -1.3,0.8 -1.97,1.2 5.43,8.9 10.85,17.6 16.39,26.5 0.61,-0.5 1.23,-1 1.84,-1.5 -5.46,-8.7 -10.9,-17.5 -16.26,-26.2"
         style="fill:#eddad4;fill-opacity:1;fill-rule:nonzero;stroke:none"
         id="path1596" /><path
         d="m 4005.11,23393.1 c -0.67,0.6 -1.33,1.1 -2,1.6 434.94,623.4 1136.91,1102.9 1943.18,1184.7 40.52,4.1 78.03,22.7 106.1,52.2 98.62,103.6 263.46,209.9 349.52,209.9 73.74,0 73.5,-78.1 60.09,-165.6 2.02,75.7 21.9,161.3 -54.92,161.3 -1.68,0 -3.4,-0.1 -5.18,-0.1 v 0 c -86.05,0 -250.89,-106.4 -349.51,-210 -28.07,-29.5 -65.58,-48 -106.1,-52.1 -805.03,-81.7 -1506.09,-559.9 -1941.18,-1181.9 m 2535.73,1169.6 c -3.98,0 -7.99,0.3 -11.99,0.9 -32.49,4.4 -49.79,20.7 -58.61,43.4 12.18,-20.4 33.14,-35.4 58.61,-39 l 1.21,-0.1 c 3.61,-0.5 7.23,-0.8 10.82,-0.8 28.41,0 55.24,15.6 67.82,41.6 73.94,152.8 389.01,384.4 532.53,384.4 66.05,0 85.59,-49.1 85.44,-117 -0.71,65.6 -20.83,112.5 -85.44,112.6 -143.52,0 -458.59,-231.6 -532.53,-384.5 -12.56,-26 -39.48,-41.5 -67.86,-41.5"
         style="fill:#ffffff;fill-opacity:1;fill-rule:nonzero;stroke:none"
         id="path1598" /><path
         d="m 3926.99,23275.4 c -0.61,0.5 -1.23,1 -1.84,1.5 24.9,39.7 50.97,79.1 77.96,117.8 0.67,-0.5 1.33,-1 2,-1.6 -27.09,-38.7 -53.13,-77.9 -78.12,-117.7"
         style="fill:#8c8c8c;fill-opacity:1;fill-rule:nonzero;stroke:none"
         id="path1600" /><path
         d="m 3537.54,21996.6 c -0.04,4.1 -0.07,8.2 -0.08,12.3 0.06,-0.8 0.12,-1.7 0.18,-2.6 -0.04,-3.2 -0.08,-6.5 -0.1,-9.7 m -0.08,14.7 c 0,0.7 0,1.4 0,2.2 0,330.7 83.81,667.7 234.3,984.2 0.65,-0.2 1.29,-0.3 1.95,-0.4 -151.37,-316.9 -235.85,-654.6 -236.25,-986"
         style="fill:#edd8be;fill-opacity:1;fill-rule:nonzero;stroke:none"
         id="path1602" /><path
         d="m 3773.71,22997.3 c -0.66,0.1 -1.3,0.2 -1.95,0.4 6.27,13.2 12.59,26.2 19.09,39.3 0.59,-0.3 1.2,-0.6 1.79,-0.9 -6.42,-12.9 -12.74,-25.8 -18.93,-38.8"
         style="fill:#d1c2b1;fill-opacity:1;fill-rule:nonzero;stroke:none"
         id="path1604" /><path
         d="m 3792.64,23036.1 c -0.59,0.3 -1.2,0.6 -1.79,0.9 10.39,20.9 21.12,41.9 32.09,62.7 0.63,-0.3 1.24,-0.6 1.87,-0.9 -11.04,-20.9 -21.71,-41.6 -32.17,-62.7"
         style="fill:#8c8c8c;fill-opacity:1;fill-rule:nonzero;stroke:none"
         id="path1606" /><path
         d="m 3537.64,22006.3 c -0.06,0.9 -0.12,1.8 -0.18,2.7 0,0.7 0,1.5 0,2.3 0.4,331.4 84.88,669.1 236.25,986 6.19,13 12.51,25.9 18.93,38.8 10.46,21.1 21.13,41.8 32.17,62.7 26.92,50.7 55.63,101 85.92,150.4 5.36,8.7 10.8,17.5 16.26,26.2 24.99,39.8 51.03,79 78.12,117.7 435.09,622 1136.15,1100.2 1941.18,1181.9 40.52,4.1 78.03,22.6 106.1,52.1 98.62,103.6 263.46,210 349.51,210 v 0 c 1.78,0 3.5,0.1 5.18,0.1 76.82,0 56.94,-85.6 54.92,-161.3 -0.7,-4.5 -1.42,-9.1 -2.18,-13.6 -3.29,-19.9 0.87,-39.3 10.42,-55.3 8.82,-22.7 26.12,-39 58.61,-43.4 4,-0.6 8.01,-0.9 11.99,-0.9 28.38,0 55.3,15.5 67.86,41.5 73.94,152.9 389.01,384.5 532.53,384.5 64.61,-0.1 84.73,-47 85.44,-112.6 -0.08,-38.2 -6.42,-82.5 -14.21,-127.3 -12.64,24.8 -34.85,39.7 -71.23,39.7 -143.52,0 -458.59,-231.6 -532.53,-384.5 -12.58,-26 -39.41,-41.5 -67.82,-41.5 -3.59,0 -7.21,0.3 -10.82,0.8 l -1.21,0.1 c -45.45,6.4 -76.52,49 -69.03,94.3 15.37,92.9 19.64,179.2 -57.91,179.2 -86.06,0 -250.9,-106.3 -349.52,-209.9 -28.07,-29.5 -65.58,-48.1 -106.1,-52.2 -1255.23,-127.3 -2257.71,-1219 -2393.16,-2316 -3.2,28.5 -6.11,57.8 -8.72,87.5 -3.92,-46.7 -6.18,-93.4 -6.77,-140"
         style="fill:#d7ae9f;fill-opacity:1;fill-rule:nonzero;stroke:none"
         id="path1608" /><path
         d="m 3541.22,21929.5 c -1.2,15.2 -2.31,30.5 -3.36,46 -0.15,7 -0.26,14.1 -0.32,21.1 0.02,3.2 0.06,6.5 0.1,9.7 1.4,-20.8 2.91,-41.2 4.56,-61.5 -0.35,-5.2 -0.67,-10.1 -0.98,-15.3"
         style="fill:#d1c2b1;fill-opacity:1;fill-rule:nonzero;stroke:none"
         id="path1610" /><path
         d="m 3542.2,21944.8 c -1.65,20.3 -3.16,40.7 -4.56,61.5 0.59,46.6 2.85,93.3 6.77,140 2.61,-29.7 5.52,-59 8.72,-87.5 -4.69,-38 -8.34,-76 -10.93,-114"
         style="fill:#c2a79e;fill-opacity:1;fill-rule:nonzero;stroke:none"
         id="path1612" /><path
         d="M 6532.08,24632.6 Z M 3605.71,22011.3 c 77.41,-1156 517.08,-1388.2 1986.96,-1585.4 396.24,-53.2 798.09,-53.1 1194.39,0.1 1469.73,197.4 1909.44,429.6 1987.4,1585.3 -1.05,878 -611.16,1798.9 -1484.41,2240.2 -108.61,54.8 -175.52,167.4 -174.62,293.8 -0.26,46.8 10.25,103.8 21.39,164.2 10.3,55.9 34.44,186.9 13.88,210.2 0.05,-0.2 -3.25,0.7 -9.55,0.7 -42.01,0 -136.33,-37.6 -252.15,-121.8 -103.5,-75.3 -189.4,-163.2 -218.85,-224.1 -26.86,-55.6 -88.9,-87.8 -151.14,-78.5 -135.96,18.9 -127.39,155.1 -123.27,220.6 0.95,15 2.36,37.4 1.53,52 -57.77,-4.4 -198.61,-86.8 -295.44,-188.5 -39.36,-41.4 -92.15,-67.3 -148.65,-73 -1249.76,-126.8 -2346.13,-1292.7 -2347.47,-2495.8 z m 2583.73,-1761.7 c -205.47,0 -410.9,13.6 -614.91,41 -736.56,98.8 -1228.26,203.5 -1561.89,446.1 -338.08,245.8 -500.56,625 -543.28,1267.8 l -0.15,4.5 c 0,591 260.83,1217.2 715.61,1718.3 475.55,523.9 1098.68,849 1754.59,915.6 24.08,2.4 46.65,13.5 63.55,31.3 90.96,95.5 273.92,229.9 397.33,231.1 49.69,1.8 79.88,-17.7 96.47,-34.6 42.72,-43.4 38.73,-106.7 35.22,-162.7 -1.41,-22.2 -3.96,-62.8 1.61,-75.9 0.96,-0.3 2.4,-0.6 4.43,-0.9 l 1.35,-0.2 c 3.55,-0.5 7,1.1 7.87,2.9 80.81,167 413.46,423 593.99,423 60.31,0 95.51,-27.2 114.44,-49.9 61.21,-73.6 37.91,-200 15.38,-322.2 -9.49,-51.5 -19.32,-104.8 -19.12,-139.6 -0.53,-75 37.67,-140.6 99.69,-171.9 918.12,-463.9 1559.34,-1436.2 1559.34,-2364.3 l -0.15,-4.5 c -43.06,-643 -205.61,-1022.2 -543.52,-1267.8 -333.33,-242.3 -825.16,-347 -1562.06,-446 -204.3,-27.4 -410.07,-41.1 -615.79,-41.1"
         style="fill:#231f20;fill-opacity:1;fill-rule:nonzero;stroke:none"
         id="path1614" /><path
         d="m 8160.61,22639.5 c 0,527.6 -615.22,955.3 -1374.13,955.3 -187.62,0 -366.45,-26.1 -529.38,-73.5 -43.67,-12.7 -90.36,-12.7 -134.04,0 -162.92,47.4 -341.76,73.5 -529.37,73.5 -758.91,0 -1374.13,-427.7 -1374.13,-955.3 0,-295.3 192.85,-559.4 495.79,-734.6 63.35,-36.7 100.73,-100.3 100.61,-168.7 v -1.2 c 0,-527.5 615.22,-955.2 1374.12,-955.2 758.91,0 1374.13,427.7 1374.13,955.2 v 1.2 c -0.12,68.4 37.26,132 100.61,168.7 302.94,175.2 495.79,439.3 495.79,734.6"
         style="fill:#d7a86e;fill-opacity:1;fill-rule:nonzero;stroke:none"
         id="path1616" /><path
         d="m 5593.69,23559.6 c -738.3,0 -1338.94,-412.7 -1338.94,-920.1 0,-271.7 174.3,-528.4 478.21,-704.2 74.15,-42.9 118.33,-117.3 118.18,-199.2 0,-508.4 600.65,-921.1 1338.95,-921.1 738.29,0 1338.94,412.7 1338.94,920 -0.15,83 44.03,157.4 118.17,200.3 303.92,175.8 478.22,432.5 478.22,704.2 0,507.4 -600.65,920.1 -1338.94,920.1 -180.11,0 -354.92,-24.2 -519.57,-72.1 -50.25,-14.6 -103.39,-14.6 -153.66,0 -164.65,47.9 -339.46,72.1 -519.56,72.1 z m 596.4,-2815 c -777.11,0 -1409.32,444.3 -1409.32,990.4 0.1,57.6 -30.95,109.3 -83.05,139.4 -326.24,188.7 -513.34,467.6 -513.34,765.1 0,546.2 632.21,990.5 1409.31,990.5 186.75,0 368.16,-25.2 539.19,-74.9 37.42,-10.8 76.97,-10.9 114.41,0 171.02,49.7 352.43,74.9 539.19,74.9 777.1,0 1409.32,-444.3 1409.32,-990.5 0,-297.5 -187.11,-576.4 -513.35,-765.1 -52.11,-30.1 -83.15,-81.8 -83.06,-138.2 0.01,-547.3 -632.2,-991.6 -1409.3,-991.6"
         style="fill:#231f20;fill-opacity:1;fill-rule:nonzero;stroke:none"
         id="path1618" /><path
         d="m 7751.83,22421.9 c 0,-285.4 -231.39,-516.8 -516.83,-516.8 -285.44,0 -516.83,231.4 -516.83,516.8 0,285.5 231.39,516.9 516.83,516.9 285.44,0 516.83,-231.4 516.83,-516.9"
         style="fill:#f1f2f2;fill-opacity:1;fill-rule:nonzero;stroke:none"
         id="path1620" /><path
         d="m 7240.25,21926.1 c -273.4,0 -495.83,222.4 -495.83,495.8 0,273.4 222.43,495.9 495.83,495.9 273.4,0 495.83,-222.5 495.83,-495.9 0,-273.4 -222.43,-495.8 -495.83,-495.8"
         style="fill:#231f20;fill-opacity:1;fill-rule:nonzero;stroke:none"
         id="path1622" /><path
         d="m 7157.57,22616.1 c 0,-83.2 -67.47,-150.6 -150.69,-150.6 -83.22,0 -150.68,67.4 -150.68,150.6 0,83.3 67.46,150.7 150.68,150.7 83.22,0 150.69,-67.4 150.69,-150.7"
         style="fill:#f1f2f2;fill-opacity:1;fill-rule:nonzero;stroke:none"
         id="path1624" /><path
         d="m 7592.66,23022.1 c 15.02,-56 -181.01,-48.5 -404.31,-108.3 -223.29,-59.8 -389.28,-164.4 -404.3,-108.3 -15.02,56 135.69,217.6 358.98,277.4 223.29,59.9 434.61,-4.7 449.63,-60.8"
         style="fill:#231f20;fill-opacity:1;fill-rule:nonzero;stroke:none"
         id="path1626" /><path
         d="m 5662,22436.5 c 0,-277.4 -231.39,-502.3 -516.83,-502.3 -285.44,0 -516.83,224.9 -516.83,502.3 0,277.4 231.39,502.3 516.83,502.3 285.44,0 516.83,-224.9 516.83,-502.3"
         style="fill:#f1f2f2;fill-opacity:1;fill-rule:nonzero;stroke:none"
         id="path1628" /><path
         d="m 5150.42,21955.2 c -273.4,0 -495.83,215.9 -495.83,481.3 0,265.4 222.43,481.3 495.83,481.3 273.4,0 495.83,-215.9 495.83,-481.3 0,-265.4 -222.43,-481.3 -495.83,-481.3"
         style="fill:#231f20;fill-opacity:1;fill-rule:nonzero;stroke:none"
         id="path1630" /><path
         d="m 5067.74,22616.1 c 0,-83.2 -67.47,-150.6 -150.68,-150.6 -83.23,0 -150.69,67.4 -150.69,150.6 0,83.3 67.46,150.7 150.69,150.7 83.21,0 150.68,-67.4 150.68,-150.7"
         style="fill:#f1f2f2;fill-opacity:1;fill-rule:nonzero;stroke:none"
         id="path1632" /><path
         d="m 5606.62,22805.5 c -15.02,-56.1 -181.01,48.5 -404.3,108.3 -223.29,59.8 -419.33,52.3 -404.31,108.3 15.02,56.1 226.35,120.7 449.63,60.8 223.29,-59.8 374,-221.4 358.98,-277.4"
         style="fill:#231f20;fill-opacity:1;fill-rule:nonzero;stroke:none"
         id="path1634" /><path
         d="m 6612.22,21401.7 c -53.46,-24.5 -120.16,-27.8 -155.83,-27.6 -59.09,0.3 -115.41,22.7 -158.5,63.1 -40.51,38 -63.53,87.5 -63.34,135.8 v 0.2 0.3 c 0,1.2 -0.3,2.4 -0.39,3.6 -0.1,1.7 -0.2,3.5 -0.5,5.1 -0.3,1.3 -0.79,2.5 -1.18,3.8 l -0.1,0.3 c -0.4,1.4 -0.7,2.9 -1.29,4.2 -0.59,1.2 -1.28,2.4 -1.97,3.6 -0.69,1.3 -1.29,2.7 -2.18,3.9 -0.69,1.2 -1.68,2.1 -2.56,3.2 -0.99,1.2 -1.78,2.4 -2.77,3.4 -0.99,1 -2.18,1.8 -3.27,2.7 -1.08,0.8 -2.17,1.9 -3.35,2.7 -1.09,0.8 -2.48,1.4 -3.66,2 -1.29,0.7 -2.47,1.6 -3.85,2.1 -1.39,0.6 -2.87,0.9 -4.25,1.4 -1.38,0.3 -2.67,0.9 -4.06,1.2 -1.57,0.3 -3.15,0.3 -4.74,0.5 -1.38,0.1 -2.66,0.4 -4.05,0.4 h -0.3 -0.19 c -1.38,0 -2.77,-0.3 -4.15,-0.4 -1.58,-0.2 -3.17,-0.2 -4.65,-0.5 -1.48,-0.3 -2.86,-0.9 -4.24,-1.3 -1.39,-0.4 -2.77,-0.7 -4.06,-1.3 -1.48,-0.6 -2.77,-1.4 -4.15,-2.2 -1.09,-0.6 -2.37,-1.2 -3.45,-1.9 -1.29,-0.9 -2.38,-2 -3.56,-2.9 -0.99,-0.8 -2.08,-1.6 -2.97,-2.5 -1.09,-1.1 -1.98,-2.4 -2.96,-3.6 -0.79,-1 -1.68,-1.9 -2.47,-3 -0.79,-1.2 -1.49,-2.6 -2.18,-4 -0.59,-1.2 -1.38,-2.3 -1.88,-3.5 -0.59,-1.3 -0.88,-2.8 -1.38,-4.2 l -0.09,-0.3 c -0.3,-1.3 -0.89,-2.6 -1.09,-3.8 -0.4,-1.6 -0.4,-3.4 -0.59,-5.1 -0.11,-1.2 -0.4,-2.4 -0.4,-3.6 v -0.3 -0.2 c 0.29,-48.3 -22.83,-97.8 -63.34,-135.8 -43.09,-40.4 -99.31,-62.8 -158.5,-63.1 -35.27,-0.3 -102.37,3.1 -155.73,27.6 -20.45,9.4 -92.79,-85.3 -92.79,-103.5 0,-189.6 1029.74,-189.6 1029.74,0 0,18.2 -72.32,112.9 -92.78,103.5"
         style="fill:#231f20;fill-opacity:1;fill-rule:nonzero;stroke:none"
         id="path1636" /><path
         d="m 5587.76,21147.5 c -39.69,-270.3 277.86,-10.4 607.56,-10.4 329.71,0 657.09,-237.1 605.59,30.5 -70.56,366.6 -267.28,259.6 -596.99,259.6 -329.7,0 -565.76,63.6 -616.16,-279.7"
         style="fill:#231f20;fill-opacity:1;fill-rule:nonzero;stroke:none"
         id="path1638" /><path
         d="m 5686.11,21360.9 c 100.64,-140.4 299.29,-102.5 553.64,-102.5 242.59,0 413.21,-57.9 514.53,57.5 -94.48,182.5 -276.29,109.2 -549.09,109.2 -227.93,0 -411.05,30.4 -519.08,-64.2"
         style="fill:#ffffff;fill-opacity:1;fill-rule:nonzero;stroke:none"
         id="path1640" /><path
         d="m 6748.33,21316.8 c -70.36,131.6 -186.22,123.4 -360.72,111.1 -54.49,-3.9 -116.26,-8.2 -182.42,-8.2 -46.77,0 -91.3,1.2 -134.36,2.5 -163.53,4.6 -293.21,8.3 -377.89,-62.2 81.39,-108.1 227.79,-104 412.52,-98.7 43.03,1.3 87.54,2.5 134.29,2.5 66.19,0 127.97,-4.3 182.48,-8.2 147.1,-10.4 253.89,-18 326.1,61.2 z m -233.12,128.2 c 107.95,0 189.49,-22.8 243.06,-126.3 l 1.92,-3.7 -2.65,-3 c -75.21,-85.7 -184.56,-77.9 -335.87,-67.3 -54.38,3.9 -116.01,8.2 -181.92,8.2 -46.63,0 -91.08,-1.2 -134.07,-2.4 -189.69,-5.5 -339.55,-9.7 -423.15,106.9 l -3.15,4.4 3.93,3.4 c 87.18,76.4 219.86,72.6 387.75,67.9 43,-1.3 87.47,-2.5 134.13,-2.5 65.88,0 127.5,4.3 181.86,8.2 46.15,3.2 88.91,6.2 128.16,6.2"
         style="fill:#231f20;fill-opacity:1;fill-rule:nonzero;stroke:none"
         id="path1642" /><path
         d="m 5638.63,21031.1 c 99.63,-18 325.73,110.8 557.85,110.8 277.16,0 552.64,-167.5 602.89,-61.9 0.74,7.2 -3.85,15.4 -6.59,22.5 -66.4,171.1 -292.12,121.2 -572.08,129.4 -291.87,8.5 -506.05,50.7 -586.3,-179.4 -2.73,-7.8 -0.68,-16.3 4.23,-21.4"
         style="fill:#ffffff;fill-opacity:1;fill-rule:nonzero;stroke:none"
         id="path1644" /><path
         d="m 6294.7,21225.5 c -24.19,0 -48.86,0.2 -74.11,1 -35.85,1 -70.45,2.5 -103.91,4 -237.36,10.6 -408.78,18.3 -477.95,-180 -1.69,-4.9 -0.84,-10.4 2.09,-14.2 44.17,-7.2 115.62,14.8 198.17,40.2 102.34,31.6 229.71,70.8 357.49,70.8 122.76,0 247.41,-33.3 347.58,-60 124.82,-33.4 223.62,-59.8 250.72,-5.7 0.01,3.8 -2.09,8.8 -4.13,13.5 -0.75,1.8 -1.49,3.5 -2.13,5.2 -51.03,131.5 -204.08,129.1 -397.82,126.1 -31.3,-0.5 -63.21,-0.9 -96,-0.9 z m -322.04,20.3 c 44.89,0 93.11,-2.1 144.38,-4.4 33.43,-1.5 67.99,-3 103.79,-4.1 59.34,-1.7 115.46,-0.8 169.75,0 197.15,3 352.9,5.4 406.47,-132.5 0.6,-1.6 1.28,-3.2 1.97,-4.8 2.68,-6.3 5.73,-13.5 4.98,-20.7 l -0.55,-2 c -29.79,-62.6 -126.99,-36.6 -261.48,-0.6 -99.7,26.6 -223.79,59.8 -345.49,59.8 -126.57,0 -253.28,-39.1 -355.1,-70.5 -87.98,-27.1 -157.51,-48.6 -203.47,-40.2 l -1.36,0.2 -1.03,1.1 c -6.59,6.8 -8.78,17.8 -5.45,27.5 56.41,161.7 176.43,191.2 342.59,191.2"
         style="fill:#231f20;fill-opacity:1;fill-rule:nonzero;stroke:none"
         id="path1646" /><path
         d="m 6203.92,21410.7 c 66.5,0 128.44,4.4 183.09,8.3 223.34,15.9 346.35,24.5 400.14,-255 8.54,-44.3 6.12,-74.6 -7.18,-90 -30.59,-35.5 -125.27,-10.2 -234.93,19.1 -100.64,26.9 -225.88,60.4 -349.72,60.4 -128.96,0 -256.95,-39.5 -359.79,-71.2 -103.17,-31.8 -192.25,-59.2 -223.01,-26.5 -13.92,14.8 -17.48,43.9 -10.87,88.9 41.2,280.7 210.92,275.8 467.73,268.5 43.1,-1.2 87.67,-2.5 134.54,-2.5 z m 310.84,47.4 c -39.8,0 -82.97,-3.1 -129.47,-6.3 -54.25,-3.9 -115.73,-8.2 -181.37,-8.2 -46.53,0 -90.92,1.2 -133.86,2.5 -261.73,7.4 -450.87,12.8 -496.19,-295.8 -8.36,-56.9 -1.93,-95.7 19.64,-118.7 42.11,-44.9 128.98,-18.1 249.23,19 101.26,31.2 227.28,70 352.58,70 120.64,0 239,-31.6 343.42,-59.5 127.41,-34 219.51,-58.6 261.11,-10.4 20.91,24.2 25.75,63.6 14.81,120.5 -46.74,242.8 -148.81,286.9 -299.9,286.9"
         style="fill:#231f20;fill-opacity:1;fill-rule:nonzero;stroke:none"
         id="path1648" /><path
         d="m 6517.33,21916 c 0,-110.8 -146.51,-299.1 -327.25,-299.1 -180.73,0 -327.24,188.3 -327.24,299.1 0,110.8 146.51,102.1 327.24,102.1 180.74,0 327.25,8.7 327.25,-102.1"
         style="fill:#3c2415;fill-opacity:1;fill-rule:nonzero;stroke:none"
         id="path1650" /><path
         d="m 6119.58,21983 c -94.93,0 -179.8,-2.8 -209.42,-32.3 -5.21,-5.2 -12.13,-14.4 -12.13,-34.7 0,-88 126.26,-263.9 292.05,-263.9 165.8,0 292.06,175.9 292.06,263.9 0,20.3 -6.92,29.5 -12.13,34.7 -33.05,33 -134.9,32.6 -242.85,32.3 l -37.08,-0.1 -37.07,0.1 c -11.23,0 -22.39,0 -33.43,0 z m 70.5,-401.3 c -200.06,0 -362.43,202.3 -362.43,334.3 0,34.4 11.05,62.9 32.82,84.6 53.77,53.5 159.17,53.2 292.78,52.7 h 36.83 36.84 c 133.52,0.5 239.02,0.8 292.78,-52.7 21.77,-21.7 32.82,-50.2 32.82,-84.6 0,-132 -162.37,-334.3 -362.44,-334.3"
         style="fill:#231f20;fill-opacity:1;fill-rule:nonzero;stroke:none"
         id="path1652" /></g></g></svg>
