<!DOCTYPE svg PUBLIC "-//W3C//DTD SVG 1.1//EN" "http://www.w3.org/Graphics/SVG/1.1/DTD/svg11.dtd">

<!-- Uploaded to: SVG Repo, www.svgrepo.com, Transformed by: SVG Repo Mixer Tools -->
<svg viewBox="0 0 600 600" version="1.1" id="svg9724" sodipodi:docname="home.svg" inkscape:version="1.2.2 (1:1.2.2+202212051550+b0a8486541)" width="40px" height="40px" xmlns:inkscape="http://www.inkscape.org/namespaces/inkscape" xmlns:sodipodi="http://sodipodi.sourceforge.net/DTD/sodipodi-0.dtd" xmlns="http://www.w3.org/2000/svg" xmlns:svg="http://www.w3.org/2000/svg" fill="#000000">

<g id="SVGRepo_bgCarrier" stroke-width="0"/>

<g id="SVGRepo_tracerCarrier" stroke-linecap="round" stroke-linejoin="round"/>

<g id="SVGRepo_iconCarrier"> <defs id="defs9728"/> <sodipodi:namedview id="namedview9726" pagecolor="#ffffff" bordercolor="#666666" borderopacity="1.0" inkscape:showpageshadow="2" inkscape:pageopacity="0.0" inkscape:pagecheckerboard="0" inkscape:deskcolor="#d1d1d1" showgrid="true" inkscape:zoom="0.84179692" inkscape:cx="153.83758" inkscape:cy="310.64499" inkscape:window-width="1920" inkscape:window-height="1009" inkscape:window-x="0" inkscape:window-y="1080" inkscape:window-maximized="1" inkscape:current-layer="svg9724" showguides="true"> <inkscape:grid type="xygrid" id="grid9972" originx="0" originy="0"/> <sodipodi:guide position="300,720" orientation="1,0" id="guide1112" inkscape:locked="false"/> <sodipodi:guide position="-540,300" orientation="0,-1" id="guide399" inkscape:locked="false"/> <sodipodi:guide position="110,200" orientation="0,-1" id="guide401" inkscape:locked="false"/> </sodipodi:namedview> <path style="color:#fed703;fill:#fed703;stroke-linecap:round;stroke-linejoin:round;-inkscape-stroke:none" d="M 300,0 A 40.004,40.004 0 0 0 271.71484,11.714844 L 11.714844,271.71484 A 40.004,40.004 0 0 0 0,300 v 260 a 40.004,40.004 0 0 0 40,40 h 164.66602 a 40.004,40.004 0 0 0 40,-40 V 426.66602 H 355.33398 V 560 a 40.004,40.004 0 0 0 40,40 H 560 a 40.004,40.004 0 0 0 40,-40 V 300 a 40.004,40.004 0 0 0 -11.71484,-28.28516 l -260,-259.999996 A 40.004,40.004 0 0 0 300,0 Z m 0,96.568359 220,220.000001 V 520 H 435.33398 V 386.66602 a 40.004,40.004 0 0 0 -40,-40 H 204.66602 a 40.004,40.004 0 0 0 -40,40 V 520 H 80 V 316.56836 Z" id="path1011"/> </g>

</svg>